<?xml version="1.0" encoding="utf-8" standalone="no"?>
<!DOCTYPE svg PUBLIC "-//W3C//DTD SVG 1.1//EN"
  "http://www.w3.org/Graphics/SVG/1.1/DTD/svg11.dtd">
<!-- Created with matplotlib (https://matplotlib.org/) -->
<svg height="2160pt" version="1.1" viewBox="0 0 720 2160" width="720pt" xmlns="http://www.w3.org/2000/svg" xmlns:xlink="http://www.w3.org/1999/xlink">
 <metadata>
  <rdf:RDF xmlns:cc="http://creativecommons.org/ns#" xmlns:dc="http://purl.org/dc/elements/1.1/" xmlns:rdf="http://www.w3.org/1999/02/22-rdf-syntax-ns#">
   <cc:Work>
    <dc:type rdf:resource="http://purl.org/dc/dcmitype/StillImage"/>
    <dc:date>2022-05-11T14:53:52.768759</dc:date>
    <dc:format>image/svg+xml</dc:format>
    <dc:creator>
     <cc:Agent>
      <dc:title>Matplotlib v3.3.4, https://matplotlib.org/</dc:title>
     </cc:Agent>
    </dc:creator>
   </cc:Work>
  </rdf:RDF>
 </metadata>
 <defs>
  <style type="text/css">*{stroke-linecap:butt;stroke-linejoin:round;}</style>
 </defs>
 <g id="figure_1">
  <g id="patch_1">
   <path d="M 0 2160 
L 720 2160 
L 720 0 
L 0 0 
z
" style="fill:#ffffff;"/>
  </g>
  <g id="axes_1">
   <g id="patch_2">
    <path d="M 90 400.149153 
L 648 400.149153 
L 648 259.2 
L 90 259.2 
z
" style="fill:#ffffff;"/>
   </g>
   <g id="matplotlib.axis_1">
    <g id="xtick_1">
     <g id="line2d_1">
      <defs>
       <path d="M 0 0 
L 0 3.5 
" id="mad079193db" style="stroke:#000000;stroke-width:0.8;"/>
      </defs>
      <g>
       <use style="stroke:#000000;stroke-width:0.8;" x="114.961789" xlink:href="#mad079193db" y="400.149153"/>
      </g>
     </g>
    </g>
    <g id="xtick_2">
     <g id="line2d_2">
      <g>
       <use style="stroke:#000000;stroke-width:0.8;" x="231.913757" xlink:href="#mad079193db" y="400.149153"/>
      </g>
     </g>
    </g>
    <g id="xtick_3">
     <g id="line2d_3">
      <g>
       <use style="stroke:#000000;stroke-width:0.8;" x="348.865725" xlink:href="#mad079193db" y="400.149153"/>
      </g>
     </g>
    </g>
    <g id="xtick_4">
     <g id="line2d_4">
      <g>
       <use style="stroke:#000000;stroke-width:0.8;" x="465.817692" xlink:href="#mad079193db" y="400.149153"/>
      </g>
     </g>
    </g>
    <g id="xtick_5">
     <g id="line2d_5">
      <g>
       <use style="stroke:#000000;stroke-width:0.8;" x="582.76966" xlink:href="#mad079193db" y="400.149153"/>
      </g>
     </g>
    </g>
   </g>
   <g id="matplotlib.axis_2">
    <g id="ytick_1">
     <g id="line2d_6">
      <defs>
       <path d="M 0 0 
L -3.5 0 
" id="m852e3d3389" style="stroke:#000000;stroke-width:0.8;"/>
      </defs>
      <g>
       <use style="stroke:#000000;stroke-width:0.8;" x="90" xlink:href="#m852e3d3389" y="393.742373"/>
      </g>
     </g>
     <g id="text_1">
      <!-- 0.00 -->
      <g transform="translate(60.734375 397.541592)scale(0.1 -0.1)">
       <defs>
        <path d="M 31.78125 66.40625 
Q 24.171875 66.40625 20.328125 58.90625 
Q 16.5 51.421875 16.5 36.375 
Q 16.5 21.390625 20.328125 13.890625 
Q 24.171875 6.390625 31.78125 6.390625 
Q 39.453125 6.390625 43.28125 13.890625 
Q 47.125 21.390625 47.125 36.375 
Q 47.125 51.421875 43.28125 58.90625 
Q 39.453125 66.40625 31.78125 66.40625 
z
M 31.78125 74.21875 
Q 44.046875 74.21875 50.515625 64.515625 
Q 56.984375 54.828125 56.984375 36.375 
Q 56.984375 17.96875 50.515625 8.265625 
Q 44.046875 -1.421875 31.78125 -1.421875 
Q 19.53125 -1.421875 13.0625 8.265625 
Q 6.59375 17.96875 6.59375 36.375 
Q 6.59375 54.828125 13.0625 64.515625 
Q 19.53125 74.21875 31.78125 74.21875 
z
" id="DejaVuSans-48"/>
        <path d="M 10.6875 12.40625 
L 21 12.40625 
L 21 0 
L 10.6875 0 
z
" id="DejaVuSans-46"/>
       </defs>
       <use xlink:href="#DejaVuSans-48"/>
       <use x="63.623047" xlink:href="#DejaVuSans-46"/>
       <use x="95.410156" xlink:href="#DejaVuSans-48"/>
       <use x="159.033203" xlink:href="#DejaVuSans-48"/>
      </g>
     </g>
    </g>
    <g id="ytick_2">
     <g id="line2d_7">
      <g>
       <use style="stroke:#000000;stroke-width:0.8;" x="90" xlink:href="#m852e3d3389" y="371.933185"/>
      </g>
     </g>
     <g id="text_2">
      <!-- 0.01 -->
      <g transform="translate(60.734375 375.732404)scale(0.1 -0.1)">
       <defs>
        <path d="M 12.40625 8.296875 
L 28.515625 8.296875 
L 28.515625 63.921875 
L 10.984375 60.40625 
L 10.984375 69.390625 
L 28.421875 72.90625 
L 38.28125 72.90625 
L 38.28125 8.296875 
L 54.390625 8.296875 
L 54.390625 0 
L 12.40625 0 
z
" id="DejaVuSans-49"/>
       </defs>
       <use xlink:href="#DejaVuSans-48"/>
       <use x="63.623047" xlink:href="#DejaVuSans-46"/>
       <use x="95.410156" xlink:href="#DejaVuSans-48"/>
       <use x="159.033203" xlink:href="#DejaVuSans-49"/>
      </g>
     </g>
    </g>
    <g id="ytick_3">
     <g id="line2d_8">
      <g>
       <use style="stroke:#000000;stroke-width:0.8;" x="90" xlink:href="#m852e3d3389" y="350.123997"/>
      </g>
     </g>
     <g id="text_3">
      <!-- 0.02 -->
      <g transform="translate(60.734375 353.923216)scale(0.1 -0.1)">
       <defs>
        <path d="M 19.1875 8.296875 
L 53.609375 8.296875 
L 53.609375 0 
L 7.328125 0 
L 7.328125 8.296875 
Q 12.9375 14.109375 22.625 23.890625 
Q 32.328125 33.6875 34.8125 36.53125 
Q 39.546875 41.84375 41.421875 45.53125 
Q 43.3125 49.21875 43.3125 52.78125 
Q 43.3125 58.59375 39.234375 62.25 
Q 35.15625 65.921875 28.609375 65.921875 
Q 23.96875 65.921875 18.8125 64.3125 
Q 13.671875 62.703125 7.8125 59.421875 
L 7.8125 69.390625 
Q 13.765625 71.78125 18.9375 73 
Q 24.125 74.21875 28.421875 74.21875 
Q 39.75 74.21875 46.484375 68.546875 
Q 53.21875 62.890625 53.21875 53.421875 
Q 53.21875 48.921875 51.53125 44.890625 
Q 49.859375 40.875 45.40625 35.40625 
Q 44.1875 33.984375 37.640625 27.21875 
Q 31.109375 20.453125 19.1875 8.296875 
z
" id="DejaVuSans-50"/>
       </defs>
       <use xlink:href="#DejaVuSans-48"/>
       <use x="63.623047" xlink:href="#DejaVuSans-46"/>
       <use x="95.410156" xlink:href="#DejaVuSans-48"/>
       <use x="159.033203" xlink:href="#DejaVuSans-50"/>
      </g>
     </g>
    </g>
    <g id="ytick_4">
     <g id="line2d_9">
      <g>
       <use style="stroke:#000000;stroke-width:0.8;" x="90" xlink:href="#m852e3d3389" y="328.314809"/>
      </g>
     </g>
     <g id="text_4">
      <!-- 0.03 -->
      <g transform="translate(60.734375 332.114028)scale(0.1 -0.1)">
       <defs>
        <path d="M 40.578125 39.3125 
Q 47.65625 37.796875 51.625 33 
Q 55.609375 28.21875 55.609375 21.1875 
Q 55.609375 10.40625 48.1875 4.484375 
Q 40.765625 -1.421875 27.09375 -1.421875 
Q 22.515625 -1.421875 17.65625 -0.515625 
Q 12.796875 0.390625 7.625 2.203125 
L 7.625 11.71875 
Q 11.71875 9.328125 16.59375 8.109375 
Q 21.484375 6.890625 26.8125 6.890625 
Q 36.078125 6.890625 40.9375 10.546875 
Q 45.796875 14.203125 45.796875 21.1875 
Q 45.796875 27.640625 41.28125 31.265625 
Q 36.765625 34.90625 28.71875 34.90625 
L 20.21875 34.90625 
L 20.21875 43.015625 
L 29.109375 43.015625 
Q 36.375 43.015625 40.234375 45.921875 
Q 44.09375 48.828125 44.09375 54.296875 
Q 44.09375 59.90625 40.109375 62.90625 
Q 36.140625 65.921875 28.71875 65.921875 
Q 24.65625 65.921875 20.015625 65.03125 
Q 15.375 64.15625 9.8125 62.3125 
L 9.8125 71.09375 
Q 15.4375 72.65625 20.34375 73.4375 
Q 25.25 74.21875 29.59375 74.21875 
Q 40.828125 74.21875 47.359375 69.109375 
Q 53.90625 64.015625 53.90625 55.328125 
Q 53.90625 49.265625 50.4375 45.09375 
Q 46.96875 40.921875 40.578125 39.3125 
z
" id="DejaVuSans-51"/>
       </defs>
       <use xlink:href="#DejaVuSans-48"/>
       <use x="63.623047" xlink:href="#DejaVuSans-46"/>
       <use x="95.410156" xlink:href="#DejaVuSans-48"/>
       <use x="159.033203" xlink:href="#DejaVuSans-51"/>
      </g>
     </g>
    </g>
    <g id="ytick_5">
     <g id="line2d_10">
      <g>
       <use style="stroke:#000000;stroke-width:0.8;" x="90" xlink:href="#m852e3d3389" y="306.505621"/>
      </g>
     </g>
     <g id="text_5">
      <!-- 0.04 -->
      <g transform="translate(60.734375 310.30484)scale(0.1 -0.1)">
       <defs>
        <path d="M 37.796875 64.3125 
L 12.890625 25.390625 
L 37.796875 25.390625 
z
M 35.203125 72.90625 
L 47.609375 72.90625 
L 47.609375 25.390625 
L 58.015625 25.390625 
L 58.015625 17.1875 
L 47.609375 17.1875 
L 47.609375 0 
L 37.796875 0 
L 37.796875 17.1875 
L 4.890625 17.1875 
L 4.890625 26.703125 
z
" id="DejaVuSans-52"/>
       </defs>
       <use xlink:href="#DejaVuSans-48"/>
       <use x="63.623047" xlink:href="#DejaVuSans-46"/>
       <use x="95.410156" xlink:href="#DejaVuSans-48"/>
       <use x="159.033203" xlink:href="#DejaVuSans-52"/>
      </g>
     </g>
    </g>
    <g id="ytick_6">
     <g id="line2d_11">
      <g>
       <use style="stroke:#000000;stroke-width:0.8;" x="90" xlink:href="#m852e3d3389" y="284.696433"/>
      </g>
     </g>
     <g id="text_6">
      <!-- 0.05 -->
      <g transform="translate(60.734375 288.495652)scale(0.1 -0.1)">
       <defs>
        <path d="M 10.796875 72.90625 
L 49.515625 72.90625 
L 49.515625 64.59375 
L 19.828125 64.59375 
L 19.828125 46.734375 
Q 21.96875 47.46875 24.109375 47.828125 
Q 26.265625 48.1875 28.421875 48.1875 
Q 40.625 48.1875 47.75 41.5 
Q 54.890625 34.8125 54.890625 23.390625 
Q 54.890625 11.625 47.5625 5.09375 
Q 40.234375 -1.421875 26.90625 -1.421875 
Q 22.3125 -1.421875 17.546875 -0.640625 
Q 12.796875 0.140625 7.71875 1.703125 
L 7.71875 11.625 
Q 12.109375 9.234375 16.796875 8.0625 
Q 21.484375 6.890625 26.703125 6.890625 
Q 35.15625 6.890625 40.078125 11.328125 
Q 45.015625 15.765625 45.015625 23.390625 
Q 45.015625 31 40.078125 35.4375 
Q 35.15625 39.890625 26.703125 39.890625 
Q 22.75 39.890625 18.8125 39.015625 
Q 14.890625 38.140625 10.796875 36.28125 
z
" id="DejaVuSans-53"/>
       </defs>
       <use xlink:href="#DejaVuSans-48"/>
       <use x="63.623047" xlink:href="#DejaVuSans-46"/>
       <use x="95.410156" xlink:href="#DejaVuSans-48"/>
       <use x="159.033203" xlink:href="#DejaVuSans-53"/>
      </g>
     </g>
    </g>
    <g id="ytick_7">
     <g id="line2d_12">
      <g>
       <use style="stroke:#000000;stroke-width:0.8;" x="90" xlink:href="#m852e3d3389" y="262.887245"/>
      </g>
     </g>
     <g id="text_7">
      <!-- 0.06 -->
      <g transform="translate(60.734375 266.686464)scale(0.1 -0.1)">
       <defs>
        <path d="M 33.015625 40.375 
Q 26.375 40.375 22.484375 35.828125 
Q 18.609375 31.296875 18.609375 23.390625 
Q 18.609375 15.53125 22.484375 10.953125 
Q 26.375 6.390625 33.015625 6.390625 
Q 39.65625 6.390625 43.53125 10.953125 
Q 47.40625 15.53125 47.40625 23.390625 
Q 47.40625 31.296875 43.53125 35.828125 
Q 39.65625 40.375 33.015625 40.375 
z
M 52.59375 71.296875 
L 52.59375 62.3125 
Q 48.875 64.0625 45.09375 64.984375 
Q 41.3125 65.921875 37.59375 65.921875 
Q 27.828125 65.921875 22.671875 59.328125 
Q 17.53125 52.734375 16.796875 39.40625 
Q 19.671875 43.65625 24.015625 45.921875 
Q 28.375 48.1875 33.59375 48.1875 
Q 44.578125 48.1875 50.953125 41.515625 
Q 57.328125 34.859375 57.328125 23.390625 
Q 57.328125 12.15625 50.6875 5.359375 
Q 44.046875 -1.421875 33.015625 -1.421875 
Q 20.359375 -1.421875 13.671875 8.265625 
Q 6.984375 17.96875 6.984375 36.375 
Q 6.984375 53.65625 15.1875 63.9375 
Q 23.390625 74.21875 37.203125 74.21875 
Q 40.921875 74.21875 44.703125 73.484375 
Q 48.484375 72.75 52.59375 71.296875 
z
" id="DejaVuSans-54"/>
       </defs>
       <use xlink:href="#DejaVuSans-48"/>
       <use x="63.623047" xlink:href="#DejaVuSans-46"/>
       <use x="95.410156" xlink:href="#DejaVuSans-48"/>
       <use x="159.033203" xlink:href="#DejaVuSans-54"/>
      </g>
     </g>
    </g>
   </g>
   <g id="line2d_13">
    <path clip-path="url(#pf5cca20acb)" d="M 115.363636 393.742373 
L 115.830041 393.742373 
L 116.067921 391.471859 
L 116.88448 371.037238 
L 262.318813 371.037238 
L 263.656743 295.93994 
L 264.858308 290.749486 
L 266.171795 288.198069 
L 267.449262 288.688043 
L 268.721582 292.075795 
L 270.004194 298.28863 
L 271.330547 307.418056 
L 272.815135 318.484546 
L 275.233701 345.928076 
L 276.679696 361.549112 
L 278.017626 371.037238 
L 297.059979 371.037238 
L 298.385045 367.875726 
L 299.810456 351.812487 
L 300.900097 337.215635 
L 302.214871 323.09867 
L 303.509062 311.275909 
L 304.778809 301.300305 
L 306.056276 293.975004 
L 307.365904 289.264793 
L 308.615068 287.593861 
L 309.922123 288.866849 
L 311.224032 293.161272 
L 312.484774 300.044039 
L 313.799548 309.847818 
L 315.182505 321.495449 
L 319.095952 366.296607 
L 320.419731 371.037238 
L 339.535414 371.037238 
L 340.842469 363.125186 
L 344.66329 318.912507 
L 345.992215 307.452505 
L 347.243952 297.868249 
L 348.52785 291.247775 
L 349.805317 287.226064 
L 351.082783 286.278883 
L 352.405276 288.451051 
L 353.67631 293.502201 
L 355.023129 301.315297 
L 356.340593 311.859792 
L 357.609054 324.339156 
L 360.126679 354.400534 
L 361.736055 371.037238 
L 381.983832 371.037238 
L 383.29346 358.621941 
L 385.868976 327.780431 
L 387.173459 314.044955 
L 388.42005 302.913944 
L 389.693657 294.104371 
L 391.017436 287.793968 
L 392.287183 284.669188 
L 393.571082 284.563785 
L 394.872991 287.622439 
L 396.144025 293.576798 
L 397.447221 302.516352 
L 398.70925 313.640303 
L 400.098639 327.383399 
L 402.652285 358.414124 
L 404.062258 371.037238 
L 424.446402 371.037238 
L 427.087528 336.97715 
L 428.292952 322.376423 
L 430.895484 297.840804 
L 432.185815 289.378362 
L 433.447844 283.889584 
L 434.745894 281.366373 
L 436.033652 282.08181 
L 437.311118 285.970886 
L 438.604022 292.996166 
L 439.904645 302.973033 
L 441.30304 315.110437 
L 442.583079 330.098164 
L 445.181752 363.162765 
L 446.584006 371.037238 
L 465.621213 371.037238 
L 466.990019 364.870981 
L 468.378122 347.608459 
L 469.520509 330.903539 
L 470.831423 315.814865 
L 472.107603 302.680685 
L 473.340043 291.771244 
L 474.644525 283.527607 
L 475.915559 278.513257 
L 477.208463 276.696302 
L 478.498794 278.288591 
L 479.791698 283.267429 
L 481.076883 291.435808 
L 482.367214 302.58193 
L 483.6524 393.742373 
L 486.230489 393.742373 
L 487.691921 368.436063 
L 488.88062 371.037238 
L 508.122377 371.037238 
L 509.41914 359.647218 
L 512.070558 324.070309 
L 513.305571 308.407384 
L 514.580464 294.802429 
L 515.816764 284.225554 
L 517.099376 276.288122 
L 518.412863 271.642811 
L 519.692903 270.630961 
L 520.978088 273.203867 
L 522.252981 279.263522 
L 523.527875 288.68077 
L 524.917264 301.740031 
L 526.279637 316.969046 
L 528.754809 353.442557 
L 530.379623 371.037238 
L 550.574654 371.037238 
L 551.850834 393.742373 
L 558.323073 393.742373 
L 559.605685 269.007639 
L 560.878006 265.842205 
L 562.173483 266.42779 
L 563.4651 270.826235 
L 564.712978 278.528596 
L 566.011028 289.84397 
L 568.707472 320.626421 
L 571.31901 359.316038 
L 572.957975 371.037238 
L 591.739174 371.037238 
L 593.048802 368.42797 
L 594.547542 347.708842 
L 596.959676 310.946964 
L 598.212699 295.447074 
L 599.504317 282.885912 
L 600.774065 273.630009 
L 602.039953 267.827614 
L 603.356013 265.60678 
L 604.614182 267.205586 
L 605.90194 272.540488 
L 607.216715 281.643528 
L 608.508332 293.847803 
L 611.16361 325.786302 
L 612.417919 345.067931 
L 613.816314 364.78361 
L 615.182547 371.037238 
L 622.636364 371.037238 
L 622.636364 371.037238 
" style="fill:none;stroke:#1f77b4;stroke-linecap:square;stroke-width:1.5;"/>
   </g>
   <g id="patch_3">
    <path d="M 90 400.149153 
L 90 259.2 
" style="fill:none;stroke:#000000;stroke-linecap:square;stroke-linejoin:miter;stroke-width:0.8;"/>
   </g>
   <g id="patch_4">
    <path d="M 648 400.149153 
L 648 259.2 
" style="fill:none;stroke:#000000;stroke-linecap:square;stroke-linejoin:miter;stroke-width:0.8;"/>
   </g>
   <g id="patch_5">
    <path d="M 90 400.149153 
L 648 400.149153 
" style="fill:none;stroke:#000000;stroke-linecap:square;stroke-linejoin:miter;stroke-width:0.8;"/>
   </g>
   <g id="patch_6">
    <path d="M 90 259.2 
L 648 259.2 
" style="fill:none;stroke:#000000;stroke-linecap:square;stroke-linejoin:miter;stroke-width:0.8;"/>
   </g>
  </g>
  <g id="axes_2">
   <g id="patch_7">
    <path d="M 90 569.288136 
L 648 569.288136 
L 648 428.338983 
L 90 428.338983 
z
" style="fill:#ffffff;"/>
   </g>
   <g id="matplotlib.axis_3">
    <g id="xtick_6">
     <g id="line2d_14">
      <g>
       <use style="stroke:#000000;stroke-width:0.8;" x="114.961789" xlink:href="#mad079193db" y="569.288136"/>
      </g>
     </g>
    </g>
    <g id="xtick_7">
     <g id="line2d_15">
      <g>
       <use style="stroke:#000000;stroke-width:0.8;" x="231.913757" xlink:href="#mad079193db" y="569.288136"/>
      </g>
     </g>
    </g>
    <g id="xtick_8">
     <g id="line2d_16">
      <g>
       <use style="stroke:#000000;stroke-width:0.8;" x="348.865725" xlink:href="#mad079193db" y="569.288136"/>
      </g>
     </g>
    </g>
    <g id="xtick_9">
     <g id="line2d_17">
      <g>
       <use style="stroke:#000000;stroke-width:0.8;" x="465.817692" xlink:href="#mad079193db" y="569.288136"/>
      </g>
     </g>
    </g>
    <g id="xtick_10">
     <g id="line2d_18">
      <g>
       <use style="stroke:#000000;stroke-width:0.8;" x="582.76966" xlink:href="#mad079193db" y="569.288136"/>
      </g>
     </g>
    </g>
   </g>
   <g id="matplotlib.axis_4">
    <g id="ytick_8">
     <g id="line2d_19">
      <g>
       <use style="stroke:#000000;stroke-width:0.8;" x="90" xlink:href="#m852e3d3389" y="562.881356"/>
      </g>
     </g>
     <g id="text_8">
      <!-- 0.0 -->
      <g transform="translate(67.096875 566.680575)scale(0.1 -0.1)">
       <use xlink:href="#DejaVuSans-48"/>
       <use x="63.623047" xlink:href="#DejaVuSans-46"/>
       <use x="95.410156" xlink:href="#DejaVuSans-48"/>
      </g>
     </g>
    </g>
    <g id="ytick_9">
     <g id="line2d_20">
      <g>
       <use style="stroke:#000000;stroke-width:0.8;" x="90" xlink:href="#m852e3d3389" y="534.76109"/>
      </g>
     </g>
     <g id="text_9">
      <!-- 0.2 -->
      <g transform="translate(67.096875 538.560308)scale(0.1 -0.1)">
       <use xlink:href="#DejaVuSans-48"/>
       <use x="63.623047" xlink:href="#DejaVuSans-46"/>
       <use x="95.410156" xlink:href="#DejaVuSans-50"/>
      </g>
     </g>
    </g>
    <g id="ytick_10">
     <g id="line2d_21">
      <g>
       <use style="stroke:#000000;stroke-width:0.8;" x="90" xlink:href="#m852e3d3389" y="506.640823"/>
      </g>
     </g>
     <g id="text_10">
      <!-- 0.4 -->
      <g transform="translate(67.096875 510.440042)scale(0.1 -0.1)">
       <use xlink:href="#DejaVuSans-48"/>
       <use x="63.623047" xlink:href="#DejaVuSans-46"/>
       <use x="95.410156" xlink:href="#DejaVuSans-52"/>
      </g>
     </g>
    </g>
    <g id="ytick_11">
     <g id="line2d_22">
      <g>
       <use style="stroke:#000000;stroke-width:0.8;" x="90" xlink:href="#m852e3d3389" y="478.520557"/>
      </g>
     </g>
     <g id="text_11">
      <!-- 0.6 -->
      <g transform="translate(67.096875 482.319776)scale(0.1 -0.1)">
       <use xlink:href="#DejaVuSans-48"/>
       <use x="63.623047" xlink:href="#DejaVuSans-46"/>
       <use x="95.410156" xlink:href="#DejaVuSans-54"/>
      </g>
     </g>
    </g>
    <g id="ytick_12">
     <g id="line2d_23">
      <g>
       <use style="stroke:#000000;stroke-width:0.8;" x="90" xlink:href="#m852e3d3389" y="450.400291"/>
      </g>
     </g>
     <g id="text_12">
      <!-- 0.8 -->
      <g transform="translate(67.096875 454.199509)scale(0.1 -0.1)">
       <defs>
        <path d="M 31.78125 34.625 
Q 24.75 34.625 20.71875 30.859375 
Q 16.703125 27.09375 16.703125 20.515625 
Q 16.703125 13.921875 20.71875 10.15625 
Q 24.75 6.390625 31.78125 6.390625 
Q 38.8125 6.390625 42.859375 10.171875 
Q 46.921875 13.96875 46.921875 20.515625 
Q 46.921875 27.09375 42.890625 30.859375 
Q 38.875 34.625 31.78125 34.625 
z
M 21.921875 38.8125 
Q 15.578125 40.375 12.03125 44.71875 
Q 8.5 49.078125 8.5 55.328125 
Q 8.5 64.0625 14.71875 69.140625 
Q 20.953125 74.21875 31.78125 74.21875 
Q 42.671875 74.21875 48.875 69.140625 
Q 55.078125 64.0625 55.078125 55.328125 
Q 55.078125 49.078125 51.53125 44.71875 
Q 48 40.375 41.703125 38.8125 
Q 48.828125 37.15625 52.796875 32.3125 
Q 56.78125 27.484375 56.78125 20.515625 
Q 56.78125 9.90625 50.3125 4.234375 
Q 43.84375 -1.421875 31.78125 -1.421875 
Q 19.734375 -1.421875 13.25 4.234375 
Q 6.78125 9.90625 6.78125 20.515625 
Q 6.78125 27.484375 10.78125 32.3125 
Q 14.796875 37.15625 21.921875 38.8125 
z
M 18.3125 54.390625 
Q 18.3125 48.734375 21.84375 45.5625 
Q 25.390625 42.390625 31.78125 42.390625 
Q 38.140625 42.390625 41.71875 45.5625 
Q 45.3125 48.734375 45.3125 54.390625 
Q 45.3125 60.0625 41.71875 63.234375 
Q 38.140625 66.40625 31.78125 66.40625 
Q 25.390625 66.40625 21.84375 63.234375 
Q 18.3125 60.0625 18.3125 54.390625 
z
" id="DejaVuSans-56"/>
       </defs>
       <use xlink:href="#DejaVuSans-48"/>
       <use x="63.623047" xlink:href="#DejaVuSans-46"/>
       <use x="95.410156" xlink:href="#DejaVuSans-56"/>
      </g>
     </g>
    </g>
   </g>
   <g id="line2d_24">
    <path clip-path="url(#padefbd88f7)" d="M 115.363636 562.881356 
L 482.367214 562.881356 
L 483.6524 478.138314 
L 484.941444 495.186384 
L 486.230489 513.713432 
L 487.691921 562.881356 
L 550.574654 562.881356 
L 551.850834 517.461733 
L 554.421205 477.730105 
L 555.716682 460.438448 
L 556.995434 446.194159 
L 558.323073 434.745763 
L 559.605685 562.881356 
L 622.636364 562.881356 
L 622.636364 562.881356 
" style="fill:none;stroke:#1f77b4;stroke-linecap:square;stroke-width:1.5;"/>
   </g>
   <g id="patch_8">
    <path d="M 90 569.288136 
L 90 428.338983 
" style="fill:none;stroke:#000000;stroke-linecap:square;stroke-linejoin:miter;stroke-width:0.8;"/>
   </g>
   <g id="patch_9">
    <path d="M 648 569.288136 
L 648 428.338983 
" style="fill:none;stroke:#000000;stroke-linecap:square;stroke-linejoin:miter;stroke-width:0.8;"/>
   </g>
   <g id="patch_10">
    <path d="M 90 569.288136 
L 648 569.288136 
" style="fill:none;stroke:#000000;stroke-linecap:square;stroke-linejoin:miter;stroke-width:0.8;"/>
   </g>
   <g id="patch_11">
    <path d="M 90 428.338983 
L 648 428.338983 
" style="fill:none;stroke:#000000;stroke-linecap:square;stroke-linejoin:miter;stroke-width:0.8;"/>
   </g>
  </g>
  <g id="axes_3">
   <g id="patch_12">
    <path d="M 90 738.427119 
L 648 738.427119 
L 648 597.477966 
L 90 597.477966 
z
" style="fill:#ffffff;"/>
   </g>
   <g id="matplotlib.axis_5">
    <g id="xtick_11">
     <g id="line2d_25">
      <g>
       <use style="stroke:#000000;stroke-width:0.8;" x="114.961789" xlink:href="#mad079193db" y="738.427119"/>
      </g>
     </g>
    </g>
    <g id="xtick_12">
     <g id="line2d_26">
      <g>
       <use style="stroke:#000000;stroke-width:0.8;" x="231.913757" xlink:href="#mad079193db" y="738.427119"/>
      </g>
     </g>
    </g>
    <g id="xtick_13">
     <g id="line2d_27">
      <g>
       <use style="stroke:#000000;stroke-width:0.8;" x="348.865725" xlink:href="#mad079193db" y="738.427119"/>
      </g>
     </g>
    </g>
    <g id="xtick_14">
     <g id="line2d_28">
      <g>
       <use style="stroke:#000000;stroke-width:0.8;" x="465.817692" xlink:href="#mad079193db" y="738.427119"/>
      </g>
     </g>
    </g>
    <g id="xtick_15">
     <g id="line2d_29">
      <g>
       <use style="stroke:#000000;stroke-width:0.8;" x="582.76966" xlink:href="#mad079193db" y="738.427119"/>
      </g>
     </g>
    </g>
   </g>
   <g id="matplotlib.axis_6">
    <g id="ytick_13">
     <g id="line2d_30">
      <g>
       <use style="stroke:#000000;stroke-width:0.8;" x="90" xlink:href="#m852e3d3389" y="732.121844"/>
      </g>
     </g>
     <g id="text_13">
      <!-- 0 -->
      <g transform="translate(76.6375 735.921063)scale(0.1 -0.1)">
       <use xlink:href="#DejaVuSans-48"/>
      </g>
     </g>
    </g>
    <g id="ytick_14">
     <g id="line2d_31">
      <g>
       <use style="stroke:#000000;stroke-width:0.8;" x="90" xlink:href="#m852e3d3389" y="702.580123"/>
      </g>
     </g>
     <g id="text_14">
      <!-- 1 -->
      <g transform="translate(76.6375 706.379341)scale(0.1 -0.1)">
       <use xlink:href="#DejaVuSans-49"/>
      </g>
     </g>
    </g>
    <g id="ytick_15">
     <g id="line2d_32">
      <g>
       <use style="stroke:#000000;stroke-width:0.8;" x="90" xlink:href="#m852e3d3389" y="673.038401"/>
      </g>
     </g>
     <g id="text_15">
      <!-- 2 -->
      <g transform="translate(76.6375 676.83762)scale(0.1 -0.1)">
       <use xlink:href="#DejaVuSans-50"/>
      </g>
     </g>
    </g>
    <g id="ytick_16">
     <g id="line2d_33">
      <g>
       <use style="stroke:#000000;stroke-width:0.8;" x="90" xlink:href="#m852e3d3389" y="643.496679"/>
      </g>
     </g>
     <g id="text_16">
      <!-- 3 -->
      <g transform="translate(76.6375 647.295898)scale(0.1 -0.1)">
       <use xlink:href="#DejaVuSans-51"/>
      </g>
     </g>
    </g>
    <g id="ytick_17">
     <g id="line2d_34">
      <g>
       <use style="stroke:#000000;stroke-width:0.8;" x="90" xlink:href="#m852e3d3389" y="613.954957"/>
      </g>
     </g>
     <g id="text_17">
      <!-- 4 -->
      <g transform="translate(76.6375 617.754176)scale(0.1 -0.1)">
       <use xlink:href="#DejaVuSans-52"/>
      </g>
     </g>
    </g>
    <g id="text_18">
     <!-- 1e6 -->
     <g transform="translate(90 594.477966)scale(0.1 -0.1)">
      <defs>
       <path d="M 56.203125 29.59375 
L 56.203125 25.203125 
L 14.890625 25.203125 
Q 15.484375 15.921875 20.484375 11.0625 
Q 25.484375 6.203125 34.421875 6.203125 
Q 39.59375 6.203125 44.453125 7.46875 
Q 49.3125 8.734375 54.109375 11.28125 
L 54.109375 2.78125 
Q 49.265625 0.734375 44.1875 -0.34375 
Q 39.109375 -1.421875 33.890625 -1.421875 
Q 20.796875 -1.421875 13.15625 6.1875 
Q 5.515625 13.8125 5.515625 26.8125 
Q 5.515625 40.234375 12.765625 48.109375 
Q 20.015625 56 32.328125 56 
Q 43.359375 56 49.78125 48.890625 
Q 56.203125 41.796875 56.203125 29.59375 
z
M 47.21875 32.234375 
Q 47.125 39.59375 43.09375 43.984375 
Q 39.0625 48.390625 32.421875 48.390625 
Q 24.90625 48.390625 20.390625 44.140625 
Q 15.875 39.890625 15.1875 32.171875 
z
" id="DejaVuSans-101"/>
      </defs>
      <use xlink:href="#DejaVuSans-49"/>
      <use x="63.623047" xlink:href="#DejaVuSans-101"/>
      <use x="125.146484" xlink:href="#DejaVuSans-54"/>
     </g>
    </g>
   </g>
   <g id="line2d_35">
    <path clip-path="url(#p21f73c23ca)" d="M 115.363636 732.020339 
L 622.636364 603.884746 
L 622.636364 603.884746 
" style="fill:none;stroke:#1f77b4;stroke-linecap:square;stroke-width:1.5;"/>
   </g>
   <g id="patch_13">
    <path d="M 90 738.427119 
L 90 597.477966 
" style="fill:none;stroke:#000000;stroke-linecap:square;stroke-linejoin:miter;stroke-width:0.8;"/>
   </g>
   <g id="patch_14">
    <path d="M 648 738.427119 
L 648 597.477966 
" style="fill:none;stroke:#000000;stroke-linecap:square;stroke-linejoin:miter;stroke-width:0.8;"/>
   </g>
   <g id="patch_15">
    <path d="M 90 738.427119 
L 648 738.427119 
" style="fill:none;stroke:#000000;stroke-linecap:square;stroke-linejoin:miter;stroke-width:0.8;"/>
   </g>
   <g id="patch_16">
    <path d="M 90 597.477966 
L 648 597.477966 
" style="fill:none;stroke:#000000;stroke-linecap:square;stroke-linejoin:miter;stroke-width:0.8;"/>
   </g>
  </g>
  <g id="axes_4">
   <g id="patch_17">
    <path d="M 90 907.566102 
L 648 907.566102 
L 648 766.616949 
L 90 766.616949 
z
" style="fill:#ffffff;"/>
   </g>
   <g id="matplotlib.axis_7">
    <g id="xtick_16">
     <g id="line2d_36">
      <g>
       <use style="stroke:#000000;stroke-width:0.8;" x="114.961789" xlink:href="#mad079193db" y="907.566102"/>
      </g>
     </g>
    </g>
    <g id="xtick_17">
     <g id="line2d_37">
      <g>
       <use style="stroke:#000000;stroke-width:0.8;" x="231.913757" xlink:href="#mad079193db" y="907.566102"/>
      </g>
     </g>
    </g>
    <g id="xtick_18">
     <g id="line2d_38">
      <g>
       <use style="stroke:#000000;stroke-width:0.8;" x="348.865725" xlink:href="#mad079193db" y="907.566102"/>
      </g>
     </g>
    </g>
    <g id="xtick_19">
     <g id="line2d_39">
      <g>
       <use style="stroke:#000000;stroke-width:0.8;" x="465.817692" xlink:href="#mad079193db" y="907.566102"/>
      </g>
     </g>
    </g>
    <g id="xtick_20">
     <g id="line2d_40">
      <g>
       <use style="stroke:#000000;stroke-width:0.8;" x="582.76966" xlink:href="#mad079193db" y="907.566102"/>
      </g>
     </g>
    </g>
   </g>
   <g id="matplotlib.axis_8">
    <g id="ytick_18">
     <g id="line2d_41">
      <g>
       <use style="stroke:#000000;stroke-width:0.8;" x="90" xlink:href="#m852e3d3389" y="886.922034"/>
      </g>
     </g>
     <g id="text_19">
      <!-- 2 -->
      <g transform="translate(76.6375 890.721253)scale(0.1 -0.1)">
       <use xlink:href="#DejaVuSans-50"/>
      </g>
     </g>
    </g>
    <g id="ytick_19">
     <g id="line2d_42">
      <g>
       <use style="stroke:#000000;stroke-width:0.8;" x="90" xlink:href="#m852e3d3389" y="858.447458"/>
      </g>
     </g>
     <g id="text_20">
      <!-- 4 -->
      <g transform="translate(76.6375 862.246676)scale(0.1 -0.1)">
       <use xlink:href="#DejaVuSans-52"/>
      </g>
     </g>
    </g>
    <g id="ytick_20">
     <g id="line2d_43">
      <g>
       <use style="stroke:#000000;stroke-width:0.8;" x="90" xlink:href="#m852e3d3389" y="829.972881"/>
      </g>
     </g>
     <g id="text_21">
      <!-- 6 -->
      <g transform="translate(76.6375 833.7721)scale(0.1 -0.1)">
       <use xlink:href="#DejaVuSans-54"/>
      </g>
     </g>
    </g>
    <g id="ytick_21">
     <g id="line2d_44">
      <g>
       <use style="stroke:#000000;stroke-width:0.8;" x="90" xlink:href="#m852e3d3389" y="801.498305"/>
      </g>
     </g>
     <g id="text_22">
      <!-- 8 -->
      <g transform="translate(76.6375 805.297524)scale(0.1 -0.1)">
       <use xlink:href="#DejaVuSans-56"/>
      </g>
     </g>
    </g>
    <g id="ytick_22">
     <g id="line2d_45">
      <g>
       <use style="stroke:#000000;stroke-width:0.8;" x="90" xlink:href="#m852e3d3389" y="773.023729"/>
      </g>
     </g>
     <g id="text_23">
      <!-- 10 -->
      <g transform="translate(70.275 776.822948)scale(0.1 -0.1)">
       <use xlink:href="#DejaVuSans-49"/>
       <use x="63.623047" xlink:href="#DejaVuSans-48"/>
      </g>
     </g>
    </g>
   </g>
   <g id="line2d_46">
    <path clip-path="url(#p26092e4499)" d="M 115.363636 901.159322 
L 116.067921 901.159322 
L 116.88448 773.023729 
L 622.636364 773.023729 
L 622.636364 773.023729 
" style="fill:none;stroke:#1f77b4;stroke-linecap:square;stroke-width:1.5;"/>
   </g>
   <g id="patch_18">
    <path d="M 90 907.566102 
L 90 766.616949 
" style="fill:none;stroke:#000000;stroke-linecap:square;stroke-linejoin:miter;stroke-width:0.8;"/>
   </g>
   <g id="patch_19">
    <path d="M 648 907.566102 
L 648 766.616949 
" style="fill:none;stroke:#000000;stroke-linecap:square;stroke-linejoin:miter;stroke-width:0.8;"/>
   </g>
   <g id="patch_20">
    <path d="M 90 907.566102 
L 648 907.566102 
" style="fill:none;stroke:#000000;stroke-linecap:square;stroke-linejoin:miter;stroke-width:0.8;"/>
   </g>
   <g id="patch_21">
    <path d="M 90 766.616949 
L 648 766.616949 
" style="fill:none;stroke:#000000;stroke-linecap:square;stroke-linejoin:miter;stroke-width:0.8;"/>
   </g>
  </g>
  <g id="axes_5">
   <g id="patch_22">
    <path d="M 90 1076.705085 
L 648 1076.705085 
L 648 935.755932 
L 90 935.755932 
z
" style="fill:#ffffff;"/>
   </g>
   <g id="matplotlib.axis_9">
    <g id="xtick_21">
     <g id="line2d_47">
      <g>
       <use style="stroke:#000000;stroke-width:0.8;" x="114.961789" xlink:href="#mad079193db" y="1076.705085"/>
      </g>
     </g>
    </g>
    <g id="xtick_22">
     <g id="line2d_48">
      <g>
       <use style="stroke:#000000;stroke-width:0.8;" x="231.913757" xlink:href="#mad079193db" y="1076.705085"/>
      </g>
     </g>
    </g>
    <g id="xtick_23">
     <g id="line2d_49">
      <g>
       <use style="stroke:#000000;stroke-width:0.8;" x="348.865725" xlink:href="#mad079193db" y="1076.705085"/>
      </g>
     </g>
    </g>
    <g id="xtick_24">
     <g id="line2d_50">
      <g>
       <use style="stroke:#000000;stroke-width:0.8;" x="465.817692" xlink:href="#mad079193db" y="1076.705085"/>
      </g>
     </g>
    </g>
    <g id="xtick_25">
     <g id="line2d_51">
      <g>
       <use style="stroke:#000000;stroke-width:0.8;" x="582.76966" xlink:href="#mad079193db" y="1076.705085"/>
      </g>
     </g>
    </g>
   </g>
   <g id="matplotlib.axis_10">
    <g id="ytick_23">
     <g id="line2d_52">
      <g>
       <use style="stroke:#000000;stroke-width:0.8;" x="90" xlink:href="#m852e3d3389" y="1073.755205"/>
      </g>
     </g>
     <g id="text_24">
      <!-- 0 -->
      <g transform="translate(76.6375 1077.554424)scale(0.1 -0.1)">
       <use xlink:href="#DejaVuSans-48"/>
      </g>
     </g>
    </g>
    <g id="ytick_24">
     <g id="line2d_53">
      <g>
       <use style="stroke:#000000;stroke-width:0.8;" x="90" xlink:href="#m852e3d3389" y="1039.186202"/>
      </g>
     </g>
     <g id="text_25">
      <!-- 10 -->
      <g transform="translate(70.275 1042.985421)scale(0.1 -0.1)">
       <use xlink:href="#DejaVuSans-49"/>
       <use x="63.623047" xlink:href="#DejaVuSans-48"/>
      </g>
     </g>
    </g>
    <g id="ytick_25">
     <g id="line2d_54">
      <g>
       <use style="stroke:#000000;stroke-width:0.8;" x="90" xlink:href="#m852e3d3389" y="1004.617199"/>
      </g>
     </g>
     <g id="text_26">
      <!-- 20 -->
      <g transform="translate(70.275 1008.416418)scale(0.1 -0.1)">
       <use xlink:href="#DejaVuSans-50"/>
       <use x="63.623047" xlink:href="#DejaVuSans-48"/>
      </g>
     </g>
    </g>
    <g id="ytick_26">
     <g id="line2d_55">
      <g>
       <use style="stroke:#000000;stroke-width:0.8;" x="90" xlink:href="#m852e3d3389" y="970.048196"/>
      </g>
     </g>
     <g id="text_27">
      <!-- 30 -->
      <g transform="translate(70.275 973.847415)scale(0.1 -0.1)">
       <use xlink:href="#DejaVuSans-51"/>
       <use x="63.623047" xlink:href="#DejaVuSans-48"/>
      </g>
     </g>
    </g>
   </g>
   <g id="line2d_56">
    <path clip-path="url(#paa0cd0960d)" d="M 115.363636 1070.298305 
L 116.88448 1070.214424 
L 123.291109 1069.702659 
L 131.015084 1067.184897 
L 177.369231 1051.918909 
L 199.240535 1044.909651 
L 263.656743 1039.981067 
L 266.171795 1041.939067 
L 267.449262 1043.023649 
L 268.721582 1040.990046 
L 271.330547 1012.399268 
L 272.815135 1011.654672 
L 273.931792 1012.195493 
L 275.233701 1012.648587 
L 276.679696 1012.90239 
L 279.024933 1012.860954 
L 299.810456 1011.398446 
L 302.214871 984.969731 
L 303.509062 977.240716 
L 304.778809 977.970742 
L 307.365904 979.840216 
L 313.799548 984.89905 
L 316.360913 986.196167 
L 317.629374 986.595298 
L 319.095952 986.798742 
L 321.502941 986.698122 
L 325.363642 986.421052 
L 331.77413 984.516655 
L 340.842469 981.790586 
L 342.164962 981.527418 
L 343.396115 981.46821 
L 344.66329 981.618967 
L 345.992215 981.953663 
L 348.52785 983.06976 
L 352.405276 985.365961 
L 355.023129 986.803195 
L 356.340593 987.359139 
L 357.609054 987.75993 
L 358.801613 988.001469 
L 360.126679 988.068098 
L 361.736055 987.92055 
L 367.813347 986.190088 
L 383.29346 985.088327 
L 384.608234 985.16768 
L 385.868976 985.458639 
L 387.173459 985.961844 
L 388.42005 986.629101 
L 391.017436 988.474557 
L 397.447221 993.8224 
L 398.70925 994.672807 
L 400.098639 995.395251 
L 401.352949 995.867579 
L 402.652285 996.161241 
L 404.062258 996.240513 
L 425.788191 994.672624 
L 427.087528 994.826507 
L 428.292952 995.189865 
L 429.648893 995.787961 
L 430.895484 996.548836 
L 433.447844 998.527127 
L 439.904645 1004.120574 
L 441.30304 1004.964705 
L 442.583079 1005.593652 
L 443.78593 1006.031337 
L 445.181752 1006.283174 
L 447.622188 1006.22394 
L 468.378122 1004.819258 
L 469.520509 1005.025249 
L 470.831423 1005.485533 
L 472.107603 1006.129335 
L 473.340043 1006.947193 
L 475.915559 1009.092284 
L 481.076883 1013.776125 
L 482.367214 1014.778812 
L 484.941444 1016.396913 
L 486.230489 1016.9645 
L 487.691921 1017.154441 
L 491.386667 1016.92757 
L 493.966043 1016.731399 
L 502.95462 1014.059851 
L 504.223081 1005.395271 
L 505.527563 990.49464 
L 506.830759 977.668149 
L 509.41914 976.91848 
L 510.748065 976.701403 
L 512.070558 966.354888 
L 513.305571 953.62706 
L 514.580464 942.162712 
L 515.816764 942.781177 
L 518.412863 944.513054 
L 522.252981 947.42408 
L 523.527875 948.240842 
L 524.917264 948.937427 
L 526.279637 949.426596 
L 527.425884 949.710557 
L 528.754809 949.820275 
L 530.379623 949.700406 
L 541.571926 946.838033 
L 551.850834 944.34426 
L 553.128301 944.308029 
L 554.421205 944.523053 
L 555.716682 944.975253 
L 556.995434 945.640025 
L 566.011028 951.51078 
L 567.298786 952.14008 
L 568.707472 952.602353 
L 569.961782 952.846822 
L 571.31901 952.890997 
L 572.957975 952.725572 
L 577.607283 951.553362 
L 580.194378 951.293192 
L 594.547542 950.483638 
L 595.805711 950.647446 
L 596.959676 951.003606 
L 598.212699 951.606984 
L 599.504317 952.385336 
L 602.039953 954.330132 
L 607.216715 958.76208 
L 609.783225 960.492666 
L 611.16361 961.121563 
L 612.417919 961.538471 
L 613.816314 961.747176 
L 616.213011 961.681438 
L 622.636364 961.300059 
L 622.636364 961.300059 
" style="fill:none;stroke:#1f77b4;stroke-linecap:square;stroke-width:1.5;"/>
   </g>
   <g id="patch_23">
    <path d="M 90 1076.705085 
L 90 935.755932 
" style="fill:none;stroke:#000000;stroke-linecap:square;stroke-linejoin:miter;stroke-width:0.8;"/>
   </g>
   <g id="patch_24">
    <path d="M 648 1076.705085 
L 648 935.755932 
" style="fill:none;stroke:#000000;stroke-linecap:square;stroke-linejoin:miter;stroke-width:0.8;"/>
   </g>
   <g id="patch_25">
    <path d="M 90 1076.705085 
L 648 1076.705085 
" style="fill:none;stroke:#000000;stroke-linecap:square;stroke-linejoin:miter;stroke-width:0.8;"/>
   </g>
   <g id="patch_26">
    <path d="M 90 935.755932 
L 648 935.755932 
" style="fill:none;stroke:#000000;stroke-linecap:square;stroke-linejoin:miter;stroke-width:0.8;"/>
   </g>
  </g>
  <g id="axes_6">
   <g id="patch_27">
    <path d="M 90 1245.844068 
L 648 1245.844068 
L 648 1104.894915 
L 90 1104.894915 
z
" style="fill:#ffffff;"/>
   </g>
   <g id="matplotlib.axis_11">
    <g id="xtick_26">
     <g id="line2d_57">
      <g>
       <use style="stroke:#000000;stroke-width:0.8;" x="114.961789" xlink:href="#mad079193db" y="1245.844068"/>
      </g>
     </g>
    </g>
    <g id="xtick_27">
     <g id="line2d_58">
      <g>
       <use style="stroke:#000000;stroke-width:0.8;" x="231.913757" xlink:href="#mad079193db" y="1245.844068"/>
      </g>
     </g>
    </g>
    <g id="xtick_28">
     <g id="line2d_59">
      <g>
       <use style="stroke:#000000;stroke-width:0.8;" x="348.865725" xlink:href="#mad079193db" y="1245.844068"/>
      </g>
     </g>
    </g>
    <g id="xtick_29">
     <g id="line2d_60">
      <g>
       <use style="stroke:#000000;stroke-width:0.8;" x="465.817692" xlink:href="#mad079193db" y="1245.844068"/>
      </g>
     </g>
    </g>
    <g id="xtick_30">
     <g id="line2d_61">
      <g>
       <use style="stroke:#000000;stroke-width:0.8;" x="582.76966" xlink:href="#mad079193db" y="1245.844068"/>
      </g>
     </g>
    </g>
   </g>
   <g id="matplotlib.axis_12">
    <g id="ytick_27">
     <g id="line2d_62">
      <g>
       <use style="stroke:#000000;stroke-width:0.8;" x="90" xlink:href="#m852e3d3389" y="1242.677021"/>
      </g>
     </g>
     <g id="text_28">
      <!-- 8 -->
      <g transform="translate(76.6375 1246.47624)scale(0.1 -0.1)">
       <use xlink:href="#DejaVuSans-56"/>
      </g>
     </g>
    </g>
    <g id="ytick_28">
     <g id="line2d_63">
      <g>
       <use style="stroke:#000000;stroke-width:0.8;" x="90" xlink:href="#m852e3d3389" y="1216.838192"/>
      </g>
     </g>
     <g id="text_29">
      <!-- 9 -->
      <g transform="translate(76.6375 1220.637411)scale(0.1 -0.1)">
       <defs>
        <path d="M 10.984375 1.515625 
L 10.984375 10.5 
Q 14.703125 8.734375 18.5 7.8125 
Q 22.3125 6.890625 25.984375 6.890625 
Q 35.75 6.890625 40.890625 13.453125 
Q 46.046875 20.015625 46.78125 33.40625 
Q 43.953125 29.203125 39.59375 26.953125 
Q 35.25 24.703125 29.984375 24.703125 
Q 19.046875 24.703125 12.671875 31.3125 
Q 6.296875 37.9375 6.296875 49.421875 
Q 6.296875 60.640625 12.9375 67.421875 
Q 19.578125 74.21875 30.609375 74.21875 
Q 43.265625 74.21875 49.921875 64.515625 
Q 56.59375 54.828125 56.59375 36.375 
Q 56.59375 19.140625 48.40625 8.859375 
Q 40.234375 -1.421875 26.421875 -1.421875 
Q 22.703125 -1.421875 18.890625 -0.6875 
Q 15.09375 0.046875 10.984375 1.515625 
z
M 30.609375 32.421875 
Q 37.25 32.421875 41.125 36.953125 
Q 45.015625 41.5 45.015625 49.421875 
Q 45.015625 57.28125 41.125 61.84375 
Q 37.25 66.40625 30.609375 66.40625 
Q 23.96875 66.40625 20.09375 61.84375 
Q 16.21875 57.28125 16.21875 49.421875 
Q 16.21875 41.5 20.09375 36.953125 
Q 23.96875 32.421875 30.609375 32.421875 
z
" id="DejaVuSans-57"/>
       </defs>
       <use xlink:href="#DejaVuSans-57"/>
      </g>
     </g>
    </g>
    <g id="ytick_29">
     <g id="line2d_64">
      <g>
       <use style="stroke:#000000;stroke-width:0.8;" x="90" xlink:href="#m852e3d3389" y="1190.999364"/>
      </g>
     </g>
     <g id="text_30">
      <!-- 10 -->
      <g transform="translate(70.275 1194.798582)scale(0.1 -0.1)">
       <use xlink:href="#DejaVuSans-49"/>
       <use x="63.623047" xlink:href="#DejaVuSans-48"/>
      </g>
     </g>
    </g>
    <g id="ytick_30">
     <g id="line2d_65">
      <g>
       <use style="stroke:#000000;stroke-width:0.8;" x="90" xlink:href="#m852e3d3389" y="1165.160535"/>
      </g>
     </g>
     <g id="text_31">
      <!-- 11 -->
      <g transform="translate(70.275 1168.959754)scale(0.1 -0.1)">
       <use xlink:href="#DejaVuSans-49"/>
       <use x="63.623047" xlink:href="#DejaVuSans-49"/>
      </g>
     </g>
    </g>
    <g id="ytick_31">
     <g id="line2d_66">
      <g>
       <use style="stroke:#000000;stroke-width:0.8;" x="90" xlink:href="#m852e3d3389" y="1139.321706"/>
      </g>
     </g>
     <g id="text_32">
      <!-- 12 -->
      <g transform="translate(70.275 1143.120925)scale(0.1 -0.1)">
       <use xlink:href="#DejaVuSans-49"/>
       <use x="63.623047" xlink:href="#DejaVuSans-50"/>
      </g>
     </g>
    </g>
    <g id="ytick_32">
     <g id="line2d_67">
      <g>
       <use style="stroke:#000000;stroke-width:0.8;" x="90" xlink:href="#m852e3d3389" y="1113.482877"/>
      </g>
     </g>
     <g id="text_33">
      <!-- 13 -->
      <g transform="translate(70.275 1117.282096)scale(0.1 -0.1)">
       <use xlink:href="#DejaVuSans-49"/>
       <use x="63.623047" xlink:href="#DejaVuSans-51"/>
      </g>
     </g>
    </g>
   </g>
   <g id="line2d_68">
    <path clip-path="url(#p6f2b6ea26a)" d="M 115.363636 1190.999364 
L 116.067921 1191.061845 
L 123.291109 1192.556285 
L 146.486192 1197.344626 
L 186.369386 1205.506959 
L 259.711135 1220.272433 
L 263.656743 1220.962567 
L 266.171795 1223.076239 
L 270.004194 1226.474418 
L 271.330547 1227.548999 
L 273.931792 1229.166189 
L 275.233701 1229.820945 
L 276.679696 1230.323334 
L 282.904932 1231.56753 
L 299.810456 1234.778776 
L 300.900097 1235.1564 
L 302.214871 1235.771543 
L 303.509062 1236.513804 
L 306.056276 1238.351585 
L 307.365904 1239.437288 
L 308.615068 1111.301695 
L 312.484774 1114.654948 
L 313.799548 1115.674606 
L 316.360913 1117.260978 
L 317.629374 1117.874477 
L 319.095952 1118.349377 
L 342.164962 1122.749366 
L 343.396115 1123.215511 
L 345.992215 1124.64737 
L 348.52785 1126.561385 
L 356.340593 1133.022935 
L 358.801613 1134.498968 
L 360.126679 1135.099204 
L 362.694476 1135.676733 
L 384.608234 1139.854268 
L 385.868976 1140.374052 
L 387.173459 1141.067121 
L 389.693657 1142.828946 
L 392.287183 1145.026452 
L 397.447221 1149.565663 
L 398.70925 1150.524184 
L 400.098639 1151.395883 
L 401.352949 1152.04332 
L 402.652285 1152.565171 
L 405.144181 1153.127595 
L 425.788191 1157.021318 
L 427.087528 1157.447314 
L 428.292952 1158.022451 
L 429.648893 1158.79908 
L 432.185815 1160.732784 
L 434.745894 1163.024803 
L 438.604022 1166.595213 
L 439.904645 1167.691569 
L 442.583079 1169.412471 
L 443.78593 1170.033421 
L 445.181752 1170.534308 
L 451.473884 1171.76136 
L 468.378122 1174.976303 
L 469.520509 1175.4091 
L 470.831423 1176.069354 
L 472.107603 1176.858903 
L 474.644525 1178.891212 
L 482.367214 1185.938587 
L 484.941444 1186.041212 
L 487.691921 1186.090356 
L 506.830759 1189.649658 
L 510.748065 1190.463715 
L 512.070558 1190.974678 
L 513.305571 1191.628295 
L 515.816764 1193.458212 
L 518.412863 1195.843019 
L 522.252981 1199.640752 
L 523.527875 1200.757675 
L 524.917264 1201.782718 
L 527.425884 1203.245107 
L 528.754809 1203.802522 
L 531.253137 1204.310308 
L 550.574654 1207.386094 
L 553.128301 1207.462775 
L 558.323073 1207.462775 
L 559.605685 1208.093753 
L 566.011028 1213.614103 
L 567.298786 1214.549821 
L 569.961782 1215.961453 
L 571.31901 1216.430874 
L 587.882332 1219.062255 
L 595.805711 1220.400582 
L 596.959676 1220.893129 
L 599.504317 1222.456092 
L 602.039953 1224.449545 
L 607.216715 1228.873132 
L 609.783225 1230.702811 
L 612.417919 1231.997933 
L 613.816314 1232.399768 
L 622.636364 1233.77585 
L 622.636364 1233.77585 
" style="fill:none;stroke:#1f77b4;stroke-linecap:square;stroke-width:1.5;"/>
   </g>
   <g id="patch_28">
    <path d="M 90 1245.844068 
L 90 1104.894915 
" style="fill:none;stroke:#000000;stroke-linecap:square;stroke-linejoin:miter;stroke-width:0.8;"/>
   </g>
   <g id="patch_29">
    <path d="M 648 1245.844068 
L 648 1104.894915 
" style="fill:none;stroke:#000000;stroke-linecap:square;stroke-linejoin:miter;stroke-width:0.8;"/>
   </g>
   <g id="patch_30">
    <path d="M 90 1245.844068 
L 648 1245.844068 
" style="fill:none;stroke:#000000;stroke-linecap:square;stroke-linejoin:miter;stroke-width:0.8;"/>
   </g>
   <g id="patch_31">
    <path d="M 90 1104.894915 
L 648 1104.894915 
" style="fill:none;stroke:#000000;stroke-linecap:square;stroke-linejoin:miter;stroke-width:0.8;"/>
   </g>
  </g>
  <g id="axes_7">
   <g id="patch_32">
    <path d="M 90 1414.983051 
L 648 1414.983051 
L 648 1274.033898 
L 90 1274.033898 
z
" style="fill:#ffffff;"/>
   </g>
   <g id="matplotlib.axis_13">
    <g id="xtick_31">
     <g id="line2d_69">
      <g>
       <use style="stroke:#000000;stroke-width:0.8;" x="114.961789" xlink:href="#mad079193db" y="1414.983051"/>
      </g>
     </g>
    </g>
    <g id="xtick_32">
     <g id="line2d_70">
      <g>
       <use style="stroke:#000000;stroke-width:0.8;" x="231.913757" xlink:href="#mad079193db" y="1414.983051"/>
      </g>
     </g>
    </g>
    <g id="xtick_33">
     <g id="line2d_71">
      <g>
       <use style="stroke:#000000;stroke-width:0.8;" x="348.865725" xlink:href="#mad079193db" y="1414.983051"/>
      </g>
     </g>
    </g>
    <g id="xtick_34">
     <g id="line2d_72">
      <g>
       <use style="stroke:#000000;stroke-width:0.8;" x="465.817692" xlink:href="#mad079193db" y="1414.983051"/>
      </g>
     </g>
    </g>
    <g id="xtick_35">
     <g id="line2d_73">
      <g>
       <use style="stroke:#000000;stroke-width:0.8;" x="582.76966" xlink:href="#mad079193db" y="1414.983051"/>
      </g>
     </g>
    </g>
   </g>
   <g id="matplotlib.axis_14">
    <g id="ytick_33">
     <g id="line2d_74">
      <g>
       <use style="stroke:#000000;stroke-width:0.8;" x="90" xlink:href="#m852e3d3389" y="1409.861525"/>
      </g>
     </g>
     <g id="text_34">
      <!-- 0 -->
      <g transform="translate(76.6375 1413.660744)scale(0.1 -0.1)">
       <use xlink:href="#DejaVuSans-48"/>
      </g>
     </g>
    </g>
    <g id="ytick_34">
     <g id="line2d_75">
      <g>
       <use style="stroke:#000000;stroke-width:0.8;" x="90" xlink:href="#m852e3d3389" y="1384.156445"/>
      </g>
     </g>
     <g id="text_35">
      <!-- 2 -->
      <g transform="translate(76.6375 1387.955663)scale(0.1 -0.1)">
       <use xlink:href="#DejaVuSans-50"/>
      </g>
     </g>
    </g>
    <g id="ytick_35">
     <g id="line2d_76">
      <g>
       <use style="stroke:#000000;stroke-width:0.8;" x="90" xlink:href="#m852e3d3389" y="1358.451364"/>
      </g>
     </g>
     <g id="text_36">
      <!-- 4 -->
      <g transform="translate(76.6375 1362.250583)scale(0.1 -0.1)">
       <use xlink:href="#DejaVuSans-52"/>
      </g>
     </g>
    </g>
    <g id="ytick_36">
     <g id="line2d_77">
      <g>
       <use style="stroke:#000000;stroke-width:0.8;" x="90" xlink:href="#m852e3d3389" y="1332.746283"/>
      </g>
     </g>
     <g id="text_37">
      <!-- 6 -->
      <g transform="translate(76.6375 1336.545502)scale(0.1 -0.1)">
       <use xlink:href="#DejaVuSans-54"/>
      </g>
     </g>
    </g>
    <g id="ytick_37">
     <g id="line2d_78">
      <g>
       <use style="stroke:#000000;stroke-width:0.8;" x="90" xlink:href="#m852e3d3389" y="1307.041203"/>
      </g>
     </g>
     <g id="text_38">
      <!-- 8 -->
      <g transform="translate(76.6375 1310.840421)scale(0.1 -0.1)">
       <use xlink:href="#DejaVuSans-56"/>
      </g>
     </g>
    </g>
    <g id="ytick_38">
     <g id="line2d_79">
      <g>
       <use style="stroke:#000000;stroke-width:0.8;" x="90" xlink:href="#m852e3d3389" y="1281.336122"/>
      </g>
     </g>
     <g id="text_39">
      <!-- 10 -->
      <g transform="translate(70.275 1285.135341)scale(0.1 -0.1)">
       <use xlink:href="#DejaVuSans-49"/>
       <use x="63.623047" xlink:href="#DejaVuSans-48"/>
      </g>
     </g>
    </g>
   </g>
   <g id="line2d_80">
    <path clip-path="url(#p7f65c3bf43)" d="M 115.363636 1408.576271 
L 115.600815 1397.008985 
L 272.815135 1396.908275 
L 290.610897 1396.844229 
L 294.457447 1396.76819 
L 300.900097 1396.344795 
L 303.509062 1395.937935 
L 307.365904 1395.019924 
L 315.182505 1392.825711 
L 317.629374 1392.298841 
L 321.502941 1391.909079 
L 342.164962 1390.277701 
L 344.66329 1389.780205 
L 347.243952 1389.012832 
L 349.805317 1388.029789 
L 357.609054 1384.80139 
L 358.801613 1384.392734 
L 360.126679 1384.062667 
L 365.249409 1383.405248 
L 383.29346 1381.359296 
L 384.608234 1381.124098 
L 387.173459 1380.326944 
L 389.693657 1379.131783 
L 392.287183 1377.629483 
L 398.70925 1373.529712 
L 401.352949 1372.26878 
L 402.652285 1371.813837 
L 405.144181 1371.293351 
L 421.872172 1368.531235 
L 425.788191 1367.866232 
L 427.087528 1367.466178 
L 429.648893 1366.180351 
L 432.185815 1364.307067 
L 434.745894 1361.985365 
L 439.904645 1356.931067 
L 442.583079 1354.80344 
L 443.78593 1353.980108 
L 445.181752 1353.354188 
L 448.922811 1352.339318 
L 468.378122 1347.470549 
L 469.520509 1346.794252 
L 470.831423 1345.863086 
L 472.107603 1344.691282 
L 474.644525 1341.702071 
L 477.208463 1338.043847 
L 482.367214 1330.230331 
L 483.6524 1328.524702 
L 487.691921 1328.524702 
L 490.071893 1327.604578 
L 499.074622 1324.483199 
L 506.830759 1321.713627 
L 509.41914 1320.770613 
L 510.748065 1320.056904 
L 512.070558 1318.951846 
L 513.305571 1317.463638 
L 514.580464 1315.611027 
L 517.099376 1310.93834 
L 519.692903 1305.29206 
L 523.527875 1296.243948 
L 526.279637 1290.922568 
L 527.425884 1288.777064 
L 528.754809 1287.086634 
L 531.253137 1285.262912 
L 539.019566 1281.22108 
L 540.263584 1280.534808 
L 622.636364 1280.440678 
L 622.636364 1280.440678 
" style="fill:none;stroke:#1f77b4;stroke-linecap:square;stroke-width:1.5;"/>
   </g>
   <g id="patch_33">
    <path d="M 90 1414.983051 
L 90 1274.033898 
" style="fill:none;stroke:#000000;stroke-linecap:square;stroke-linejoin:miter;stroke-width:0.8;"/>
   </g>
   <g id="patch_34">
    <path d="M 648 1414.983051 
L 648 1274.033898 
" style="fill:none;stroke:#000000;stroke-linecap:square;stroke-linejoin:miter;stroke-width:0.8;"/>
   </g>
   <g id="patch_35">
    <path d="M 90 1414.983051 
L 648 1414.983051 
" style="fill:none;stroke:#000000;stroke-linecap:square;stroke-linejoin:miter;stroke-width:0.8;"/>
   </g>
   <g id="patch_36">
    <path d="M 90 1274.033898 
L 648 1274.033898 
" style="fill:none;stroke:#000000;stroke-linecap:square;stroke-linejoin:miter;stroke-width:0.8;"/>
   </g>
  </g>
  <g id="axes_8">
   <g id="patch_37">
    <path d="M 90 1584.122034 
L 648 1584.122034 
L 648 1443.172881 
L 90 1443.172881 
z
" style="fill:#ffffff;"/>
   </g>
   <g id="matplotlib.axis_15">
    <g id="xtick_36">
     <g id="line2d_81">
      <g>
       <use style="stroke:#000000;stroke-width:0.8;" x="114.961789" xlink:href="#mad079193db" y="1584.122034"/>
      </g>
     </g>
    </g>
    <g id="xtick_37">
     <g id="line2d_82">
      <g>
       <use style="stroke:#000000;stroke-width:0.8;" x="231.913757" xlink:href="#mad079193db" y="1584.122034"/>
      </g>
     </g>
    </g>
    <g id="xtick_38">
     <g id="line2d_83">
      <g>
       <use style="stroke:#000000;stroke-width:0.8;" x="348.865725" xlink:href="#mad079193db" y="1584.122034"/>
      </g>
     </g>
    </g>
    <g id="xtick_39">
     <g id="line2d_84">
      <g>
       <use style="stroke:#000000;stroke-width:0.8;" x="465.817692" xlink:href="#mad079193db" y="1584.122034"/>
      </g>
     </g>
    </g>
    <g id="xtick_40">
     <g id="line2d_85">
      <g>
       <use style="stroke:#000000;stroke-width:0.8;" x="582.76966" xlink:href="#mad079193db" y="1584.122034"/>
      </g>
     </g>
    </g>
   </g>
   <g id="matplotlib.axis_16">
    <g id="ytick_39">
     <g id="line2d_86">
      <g>
       <use style="stroke:#000000;stroke-width:0.8;" x="90" xlink:href="#m852e3d3389" y="1563.69595"/>
      </g>
     </g>
     <g id="text_40">
      <!-- 0.2 -->
      <g transform="translate(67.096875 1567.495168)scale(0.1 -0.1)">
       <use xlink:href="#DejaVuSans-48"/>
       <use x="63.623047" xlink:href="#DejaVuSans-46"/>
       <use x="95.410156" xlink:href="#DejaVuSans-50"/>
      </g>
     </g>
    </g>
    <g id="ytick_40">
     <g id="line2d_87">
      <g>
       <use style="stroke:#000000;stroke-width:0.8;" x="90" xlink:href="#m852e3d3389" y="1535.657341"/>
      </g>
     </g>
     <g id="text_41">
      <!-- 0.4 -->
      <g transform="translate(67.096875 1539.456559)scale(0.1 -0.1)">
       <use xlink:href="#DejaVuSans-48"/>
       <use x="63.623047" xlink:href="#DejaVuSans-46"/>
       <use x="95.410156" xlink:href="#DejaVuSans-52"/>
      </g>
     </g>
    </g>
    <g id="ytick_41">
     <g id="line2d_88">
      <g>
       <use style="stroke:#000000;stroke-width:0.8;" x="90" xlink:href="#m852e3d3389" y="1507.618731"/>
      </g>
     </g>
     <g id="text_42">
      <!-- 0.6 -->
      <g transform="translate(67.096875 1511.41795)scale(0.1 -0.1)">
       <use xlink:href="#DejaVuSans-48"/>
       <use x="63.623047" xlink:href="#DejaVuSans-46"/>
       <use x="95.410156" xlink:href="#DejaVuSans-54"/>
      </g>
     </g>
    </g>
    <g id="ytick_42">
     <g id="line2d_89">
      <g>
       <use style="stroke:#000000;stroke-width:0.8;" x="90" xlink:href="#m852e3d3389" y="1479.580122"/>
      </g>
     </g>
     <g id="text_43">
      <!-- 0.8 -->
      <g transform="translate(67.096875 1483.379341)scale(0.1 -0.1)">
       <use xlink:href="#DejaVuSans-48"/>
       <use x="63.623047" xlink:href="#DejaVuSans-46"/>
       <use x="95.410156" xlink:href="#DejaVuSans-56"/>
      </g>
     </g>
    </g>
    <g id="ytick_43">
     <g id="line2d_90">
      <g>
       <use style="stroke:#000000;stroke-width:0.8;" x="90" xlink:href="#m852e3d3389" y="1451.541513"/>
      </g>
     </g>
     <g id="text_44">
      <!-- 1.0 -->
      <g transform="translate(67.096875 1455.340732)scale(0.1 -0.1)">
       <use xlink:href="#DejaVuSans-49"/>
       <use x="63.623047" xlink:href="#DejaVuSans-46"/>
       <use x="95.410156" xlink:href="#DejaVuSans-48"/>
      </g>
     </g>
    </g>
   </g>
   <g id="line2d_91">
    <path clip-path="url(#p94e5b5bdeb)" d="M 115.363636 1577.715254 
L 169.651687 1577.715254 
L 170.939445 1451.541513 
L 263.656743 1451.435533 
L 273.931792 1450.232265 
L 278.017626 1450.008701 
L 293.196705 1449.579661 
L 622.636364 1449.579661 
L 622.636364 1449.579661 
" style="fill:none;stroke:#1f77b4;stroke-linecap:square;stroke-width:1.5;"/>
   </g>
   <g id="patch_38">
    <path d="M 90 1584.122034 
L 90 1443.172881 
" style="fill:none;stroke:#000000;stroke-linecap:square;stroke-linejoin:miter;stroke-width:0.8;"/>
   </g>
   <g id="patch_39">
    <path d="M 648 1584.122034 
L 648 1443.172881 
" style="fill:none;stroke:#000000;stroke-linecap:square;stroke-linejoin:miter;stroke-width:0.8;"/>
   </g>
   <g id="patch_40">
    <path d="M 90 1584.122034 
L 648 1584.122034 
" style="fill:none;stroke:#000000;stroke-linecap:square;stroke-linejoin:miter;stroke-width:0.8;"/>
   </g>
   <g id="patch_41">
    <path d="M 90 1443.172881 
L 648 1443.172881 
" style="fill:none;stroke:#000000;stroke-linecap:square;stroke-linejoin:miter;stroke-width:0.8;"/>
   </g>
  </g>
  <g id="axes_9">
   <g id="patch_42">
    <path d="M 90 1753.261017 
L 648 1753.261017 
L 648 1612.311864 
L 90 1612.311864 
z
" style="fill:#ffffff;"/>
   </g>
   <g id="matplotlib.axis_17">
    <g id="xtick_41">
     <g id="line2d_92">
      <g>
       <use style="stroke:#000000;stroke-width:0.8;" x="114.961789" xlink:href="#mad079193db" y="1753.261017"/>
      </g>
     </g>
    </g>
    <g id="xtick_42">
     <g id="line2d_93">
      <g>
       <use style="stroke:#000000;stroke-width:0.8;" x="231.913757" xlink:href="#mad079193db" y="1753.261017"/>
      </g>
     </g>
    </g>
    <g id="xtick_43">
     <g id="line2d_94">
      <g>
       <use style="stroke:#000000;stroke-width:0.8;" x="348.865725" xlink:href="#mad079193db" y="1753.261017"/>
      </g>
     </g>
    </g>
    <g id="xtick_44">
     <g id="line2d_95">
      <g>
       <use style="stroke:#000000;stroke-width:0.8;" x="465.817692" xlink:href="#mad079193db" y="1753.261017"/>
      </g>
     </g>
    </g>
    <g id="xtick_45">
     <g id="line2d_96">
      <g>
       <use style="stroke:#000000;stroke-width:0.8;" x="582.76966" xlink:href="#mad079193db" y="1753.261017"/>
      </g>
     </g>
    </g>
   </g>
   <g id="matplotlib.axis_18">
    <g id="ytick_44">
     <g id="line2d_97">
      <g>
       <use style="stroke:#000000;stroke-width:0.8;" x="90" xlink:href="#m852e3d3389" y="1732.669495"/>
      </g>
     </g>
     <g id="text_45">
      <!-- 2 -->
      <g transform="translate(76.6375 1736.468713)scale(0.1 -0.1)">
       <use xlink:href="#DejaVuSans-50"/>
      </g>
     </g>
    </g>
    <g id="ytick_45">
     <g id="line2d_98">
      <g>
       <use style="stroke:#000000;stroke-width:0.8;" x="90" xlink:href="#m852e3d3389" y="1709.028257"/>
      </g>
     </g>
     <g id="text_46">
      <!-- 4 -->
      <g transform="translate(76.6375 1712.827475)scale(0.1 -0.1)">
       <use xlink:href="#DejaVuSans-52"/>
      </g>
     </g>
    </g>
    <g id="ytick_46">
     <g id="line2d_99">
      <g>
       <use style="stroke:#000000;stroke-width:0.8;" x="90" xlink:href="#m852e3d3389" y="1685.387019"/>
      </g>
     </g>
     <g id="text_47">
      <!-- 6 -->
      <g transform="translate(76.6375 1689.186237)scale(0.1 -0.1)">
       <use xlink:href="#DejaVuSans-54"/>
      </g>
     </g>
    </g>
    <g id="ytick_47">
     <g id="line2d_100">
      <g>
       <use style="stroke:#000000;stroke-width:0.8;" x="90" xlink:href="#m852e3d3389" y="1661.745781"/>
      </g>
     </g>
     <g id="text_48">
      <!-- 8 -->
      <g transform="translate(76.6375 1665.545)scale(0.1 -0.1)">
       <use xlink:href="#DejaVuSans-56"/>
      </g>
     </g>
    </g>
    <g id="ytick_48">
     <g id="line2d_101">
      <g>
       <use style="stroke:#000000;stroke-width:0.8;" x="90" xlink:href="#m852e3d3389" y="1638.104543"/>
      </g>
     </g>
     <g id="text_49">
      <!-- 10 -->
      <g transform="translate(70.275 1641.903762)scale(0.1 -0.1)">
       <use xlink:href="#DejaVuSans-49"/>
       <use x="63.623047" xlink:href="#DejaVuSans-48"/>
      </g>
     </g>
    </g>
    <g id="ytick_49">
     <g id="line2d_102">
      <g>
       <use style="stroke:#000000;stroke-width:0.8;" x="90" xlink:href="#m852e3d3389" y="1614.463305"/>
      </g>
     </g>
     <g id="text_50">
      <!-- 12 -->
      <g transform="translate(70.275 1618.262524)scale(0.1 -0.1)">
       <use xlink:href="#DejaVuSans-49"/>
       <use x="63.623047" xlink:href="#DejaVuSans-50"/>
      </g>
     </g>
    </g>
   </g>
   <g id="line2d_103">
    <path clip-path="url(#p520b18e62a)" d="M 115.363636 1746.854237 
L 116.067921 1746.854237 
L 118.164519 1746.306508 
L 124.58144 1744.659155 
L 129.732472 1743.148009 
L 134.900229 1741.440875 
L 140.046115 1739.512335 
L 145.207439 1737.333674 
L 150.349467 1734.872453 
L 155.479916 1732.092024 
L 160.647672 1728.950989 
L 164.486504 1726.330652 
L 168.369075 1723.459355 
L 170.939445 1721.393959 
L 194.080497 1717.884564 
L 206.970943 1715.784681 
L 222.415035 1713.112802 
L 244.303064 1709.023358 
L 263.656743 1705.171655 
L 268.721582 1700.546295 
L 271.330547 1698.182965 
L 272.815135 1697.11532 
L 273.931792 1696.167447 
L 275.233701 1695.370014 
L 276.679696 1694.750038 
L 279.024933 1694.028927 
L 291.916666 1690.953853 
L 293.196705 1690.638116 
L 540.263584 1690.510507 
L 550.574654 1687.649254 
L 551.850834 1687.282958 
L 559.605685 1687.282958 
L 562.173483 1683.124726 
L 566.011028 1676.659183 
L 567.298786 1674.714727 
L 569.961782 1671.563329 
L 571.31901 1670.480321 
L 572.957975 1669.786054 
L 573.755587 1669.324461 
L 584.046074 1665.541955 
L 594.547542 1661.537212 
L 595.805711 1660.512135 
L 596.959676 1659.034906 
L 598.212699 1657.142536 
L 599.504317 1654.852195 
L 600.774065 1652.209514 
L 603.356013 1646.104851 
L 607.216715 1636.082697 
L 609.783225 1630.019802 
L 611.16361 1627.495899 
L 612.417919 1625.439113 
L 613.816314 1623.94239 
L 617.490477 1621.61601 
L 622.636364 1618.718644 
L 622.636364 1618.718644 
" style="fill:none;stroke:#1f77b4;stroke-linecap:square;stroke-width:1.5;"/>
   </g>
   <g id="patch_43">
    <path d="M 90 1753.261017 
L 90 1612.311864 
" style="fill:none;stroke:#000000;stroke-linecap:square;stroke-linejoin:miter;stroke-width:0.8;"/>
   </g>
   <g id="patch_44">
    <path d="M 648 1753.261017 
L 648 1612.311864 
" style="fill:none;stroke:#000000;stroke-linecap:square;stroke-linejoin:miter;stroke-width:0.8;"/>
   </g>
   <g id="patch_45">
    <path d="M 90 1753.261017 
L 648 1753.261017 
" style="fill:none;stroke:#000000;stroke-linecap:square;stroke-linejoin:miter;stroke-width:0.8;"/>
   </g>
   <g id="patch_46">
    <path d="M 90 1612.311864 
L 648 1612.311864 
" style="fill:none;stroke:#000000;stroke-linecap:square;stroke-linejoin:miter;stroke-width:0.8;"/>
   </g>
  </g>
  <g id="axes_10">
   <g id="patch_47">
    <path d="M 90 1922.4 
L 648 1922.4 
L 648 1781.450847 
L 90 1781.450847 
z
" style="fill:#ffffff;"/>
   </g>
   <g id="matplotlib.axis_19">
    <g id="xtick_46">
     <g id="line2d_104">
      <g>
       <use style="stroke:#000000;stroke-width:0.8;" x="114.961789" xlink:href="#mad079193db" y="1922.4"/>
      </g>
     </g>
     <g id="text_51">
      <!-- 0 -->
      <g transform="translate(111.780539 1936.998437)scale(0.1 -0.1)">
       <use xlink:href="#DejaVuSans-48"/>
      </g>
     </g>
    </g>
    <g id="xtick_47">
     <g id="line2d_105">
      <g>
       <use style="stroke:#000000;stroke-width:0.8;" x="231.913757" xlink:href="#mad079193db" y="1922.4"/>
      </g>
     </g>
     <g id="text_52">
      <!-- 1 -->
      <g transform="translate(228.732507 1936.998437)scale(0.1 -0.1)">
       <use xlink:href="#DejaVuSans-49"/>
      </g>
     </g>
    </g>
    <g id="xtick_48">
     <g id="line2d_106">
      <g>
       <use style="stroke:#000000;stroke-width:0.8;" x="348.865725" xlink:href="#mad079193db" y="1922.4"/>
      </g>
     </g>
     <g id="text_53">
      <!-- 2 -->
      <g transform="translate(345.684475 1936.998437)scale(0.1 -0.1)">
       <use xlink:href="#DejaVuSans-50"/>
      </g>
     </g>
    </g>
    <g id="xtick_49">
     <g id="line2d_107">
      <g>
       <use style="stroke:#000000;stroke-width:0.8;" x="465.817692" xlink:href="#mad079193db" y="1922.4"/>
      </g>
     </g>
     <g id="text_54">
      <!-- 3 -->
      <g transform="translate(462.636442 1936.998437)scale(0.1 -0.1)">
       <use xlink:href="#DejaVuSans-51"/>
      </g>
     </g>
    </g>
    <g id="xtick_50">
     <g id="line2d_108">
      <g>
       <use style="stroke:#000000;stroke-width:0.8;" x="582.76966" xlink:href="#mad079193db" y="1922.4"/>
      </g>
     </g>
     <g id="text_55">
      <!-- 4 -->
      <g transform="translate(579.58841 1936.998437)scale(0.1 -0.1)">
       <use xlink:href="#DejaVuSans-52"/>
      </g>
     </g>
    </g>
    <g id="text_56">
     <!-- 1e6 -->
     <g transform="translate(629.121875 1949.676562)scale(0.1 -0.1)">
      <use xlink:href="#DejaVuSans-49"/>
      <use x="63.623047" xlink:href="#DejaVuSans-101"/>
      <use x="125.146484" xlink:href="#DejaVuSans-54"/>
     </g>
    </g>
   </g>
   <g id="matplotlib.axis_20">
    <g id="ytick_50">
     <g id="line2d_109">
      <g>
       <use style="stroke:#000000;stroke-width:0.8;" x="90" xlink:href="#m852e3d3389" y="1889.810843"/>
      </g>
     </g>
     <g id="text_57">
      <!-- 5 -->
      <g transform="translate(76.6375 1893.610062)scale(0.1 -0.1)">
       <use xlink:href="#DejaVuSans-53"/>
      </g>
     </g>
    </g>
    <g id="ytick_51">
     <g id="line2d_110">
      <g>
       <use style="stroke:#000000;stroke-width:0.8;" x="90" xlink:href="#m852e3d3389" y="1855.826438"/>
      </g>
     </g>
     <g id="text_58">
      <!-- 10 -->
      <g transform="translate(70.275 1859.625656)scale(0.1 -0.1)">
       <use xlink:href="#DejaVuSans-49"/>
       <use x="63.623047" xlink:href="#DejaVuSans-48"/>
      </g>
     </g>
    </g>
    <g id="ytick_52">
     <g id="line2d_111">
      <g>
       <use style="stroke:#000000;stroke-width:0.8;" x="90" xlink:href="#m852e3d3389" y="1821.842032"/>
      </g>
     </g>
     <g id="text_59">
      <!-- 15 -->
      <g transform="translate(70.275 1825.641251)scale(0.1 -0.1)">
       <use xlink:href="#DejaVuSans-49"/>
       <use x="63.623047" xlink:href="#DejaVuSans-53"/>
      </g>
     </g>
    </g>
    <g id="ytick_53">
     <g id="line2d_112">
      <g>
       <use style="stroke:#000000;stroke-width:0.8;" x="90" xlink:href="#m852e3d3389" y="1787.857627"/>
      </g>
     </g>
     <g id="text_60">
      <!-- 20 -->
      <g transform="translate(70.275 1791.656846)scale(0.1 -0.1)">
       <use xlink:href="#DejaVuSans-50"/>
       <use x="63.623047" xlink:href="#DejaVuSans-48"/>
      </g>
     </g>
    </g>
   </g>
   <g id="line2d_113">
    <path clip-path="url(#pf8332e9201)" d="M 115.363636 1787.857627 
L 116.88448 1787.898408 
L 186.369386 1809.920303 
L 213.420025 1818.484373 
L 230.117141 1823.78594 
L 257.14977 1832.350011 
L 276.679696 1838.467204 
L 280.331989 1839.690642 
L 297.059979 1844.992209 
L 308.615068 1848.662525 
L 334.386954 1856.818782 
L 348.52785 1861.304724 
L 360.126679 1864.97504 
L 361.736055 1865.382853 
L 362.694476 1865.790665 
L 402.652285 1878.432864 
L 405.144181 1879.24849 
L 452.774507 1894.337566 
L 465.621213 1898.415694 
L 472.107603 1900.454759 
L 481.076883 1903.309449 
L 483.6524 1904.125075 
L 484.941444 1900.436281 
L 486.230489 1897.571616 
L 487.691921 1895.602577 
L 493.966043 1897.641641 
L 523.527875 1907.021337 
L 530.379623 1909.060402 
L 531.253137 1909.468215 
L 550.574654 1915.585407 
L 551.850834 1915.99322 
L 553.128301 1914.20538 
L 554.421205 1911.429516 
L 555.716682 1907.720989 
L 556.995434 1903.176556 
L 558.323073 1897.943534 
L 559.605685 1892.157078 
L 571.31901 1895.827394 
L 572.957975 1896.235207 
L 573.755587 1896.643019 
L 603.356013 1906.022715 
L 612.417919 1908.877405 
L 615.182547 1909.693031 
L 617.490477 1910.508657 
L 622.636364 1912.139908 
L 622.636364 1912.139908 
" style="fill:none;stroke:#1f77b4;stroke-linecap:square;stroke-width:1.5;"/>
   </g>
   <g id="patch_48">
    <path d="M 90 1922.4 
L 90 1781.450847 
" style="fill:none;stroke:#000000;stroke-linecap:square;stroke-linejoin:miter;stroke-width:0.8;"/>
   </g>
   <g id="patch_49">
    <path d="M 648 1922.4 
L 648 1781.450847 
" style="fill:none;stroke:#000000;stroke-linecap:square;stroke-linejoin:miter;stroke-width:0.8;"/>
   </g>
   <g id="patch_50">
    <path d="M 90 1922.4 
L 648 1922.4 
" style="fill:none;stroke:#000000;stroke-linecap:square;stroke-linejoin:miter;stroke-width:0.8;"/>
   </g>
   <g id="patch_51">
    <path d="M 90 1781.450847 
L 648 1781.450847 
" style="fill:none;stroke:#000000;stroke-linecap:square;stroke-linejoin:miter;stroke-width:0.8;"/>
   </g>
  </g>
 </g>
 <defs>
  <clipPath id="pf5cca20acb">
   <rect height="140.949153" width="558" x="90" y="259.2"/>
  </clipPath>
  <clipPath id="padefbd88f7">
   <rect height="140.949153" width="558" x="90" y="428.338983"/>
  </clipPath>
  <clipPath id="p21f73c23ca">
   <rect height="140.949153" width="558" x="90" y="597.477966"/>
  </clipPath>
  <clipPath id="p26092e4499">
   <rect height="140.949153" width="558" x="90" y="766.616949"/>
  </clipPath>
  <clipPath id="paa0cd0960d">
   <rect height="140.949153" width="558" x="90" y="935.755932"/>
  </clipPath>
  <clipPath id="p6f2b6ea26a">
   <rect height="140.949153" width="558" x="90" y="1104.894915"/>
  </clipPath>
  <clipPath id="p7f65c3bf43">
   <rect height="140.949153" width="558" x="90" y="1274.033898"/>
  </clipPath>
  <clipPath id="p94e5b5bdeb">
   <rect height="140.949153" width="558" x="90" y="1443.172881"/>
  </clipPath>
  <clipPath id="p520b18e62a">
   <rect height="140.949153" width="558" x="90" y="1612.311864"/>
  </clipPath>
  <clipPath id="pf8332e9201">
   <rect height="140.949153" width="558" x="90" y="1781.450847"/>
  </clipPath>
 </defs>
</svg>
