<?xml version="1.0" encoding="utf-8" standalone="no"?>
<!DOCTYPE svg PUBLIC "-//W3C//DTD SVG 1.1//EN"
  "http://www.w3.org/Graphics/SVG/1.1/DTD/svg11.dtd">
<svg xmlns:xlink="http://www.w3.org/1999/xlink" width="460.8pt" height="345.6pt" viewBox="0 0 460.8 345.6" xmlns="http://www.w3.org/2000/svg" version="1.1">
 <metadata>
  <rdf:RDF xmlns:dc="http://purl.org/dc/elements/1.1/" xmlns:cc="http://creativecommons.org/ns#" xmlns:rdf="http://www.w3.org/1999/02/22-rdf-syntax-ns#">
   <cc:Work>
    <dc:type rdf:resource="http://purl.org/dc/dcmitype/StillImage"/>
    <dc:date>2023-03-28T23:18:26.292994</dc:date>
    <dc:format>image/svg+xml</dc:format>
    <dc:creator>
     <cc:Agent>
      <dc:title>Matplotlib v3.7.1, https://matplotlib.org/</dc:title>
     </cc:Agent>
    </dc:creator>
   </cc:Work>
  </rdf:RDF>
 </metadata>
 <defs>
  <style type="text/css">*{stroke-linejoin: round; stroke-linecap: butt}</style>
 </defs>
 <g id="figure_1">
  <g id="patch_1">
   <path d="M 0 345.6 
L 460.8 345.6 
L 460.8 0 
L 0 0 
z
" style="fill: #ffffff"/>
  </g>
  <g id="axes_1">
   <g id="patch_2">
    <path d="M 57.6 119.740235 
L 414.72 119.740235 
L 414.72 41.472 
L 57.6 41.472 
z
" style="fill: #ffffff"/>
   </g>
   <g id="matplotlib.axis_1">
    <g id="xtick_1">
     <g id="line2d_1">
      <defs>
       <path id="m8ec5af7aed" d="M 0 0 
L 0 3.5 
" style="stroke: #000000; stroke-width: 0.8"/>
      </defs>
      <g>
       <use xlink:href="#m8ec5af7aed" x="73.832727" y="119.740235" style="stroke: #000000; stroke-width: 0.8"/>
      </g>
     </g>
     <g id="text_1">
      <!-- 0 -->
      <g transform="translate(70.651477 134.338673) scale(0.1 -0.1)">
       <defs>
        <path id="DejaVuSans-30" d="M 2034 4250 
Q 1547 4250 1301 3770 
Q 1056 3291 1056 2328 
Q 1056 1369 1301 889 
Q 1547 409 2034 409 
Q 2525 409 2770 889 
Q 3016 1369 3016 2328 
Q 3016 3291 2770 3770 
Q 2525 4250 2034 4250 
z
M 2034 4750 
Q 2819 4750 3233 4129 
Q 3647 3509 3647 2328 
Q 3647 1150 3233 529 
Q 2819 -91 2034 -91 
Q 1250 -91 836 529 
Q 422 1150 422 2328 
Q 422 3509 836 4129 
Q 1250 4750 2034 4750 
z
" transform="scale(0.015625)"/>
       </defs>
       <use xlink:href="#DejaVuSans-30"/>
      </g>
     </g>
    </g>
    <g id="xtick_2">
     <g id="line2d_2">
      <g>
       <use xlink:href="#m8ec5af7aed" x="128.017074" y="119.740235" style="stroke: #000000; stroke-width: 0.8"/>
      </g>
     </g>
     <g id="text_2">
      <!-- 5 -->
      <g transform="translate(124.835824 134.338673) scale(0.1 -0.1)">
       <defs>
        <path id="DejaVuSans-35" d="M 691 4666 
L 3169 4666 
L 3169 4134 
L 1269 4134 
L 1269 2991 
Q 1406 3038 1543 3061 
Q 1681 3084 1819 3084 
Q 2600 3084 3056 2656 
Q 3513 2228 3513 1497 
Q 3513 744 3044 326 
Q 2575 -91 1722 -91 
Q 1428 -91 1123 -41 
Q 819 9 494 109 
L 494 744 
Q 775 591 1075 516 
Q 1375 441 1709 441 
Q 2250 441 2565 725 
Q 2881 1009 2881 1497 
Q 2881 1984 2565 2268 
Q 2250 2553 1709 2553 
Q 1456 2553 1204 2497 
Q 953 2441 691 2322 
L 691 4666 
z
" transform="scale(0.015625)"/>
       </defs>
       <use xlink:href="#DejaVuSans-35"/>
      </g>
     </g>
    </g>
    <g id="xtick_3">
     <g id="line2d_3">
      <g>
       <use xlink:href="#m8ec5af7aed" x="182.201421" y="119.740235" style="stroke: #000000; stroke-width: 0.8"/>
      </g>
     </g>
     <g id="text_3">
      <!-- 10 -->
      <g transform="translate(175.838921 134.338673) scale(0.1 -0.1)">
       <defs>
        <path id="DejaVuSans-31" d="M 794 531 
L 1825 531 
L 1825 4091 
L 703 3866 
L 703 4441 
L 1819 4666 
L 2450 4666 
L 2450 531 
L 3481 531 
L 3481 0 
L 794 0 
L 794 531 
z
" transform="scale(0.015625)"/>
       </defs>
       <use xlink:href="#DejaVuSans-31"/>
       <use xlink:href="#DejaVuSans-30" x="63.623047"/>
      </g>
     </g>
    </g>
    <g id="xtick_4">
     <g id="line2d_4">
      <g>
       <use xlink:href="#m8ec5af7aed" x="236.385768" y="119.740235" style="stroke: #000000; stroke-width: 0.8"/>
      </g>
     </g>
     <g id="text_4">
      <!-- 15 -->
      <g transform="translate(230.023268 134.338673) scale(0.1 -0.1)">
       <use xlink:href="#DejaVuSans-31"/>
       <use xlink:href="#DejaVuSans-35" x="63.623047"/>
      </g>
     </g>
    </g>
    <g id="xtick_5">
     <g id="line2d_5">
      <g>
       <use xlink:href="#m8ec5af7aed" x="290.570115" y="119.740235" style="stroke: #000000; stroke-width: 0.8"/>
      </g>
     </g>
     <g id="text_5">
      <!-- 20 -->
      <g transform="translate(284.207615 134.338673) scale(0.1 -0.1)">
       <defs>
        <path id="DejaVuSans-32" d="M 1228 531 
L 3431 531 
L 3431 0 
L 469 0 
L 469 531 
Q 828 903 1448 1529 
Q 2069 2156 2228 2338 
Q 2531 2678 2651 2914 
Q 2772 3150 2772 3378 
Q 2772 3750 2511 3984 
Q 2250 4219 1831 4219 
Q 1534 4219 1204 4116 
Q 875 4013 500 3803 
L 500 4441 
Q 881 4594 1212 4672 
Q 1544 4750 1819 4750 
Q 2544 4750 2975 4387 
Q 3406 4025 3406 3419 
Q 3406 3131 3298 2873 
Q 3191 2616 2906 2266 
Q 2828 2175 2409 1742 
Q 1991 1309 1228 531 
z
" transform="scale(0.015625)"/>
       </defs>
       <use xlink:href="#DejaVuSans-32"/>
       <use xlink:href="#DejaVuSans-30" x="63.623047"/>
      </g>
     </g>
    </g>
    <g id="xtick_6">
     <g id="line2d_6">
      <g>
       <use xlink:href="#m8ec5af7aed" x="344.754462" y="119.740235" style="stroke: #000000; stroke-width: 0.8"/>
      </g>
     </g>
     <g id="text_6">
      <!-- 25 -->
      <g transform="translate(338.391962 134.338673) scale(0.1 -0.1)">
       <use xlink:href="#DejaVuSans-32"/>
       <use xlink:href="#DejaVuSans-35" x="63.623047"/>
      </g>
     </g>
    </g>
    <g id="xtick_7">
     <g id="line2d_7">
      <g>
       <use xlink:href="#m8ec5af7aed" x="398.938809" y="119.740235" style="stroke: #000000; stroke-width: 0.8"/>
      </g>
     </g>
     <g id="text_7">
      <!-- 30 -->
      <g transform="translate(392.576309 134.338673) scale(0.1 -0.1)">
       <defs>
        <path id="DejaVuSans-33" d="M 2597 2516 
Q 3050 2419 3304 2112 
Q 3559 1806 3559 1356 
Q 3559 666 3084 287 
Q 2609 -91 1734 -91 
Q 1441 -91 1130 -33 
Q 819 25 488 141 
L 488 750 
Q 750 597 1062 519 
Q 1375 441 1716 441 
Q 2309 441 2620 675 
Q 2931 909 2931 1356 
Q 2931 1769 2642 2001 
Q 2353 2234 1838 2234 
L 1294 2234 
L 1294 2753 
L 1863 2753 
Q 2328 2753 2575 2939 
Q 2822 3125 2822 3475 
Q 2822 3834 2567 4026 
Q 2313 4219 1838 4219 
Q 1578 4219 1281 4162 
Q 984 4106 628 3988 
L 628 4550 
Q 988 4650 1302 4700 
Q 1616 4750 1894 4750 
Q 2613 4750 3031 4423 
Q 3450 4097 3450 3541 
Q 3450 3153 3228 2886 
Q 3006 2619 2597 2516 
z
" transform="scale(0.015625)"/>
       </defs>
       <use xlink:href="#DejaVuSans-33"/>
       <use xlink:href="#DejaVuSans-30" x="63.623047"/>
      </g>
     </g>
    </g>
   </g>
   <g id="matplotlib.axis_2">
    <g id="ytick_1">
     <g id="line2d_8">
      <defs>
       <path id="m990a2830cf" d="M 0 0 
L -3.5 0 
" style="stroke: #000000; stroke-width: 0.8"/>
      </defs>
      <g>
       <use xlink:href="#m990a2830cf" x="57.6" y="112.336483" style="stroke: #000000; stroke-width: 0.8"/>
      </g>
     </g>
     <g id="text_8">
      <!-- 0 -->
      <g transform="translate(44.2375 116.135702) scale(0.1 -0.1)">
       <use xlink:href="#DejaVuSans-30"/>
      </g>
     </g>
    </g>
    <g id="ytick_2">
     <g id="line2d_9">
      <g>
       <use xlink:href="#m990a2830cf" x="57.6" y="73.875434" style="stroke: #000000; stroke-width: 0.8"/>
      </g>
     </g>
     <g id="text_9">
      <!-- 20 -->
      <g transform="translate(37.875 77.674653) scale(0.1 -0.1)">
       <use xlink:href="#DejaVuSans-32"/>
       <use xlink:href="#DejaVuSans-30" x="63.623047"/>
      </g>
     </g>
    </g>
   </g>
   <g id="line2d_10">
    <path d="M 73.832727 91.182906 
L 74.284263 91.182906 
L 74.7358 96.952064 
L 75.187336 100.798169 
L 75.638872 100.798169 
L 76.090408 96.952064 
L 76.541945 96.952064 
L 76.993481 98.875116 
L 78.799626 91.182906 
L 79.251162 85.413749 
L 79.702698 87.336801 
L 81.057307 81.567644 
L 81.508843 81.567644 
L 81.960379 85.413749 
L 82.411916 91.182906 
L 82.863452 95.029011 
L 83.314988 96.952064 
L 83.766524 100.798169 
L 84.21806 102.721221 
L 84.669597 106.567326 
L 85.121133 108.490378 
L 85.572669 108.490378 
L 86.024205 106.567326 
L 86.475742 108.490378 
L 86.927278 108.490378 
L 87.378814 110.413431 
L 87.83035 108.490378 
L 88.281886 108.490378 
L 88.733423 112.336483 
L 89.636495 100.798169 
L 90.088031 93.105959 
L 90.539568 87.336801 
L 91.44264 79.644591 
L 91.894176 79.644591 
L 92.345712 85.413749 
L 92.797249 87.336801 
L 93.248785 87.336801 
L 94.151857 83.490696 
L 94.603394 89.259854 
L 95.05493 98.875116 
L 95.506466 104.644273 
L 96.409539 96.952064 
L 96.861075 91.182906 
L 97.764147 83.490696 
L 98.66722 79.644591 
L 99.118756 79.644591 
L 99.570292 77.721539 
L 100.021828 79.644591 
L 100.473365 85.413749 
L 100.924901 87.336801 
L 101.376437 87.336801 
L 102.279509 83.490696 
L 102.731046 89.259854 
L 103.182582 98.875116 
L 103.634118 104.644273 
L 104.085654 106.567326 
L 104.537191 100.798169 
L 104.988727 91.182906 
L 105.891799 83.490696 
L 106.794872 87.336801 
L 107.246408 87.336801 
L 107.697944 91.182906 
L 108.14948 91.182906 
L 108.601017 95.029011 
L 109.052553 95.029011 
L 109.504089 93.105959 
L 109.955625 89.259854 
L 110.407161 87.336801 
L 111.310234 79.644591 
L 111.76177 77.721539 
L 112.213306 77.721539 
L 113.116379 73.875434 
L 113.567915 75.798486 
L 114.019451 73.875434 
L 114.470987 75.798486 
L 115.825596 75.798486 
L 116.277132 79.644591 
L 117.180205 71.952382 
L 117.631741 75.798486 
L 118.083277 73.875434 
L 118.534814 73.875434 
L 118.98635 71.952382 
L 120.792495 71.952382 
L 121.244031 75.798486 
L 122.147103 93.105959 
L 122.59864 95.029011 
L 123.501712 91.182906 
L 123.953248 91.182906 
L 124.404784 89.259854 
L 125.759393 77.721539 
L 126.210929 79.644591 
L 126.662466 83.490696 
L 127.114002 79.644591 
L 127.565538 89.259854 
L 128.017074 95.029011 
L 128.46861 98.875116 
L 129.823219 104.644273 
L 130.274755 108.490378 
L 130.726292 108.490378 
L 131.629364 93.105959 
L 132.0809 87.336801 
L 132.983973 87.336801 
L 133.435509 89.259854 
L 133.887045 89.259854 
L 134.338581 87.336801 
L 135.241654 87.336801 
L 135.69319 83.490696 
L 136.596262 71.952382 
L 137.047799 68.106277 
L 137.499335 71.952382 
L 138.402407 75.798486 
L 138.853944 75.798486 
L 139.757016 79.644591 
L 140.660089 71.952382 
L 141.111625 70.029329 
L 142.91777 70.029329 
L 143.369306 71.952382 
L 143.820842 81.567644 
L 144.272378 85.413749 
L 146.078523 85.413749 
L 146.530059 81.567644 
L 146.981596 75.798486 
L 148.787741 68.106277 
L 149.239277 70.029329 
L 149.690813 66.183224 
L 150.142349 71.952382 
L 150.593885 71.952382 
L 151.045422 79.644591 
L 151.496958 83.490696 
L 151.948494 85.413749 
L 152.40003 85.413749 
L 152.851567 83.490696 
L 153.303103 83.490696 
L 153.754639 85.413749 
L 154.657711 85.413749 
L 155.109248 81.567644 
L 155.560784 85.413749 
L 156.01232 85.413749 
L 156.463856 87.336801 
L 156.915393 87.336801 
L 157.366929 85.413749 
L 157.818465 85.413749 
L 158.270001 79.644591 
L 159.62461 73.875434 
L 160.076146 73.875434 
L 160.527682 71.952382 
L 161.882291 71.952382 
L 162.785364 79.644591 
L 163.2369 81.567644 
L 163.688436 85.413749 
L 164.139972 85.413749 
L 164.591508 87.336801 
L 165.043045 87.336801 
L 165.494581 85.413749 
L 165.946117 81.567644 
L 166.397653 73.875434 
L 167.300726 66.183224 
L 167.752262 66.183224 
L 168.203798 64.260172 
L 168.655334 66.183224 
L 169.558407 66.183224 
L 170.009943 73.875434 
L 170.461479 75.798486 
L 170.913016 75.798486 
L 171.364552 77.721539 
L 172.267624 77.721539 
L 172.71916 79.644591 
L 173.622233 79.644591 
L 174.525305 83.490696 
L 175.879914 83.490696 
L 176.33145 85.413749 
L 177.686059 79.644591 
L 178.137595 73.875434 
L 179.040668 70.029329 
L 179.492204 66.183224 
L 179.94374 71.952382 
L 180.395276 71.952382 
L 180.846812 70.029329 
L 181.298349 73.875434 
L 181.749885 73.875434 
L 182.201421 75.798486 
L 183.55603 87.336801 
L 184.007566 87.336801 
L 184.459102 89.259854 
L 185.362175 89.259854 
L 185.813711 85.413749 
L 186.716783 70.029329 
L 187.619856 66.183224 
L 188.071392 62.337119 
L 188.522928 62.337119 
L 188.974465 58.491014 
L 189.426001 52.721857 
L 190.329073 48.875752 
L 190.780609 48.875752 
L 191.683682 45.029647 
L 192.135218 45.029647 
L 192.586754 46.9527 
L 193.038291 50.798804 
L 193.941363 66.183224 
L 194.392899 71.952382 
L 194.844435 73.875434 
L 195.295972 71.952382 
L 195.747508 77.721539 
L 197.102117 83.490696 
L 197.553653 83.490696 
L 198.456725 79.644591 
L 198.908261 73.875434 
L 199.811334 70.029329 
L 200.26287 66.183224 
L 200.714406 71.952382 
L 201.165943 71.952382 
L 201.617479 70.029329 
L 202.069015 73.875434 
L 202.520551 73.875434 
L 202.972087 75.798486 
L 204.326696 87.336801 
L 204.778232 89.259854 
L 205.681305 77.721539 
L 206.132841 75.798486 
L 206.584377 71.952382 
L 207.035914 71.952382 
L 207.48745 66.183224 
L 208.390522 66.183224 
L 208.842058 64.260172 
L 210.196667 64.260172 
L 210.648203 62.337119 
L 211.09974 62.337119 
L 212.002812 58.491014 
L 212.905884 58.491014 
L 213.357421 62.337119 
L 214.260493 66.183224 
L 214.712029 66.183224 
L 215.615102 70.029329 
L 216.066638 70.029329 
L 216.518174 71.952382 
L 217.421247 79.644591 
L 217.872783 77.721539 
L 218.324319 73.875434 
L 218.775855 71.952382 
L 219.227392 68.106277 
L 219.678928 71.952382 
L 220.130464 73.875434 
L 220.582 79.644591 
L 221.033536 81.567644 
L 221.485073 89.259854 
L 221.936609 93.105959 
L 222.388145 89.259854 
L 222.839681 87.336801 
L 223.291218 91.182906 
L 223.742754 89.259854 
L 224.19429 81.567644 
L 226.000435 89.259854 
L 226.451971 93.105959 
L 227.80658 98.875116 
L 228.258116 98.875116 
L 228.709652 96.952064 
L 229.161189 98.875116 
L 230.064261 98.875116 
L 230.515797 100.798169 
L 230.967333 98.875116 
L 231.41887 98.875116 
L 231.870406 91.182906 
L 232.321942 89.259854 
L 233.676551 89.259854 
L 234.579623 85.413749 
L 235.031159 87.336801 
L 235.482696 81.567644 
L 235.934232 87.336801 
L 236.837304 91.182906 
L 237.740377 87.336801 
L 239.094985 87.336801 
L 239.546522 85.413749 
L 241.804203 66.183224 
L 242.255739 68.106277 
L 242.707275 66.183224 
L 243.158811 70.029329 
L 243.610348 71.952382 
L 244.061884 70.029329 
L 244.964956 70.029329 
L 245.416493 71.952382 
L 245.868029 71.952382 
L 246.771101 68.106277 
L 247.222638 70.029329 
L 247.674174 70.029329 
L 248.12571 71.952382 
L 249.028782 79.644591 
L 249.480319 77.721539 
L 249.931855 73.875434 
L 250.383391 71.952382 
L 250.834927 68.106277 
L 251.286464 71.952382 
L 252.189536 75.798486 
L 252.641072 71.952382 
L 253.092608 71.952382 
L 253.544145 75.798486 
L 254.447217 71.952382 
L 254.898753 71.952382 
L 255.35029 70.029329 
L 255.801826 70.029329 
L 256.253362 71.952382 
L 256.704898 71.952382 
L 257.156434 77.721539 
L 257.607971 87.336801 
L 258.059507 93.105959 
L 258.511043 95.029011 
L 258.962579 98.875116 
L 259.414116 98.875116 
L 259.865652 100.798169 
L 260.317188 100.798169 
L 260.768724 98.875116 
L 261.22026 98.875116 
L 262.123333 81.567644 
L 262.574869 77.721539 
L 263.026405 71.952382 
L 263.477942 70.029329 
L 264.381014 73.875434 
L 264.83255 77.721539 
L 265.284086 79.644591 
L 265.735623 79.644591 
L 266.187159 81.567644 
L 266.638695 87.336801 
L 267.993304 87.336801 
L 268.44484 89.259854 
L 268.896376 87.336801 
L 269.347913 89.259854 
L 269.799449 87.336801 
L 278.378637 87.336801 
L 278.830173 89.259854 
L 279.733246 89.259854 
L 280.636318 85.413749 
L 282.893999 66.183224 
L 283.345535 68.106277 
L 283.797072 66.183224 
L 284.248608 68.106277 
L 285.15168 79.644591 
L 285.603217 79.644591 
L 286.054753 75.798486 
L 286.506289 77.721539 
L 286.957825 83.490696 
L 287.409361 79.644591 
L 287.860898 77.721539 
L 288.312434 73.875434 
L 288.76397 71.952382 
L 289.215506 68.106277 
L 290.118579 64.260172 
L 291.021651 64.260172 
L 291.473188 66.183224 
L 291.924724 64.260172 
L 292.37626 66.183224 
L 295.537014 66.183224 
L 295.98855 68.106277 
L 296.440086 71.952382 
L 296.891622 79.644591 
L 297.343158 83.490696 
L 297.794695 83.490696 
L 298.246231 81.567644 
L 299.149303 81.567644 
L 299.60084 83.490696 
L 300.052376 87.336801 
L 302.310057 96.952064 
L 303.213129 96.952064 
L 303.664666 91.182906 
L 304.116202 83.490696 
L 304.567738 89.259854 
L 305.019274 93.105959 
L 305.47081 95.029011 
L 306.825419 95.029011 
L 307.276955 96.952064 
L 309.0831 96.952064 
L 310.437709 102.721221 
L 310.889245 102.721221 
L 311.340781 100.798169 
L 311.792318 104.644273 
L 312.243854 100.798169 
L 312.69539 100.798169 
L 313.146926 96.952064 
L 313.598463 95.029011 
L 314.049999 98.875116 
L 314.501535 100.798169 
L 314.953071 104.644273 
L 315.404607 102.721221 
L 316.759216 102.721221 
L 317.210752 98.875116 
L 317.662289 89.259854 
L 318.565361 81.567644 
L 319.016897 81.567644 
L 320.371506 75.798486 
L 320.823042 75.798486 
L 321.274578 73.875434 
L 321.726115 73.875434 
L 322.177651 75.798486 
L 322.629187 75.798486 
L 323.080723 79.644591 
L 323.983796 75.798486 
L 324.435332 75.798486 
L 324.886868 71.952382 
L 325.338404 75.798486 
L 325.789941 73.875434 
L 326.241477 75.798486 
L 326.693013 79.644591 
L 327.596085 95.029011 
L 328.047622 96.952064 
L 328.499158 96.952064 
L 328.950694 95.029011 
L 329.853767 95.029011 
L 330.305303 98.875116 
L 330.756839 100.798169 
L 331.208375 93.105959 
L 332.111448 81.567644 
L 332.562984 77.721539 
L 333.466056 77.721539 
L 333.917593 79.644591 
L 334.820665 75.798486 
L 335.272201 77.721539 
L 336.62681 71.952382 
L 337.529882 75.798486 
L 337.981419 75.798486 
L 338.432955 79.644591 
L 338.884491 87.336801 
L 339.336027 93.105959 
L 340.2391 100.798169 
L 340.690636 102.721221 
L 341.142172 106.567326 
L 341.593708 106.567326 
L 342.045245 104.644273 
L 342.496781 106.567326 
L 342.948317 100.798169 
L 343.85139 100.798169 
L 344.302926 102.721221 
L 344.754462 100.798169 
L 345.205998 100.798169 
L 345.657534 98.875116 
L 346.109071 98.875116 
L 347.012143 95.029011 
L 347.463679 95.029011 
L 347.915216 91.182906 
L 348.818288 87.336801 
L 349.269824 91.182906 
L 349.72136 98.875116 
L 350.172897 104.644273 
L 350.624433 108.490378 
L 351.075969 108.490378 
L 351.527505 110.413431 
L 351.979042 106.567326 
L 352.430578 106.567326 
L 352.882114 95.029011 
L 353.785186 83.490696 
L 354.236723 79.644591 
L 354.688259 79.644591 
L 355.591331 75.798486 
L 356.042868 75.798486 
L 356.494404 79.644591 
L 356.94594 81.567644 
L 357.397476 85.413749 
L 358.300549 89.259854 
L 358.752085 89.259854 
L 359.655157 96.952064 
L 360.106694 98.875116 
L 360.55823 98.875116 
L 361.009766 91.182906 
L 361.461302 89.259854 
L 362.815911 95.029011 
L 363.718983 95.029011 
L 364.17052 96.952064 
L 364.622056 100.798169 
L 365.525128 104.644273 
L 365.976665 104.644273 
L 366.879737 93.105959 
L 367.331273 89.259854 
L 367.782809 87.336801 
L 368.234346 83.490696 
L 369.137418 79.644591 
L 369.588954 79.644591 
L 370.040491 83.490696 
L 370.943563 87.336801 
L 371.395099 91.182906 
L 371.846635 96.952064 
L 372.298172 96.952064 
L 372.749708 100.798169 
L 373.201244 100.798169 
L 374.104317 104.644273 
L 374.555853 108.490378 
L 375.458925 108.490378 
L 375.910461 112.336483 
L 376.361998 112.336483 
L 376.813534 114.259536 
L 377.716606 114.259536 
L 378.168143 116.182588 
L 378.619679 112.336483 
L 379.071215 114.259536 
L 379.522751 114.259536 
L 380.425824 102.721221 
L 380.87736 100.798169 
L 382.231969 89.259854 
L 383.135041 89.259854 
L 384.941186 81.567644 
L 385.392722 81.567644 
L 385.844258 79.644591 
L 386.295795 79.644591 
L 386.747331 81.567644 
L 387.198867 85.413749 
L 387.650403 91.182906 
L 388.10194 95.029011 
L 389.005012 98.875116 
L 389.908084 98.875116 
L 390.359621 100.798169 
L 391.262693 100.798169 
L 392.617302 106.567326 
L 393.068838 102.721221 
L 394.423447 108.490378 
L 394.874983 108.490378 
L 395.326519 110.413431 
L 395.778055 110.413431 
L 396.229592 106.567326 
L 396.681128 108.490378 
L 397.132664 108.490378 
L 397.5842 110.413431 
L 398.035737 106.567326 
L 398.487273 106.567326 
L 398.487273 106.567326 
" clip-path="url(#pb4a4fe81bb)" style="fill: none; stroke: #1f77b4; stroke-width: 1.5; stroke-linecap: square"/>
   </g>
   <g id="patch_3">
    <path d="M 57.6 119.740235 
L 57.6 41.472 
" style="fill: none; stroke: #000000; stroke-width: 0.8; stroke-linejoin: miter; stroke-linecap: square"/>
   </g>
   <g id="patch_4">
    <path d="M 414.72 119.740235 
L 414.72 41.472 
" style="fill: none; stroke: #000000; stroke-width: 0.8; stroke-linejoin: miter; stroke-linecap: square"/>
   </g>
   <g id="patch_5">
    <path d="M 57.6 119.740235 
L 414.72 119.740235 
" style="fill: none; stroke: #000000; stroke-width: 0.8; stroke-linejoin: miter; stroke-linecap: square"/>
   </g>
   <g id="patch_6">
    <path d="M 57.6 41.472 
L 414.72 41.472 
" style="fill: none; stroke: #000000; stroke-width: 0.8; stroke-linejoin: miter; stroke-linecap: square"/>
   </g>
  </g>
  <g id="axes_2">
   <g id="patch_7">
    <path d="M 57.6 213.662118 
L 414.72 213.662118 
L 414.72 135.393882 
L 57.6 135.393882 
z
" style="fill: #ffffff"/>
   </g>
   <g id="matplotlib.axis_3">
    <g id="xtick_8">
     <g id="line2d_11">
      <g>
       <use xlink:href="#m8ec5af7aed" x="73.832727" y="213.662118" style="stroke: #000000; stroke-width: 0.8"/>
      </g>
     </g>
     <g id="text_10">
      <!-- 0 -->
      <g transform="translate(70.651477 228.260555) scale(0.1 -0.1)">
       <use xlink:href="#DejaVuSans-30"/>
      </g>
     </g>
    </g>
    <g id="xtick_9">
     <g id="line2d_12">
      <g>
       <use xlink:href="#m8ec5af7aed" x="128.017074" y="213.662118" style="stroke: #000000; stroke-width: 0.8"/>
      </g>
     </g>
     <g id="text_11">
      <!-- 5 -->
      <g transform="translate(124.835824 228.260555) scale(0.1 -0.1)">
       <use xlink:href="#DejaVuSans-35"/>
      </g>
     </g>
    </g>
    <g id="xtick_10">
     <g id="line2d_13">
      <g>
       <use xlink:href="#m8ec5af7aed" x="182.201421" y="213.662118" style="stroke: #000000; stroke-width: 0.8"/>
      </g>
     </g>
     <g id="text_12">
      <!-- 10 -->
      <g transform="translate(175.838921 228.260555) scale(0.1 -0.1)">
       <use xlink:href="#DejaVuSans-31"/>
       <use xlink:href="#DejaVuSans-30" x="63.623047"/>
      </g>
     </g>
    </g>
    <g id="xtick_11">
     <g id="line2d_14">
      <g>
       <use xlink:href="#m8ec5af7aed" x="236.385768" y="213.662118" style="stroke: #000000; stroke-width: 0.8"/>
      </g>
     </g>
     <g id="text_13">
      <!-- 15 -->
      <g transform="translate(230.023268 228.260555) scale(0.1 -0.1)">
       <use xlink:href="#DejaVuSans-31"/>
       <use xlink:href="#DejaVuSans-35" x="63.623047"/>
      </g>
     </g>
    </g>
    <g id="xtick_12">
     <g id="line2d_15">
      <g>
       <use xlink:href="#m8ec5af7aed" x="290.570115" y="213.662118" style="stroke: #000000; stroke-width: 0.8"/>
      </g>
     </g>
     <g id="text_14">
      <!-- 20 -->
      <g transform="translate(284.207615 228.260555) scale(0.1 -0.1)">
       <use xlink:href="#DejaVuSans-32"/>
       <use xlink:href="#DejaVuSans-30" x="63.623047"/>
      </g>
     </g>
    </g>
    <g id="xtick_13">
     <g id="line2d_16">
      <g>
       <use xlink:href="#m8ec5af7aed" x="344.754462" y="213.662118" style="stroke: #000000; stroke-width: 0.8"/>
      </g>
     </g>
     <g id="text_15">
      <!-- 25 -->
      <g transform="translate(338.391962 228.260555) scale(0.1 -0.1)">
       <use xlink:href="#DejaVuSans-32"/>
       <use xlink:href="#DejaVuSans-35" x="63.623047"/>
      </g>
     </g>
    </g>
    <g id="xtick_14">
     <g id="line2d_17">
      <g>
       <use xlink:href="#m8ec5af7aed" x="398.938809" y="213.662118" style="stroke: #000000; stroke-width: 0.8"/>
      </g>
     </g>
     <g id="text_16">
      <!-- 30 -->
      <g transform="translate(392.576309 228.260555) scale(0.1 -0.1)">
       <use xlink:href="#DejaVuSans-33"/>
       <use xlink:href="#DejaVuSans-30" x="63.623047"/>
      </g>
     </g>
    </g>
   </g>
   <g id="matplotlib.axis_4">
    <g id="ytick_3">
     <g id="line2d_18">
      <g>
       <use xlink:href="#m990a2830cf" x="57.6" y="191.269869" style="stroke: #000000; stroke-width: 0.8"/>
      </g>
     </g>
     <g id="text_17">
      <!-- 50 -->
      <g transform="translate(37.875 195.069087) scale(0.1 -0.1)">
       <use xlink:href="#DejaVuSans-35"/>
       <use xlink:href="#DejaVuSans-30" x="63.623047"/>
      </g>
     </g>
    </g>
    <g id="ytick_4">
     <g id="line2d_19">
      <g>
       <use xlink:href="#m990a2830cf" x="57.6" y="165.110699" style="stroke: #000000; stroke-width: 0.8"/>
      </g>
     </g>
     <g id="text_18">
      <!-- 75 -->
      <g transform="translate(37.875 168.909918) scale(0.1 -0.1)">
       <defs>
        <path id="DejaVuSans-37" d="M 525 4666 
L 3525 4666 
L 3525 4397 
L 1831 0 
L 1172 0 
L 2766 4134 
L 525 4134 
L 525 4666 
z
" transform="scale(0.015625)"/>
       </defs>
       <use xlink:href="#DejaVuSans-37"/>
       <use xlink:href="#DejaVuSans-35" x="63.623047"/>
      </g>
     </g>
    </g>
    <g id="ytick_5">
     <g id="line2d_20">
      <g>
       <use xlink:href="#m990a2830cf" x="57.6" y="138.951529" style="stroke: #000000; stroke-width: 0.8"/>
      </g>
     </g>
     <g id="text_19">
      <!-- 100 -->
      <g transform="translate(31.5125 142.750748) scale(0.1 -0.1)">
       <use xlink:href="#DejaVuSans-31"/>
       <use xlink:href="#DejaVuSans-30" x="63.623047"/>
       <use xlink:href="#DejaVuSans-30" x="127.246094"/>
      </g>
     </g>
    </g>
   </g>
   <g id="line2d_21">
    <path d="M 73.832727 156.739765 
L 74.284263 154.647031 
L 74.7358 144.183363 
L 75.187336 139.997896 
L 75.638872 138.951529 
L 76.090408 143.136997 
L 76.541945 142.09063 
L 76.993481 144.183363 
L 77.445017 148.36883 
L 78.34809 159.878865 
L 78.799626 167.203433 
L 79.251162 182.898934 
L 79.702698 177.6671 
L 80.154234 188.130768 
L 80.605771 195.455336 
L 81.057307 200.68717 
L 81.508843 201.733536 
L 81.960379 198.594436 
L 83.314988 170.342533 
L 83.766524 148.36883 
L 84.669597 138.951529 
L 88.733423 138.951529 
L 89.184959 144.183363 
L 89.636495 156.739765 
L 90.088031 174.528 
L 90.539568 184.991668 
L 90.991104 191.269869 
L 91.44264 199.640803 
L 91.894176 201.733536 
L 92.345712 187.084401 
L 92.797249 179.759834 
L 93.248785 177.6671 
L 93.700321 188.130768 
L 94.151857 195.455336 
L 94.603394 186.038035 
L 95.05493 158.832498 
L 95.506466 143.136997 
L 95.958002 149.415197 
L 96.409539 157.786131 
L 96.861075 174.528 
L 97.312611 187.084401 
L 97.764147 194.408969 
L 98.215683 197.548069 
L 99.118756 199.640803 
L 99.570292 201.733536 
L 100.021828 201.733536 
L 100.473365 187.084401 
L 100.924901 179.759834 
L 101.376437 177.6671 
L 101.827973 188.130768 
L 102.279509 195.455336 
L 102.731046 186.038035 
L 103.182582 158.832498 
L 103.634118 143.136997 
L 104.085654 138.951529 
L 104.537191 144.183363 
L 104.988727 169.296166 
L 105.891799 182.898934 
L 106.343335 174.528 
L 107.246408 161.971599 
L 107.697944 153.600664 
L 108.14948 150.461564 
L 108.601017 143.136997 
L 109.052553 145.22973 
L 109.504089 150.461564 
L 109.955625 160.925232 
L 110.407161 164.064332 
L 110.858698 172.435266 
L 111.310234 178.713467 
L 112.213306 187.084401 
L 112.664843 187.084401 
L 113.116379 191.269869 
L 114.019451 195.455336 
L 114.470987 193.362602 
L 115.825596 193.362602 
L 116.277132 189.177135 
L 116.728669 197.548069 
L 117.180205 201.733536 
L 117.631741 201.733536 
L 118.083277 203.82627 
L 118.534814 201.733536 
L 118.98635 203.82627 
L 119.437886 204.872637 
L 119.889422 203.82627 
L 120.340958 204.872637 
L 120.792495 203.82627 
L 121.244031 201.733536 
L 121.695567 182.898934 
L 122.147103 154.647031 
L 122.59864 151.507931 
L 123.050176 161.971599 
L 123.501712 167.203433 
L 123.953248 170.342533 
L 125.759393 196.501702 
L 126.210929 193.362602 
L 126.662466 182.898934 
L 127.114002 190.223502 
L 127.565538 165.110699 
L 128.017074 146.276097 
L 128.46861 141.044263 
L 128.920147 138.951529 
L 130.726292 138.951529 
L 131.177828 147.322464 
L 131.629364 166.157066 
L 132.0809 177.6671 
L 132.532436 174.528 
L 132.983973 173.481633 
L 133.435509 169.296166 
L 133.887045 169.296166 
L 134.338581 171.3889 
L 134.790118 171.3889 
L 135.241654 167.203433 
L 136.596262 194.408969 
L 137.047799 200.68717 
L 137.499335 197.548069 
L 137.950871 191.269869 
L 138.402407 193.362602 
L 138.853944 192.316235 
L 139.30548 188.130768 
L 139.757016 184.991668 
L 140.208552 189.177135 
L 140.660089 195.455336 
L 141.111625 199.640803 
L 142.014697 199.640803 
L 142.466233 200.68717 
L 142.91777 200.68717 
L 143.369306 197.548069 
L 143.820842 161.971599 
L 144.272378 142.09063 
L 144.723915 139.997896 
L 145.175451 141.044263 
L 145.626987 139.997896 
L 146.078523 142.09063 
L 146.530059 152.554298 
L 146.981596 166.157066 
L 147.433132 169.296166 
L 147.884668 178.713467 
L 148.336204 183.945301 
L 148.787741 191.269869 
L 149.239277 189.177135 
L 149.690813 193.362602 
L 150.142349 192.316235 
L 150.593885 184.991668 
L 151.045422 158.832498 
L 151.948494 147.322464 
L 152.40003 148.36883 
L 152.851567 152.554298 
L 153.303103 148.36883 
L 153.754639 142.09063 
L 154.206175 139.997896 
L 154.657711 142.09063 
L 155.109248 152.554298 
L 155.560784 141.044263 
L 156.01232 138.951529 
L 157.366929 138.951529 
L 157.818465 141.044263 
L 158.270001 156.739765 
L 159.173074 173.481633 
L 160.076146 183.945301 
L 160.527682 187.084401 
L 160.979219 188.130768 
L 161.430755 192.316235 
L 161.882291 190.223502 
L 162.333827 178.713467 
L 162.785364 171.3889 
L 163.2369 152.554298 
L 163.688436 141.044263 
L 164.139972 138.951529 
L 165.494581 138.951529 
L 165.946117 147.322464 
L 166.397653 171.3889 
L 166.84919 186.038035 
L 167.300726 194.408969 
L 167.752262 195.455336 
L 168.203798 197.548069 
L 168.655334 192.316235 
L 169.106871 189.177135 
L 169.558407 179.759834 
L 170.009943 146.276097 
L 170.461479 139.997896 
L 170.913016 138.951529 
L 171.816088 138.951529 
L 172.267624 145.22973 
L 172.71916 139.997896 
L 173.170697 138.951529 
L 173.622233 141.044263 
L 174.525305 138.951529 
L 176.33145 138.951529 
L 176.782986 139.997896 
L 177.686059 150.461564 
L 178.137595 163.017965 
L 178.589131 171.3889 
L 179.040668 175.574367 
L 179.492204 183.945301 
L 179.94374 169.296166 
L 180.395276 167.203433 
L 180.846812 173.481633 
L 181.298349 163.017965 
L 181.749885 156.739765 
L 182.201421 156.739765 
L 182.652957 150.461564 
L 183.104494 139.997896 
L 183.55603 138.951529 
L 184.459102 138.951529 
L 184.910639 139.997896 
L 185.362175 142.09063 
L 185.813711 152.554298 
L 186.716783 186.038035 
L 187.619856 192.316235 
L 188.522928 201.733536 
L 189.877537 208.011737 
L 190.329073 209.058104 
L 192.135218 209.058104 
L 192.586754 206.96537 
L 193.038291 201.733536 
L 193.489827 188.130768 
L 194.392899 154.647031 
L 194.844435 150.461564 
L 195.295972 154.647031 
L 195.747508 143.136997 
L 196.199044 139.997896 
L 196.65058 138.951529 
L 197.102117 138.951529 
L 197.553653 139.997896 
L 198.456725 150.461564 
L 198.908261 163.017965 
L 199.359798 171.3889 
L 199.811334 175.574367 
L 200.26287 183.945301 
L 200.714406 169.296166 
L 201.165943 167.203433 
L 201.617479 173.481633 
L 202.069015 163.017965 
L 202.520551 156.739765 
L 202.972087 156.739765 
L 203.423624 150.461564 
L 203.87516 139.997896 
L 204.326696 138.951529 
L 204.778232 138.951529 
L 205.229769 147.322464 
L 205.681305 163.017965 
L 206.132841 171.3889 
L 206.584377 176.620734 
L 207.035914 183.945301 
L 207.48745 194.408969 
L 208.842058 203.82627 
L 209.293595 202.779903 
L 209.745131 197.548069 
L 210.196667 197.548069 
L 212.002812 205.919003 
L 212.454348 205.919003 
L 213.357421 203.82627 
L 213.808957 200.68717 
L 214.260493 198.594436 
L 214.712029 199.640803 
L 215.163566 198.594436 
L 215.615102 195.455336 
L 216.066638 193.362602 
L 216.518174 189.177135 
L 216.96971 181.852567 
L 217.421247 170.342533 
L 217.872783 177.6671 
L 218.324319 193.362602 
L 218.775855 194.408969 
L 219.227392 200.68717 
L 219.678928 197.548069 
L 220.130464 191.269869 
L 220.582 175.574367 
L 221.033536 172.435266 
L 221.485073 146.276097 
L 221.936609 138.951529 
L 222.388145 143.136997 
L 222.839681 144.183363 
L 223.291218 139.997896 
L 223.742754 141.044263 
L 224.19429 163.017965 
L 224.645826 165.110699 
L 225.548899 155.693398 
L 226.000435 151.507931 
L 226.903507 139.997896 
L 227.355044 138.951529 
L 231.41887 138.951529 
L 231.870406 141.044263 
L 232.321942 142.09063 
L 232.773478 138.951529 
L 233.676551 138.951529 
L 234.128087 144.183363 
L 234.579623 158.832498 
L 235.031159 163.017965 
L 235.482696 176.620734 
L 235.934232 157.786131 
L 236.385768 151.507931 
L 236.837304 147.322464 
L 237.288841 147.322464 
L 237.740377 152.554298 
L 238.191913 151.507931 
L 238.643449 148.36883 
L 239.094985 148.36883 
L 239.546522 153.600664 
L 239.998058 163.017965 
L 240.449594 176.620734 
L 240.90113 182.898934 
L 241.352667 192.316235 
L 241.804203 197.548069 
L 242.255739 197.548069 
L 242.707275 198.594436 
L 243.158811 192.316235 
L 243.610348 191.269869 
L 244.061884 196.501702 
L 244.51342 196.501702 
L 244.964956 192.316235 
L 245.416493 191.269869 
L 245.868029 188.130768 
L 246.319565 191.269869 
L 246.771101 193.362602 
L 247.222638 194.408969 
L 247.674174 193.362602 
L 248.12571 189.177135 
L 248.577246 181.852567 
L 249.028782 170.342533 
L 249.480319 177.6671 
L 249.931855 193.362602 
L 250.383391 194.408969 
L 250.834927 200.68717 
L 251.286464 197.548069 
L 251.738 191.269869 
L 252.189536 193.362602 
L 252.641072 200.68717 
L 253.092608 201.733536 
L 253.544145 201.733536 
L 253.995681 205.919003 
L 254.447217 206.96537 
L 254.898753 205.919003 
L 255.35029 206.96537 
L 256.253362 206.96537 
L 256.704898 204.872637 
L 257.156434 197.548069 
L 257.607971 168.249799 
L 258.059507 152.554298 
L 258.962579 139.997896 
L 260.768724 148.36883 
L 261.22026 145.22973 
L 261.671797 168.249799 
L 262.123333 182.898934 
L 263.477942 199.640803 
L 263.929478 195.455336 
L 264.381014 190.223502 
L 264.83255 178.713467 
L 265.284086 163.017965 
L 265.735623 157.786131 
L 266.187159 155.693398 
L 266.638695 144.183363 
L 267.090231 141.044263 
L 267.541768 138.951529 
L 279.281709 138.951529 
L 279.733246 139.997896 
L 280.636318 153.600664 
L 281.087854 163.017965 
L 281.539391 176.620734 
L 281.990927 182.898934 
L 282.442463 192.316235 
L 282.893999 197.548069 
L 283.345535 197.548069 
L 283.797072 198.594436 
L 284.248608 194.408969 
L 284.700144 181.852567 
L 285.15168 165.110699 
L 285.603217 166.157066 
L 286.054753 176.620734 
L 286.506289 169.296166 
L 286.957825 147.322464 
L 287.409361 170.342533 
L 287.860898 177.6671 
L 288.312434 193.362602 
L 288.76397 194.408969 
L 289.215506 200.68717 
L 290.118579 202.779903 
L 290.570115 202.779903 
L 291.473188 200.68717 
L 291.924724 203.82627 
L 292.37626 199.640803 
L 294.633941 199.640803 
L 295.537014 201.733536 
L 295.98855 200.68717 
L 296.440086 200.68717 
L 297.343158 177.6671 
L 298.246231 186.038035 
L 298.697767 187.084401 
L 299.149303 184.991668 
L 299.60084 184.991668 
L 300.052376 161.971599 
L 300.503912 158.832498 
L 300.955448 153.600664 
L 301.406984 145.22973 
L 301.858521 141.044263 
L 302.310057 138.951529 
L 302.761593 138.951529 
L 303.213129 141.044263 
L 303.664666 154.647031 
L 304.116202 173.481633 
L 305.019274 139.997896 
L 305.922347 142.09063 
L 306.373883 144.183363 
L 306.825419 141.044263 
L 307.276955 138.951529 
L 311.792318 138.951529 
L 312.69539 143.136997 
L 313.598463 163.017965 
L 314.049999 147.322464 
L 314.953071 138.951529 
L 315.404607 143.136997 
L 315.856144 142.09063 
L 316.30768 138.951529 
L 316.759216 138.951529 
L 317.210752 145.22973 
L 317.662289 168.249799 
L 318.113825 184.991668 
L 318.565361 192.316235 
L 319.016897 192.316235 
L 319.468433 194.408969 
L 320.371506 200.68717 
L 320.823042 200.68717 
L 321.274578 202.779903 
L 321.726115 201.733536 
L 322.629187 197.548069 
L 323.080723 190.223502 
L 324.435332 204.872637 
L 324.886868 206.96537 
L 325.338404 205.919003 
L 325.789941 210.104471 
L 326.241477 210.104471 
L 326.693013 205.919003 
L 327.144549 191.269869 
L 327.596085 163.017965 
L 328.047622 153.600664 
L 328.499158 150.461564 
L 328.950694 152.554298 
L 329.40223 149.415197 
L 329.853767 145.22973 
L 330.305303 139.997896 
L 330.756839 138.951529 
L 331.208375 148.36883 
L 332.111448 188.130768 
L 332.562984 193.362602 
L 333.466056 191.269869 
L 333.917593 192.316235 
L 334.369129 190.223502 
L 334.820665 195.455336 
L 335.272201 197.548069 
L 336.175274 199.640803 
L 336.62681 203.82627 
L 337.078346 204.872637 
L 337.529882 203.82627 
L 337.981419 204.872637 
L 338.432955 204.872637 
L 338.884491 197.548069 
L 339.787564 170.342533 
L 340.2391 148.36883 
L 341.142172 138.951529 
L 344.302926 138.951529 
L 345.205998 141.044263 
L 346.109071 147.322464 
L 346.560607 149.415197 
L 347.463679 155.693398 
L 347.915216 165.110699 
L 348.366752 170.342533 
L 348.818288 170.342533 
L 349.269824 164.064332 
L 349.72136 143.136997 
L 350.172897 138.951529 
L 351.979042 138.951529 
L 352.430578 139.997896 
L 352.882114 158.832498 
L 353.33365 171.3889 
L 353.785186 178.713467 
L 354.236723 183.945301 
L 354.688259 184.991668 
L 355.139795 188.130768 
L 355.591331 192.316235 
L 356.042868 192.316235 
L 356.494404 190.223502 
L 356.94594 183.945301 
L 357.849013 167.203433 
L 359.203621 149.415197 
L 359.655157 138.951529 
L 360.55823 138.951529 
L 361.009766 141.044263 
L 361.912839 143.136997 
L 362.364375 139.997896 
L 363.267447 142.09063 
L 363.718983 144.183363 
L 364.17052 143.136997 
L 364.622056 138.951529 
L 365.525128 138.951529 
L 365.976665 139.997896 
L 366.879737 169.296166 
L 368.234346 187.084401 
L 369.137418 191.269869 
L 369.588954 191.269869 
L 370.040491 182.898934 
L 370.492027 179.759834 
L 370.943563 175.574367 
L 371.395099 165.110699 
L 371.846635 150.461564 
L 372.749708 139.997896 
L 373.201244 138.951529 
L 379.522751 138.951529 
L 380.87736 165.110699 
L 381.328896 167.203433 
L 381.780432 173.481633 
L 382.231969 182.898934 
L 383.135041 192.316235 
L 384.038114 196.501702 
L 384.48965 197.548069 
L 384.941186 200.68717 
L 385.844258 202.779903 
L 386.295795 202.779903 
L 386.747331 201.733536 
L 387.198867 198.594436 
L 388.553476 171.3889 
L 389.005012 167.203433 
L 389.908084 160.925232 
L 390.359621 154.647031 
L 390.811157 150.461564 
L 391.262693 150.461564 
L 391.714229 147.322464 
L 392.617302 138.951529 
L 398.035737 138.951529 
L 398.487273 139.997896 
L 398.487273 139.997896 
" clip-path="url(#pbe3f14851e)" style="fill: none; stroke: #1f77b4; stroke-width: 1.5; stroke-linecap: square"/>
   </g>
   <g id="patch_8">
    <path d="M 57.6 213.662118 
L 57.6 135.393882 
" style="fill: none; stroke: #000000; stroke-width: 0.8; stroke-linejoin: miter; stroke-linecap: square"/>
   </g>
   <g id="patch_9">
    <path d="M 414.72 213.662118 
L 414.72 135.393882 
" style="fill: none; stroke: #000000; stroke-width: 0.8; stroke-linejoin: miter; stroke-linecap: square"/>
   </g>
   <g id="patch_10">
    <path d="M 57.6 213.662118 
L 414.72 213.662118 
" style="fill: none; stroke: #000000; stroke-width: 0.8; stroke-linejoin: miter; stroke-linecap: square"/>
   </g>
   <g id="patch_11">
    <path d="M 57.6 135.393882 
L 414.72 135.393882 
" style="fill: none; stroke: #000000; stroke-width: 0.8; stroke-linejoin: miter; stroke-linecap: square"/>
   </g>
  </g>
  <g id="axes_3">
   <g id="patch_12">
    <path d="M 57.6 307.584 
L 414.72 307.584 
L 414.72 229.315765 
L 57.6 229.315765 
z
" style="fill: #ffffff"/>
   </g>
   <g id="matplotlib.axis_5">
    <g id="xtick_15">
     <g id="line2d_22">
      <g>
       <use xlink:href="#m8ec5af7aed" x="73.832727" y="307.584" style="stroke: #000000; stroke-width: 0.8"/>
      </g>
     </g>
     <g id="text_20">
      <!-- 0 -->
      <g transform="translate(70.651477 322.182437) scale(0.1 -0.1)">
       <use xlink:href="#DejaVuSans-30"/>
      </g>
     </g>
    </g>
    <g id="xtick_16">
     <g id="line2d_23">
      <g>
       <use xlink:href="#m8ec5af7aed" x="128.017074" y="307.584" style="stroke: #000000; stroke-width: 0.8"/>
      </g>
     </g>
     <g id="text_21">
      <!-- 5 -->
      <g transform="translate(124.835824 322.182437) scale(0.1 -0.1)">
       <use xlink:href="#DejaVuSans-35"/>
      </g>
     </g>
    </g>
    <g id="xtick_17">
     <g id="line2d_24">
      <g>
       <use xlink:href="#m8ec5af7aed" x="182.201421" y="307.584" style="stroke: #000000; stroke-width: 0.8"/>
      </g>
     </g>
     <g id="text_22">
      <!-- 10 -->
      <g transform="translate(175.838921 322.182437) scale(0.1 -0.1)">
       <use xlink:href="#DejaVuSans-31"/>
       <use xlink:href="#DejaVuSans-30" x="63.623047"/>
      </g>
     </g>
    </g>
    <g id="xtick_18">
     <g id="line2d_25">
      <g>
       <use xlink:href="#m8ec5af7aed" x="236.385768" y="307.584" style="stroke: #000000; stroke-width: 0.8"/>
      </g>
     </g>
     <g id="text_23">
      <!-- 15 -->
      <g transform="translate(230.023268 322.182437) scale(0.1 -0.1)">
       <use xlink:href="#DejaVuSans-31"/>
       <use xlink:href="#DejaVuSans-35" x="63.623047"/>
      </g>
     </g>
    </g>
    <g id="xtick_19">
     <g id="line2d_26">
      <g>
       <use xlink:href="#m8ec5af7aed" x="290.570115" y="307.584" style="stroke: #000000; stroke-width: 0.8"/>
      </g>
     </g>
     <g id="text_24">
      <!-- 20 -->
      <g transform="translate(284.207615 322.182437) scale(0.1 -0.1)">
       <use xlink:href="#DejaVuSans-32"/>
       <use xlink:href="#DejaVuSans-30" x="63.623047"/>
      </g>
     </g>
    </g>
    <g id="xtick_20">
     <g id="line2d_27">
      <g>
       <use xlink:href="#m8ec5af7aed" x="344.754462" y="307.584" style="stroke: #000000; stroke-width: 0.8"/>
      </g>
     </g>
     <g id="text_25">
      <!-- 25 -->
      <g transform="translate(338.391962 322.182437) scale(0.1 -0.1)">
       <use xlink:href="#DejaVuSans-32"/>
       <use xlink:href="#DejaVuSans-35" x="63.623047"/>
      </g>
     </g>
    </g>
    <g id="xtick_21">
     <g id="line2d_28">
      <g>
       <use xlink:href="#m8ec5af7aed" x="398.938809" y="307.584" style="stroke: #000000; stroke-width: 0.8"/>
      </g>
     </g>
     <g id="text_26">
      <!-- 30 -->
      <g transform="translate(392.576309 322.182437) scale(0.1 -0.1)">
       <use xlink:href="#DejaVuSans-33"/>
       <use xlink:href="#DejaVuSans-30" x="63.623047"/>
      </g>
     </g>
    </g>
   </g>
   <g id="matplotlib.axis_6">
    <g id="ytick_6">
     <g id="line2d_29">
      <g>
       <use xlink:href="#m990a2830cf" x="57.6" y="304.026353" style="stroke: #000000; stroke-width: 0.8"/>
      </g>
     </g>
     <g id="text_27">
      <!-- 0 -->
      <g transform="translate(44.2375 307.825572) scale(0.1 -0.1)">
       <use xlink:href="#DejaVuSans-30"/>
      </g>
     </g>
    </g>
    <g id="ytick_7">
     <g id="line2d_30">
      <g>
       <use xlink:href="#m990a2830cf" x="57.6" y="268.449882" style="stroke: #000000; stroke-width: 0.8"/>
      </g>
     </g>
     <g id="text_28">
      <!-- 5 -->
      <g transform="translate(44.2375 272.249101) scale(0.1 -0.1)">
       <use xlink:href="#DejaVuSans-35"/>
      </g>
     </g>
    </g>
    <g id="ytick_8">
     <g id="line2d_31">
      <g>
       <use xlink:href="#m990a2830cf" x="57.6" y="232.873412" style="stroke: #000000; stroke-width: 0.8"/>
      </g>
     </g>
     <g id="text_29">
      <!-- 10 -->
      <g transform="translate(37.875 236.672631) scale(0.1 -0.1)">
       <use xlink:href="#DejaVuSans-31"/>
       <use xlink:href="#DejaVuSans-30" x="63.623047"/>
      </g>
     </g>
    </g>
   </g>
   <g id="line2d_32">
    <path d="M 73.832727 304.026353 
L 143.369306 304.026353 
L 143.820842 289.795765 
L 144.272378 296.911059 
L 144.723915 296.911059 
L 145.175451 304.026353 
L 155.560784 304.026353 
L 156.01232 296.911059 
L 156.463856 304.026353 
L 163.688436 304.026353 
L 164.139972 296.911059 
L 164.591508 304.026353 
L 174.073769 304.026353 
L 174.525305 247.104 
L 174.976842 261.334588 
L 175.428378 296.911059 
L 175.879914 304.026353 
L 233.225015 304.026353 
L 233.676551 296.911059 
L 234.128087 304.026353 
L 270.250985 304.026353 
L 270.702521 289.795765 
L 271.154057 232.873412 
L 271.605594 304.026353 
L 272.05713 289.795765 
L 272.508666 304.026353 
L 272.960202 304.026353 
L 273.411739 289.795765 
L 273.863275 232.873412 
L 274.314811 304.026353 
L 274.766347 289.795765 
L 275.217883 304.026353 
L 275.66942 304.026353 
L 276.120956 289.795765 
L 276.572492 232.873412 
L 277.024028 304.026353 
L 277.475565 289.795765 
L 277.927101 304.026353 
L 278.378637 304.026353 
L 278.830173 289.795765 
L 279.281709 304.026353 
L 398.487273 304.026353 
L 398.487273 304.026353 
" clip-path="url(#p35a5406759)" style="fill: none; stroke: #1f77b4; stroke-width: 1.5; stroke-linecap: square"/>
   </g>
   <g id="patch_13">
    <path d="M 57.6 307.584 
L 57.6 229.315765 
" style="fill: none; stroke: #000000; stroke-width: 0.8; stroke-linejoin: miter; stroke-linecap: square"/>
   </g>
   <g id="patch_14">
    <path d="M 414.72 307.584 
L 414.72 229.315765 
" style="fill: none; stroke: #000000; stroke-width: 0.8; stroke-linejoin: miter; stroke-linecap: square"/>
   </g>
   <g id="patch_15">
    <path d="M 57.6 307.584 
L 414.72 307.584 
" style="fill: none; stroke: #000000; stroke-width: 0.8; stroke-linejoin: miter; stroke-linecap: square"/>
   </g>
   <g id="patch_16">
    <path d="M 57.6 229.315765 
L 414.72 229.315765 
" style="fill: none; stroke: #000000; stroke-width: 0.8; stroke-linejoin: miter; stroke-linecap: square"/>
   </g>
  </g>
  <g id="text_30">
   <!-- cleaned_weather_spring -->
   <g transform="translate(157.493438 16.030125) scale(0.12 -0.12)">
    <defs>
     <path id="DejaVuSans-63" d="M 3122 3366 
L 3122 2828 
Q 2878 2963 2633 3030 
Q 2388 3097 2138 3097 
Q 1578 3097 1268 2742 
Q 959 2388 959 1747 
Q 959 1106 1268 751 
Q 1578 397 2138 397 
Q 2388 397 2633 464 
Q 2878 531 3122 666 
L 3122 134 
Q 2881 22 2623 -34 
Q 2366 -91 2075 -91 
Q 1284 -91 818 406 
Q 353 903 353 1747 
Q 353 2603 823 3093 
Q 1294 3584 2113 3584 
Q 2378 3584 2631 3529 
Q 2884 3475 3122 3366 
z
" transform="scale(0.015625)"/>
     <path id="DejaVuSans-6c" d="M 603 4863 
L 1178 4863 
L 1178 0 
L 603 0 
L 603 4863 
z
" transform="scale(0.015625)"/>
     <path id="DejaVuSans-65" d="M 3597 1894 
L 3597 1613 
L 953 1613 
Q 991 1019 1311 708 
Q 1631 397 2203 397 
Q 2534 397 2845 478 
Q 3156 559 3463 722 
L 3463 178 
Q 3153 47 2828 -22 
Q 2503 -91 2169 -91 
Q 1331 -91 842 396 
Q 353 884 353 1716 
Q 353 2575 817 3079 
Q 1281 3584 2069 3584 
Q 2775 3584 3186 3129 
Q 3597 2675 3597 1894 
z
M 3022 2063 
Q 3016 2534 2758 2815 
Q 2500 3097 2075 3097 
Q 1594 3097 1305 2825 
Q 1016 2553 972 2059 
L 3022 2063 
z
" transform="scale(0.015625)"/>
     <path id="DejaVuSans-61" d="M 2194 1759 
Q 1497 1759 1228 1600 
Q 959 1441 959 1056 
Q 959 750 1161 570 
Q 1363 391 1709 391 
Q 2188 391 2477 730 
Q 2766 1069 2766 1631 
L 2766 1759 
L 2194 1759 
z
M 3341 1997 
L 3341 0 
L 2766 0 
L 2766 531 
Q 2569 213 2275 61 
Q 1981 -91 1556 -91 
Q 1019 -91 701 211 
Q 384 513 384 1019 
Q 384 1609 779 1909 
Q 1175 2209 1959 2209 
L 2766 2209 
L 2766 2266 
Q 2766 2663 2505 2880 
Q 2244 3097 1772 3097 
Q 1472 3097 1187 3025 
Q 903 2953 641 2809 
L 641 3341 
Q 956 3463 1253 3523 
Q 1550 3584 1831 3584 
Q 2591 3584 2966 3190 
Q 3341 2797 3341 1997 
z
" transform="scale(0.015625)"/>
     <path id="DejaVuSans-6e" d="M 3513 2113 
L 3513 0 
L 2938 0 
L 2938 2094 
Q 2938 2591 2744 2837 
Q 2550 3084 2163 3084 
Q 1697 3084 1428 2787 
Q 1159 2491 1159 1978 
L 1159 0 
L 581 0 
L 581 3500 
L 1159 3500 
L 1159 2956 
Q 1366 3272 1645 3428 
Q 1925 3584 2291 3584 
Q 2894 3584 3203 3211 
Q 3513 2838 3513 2113 
z
" transform="scale(0.015625)"/>
     <path id="DejaVuSans-64" d="M 2906 2969 
L 2906 4863 
L 3481 4863 
L 3481 0 
L 2906 0 
L 2906 525 
Q 2725 213 2448 61 
Q 2172 -91 1784 -91 
Q 1150 -91 751 415 
Q 353 922 353 1747 
Q 353 2572 751 3078 
Q 1150 3584 1784 3584 
Q 2172 3584 2448 3432 
Q 2725 3281 2906 2969 
z
M 947 1747 
Q 947 1113 1208 752 
Q 1469 391 1925 391 
Q 2381 391 2643 752 
Q 2906 1113 2906 1747 
Q 2906 2381 2643 2742 
Q 2381 3103 1925 3103 
Q 1469 3103 1208 2742 
Q 947 2381 947 1747 
z
" transform="scale(0.015625)"/>
     <path id="DejaVuSans-5f" d="M 3263 -1063 
L 3263 -1509 
L -63 -1509 
L -63 -1063 
L 3263 -1063 
z
" transform="scale(0.015625)"/>
     <path id="DejaVuSans-77" d="M 269 3500 
L 844 3500 
L 1563 769 
L 2278 3500 
L 2956 3500 
L 3675 769 
L 4391 3500 
L 4966 3500 
L 4050 0 
L 3372 0 
L 2619 2869 
L 1863 0 
L 1184 0 
L 269 3500 
z
" transform="scale(0.015625)"/>
     <path id="DejaVuSans-74" d="M 1172 4494 
L 1172 3500 
L 2356 3500 
L 2356 3053 
L 1172 3053 
L 1172 1153 
Q 1172 725 1289 603 
Q 1406 481 1766 481 
L 2356 481 
L 2356 0 
L 1766 0 
Q 1100 0 847 248 
Q 594 497 594 1153 
L 594 3053 
L 172 3053 
L 172 3500 
L 594 3500 
L 594 4494 
L 1172 4494 
z
" transform="scale(0.015625)"/>
     <path id="DejaVuSans-68" d="M 3513 2113 
L 3513 0 
L 2938 0 
L 2938 2094 
Q 2938 2591 2744 2837 
Q 2550 3084 2163 3084 
Q 1697 3084 1428 2787 
Q 1159 2491 1159 1978 
L 1159 0 
L 581 0 
L 581 4863 
L 1159 4863 
L 1159 2956 
Q 1366 3272 1645 3428 
Q 1925 3584 2291 3584 
Q 2894 3584 3203 3211 
Q 3513 2838 3513 2113 
z
" transform="scale(0.015625)"/>
     <path id="DejaVuSans-72" d="M 2631 2963 
Q 2534 3019 2420 3045 
Q 2306 3072 2169 3072 
Q 1681 3072 1420 2755 
Q 1159 2438 1159 1844 
L 1159 0 
L 581 0 
L 581 3500 
L 1159 3500 
L 1159 2956 
Q 1341 3275 1631 3429 
Q 1922 3584 2338 3584 
Q 2397 3584 2469 3576 
Q 2541 3569 2628 3553 
L 2631 2963 
z
" transform="scale(0.015625)"/>
     <path id="DejaVuSans-73" d="M 2834 3397 
L 2834 2853 
Q 2591 2978 2328 3040 
Q 2066 3103 1784 3103 
Q 1356 3103 1142 2972 
Q 928 2841 928 2578 
Q 928 2378 1081 2264 
Q 1234 2150 1697 2047 
L 1894 2003 
Q 2506 1872 2764 1633 
Q 3022 1394 3022 966 
Q 3022 478 2636 193 
Q 2250 -91 1575 -91 
Q 1294 -91 989 -36 
Q 684 19 347 128 
L 347 722 
Q 666 556 975 473 
Q 1284 391 1588 391 
Q 1994 391 2212 530 
Q 2431 669 2431 922 
Q 2431 1156 2273 1281 
Q 2116 1406 1581 1522 
L 1381 1569 
Q 847 1681 609 1914 
Q 372 2147 372 2553 
Q 372 3047 722 3315 
Q 1072 3584 1716 3584 
Q 2034 3584 2315 3537 
Q 2597 3491 2834 3397 
z
" transform="scale(0.015625)"/>
     <path id="DejaVuSans-70" d="M 1159 525 
L 1159 -1331 
L 581 -1331 
L 581 3500 
L 1159 3500 
L 1159 2969 
Q 1341 3281 1617 3432 
Q 1894 3584 2278 3584 
Q 2916 3584 3314 3078 
Q 3713 2572 3713 1747 
Q 3713 922 3314 415 
Q 2916 -91 2278 -91 
Q 1894 -91 1617 61 
Q 1341 213 1159 525 
z
M 3116 1747 
Q 3116 2381 2855 2742 
Q 2594 3103 2138 3103 
Q 1681 3103 1420 2742 
Q 1159 2381 1159 1747 
Q 1159 1113 1420 752 
Q 1681 391 2138 391 
Q 2594 391 2855 752 
Q 3116 1113 3116 1747 
z
" transform="scale(0.015625)"/>
     <path id="DejaVuSans-69" d="M 603 3500 
L 1178 3500 
L 1178 0 
L 603 0 
L 603 3500 
z
M 603 4863 
L 1178 4863 
L 1178 4134 
L 603 4134 
L 603 4863 
z
" transform="scale(0.015625)"/>
     <path id="DejaVuSans-67" d="M 2906 1791 
Q 2906 2416 2648 2759 
Q 2391 3103 1925 3103 
Q 1463 3103 1205 2759 
Q 947 2416 947 1791 
Q 947 1169 1205 825 
Q 1463 481 1925 481 
Q 2391 481 2648 825 
Q 2906 1169 2906 1791 
z
M 3481 434 
Q 3481 -459 3084 -895 
Q 2688 -1331 1869 -1331 
Q 1566 -1331 1297 -1286 
Q 1028 -1241 775 -1147 
L 775 -588 
Q 1028 -725 1275 -790 
Q 1522 -856 1778 -856 
Q 2344 -856 2625 -561 
Q 2906 -266 2906 331 
L 2906 616 
Q 2728 306 2450 153 
Q 2172 0 1784 0 
Q 1141 0 747 490 
Q 353 981 353 1791 
Q 353 2603 747 3093 
Q 1141 3584 1784 3584 
Q 2172 3584 2450 3431 
Q 2728 3278 2906 2969 
L 2906 3500 
L 3481 3500 
L 3481 434 
z
" transform="scale(0.015625)"/>
    </defs>
    <use xlink:href="#DejaVuSans-63"/>
    <use xlink:href="#DejaVuSans-6c" x="54.980469"/>
    <use xlink:href="#DejaVuSans-65" x="82.763672"/>
    <use xlink:href="#DejaVuSans-61" x="144.287109"/>
    <use xlink:href="#DejaVuSans-6e" x="205.566406"/>
    <use xlink:href="#DejaVuSans-65" x="268.945312"/>
    <use xlink:href="#DejaVuSans-64" x="330.46875"/>
    <use xlink:href="#DejaVuSans-5f" x="393.945312"/>
    <use xlink:href="#DejaVuSans-77" x="443.945312"/>
    <use xlink:href="#DejaVuSans-65" x="525.732422"/>
    <use xlink:href="#DejaVuSans-61" x="587.255859"/>
    <use xlink:href="#DejaVuSans-74" x="648.535156"/>
    <use xlink:href="#DejaVuSans-68" x="687.744141"/>
    <use xlink:href="#DejaVuSans-65" x="751.123047"/>
    <use xlink:href="#DejaVuSans-72" x="812.646484"/>
    <use xlink:href="#DejaVuSans-5f" x="853.759766"/>
    <use xlink:href="#DejaVuSans-73" x="903.759766"/>
    <use xlink:href="#DejaVuSans-70" x="955.859375"/>
    <use xlink:href="#DejaVuSans-72" x="1019.335938"/>
    <use xlink:href="#DejaVuSans-69" x="1060.449219"/>
    <use xlink:href="#DejaVuSans-6e" x="1088.232422"/>
    <use xlink:href="#DejaVuSans-67" x="1151.611328"/>
   </g>
  </g>
 </g>
 <defs>
  <clipPath id="pb4a4fe81bb">
   <rect x="57.6" y="41.472" width="357.12" height="78.268235"/>
  </clipPath>
  <clipPath id="pbe3f14851e">
   <rect x="57.6" y="135.393882" width="357.12" height="78.268235"/>
  </clipPath>
  <clipPath id="p35a5406759">
   <rect x="57.6" y="229.315765" width="357.12" height="78.268235"/>
  </clipPath>
 </defs>
</svg>
