<?xml version="1.0" encoding="utf-8" standalone="no"?>
<!DOCTYPE svg PUBLIC "-//W3C//DTD SVG 1.1//EN"
  "http://www.w3.org/Graphics/SVG/1.1/DTD/svg11.dtd">
<svg xmlns:xlink="http://www.w3.org/1999/xlink" width="460.8pt" height="345.6pt" viewBox="0 0 460.8 345.6" xmlns="http://www.w3.org/2000/svg" version="1.1">
 <metadata>
  <rdf:RDF xmlns:dc="http://purl.org/dc/elements/1.1/" xmlns:cc="http://creativecommons.org/ns#" xmlns:rdf="http://www.w3.org/1999/02/22-rdf-syntax-ns#">
   <cc:Work>
    <dc:type rdf:resource="http://purl.org/dc/dcmitype/StillImage"/>
    <dc:date>2023-03-28T23:18:26.446839</dc:date>
    <dc:format>image/svg+xml</dc:format>
    <dc:creator>
     <cc:Agent>
      <dc:title>Matplotlib v3.7.1, https://matplotlib.org/</dc:title>
     </cc:Agent>
    </dc:creator>
   </cc:Work>
  </rdf:RDF>
 </metadata>
 <defs>
  <style type="text/css">*{stroke-linejoin: round; stroke-linecap: butt}</style>
 </defs>
 <g id="figure_1">
  <g id="patch_1">
   <path d="M 0 345.6 
L 460.8 345.6 
L 460.8 0 
L 0 0 
z
" style="fill: #ffffff"/>
  </g>
  <g id="axes_1">
   <g id="patch_2">
    <path d="M 57.6 119.740235 
L 414.72 119.740235 
L 414.72 41.472 
L 57.6 41.472 
z
" style="fill: #ffffff"/>
   </g>
   <g id="matplotlib.axis_1">
    <g id="xtick_1">
     <g id="line2d_1">
      <defs>
       <path id="m406a6a8115" d="M 0 0 
L 0 3.5 
" style="stroke: #000000; stroke-width: 0.8"/>
      </defs>
      <g>
       <use xlink:href="#m406a6a8115" x="73.832727" y="119.740235" style="stroke: #000000; stroke-width: 0.8"/>
      </g>
     </g>
     <g id="text_1">
      <!-- 0 -->
      <g transform="translate(70.651477 134.338673) scale(0.1 -0.1)">
       <defs>
        <path id="DejaVuSans-30" d="M 2034 4250 
Q 1547 4250 1301 3770 
Q 1056 3291 1056 2328 
Q 1056 1369 1301 889 
Q 1547 409 2034 409 
Q 2525 409 2770 889 
Q 3016 1369 3016 2328 
Q 3016 3291 2770 3770 
Q 2525 4250 2034 4250 
z
M 2034 4750 
Q 2819 4750 3233 4129 
Q 3647 3509 3647 2328 
Q 3647 1150 3233 529 
Q 2819 -91 2034 -91 
Q 1250 -91 836 529 
Q 422 1150 422 2328 
Q 422 3509 836 4129 
Q 1250 4750 2034 4750 
z
" transform="scale(0.015625)"/>
       </defs>
       <use xlink:href="#DejaVuSans-30"/>
      </g>
     </g>
    </g>
    <g id="xtick_2">
     <g id="line2d_2">
      <g>
       <use xlink:href="#m406a6a8115" x="128.017074" y="119.740235" style="stroke: #000000; stroke-width: 0.8"/>
      </g>
     </g>
     <g id="text_2">
      <!-- 5 -->
      <g transform="translate(124.835824 134.338673) scale(0.1 -0.1)">
       <defs>
        <path id="DejaVuSans-35" d="M 691 4666 
L 3169 4666 
L 3169 4134 
L 1269 4134 
L 1269 2991 
Q 1406 3038 1543 3061 
Q 1681 3084 1819 3084 
Q 2600 3084 3056 2656 
Q 3513 2228 3513 1497 
Q 3513 744 3044 326 
Q 2575 -91 1722 -91 
Q 1428 -91 1123 -41 
Q 819 9 494 109 
L 494 744 
Q 775 591 1075 516 
Q 1375 441 1709 441 
Q 2250 441 2565 725 
Q 2881 1009 2881 1497 
Q 2881 1984 2565 2268 
Q 2250 2553 1709 2553 
Q 1456 2553 1204 2497 
Q 953 2441 691 2322 
L 691 4666 
z
" transform="scale(0.015625)"/>
       </defs>
       <use xlink:href="#DejaVuSans-35"/>
      </g>
     </g>
    </g>
    <g id="xtick_3">
     <g id="line2d_3">
      <g>
       <use xlink:href="#m406a6a8115" x="182.201421" y="119.740235" style="stroke: #000000; stroke-width: 0.8"/>
      </g>
     </g>
     <g id="text_3">
      <!-- 10 -->
      <g transform="translate(175.838921 134.338673) scale(0.1 -0.1)">
       <defs>
        <path id="DejaVuSans-31" d="M 794 531 
L 1825 531 
L 1825 4091 
L 703 3866 
L 703 4441 
L 1819 4666 
L 2450 4666 
L 2450 531 
L 3481 531 
L 3481 0 
L 794 0 
L 794 531 
z
" transform="scale(0.015625)"/>
       </defs>
       <use xlink:href="#DejaVuSans-31"/>
       <use xlink:href="#DejaVuSans-30" x="63.623047"/>
      </g>
     </g>
    </g>
    <g id="xtick_4">
     <g id="line2d_4">
      <g>
       <use xlink:href="#m406a6a8115" x="236.385768" y="119.740235" style="stroke: #000000; stroke-width: 0.8"/>
      </g>
     </g>
     <g id="text_4">
      <!-- 15 -->
      <g transform="translate(230.023268 134.338673) scale(0.1 -0.1)">
       <use xlink:href="#DejaVuSans-31"/>
       <use xlink:href="#DejaVuSans-35" x="63.623047"/>
      </g>
     </g>
    </g>
    <g id="xtick_5">
     <g id="line2d_5">
      <g>
       <use xlink:href="#m406a6a8115" x="290.570115" y="119.740235" style="stroke: #000000; stroke-width: 0.8"/>
      </g>
     </g>
     <g id="text_5">
      <!-- 20 -->
      <g transform="translate(284.207615 134.338673) scale(0.1 -0.1)">
       <defs>
        <path id="DejaVuSans-32" d="M 1228 531 
L 3431 531 
L 3431 0 
L 469 0 
L 469 531 
Q 828 903 1448 1529 
Q 2069 2156 2228 2338 
Q 2531 2678 2651 2914 
Q 2772 3150 2772 3378 
Q 2772 3750 2511 3984 
Q 2250 4219 1831 4219 
Q 1534 4219 1204 4116 
Q 875 4013 500 3803 
L 500 4441 
Q 881 4594 1212 4672 
Q 1544 4750 1819 4750 
Q 2544 4750 2975 4387 
Q 3406 4025 3406 3419 
Q 3406 3131 3298 2873 
Q 3191 2616 2906 2266 
Q 2828 2175 2409 1742 
Q 1991 1309 1228 531 
z
" transform="scale(0.015625)"/>
       </defs>
       <use xlink:href="#DejaVuSans-32"/>
       <use xlink:href="#DejaVuSans-30" x="63.623047"/>
      </g>
     </g>
    </g>
    <g id="xtick_6">
     <g id="line2d_6">
      <g>
       <use xlink:href="#m406a6a8115" x="344.754462" y="119.740235" style="stroke: #000000; stroke-width: 0.8"/>
      </g>
     </g>
     <g id="text_6">
      <!-- 25 -->
      <g transform="translate(338.391962 134.338673) scale(0.1 -0.1)">
       <use xlink:href="#DejaVuSans-32"/>
       <use xlink:href="#DejaVuSans-35" x="63.623047"/>
      </g>
     </g>
    </g>
    <g id="xtick_7">
     <g id="line2d_7">
      <g>
       <use xlink:href="#m406a6a8115" x="398.938809" y="119.740235" style="stroke: #000000; stroke-width: 0.8"/>
      </g>
     </g>
     <g id="text_7">
      <!-- 30 -->
      <g transform="translate(392.576309 134.338673) scale(0.1 -0.1)">
       <defs>
        <path id="DejaVuSans-33" d="M 2597 2516 
Q 3050 2419 3304 2112 
Q 3559 1806 3559 1356 
Q 3559 666 3084 287 
Q 2609 -91 1734 -91 
Q 1441 -91 1130 -33 
Q 819 25 488 141 
L 488 750 
Q 750 597 1062 519 
Q 1375 441 1716 441 
Q 2309 441 2620 675 
Q 2931 909 2931 1356 
Q 2931 1769 2642 2001 
Q 2353 2234 1838 2234 
L 1294 2234 
L 1294 2753 
L 1863 2753 
Q 2328 2753 2575 2939 
Q 2822 3125 2822 3475 
Q 2822 3834 2567 4026 
Q 2313 4219 1838 4219 
Q 1578 4219 1281 4162 
Q 984 4106 628 3988 
L 628 4550 
Q 988 4650 1302 4700 
Q 1616 4750 1894 4750 
Q 2613 4750 3031 4423 
Q 3450 4097 3450 3541 
Q 3450 3153 3228 2886 
Q 3006 2619 2597 2516 
z
" transform="scale(0.015625)"/>
       </defs>
       <use xlink:href="#DejaVuSans-33"/>
       <use xlink:href="#DejaVuSans-30" x="63.623047"/>
      </g>
     </g>
    </g>
   </g>
   <g id="matplotlib.axis_2">
    <g id="ytick_1">
     <g id="line2d_8">
      <defs>
       <path id="m1d32bb9fd0" d="M 0 0 
L -3.5 0 
" style="stroke: #000000; stroke-width: 0.8"/>
      </defs>
      <g>
       <use xlink:href="#m1d32bb9fd0" x="57.6" y="116.182588" style="stroke: #000000; stroke-width: 0.8"/>
      </g>
     </g>
     <g id="text_8">
      <!-- 0 -->
      <g transform="translate(44.2375 119.981807) scale(0.1 -0.1)">
       <use xlink:href="#DejaVuSans-30"/>
      </g>
     </g>
    </g>
    <g id="ytick_2">
     <g id="line2d_9">
      <g>
       <use xlink:href="#m1d32bb9fd0" x="57.6" y="71.712" style="stroke: #000000; stroke-width: 0.8"/>
      </g>
     </g>
     <g id="text_9">
      <!-- 20 -->
      <g transform="translate(37.875 75.511219) scale(0.1 -0.1)">
       <use xlink:href="#DejaVuSans-32"/>
       <use xlink:href="#DejaVuSans-30" x="63.623047"/>
      </g>
     </g>
    </g>
   </g>
   <g id="line2d_10">
    <path d="M 73.832727 91.723765 
L 74.7358 91.723765 
L 75.187336 93.947294 
L 75.638872 98.394353 
L 77.445017 98.394353 
L 77.896553 96.170824 
L 78.34809 96.170824 
L 78.799626 91.723765 
L 79.702698 87.276706 
L 80.154234 82.829647 
L 80.605771 87.276706 
L 81.057307 89.500235 
L 81.960379 102.841412 
L 82.411916 102.841412 
L 83.314988 107.288471 
L 83.766524 107.288471 
L 84.21806 109.512 
L 84.669597 109.512 
L 85.121133 111.735529 
L 85.572669 109.512 
L 86.475742 109.512 
L 86.927278 111.735529 
L 87.378814 109.512 
L 87.83035 111.735529 
L 88.281886 111.735529 
L 89.636495 105.064941 
L 90.088031 100.617882 
L 90.991104 82.829647 
L 91.44264 78.382588 
L 91.894176 78.382588 
L 92.345712 76.159059 
L 92.797249 80.606118 
L 93.248785 80.606118 
L 93.700321 78.382588 
L 94.151857 78.382588 
L 94.603394 76.159059 
L 95.05493 80.606118 
L 96.409539 87.276706 
L 96.861075 91.723765 
L 99.118756 91.723765 
L 99.570292 93.947294 
L 100.021828 98.394353 
L 100.473365 98.394353 
L 100.924901 100.617882 
L 101.376437 98.394353 
L 101.827973 98.394353 
L 102.279509 93.947294 
L 103.182582 93.947294 
L 103.634118 91.723765 
L 104.085654 91.723765 
L 105.440263 85.053176 
L 105.891799 85.053176 
L 106.343335 80.606118 
L 106.794872 82.829647 
L 108.14948 96.170824 
L 111.76177 96.170824 
L 112.213306 98.394353 
L 112.664843 98.394353 
L 113.116379 89.500235 
L 114.019451 80.606118 
L 114.470987 78.382588 
L 114.922524 78.382588 
L 115.37406 80.606118 
L 116.277132 80.606118 
L 116.728669 85.053176 
L 117.180205 93.947294 
L 118.083277 98.394353 
L 118.534814 98.394353 
L 118.98635 93.947294 
L 119.889422 98.394353 
L 120.792495 98.394353 
L 121.244031 89.500235 
L 121.695567 87.276706 
L 122.59864 78.382588 
L 123.050176 76.159059 
L 123.501712 71.712 
L 123.953248 71.712 
L 126.662466 58.370824 
L 127.114002 58.370824 
L 127.565538 60.594353 
L 128.017074 65.041412 
L 129.371683 85.053176 
L 130.274755 93.947294 
L 131.177828 98.394353 
L 132.0809 98.394353 
L 132.532436 93.947294 
L 132.983973 93.947294 
L 133.435509 91.723765 
L 133.887045 87.276706 
L 134.790118 82.829647 
L 135.241654 89.500235 
L 136.144726 89.500235 
L 136.596262 91.723765 
L 137.047799 98.394353 
L 137.499335 96.170824 
L 137.950871 102.841412 
L 138.402407 102.841412 
L 139.30548 98.394353 
L 141.111625 98.394353 
L 142.014697 93.947294 
L 142.466233 87.276706 
L 142.91777 69.488471 
L 143.369306 69.488471 
L 143.820842 51.700235 
L 144.272378 53.923765 
L 144.723915 51.700235 
L 145.175451 51.700235 
L 145.626987 49.476706 
L 146.530059 49.476706 
L 146.981596 47.253176 
L 147.884668 51.700235 
L 148.336204 51.700235 
L 148.787741 53.923765 
L 149.239277 60.594353 
L 149.690813 65.041412 
L 150.142349 65.041412 
L 151.045422 69.488471 
L 151.496958 69.488471 
L 151.948494 51.700235 
L 152.40003 51.700235 
L 152.851567 53.923765 
L 153.303103 51.700235 
L 153.754639 51.700235 
L 154.206175 53.923765 
L 154.657711 53.923765 
L 155.109248 51.700235 
L 155.560784 51.700235 
L 156.463856 56.147294 
L 156.915393 67.264941 
L 157.366929 65.041412 
L 157.818465 67.264941 
L 158.270001 65.041412 
L 160.076146 65.041412 
L 160.527682 60.594353 
L 160.979219 60.594353 
L 161.430755 58.370824 
L 162.333827 62.817882 
L 163.2369 80.606118 
L 163.688436 87.276706 
L 164.139972 87.276706 
L 164.591508 91.723765 
L 165.043045 93.947294 
L 165.494581 98.394353 
L 165.946117 100.617882 
L 166.397653 98.394353 
L 167.300726 78.382588 
L 167.752262 76.159059 
L 168.655334 80.606118 
L 169.106871 76.159059 
L 169.558407 78.382588 
L 170.009943 73.935529 
L 170.461479 71.712 
L 172.267624 71.712 
L 173.170697 76.159059 
L 174.073769 89.500235 
L 174.976842 89.500235 
L 175.428378 91.723765 
L 175.879914 98.394353 
L 176.33145 96.170824 
L 176.782986 102.841412 
L 177.234523 102.841412 
L 178.137595 98.394353 
L 180.395276 98.394353 
L 180.846812 100.617882 
L 181.298349 98.394353 
L 181.749885 98.394353 
L 182.201421 93.947294 
L 182.652957 82.829647 
L 183.104494 82.829647 
L 184.007566 91.723765 
L 184.910639 91.723765 
L 185.813711 73.935529 
L 186.265247 69.488471 
L 188.522928 58.370824 
L 189.426001 58.370824 
L 190.329073 53.923765 
L 190.780609 49.476706 
L 191.683682 49.476706 
L 192.135218 51.700235 
L 194.844435 51.700235 
L 195.295972 58.370824 
L 195.747508 53.923765 
L 196.65058 58.370824 
L 197.102117 67.264941 
L 197.553653 73.935529 
L 198.005189 76.159059 
L 198.456725 80.606118 
L 198.908261 82.829647 
L 199.359798 82.829647 
L 199.811334 85.053176 
L 200.26287 85.053176 
L 200.714406 87.276706 
L 201.165943 87.276706 
L 201.617479 85.053176 
L 202.069015 85.053176 
L 202.520551 87.276706 
L 206.132841 87.276706 
L 206.584377 89.500235 
L 207.035914 89.500235 
L 207.48745 80.606118 
L 208.390522 76.159059 
L 208.842058 71.712 
L 209.293595 69.488471 
L 210.648203 69.488471 
L 211.09974 73.935529 
L 211.551276 76.159059 
L 212.002812 71.712 
L 212.454348 73.935529 
L 212.905884 78.382588 
L 213.357421 71.712 
L 213.808957 67.264941 
L 214.260493 69.488471 
L 214.712029 65.041412 
L 215.615102 60.594353 
L 216.518174 73.935529 
L 216.96971 76.159059 
L 217.421247 76.159059 
L 217.872783 78.382588 
L 219.227392 78.382588 
L 219.678928 76.159059 
L 220.130464 76.159059 
L 221.485073 82.829647 
L 222.388145 82.829647 
L 222.839681 85.053176 
L 223.291218 85.053176 
L 223.742754 82.829647 
L 224.19429 82.829647 
L 224.645826 85.053176 
L 225.548899 85.053176 
L 226.451971 71.712 
L 226.903507 67.264941 
L 227.355044 69.488471 
L 227.80658 65.041412 
L 228.258116 62.817882 
L 229.161189 71.712 
L 229.612725 78.382588 
L 230.064261 82.829647 
L 232.321942 93.947294 
L 232.773478 87.276706 
L 233.225015 76.159059 
L 233.676551 78.382588 
L 234.128087 73.935529 
L 235.031159 60.594353 
L 235.482696 62.817882 
L 235.934232 69.488471 
L 236.385768 67.264941 
L 236.837304 67.264941 
L 237.288841 65.041412 
L 238.191913 69.488471 
L 239.546522 82.829647 
L 241.352667 82.829647 
L 242.255739 91.723765 
L 242.707275 85.053176 
L 243.158811 87.276706 
L 243.610348 87.276706 
L 244.061884 89.500235 
L 244.51342 89.500235 
L 244.964956 82.829647 
L 245.416493 73.935529 
L 245.868029 67.264941 
L 246.319565 62.817882 
L 247.222638 71.712 
L 248.12571 76.159059 
L 249.028782 76.159059 
L 249.931855 80.606118 
L 250.383391 78.382588 
L 251.738 65.041412 
L 252.189536 67.264941 
L 252.641072 65.041412 
L 254.447217 65.041412 
L 254.898753 67.264941 
L 255.35029 67.264941 
L 255.801826 69.488471 
L 256.704898 65.041412 
L 257.607971 56.147294 
L 258.059507 56.147294 
L 258.511043 53.923765 
L 258.962579 67.264941 
L 259.414116 53.923765 
L 259.865652 51.700235 
L 260.317188 56.147294 
L 260.768724 56.147294 
L 261.22026 65.041412 
L 261.671797 71.712 
L 262.123333 62.817882 
L 263.026405 67.264941 
L 263.477942 71.712 
L 264.83255 65.041412 
L 265.284086 58.370824 
L 265.735623 53.923765 
L 266.187159 51.700235 
L 267.090231 60.594353 
L 267.541768 56.147294 
L 267.993304 58.370824 
L 268.44484 67.264941 
L 268.896376 78.382588 
L 269.347913 78.382588 
L 269.799449 80.606118 
L 270.250985 80.606118 
L 271.154057 85.053176 
L 271.605594 85.053176 
L 272.508666 80.606118 
L 272.960202 73.935529 
L 274.314811 67.264941 
L 274.766347 67.264941 
L 275.217883 71.712 
L 275.66942 69.488471 
L 276.120956 65.041412 
L 276.572492 65.041412 
L 277.024028 73.935529 
L 277.475565 69.488471 
L 277.927101 71.712 
L 278.378637 76.159059 
L 278.830173 78.382588 
L 279.733246 87.276706 
L 280.184782 87.276706 
L 280.636318 89.500235 
L 281.087854 87.276706 
L 281.990927 78.382588 
L 282.442463 78.382588 
L 283.345535 73.935529 
L 283.797072 73.935529 
L 284.248608 71.712 
L 285.15168 71.712 
L 285.603217 76.159059 
L 286.957825 82.829647 
L 287.409361 87.276706 
L 287.860898 87.276706 
L 288.312434 89.500235 
L 288.76397 89.500235 
L 289.215506 87.276706 
L 289.667043 87.276706 
L 290.118579 89.500235 
L 291.021651 89.500235 
L 291.473188 80.606118 
L 292.37626 76.159059 
L 292.827796 71.712 
L 293.279332 69.488471 
L 294.633941 69.488471 
L 295.085477 71.712 
L 295.537014 76.159059 
L 295.98855 73.935529 
L 296.440086 73.935529 
L 296.891622 116.182588 
L 297.343158 49.476706 
L 298.697767 49.476706 
L 299.149303 51.700235 
L 300.052376 51.700235 
L 300.955448 56.147294 
L 301.406984 53.923765 
L 303.213129 53.923765 
L 303.664666 56.147294 
L 304.116202 51.700235 
L 304.567738 49.476706 
L 305.019274 51.700235 
L 305.47081 51.700235 
L 306.825419 45.029647 
L 307.276955 45.029647 
L 307.728492 47.253176 
L 308.180028 51.700235 
L 308.631564 60.594353 
L 309.0831 71.712 
L 309.534636 78.382588 
L 309.986173 82.829647 
L 312.243854 93.947294 
L 312.69539 87.276706 
L 313.146926 69.488471 
L 313.598463 71.712 
L 314.049999 76.159059 
L 314.501535 82.829647 
L 316.30768 82.829647 
L 317.210752 78.382588 
L 317.662289 80.606118 
L 319.016897 80.606118 
L 319.468433 85.053176 
L 319.91997 85.053176 
L 320.371506 82.829647 
L 321.274578 87.276706 
L 323.080723 78.382588 
L 325.338404 78.382588 
L 325.789941 76.159059 
L 326.241477 76.159059 
L 326.693013 71.712 
L 328.047622 65.041412 
L 328.499158 58.370824 
L 328.950694 53.923765 
L 329.40223 51.700235 
L 330.305303 60.594353 
L 331.208375 51.700235 
L 332.111448 47.253176 
L 333.01452 47.253176 
L 333.466056 49.476706 
L 333.917593 49.476706 
L 334.369129 53.923765 
L 334.820665 60.594353 
L 335.272201 65.041412 
L 335.723738 67.264941 
L 336.175274 71.712 
L 337.529882 78.382588 
L 337.981419 78.382588 
L 338.432955 76.159059 
L 339.787564 76.159059 
L 340.2391 71.712 
L 340.690636 71.712 
L 341.593708 67.264941 
L 342.045245 71.712 
L 342.496781 65.041412 
L 342.948317 62.817882 
L 343.399853 62.817882 
L 343.85139 65.041412 
L 344.302926 60.594353 
L 344.754462 58.370824 
L 345.205998 58.370824 
L 345.657534 60.594353 
L 346.109071 51.700235 
L 346.560607 51.700235 
L 347.012143 53.923765 
L 347.463679 60.594353 
L 347.915216 51.700235 
L 348.366752 51.700235 
L 348.818288 53.923765 
L 349.269824 60.594353 
L 349.72136 51.700235 
L 350.172897 51.700235 
L 350.624433 53.923765 
L 351.979042 73.935529 
L 352.430578 78.382588 
L 352.882114 80.606118 
L 353.785186 80.606118 
L 354.236723 78.382588 
L 354.688259 73.935529 
L 355.139795 76.159059 
L 355.591331 80.606118 
L 356.042868 82.829647 
L 356.94594 82.829647 
L 357.397476 85.053176 
L 357.849013 85.053176 
L 358.300549 82.829647 
L 358.752085 82.829647 
L 359.203621 85.053176 
L 359.655157 85.053176 
L 362.364375 98.394353 
L 362.815911 96.170824 
L 363.718983 76.159059 
L 364.17052 67.264941 
L 365.073592 58.370824 
L 365.525128 58.370824 
L 366.428201 53.923765 
L 366.879737 116.182588 
L 367.782809 116.182588 
L 368.234346 91.723765 
L 368.685882 91.723765 
L 369.137418 93.947294 
L 370.040491 80.606118 
L 370.492027 76.159059 
L 370.943563 76.159059 
L 371.395099 71.712 
L 372.749708 65.041412 
L 373.201244 67.264941 
L 373.65278 65.041412 
L 374.104317 65.041412 
L 374.555853 73.935529 
L 375.007389 76.159059 
L 375.458925 73.935529 
L 375.910461 69.488471 
L 376.361998 67.264941 
L 376.813534 67.264941 
L 377.26507 65.041412 
L 378.619679 65.041412 
L 379.071215 69.488471 
L 379.522751 71.712 
L 380.425824 71.712 
L 380.87736 76.159059 
L 382.231969 82.829647 
L 382.683505 87.276706 
L 383.135041 87.276706 
L 383.586577 89.500235 
L 384.038114 89.500235 
L 384.48965 87.276706 
L 384.941186 87.276706 
L 385.392722 89.500235 
L 387.198867 89.500235 
L 387.650403 87.276706 
L 388.553476 87.276706 
L 389.005012 85.053176 
L 389.908084 76.159059 
L 390.359621 73.935529 
L 390.811157 76.159059 
L 391.262693 80.606118 
L 392.165766 76.159059 
L 392.617302 80.606118 
L 393.068838 82.829647 
L 393.520374 82.829647 
L 394.874983 89.500235 
L 395.326519 82.829647 
L 395.778055 80.606118 
L 396.681128 67.264941 
L 397.132664 67.264941 
L 397.5842 73.935529 
L 398.487273 82.829647 
L 398.487273 82.829647 
" clip-path="url(#p808a9430bb)" style="fill: none; stroke: #1f77b4; stroke-width: 1.5; stroke-linecap: square"/>
   </g>
   <g id="patch_3">
    <path d="M 57.6 119.740235 
L 57.6 41.472 
" style="fill: none; stroke: #000000; stroke-width: 0.8; stroke-linejoin: miter; stroke-linecap: square"/>
   </g>
   <g id="patch_4">
    <path d="M 414.72 119.740235 
L 414.72 41.472 
" style="fill: none; stroke: #000000; stroke-width: 0.8; stroke-linejoin: miter; stroke-linecap: square"/>
   </g>
   <g id="patch_5">
    <path d="M 57.6 119.740235 
L 414.72 119.740235 
" style="fill: none; stroke: #000000; stroke-width: 0.8; stroke-linejoin: miter; stroke-linecap: square"/>
   </g>
   <g id="patch_6">
    <path d="M 57.6 41.472 
L 414.72 41.472 
" style="fill: none; stroke: #000000; stroke-width: 0.8; stroke-linejoin: miter; stroke-linecap: square"/>
   </g>
  </g>
  <g id="axes_2">
   <g id="patch_7">
    <path d="M 57.6 213.662118 
L 414.72 213.662118 
L 414.72 135.393882 
L 57.6 135.393882 
z
" style="fill: #ffffff"/>
   </g>
   <g id="matplotlib.axis_3">
    <g id="xtick_8">
     <g id="line2d_11">
      <g>
       <use xlink:href="#m406a6a8115" x="73.832727" y="213.662118" style="stroke: #000000; stroke-width: 0.8"/>
      </g>
     </g>
     <g id="text_10">
      <!-- 0 -->
      <g transform="translate(70.651477 228.260555) scale(0.1 -0.1)">
       <use xlink:href="#DejaVuSans-30"/>
      </g>
     </g>
    </g>
    <g id="xtick_9">
     <g id="line2d_12">
      <g>
       <use xlink:href="#m406a6a8115" x="128.017074" y="213.662118" style="stroke: #000000; stroke-width: 0.8"/>
      </g>
     </g>
     <g id="text_11">
      <!-- 5 -->
      <g transform="translate(124.835824 228.260555) scale(0.1 -0.1)">
       <use xlink:href="#DejaVuSans-35"/>
      </g>
     </g>
    </g>
    <g id="xtick_10">
     <g id="line2d_13">
      <g>
       <use xlink:href="#m406a6a8115" x="182.201421" y="213.662118" style="stroke: #000000; stroke-width: 0.8"/>
      </g>
     </g>
     <g id="text_12">
      <!-- 10 -->
      <g transform="translate(175.838921 228.260555) scale(0.1 -0.1)">
       <use xlink:href="#DejaVuSans-31"/>
       <use xlink:href="#DejaVuSans-30" x="63.623047"/>
      </g>
     </g>
    </g>
    <g id="xtick_11">
     <g id="line2d_14">
      <g>
       <use xlink:href="#m406a6a8115" x="236.385768" y="213.662118" style="stroke: #000000; stroke-width: 0.8"/>
      </g>
     </g>
     <g id="text_13">
      <!-- 15 -->
      <g transform="translate(230.023268 228.260555) scale(0.1 -0.1)">
       <use xlink:href="#DejaVuSans-31"/>
       <use xlink:href="#DejaVuSans-35" x="63.623047"/>
      </g>
     </g>
    </g>
    <g id="xtick_12">
     <g id="line2d_15">
      <g>
       <use xlink:href="#m406a6a8115" x="290.570115" y="213.662118" style="stroke: #000000; stroke-width: 0.8"/>
      </g>
     </g>
     <g id="text_14">
      <!-- 20 -->
      <g transform="translate(284.207615 228.260555) scale(0.1 -0.1)">
       <use xlink:href="#DejaVuSans-32"/>
       <use xlink:href="#DejaVuSans-30" x="63.623047"/>
      </g>
     </g>
    </g>
    <g id="xtick_13">
     <g id="line2d_16">
      <g>
       <use xlink:href="#m406a6a8115" x="344.754462" y="213.662118" style="stroke: #000000; stroke-width: 0.8"/>
      </g>
     </g>
     <g id="text_15">
      <!-- 25 -->
      <g transform="translate(338.391962 228.260555) scale(0.1 -0.1)">
       <use xlink:href="#DejaVuSans-32"/>
       <use xlink:href="#DejaVuSans-35" x="63.623047"/>
      </g>
     </g>
    </g>
    <g id="xtick_14">
     <g id="line2d_17">
      <g>
       <use xlink:href="#m406a6a8115" x="398.938809" y="213.662118" style="stroke: #000000; stroke-width: 0.8"/>
      </g>
     </g>
     <g id="text_16">
      <!-- 30 -->
      <g transform="translate(392.576309 228.260555) scale(0.1 -0.1)">
       <use xlink:href="#DejaVuSans-33"/>
       <use xlink:href="#DejaVuSans-30" x="63.623047"/>
      </g>
     </g>
    </g>
   </g>
   <g id="matplotlib.axis_4">
    <g id="ytick_3">
     <g id="line2d_18">
      <g>
       <use xlink:href="#m1d32bb9fd0" x="57.6" y="210.104471" style="stroke: #000000; stroke-width: 0.8"/>
      </g>
     </g>
     <g id="text_17">
      <!-- 0 -->
      <g transform="translate(44.2375 213.903689) scale(0.1 -0.1)">
       <use xlink:href="#DejaVuSans-30"/>
      </g>
     </g>
    </g>
    <g id="ytick_4">
     <g id="line2d_19">
      <g>
       <use xlink:href="#m1d32bb9fd0" x="57.6" y="174.528" style="stroke: #000000; stroke-width: 0.8"/>
      </g>
     </g>
     <g id="text_18">
      <!-- 50 -->
      <g transform="translate(37.875 178.327219) scale(0.1 -0.1)">
       <use xlink:href="#DejaVuSans-35"/>
       <use xlink:href="#DejaVuSans-30" x="63.623047"/>
      </g>
     </g>
    </g>
    <g id="ytick_5">
     <g id="line2d_20">
      <g>
       <use xlink:href="#m1d32bb9fd0" x="57.6" y="138.951529" style="stroke: #000000; stroke-width: 0.8"/>
      </g>
     </g>
     <g id="text_19">
      <!-- 100 -->
      <g transform="translate(31.5125 142.750748) scale(0.1 -0.1)">
       <use xlink:href="#DejaVuSans-31"/>
       <use xlink:href="#DejaVuSans-30" x="63.623047"/>
       <use xlink:href="#DejaVuSans-30" x="127.246094"/>
      </g>
     </g>
    </g>
   </g>
   <g id="line2d_21">
    <path d="M 73.832727 151.047529 
L 74.7358 148.201412 
L 75.187336 141.086118 
L 75.638872 138.951529 
L 77.896553 138.951529 
L 78.34809 139.663059 
L 78.799626 142.509176 
L 79.702698 153.182118 
L 80.154234 159.585882 
L 80.605771 159.585882 
L 81.508843 146.778353 
L 81.960379 141.797647 
L 82.411916 139.663059 
L 82.863452 138.951529 
L 89.636495 138.951529 
L 90.088031 141.797647 
L 90.539568 154.605176 
L 91.44264 173.104941 
L 92.345712 175.951059 
L 92.797249 173.816471 
L 93.248785 173.104941 
L 93.700321 176.662588 
L 94.603394 180.931765 
L 95.506466 170.258824 
L 95.958002 171.681882 
L 96.409539 165.989647 
L 96.861075 156.028235 
L 97.312611 156.739765 
L 97.764147 156.739765 
L 98.215683 153.893647 
L 99.118756 151.047529 
L 99.570292 145.355294 
L 100.021828 141.797647 
L 100.473365 139.663059 
L 100.924901 138.951529 
L 102.279509 138.951529 
L 103.182582 143.220706 
L 103.634118 148.912941 
L 104.085654 151.047529 
L 104.988727 165.278118 
L 105.440263 172.393412 
L 105.891799 169.547294 
L 106.343335 179.508706 
L 106.794872 179.508706 
L 107.697944 156.028235 
L 108.14948 139.663059 
L 109.052553 139.663059 
L 109.504089 138.951529 
L 109.955625 138.951529 
L 110.407161 140.374588 
L 110.858698 145.355294 
L 111.310234 143.932235 
L 111.76177 146.066824 
L 112.213306 145.355294 
L 112.664843 146.066824 
L 113.116379 158.162824 
L 113.567915 163.143529 
L 114.019451 171.681882 
L 114.470987 176.662588 
L 114.922524 179.508706 
L 115.37406 176.662588 
L 115.825596 178.085647 
L 116.277132 178.797176 
L 116.728669 168.835765 
L 117.180205 148.201412 
L 117.631741 142.509176 
L 118.083277 141.086118 
L 118.534814 138.951529 
L 120.792495 138.951529 
L 121.244031 143.932235 
L 121.695567 146.778353 
L 122.59864 163.855059 
L 123.050176 168.124235 
L 123.501712 175.951059 
L 123.953248 176.662588 
L 124.404784 180.931765 
L 124.856321 183.066353 
L 125.307857 185.912471 
L 125.759393 188.047059 
L 126.210929 188.758588 
L 126.662466 190.181647 
L 127.114002 190.181647 
L 127.565538 189.470118 
L 128.017074 187.335529 
L 128.46861 183.066353 
L 130.274755 148.201412 
L 130.726292 142.509176 
L 131.629364 139.663059 
L 132.0809 140.374588 
L 132.532436 144.643765 
L 132.983973 144.643765 
L 134.338581 160.297412 
L 134.790118 168.835765 
L 135.241654 158.162824 
L 135.69319 161.720471 
L 136.144726 162.432 
L 136.596262 161.008941 
L 137.047799 144.643765 
L 137.499335 146.066824 
L 137.950871 138.951529 
L 138.402407 141.086118 
L 138.853944 142.509176 
L 139.30548 142.509176 
L 139.757016 140.374588 
L 140.208552 138.951529 
L 141.563161 138.951529 
L 142.014697 139.663059 
L 142.466233 148.912941 
L 142.91777 170.970353 
L 143.369306 185.200941 
L 143.820842 186.624 
L 144.272378 183.066353 
L 144.723915 186.624 
L 145.626987 189.470118 
L 146.530059 190.893176 
L 147.884668 188.758588 
L 148.787741 188.758588 
L 149.239277 185.912471 
L 149.690813 180.931765 
L 151.045422 170.970353 
L 151.496958 185.200941 
L 151.948494 186.624 
L 152.40003 186.624 
L 152.851567 183.066353 
L 153.303103 186.624 
L 153.754639 188.047059 
L 154.206175 188.047059 
L 154.657711 188.758588 
L 155.109248 190.181647 
L 156.01232 190.181647 
L 156.463856 189.470118 
L 156.915393 183.777882 
L 157.366929 184.489412 
L 157.818465 183.777882 
L 159.173074 185.912471 
L 159.62461 187.335529 
L 160.527682 188.758588 
L 160.979219 188.758588 
L 161.882291 190.181647 
L 162.333827 189.470118 
L 162.785364 183.777882 
L 163.688436 163.855059 
L 164.139972 159.585882 
L 164.591508 151.047529 
L 165.494581 140.374588 
L 165.946117 138.951529 
L 166.397653 142.509176 
L 166.84919 158.162824 
L 167.300726 169.547294 
L 167.752262 172.393412 
L 168.203798 169.547294 
L 168.655334 165.278118 
L 169.106871 174.528 
L 169.558407 170.970353 
L 170.461479 180.220235 
L 170.913016 180.931765 
L 171.816088 179.508706 
L 172.267624 180.220235 
L 172.71916 178.085647 
L 173.170697 176.662588 
L 173.622233 168.835765 
L 174.073769 158.162824 
L 174.525305 161.720471 
L 174.976842 162.432 
L 175.428378 161.008941 
L 175.879914 144.643765 
L 176.33145 146.066824 
L 176.782986 138.951529 
L 177.234523 141.086118 
L 177.686059 142.509176 
L 178.137595 142.509176 
L 178.589131 140.374588 
L 179.040668 138.951529 
L 182.201421 138.951529 
L 182.652957 150.336 
L 183.55603 141.797647 
L 184.007566 138.951529 
L 184.910639 138.951529 
L 185.813711 161.720471 
L 186.265247 170.258824 
L 186.716783 175.951059 
L 187.16832 178.085647 
L 187.619856 178.797176 
L 188.071392 180.931765 
L 188.522928 181.643294 
L 188.974465 181.643294 
L 189.426001 182.354824 
L 190.329073 185.200941 
L 190.780609 188.047059 
L 191.232146 188.047059 
L 191.683682 188.758588 
L 192.586754 185.912471 
L 193.489827 184.489412 
L 194.392899 185.912471 
L 194.844435 184.489412 
L 195.295972 180.220235 
L 195.747508 183.066353 
L 196.65058 176.662588 
L 197.102117 155.316706 
L 197.553653 140.374588 
L 198.005189 138.951529 
L 200.26287 138.951529 
L 200.714406 139.663059 
L 201.165943 138.951529 
L 201.617479 141.086118 
L 202.520551 142.509176 
L 202.972087 143.932235 
L 203.423624 140.374588 
L 203.87516 143.932235 
L 204.326696 140.374588 
L 204.778232 143.932235 
L 205.229769 143.932235 
L 205.681305 141.797647 
L 206.132841 141.086118 
L 206.584377 139.663059 
L 207.035914 139.663059 
L 207.48745 151.759059 
L 207.938986 156.739765 
L 208.390522 158.874353 
L 209.293595 170.258824 
L 209.745131 170.970353 
L 210.196667 167.412706 
L 210.648203 166.701176 
L 211.09974 163.143529 
L 211.551276 158.162824 
L 212.002812 161.720471 
L 212.905884 147.489882 
L 213.357421 159.585882 
L 213.808957 166.701176 
L 214.260493 167.412706 
L 215.615102 179.508706 
L 216.518174 144.643765 
L 216.96971 142.509176 
L 217.421247 141.086118 
L 217.872783 140.374588 
L 218.324319 138.951529 
L 219.227392 143.220706 
L 219.678928 144.643765 
L 220.130464 146.778353 
L 220.582 142.509176 
L 221.033536 142.509176 
L 221.485073 141.797647 
L 221.936609 140.374588 
L 222.388145 140.374588 
L 222.839681 138.951529 
L 225.548899 138.951529 
L 226.000435 147.489882 
L 226.451971 159.585882 
L 226.903507 166.701176 
L 227.355044 167.412706 
L 228.258116 176.662588 
L 229.612725 147.489882 
L 230.064261 143.932235 
L 230.515797 143.220706 
L 230.967333 140.374588 
L 231.41887 138.951529 
L 232.321942 138.951529 
L 232.773478 143.932235 
L 233.225015 159.585882 
L 233.676551 158.874353 
L 235.031159 178.797176 
L 235.482696 178.085647 
L 235.934232 170.258824 
L 236.385768 175.951059 
L 236.837304 178.797176 
L 237.288841 180.220235 
L 237.740377 176.662588 
L 239.094985 147.489882 
L 239.546522 143.220706 
L 239.998058 141.086118 
L 240.449594 146.066824 
L 240.90113 146.778353 
L 241.804203 140.374588 
L 242.255739 138.951529 
L 242.707275 142.509176 
L 243.610348 141.086118 
L 244.061884 139.663059 
L 244.51342 139.663059 
L 244.964956 145.355294 
L 245.416493 153.893647 
L 245.868029 152.470588 
L 246.319565 158.874353 
L 246.771101 150.336 
L 247.222638 139.663059 
L 247.674174 138.951529 
L 248.12571 138.951529 
L 248.577246 139.663059 
L 249.028782 146.778353 
L 249.480319 142.509176 
L 249.931855 142.509176 
L 250.383391 146.778353 
L 250.834927 152.470588 
L 251.286464 159.585882 
L 251.738 168.835765 
L 252.189536 167.412706 
L 252.641072 168.835765 
L 253.092608 165.989647 
L 253.544145 168.124235 
L 253.995681 168.835765 
L 254.447217 165.989647 
L 254.898753 159.585882 
L 255.35029 156.739765 
L 255.801826 148.201412 
L 256.253362 149.624471 
L 256.704898 152.470588 
L 257.156434 160.297412 
L 257.607971 162.432 
L 258.059507 163.855059 
L 258.511043 169.547294 
L 258.962579 173.104941 
L 259.414116 170.258824 
L 259.865652 178.085647 
L 260.317188 176.662588 
L 260.768724 175.951059 
L 261.22026 158.874353 
L 261.671797 146.778353 
L 262.123333 161.008941 
L 262.574869 158.162824 
L 263.026405 157.451294 
L 263.477942 149.624471 
L 263.929478 151.047529 
L 264.381014 149.624471 
L 264.83255 153.893647 
L 265.284086 164.566588 
L 265.735623 169.547294 
L 266.187159 169.547294 
L 266.638695 167.412706 
L 267.090231 160.297412 
L 267.541768 165.278118 
L 267.993304 161.008941 
L 268.44484 147.489882 
L 268.896376 140.374588 
L 269.347913 138.951529 
L 269.799449 138.951529 
L 270.250985 141.086118 
L 270.702521 139.663059 
L 271.154057 138.951529 
L 271.605594 138.951529 
L 272.05713 140.374588 
L 272.508666 144.643765 
L 272.960202 160.297412 
L 273.411739 162.432 
L 273.863275 166.701176 
L 274.314811 169.547294 
L 274.766347 171.681882 
L 275.217883 161.720471 
L 275.66942 166.701176 
L 276.120956 175.239529 
L 276.572492 178.085647 
L 277.024028 162.432 
L 277.475565 169.547294 
L 277.927101 163.855059 
L 278.378637 164.566588 
L 278.830173 162.432 
L 279.281709 161.008941 
L 279.733246 161.008941 
L 280.184782 158.874353 
L 280.636318 155.316706 
L 281.087854 155.316706 
L 281.990927 173.104941 
L 283.345535 177.374118 
L 283.797072 178.085647 
L 284.248608 179.508706 
L 284.700144 179.508706 
L 285.15168 178.797176 
L 285.603217 175.951059 
L 286.054753 171.681882 
L 286.506289 164.566588 
L 286.957825 162.432 
L 287.409361 156.028235 
L 287.860898 153.893647 
L 288.312434 140.374588 
L 288.76397 138.951529 
L 289.215506 139.663059 
L 289.667043 138.951529 
L 290.570115 138.951529 
L 291.021651 139.663059 
L 291.473188 151.759059 
L 291.924724 156.739765 
L 292.37626 158.874353 
L 293.279332 170.258824 
L 293.730869 170.970353 
L 294.182405 167.412706 
L 294.633941 166.701176 
L 295.537014 155.316706 
L 295.98855 161.008941 
L 296.440086 160.297412 
L 296.891622 210.104471 
L 297.343158 187.335529 
L 297.794695 187.335529 
L 298.697767 188.758588 
L 299.60084 185.912471 
L 300.052376 185.200941 
L 300.503912 210.104471 
L 300.955448 184.489412 
L 301.406984 187.335529 
L 301.858521 188.758588 
L 302.310057 188.047059 
L 303.213129 188.047059 
L 303.664666 186.624 
L 304.116202 188.047059 
L 304.567738 188.758588 
L 305.019274 188.758588 
L 306.373883 190.893176 
L 306.825419 190.893176 
L 307.276955 191.604706 
L 307.728492 191.604706 
L 308.180028 190.181647 
L 308.631564 184.489412 
L 309.534636 160.297412 
L 309.986173 153.182118 
L 310.437709 148.912941 
L 310.889245 146.778353 
L 311.792318 139.663059 
L 312.243854 139.663059 
L 312.69539 148.912941 
L 313.146926 170.970353 
L 313.598463 168.835765 
L 314.049999 150.336 
L 314.501535 138.951529 
L 318.565361 138.951529 
L 319.016897 140.374588 
L 319.468433 138.951529 
L 319.91997 138.951529 
L 320.371506 139.663059 
L 320.823042 138.951529 
L 325.338404 138.951529 
L 325.789941 142.509176 
L 326.241477 143.220706 
L 326.693013 149.624471 
L 327.144549 151.047529 
L 327.596085 149.624471 
L 328.047622 153.893647 
L 328.499158 164.566588 
L 328.950694 169.547294 
L 329.40223 169.547294 
L 329.853767 167.412706 
L 330.305303 160.297412 
L 331.659911 174.528 
L 332.111448 177.374118 
L 332.562984 180.931765 
L 333.01452 179.508706 
L 333.466056 179.508706 
L 333.917593 178.085647 
L 334.820665 165.989647 
L 335.272201 153.893647 
L 336.175274 142.509176 
L 336.62681 140.374588 
L 337.078346 138.951529 
L 337.981419 138.951529 
L 338.432955 140.374588 
L 339.336027 138.951529 
L 339.787564 140.374588 
L 340.2391 148.201412 
L 340.690636 147.489882 
L 341.142172 153.182118 
L 341.593708 155.316706 
L 342.045245 143.932235 
L 342.496781 161.720471 
L 342.948317 167.412706 
L 343.399853 170.970353 
L 343.85139 168.835765 
L 344.302926 170.970353 
L 345.205998 172.393412 
L 345.657534 172.393412 
L 346.109071 179.508706 
L 346.560607 180.931765 
L 347.012143 178.797176 
L 347.463679 172.393412 
L 347.915216 179.508706 
L 348.366752 180.931765 
L 348.818288 178.797176 
L 349.269824 172.393412 
L 349.72136 179.508706 
L 350.172897 180.931765 
L 350.624433 178.797176 
L 351.075969 172.393412 
L 351.527505 161.720471 
L 351.979042 146.778353 
L 352.430578 141.797647 
L 352.882114 139.663059 
L 353.33365 138.951529 
L 353.785186 140.374588 
L 354.236723 143.932235 
L 354.688259 152.470588 
L 355.139795 147.489882 
L 355.591331 143.932235 
L 356.042868 141.797647 
L 356.494404 140.374588 
L 356.94594 140.374588 
L 357.397476 138.951529 
L 359.655157 138.951529 
L 360.106694 139.663059 
L 360.55823 138.951529 
L 362.364375 138.951529 
L 362.815911 141.797647 
L 363.267447 156.739765 
L 364.17052 173.104941 
L 364.622056 178.797176 
L 365.073592 181.643294 
L 365.525128 182.354824 
L 366.428201 185.200941 
L 366.879737 210.104471 
L 367.331273 141.086118 
L 367.782809 210.104471 
L 368.234346 138.951529 
L 369.137418 138.951529 
L 369.588954 145.355294 
L 370.492027 165.989647 
L 371.846635 178.085647 
L 372.298172 180.931765 
L 372.749708 181.643294 
L 373.201244 181.643294 
L 374.104317 185.912471 
L 374.555853 172.393412 
L 375.007389 170.970353 
L 375.910461 179.508706 
L 376.361998 181.643294 
L 376.813534 182.354824 
L 377.26507 184.489412 
L 377.716606 185.200941 
L 378.168143 185.200941 
L 378.619679 183.066353 
L 379.071215 182.354824 
L 379.522751 179.508706 
L 379.974288 179.508706 
L 380.425824 178.797176 
L 380.87736 175.951059 
L 381.328896 171.681882 
L 381.780432 164.566588 
L 382.231969 162.432 
L 382.683505 156.028235 
L 383.135041 153.893647 
L 383.586577 140.374588 
L 384.038114 138.951529 
L 384.48965 139.663059 
L 384.941186 138.951529 
L 387.650403 138.951529 
L 388.10194 139.663059 
L 388.553476 138.951529 
L 389.005012 138.951529 
L 389.456548 140.374588 
L 390.359621 151.759059 
L 390.811157 147.489882 
L 391.262693 139.663059 
L 391.714229 141.086118 
L 392.165766 148.912941 
L 392.617302 143.220706 
L 393.068838 146.066824 
L 393.520374 156.739765 
L 393.97191 153.893647 
L 394.423447 149.624471 
L 394.874983 146.778353 
L 395.326519 155.316706 
L 395.778055 161.008941 
L 396.229592 170.258824 
L 396.681128 176.662588 
L 397.132664 175.239529 
L 398.487273 155.316706 
L 398.487273 155.316706 
" clip-path="url(#pe84d577369)" style="fill: none; stroke: #1f77b4; stroke-width: 1.5; stroke-linecap: square"/>
   </g>
   <g id="patch_8">
    <path d="M 57.6 213.662118 
L 57.6 135.393882 
" style="fill: none; stroke: #000000; stroke-width: 0.8; stroke-linejoin: miter; stroke-linecap: square"/>
   </g>
   <g id="patch_9">
    <path d="M 414.72 213.662118 
L 414.72 135.393882 
" style="fill: none; stroke: #000000; stroke-width: 0.8; stroke-linejoin: miter; stroke-linecap: square"/>
   </g>
   <g id="patch_10">
    <path d="M 57.6 213.662118 
L 414.72 213.662118 
" style="fill: none; stroke: #000000; stroke-width: 0.8; stroke-linejoin: miter; stroke-linecap: square"/>
   </g>
   <g id="patch_11">
    <path d="M 57.6 135.393882 
L 414.72 135.393882 
" style="fill: none; stroke: #000000; stroke-width: 0.8; stroke-linejoin: miter; stroke-linecap: square"/>
   </g>
  </g>
  <g id="axes_3">
   <g id="patch_12">
    <path d="M 57.6 307.584 
L 414.72 307.584 
L 414.72 229.315765 
L 57.6 229.315765 
z
" style="fill: #ffffff"/>
   </g>
   <g id="matplotlib.axis_5">
    <g id="xtick_15">
     <g id="line2d_22">
      <g>
       <use xlink:href="#m406a6a8115" x="73.832727" y="307.584" style="stroke: #000000; stroke-width: 0.8"/>
      </g>
     </g>
     <g id="text_20">
      <!-- 0 -->
      <g transform="translate(70.651477 322.182437) scale(0.1 -0.1)">
       <use xlink:href="#DejaVuSans-30"/>
      </g>
     </g>
    </g>
    <g id="xtick_16">
     <g id="line2d_23">
      <g>
       <use xlink:href="#m406a6a8115" x="128.017074" y="307.584" style="stroke: #000000; stroke-width: 0.8"/>
      </g>
     </g>
     <g id="text_21">
      <!-- 5 -->
      <g transform="translate(124.835824 322.182437) scale(0.1 -0.1)">
       <use xlink:href="#DejaVuSans-35"/>
      </g>
     </g>
    </g>
    <g id="xtick_17">
     <g id="line2d_24">
      <g>
       <use xlink:href="#m406a6a8115" x="182.201421" y="307.584" style="stroke: #000000; stroke-width: 0.8"/>
      </g>
     </g>
     <g id="text_22">
      <!-- 10 -->
      <g transform="translate(175.838921 322.182437) scale(0.1 -0.1)">
       <use xlink:href="#DejaVuSans-31"/>
       <use xlink:href="#DejaVuSans-30" x="63.623047"/>
      </g>
     </g>
    </g>
    <g id="xtick_18">
     <g id="line2d_25">
      <g>
       <use xlink:href="#m406a6a8115" x="236.385768" y="307.584" style="stroke: #000000; stroke-width: 0.8"/>
      </g>
     </g>
     <g id="text_23">
      <!-- 15 -->
      <g transform="translate(230.023268 322.182437) scale(0.1 -0.1)">
       <use xlink:href="#DejaVuSans-31"/>
       <use xlink:href="#DejaVuSans-35" x="63.623047"/>
      </g>
     </g>
    </g>
    <g id="xtick_19">
     <g id="line2d_26">
      <g>
       <use xlink:href="#m406a6a8115" x="290.570115" y="307.584" style="stroke: #000000; stroke-width: 0.8"/>
      </g>
     </g>
     <g id="text_24">
      <!-- 20 -->
      <g transform="translate(284.207615 322.182437) scale(0.1 -0.1)">
       <use xlink:href="#DejaVuSans-32"/>
       <use xlink:href="#DejaVuSans-30" x="63.623047"/>
      </g>
     </g>
    </g>
    <g id="xtick_20">
     <g id="line2d_27">
      <g>
       <use xlink:href="#m406a6a8115" x="344.754462" y="307.584" style="stroke: #000000; stroke-width: 0.8"/>
      </g>
     </g>
     <g id="text_25">
      <!-- 25 -->
      <g transform="translate(338.391962 322.182437) scale(0.1 -0.1)">
       <use xlink:href="#DejaVuSans-32"/>
       <use xlink:href="#DejaVuSans-35" x="63.623047"/>
      </g>
     </g>
    </g>
    <g id="xtick_21">
     <g id="line2d_28">
      <g>
       <use xlink:href="#m406a6a8115" x="398.938809" y="307.584" style="stroke: #000000; stroke-width: 0.8"/>
      </g>
     </g>
     <g id="text_26">
      <!-- 30 -->
      <g transform="translate(392.576309 322.182437) scale(0.1 -0.1)">
       <use xlink:href="#DejaVuSans-33"/>
       <use xlink:href="#DejaVuSans-30" x="63.623047"/>
      </g>
     </g>
    </g>
   </g>
   <g id="matplotlib.axis_6">
    <g id="ytick_6">
     <g id="line2d_29">
      <g>
       <use xlink:href="#m1d32bb9fd0" x="57.6" y="304.026353" style="stroke: #000000; stroke-width: 0.8"/>
      </g>
     </g>
     <g id="text_27">
      <!-- 0 -->
      <g transform="translate(44.2375 307.825572) scale(0.1 -0.1)">
       <use xlink:href="#DejaVuSans-30"/>
      </g>
     </g>
    </g>
    <g id="ytick_7">
     <g id="line2d_30">
      <g>
       <use xlink:href="#m1d32bb9fd0" x="57.6" y="264.496941" style="stroke: #000000; stroke-width: 0.8"/>
      </g>
     </g>
     <g id="text_28">
      <!-- 5 -->
      <g transform="translate(44.2375 268.29616) scale(0.1 -0.1)">
       <use xlink:href="#DejaVuSans-35"/>
      </g>
     </g>
    </g>
   </g>
   <g id="line2d_31">
    <path d="M 73.832727 304.026353 
L 108.14948 304.026353 
L 108.601017 296.120471 
L 109.504089 296.120471 
L 109.955625 304.026353 
L 137.047799 304.026353 
L 137.950871 288.214588 
L 138.402407 304.026353 
L 175.879914 304.026353 
L 176.782986 288.214588 
L 177.234523 304.026353 
L 197.102117 304.026353 
L 197.553653 288.214588 
L 198.005189 304.026353 
L 221.936609 304.026353 
L 222.388145 272.402824 
L 222.839681 296.120471 
L 223.291218 288.214588 
L 223.742754 288.214588 
L 224.19429 304.026353 
L 261.22026 304.026353 
L 261.671797 296.120471 
L 262.123333 304.026353 
L 267.993304 304.026353 
L 268.44484 288.214588 
L 268.896376 304.026353 
L 287.860898 304.026353 
L 288.312434 296.120471 
L 288.76397 304.026353 
L 313.598463 304.026353 
L 314.049999 296.120471 
L 315.404607 296.120471 
L 315.856144 304.026353 
L 321.274578 304.026353 
L 321.726115 280.308706 
L 322.177651 232.873412 
L 322.629187 304.026353 
L 323.080723 304.026353 
L 323.532259 288.214588 
L 323.983796 280.308706 
L 324.435332 280.308706 
L 324.886868 304.026353 
L 356.494404 304.026353 
L 356.94594 272.402824 
L 357.397476 296.120471 
L 357.849013 288.214588 
L 358.300549 288.214588 
L 358.752085 304.026353 
L 383.135041 304.026353 
L 383.586577 296.120471 
L 384.038114 304.026353 
L 386.295795 304.026353 
L 386.747331 296.120471 
L 387.198867 304.026353 
L 387.650403 304.026353 
L 388.10194 296.120471 
L 388.553476 280.308706 
L 389.005012 296.120471 
L 389.456548 304.026353 
L 390.811157 304.026353 
L 391.262693 272.402824 
L 391.714229 304.026353 
L 398.487273 304.026353 
L 398.487273 304.026353 
" clip-path="url(#pfe10423ca2)" style="fill: none; stroke: #1f77b4; stroke-width: 1.5; stroke-linecap: square"/>
   </g>
   <g id="patch_13">
    <path d="M 57.6 307.584 
L 57.6 229.315765 
" style="fill: none; stroke: #000000; stroke-width: 0.8; stroke-linejoin: miter; stroke-linecap: square"/>
   </g>
   <g id="patch_14">
    <path d="M 414.72 307.584 
L 414.72 229.315765 
" style="fill: none; stroke: #000000; stroke-width: 0.8; stroke-linejoin: miter; stroke-linecap: square"/>
   </g>
   <g id="patch_15">
    <path d="M 57.6 307.584 
L 414.72 307.584 
" style="fill: none; stroke: #000000; stroke-width: 0.8; stroke-linejoin: miter; stroke-linecap: square"/>
   </g>
   <g id="patch_16">
    <path d="M 57.6 229.315765 
L 414.72 229.315765 
" style="fill: none; stroke: #000000; stroke-width: 0.8; stroke-linejoin: miter; stroke-linecap: square"/>
   </g>
  </g>
  <g id="text_29">
   <!-- cleaned_weather_summer -->
   <g transform="translate(151.397813 16.030125) scale(0.12 -0.12)">
    <defs>
     <path id="DejaVuSans-63" d="M 3122 3366 
L 3122 2828 
Q 2878 2963 2633 3030 
Q 2388 3097 2138 3097 
Q 1578 3097 1268 2742 
Q 959 2388 959 1747 
Q 959 1106 1268 751 
Q 1578 397 2138 397 
Q 2388 397 2633 464 
Q 2878 531 3122 666 
L 3122 134 
Q 2881 22 2623 -34 
Q 2366 -91 2075 -91 
Q 1284 -91 818 406 
Q 353 903 353 1747 
Q 353 2603 823 3093 
Q 1294 3584 2113 3584 
Q 2378 3584 2631 3529 
Q 2884 3475 3122 3366 
z
" transform="scale(0.015625)"/>
     <path id="DejaVuSans-6c" d="M 603 4863 
L 1178 4863 
L 1178 0 
L 603 0 
L 603 4863 
z
" transform="scale(0.015625)"/>
     <path id="DejaVuSans-65" d="M 3597 1894 
L 3597 1613 
L 953 1613 
Q 991 1019 1311 708 
Q 1631 397 2203 397 
Q 2534 397 2845 478 
Q 3156 559 3463 722 
L 3463 178 
Q 3153 47 2828 -22 
Q 2503 -91 2169 -91 
Q 1331 -91 842 396 
Q 353 884 353 1716 
Q 353 2575 817 3079 
Q 1281 3584 2069 3584 
Q 2775 3584 3186 3129 
Q 3597 2675 3597 1894 
z
M 3022 2063 
Q 3016 2534 2758 2815 
Q 2500 3097 2075 3097 
Q 1594 3097 1305 2825 
Q 1016 2553 972 2059 
L 3022 2063 
z
" transform="scale(0.015625)"/>
     <path id="DejaVuSans-61" d="M 2194 1759 
Q 1497 1759 1228 1600 
Q 959 1441 959 1056 
Q 959 750 1161 570 
Q 1363 391 1709 391 
Q 2188 391 2477 730 
Q 2766 1069 2766 1631 
L 2766 1759 
L 2194 1759 
z
M 3341 1997 
L 3341 0 
L 2766 0 
L 2766 531 
Q 2569 213 2275 61 
Q 1981 -91 1556 -91 
Q 1019 -91 701 211 
Q 384 513 384 1019 
Q 384 1609 779 1909 
Q 1175 2209 1959 2209 
L 2766 2209 
L 2766 2266 
Q 2766 2663 2505 2880 
Q 2244 3097 1772 3097 
Q 1472 3097 1187 3025 
Q 903 2953 641 2809 
L 641 3341 
Q 956 3463 1253 3523 
Q 1550 3584 1831 3584 
Q 2591 3584 2966 3190 
Q 3341 2797 3341 1997 
z
" transform="scale(0.015625)"/>
     <path id="DejaVuSans-6e" d="M 3513 2113 
L 3513 0 
L 2938 0 
L 2938 2094 
Q 2938 2591 2744 2837 
Q 2550 3084 2163 3084 
Q 1697 3084 1428 2787 
Q 1159 2491 1159 1978 
L 1159 0 
L 581 0 
L 581 3500 
L 1159 3500 
L 1159 2956 
Q 1366 3272 1645 3428 
Q 1925 3584 2291 3584 
Q 2894 3584 3203 3211 
Q 3513 2838 3513 2113 
z
" transform="scale(0.015625)"/>
     <path id="DejaVuSans-64" d="M 2906 2969 
L 2906 4863 
L 3481 4863 
L 3481 0 
L 2906 0 
L 2906 525 
Q 2725 213 2448 61 
Q 2172 -91 1784 -91 
Q 1150 -91 751 415 
Q 353 922 353 1747 
Q 353 2572 751 3078 
Q 1150 3584 1784 3584 
Q 2172 3584 2448 3432 
Q 2725 3281 2906 2969 
z
M 947 1747 
Q 947 1113 1208 752 
Q 1469 391 1925 391 
Q 2381 391 2643 752 
Q 2906 1113 2906 1747 
Q 2906 2381 2643 2742 
Q 2381 3103 1925 3103 
Q 1469 3103 1208 2742 
Q 947 2381 947 1747 
z
" transform="scale(0.015625)"/>
     <path id="DejaVuSans-5f" d="M 3263 -1063 
L 3263 -1509 
L -63 -1509 
L -63 -1063 
L 3263 -1063 
z
" transform="scale(0.015625)"/>
     <path id="DejaVuSans-77" d="M 269 3500 
L 844 3500 
L 1563 769 
L 2278 3500 
L 2956 3500 
L 3675 769 
L 4391 3500 
L 4966 3500 
L 4050 0 
L 3372 0 
L 2619 2869 
L 1863 0 
L 1184 0 
L 269 3500 
z
" transform="scale(0.015625)"/>
     <path id="DejaVuSans-74" d="M 1172 4494 
L 1172 3500 
L 2356 3500 
L 2356 3053 
L 1172 3053 
L 1172 1153 
Q 1172 725 1289 603 
Q 1406 481 1766 481 
L 2356 481 
L 2356 0 
L 1766 0 
Q 1100 0 847 248 
Q 594 497 594 1153 
L 594 3053 
L 172 3053 
L 172 3500 
L 594 3500 
L 594 4494 
L 1172 4494 
z
" transform="scale(0.015625)"/>
     <path id="DejaVuSans-68" d="M 3513 2113 
L 3513 0 
L 2938 0 
L 2938 2094 
Q 2938 2591 2744 2837 
Q 2550 3084 2163 3084 
Q 1697 3084 1428 2787 
Q 1159 2491 1159 1978 
L 1159 0 
L 581 0 
L 581 4863 
L 1159 4863 
L 1159 2956 
Q 1366 3272 1645 3428 
Q 1925 3584 2291 3584 
Q 2894 3584 3203 3211 
Q 3513 2838 3513 2113 
z
" transform="scale(0.015625)"/>
     <path id="DejaVuSans-72" d="M 2631 2963 
Q 2534 3019 2420 3045 
Q 2306 3072 2169 3072 
Q 1681 3072 1420 2755 
Q 1159 2438 1159 1844 
L 1159 0 
L 581 0 
L 581 3500 
L 1159 3500 
L 1159 2956 
Q 1341 3275 1631 3429 
Q 1922 3584 2338 3584 
Q 2397 3584 2469 3576 
Q 2541 3569 2628 3553 
L 2631 2963 
z
" transform="scale(0.015625)"/>
     <path id="DejaVuSans-73" d="M 2834 3397 
L 2834 2853 
Q 2591 2978 2328 3040 
Q 2066 3103 1784 3103 
Q 1356 3103 1142 2972 
Q 928 2841 928 2578 
Q 928 2378 1081 2264 
Q 1234 2150 1697 2047 
L 1894 2003 
Q 2506 1872 2764 1633 
Q 3022 1394 3022 966 
Q 3022 478 2636 193 
Q 2250 -91 1575 -91 
Q 1294 -91 989 -36 
Q 684 19 347 128 
L 347 722 
Q 666 556 975 473 
Q 1284 391 1588 391 
Q 1994 391 2212 530 
Q 2431 669 2431 922 
Q 2431 1156 2273 1281 
Q 2116 1406 1581 1522 
L 1381 1569 
Q 847 1681 609 1914 
Q 372 2147 372 2553 
Q 372 3047 722 3315 
Q 1072 3584 1716 3584 
Q 2034 3584 2315 3537 
Q 2597 3491 2834 3397 
z
" transform="scale(0.015625)"/>
     <path id="DejaVuSans-75" d="M 544 1381 
L 544 3500 
L 1119 3500 
L 1119 1403 
Q 1119 906 1312 657 
Q 1506 409 1894 409 
Q 2359 409 2629 706 
Q 2900 1003 2900 1516 
L 2900 3500 
L 3475 3500 
L 3475 0 
L 2900 0 
L 2900 538 
Q 2691 219 2414 64 
Q 2138 -91 1772 -91 
Q 1169 -91 856 284 
Q 544 659 544 1381 
z
M 1991 3584 
L 1991 3584 
z
" transform="scale(0.015625)"/>
     <path id="DejaVuSans-6d" d="M 3328 2828 
Q 3544 3216 3844 3400 
Q 4144 3584 4550 3584 
Q 5097 3584 5394 3201 
Q 5691 2819 5691 2113 
L 5691 0 
L 5113 0 
L 5113 2094 
Q 5113 2597 4934 2840 
Q 4756 3084 4391 3084 
Q 3944 3084 3684 2787 
Q 3425 2491 3425 1978 
L 3425 0 
L 2847 0 
L 2847 2094 
Q 2847 2600 2669 2842 
Q 2491 3084 2119 3084 
Q 1678 3084 1418 2786 
Q 1159 2488 1159 1978 
L 1159 0 
L 581 0 
L 581 3500 
L 1159 3500 
L 1159 2956 
Q 1356 3278 1631 3431 
Q 1906 3584 2284 3584 
Q 2666 3584 2933 3390 
Q 3200 3197 3328 2828 
z
" transform="scale(0.015625)"/>
    </defs>
    <use xlink:href="#DejaVuSans-63"/>
    <use xlink:href="#DejaVuSans-6c" x="54.980469"/>
    <use xlink:href="#DejaVuSans-65" x="82.763672"/>
    <use xlink:href="#DejaVuSans-61" x="144.287109"/>
    <use xlink:href="#DejaVuSans-6e" x="205.566406"/>
    <use xlink:href="#DejaVuSans-65" x="268.945312"/>
    <use xlink:href="#DejaVuSans-64" x="330.46875"/>
    <use xlink:href="#DejaVuSans-5f" x="393.945312"/>
    <use xlink:href="#DejaVuSans-77" x="443.945312"/>
    <use xlink:href="#DejaVuSans-65" x="525.732422"/>
    <use xlink:href="#DejaVuSans-61" x="587.255859"/>
    <use xlink:href="#DejaVuSans-74" x="648.535156"/>
    <use xlink:href="#DejaVuSans-68" x="687.744141"/>
    <use xlink:href="#DejaVuSans-65" x="751.123047"/>
    <use xlink:href="#DejaVuSans-72" x="812.646484"/>
    <use xlink:href="#DejaVuSans-5f" x="853.759766"/>
    <use xlink:href="#DejaVuSans-73" x="903.759766"/>
    <use xlink:href="#DejaVuSans-75" x="955.859375"/>
    <use xlink:href="#DejaVuSans-6d" x="1019.238281"/>
    <use xlink:href="#DejaVuSans-6d" x="1116.650391"/>
    <use xlink:href="#DejaVuSans-65" x="1214.0625"/>
    <use xlink:href="#DejaVuSans-72" x="1275.585938"/>
   </g>
  </g>
 </g>
 <defs>
  <clipPath id="p808a9430bb">
   <rect x="57.6" y="41.472" width="357.12" height="78.268235"/>
  </clipPath>
  <clipPath id="pe84d577369">
   <rect x="57.6" y="135.393882" width="357.12" height="78.268235"/>
  </clipPath>
  <clipPath id="pfe10423ca2">
   <rect x="57.6" y="229.315765" width="357.12" height="78.268235"/>
  </clipPath>
 </defs>
</svg>
