<?xml version="1.0" encoding="utf-8" standalone="no"?>
<!DOCTYPE svg PUBLIC "-//W3C//DTD SVG 1.1//EN"
  "http://www.w3.org/Graphics/SVG/1.1/DTD/svg11.dtd">
<svg xmlns:xlink="http://www.w3.org/1999/xlink" width="460.8pt" height="345.6pt" viewBox="0 0 460.8 345.6" xmlns="http://www.w3.org/2000/svg" version="1.1">
 <metadata>
  <rdf:RDF xmlns:dc="http://purl.org/dc/elements/1.1/" xmlns:cc="http://creativecommons.org/ns#" xmlns:rdf="http://www.w3.org/1999/02/22-rdf-syntax-ns#">
   <cc:Work>
    <dc:type rdf:resource="http://purl.org/dc/dcmitype/StillImage"/>
    <dc:date>2023-03-28T23:18:26.588401</dc:date>
    <dc:format>image/svg+xml</dc:format>
    <dc:creator>
     <cc:Agent>
      <dc:title>Matplotlib v3.7.1, https://matplotlib.org/</dc:title>
     </cc:Agent>
    </dc:creator>
   </cc:Work>
  </rdf:RDF>
 </metadata>
 <defs>
  <style type="text/css">*{stroke-linejoin: round; stroke-linecap: butt}</style>
 </defs>
 <g id="figure_1">
  <g id="patch_1">
   <path d="M 0 345.6 
L 460.8 345.6 
L 460.8 0 
L 0 0 
z
" style="fill: #ffffff"/>
  </g>
  <g id="axes_1">
   <g id="patch_2">
    <path d="M 57.6 119.740235 
L 414.72 119.740235 
L 414.72 41.472 
L 57.6 41.472 
z
" style="fill: #ffffff"/>
   </g>
   <g id="matplotlib.axis_1">
    <g id="xtick_1">
     <g id="line2d_1">
      <defs>
       <path id="m3d262b6e4d" d="M 0 0 
L 0 3.5 
" style="stroke: #000000; stroke-width: 0.8"/>
      </defs>
      <g>
       <use xlink:href="#m3d262b6e4d" x="73.832727" y="119.740235" style="stroke: #000000; stroke-width: 0.8"/>
      </g>
     </g>
     <g id="text_1">
      <!-- 0 -->
      <g transform="translate(70.651477 134.338673) scale(0.1 -0.1)">
       <defs>
        <path id="DejaVuSans-30" d="M 2034 4250 
Q 1547 4250 1301 3770 
Q 1056 3291 1056 2328 
Q 1056 1369 1301 889 
Q 1547 409 2034 409 
Q 2525 409 2770 889 
Q 3016 1369 3016 2328 
Q 3016 3291 2770 3770 
Q 2525 4250 2034 4250 
z
M 2034 4750 
Q 2819 4750 3233 4129 
Q 3647 3509 3647 2328 
Q 3647 1150 3233 529 
Q 2819 -91 2034 -91 
Q 1250 -91 836 529 
Q 422 1150 422 2328 
Q 422 3509 836 4129 
Q 1250 4750 2034 4750 
z
" transform="scale(0.015625)"/>
       </defs>
       <use xlink:href="#DejaVuSans-30"/>
      </g>
     </g>
    </g>
    <g id="xtick_2">
     <g id="line2d_2">
      <g>
       <use xlink:href="#m3d262b6e4d" x="128.017074" y="119.740235" style="stroke: #000000; stroke-width: 0.8"/>
      </g>
     </g>
     <g id="text_2">
      <!-- 5 -->
      <g transform="translate(124.835824 134.338673) scale(0.1 -0.1)">
       <defs>
        <path id="DejaVuSans-35" d="M 691 4666 
L 3169 4666 
L 3169 4134 
L 1269 4134 
L 1269 2991 
Q 1406 3038 1543 3061 
Q 1681 3084 1819 3084 
Q 2600 3084 3056 2656 
Q 3513 2228 3513 1497 
Q 3513 744 3044 326 
Q 2575 -91 1722 -91 
Q 1428 -91 1123 -41 
Q 819 9 494 109 
L 494 744 
Q 775 591 1075 516 
Q 1375 441 1709 441 
Q 2250 441 2565 725 
Q 2881 1009 2881 1497 
Q 2881 1984 2565 2268 
Q 2250 2553 1709 2553 
Q 1456 2553 1204 2497 
Q 953 2441 691 2322 
L 691 4666 
z
" transform="scale(0.015625)"/>
       </defs>
       <use xlink:href="#DejaVuSans-35"/>
      </g>
     </g>
    </g>
    <g id="xtick_3">
     <g id="line2d_3">
      <g>
       <use xlink:href="#m3d262b6e4d" x="182.201421" y="119.740235" style="stroke: #000000; stroke-width: 0.8"/>
      </g>
     </g>
     <g id="text_3">
      <!-- 10 -->
      <g transform="translate(175.838921 134.338673) scale(0.1 -0.1)">
       <defs>
        <path id="DejaVuSans-31" d="M 794 531 
L 1825 531 
L 1825 4091 
L 703 3866 
L 703 4441 
L 1819 4666 
L 2450 4666 
L 2450 531 
L 3481 531 
L 3481 0 
L 794 0 
L 794 531 
z
" transform="scale(0.015625)"/>
       </defs>
       <use xlink:href="#DejaVuSans-31"/>
       <use xlink:href="#DejaVuSans-30" x="63.623047"/>
      </g>
     </g>
    </g>
    <g id="xtick_4">
     <g id="line2d_4">
      <g>
       <use xlink:href="#m3d262b6e4d" x="236.385768" y="119.740235" style="stroke: #000000; stroke-width: 0.8"/>
      </g>
     </g>
     <g id="text_4">
      <!-- 15 -->
      <g transform="translate(230.023268 134.338673) scale(0.1 -0.1)">
       <use xlink:href="#DejaVuSans-31"/>
       <use xlink:href="#DejaVuSans-35" x="63.623047"/>
      </g>
     </g>
    </g>
    <g id="xtick_5">
     <g id="line2d_5">
      <g>
       <use xlink:href="#m3d262b6e4d" x="290.570115" y="119.740235" style="stroke: #000000; stroke-width: 0.8"/>
      </g>
     </g>
     <g id="text_5">
      <!-- 20 -->
      <g transform="translate(284.207615 134.338673) scale(0.1 -0.1)">
       <defs>
        <path id="DejaVuSans-32" d="M 1228 531 
L 3431 531 
L 3431 0 
L 469 0 
L 469 531 
Q 828 903 1448 1529 
Q 2069 2156 2228 2338 
Q 2531 2678 2651 2914 
Q 2772 3150 2772 3378 
Q 2772 3750 2511 3984 
Q 2250 4219 1831 4219 
Q 1534 4219 1204 4116 
Q 875 4013 500 3803 
L 500 4441 
Q 881 4594 1212 4672 
Q 1544 4750 1819 4750 
Q 2544 4750 2975 4387 
Q 3406 4025 3406 3419 
Q 3406 3131 3298 2873 
Q 3191 2616 2906 2266 
Q 2828 2175 2409 1742 
Q 1991 1309 1228 531 
z
" transform="scale(0.015625)"/>
       </defs>
       <use xlink:href="#DejaVuSans-32"/>
       <use xlink:href="#DejaVuSans-30" x="63.623047"/>
      </g>
     </g>
    </g>
    <g id="xtick_6">
     <g id="line2d_6">
      <g>
       <use xlink:href="#m3d262b6e4d" x="344.754462" y="119.740235" style="stroke: #000000; stroke-width: 0.8"/>
      </g>
     </g>
     <g id="text_6">
      <!-- 25 -->
      <g transform="translate(338.391962 134.338673) scale(0.1 -0.1)">
       <use xlink:href="#DejaVuSans-32"/>
       <use xlink:href="#DejaVuSans-35" x="63.623047"/>
      </g>
     </g>
    </g>
    <g id="xtick_7">
     <g id="line2d_7">
      <g>
       <use xlink:href="#m3d262b6e4d" x="398.938809" y="119.740235" style="stroke: #000000; stroke-width: 0.8"/>
      </g>
     </g>
     <g id="text_7">
      <!-- 30 -->
      <g transform="translate(392.576309 134.338673) scale(0.1 -0.1)">
       <defs>
        <path id="DejaVuSans-33" d="M 2597 2516 
Q 3050 2419 3304 2112 
Q 3559 1806 3559 1356 
Q 3559 666 3084 287 
Q 2609 -91 1734 -91 
Q 1441 -91 1130 -33 
Q 819 25 488 141 
L 488 750 
Q 750 597 1062 519 
Q 1375 441 1716 441 
Q 2309 441 2620 675 
Q 2931 909 2931 1356 
Q 2931 1769 2642 2001 
Q 2353 2234 1838 2234 
L 1294 2234 
L 1294 2753 
L 1863 2753 
Q 2328 2753 2575 2939 
Q 2822 3125 2822 3475 
Q 2822 3834 2567 4026 
Q 2313 4219 1838 4219 
Q 1578 4219 1281 4162 
Q 984 4106 628 3988 
L 628 4550 
Q 988 4650 1302 4700 
Q 1616 4750 1894 4750 
Q 2613 4750 3031 4423 
Q 3450 4097 3450 3541 
Q 3450 3153 3228 2886 
Q 3006 2619 2597 2516 
z
" transform="scale(0.015625)"/>
       </defs>
       <use xlink:href="#DejaVuSans-33"/>
       <use xlink:href="#DejaVuSans-30" x="63.623047"/>
      </g>
     </g>
    </g>
   </g>
   <g id="matplotlib.axis_2">
    <g id="ytick_1">
     <g id="line2d_8">
      <defs>
       <path id="m62c97715cc" d="M 0 0 
L -3.5 0 
" style="stroke: #000000; stroke-width: 0.8"/>
      </defs>
      <g>
       <use xlink:href="#m62c97715cc" x="57.6" y="113.336471" style="stroke: #000000; stroke-width: 0.8"/>
      </g>
     </g>
     <g id="text_8">
      <!-- 0 -->
      <g transform="translate(44.2375 117.135689) scale(0.1 -0.1)">
       <use xlink:href="#DejaVuSans-30"/>
      </g>
     </g>
    </g>
    <g id="ytick_2">
     <g id="line2d_9">
      <g>
       <use xlink:href="#m62c97715cc" x="57.6" y="84.875294" style="stroke: #000000; stroke-width: 0.8"/>
      </g>
     </g>
     <g id="text_9">
      <!-- 10 -->
      <g transform="translate(37.875 88.674513) scale(0.1 -0.1)">
       <use xlink:href="#DejaVuSans-31"/>
       <use xlink:href="#DejaVuSans-30" x="63.623047"/>
      </g>
     </g>
    </g>
    <g id="ytick_3">
     <g id="line2d_10">
      <g>
       <use xlink:href="#m62c97715cc" x="57.6" y="56.414118" style="stroke: #000000; stroke-width: 0.8"/>
      </g>
     </g>
     <g id="text_10">
      <!-- 20 -->
      <g transform="translate(37.875 60.213336) scale(0.1 -0.1)">
       <use xlink:href="#DejaVuSans-32"/>
       <use xlink:href="#DejaVuSans-30" x="63.623047"/>
      </g>
     </g>
    </g>
   </g>
   <g id="line2d_11">
    <path d="M 73.832727 82.029176 
L 74.284263 76.336941 
L 74.7358 73.490824 
L 75.638872 73.490824 
L 76.090408 76.336941 
L 76.541945 70.644706 
L 77.445017 70.644706 
L 77.896553 82.029176 
L 78.34809 90.567529 
L 78.799626 90.567529 
L 79.251162 96.259765 
L 79.702698 93.413647 
L 80.154234 96.259765 
L 80.605771 96.259765 
L 81.057307 90.567529 
L 81.508843 82.029176 
L 81.960379 76.336941 
L 82.411916 73.490824 
L 82.863452 73.490824 
L 83.314988 76.336941 
L 84.21806 76.336941 
L 84.669597 79.183059 
L 85.572669 79.183059 
L 86.475742 73.490824 
L 86.927278 73.490824 
L 87.378814 76.336941 
L 87.83035 73.490824 
L 88.281886 82.029176 
L 88.733423 82.029176 
L 89.184959 84.875294 
L 89.636495 82.029176 
L 90.088031 82.029176 
L 90.539568 84.875294 
L 90.991104 84.875294 
L 91.44264 87.721412 
L 91.894176 84.875294 
L 92.345712 84.875294 
L 92.797249 87.721412 
L 93.700321 87.721412 
L 94.151857 90.567529 
L 94.603394 84.875294 
L 95.05493 87.721412 
L 95.506466 79.183059 
L 95.958002 73.490824 
L 96.409539 70.644706 
L 96.861075 70.644706 
L 97.312611 67.798588 
L 97.764147 70.644706 
L 98.215683 70.644706 
L 98.66722 73.490824 
L 99.118756 73.490824 
L 99.570292 79.183059 
L 100.021828 82.029176 
L 100.473365 113.336471 
L 100.924901 82.029176 
L 101.376437 84.875294 
L 101.827973 82.029176 
L 102.279509 84.875294 
L 103.634118 76.336941 
L 104.085654 70.644706 
L 104.537191 70.644706 
L 104.988727 73.490824 
L 105.440263 73.490824 
L 106.343335 84.875294 
L 107.697944 84.875294 
L 108.14948 90.567529 
L 108.601017 93.413647 
L 109.052553 93.413647 
L 109.504089 87.721412 
L 109.955625 79.183059 
L 110.407161 76.336941 
L 110.858698 67.798588 
L 111.76177 62.106353 
L 113.567915 73.490824 
L 114.019451 79.183059 
L 114.922524 79.183059 
L 115.37406 82.029176 
L 115.825596 79.183059 
L 116.277132 82.029176 
L 116.728669 79.183059 
L 117.180205 79.183059 
L 118.083277 84.875294 
L 118.534814 82.029176 
L 118.98635 84.875294 
L 119.437886 82.029176 
L 119.889422 84.875294 
L 120.792495 84.875294 
L 121.244031 82.029176 
L 121.695567 84.875294 
L 122.147103 82.029176 
L 122.59864 76.336941 
L 123.050176 67.798588 
L 123.501712 62.106353 
L 124.404784 62.106353 
L 125.307857 67.798588 
L 126.210929 62.106353 
L 126.662466 62.106353 
L 127.114002 64.952471 
L 127.565538 64.952471 
L 128.017074 67.798588 
L 128.46861 67.798588 
L 128.920147 70.644706 
L 129.371683 76.336941 
L 129.823219 76.336941 
L 130.274755 79.183059 
L 130.726292 79.183059 
L 131.177828 82.029176 
L 131.629364 76.336941 
L 132.532436 82.029176 
L 132.983973 79.183059 
L 133.435509 79.183059 
L 134.338581 73.490824 
L 134.790118 76.336941 
L 135.241654 76.336941 
L 136.596262 67.798588 
L 137.047799 67.798588 
L 137.499335 70.644706 
L 137.950871 70.644706 
L 138.402407 73.490824 
L 138.853944 70.644706 
L 139.757016 76.336941 
L 140.660089 76.336941 
L 142.014697 67.798588 
L 142.466233 67.798588 
L 142.91777 70.644706 
L 143.369306 70.644706 
L 143.820842 73.490824 
L 144.272378 70.644706 
L 145.175451 76.336941 
L 145.626987 64.952471 
L 146.078523 59.260235 
L 146.530059 56.414118 
L 146.981596 62.106353 
L 148.336204 70.644706 
L 148.787741 70.644706 
L 149.239277 76.336941 
L 150.593885 84.875294 
L 151.948494 84.875294 
L 152.40003 82.029176 
L 152.851567 82.029176 
L 153.754639 70.644706 
L 154.206175 67.798588 
L 155.109248 56.414118 
L 156.01232 50.721882 
L 156.463856 45.029647 
L 157.818465 45.029647 
L 158.270001 47.875765 
L 158.721537 53.568 
L 159.173074 56.414118 
L 159.62461 64.952471 
L 160.979219 64.952471 
L 161.882291 70.644706 
L 163.2369 70.644706 
L 163.688436 73.490824 
L 165.043045 64.952471 
L 165.946117 64.952471 
L 166.397653 67.798588 
L 167.300726 79.183059 
L 168.203798 84.875294 
L 168.655334 84.875294 
L 169.106871 87.721412 
L 169.558407 84.875294 
L 170.009943 84.875294 
L 170.461479 79.183059 
L 170.913016 67.798588 
L 171.816088 67.798588 
L 172.267624 70.644706 
L 172.71916 76.336941 
L 173.170697 76.336941 
L 173.622233 79.183059 
L 174.073769 79.183059 
L 174.525305 76.336941 
L 175.879914 76.336941 
L 176.33145 79.183059 
L 176.782986 79.183059 
L 177.234523 84.875294 
L 177.686059 87.721412 
L 179.040668 87.721412 
L 179.94374 93.413647 
L 180.395276 87.721412 
L 180.846812 96.259765 
L 181.298349 101.952 
L 182.652957 101.952 
L 183.104494 99.105882 
L 183.55603 101.952 
L 184.007566 101.952 
L 184.459102 99.105882 
L 184.910639 99.105882 
L 185.362175 104.798118 
L 188.071392 104.798118 
L 188.522928 101.952 
L 188.974465 101.952 
L 189.426001 104.798118 
L 189.877537 104.798118 
L 190.329073 101.952 
L 190.780609 101.952 
L 191.232146 93.413647 
L 192.135218 87.721412 
L 192.586754 87.721412 
L 193.038291 84.875294 
L 193.489827 84.875294 
L 193.941363 87.721412 
L 194.392899 93.413647 
L 195.747508 101.952 
L 196.199044 101.952 
L 196.65058 104.798118 
L 197.102117 104.798118 
L 197.553653 101.952 
L 198.005189 101.952 
L 198.456725 99.105882 
L 198.908261 99.105882 
L 199.359798 104.798118 
L 199.811334 104.798118 
L 200.714406 110.490353 
L 201.165943 110.490353 
L 201.617479 113.336471 
L 206.132841 113.336471 
L 206.584377 107.644235 
L 207.035914 110.490353 
L 207.48745 110.490353 
L 207.938986 113.336471 
L 208.390522 113.336471 
L 209.293595 107.644235 
L 209.745131 110.490353 
L 210.196667 99.105882 
L 210.648203 90.567529 
L 211.09974 84.875294 
L 212.002812 79.183059 
L 212.905884 79.183059 
L 213.808957 84.875294 
L 214.712029 96.259765 
L 215.615102 96.259765 
L 216.066638 99.105882 
L 217.872783 99.105882 
L 218.324319 101.952 
L 218.775855 107.644235 
L 219.227392 110.490353 
L 219.678928 110.490353 
L 220.130464 104.798118 
L 222.388145 104.798118 
L 222.839681 90.567529 
L 223.291218 90.567529 
L 224.19429 96.259765 
L 224.645826 84.875294 
L 225.097362 90.567529 
L 226.000435 84.875294 
L 226.451971 79.183059 
L 226.903507 76.336941 
L 227.355044 76.336941 
L 227.80658 79.183059 
L 228.709652 79.183059 
L 230.515797 67.798588 
L 230.967333 70.644706 
L 231.41887 70.644706 
L 231.870406 73.490824 
L 232.321942 73.490824 
L 233.225015 84.875294 
L 234.579623 84.875294 
L 235.031159 82.029176 
L 235.482696 84.875294 
L 235.934232 82.029176 
L 236.837304 87.721412 
L 237.288841 87.721412 
L 237.740377 90.567529 
L 238.191913 90.567529 
L 239.094985 96.259765 
L 239.546522 93.413647 
L 239.998058 96.259765 
L 240.90113 96.259765 
L 241.352667 93.413647 
L 241.804203 93.413647 
L 242.255739 90.567529 
L 243.158811 90.567529 
L 243.610348 84.875294 
L 244.51342 84.875294 
L 244.964956 87.721412 
L 245.868029 87.721412 
L 246.771101 93.413647 
L 247.222638 87.721412 
L 247.674174 96.259765 
L 248.12571 101.952 
L 249.028782 101.952 
L 249.480319 104.798118 
L 249.931855 104.798118 
L 250.383391 93.413647 
L 250.834927 87.721412 
L 251.286464 84.875294 
L 251.738 84.875294 
L 252.189536 87.721412 
L 252.641072 93.413647 
L 253.995681 101.952 
L 254.447217 101.952 
L 254.898753 104.798118 
L 255.35029 93.413647 
L 255.801826 79.183059 
L 256.253362 82.029176 
L 256.704898 79.183059 
L 257.156434 84.875294 
L 258.059507 79.183059 
L 258.511043 82.029176 
L 258.962579 93.413647 
L 259.414116 99.105882 
L 259.865652 99.105882 
L 260.317188 93.413647 
L 260.768724 84.875294 
L 261.671797 79.183059 
L 262.123333 79.183059 
L 262.574869 76.336941 
L 263.026405 79.183059 
L 263.477942 79.183059 
L 263.929478 82.029176 
L 265.284086 82.029176 
L 265.735623 87.721412 
L 266.187159 84.875294 
L 266.638695 84.875294 
L 267.541768 90.567529 
L 268.44484 79.183059 
L 268.896376 76.336941 
L 269.799449 76.336941 
L 270.250985 70.644706 
L 270.702521 67.798588 
L 271.605594 67.798588 
L 272.05713 64.952471 
L 272.960202 64.952471 
L 273.411739 70.644706 
L 273.863275 84.875294 
L 275.217883 101.952 
L 276.120956 96.259765 
L 277.024028 96.259765 
L 277.475565 90.567529 
L 277.927101 96.259765 
L 278.378637 99.105882 
L 278.830173 96.259765 
L 280.184782 96.259765 
L 281.087854 101.952 
L 283.345535 101.952 
L 284.248608 96.259765 
L 284.700144 82.029176 
L 285.15168 84.875294 
L 286.054753 96.259765 
L 286.506289 96.259765 
L 286.957825 99.105882 
L 287.409361 96.259765 
L 287.860898 99.105882 
L 288.312434 96.259765 
L 288.76397 96.259765 
L 289.215506 84.875294 
L 289.667043 84.875294 
L 290.118579 90.567529 
L 290.570115 93.413647 
L 291.021651 99.105882 
L 291.473188 101.952 
L 292.827796 101.952 
L 293.279332 99.105882 
L 293.730869 101.952 
L 294.182405 101.952 
L 294.633941 107.644235 
L 295.537014 113.336471 
L 296.440086 113.336471 
L 296.891622 110.490353 
L 297.794695 110.490353 
L 298.246231 104.798118 
L 298.697767 101.952 
L 300.052376 101.952 
L 300.503912 104.798118 
L 301.406984 104.798118 
L 301.858521 101.952 
L 303.213129 101.952 
L 303.664666 104.798118 
L 304.567738 104.798118 
L 305.019274 101.952 
L 305.47081 101.952 
L 305.922347 104.798118 
L 306.373883 104.798118 
L 306.825419 107.644235 
L 307.276955 104.798118 
L 308.180028 110.490353 
L 308.631564 110.490353 
L 309.0831 113.336471 
L 312.243854 113.336471 
L 312.69539 110.490353 
L 313.146926 104.798118 
L 313.598463 104.798118 
L 314.049999 107.644235 
L 315.404607 107.644235 
L 315.856144 110.490353 
L 316.759216 110.490353 
L 317.210752 104.798118 
L 319.016897 104.798118 
L 319.468433 101.952 
L 320.823042 101.952 
L 321.274578 104.798118 
L 327.596085 104.798118 
L 328.047622 101.952 
L 328.499158 101.952 
L 328.950694 99.105882 
L 330.305303 99.105882 
L 330.756839 101.952 
L 331.659911 101.952 
L 332.111448 104.798118 
L 332.562984 110.490353 
L 333.01452 110.490353 
L 333.466056 113.336471 
L 333.917593 110.490353 
L 334.820665 110.490353 
L 335.272201 113.336471 
L 336.62681 113.336471 
L 337.078346 110.490353 
L 337.529882 113.336471 
L 340.2391 113.336471 
L 340.690636 101.952 
L 341.142172 99.105882 
L 342.045245 104.798118 
L 342.948317 104.798118 
L 343.399853 107.644235 
L 343.85139 107.644235 
L 344.302926 96.259765 
L 344.754462 87.721412 
L 345.205998 84.875294 
L 346.109071 90.567529 
L 346.560607 90.567529 
L 347.915216 99.105882 
L 348.366752 104.798118 
L 349.269824 104.798118 
L 350.172897 110.490353 
L 353.785186 110.490353 
L 354.236723 107.644235 
L 355.139795 107.644235 
L 355.591331 104.798118 
L 356.042868 104.798118 
L 356.494404 96.259765 
L 356.94594 79.183059 
L 357.397476 73.490824 
L 358.300549 67.798588 
L 359.203621 67.798588 
L 359.655157 70.644706 
L 360.55823 70.644706 
L 361.461302 82.029176 
L 361.912839 84.875294 
L 362.815911 96.259765 
L 363.267447 99.105882 
L 363.718983 99.105882 
L 364.17052 101.952 
L 365.073592 101.952 
L 365.525128 110.490353 
L 365.976665 110.490353 
L 366.428201 113.336471 
L 375.910461 113.336471 
L 376.361998 116.182588 
L 376.813534 113.336471 
L 377.716606 113.336471 
L 378.168143 116.182588 
L 383.135041 116.182588 
L 383.586577 110.490353 
L 384.038114 110.490353 
L 384.48965 113.336471 
L 385.392722 113.336471 
L 385.844258 107.644235 
L 386.295795 110.490353 
L 386.747331 104.798118 
L 387.198867 104.798118 
L 387.650403 107.644235 
L 389.456548 96.259765 
L 389.908084 84.875294 
L 390.359621 84.875294 
L 390.811157 90.567529 
L 391.262693 93.413647 
L 391.714229 99.105882 
L 392.165766 101.952 
L 395.326519 101.952 
L 396.229592 96.259765 
L 396.681128 99.105882 
L 397.5842 99.105882 
L 398.035737 104.798118 
L 398.487273 104.798118 
L 398.487273 104.798118 
" clip-path="url(#pa4896575d0)" style="fill: none; stroke: #1f77b4; stroke-width: 1.5; stroke-linecap: square"/>
   </g>
   <g id="patch_3">
    <path d="M 57.6 119.740235 
L 57.6 41.472 
" style="fill: none; stroke: #000000; stroke-width: 0.8; stroke-linejoin: miter; stroke-linecap: square"/>
   </g>
   <g id="patch_4">
    <path d="M 414.72 119.740235 
L 414.72 41.472 
" style="fill: none; stroke: #000000; stroke-width: 0.8; stroke-linejoin: miter; stroke-linecap: square"/>
   </g>
   <g id="patch_5">
    <path d="M 57.6 119.740235 
L 414.72 119.740235 
" style="fill: none; stroke: #000000; stroke-width: 0.8; stroke-linejoin: miter; stroke-linecap: square"/>
   </g>
   <g id="patch_6">
    <path d="M 57.6 41.472 
L 414.72 41.472 
" style="fill: none; stroke: #000000; stroke-width: 0.8; stroke-linejoin: miter; stroke-linecap: square"/>
   </g>
  </g>
  <g id="axes_2">
   <g id="patch_7">
    <path d="M 57.6 213.662118 
L 414.72 213.662118 
L 414.72 135.393882 
L 57.6 135.393882 
z
" style="fill: #ffffff"/>
   </g>
   <g id="matplotlib.axis_3">
    <g id="xtick_8">
     <g id="line2d_12">
      <g>
       <use xlink:href="#m3d262b6e4d" x="73.832727" y="213.662118" style="stroke: #000000; stroke-width: 0.8"/>
      </g>
     </g>
     <g id="text_11">
      <!-- 0 -->
      <g transform="translate(70.651477 228.260555) scale(0.1 -0.1)">
       <use xlink:href="#DejaVuSans-30"/>
      </g>
     </g>
    </g>
    <g id="xtick_9">
     <g id="line2d_13">
      <g>
       <use xlink:href="#m3d262b6e4d" x="128.017074" y="213.662118" style="stroke: #000000; stroke-width: 0.8"/>
      </g>
     </g>
     <g id="text_12">
      <!-- 5 -->
      <g transform="translate(124.835824 228.260555) scale(0.1 -0.1)">
       <use xlink:href="#DejaVuSans-35"/>
      </g>
     </g>
    </g>
    <g id="xtick_10">
     <g id="line2d_14">
      <g>
       <use xlink:href="#m3d262b6e4d" x="182.201421" y="213.662118" style="stroke: #000000; stroke-width: 0.8"/>
      </g>
     </g>
     <g id="text_13">
      <!-- 10 -->
      <g transform="translate(175.838921 228.260555) scale(0.1 -0.1)">
       <use xlink:href="#DejaVuSans-31"/>
       <use xlink:href="#DejaVuSans-30" x="63.623047"/>
      </g>
     </g>
    </g>
    <g id="xtick_11">
     <g id="line2d_15">
      <g>
       <use xlink:href="#m3d262b6e4d" x="236.385768" y="213.662118" style="stroke: #000000; stroke-width: 0.8"/>
      </g>
     </g>
     <g id="text_14">
      <!-- 15 -->
      <g transform="translate(230.023268 228.260555) scale(0.1 -0.1)">
       <use xlink:href="#DejaVuSans-31"/>
       <use xlink:href="#DejaVuSans-35" x="63.623047"/>
      </g>
     </g>
    </g>
    <g id="xtick_12">
     <g id="line2d_16">
      <g>
       <use xlink:href="#m3d262b6e4d" x="290.570115" y="213.662118" style="stroke: #000000; stroke-width: 0.8"/>
      </g>
     </g>
     <g id="text_15">
      <!-- 20 -->
      <g transform="translate(284.207615 228.260555) scale(0.1 -0.1)">
       <use xlink:href="#DejaVuSans-32"/>
       <use xlink:href="#DejaVuSans-30" x="63.623047"/>
      </g>
     </g>
    </g>
    <g id="xtick_13">
     <g id="line2d_17">
      <g>
       <use xlink:href="#m3d262b6e4d" x="344.754462" y="213.662118" style="stroke: #000000; stroke-width: 0.8"/>
      </g>
     </g>
     <g id="text_16">
      <!-- 25 -->
      <g transform="translate(338.391962 228.260555) scale(0.1 -0.1)">
       <use xlink:href="#DejaVuSans-32"/>
       <use xlink:href="#DejaVuSans-35" x="63.623047"/>
      </g>
     </g>
    </g>
    <g id="xtick_14">
     <g id="line2d_18">
      <g>
       <use xlink:href="#m3d262b6e4d" x="398.938809" y="213.662118" style="stroke: #000000; stroke-width: 0.8"/>
      </g>
     </g>
     <g id="text_17">
      <!-- 30 -->
      <g transform="translate(392.576309 228.260555) scale(0.1 -0.1)">
       <use xlink:href="#DejaVuSans-33"/>
       <use xlink:href="#DejaVuSans-30" x="63.623047"/>
      </g>
     </g>
    </g>
   </g>
   <g id="matplotlib.axis_4">
    <g id="ytick_4">
     <g id="line2d_19">
      <g>
       <use xlink:href="#m62c97715cc" x="57.6" y="210.104471" style="stroke: #000000; stroke-width: 0.8"/>
      </g>
     </g>
     <g id="text_18">
      <!-- 0 -->
      <g transform="translate(44.2375 213.903689) scale(0.1 -0.1)">
       <use xlink:href="#DejaVuSans-30"/>
      </g>
     </g>
    </g>
    <g id="ytick_5">
     <g id="line2d_20">
      <g>
       <use xlink:href="#m62c97715cc" x="57.6" y="174.528" style="stroke: #000000; stroke-width: 0.8"/>
      </g>
     </g>
     <g id="text_19">
      <!-- 50 -->
      <g transform="translate(37.875 178.327219) scale(0.1 -0.1)">
       <use xlink:href="#DejaVuSans-35"/>
       <use xlink:href="#DejaVuSans-30" x="63.623047"/>
      </g>
     </g>
    </g>
    <g id="ytick_6">
     <g id="line2d_21">
      <g>
       <use xlink:href="#m62c97715cc" x="57.6" y="138.951529" style="stroke: #000000; stroke-width: 0.8"/>
      </g>
     </g>
     <g id="text_20">
      <!-- 100 -->
      <g transform="translate(31.5125 142.750748) scale(0.1 -0.1)">
       <use xlink:href="#DejaVuSans-31"/>
       <use xlink:href="#DejaVuSans-30" x="63.623047"/>
       <use xlink:href="#DejaVuSans-30" x="127.246094"/>
      </g>
     </g>
    </g>
   </g>
   <g id="line2d_22">
    <path d="M 73.832727 151.047529 
L 74.7358 163.855059 
L 75.187336 165.278118 
L 75.638872 164.566588 
L 76.090408 162.432 
L 76.541945 168.124235 
L 76.993481 171.681882 
L 77.445017 173.104941 
L 77.896553 158.874353 
L 78.34809 149.624471 
L 79.251162 140.374588 
L 79.702698 141.086118 
L 80.154234 139.663059 
L 80.605771 138.951529 
L 81.057307 142.509176 
L 81.960379 163.855059 
L 82.411916 165.278118 
L 82.863452 164.566588 
L 83.314988 162.432 
L 84.21806 153.182118 
L 84.669597 146.066824 
L 85.121133 144.643765 
L 85.572669 143.932235 
L 86.475742 151.759059 
L 86.927278 153.182118 
L 87.378814 148.912941 
L 87.83035 153.893647 
L 88.281886 146.066824 
L 88.733423 147.489882 
L 89.184959 144.643765 
L 89.636495 146.778353 
L 90.088031 147.489882 
L 90.539568 147.489882 
L 91.44264 138.951529 
L 91.894176 140.374588 
L 92.797249 138.951529 
L 95.05493 138.951529 
L 95.506466 147.489882 
L 95.958002 151.759059 
L 96.409539 153.893647 
L 96.861075 157.451294 
L 97.312611 159.585882 
L 97.764147 158.874353 
L 98.215683 159.585882 
L 98.66722 156.739765 
L 99.118756 156.028235 
L 100.021828 141.797647 
L 100.473365 141.797647 
L 100.924901 139.663059 
L 101.376437 139.663059 
L 101.827973 141.086118 
L 102.279509 139.663059 
L 102.731046 138.951529 
L 103.182582 139.663059 
L 104.085654 158.162824 
L 104.537191 157.451294 
L 104.988727 153.182118 
L 105.440263 154.605176 
L 105.891799 145.355294 
L 106.343335 139.663059 
L 106.794872 138.951529 
L 109.052553 138.951529 
L 109.504089 140.374588 
L 109.955625 146.778353 
L 111.310234 172.393412 
L 111.76177 174.528 
L 112.213306 173.816471 
L 113.116379 168.124235 
L 114.019451 151.759059 
L 114.922524 146.066824 
L 115.37406 143.932235 
L 115.825596 148.201412 
L 116.277132 144.643765 
L 116.728669 146.778353 
L 117.180205 145.355294 
L 117.631741 142.509176 
L 118.534814 141.086118 
L 118.98635 139.663059 
L 119.437886 138.951529 
L 120.792495 138.951529 
L 121.244031 139.663059 
L 121.695567 139.663059 
L 122.147103 141.086118 
L 122.59864 146.066824 
L 123.050176 155.316706 
L 123.501712 159.585882 
L 123.953248 160.297412 
L 124.404784 158.874353 
L 124.856321 153.182118 
L 125.307857 149.624471 
L 125.759393 155.316706 
L 126.210929 163.855059 
L 126.662466 158.874353 
L 127.114002 156.028235 
L 127.565538 151.759059 
L 128.017074 144.643765 
L 128.46861 143.220706 
L 128.920147 139.663059 
L 129.371683 138.951529 
L 131.177828 138.951529 
L 131.629364 139.663059 
L 132.0809 138.951529 
L 133.435509 138.951529 
L 134.338581 140.374588 
L 135.241654 140.374588 
L 135.69319 141.797647 
L 136.596262 149.624471 
L 137.047799 147.489882 
L 137.499335 143.932235 
L 137.950871 141.797647 
L 138.402407 140.374588 
L 138.853944 143.220706 
L 139.30548 140.374588 
L 140.660089 140.374588 
L 141.111625 141.797647 
L 142.014697 149.624471 
L 142.466233 147.489882 
L 142.91777 143.932235 
L 143.369306 141.797647 
L 143.820842 140.374588 
L 144.272378 143.220706 
L 144.723915 140.374588 
L 145.175451 138.951529 
L 146.078523 158.162824 
L 146.530059 163.143529 
L 147.433132 157.451294 
L 148.336204 151.047529 
L 148.787741 149.624471 
L 149.239277 141.086118 
L 149.690813 138.951529 
L 152.851567 138.951529 
L 153.303103 139.663059 
L 153.754639 146.066824 
L 154.206175 149.624471 
L 155.109248 161.008941 
L 156.463856 173.816471 
L 156.915393 175.951059 
L 157.366929 176.662588 
L 157.818465 176.662588 
L 158.270001 175.951059 
L 158.721537 168.835765 
L 159.173074 165.989647 
L 159.62461 155.316706 
L 160.076146 151.759059 
L 160.527682 151.047529 
L 160.979219 148.912941 
L 161.430755 143.932235 
L 161.882291 141.086118 
L 162.333827 139.663059 
L 162.785364 141.086118 
L 163.2369 139.663059 
L 163.688436 138.951529 
L 164.139972 138.951529 
L 164.591508 139.663059 
L 165.946117 149.624471 
L 166.397653 145.355294 
L 166.84919 142.509176 
L 167.300726 140.374588 
L 167.752262 138.951529 
L 170.009943 138.951529 
L 170.461479 142.509176 
L 170.913016 150.336 
L 171.364552 149.624471 
L 171.816088 150.336 
L 172.267624 144.643765 
L 172.71916 146.778353 
L 173.170697 151.047529 
L 173.622233 151.047529 
L 174.073769 154.605176 
L 175.879914 157.451294 
L 176.782986 150.336 
L 177.234523 148.912941 
L 177.686059 143.932235 
L 178.137595 147.489882 
L 178.589131 149.624471 
L 179.040668 149.624471 
L 179.492204 147.489882 
L 179.94374 146.066824 
L 180.395276 151.759059 
L 180.846812 142.509176 
L 181.298349 138.951529 
L 184.007566 138.951529 
L 184.459102 139.663059 
L 184.910639 138.951529 
L 190.780609 138.951529 
L 191.232146 141.797647 
L 191.683682 147.489882 
L 192.135218 151.759059 
L 192.586754 153.893647 
L 193.038291 155.316706 
L 193.489827 154.605176 
L 193.941363 151.047529 
L 194.392899 145.355294 
L 194.844435 141.797647 
L 195.295972 139.663059 
L 195.747508 138.951529 
L 209.745131 138.951529 
L 210.196667 141.086118 
L 210.648203 151.047529 
L 211.09974 155.316706 
L 212.454348 159.585882 
L 212.905884 156.028235 
L 213.357421 153.893647 
L 214.260493 141.086118 
L 214.712029 138.951529 
L 222.388145 138.951529 
L 222.839681 144.643765 
L 223.742754 140.374588 
L 224.19429 138.951529 
L 224.645826 143.932235 
L 225.097362 139.663059 
L 225.548899 145.355294 
L 226.000435 148.201412 
L 226.451971 156.028235 
L 226.903507 158.162824 
L 227.355044 153.182118 
L 227.80658 146.066824 
L 228.258116 144.643765 
L 228.709652 143.932235 
L 229.612725 151.759059 
L 230.064261 156.028235 
L 230.515797 158.874353 
L 231.41887 157.451294 
L 231.870406 153.182118 
L 232.321942 154.605176 
L 232.773478 145.355294 
L 233.225015 139.663059 
L 233.676551 138.951529 
L 234.579623 138.951529 
L 235.031159 140.374588 
L 235.482696 139.663059 
L 235.934232 141.797647 
L 236.385768 142.509176 
L 236.837304 139.663059 
L 237.288841 138.951529 
L 238.191913 138.951529 
L 238.643449 139.663059 
L 239.546522 139.663059 
L 239.998058 138.951529 
L 241.804203 138.951529 
L 242.255739 139.663059 
L 242.707275 143.220706 
L 243.158811 141.797647 
L 243.610348 144.643765 
L 244.061884 152.470588 
L 244.51342 151.759059 
L 244.964956 147.489882 
L 245.416493 149.624471 
L 245.868029 149.624471 
L 246.319565 147.489882 
L 246.771101 146.066824 
L 247.222638 151.759059 
L 247.674174 142.509176 
L 248.12571 138.951529 
L 249.931855 138.951529 
L 250.834927 155.316706 
L 251.286464 155.316706 
L 251.738 154.605176 
L 252.189536 151.047529 
L 252.641072 145.355294 
L 253.092608 141.797647 
L 253.544145 139.663059 
L 253.995681 138.951529 
L 254.898753 138.951529 
L 255.35029 143.220706 
L 255.801826 160.297412 
L 256.253362 156.028235 
L 256.704898 164.566588 
L 257.156434 160.297412 
L 257.607971 161.008941 
L 258.059507 165.278118 
L 258.511043 164.566588 
L 258.962579 149.624471 
L 259.414116 142.509176 
L 259.865652 142.509176 
L 260.768724 157.451294 
L 261.22026 165.989647 
L 261.671797 163.143529 
L 262.123333 165.989647 
L 262.574869 165.989647 
L 263.026405 163.855059 
L 263.929478 147.489882 
L 264.381014 147.489882 
L 264.83255 149.624471 
L 265.284086 147.489882 
L 265.735623 143.220706 
L 266.187159 145.355294 
L 266.638695 146.778353 
L 267.090231 145.355294 
L 267.541768 141.797647 
L 268.44484 156.028235 
L 268.896376 158.162824 
L 269.799449 161.008941 
L 270.250985 163.855059 
L 270.702521 172.393412 
L 271.154057 175.951059 
L 271.605594 177.374118 
L 272.05713 180.220235 
L 272.508666 180.931765 
L 272.960202 182.354824 
L 273.411739 176.662588 
L 273.863275 158.874353 
L 274.314811 158.874353 
L 275.217883 143.932235 
L 275.66942 146.066824 
L 276.120956 151.047529 
L 276.572492 150.336 
L 277.024028 148.912941 
L 277.475565 154.605176 
L 277.927101 150.336 
L 278.378637 144.643765 
L 278.830173 146.066824 
L 279.281709 145.355294 
L 279.733246 146.778353 
L 280.184782 145.355294 
L 280.636318 140.374588 
L 281.087854 138.951529 
L 283.797072 138.951529 
L 284.248608 142.509176 
L 284.700144 156.028235 
L 285.15168 151.047529 
L 285.603217 143.932235 
L 286.054753 139.663059 
L 286.506289 138.951529 
L 288.76397 138.951529 
L 289.215506 143.932235 
L 289.667043 146.066824 
L 290.118579 140.374588 
L 290.570115 141.086118 
L 291.021651 138.951529 
L 296.440086 138.951529 
L 296.891622 139.663059 
L 297.343158 141.086118 
L 297.794695 141.797647 
L 298.246231 146.066824 
L 298.697767 147.489882 
L 300.052376 149.624471 
L 300.503912 147.489882 
L 301.406984 146.066824 
L 301.858521 147.489882 
L 303.213129 149.624471 
L 303.664666 147.489882 
L 304.567738 146.066824 
L 305.019274 147.489882 
L 305.47081 146.066824 
L 305.922347 145.355294 
L 306.373883 143.220706 
L 306.825419 140.374588 
L 307.728492 140.374588 
L 308.180028 139.663059 
L 308.631564 142.509176 
L 309.0831 140.374588 
L 309.534636 142.509176 
L 309.986173 141.086118 
L 310.437709 140.374588 
L 310.889245 142.509176 
L 311.340781 141.086118 
L 311.792318 140.374588 
L 312.243854 141.086118 
L 312.69539 145.355294 
L 313.146926 148.201412 
L 313.598463 145.355294 
L 314.049999 140.374588 
L 314.501535 138.951529 
L 315.404607 140.374588 
L 315.856144 139.663059 
L 316.30768 141.086118 
L 316.759216 141.797647 
L 317.210752 146.066824 
L 318.113825 144.643765 
L 318.565361 144.643765 
L 319.468433 147.489882 
L 320.823042 149.624471 
L 321.274578 147.489882 
L 323.080723 144.643765 
L 323.532259 144.643765 
L 323.983796 146.066824 
L 324.886868 144.643765 
L 325.338404 144.643765 
L 325.789941 146.066824 
L 326.693013 144.643765 
L 327.144549 144.643765 
L 328.950694 150.336 
L 329.40223 150.336 
L 329.853767 148.912941 
L 330.305303 148.201412 
L 330.756839 146.066824 
L 331.208375 147.489882 
L 331.659911 146.066824 
L 332.111448 143.220706 
L 332.562984 138.951529 
L 333.466056 138.951529 
L 333.917593 140.374588 
L 334.369129 141.086118 
L 334.820665 141.086118 
L 335.272201 139.663059 
L 336.175274 139.663059 
L 336.62681 138.951529 
L 339.787564 138.951529 
L 340.2391 210.104471 
L 340.690636 138.951529 
L 343.85139 138.951529 
L 344.302926 143.932235 
L 344.754462 152.470588 
L 345.205998 153.893647 
L 345.657534 150.336 
L 346.109071 142.509176 
L 346.560607 142.509176 
L 347.012143 140.374588 
L 347.463679 138.951529 
L 356.042868 138.951529 
L 356.494404 142.509176 
L 356.94594 157.451294 
L 357.849013 173.816471 
L 358.300549 175.951059 
L 359.203621 175.951059 
L 359.655157 175.239529 
L 360.106694 176.662588 
L 360.55823 175.239529 
L 361.009766 170.970353 
L 361.461302 164.566588 
L 361.912839 156.028235 
L 362.364375 151.047529 
L 363.267447 138.951529 
L 372.749708 138.951529 
L 373.201244 139.663059 
L 373.65278 138.951529 
L 389.456548 138.951529 
L 389.908084 143.932235 
L 390.359621 146.066824 
L 390.811157 140.374588 
L 391.262693 141.086118 
L 391.714229 138.951529 
L 398.487273 138.951529 
L 398.487273 138.951529 
" clip-path="url(#pa7962e70ff)" style="fill: none; stroke: #1f77b4; stroke-width: 1.5; stroke-linecap: square"/>
   </g>
   <g id="patch_8">
    <path d="M 57.6 213.662118 
L 57.6 135.393882 
" style="fill: none; stroke: #000000; stroke-width: 0.8; stroke-linejoin: miter; stroke-linecap: square"/>
   </g>
   <g id="patch_9">
    <path d="M 414.72 213.662118 
L 414.72 135.393882 
" style="fill: none; stroke: #000000; stroke-width: 0.8; stroke-linejoin: miter; stroke-linecap: square"/>
   </g>
   <g id="patch_10">
    <path d="M 57.6 213.662118 
L 414.72 213.662118 
" style="fill: none; stroke: #000000; stroke-width: 0.8; stroke-linejoin: miter; stroke-linecap: square"/>
   </g>
   <g id="patch_11">
    <path d="M 57.6 135.393882 
L 414.72 135.393882 
" style="fill: none; stroke: #000000; stroke-width: 0.8; stroke-linejoin: miter; stroke-linecap: square"/>
   </g>
  </g>
  <g id="axes_3">
   <g id="patch_12">
    <path d="M 57.6 307.584 
L 414.72 307.584 
L 414.72 229.315765 
L 57.6 229.315765 
z
" style="fill: #ffffff"/>
   </g>
   <g id="matplotlib.axis_5">
    <g id="xtick_15">
     <g id="line2d_23">
      <g>
       <use xlink:href="#m3d262b6e4d" x="73.832727" y="307.584" style="stroke: #000000; stroke-width: 0.8"/>
      </g>
     </g>
     <g id="text_21">
      <!-- 0 -->
      <g transform="translate(70.651477 322.182437) scale(0.1 -0.1)">
       <use xlink:href="#DejaVuSans-30"/>
      </g>
     </g>
    </g>
    <g id="xtick_16">
     <g id="line2d_24">
      <g>
       <use xlink:href="#m3d262b6e4d" x="128.017074" y="307.584" style="stroke: #000000; stroke-width: 0.8"/>
      </g>
     </g>
     <g id="text_22">
      <!-- 5 -->
      <g transform="translate(124.835824 322.182437) scale(0.1 -0.1)">
       <use xlink:href="#DejaVuSans-35"/>
      </g>
     </g>
    </g>
    <g id="xtick_17">
     <g id="line2d_25">
      <g>
       <use xlink:href="#m3d262b6e4d" x="182.201421" y="307.584" style="stroke: #000000; stroke-width: 0.8"/>
      </g>
     </g>
     <g id="text_23">
      <!-- 10 -->
      <g transform="translate(175.838921 322.182437) scale(0.1 -0.1)">
       <use xlink:href="#DejaVuSans-31"/>
       <use xlink:href="#DejaVuSans-30" x="63.623047"/>
      </g>
     </g>
    </g>
    <g id="xtick_18">
     <g id="line2d_26">
      <g>
       <use xlink:href="#m3d262b6e4d" x="236.385768" y="307.584" style="stroke: #000000; stroke-width: 0.8"/>
      </g>
     </g>
     <g id="text_24">
      <!-- 15 -->
      <g transform="translate(230.023268 322.182437) scale(0.1 -0.1)">
       <use xlink:href="#DejaVuSans-31"/>
       <use xlink:href="#DejaVuSans-35" x="63.623047"/>
      </g>
     </g>
    </g>
    <g id="xtick_19">
     <g id="line2d_27">
      <g>
       <use xlink:href="#m3d262b6e4d" x="290.570115" y="307.584" style="stroke: #000000; stroke-width: 0.8"/>
      </g>
     </g>
     <g id="text_25">
      <!-- 20 -->
      <g transform="translate(284.207615 322.182437) scale(0.1 -0.1)">
       <use xlink:href="#DejaVuSans-32"/>
       <use xlink:href="#DejaVuSans-30" x="63.623047"/>
      </g>
     </g>
    </g>
    <g id="xtick_20">
     <g id="line2d_28">
      <g>
       <use xlink:href="#m3d262b6e4d" x="344.754462" y="307.584" style="stroke: #000000; stroke-width: 0.8"/>
      </g>
     </g>
     <g id="text_26">
      <!-- 25 -->
      <g transform="translate(338.391962 322.182437) scale(0.1 -0.1)">
       <use xlink:href="#DejaVuSans-32"/>
       <use xlink:href="#DejaVuSans-35" x="63.623047"/>
      </g>
     </g>
    </g>
    <g id="xtick_21">
     <g id="line2d_29">
      <g>
       <use xlink:href="#m3d262b6e4d" x="398.938809" y="307.584" style="stroke: #000000; stroke-width: 0.8"/>
      </g>
     </g>
     <g id="text_27">
      <!-- 30 -->
      <g transform="translate(392.576309 322.182437) scale(0.1 -0.1)">
       <use xlink:href="#DejaVuSans-33"/>
       <use xlink:href="#DejaVuSans-30" x="63.623047"/>
      </g>
     </g>
    </g>
   </g>
   <g id="matplotlib.axis_6">
    <g id="ytick_7">
     <g id="line2d_30">
      <g>
       <use xlink:href="#m62c97715cc" x="57.6" y="304.026353" style="stroke: #000000; stroke-width: 0.8"/>
      </g>
     </g>
     <g id="text_28">
      <!-- 0 -->
      <g transform="translate(44.2375 307.825572) scale(0.1 -0.1)">
       <use xlink:href="#DejaVuSans-30"/>
      </g>
     </g>
    </g>
    <g id="ytick_8">
     <g id="line2d_31">
      <g>
       <use xlink:href="#m62c97715cc" x="57.6" y="268.449882" style="stroke: #000000; stroke-width: 0.8"/>
      </g>
     </g>
     <g id="text_29">
      <!-- 1 -->
      <g transform="translate(44.2375 272.249101) scale(0.1 -0.1)">
       <use xlink:href="#DejaVuSans-31"/>
      </g>
     </g>
    </g>
    <g id="ytick_9">
     <g id="line2d_32">
      <g>
       <use xlink:href="#m62c97715cc" x="57.6" y="232.873412" style="stroke: #000000; stroke-width: 0.8"/>
      </g>
     </g>
     <g id="text_30">
      <!-- 2 -->
      <g transform="translate(44.2375 236.672631) scale(0.1 -0.1)">
       <use xlink:href="#DejaVuSans-32"/>
      </g>
     </g>
    </g>
   </g>
   <g id="line2d_33">
    <path d="M 73.832727 304.026353 
L 90.539568 304.026353 
L 90.991104 268.449882 
L 91.44264 268.449882 
L 91.894176 304.026353 
L 239.546522 304.026353 
L 239.998058 268.449882 
L 240.449594 268.449882 
L 240.90113 232.873412 
L 241.352667 304.026353 
L 281.087854 304.026353 
L 281.539391 268.449882 
L 281.990927 304.026353 
L 282.442463 268.449882 
L 282.893999 304.026353 
L 313.598463 304.026353 
L 314.049999 268.449882 
L 314.501535 304.026353 
L 392.165766 304.026353 
L 392.617302 268.449882 
L 393.068838 304.026353 
L 393.520374 268.449882 
L 393.97191 304.026353 
L 398.487273 304.026353 
L 398.487273 304.026353 
" clip-path="url(#p2de1bbceb6)" style="fill: none; stroke: #1f77b4; stroke-width: 1.5; stroke-linecap: square"/>
   </g>
   <g id="patch_13">
    <path d="M 57.6 307.584 
L 57.6 229.315765 
" style="fill: none; stroke: #000000; stroke-width: 0.8; stroke-linejoin: miter; stroke-linecap: square"/>
   </g>
   <g id="patch_14">
    <path d="M 414.72 307.584 
L 414.72 229.315765 
" style="fill: none; stroke: #000000; stroke-width: 0.8; stroke-linejoin: miter; stroke-linecap: square"/>
   </g>
   <g id="patch_15">
    <path d="M 57.6 307.584 
L 414.72 307.584 
" style="fill: none; stroke: #000000; stroke-width: 0.8; stroke-linejoin: miter; stroke-linecap: square"/>
   </g>
   <g id="patch_16">
    <path d="M 57.6 229.315765 
L 414.72 229.315765 
" style="fill: none; stroke: #000000; stroke-width: 0.8; stroke-linejoin: miter; stroke-linecap: square"/>
   </g>
  </g>
  <g id="text_31">
   <!-- cleaned_weather_fall -->
   <g transform="translate(167.050313 16.030125) scale(0.12 -0.12)">
    <defs>
     <path id="DejaVuSans-63" d="M 3122 3366 
L 3122 2828 
Q 2878 2963 2633 3030 
Q 2388 3097 2138 3097 
Q 1578 3097 1268 2742 
Q 959 2388 959 1747 
Q 959 1106 1268 751 
Q 1578 397 2138 397 
Q 2388 397 2633 464 
Q 2878 531 3122 666 
L 3122 134 
Q 2881 22 2623 -34 
Q 2366 -91 2075 -91 
Q 1284 -91 818 406 
Q 353 903 353 1747 
Q 353 2603 823 3093 
Q 1294 3584 2113 3584 
Q 2378 3584 2631 3529 
Q 2884 3475 3122 3366 
z
" transform="scale(0.015625)"/>
     <path id="DejaVuSans-6c" d="M 603 4863 
L 1178 4863 
L 1178 0 
L 603 0 
L 603 4863 
z
" transform="scale(0.015625)"/>
     <path id="DejaVuSans-65" d="M 3597 1894 
L 3597 1613 
L 953 1613 
Q 991 1019 1311 708 
Q 1631 397 2203 397 
Q 2534 397 2845 478 
Q 3156 559 3463 722 
L 3463 178 
Q 3153 47 2828 -22 
Q 2503 -91 2169 -91 
Q 1331 -91 842 396 
Q 353 884 353 1716 
Q 353 2575 817 3079 
Q 1281 3584 2069 3584 
Q 2775 3584 3186 3129 
Q 3597 2675 3597 1894 
z
M 3022 2063 
Q 3016 2534 2758 2815 
Q 2500 3097 2075 3097 
Q 1594 3097 1305 2825 
Q 1016 2553 972 2059 
L 3022 2063 
z
" transform="scale(0.015625)"/>
     <path id="DejaVuSans-61" d="M 2194 1759 
Q 1497 1759 1228 1600 
Q 959 1441 959 1056 
Q 959 750 1161 570 
Q 1363 391 1709 391 
Q 2188 391 2477 730 
Q 2766 1069 2766 1631 
L 2766 1759 
L 2194 1759 
z
M 3341 1997 
L 3341 0 
L 2766 0 
L 2766 531 
Q 2569 213 2275 61 
Q 1981 -91 1556 -91 
Q 1019 -91 701 211 
Q 384 513 384 1019 
Q 384 1609 779 1909 
Q 1175 2209 1959 2209 
L 2766 2209 
L 2766 2266 
Q 2766 2663 2505 2880 
Q 2244 3097 1772 3097 
Q 1472 3097 1187 3025 
Q 903 2953 641 2809 
L 641 3341 
Q 956 3463 1253 3523 
Q 1550 3584 1831 3584 
Q 2591 3584 2966 3190 
Q 3341 2797 3341 1997 
z
" transform="scale(0.015625)"/>
     <path id="DejaVuSans-6e" d="M 3513 2113 
L 3513 0 
L 2938 0 
L 2938 2094 
Q 2938 2591 2744 2837 
Q 2550 3084 2163 3084 
Q 1697 3084 1428 2787 
Q 1159 2491 1159 1978 
L 1159 0 
L 581 0 
L 581 3500 
L 1159 3500 
L 1159 2956 
Q 1366 3272 1645 3428 
Q 1925 3584 2291 3584 
Q 2894 3584 3203 3211 
Q 3513 2838 3513 2113 
z
" transform="scale(0.015625)"/>
     <path id="DejaVuSans-64" d="M 2906 2969 
L 2906 4863 
L 3481 4863 
L 3481 0 
L 2906 0 
L 2906 525 
Q 2725 213 2448 61 
Q 2172 -91 1784 -91 
Q 1150 -91 751 415 
Q 353 922 353 1747 
Q 353 2572 751 3078 
Q 1150 3584 1784 3584 
Q 2172 3584 2448 3432 
Q 2725 3281 2906 2969 
z
M 947 1747 
Q 947 1113 1208 752 
Q 1469 391 1925 391 
Q 2381 391 2643 752 
Q 2906 1113 2906 1747 
Q 2906 2381 2643 2742 
Q 2381 3103 1925 3103 
Q 1469 3103 1208 2742 
Q 947 2381 947 1747 
z
" transform="scale(0.015625)"/>
     <path id="DejaVuSans-5f" d="M 3263 -1063 
L 3263 -1509 
L -63 -1509 
L -63 -1063 
L 3263 -1063 
z
" transform="scale(0.015625)"/>
     <path id="DejaVuSans-77" d="M 269 3500 
L 844 3500 
L 1563 769 
L 2278 3500 
L 2956 3500 
L 3675 769 
L 4391 3500 
L 4966 3500 
L 4050 0 
L 3372 0 
L 2619 2869 
L 1863 0 
L 1184 0 
L 269 3500 
z
" transform="scale(0.015625)"/>
     <path id="DejaVuSans-74" d="M 1172 4494 
L 1172 3500 
L 2356 3500 
L 2356 3053 
L 1172 3053 
L 1172 1153 
Q 1172 725 1289 603 
Q 1406 481 1766 481 
L 2356 481 
L 2356 0 
L 1766 0 
Q 1100 0 847 248 
Q 594 497 594 1153 
L 594 3053 
L 172 3053 
L 172 3500 
L 594 3500 
L 594 4494 
L 1172 4494 
z
" transform="scale(0.015625)"/>
     <path id="DejaVuSans-68" d="M 3513 2113 
L 3513 0 
L 2938 0 
L 2938 2094 
Q 2938 2591 2744 2837 
Q 2550 3084 2163 3084 
Q 1697 3084 1428 2787 
Q 1159 2491 1159 1978 
L 1159 0 
L 581 0 
L 581 4863 
L 1159 4863 
L 1159 2956 
Q 1366 3272 1645 3428 
Q 1925 3584 2291 3584 
Q 2894 3584 3203 3211 
Q 3513 2838 3513 2113 
z
" transform="scale(0.015625)"/>
     <path id="DejaVuSans-72" d="M 2631 2963 
Q 2534 3019 2420 3045 
Q 2306 3072 2169 3072 
Q 1681 3072 1420 2755 
Q 1159 2438 1159 1844 
L 1159 0 
L 581 0 
L 581 3500 
L 1159 3500 
L 1159 2956 
Q 1341 3275 1631 3429 
Q 1922 3584 2338 3584 
Q 2397 3584 2469 3576 
Q 2541 3569 2628 3553 
L 2631 2963 
z
" transform="scale(0.015625)"/>
     <path id="DejaVuSans-66" d="M 2375 4863 
L 2375 4384 
L 1825 4384 
Q 1516 4384 1395 4259 
Q 1275 4134 1275 3809 
L 1275 3500 
L 2222 3500 
L 2222 3053 
L 1275 3053 
L 1275 0 
L 697 0 
L 697 3053 
L 147 3053 
L 147 3500 
L 697 3500 
L 697 3744 
Q 697 4328 969 4595 
Q 1241 4863 1831 4863 
L 2375 4863 
z
" transform="scale(0.015625)"/>
    </defs>
    <use xlink:href="#DejaVuSans-63"/>
    <use xlink:href="#DejaVuSans-6c" x="54.980469"/>
    <use xlink:href="#DejaVuSans-65" x="82.763672"/>
    <use xlink:href="#DejaVuSans-61" x="144.287109"/>
    <use xlink:href="#DejaVuSans-6e" x="205.566406"/>
    <use xlink:href="#DejaVuSans-65" x="268.945312"/>
    <use xlink:href="#DejaVuSans-64" x="330.46875"/>
    <use xlink:href="#DejaVuSans-5f" x="393.945312"/>
    <use xlink:href="#DejaVuSans-77" x="443.945312"/>
    <use xlink:href="#DejaVuSans-65" x="525.732422"/>
    <use xlink:href="#DejaVuSans-61" x="587.255859"/>
    <use xlink:href="#DejaVuSans-74" x="648.535156"/>
    <use xlink:href="#DejaVuSans-68" x="687.744141"/>
    <use xlink:href="#DejaVuSans-65" x="751.123047"/>
    <use xlink:href="#DejaVuSans-72" x="812.646484"/>
    <use xlink:href="#DejaVuSans-5f" x="853.759766"/>
    <use xlink:href="#DejaVuSans-66" x="903.759766"/>
    <use xlink:href="#DejaVuSans-61" x="938.964844"/>
    <use xlink:href="#DejaVuSans-6c" x="1000.244141"/>
    <use xlink:href="#DejaVuSans-6c" x="1028.027344"/>
   </g>
  </g>
 </g>
 <defs>
  <clipPath id="pa4896575d0">
   <rect x="57.6" y="41.472" width="357.12" height="78.268235"/>
  </clipPath>
  <clipPath id="pa7962e70ff">
   <rect x="57.6" y="135.393882" width="357.12" height="78.268235"/>
  </clipPath>
  <clipPath id="p2de1bbceb6">
   <rect x="57.6" y="229.315765" width="357.12" height="78.268235"/>
  </clipPath>
 </defs>
</svg>
