<?xml version="1.0" encoding="utf-8" standalone="no"?>
<!DOCTYPE svg PUBLIC "-//W3C//DTD SVG 1.1//EN"
  "http://www.w3.org/Graphics/SVG/1.1/DTD/svg11.dtd">
<svg xmlns:xlink="http://www.w3.org/1999/xlink" width="460.8pt" height="345.6pt" viewBox="0 0 460.8 345.6" xmlns="http://www.w3.org/2000/svg" version="1.1">
 <metadata>
  <rdf:RDF xmlns:dc="http://purl.org/dc/elements/1.1/" xmlns:cc="http://creativecommons.org/ns#" xmlns:rdf="http://www.w3.org/1999/02/22-rdf-syntax-ns#">
   <cc:Work>
    <dc:type rdf:resource="http://purl.org/dc/dcmitype/StillImage"/>
    <dc:date>2023-03-28T23:57:19.779973</dc:date>
    <dc:format>image/svg+xml</dc:format>
    <dc:creator>
     <cc:Agent>
      <dc:title>Matplotlib v3.7.1, https://matplotlib.org/</dc:title>
     </cc:Agent>
    </dc:creator>
   </cc:Work>
  </rdf:RDF>
 </metadata>
 <defs>
  <style type="text/css">*{stroke-linejoin: round; stroke-linecap: butt}</style>
 </defs>
 <g id="figure_1">
  <g id="patch_1">
   <path d="M 0 345.6 
L 460.8 345.6 
L 460.8 0 
L 0 0 
z
" style="fill: #ffffff"/>
  </g>
  <g id="axes_1">
   <g id="patch_2">
    <path d="M 57.6 119.740235 
L 414.72 119.740235 
L 414.72 41.472 
L 57.6 41.472 
z
" style="fill: #ffffff"/>
   </g>
   <g id="matplotlib.axis_1">
    <g id="xtick_1">
     <g id="line2d_1">
      <defs>
       <path id="m9ba1da21af" d="M 0 0 
L 0 3.5 
" style="stroke: #000000; stroke-width: 0.8"/>
      </defs>
      <g>
       <use xlink:href="#m9ba1da21af" x="73.832727" y="119.740235" style="stroke: #000000; stroke-width: 0.8"/>
      </g>
     </g>
     <g id="text_1">
      <!-- 0 -->
      <g transform="translate(70.651477 134.338673) scale(0.1 -0.1)">
       <defs>
        <path id="DejaVuSans-30" d="M 2034 4250 
Q 1547 4250 1301 3770 
Q 1056 3291 1056 2328 
Q 1056 1369 1301 889 
Q 1547 409 2034 409 
Q 2525 409 2770 889 
Q 3016 1369 3016 2328 
Q 3016 3291 2770 3770 
Q 2525 4250 2034 4250 
z
M 2034 4750 
Q 2819 4750 3233 4129 
Q 3647 3509 3647 2328 
Q 3647 1150 3233 529 
Q 2819 -91 2034 -91 
Q 1250 -91 836 529 
Q 422 1150 422 2328 
Q 422 3509 836 4129 
Q 1250 4750 2034 4750 
z
" transform="scale(0.015625)"/>
       </defs>
       <use xlink:href="#DejaVuSans-30"/>
      </g>
     </g>
    </g>
    <g id="xtick_2">
     <g id="line2d_2">
      <g>
       <use xlink:href="#m9ba1da21af" x="128.017074" y="119.740235" style="stroke: #000000; stroke-width: 0.8"/>
      </g>
     </g>
     <g id="text_2">
      <!-- 5 -->
      <g transform="translate(124.835824 134.338673) scale(0.1 -0.1)">
       <defs>
        <path id="DejaVuSans-35" d="M 691 4666 
L 3169 4666 
L 3169 4134 
L 1269 4134 
L 1269 2991 
Q 1406 3038 1543 3061 
Q 1681 3084 1819 3084 
Q 2600 3084 3056 2656 
Q 3513 2228 3513 1497 
Q 3513 744 3044 326 
Q 2575 -91 1722 -91 
Q 1428 -91 1123 -41 
Q 819 9 494 109 
L 494 744 
Q 775 591 1075 516 
Q 1375 441 1709 441 
Q 2250 441 2565 725 
Q 2881 1009 2881 1497 
Q 2881 1984 2565 2268 
Q 2250 2553 1709 2553 
Q 1456 2553 1204 2497 
Q 953 2441 691 2322 
L 691 4666 
z
" transform="scale(0.015625)"/>
       </defs>
       <use xlink:href="#DejaVuSans-35"/>
      </g>
     </g>
    </g>
    <g id="xtick_3">
     <g id="line2d_3">
      <g>
       <use xlink:href="#m9ba1da21af" x="182.201421" y="119.740235" style="stroke: #000000; stroke-width: 0.8"/>
      </g>
     </g>
     <g id="text_3">
      <!-- 10 -->
      <g transform="translate(175.838921 134.338673) scale(0.1 -0.1)">
       <defs>
        <path id="DejaVuSans-31" d="M 794 531 
L 1825 531 
L 1825 4091 
L 703 3866 
L 703 4441 
L 1819 4666 
L 2450 4666 
L 2450 531 
L 3481 531 
L 3481 0 
L 794 0 
L 794 531 
z
" transform="scale(0.015625)"/>
       </defs>
       <use xlink:href="#DejaVuSans-31"/>
       <use xlink:href="#DejaVuSans-30" x="63.623047"/>
      </g>
     </g>
    </g>
    <g id="xtick_4">
     <g id="line2d_4">
      <g>
       <use xlink:href="#m9ba1da21af" x="236.385768" y="119.740235" style="stroke: #000000; stroke-width: 0.8"/>
      </g>
     </g>
     <g id="text_4">
      <!-- 15 -->
      <g transform="translate(230.023268 134.338673) scale(0.1 -0.1)">
       <use xlink:href="#DejaVuSans-31"/>
       <use xlink:href="#DejaVuSans-35" x="63.623047"/>
      </g>
     </g>
    </g>
    <g id="xtick_5">
     <g id="line2d_5">
      <g>
       <use xlink:href="#m9ba1da21af" x="290.570115" y="119.740235" style="stroke: #000000; stroke-width: 0.8"/>
      </g>
     </g>
     <g id="text_5">
      <!-- 20 -->
      <g transform="translate(284.207615 134.338673) scale(0.1 -0.1)">
       <defs>
        <path id="DejaVuSans-32" d="M 1228 531 
L 3431 531 
L 3431 0 
L 469 0 
L 469 531 
Q 828 903 1448 1529 
Q 2069 2156 2228 2338 
Q 2531 2678 2651 2914 
Q 2772 3150 2772 3378 
Q 2772 3750 2511 3984 
Q 2250 4219 1831 4219 
Q 1534 4219 1204 4116 
Q 875 4013 500 3803 
L 500 4441 
Q 881 4594 1212 4672 
Q 1544 4750 1819 4750 
Q 2544 4750 2975 4387 
Q 3406 4025 3406 3419 
Q 3406 3131 3298 2873 
Q 3191 2616 2906 2266 
Q 2828 2175 2409 1742 
Q 1991 1309 1228 531 
z
" transform="scale(0.015625)"/>
       </defs>
       <use xlink:href="#DejaVuSans-32"/>
       <use xlink:href="#DejaVuSans-30" x="63.623047"/>
      </g>
     </g>
    </g>
    <g id="xtick_6">
     <g id="line2d_6">
      <g>
       <use xlink:href="#m9ba1da21af" x="344.754462" y="119.740235" style="stroke: #000000; stroke-width: 0.8"/>
      </g>
     </g>
     <g id="text_6">
      <!-- 25 -->
      <g transform="translate(338.391962 134.338673) scale(0.1 -0.1)">
       <use xlink:href="#DejaVuSans-32"/>
       <use xlink:href="#DejaVuSans-35" x="63.623047"/>
      </g>
     </g>
    </g>
    <g id="xtick_7">
     <g id="line2d_7">
      <g>
       <use xlink:href="#m9ba1da21af" x="398.938809" y="119.740235" style="stroke: #000000; stroke-width: 0.8"/>
      </g>
     </g>
     <g id="text_7">
      <!-- 30 -->
      <g transform="translate(392.576309 134.338673) scale(0.1 -0.1)">
       <defs>
        <path id="DejaVuSans-33" d="M 2597 2516 
Q 3050 2419 3304 2112 
Q 3559 1806 3559 1356 
Q 3559 666 3084 287 
Q 2609 -91 1734 -91 
Q 1441 -91 1130 -33 
Q 819 25 488 141 
L 488 750 
Q 750 597 1062 519 
Q 1375 441 1716 441 
Q 2309 441 2620 675 
Q 2931 909 2931 1356 
Q 2931 1769 2642 2001 
Q 2353 2234 1838 2234 
L 1294 2234 
L 1294 2753 
L 1863 2753 
Q 2328 2753 2575 2939 
Q 2822 3125 2822 3475 
Q 2822 3834 2567 4026 
Q 2313 4219 1838 4219 
Q 1578 4219 1281 4162 
Q 984 4106 628 3988 
L 628 4550 
Q 988 4650 1302 4700 
Q 1616 4750 1894 4750 
Q 2613 4750 3031 4423 
Q 3450 4097 3450 3541 
Q 3450 3153 3228 2886 
Q 3006 2619 2597 2516 
z
" transform="scale(0.015625)"/>
       </defs>
       <use xlink:href="#DejaVuSans-33"/>
       <use xlink:href="#DejaVuSans-30" x="63.623047"/>
      </g>
     </g>
    </g>
   </g>
   <g id="matplotlib.axis_2">
    <g id="ytick_1">
     <g id="line2d_8">
      <defs>
       <path id="m75ddf4f115" d="M 0 0 
L -3.5 0 
" style="stroke: #000000; stroke-width: 0.8"/>
      </defs>
      <g>
       <use xlink:href="#m75ddf4f115" x="57.6" y="118.275322" style="stroke: #000000; stroke-width: 0.8"/>
      </g>
     </g>
     <g id="text_8">
      <!-- 0 -->
      <g transform="translate(44.2375 122.074541) scale(0.1 -0.1)">
       <use xlink:href="#DejaVuSans-30"/>
      </g>
     </g>
    </g>
    <g id="ytick_2">
     <g id="line2d_9">
      <g>
       <use xlink:href="#m75ddf4f115" x="57.6" y="76.420651" style="stroke: #000000; stroke-width: 0.8"/>
      </g>
     </g>
     <g id="text_9">
      <!-- 20 -->
      <g transform="translate(37.875 80.219869) scale(0.1 -0.1)">
       <use xlink:href="#DejaVuSans-32"/>
       <use xlink:href="#DejaVuSans-30" x="63.623047"/>
      </g>
     </g>
    </g>
   </g>
   <g id="line2d_10">
    <path d="M 73.832727 95.255253 
L 74.284263 95.255253 
L 74.7358 101.533453 
L 75.187336 105.71892 
L 75.638872 105.71892 
L 76.090408 103.626187 
L 76.541945 105.71892 
L 76.993481 103.626187 
L 77.445017 103.626187 
L 78.34809 86.884318 
L 78.799626 82.698851 
L 80.154234 82.698851 
L 81.508843 76.420651 
L 81.960379 78.513384 
L 82.411916 82.698851 
L 83.314988 99.44072 
L 83.766524 93.162519 
L 84.21806 91.069785 
L 84.669597 86.884318 
L 85.121133 84.791585 
L 86.024205 72.235183 
L 86.475742 74.327917 
L 86.927278 80.606118 
L 87.378814 82.698851 
L 87.83035 86.884318 
L 88.281886 82.698851 
L 90.088031 74.327917 
L 90.539568 74.327917 
L 90.991104 72.235183 
L 91.44264 72.235183 
L 91.894176 74.327917 
L 92.345712 74.327917 
L 93.248785 86.884318 
L 93.700321 91.069785 
L 94.603394 95.255253 
L 95.05493 99.44072 
L 95.958002 99.44072 
L 96.409539 101.533453 
L 96.861075 95.255253 
L 98.215683 101.533453 
L 98.66722 99.44072 
L 99.570292 103.626187 
L 100.473365 103.626187 
L 100.924901 105.71892 
L 102.731046 105.71892 
L 103.182582 99.44072 
L 104.085654 91.069785 
L 104.537191 97.347986 
L 104.988727 99.44072 
L 105.440263 99.44072 
L 106.343335 103.626187 
L 107.697944 103.626187 
L 109.052553 109.904388 
L 109.504089 105.71892 
L 109.955625 93.162519 
L 110.407161 86.884318 
L 110.858698 78.513384 
L 111.76177 74.327917 
L 112.213306 84.791585 
L 112.664843 88.977052 
L 114.019451 88.977052 
L 114.470987 91.069785 
L 115.37406 91.069785 
L 115.825596 93.162519 
L 118.534814 93.162519 
L 119.437886 88.977052 
L 119.889422 84.791585 
L 120.340958 82.698851 
L 120.792495 82.698851 
L 121.244031 91.069785 
L 126.210929 91.069785 
L 126.662466 93.162519 
L 127.565538 93.162519 
L 128.017074 91.069785 
L 128.46861 86.884318 
L 129.371683 74.327917 
L 129.823219 70.14245 
L 130.726292 65.956983 
L 131.629364 65.956983 
L 132.0809 68.049716 
L 133.435509 80.606118 
L 133.887045 80.606118 
L 134.338581 82.698851 
L 134.790118 82.698851 
L 135.241654 84.791585 
L 135.69319 88.977052 
L 136.144726 88.977052 
L 136.596262 91.069785 
L 138.853944 91.069785 
L 139.30548 88.977052 
L 139.757016 84.791585 
L 140.208552 76.420651 
L 141.111625 68.049716 
L 141.563161 68.049716 
L 142.466233 63.864249 
L 142.91777 63.864249 
L 143.369306 59.678782 
L 143.820842 53.400581 
L 144.723915 49.215114 
L 145.175451 49.215114 
L 146.078523 45.029647 
L 146.530059 45.029647 
L 146.981596 47.122381 
L 147.433132 51.307848 
L 148.336204 68.049716 
L 148.787741 74.327917 
L 149.239277 76.420651 
L 149.690813 74.327917 
L 150.142349 80.606118 
L 151.496958 86.884318 
L 151.948494 86.884318 
L 152.851567 82.698851 
L 153.303103 76.420651 
L 154.206175 72.235183 
L 154.657711 68.049716 
L 155.109248 74.327917 
L 155.560784 74.327917 
L 156.01232 72.235183 
L 156.463856 76.420651 
L 156.915393 76.420651 
L 157.366929 78.513384 
L 158.721537 91.069785 
L 160.076146 91.069785 
L 160.527682 93.162519 
L 160.979219 88.977052 
L 161.430755 80.606118 
L 162.333827 68.049716 
L 164.139972 59.678782 
L 165.043045 59.678782 
L 165.494581 57.586048 
L 165.946117 59.678782 
L 166.84919 68.049716 
L 167.300726 78.513384 
L 170.009943 65.956983 
L 170.461479 68.049716 
L 170.913016 68.049716 
L 171.364552 74.327917 
L 172.71916 80.606118 
L 173.170697 80.606118 
L 174.525305 86.884318 
L 174.976842 82.698851 
L 175.428378 84.791585 
L 175.879914 82.698851 
L 176.782986 74.327917 
L 177.234523 74.327917 
L 178.589131 68.049716 
L 179.040668 68.049716 
L 179.492204 70.14245 
L 180.395276 78.513384 
L 180.846812 74.327917 
L 181.298349 82.698851 
L 181.749885 82.698851 
L 182.201421 80.606118 
L 182.652957 82.698851 
L 183.55603 99.44072 
L 184.007566 103.626187 
L 184.459102 103.626187 
L 184.910639 105.71892 
L 186.265247 105.71892 
L 186.716783 109.904388 
L 187.619856 91.069785 
L 188.071392 84.791585 
L 188.522928 84.791585 
L 188.974465 82.698851 
L 189.426001 82.698851 
L 189.877537 80.606118 
L 190.329073 82.698851 
L 190.780609 82.698851 
L 191.232146 86.884318 
L 191.683682 84.791585 
L 192.135218 84.791585 
L 192.586754 88.977052 
L 193.038291 95.255253 
L 193.489827 99.44072 
L 194.392899 103.626187 
L 195.295972 103.626187 
L 195.747508 105.71892 
L 196.199044 105.71892 
L 197.553653 111.997121 
L 198.005189 111.997121 
L 198.456725 99.44072 
L 198.908261 105.71892 
L 199.359798 109.904388 
L 200.26287 114.089855 
L 200.714406 111.997121 
L 201.165943 105.71892 
L 201.617479 101.533453 
L 202.520551 84.791585 
L 203.423624 72.235183 
L 203.87516 74.327917 
L 204.326696 80.606118 
L 204.778232 91.069785 
L 205.229769 86.884318 
L 205.681305 95.255253 
L 206.132841 97.347986 
L 206.584377 97.347986 
L 207.035914 93.162519 
L 207.48745 91.069785 
L 208.842058 91.069785 
L 209.293595 86.884318 
L 210.196667 74.327917 
L 210.648203 72.235183 
L 212.002812 72.235183 
L 212.905884 68.049716 
L 213.357421 68.049716 
L 214.260493 84.791585 
L 214.712029 82.698851 
L 215.163566 78.513384 
L 216.066638 74.327917 
L 216.518174 74.327917 
L 217.872783 68.049716 
L 218.324319 68.049716 
L 219.227392 84.791585 
L 219.678928 82.698851 
L 220.582 86.884318 
L 221.033536 86.884318 
L 221.936609 91.069785 
L 222.388145 84.791585 
L 222.839681 82.698851 
L 223.742754 74.327917 
L 224.19429 72.235183 
L 225.097362 72.235183 
L 225.548899 74.327917 
L 226.451971 82.698851 
L 228.258116 91.069785 
L 229.161189 86.884318 
L 229.612725 82.698851 
L 230.064261 84.791585 
L 230.515797 78.513384 
L 230.967333 74.327917 
L 231.41887 72.235183 
L 231.870406 74.327917 
L 232.321942 72.235183 
L 232.773478 68.049716 
L 233.676551 68.049716 
L 234.579623 72.235183 
L 235.482696 72.235183 
L 235.934232 68.049716 
L 236.385768 65.956983 
L 236.837304 61.771516 
L 237.288841 59.678782 
L 237.740377 61.771516 
L 238.191913 65.956983 
L 238.643449 68.049716 
L 239.094985 72.235183 
L 239.546522 74.327917 
L 239.998058 72.235183 
L 240.90113 72.235183 
L 241.352667 74.327917 
L 241.804203 72.235183 
L 242.707275 72.235183 
L 243.158811 74.327917 
L 243.610348 72.235183 
L 244.51342 72.235183 
L 244.964956 74.327917 
L 245.416493 82.698851 
L 245.868029 86.884318 
L 246.319565 88.977052 
L 247.674174 88.977052 
L 248.577246 93.162519 
L 249.028782 88.977052 
L 249.931855 72.235183 
L 250.834927 68.049716 
L 251.286464 63.864249 
L 251.738 63.864249 
L 252.189536 59.678782 
L 252.641072 53.400581 
L 253.544145 49.215114 
L 253.995681 49.215114 
L 254.898753 45.029647 
L 255.801826 45.029647 
L 256.253362 47.122381 
L 256.704898 51.307848 
L 257.607971 68.049716 
L 258.059507 74.327917 
L 258.511043 76.420651 
L 258.962579 74.327917 
L 259.414116 80.606118 
L 260.768724 86.884318 
L 261.22026 86.884318 
L 261.671797 80.606118 
L 262.574869 57.586048 
L 263.477942 49.215114 
L 263.929478 49.215114 
L 264.381014 53.400581 
L 264.83255 59.678782 
L 265.284086 57.586048 
L 265.735623 61.771516 
L 266.187159 59.678782 
L 266.638695 63.864249 
L 267.090231 63.864249 
L 267.541768 68.049716 
L 268.44484 80.606118 
L 270.250985 88.977052 
L 270.702521 88.977052 
L 272.05713 82.698851 
L 272.508666 76.420651 
L 273.411739 72.235183 
L 273.863275 68.049716 
L 274.314811 74.327917 
L 274.766347 74.327917 
L 275.217883 72.235183 
L 275.66942 76.420651 
L 276.120956 76.420651 
L 276.572492 78.513384 
L 277.927101 91.069785 
L 278.830173 91.069785 
L 279.281709 88.977052 
L 279.733246 82.698851 
L 280.184782 80.606118 
L 280.636318 88.977052 
L 281.539391 93.162519 
L 281.990927 93.162519 
L 282.442463 95.255253 
L 282.893999 93.162519 
L 283.345535 84.791585 
L 285.603217 95.255253 
L 286.054753 95.255253 
L 286.506289 91.069785 
L 286.957825 97.347986 
L 288.312434 103.626187 
L 288.76397 103.626187 
L 289.215506 105.71892 
L 289.667043 105.71892 
L 290.118579 107.811654 
L 291.021651 107.811654 
L 291.473188 109.904388 
L 291.924724 109.904388 
L 292.37626 103.626187 
L 293.279332 99.44072 
L 293.730869 101.533453 
L 294.182405 101.533453 
L 295.085477 105.71892 
L 295.537014 105.71892 
L 295.98855 109.904388 
L 296.440086 111.997121 
L 296.891622 105.71892 
L 297.343158 105.71892 
L 297.794695 103.626187 
L 298.246231 103.626187 
L 299.149303 99.44072 
L 299.60084 93.162519 
L 300.052376 91.069785 
L 300.955448 82.698851 
L 301.406984 88.977052 
L 301.858521 91.069785 
L 302.310057 86.884318 
L 302.761593 86.884318 
L 304.116202 93.162519 
L 304.567738 93.162519 
L 305.019274 95.255253 
L 305.47081 93.162519 
L 306.373883 97.347986 
L 307.728492 97.347986 
L 309.0831 103.626187 
L 309.534636 103.626187 
L 309.986173 105.71892 
L 310.437709 103.626187 
L 310.889245 105.71892 
L 311.340781 105.71892 
L 311.792318 109.904388 
L 312.243854 109.904388 
L 313.146926 114.089855 
L 313.598463 111.997121 
L 314.049999 111.997121 
L 314.501535 105.71892 
L 314.953071 101.533453 
L 315.856144 84.791585 
L 317.662289 84.791585 
L 318.113825 91.069785 
L 319.016897 91.069785 
L 319.468433 99.44072 
L 319.91997 103.626187 
L 320.371506 103.626187 
L 320.823042 101.533453 
L 321.274578 103.626187 
L 323.080723 103.626187 
L 323.532259 95.255253 
L 323.983796 99.44072 
L 324.886868 99.44072 
L 325.338404 101.533453 
L 325.789941 101.533453 
L 326.693013 109.904388 
L 327.144549 105.71892 
L 327.596085 105.71892 
L 328.047622 101.533453 
L 328.499158 99.44072 
L 328.950694 103.626187 
L 329.853767 99.44072 
L 330.305303 99.44072 
L 330.756839 95.255253 
L 331.208375 95.255253 
L 331.659911 91.069785 
L 332.111448 93.162519 
L 332.562984 91.069785 
L 333.01452 91.069785 
L 333.466056 103.626187 
L 333.917593 97.347986 
L 334.369129 95.255253 
L 335.723738 101.533453 
L 336.175274 101.533453 
L 336.62681 105.71892 
L 337.529882 105.71892 
L 338.432955 109.904388 
L 340.2391 109.904388 
L 340.690636 111.997121 
L 341.142172 105.71892 
L 341.593708 101.533453 
L 342.496781 84.791585 
L 343.399853 84.791585 
L 343.85139 86.884318 
L 344.302926 91.069785 
L 344.754462 88.977052 
L 345.205998 88.977052 
L 346.109071 97.347986 
L 347.012143 93.162519 
L 348.366752 99.44072 
L 348.818288 99.44072 
L 349.269824 101.533453 
L 350.172897 101.533453 
L 351.075969 105.71892 
L 351.527505 103.626187 
L 351.979042 105.71892 
L 352.882114 101.533453 
L 353.33365 97.347986 
L 354.236723 97.347986 
L 354.688259 95.255253 
L 355.139795 91.069785 
L 355.591331 93.162519 
L 356.042868 91.069785 
L 356.494404 91.069785 
L 356.94594 88.977052 
L 357.397476 88.977052 
L 358.300549 97.347986 
L 359.203621 93.162519 
L 360.55823 99.44072 
L 361.461302 99.44072 
L 361.912839 101.533453 
L 362.364375 99.44072 
L 362.815911 99.44072 
L 363.267447 101.533453 
L 363.718983 101.533453 
L 364.17052 105.71892 
L 365.073592 101.533453 
L 365.976665 88.977052 
L 366.428201 84.791585 
L 367.331273 80.606118 
L 368.234346 84.791585 
L 370.040491 101.533453 
L 370.943563 105.71892 
L 371.846635 105.71892 
L 373.201244 93.162519 
L 373.65278 91.069785 
L 374.104317 93.162519 
L 375.910461 93.162519 
L 376.813534 97.347986 
L 377.26507 101.533453 
L 378.168143 114.089855 
L 378.619679 116.182588 
L 379.522751 116.182588 
L 379.974288 114.089855 
L 380.87736 114.089855 
L 381.328896 116.182588 
L 381.780432 114.089855 
L 382.231969 109.904388 
L 382.683505 109.904388 
L 384.48965 101.533453 
L 387.198867 101.533453 
L 388.10194 105.71892 
L 388.553476 111.997121 
L 389.005012 114.089855 
L 389.456548 114.089855 
L 389.908084 107.811654 
L 390.359621 105.71892 
L 391.714229 93.162519 
L 392.165766 95.255253 
L 392.617302 95.255253 
L 394.874983 105.71892 
L 396.229592 105.71892 
L 396.681128 109.904388 
L 397.132664 111.997121 
L 397.5842 109.904388 
L 398.035737 114.089855 
L 398.487273 107.811654 
L 398.487273 107.811654 
" clip-path="url(#pd7bc1c21d0)" style="fill: none; stroke: #1f77b4; stroke-width: 1.5; stroke-linecap: square"/>
   </g>
   <g id="patch_3">
    <path d="M 57.6 119.740235 
L 57.6 41.472 
" style="fill: none; stroke: #000000; stroke-width: 0.8; stroke-linejoin: miter; stroke-linecap: square"/>
   </g>
   <g id="patch_4">
    <path d="M 414.72 119.740235 
L 414.72 41.472 
" style="fill: none; stroke: #000000; stroke-width: 0.8; stroke-linejoin: miter; stroke-linecap: square"/>
   </g>
   <g id="patch_5">
    <path d="M 57.6 119.740235 
L 414.72 119.740235 
" style="fill: none; stroke: #000000; stroke-width: 0.8; stroke-linejoin: miter; stroke-linecap: square"/>
   </g>
   <g id="patch_6">
    <path d="M 57.6 41.472 
L 414.72 41.472 
" style="fill: none; stroke: #000000; stroke-width: 0.8; stroke-linejoin: miter; stroke-linecap: square"/>
   </g>
  </g>
  <g id="axes_2">
   <g id="patch_7">
    <path d="M 57.6 213.662118 
L 414.72 213.662118 
L 414.72 135.393882 
L 57.6 135.393882 
z
" style="fill: #ffffff"/>
   </g>
   <g id="matplotlib.axis_3">
    <g id="xtick_8">
     <g id="line2d_11">
      <g>
       <use xlink:href="#m9ba1da21af" x="73.832727" y="213.662118" style="stroke: #000000; stroke-width: 0.8"/>
      </g>
     </g>
     <g id="text_10">
      <!-- 0 -->
      <g transform="translate(70.651477 228.260555) scale(0.1 -0.1)">
       <use xlink:href="#DejaVuSans-30"/>
      </g>
     </g>
    </g>
    <g id="xtick_9">
     <g id="line2d_12">
      <g>
       <use xlink:href="#m9ba1da21af" x="128.017074" y="213.662118" style="stroke: #000000; stroke-width: 0.8"/>
      </g>
     </g>
     <g id="text_11">
      <!-- 5 -->
      <g transform="translate(124.835824 228.260555) scale(0.1 -0.1)">
       <use xlink:href="#DejaVuSans-35"/>
      </g>
     </g>
    </g>
    <g id="xtick_10">
     <g id="line2d_13">
      <g>
       <use xlink:href="#m9ba1da21af" x="182.201421" y="213.662118" style="stroke: #000000; stroke-width: 0.8"/>
      </g>
     </g>
     <g id="text_12">
      <!-- 10 -->
      <g transform="translate(175.838921 228.260555) scale(0.1 -0.1)">
       <use xlink:href="#DejaVuSans-31"/>
       <use xlink:href="#DejaVuSans-30" x="63.623047"/>
      </g>
     </g>
    </g>
    <g id="xtick_11">
     <g id="line2d_14">
      <g>
       <use xlink:href="#m9ba1da21af" x="236.385768" y="213.662118" style="stroke: #000000; stroke-width: 0.8"/>
      </g>
     </g>
     <g id="text_13">
      <!-- 15 -->
      <g transform="translate(230.023268 228.260555) scale(0.1 -0.1)">
       <use xlink:href="#DejaVuSans-31"/>
       <use xlink:href="#DejaVuSans-35" x="63.623047"/>
      </g>
     </g>
    </g>
    <g id="xtick_12">
     <g id="line2d_15">
      <g>
       <use xlink:href="#m9ba1da21af" x="290.570115" y="213.662118" style="stroke: #000000; stroke-width: 0.8"/>
      </g>
     </g>
     <g id="text_14">
      <!-- 20 -->
      <g transform="translate(284.207615 228.260555) scale(0.1 -0.1)">
       <use xlink:href="#DejaVuSans-32"/>
       <use xlink:href="#DejaVuSans-30" x="63.623047"/>
      </g>
     </g>
    </g>
    <g id="xtick_13">
     <g id="line2d_16">
      <g>
       <use xlink:href="#m9ba1da21af" x="344.754462" y="213.662118" style="stroke: #000000; stroke-width: 0.8"/>
      </g>
     </g>
     <g id="text_15">
      <!-- 25 -->
      <g transform="translate(338.391962 228.260555) scale(0.1 -0.1)">
       <use xlink:href="#DejaVuSans-32"/>
       <use xlink:href="#DejaVuSans-35" x="63.623047"/>
      </g>
     </g>
    </g>
    <g id="xtick_14">
     <g id="line2d_17">
      <g>
       <use xlink:href="#m9ba1da21af" x="398.938809" y="213.662118" style="stroke: #000000; stroke-width: 0.8"/>
      </g>
     </g>
     <g id="text_16">
      <!-- 30 -->
      <g transform="translate(392.576309 228.260555) scale(0.1 -0.1)">
       <use xlink:href="#DejaVuSans-33"/>
       <use xlink:href="#DejaVuSans-30" x="63.623047"/>
      </g>
     </g>
    </g>
   </g>
   <g id="matplotlib.axis_4">
    <g id="ytick_3">
     <g id="line2d_18">
      <g>
       <use xlink:href="#m75ddf4f115" x="57.6" y="189.775059" style="stroke: #000000; stroke-width: 0.8"/>
      </g>
     </g>
     <g id="text_17">
      <!-- 50 -->
      <g transform="translate(37.875 193.574278) scale(0.1 -0.1)">
       <use xlink:href="#DejaVuSans-35"/>
       <use xlink:href="#DejaVuSans-30" x="63.623047"/>
      </g>
     </g>
    </g>
    <g id="ytick_4">
     <g id="line2d_19">
      <g>
       <use xlink:href="#m75ddf4f115" x="57.6" y="138.951529" style="stroke: #000000; stroke-width: 0.8"/>
      </g>
     </g>
     <g id="text_18">
      <!-- 100 -->
      <g transform="translate(31.5125 142.750748) scale(0.1 -0.1)">
       <use xlink:href="#DejaVuSans-31"/>
       <use xlink:href="#DejaVuSans-30" x="63.623047"/>
       <use xlink:href="#DejaVuSans-30" x="127.246094"/>
      </g>
     </g>
    </g>
   </g>
   <g id="line2d_20">
    <path d="M 73.832727 156.231529 
L 74.284263 154.198588 
L 74.7358 144.033882 
L 75.187336 139.968 
L 75.638872 140.984471 
L 76.090408 140.984471 
L 76.541945 138.951529 
L 76.993481 144.033882 
L 77.445017 139.968 
L 78.34809 175.544471 
L 78.799626 185.709176 
L 79.702698 194.857412 
L 80.154234 198.923294 
L 80.605771 200.956235 
L 81.057307 204.005647 
L 81.508843 208.071529 
L 81.960379 208.071529 
L 82.411916 204.005647 
L 82.863452 189.775059 
L 83.314988 162.330353 
L 84.21806 175.544471 
L 85.121133 184.692706 
L 85.572669 192.824471 
L 86.024205 204.005647 
L 86.475742 201.972706 
L 86.927278 194.857412 
L 87.378814 191.808 
L 87.83035 181.643294 
L 88.281886 188.758588 
L 89.636495 204.005647 
L 90.088031 205.022118 
L 90.539568 204.005647 
L 90.991104 205.022118 
L 91.894176 205.022118 
L 92.345712 202.989176 
L 92.797249 195.873882 
L 93.248785 183.676235 
L 93.700321 161.313882 
L 94.151857 157.248 
L 95.05493 143.017412 
L 95.506466 145.050353 
L 95.958002 144.033882 
L 96.409539 138.951529 
L 96.861075 145.050353 
L 97.312611 142.000941 
L 97.764147 139.968 
L 98.215683 138.951529 
L 98.66722 139.968 
L 99.118756 138.951529 
L 101.376437 138.951529 
L 101.827973 140.984471 
L 102.279509 138.951529 
L 102.731046 138.951529 
L 103.182582 144.033882 
L 103.634118 157.248 
L 104.085654 165.379765 
L 104.537191 145.050353 
L 104.988727 140.984471 
L 105.440263 138.951529 
L 109.052553 138.951529 
L 109.504089 140.984471 
L 109.955625 165.379765 
L 110.858698 187.742118 
L 111.310234 192.824471 
L 111.76177 195.873882 
L 112.213306 161.313882 
L 112.664843 142.000941 
L 113.116379 139.968 
L 113.567915 140.984471 
L 114.470987 138.951529 
L 116.277132 138.951529 
L 116.728669 139.968 
L 117.180205 142.000941 
L 117.631741 138.951529 
L 118.534814 138.951529 
L 118.98635 144.033882 
L 119.889422 170.462118 
L 120.340958 174.528 
L 120.792495 169.445647 
L 121.244031 139.968 
L 121.695567 138.951529 
L 127.114002 138.951529 
L 127.565538 139.968 
L 128.017074 146.066824 
L 129.371683 180.626824 
L 129.823219 191.808 
L 130.274755 198.923294 
L 130.726292 201.972706 
L 131.177828 200.956235 
L 132.0809 189.775059 
L 132.532436 181.643294 
L 132.983973 168.429176 
L 133.435509 145.050353 
L 133.887045 144.033882 
L 134.338581 147.083294 
L 134.790118 152.165647 
L 135.241654 152.165647 
L 135.69319 140.984471 
L 136.144726 138.951529 
L 139.30548 138.951529 
L 139.757016 147.083294 
L 140.208552 170.462118 
L 140.660089 184.692706 
L 141.111625 192.824471 
L 141.563161 193.840941 
L 144.272378 206.038588 
L 144.723915 207.055059 
L 146.530059 207.055059 
L 146.981596 205.022118 
L 147.433132 199.939765 
L 147.884668 186.725647 
L 148.787741 154.198588 
L 149.239277 150.132706 
L 149.690813 154.198588 
L 150.142349 143.017412 
L 150.593885 139.968 
L 151.045422 138.951529 
L 151.496958 138.951529 
L 151.948494 139.968 
L 152.851567 150.132706 
L 153.303103 162.330353 
L 153.754639 170.462118 
L 154.206175 174.528 
L 154.657711 182.659765 
L 155.109248 168.429176 
L 155.560784 166.396235 
L 156.01232 172.495059 
L 156.463856 162.330353 
L 156.915393 156.231529 
L 157.366929 156.231529 
L 157.818465 150.132706 
L 158.270001 139.968 
L 158.721537 138.951529 
L 160.527682 138.951529 
L 160.979219 147.083294 
L 161.430755 157.248 
L 162.333827 185.709176 
L 162.785364 193.840941 
L 164.139972 202.989176 
L 164.591508 205.022118 
L 165.043045 204.005647 
L 165.494581 204.005647 
L 165.946117 202.989176 
L 166.397653 196.890353 
L 166.84919 182.659765 
L 167.300726 157.248 
L 167.752262 161.313882 
L 168.203798 168.429176 
L 168.655334 170.462118 
L 169.106871 173.511529 
L 169.558407 178.593882 
L 170.009943 180.626824 
L 170.461479 176.560941 
L 170.913016 175.544471 
L 171.364552 154.198588 
L 171.816088 139.968 
L 172.267624 138.951529 
L 172.71916 138.951529 
L 173.170697 139.968 
L 174.073769 162.330353 
L 174.525305 164.363294 
L 174.976842 177.577412 
L 175.428378 174.528 
L 175.879914 178.593882 
L 176.33145 191.808 
L 176.782986 198.923294 
L 177.234523 199.939765 
L 177.686059 201.972706 
L 178.137595 202.989176 
L 178.589131 205.022118 
L 179.040668 204.005647 
L 179.492204 201.972706 
L 180.395276 191.808 
L 180.846812 198.923294 
L 181.298349 186.725647 
L 181.749885 185.709176 
L 182.201421 187.742118 
L 182.652957 184.692706 
L 183.55603 145.050353 
L 184.007566 139.968 
L 184.459102 138.951529 
L 184.910639 138.951529 
L 185.362175 139.968 
L 185.813711 138.951529 
L 186.716783 138.951529 
L 187.16832 150.132706 
L 188.071392 181.643294 
L 188.522928 183.676235 
L 188.974465 186.725647 
L 189.426001 192.824471 
L 189.877537 195.873882 
L 190.329073 196.890353 
L 190.780609 198.923294 
L 191.232146 193.840941 
L 191.683682 198.923294 
L 192.135218 199.939765 
L 192.586754 196.890353 
L 193.941363 170.462118 
L 194.392899 166.396235 
L 195.295972 160.297412 
L 195.747508 154.198588 
L 196.199044 150.132706 
L 196.65058 147.083294 
L 197.553653 138.951529 
L 198.005189 139.968 
L 198.456725 158.264471 
L 198.908261 139.968 
L 199.359798 138.951529 
L 200.714406 138.951529 
L 201.165943 146.066824 
L 202.069015 170.462118 
L 202.520551 184.692706 
L 202.972087 192.824471 
L 203.423624 204.005647 
L 203.87516 201.972706 
L 204.326696 194.857412 
L 204.778232 176.560941 
L 205.229769 183.676235 
L 205.681305 161.313882 
L 206.132841 154.198588 
L 206.584377 155.215059 
L 207.035914 161.313882 
L 207.48745 165.379765 
L 207.938986 164.363294 
L 208.390522 170.462118 
L 208.842058 166.396235 
L 210.196667 192.824471 
L 210.648203 197.906824 
L 212.002812 197.906824 
L 212.454348 201.972706 
L 212.905884 204.005647 
L 213.357421 204.005647 
L 214.260493 175.544471 
L 214.712029 183.676235 
L 215.163566 187.742118 
L 215.615102 192.824471 
L 216.066638 195.873882 
L 216.96971 197.906824 
L 217.421247 201.972706 
L 217.872783 204.005647 
L 218.324319 204.005647 
L 219.227392 175.544471 
L 219.678928 183.676235 
L 220.130464 177.577412 
L 220.582 168.429176 
L 221.033536 167.412706 
L 221.485073 158.264471 
L 221.936609 162.330353 
L 222.388145 175.544471 
L 222.839681 183.676235 
L 223.291218 187.742118 
L 223.742754 193.840941 
L 224.19429 197.906824 
L 224.645826 197.906824 
L 225.548899 195.873882 
L 226.000435 193.840941 
L 226.451971 184.692706 
L 226.903507 180.626824 
L 227.80658 169.445647 
L 228.258116 158.264471 
L 228.709652 169.445647 
L 229.161189 171.478588 
L 229.612725 183.676235 
L 230.064261 181.643294 
L 230.967333 197.906824 
L 231.41887 199.939765 
L 231.870406 199.939765 
L 232.321942 200.956235 
L 232.773478 205.022118 
L 233.225015 205.022118 
L 233.676551 204.005647 
L 234.128087 201.972706 
L 234.579623 197.906824 
L 235.482696 197.906824 
L 236.385768 207.055059 
L 236.837304 209.088 
L 237.288841 210.104471 
L 237.740377 207.055059 
L 239.094985 190.791529 
L 239.546522 189.775059 
L 239.998058 194.857412 
L 240.449594 194.857412 
L 240.90113 190.791529 
L 241.352667 189.775059 
L 241.804203 194.857412 
L 242.255739 194.857412 
L 242.707275 190.791529 
L 243.158811 189.775059 
L 243.610348 194.857412 
L 244.061884 194.857412 
L 244.51342 190.791529 
L 244.964956 183.676235 
L 245.416493 158.264471 
L 246.319565 147.083294 
L 246.771101 148.099765 
L 247.222638 148.099765 
L 247.674174 150.132706 
L 248.12571 144.033882 
L 248.577246 142.000941 
L 249.028782 152.165647 
L 249.931855 184.692706 
L 250.834927 190.791529 
L 251.738 199.939765 
L 253.092608 206.038588 
L 253.544145 207.055059 
L 255.801826 207.055059 
L 256.253362 205.022118 
L 256.704898 199.939765 
L 257.156434 186.725647 
L 258.059507 154.198588 
L 258.511043 150.132706 
L 258.962579 154.198588 
L 259.414116 143.017412 
L 259.865652 139.968 
L 260.317188 138.951529 
L 260.768724 138.951529 
L 261.22026 139.968 
L 261.671797 151.149176 
L 262.574869 201.972706 
L 263.026405 207.055059 
L 263.477942 208.071529 
L 263.929478 206.038588 
L 264.381014 195.873882 
L 264.83255 189.775059 
L 265.284086 192.824471 
L 265.735623 189.775059 
L 266.187159 188.758588 
L 266.638695 185.709176 
L 267.090231 185.709176 
L 267.541768 184.692706 
L 267.993304 177.577412 
L 269.347913 145.050353 
L 269.799449 143.017412 
L 270.250985 138.951529 
L 270.702521 138.951529 
L 271.154057 139.968 
L 272.05713 150.132706 
L 272.508666 162.330353 
L 272.960202 170.462118 
L 273.411739 174.528 
L 273.863275 182.659765 
L 274.314811 168.429176 
L 274.766347 166.396235 
L 275.217883 172.495059 
L 275.66942 162.330353 
L 276.120956 156.231529 
L 276.572492 156.231529 
L 277.024028 150.132706 
L 277.475565 139.968 
L 277.927101 138.951529 
L 278.830173 138.951529 
L 279.281709 140.984471 
L 279.733246 156.231529 
L 280.184782 165.379765 
L 280.636318 147.083294 
L 281.087854 142.000941 
L 281.539391 138.951529 
L 281.990927 139.968 
L 282.442463 139.968 
L 282.893999 140.984471 
L 283.345535 162.330353 
L 283.797072 164.363294 
L 284.700144 155.215059 
L 285.15168 151.149176 
L 285.603217 151.149176 
L 286.054753 152.165647 
L 286.506289 165.379765 
L 286.957825 145.050353 
L 287.409361 139.968 
L 287.860898 138.951529 
L 291.924724 138.951529 
L 293.279332 157.248 
L 293.730869 155.215059 
L 294.182405 155.215059 
L 294.633941 151.149176 
L 295.537014 145.050353 
L 295.98855 140.984471 
L 296.440086 138.951529 
L 296.891622 144.033882 
L 297.794695 148.099765 
L 298.246231 145.050353 
L 298.697767 152.165647 
L 299.149303 162.330353 
L 300.052376 175.544471 
L 300.955448 186.725647 
L 301.406984 166.396235 
L 301.858521 159.280941 
L 302.310057 166.396235 
L 302.761593 161.313882 
L 303.213129 154.198588 
L 303.664666 145.050353 
L 304.116202 145.050353 
L 304.567738 147.083294 
L 305.019274 140.984471 
L 305.922347 143.017412 
L 306.373883 139.968 
L 306.825419 138.951529 
L 309.986173 138.951529 
L 310.437709 139.968 
L 310.889245 138.951529 
L 314.049999 138.951529 
L 314.501535 146.066824 
L 315.404607 170.462118 
L 315.856144 184.692706 
L 316.30768 185.709176 
L 316.759216 183.676235 
L 317.662289 183.676235 
L 318.113825 168.429176 
L 318.565361 159.280941 
L 319.016897 154.198588 
L 319.468433 139.968 
L 319.91997 138.951529 
L 323.080723 138.951529 
L 323.532259 140.984471 
L 323.983796 138.951529 
L 326.693013 138.951529 
L 327.596085 143.017412 
L 328.499158 162.330353 
L 328.950694 147.083294 
L 329.40223 149.116235 
L 330.305303 155.215059 
L 330.756839 164.363294 
L 331.208375 167.412706 
L 331.659911 173.511529 
L 332.111448 169.445647 
L 332.562984 168.429176 
L 333.01452 164.363294 
L 333.466056 143.017412 
L 333.917593 167.412706 
L 334.369129 177.577412 
L 334.820665 180.626824 
L 335.723738 169.445647 
L 336.175274 169.445647 
L 336.62681 161.313882 
L 337.078346 160.297412 
L 337.529882 156.231529 
L 337.981419 146.066824 
L 338.884491 142.000941 
L 339.336027 138.951529 
L 340.690636 138.951529 
L 341.142172 146.066824 
L 342.045245 170.462118 
L 342.496781 184.692706 
L 342.948317 185.709176 
L 343.399853 183.676235 
L 343.85139 183.676235 
L 344.302926 179.610353 
L 344.754462 179.610353 
L 345.205998 182.659765 
L 345.657534 153.182118 
L 346.109071 142.000941 
L 346.560607 149.116235 
L 347.012143 158.264471 
L 347.463679 152.165647 
L 347.915216 148.099765 
L 348.366752 143.017412 
L 349.269824 138.951529 
L 351.979042 138.951529 
L 352.430578 140.984471 
L 352.882114 145.050353 
L 353.33365 156.231529 
L 353.785186 156.231529 
L 354.236723 158.264471 
L 354.688259 163.346824 
L 355.139795 172.495059 
L 355.591331 172.495059 
L 356.042868 177.577412 
L 356.494404 179.610353 
L 356.94594 179.610353 
L 357.397476 182.659765 
L 357.849013 153.182118 
L 358.300549 142.000941 
L 358.752085 149.116235 
L 359.203621 158.264471 
L 359.655157 152.165647 
L 360.106694 148.099765 
L 361.461302 142.000941 
L 361.912839 140.984471 
L 362.364375 148.099765 
L 362.815911 150.132706 
L 363.267447 153.182118 
L 363.718983 150.132706 
L 364.17052 140.984471 
L 364.622056 144.033882 
L 365.073592 148.099765 
L 365.525128 157.248 
L 366.428201 186.725647 
L 366.879737 191.808 
L 367.331273 201.972706 
L 367.782809 199.939765 
L 368.234346 199.939765 
L 368.685882 194.857412 
L 369.137418 187.742118 
L 369.588954 175.544471 
L 370.040491 156.231529 
L 370.492027 154.198588 
L 370.943563 151.149176 
L 371.395099 147.083294 
L 371.846635 148.099765 
L 372.298172 157.248 
L 372.749708 170.462118 
L 373.201244 187.742118 
L 373.65278 192.824471 
L 374.104317 191.808 
L 374.555853 189.775059 
L 375.910461 189.775059 
L 376.361998 187.742118 
L 376.813534 184.692706 
L 377.26507 177.577412 
L 378.168143 149.116235 
L 378.619679 143.017412 
L 379.071215 146.066824 
L 379.522751 147.083294 
L 380.425824 151.149176 
L 380.87736 152.165647 
L 381.328896 148.099765 
L 382.231969 159.280941 
L 382.683505 161.313882 
L 383.135041 168.429176 
L 383.586577 172.495059 
L 384.48965 181.643294 
L 384.941186 183.676235 
L 386.747331 183.676235 
L 387.198867 182.659765 
L 387.650403 183.676235 
L 388.10194 176.560941 
L 389.005012 150.132706 
L 389.456548 147.083294 
L 390.359621 164.363294 
L 390.811157 166.396235 
L 391.262693 172.495059 
L 391.714229 181.643294 
L 392.165766 180.626824 
L 392.617302 177.577412 
L 393.068838 180.626824 
L 393.97191 169.445647 
L 394.423447 164.363294 
L 395.326519 158.264471 
L 395.778055 157.248 
L 396.229592 151.149176 
L 396.681128 142.000941 
L 397.132664 143.017412 
L 397.5842 148.099765 
L 398.035737 142.000941 
L 398.487273 148.099765 
L 398.487273 148.099765 
" clip-path="url(#p7ab7a20d05)" style="fill: none; stroke: #1f77b4; stroke-width: 1.5; stroke-linecap: square"/>
   </g>
   <g id="patch_8">
    <path d="M 57.6 213.662118 
L 57.6 135.393882 
" style="fill: none; stroke: #000000; stroke-width: 0.8; stroke-linejoin: miter; stroke-linecap: square"/>
   </g>
   <g id="patch_9">
    <path d="M 414.72 213.662118 
L 414.72 135.393882 
" style="fill: none; stroke: #000000; stroke-width: 0.8; stroke-linejoin: miter; stroke-linecap: square"/>
   </g>
   <g id="patch_10">
    <path d="M 57.6 213.662118 
L 414.72 213.662118 
" style="fill: none; stroke: #000000; stroke-width: 0.8; stroke-linejoin: miter; stroke-linecap: square"/>
   </g>
   <g id="patch_11">
    <path d="M 57.6 135.393882 
L 414.72 135.393882 
" style="fill: none; stroke: #000000; stroke-width: 0.8; stroke-linejoin: miter; stroke-linecap: square"/>
   </g>
  </g>
  <g id="axes_3">
   <g id="patch_12">
    <path d="M 57.6 307.584 
L 414.72 307.584 
L 414.72 229.315765 
L 57.6 229.315765 
z
" style="fill: #ffffff"/>
   </g>
   <g id="matplotlib.axis_5">
    <g id="xtick_15">
     <g id="line2d_21">
      <g>
       <use xlink:href="#m9ba1da21af" x="73.832727" y="307.584" style="stroke: #000000; stroke-width: 0.8"/>
      </g>
     </g>
     <g id="text_19">
      <!-- 0 -->
      <g transform="translate(70.651477 322.182437) scale(0.1 -0.1)">
       <use xlink:href="#DejaVuSans-30"/>
      </g>
     </g>
    </g>
    <g id="xtick_16">
     <g id="line2d_22">
      <g>
       <use xlink:href="#m9ba1da21af" x="128.017074" y="307.584" style="stroke: #000000; stroke-width: 0.8"/>
      </g>
     </g>
     <g id="text_20">
      <!-- 5 -->
      <g transform="translate(124.835824 322.182437) scale(0.1 -0.1)">
       <use xlink:href="#DejaVuSans-35"/>
      </g>
     </g>
    </g>
    <g id="xtick_17">
     <g id="line2d_23">
      <g>
       <use xlink:href="#m9ba1da21af" x="182.201421" y="307.584" style="stroke: #000000; stroke-width: 0.8"/>
      </g>
     </g>
     <g id="text_21">
      <!-- 10 -->
      <g transform="translate(175.838921 322.182437) scale(0.1 -0.1)">
       <use xlink:href="#DejaVuSans-31"/>
       <use xlink:href="#DejaVuSans-30" x="63.623047"/>
      </g>
     </g>
    </g>
    <g id="xtick_18">
     <g id="line2d_24">
      <g>
       <use xlink:href="#m9ba1da21af" x="236.385768" y="307.584" style="stroke: #000000; stroke-width: 0.8"/>
      </g>
     </g>
     <g id="text_22">
      <!-- 15 -->
      <g transform="translate(230.023268 322.182437) scale(0.1 -0.1)">
       <use xlink:href="#DejaVuSans-31"/>
       <use xlink:href="#DejaVuSans-35" x="63.623047"/>
      </g>
     </g>
    </g>
    <g id="xtick_19">
     <g id="line2d_25">
      <g>
       <use xlink:href="#m9ba1da21af" x="290.570115" y="307.584" style="stroke: #000000; stroke-width: 0.8"/>
      </g>
     </g>
     <g id="text_23">
      <!-- 20 -->
      <g transform="translate(284.207615 322.182437) scale(0.1 -0.1)">
       <use xlink:href="#DejaVuSans-32"/>
       <use xlink:href="#DejaVuSans-30" x="63.623047"/>
      </g>
     </g>
    </g>
    <g id="xtick_20">
     <g id="line2d_26">
      <g>
       <use xlink:href="#m9ba1da21af" x="344.754462" y="307.584" style="stroke: #000000; stroke-width: 0.8"/>
      </g>
     </g>
     <g id="text_24">
      <!-- 25 -->
      <g transform="translate(338.391962 322.182437) scale(0.1 -0.1)">
       <use xlink:href="#DejaVuSans-32"/>
       <use xlink:href="#DejaVuSans-35" x="63.623047"/>
      </g>
     </g>
    </g>
    <g id="xtick_21">
     <g id="line2d_27">
      <g>
       <use xlink:href="#m9ba1da21af" x="398.938809" y="307.584" style="stroke: #000000; stroke-width: 0.8"/>
      </g>
     </g>
     <g id="text_25">
      <!-- 30 -->
      <g transform="translate(392.576309 322.182437) scale(0.1 -0.1)">
       <use xlink:href="#DejaVuSans-33"/>
       <use xlink:href="#DejaVuSans-30" x="63.623047"/>
      </g>
     </g>
    </g>
   </g>
   <g id="matplotlib.axis_6">
    <g id="ytick_5">
     <g id="line2d_28">
      <g>
       <use xlink:href="#m75ddf4f115" x="57.6" y="304.026353" style="stroke: #000000; stroke-width: 0.8"/>
      </g>
     </g>
     <g id="text_26">
      <!-- 0 -->
      <g transform="translate(44.2375 307.825572) scale(0.1 -0.1)">
       <use xlink:href="#DejaVuSans-30"/>
      </g>
     </g>
    </g>
    <g id="ytick_6">
     <g id="line2d_29">
      <g>
       <use xlink:href="#m75ddf4f115" x="57.6" y="268.449882" style="stroke: #000000; stroke-width: 0.8"/>
      </g>
     </g>
     <g id="text_27">
      <!-- 5 -->
      <g transform="translate(44.2375 272.249101) scale(0.1 -0.1)">
       <use xlink:href="#DejaVuSans-35"/>
      </g>
     </g>
    </g>
    <g id="ytick_7">
     <g id="line2d_30">
      <g>
       <use xlink:href="#m75ddf4f115" x="57.6" y="232.873412" style="stroke: #000000; stroke-width: 0.8"/>
      </g>
     </g>
     <g id="text_28">
      <!-- 10 -->
      <g transform="translate(37.875 236.672631) scale(0.1 -0.1)">
       <use xlink:href="#DejaVuSans-31"/>
       <use xlink:href="#DejaVuSans-30" x="63.623047"/>
      </g>
     </g>
    </g>
   </g>
   <g id="line2d_31">
    <path d="M 73.832727 304.026353 
L 111.76177 304.026353 
L 112.213306 289.795765 
L 112.664843 296.911059 
L 113.116379 296.911059 
L 113.567915 304.026353 
L 118.083277 304.026353 
L 118.534814 296.911059 
L 118.98635 304.026353 
L 122.147103 304.026353 
L 122.59864 289.795765 
L 123.050176 304.026353 
L 123.501712 304.026353 
L 123.953248 289.795765 
L 124.404784 232.873412 
L 124.856321 304.026353 
L 125.307857 289.795765 
L 125.759393 304.026353 
L 126.210929 304.026353 
L 126.662466 289.795765 
L 127.114002 304.026353 
L 135.69319 304.026353 
L 136.144726 296.911059 
L 136.596262 304.026353 
L 170.913016 304.026353 
L 171.364552 275.565176 
L 171.816088 296.911059 
L 172.267624 304.026353 
L 172.71916 296.911059 
L 173.170697 304.026353 
L 289.667043 304.026353 
L 290.118579 289.795765 
L 290.570115 304.026353 
L 332.562984 304.026353 
L 333.01452 282.680471 
L 333.466056 282.680471 
L 333.917593 304.026353 
L 345.205998 304.026353 
L 345.657534 296.911059 
L 346.109071 282.680471 
L 346.560607 304.026353 
L 357.397476 304.026353 
L 357.849013 296.911059 
L 358.300549 282.680471 
L 358.752085 304.026353 
L 398.487273 304.026353 
L 398.487273 304.026353 
" clip-path="url(#pd78ae4e14c)" style="fill: none; stroke: #1f77b4; stroke-width: 1.5; stroke-linecap: square"/>
   </g>
   <g id="patch_13">
    <path d="M 57.6 307.584 
L 57.6 229.315765 
" style="fill: none; stroke: #000000; stroke-width: 0.8; stroke-linejoin: miter; stroke-linecap: square"/>
   </g>
   <g id="patch_14">
    <path d="M 414.72 307.584 
L 414.72 229.315765 
" style="fill: none; stroke: #000000; stroke-width: 0.8; stroke-linejoin: miter; stroke-linecap: square"/>
   </g>
   <g id="patch_15">
    <path d="M 57.6 307.584 
L 414.72 307.584 
" style="fill: none; stroke: #000000; stroke-width: 0.8; stroke-linejoin: miter; stroke-linecap: square"/>
   </g>
   <g id="patch_16">
    <path d="M 57.6 229.315765 
L 414.72 229.315765 
" style="fill: none; stroke: #000000; stroke-width: 0.8; stroke-linejoin: miter; stroke-linecap: square"/>
   </g>
  </g>
  <g id="text_29">
   <!-- cleaned_weather_spring -->
   <g transform="translate(157.493438 16.030125) scale(0.12 -0.12)">
    <defs>
     <path id="DejaVuSans-63" d="M 3122 3366 
L 3122 2828 
Q 2878 2963 2633 3030 
Q 2388 3097 2138 3097 
Q 1578 3097 1268 2742 
Q 959 2388 959 1747 
Q 959 1106 1268 751 
Q 1578 397 2138 397 
Q 2388 397 2633 464 
Q 2878 531 3122 666 
L 3122 134 
Q 2881 22 2623 -34 
Q 2366 -91 2075 -91 
Q 1284 -91 818 406 
Q 353 903 353 1747 
Q 353 2603 823 3093 
Q 1294 3584 2113 3584 
Q 2378 3584 2631 3529 
Q 2884 3475 3122 3366 
z
" transform="scale(0.015625)"/>
     <path id="DejaVuSans-6c" d="M 603 4863 
L 1178 4863 
L 1178 0 
L 603 0 
L 603 4863 
z
" transform="scale(0.015625)"/>
     <path id="DejaVuSans-65" d="M 3597 1894 
L 3597 1613 
L 953 1613 
Q 991 1019 1311 708 
Q 1631 397 2203 397 
Q 2534 397 2845 478 
Q 3156 559 3463 722 
L 3463 178 
Q 3153 47 2828 -22 
Q 2503 -91 2169 -91 
Q 1331 -91 842 396 
Q 353 884 353 1716 
Q 353 2575 817 3079 
Q 1281 3584 2069 3584 
Q 2775 3584 3186 3129 
Q 3597 2675 3597 1894 
z
M 3022 2063 
Q 3016 2534 2758 2815 
Q 2500 3097 2075 3097 
Q 1594 3097 1305 2825 
Q 1016 2553 972 2059 
L 3022 2063 
z
" transform="scale(0.015625)"/>
     <path id="DejaVuSans-61" d="M 2194 1759 
Q 1497 1759 1228 1600 
Q 959 1441 959 1056 
Q 959 750 1161 570 
Q 1363 391 1709 391 
Q 2188 391 2477 730 
Q 2766 1069 2766 1631 
L 2766 1759 
L 2194 1759 
z
M 3341 1997 
L 3341 0 
L 2766 0 
L 2766 531 
Q 2569 213 2275 61 
Q 1981 -91 1556 -91 
Q 1019 -91 701 211 
Q 384 513 384 1019 
Q 384 1609 779 1909 
Q 1175 2209 1959 2209 
L 2766 2209 
L 2766 2266 
Q 2766 2663 2505 2880 
Q 2244 3097 1772 3097 
Q 1472 3097 1187 3025 
Q 903 2953 641 2809 
L 641 3341 
Q 956 3463 1253 3523 
Q 1550 3584 1831 3584 
Q 2591 3584 2966 3190 
Q 3341 2797 3341 1997 
z
" transform="scale(0.015625)"/>
     <path id="DejaVuSans-6e" d="M 3513 2113 
L 3513 0 
L 2938 0 
L 2938 2094 
Q 2938 2591 2744 2837 
Q 2550 3084 2163 3084 
Q 1697 3084 1428 2787 
Q 1159 2491 1159 1978 
L 1159 0 
L 581 0 
L 581 3500 
L 1159 3500 
L 1159 2956 
Q 1366 3272 1645 3428 
Q 1925 3584 2291 3584 
Q 2894 3584 3203 3211 
Q 3513 2838 3513 2113 
z
" transform="scale(0.015625)"/>
     <path id="DejaVuSans-64" d="M 2906 2969 
L 2906 4863 
L 3481 4863 
L 3481 0 
L 2906 0 
L 2906 525 
Q 2725 213 2448 61 
Q 2172 -91 1784 -91 
Q 1150 -91 751 415 
Q 353 922 353 1747 
Q 353 2572 751 3078 
Q 1150 3584 1784 3584 
Q 2172 3584 2448 3432 
Q 2725 3281 2906 2969 
z
M 947 1747 
Q 947 1113 1208 752 
Q 1469 391 1925 391 
Q 2381 391 2643 752 
Q 2906 1113 2906 1747 
Q 2906 2381 2643 2742 
Q 2381 3103 1925 3103 
Q 1469 3103 1208 2742 
Q 947 2381 947 1747 
z
" transform="scale(0.015625)"/>
     <path id="DejaVuSans-5f" d="M 3263 -1063 
L 3263 -1509 
L -63 -1509 
L -63 -1063 
L 3263 -1063 
z
" transform="scale(0.015625)"/>
     <path id="DejaVuSans-77" d="M 269 3500 
L 844 3500 
L 1563 769 
L 2278 3500 
L 2956 3500 
L 3675 769 
L 4391 3500 
L 4966 3500 
L 4050 0 
L 3372 0 
L 2619 2869 
L 1863 0 
L 1184 0 
L 269 3500 
z
" transform="scale(0.015625)"/>
     <path id="DejaVuSans-74" d="M 1172 4494 
L 1172 3500 
L 2356 3500 
L 2356 3053 
L 1172 3053 
L 1172 1153 
Q 1172 725 1289 603 
Q 1406 481 1766 481 
L 2356 481 
L 2356 0 
L 1766 0 
Q 1100 0 847 248 
Q 594 497 594 1153 
L 594 3053 
L 172 3053 
L 172 3500 
L 594 3500 
L 594 4494 
L 1172 4494 
z
" transform="scale(0.015625)"/>
     <path id="DejaVuSans-68" d="M 3513 2113 
L 3513 0 
L 2938 0 
L 2938 2094 
Q 2938 2591 2744 2837 
Q 2550 3084 2163 3084 
Q 1697 3084 1428 2787 
Q 1159 2491 1159 1978 
L 1159 0 
L 581 0 
L 581 4863 
L 1159 4863 
L 1159 2956 
Q 1366 3272 1645 3428 
Q 1925 3584 2291 3584 
Q 2894 3584 3203 3211 
Q 3513 2838 3513 2113 
z
" transform="scale(0.015625)"/>
     <path id="DejaVuSans-72" d="M 2631 2963 
Q 2534 3019 2420 3045 
Q 2306 3072 2169 3072 
Q 1681 3072 1420 2755 
Q 1159 2438 1159 1844 
L 1159 0 
L 581 0 
L 581 3500 
L 1159 3500 
L 1159 2956 
Q 1341 3275 1631 3429 
Q 1922 3584 2338 3584 
Q 2397 3584 2469 3576 
Q 2541 3569 2628 3553 
L 2631 2963 
z
" transform="scale(0.015625)"/>
     <path id="DejaVuSans-73" d="M 2834 3397 
L 2834 2853 
Q 2591 2978 2328 3040 
Q 2066 3103 1784 3103 
Q 1356 3103 1142 2972 
Q 928 2841 928 2578 
Q 928 2378 1081 2264 
Q 1234 2150 1697 2047 
L 1894 2003 
Q 2506 1872 2764 1633 
Q 3022 1394 3022 966 
Q 3022 478 2636 193 
Q 2250 -91 1575 -91 
Q 1294 -91 989 -36 
Q 684 19 347 128 
L 347 722 
Q 666 556 975 473 
Q 1284 391 1588 391 
Q 1994 391 2212 530 
Q 2431 669 2431 922 
Q 2431 1156 2273 1281 
Q 2116 1406 1581 1522 
L 1381 1569 
Q 847 1681 609 1914 
Q 372 2147 372 2553 
Q 372 3047 722 3315 
Q 1072 3584 1716 3584 
Q 2034 3584 2315 3537 
Q 2597 3491 2834 3397 
z
" transform="scale(0.015625)"/>
     <path id="DejaVuSans-70" d="M 1159 525 
L 1159 -1331 
L 581 -1331 
L 581 3500 
L 1159 3500 
L 1159 2969 
Q 1341 3281 1617 3432 
Q 1894 3584 2278 3584 
Q 2916 3584 3314 3078 
Q 3713 2572 3713 1747 
Q 3713 922 3314 415 
Q 2916 -91 2278 -91 
Q 1894 -91 1617 61 
Q 1341 213 1159 525 
z
M 3116 1747 
Q 3116 2381 2855 2742 
Q 2594 3103 2138 3103 
Q 1681 3103 1420 2742 
Q 1159 2381 1159 1747 
Q 1159 1113 1420 752 
Q 1681 391 2138 391 
Q 2594 391 2855 752 
Q 3116 1113 3116 1747 
z
" transform="scale(0.015625)"/>
     <path id="DejaVuSans-69" d="M 603 3500 
L 1178 3500 
L 1178 0 
L 603 0 
L 603 3500 
z
M 603 4863 
L 1178 4863 
L 1178 4134 
L 603 4134 
L 603 4863 
z
" transform="scale(0.015625)"/>
     <path id="DejaVuSans-67" d="M 2906 1791 
Q 2906 2416 2648 2759 
Q 2391 3103 1925 3103 
Q 1463 3103 1205 2759 
Q 947 2416 947 1791 
Q 947 1169 1205 825 
Q 1463 481 1925 481 
Q 2391 481 2648 825 
Q 2906 1169 2906 1791 
z
M 3481 434 
Q 3481 -459 3084 -895 
Q 2688 -1331 1869 -1331 
Q 1566 -1331 1297 -1286 
Q 1028 -1241 775 -1147 
L 775 -588 
Q 1028 -725 1275 -790 
Q 1522 -856 1778 -856 
Q 2344 -856 2625 -561 
Q 2906 -266 2906 331 
L 2906 616 
Q 2728 306 2450 153 
Q 2172 0 1784 0 
Q 1141 0 747 490 
Q 353 981 353 1791 
Q 353 2603 747 3093 
Q 1141 3584 1784 3584 
Q 2172 3584 2450 3431 
Q 2728 3278 2906 2969 
L 2906 3500 
L 3481 3500 
L 3481 434 
z
" transform="scale(0.015625)"/>
    </defs>
    <use xlink:href="#DejaVuSans-63"/>
    <use xlink:href="#DejaVuSans-6c" x="54.980469"/>
    <use xlink:href="#DejaVuSans-65" x="82.763672"/>
    <use xlink:href="#DejaVuSans-61" x="144.287109"/>
    <use xlink:href="#DejaVuSans-6e" x="205.566406"/>
    <use xlink:href="#DejaVuSans-65" x="268.945312"/>
    <use xlink:href="#DejaVuSans-64" x="330.46875"/>
    <use xlink:href="#DejaVuSans-5f" x="393.945312"/>
    <use xlink:href="#DejaVuSans-77" x="443.945312"/>
    <use xlink:href="#DejaVuSans-65" x="525.732422"/>
    <use xlink:href="#DejaVuSans-61" x="587.255859"/>
    <use xlink:href="#DejaVuSans-74" x="648.535156"/>
    <use xlink:href="#DejaVuSans-68" x="687.744141"/>
    <use xlink:href="#DejaVuSans-65" x="751.123047"/>
    <use xlink:href="#DejaVuSans-72" x="812.646484"/>
    <use xlink:href="#DejaVuSans-5f" x="853.759766"/>
    <use xlink:href="#DejaVuSans-73" x="903.759766"/>
    <use xlink:href="#DejaVuSans-70" x="955.859375"/>
    <use xlink:href="#DejaVuSans-72" x="1019.335938"/>
    <use xlink:href="#DejaVuSans-69" x="1060.449219"/>
    <use xlink:href="#DejaVuSans-6e" x="1088.232422"/>
    <use xlink:href="#DejaVuSans-67" x="1151.611328"/>
   </g>
  </g>
 </g>
 <defs>
  <clipPath id="pd7bc1c21d0">
   <rect x="57.6" y="41.472" width="357.12" height="78.268235"/>
  </clipPath>
  <clipPath id="p7ab7a20d05">
   <rect x="57.6" y="135.393882" width="357.12" height="78.268235"/>
  </clipPath>
  <clipPath id="pd78ae4e14c">
   <rect x="57.6" y="229.315765" width="357.12" height="78.268235"/>
  </clipPath>
 </defs>
</svg>
