<?xml version="1.0" encoding="utf-8" standalone="no"?>
<!DOCTYPE svg PUBLIC "-//W3C//DTD SVG 1.1//EN"
  "http://www.w3.org/Graphics/SVG/1.1/DTD/svg11.dtd">
<svg xmlns:xlink="http://www.w3.org/1999/xlink" width="460.8pt" height="345.6pt" viewBox="0 0 460.8 345.6" xmlns="http://www.w3.org/2000/svg" version="1.1">
 <metadata>
  <rdf:RDF xmlns:dc="http://purl.org/dc/elements/1.1/" xmlns:cc="http://creativecommons.org/ns#" xmlns:rdf="http://www.w3.org/1999/02/22-rdf-syntax-ns#">
   <cc:Work>
    <dc:type rdf:resource="http://purl.org/dc/dcmitype/StillImage"/>
    <dc:date>2023-03-28T23:57:20.074243</dc:date>
    <dc:format>image/svg+xml</dc:format>
    <dc:creator>
     <cc:Agent>
      <dc:title>Matplotlib v3.7.1, https://matplotlib.org/</dc:title>
     </cc:Agent>
    </dc:creator>
   </cc:Work>
  </rdf:RDF>
 </metadata>
 <defs>
  <style type="text/css">*{stroke-linejoin: round; stroke-linecap: butt}</style>
 </defs>
 <g id="figure_1">
  <g id="patch_1">
   <path d="M 0 345.6 
L 460.8 345.6 
L 460.8 0 
L 0 0 
z
" style="fill: #ffffff"/>
  </g>
  <g id="axes_1">
   <g id="patch_2">
    <path d="M 57.6 119.740235 
L 414.72 119.740235 
L 414.72 41.472 
L 57.6 41.472 
z
" style="fill: #ffffff"/>
   </g>
   <g id="matplotlib.axis_1">
    <g id="xtick_1">
     <g id="line2d_1">
      <defs>
       <path id="mb7e94029d1" d="M 0 0 
L 0 3.5 
" style="stroke: #000000; stroke-width: 0.8"/>
      </defs>
      <g>
       <use xlink:href="#mb7e94029d1" x="73.832727" y="119.740235" style="stroke: #000000; stroke-width: 0.8"/>
      </g>
     </g>
     <g id="text_1">
      <!-- 0 -->
      <g transform="translate(70.651477 134.338673) scale(0.1 -0.1)">
       <defs>
        <path id="DejaVuSans-30" d="M 2034 4250 
Q 1547 4250 1301 3770 
Q 1056 3291 1056 2328 
Q 1056 1369 1301 889 
Q 1547 409 2034 409 
Q 2525 409 2770 889 
Q 3016 1369 3016 2328 
Q 3016 3291 2770 3770 
Q 2525 4250 2034 4250 
z
M 2034 4750 
Q 2819 4750 3233 4129 
Q 3647 3509 3647 2328 
Q 3647 1150 3233 529 
Q 2819 -91 2034 -91 
Q 1250 -91 836 529 
Q 422 1150 422 2328 
Q 422 3509 836 4129 
Q 1250 4750 2034 4750 
z
" transform="scale(0.015625)"/>
       </defs>
       <use xlink:href="#DejaVuSans-30"/>
      </g>
     </g>
    </g>
    <g id="xtick_2">
     <g id="line2d_2">
      <g>
       <use xlink:href="#mb7e94029d1" x="128.017074" y="119.740235" style="stroke: #000000; stroke-width: 0.8"/>
      </g>
     </g>
     <g id="text_2">
      <!-- 5 -->
      <g transform="translate(124.835824 134.338673) scale(0.1 -0.1)">
       <defs>
        <path id="DejaVuSans-35" d="M 691 4666 
L 3169 4666 
L 3169 4134 
L 1269 4134 
L 1269 2991 
Q 1406 3038 1543 3061 
Q 1681 3084 1819 3084 
Q 2600 3084 3056 2656 
Q 3513 2228 3513 1497 
Q 3513 744 3044 326 
Q 2575 -91 1722 -91 
Q 1428 -91 1123 -41 
Q 819 9 494 109 
L 494 744 
Q 775 591 1075 516 
Q 1375 441 1709 441 
Q 2250 441 2565 725 
Q 2881 1009 2881 1497 
Q 2881 1984 2565 2268 
Q 2250 2553 1709 2553 
Q 1456 2553 1204 2497 
Q 953 2441 691 2322 
L 691 4666 
z
" transform="scale(0.015625)"/>
       </defs>
       <use xlink:href="#DejaVuSans-35"/>
      </g>
     </g>
    </g>
    <g id="xtick_3">
     <g id="line2d_3">
      <g>
       <use xlink:href="#mb7e94029d1" x="182.201421" y="119.740235" style="stroke: #000000; stroke-width: 0.8"/>
      </g>
     </g>
     <g id="text_3">
      <!-- 10 -->
      <g transform="translate(175.838921 134.338673) scale(0.1 -0.1)">
       <defs>
        <path id="DejaVuSans-31" d="M 794 531 
L 1825 531 
L 1825 4091 
L 703 3866 
L 703 4441 
L 1819 4666 
L 2450 4666 
L 2450 531 
L 3481 531 
L 3481 0 
L 794 0 
L 794 531 
z
" transform="scale(0.015625)"/>
       </defs>
       <use xlink:href="#DejaVuSans-31"/>
       <use xlink:href="#DejaVuSans-30" x="63.623047"/>
      </g>
     </g>
    </g>
    <g id="xtick_4">
     <g id="line2d_4">
      <g>
       <use xlink:href="#mb7e94029d1" x="236.385768" y="119.740235" style="stroke: #000000; stroke-width: 0.8"/>
      </g>
     </g>
     <g id="text_4">
      <!-- 15 -->
      <g transform="translate(230.023268 134.338673) scale(0.1 -0.1)">
       <use xlink:href="#DejaVuSans-31"/>
       <use xlink:href="#DejaVuSans-35" x="63.623047"/>
      </g>
     </g>
    </g>
    <g id="xtick_5">
     <g id="line2d_5">
      <g>
       <use xlink:href="#mb7e94029d1" x="290.570115" y="119.740235" style="stroke: #000000; stroke-width: 0.8"/>
      </g>
     </g>
     <g id="text_5">
      <!-- 20 -->
      <g transform="translate(284.207615 134.338673) scale(0.1 -0.1)">
       <defs>
        <path id="DejaVuSans-32" d="M 1228 531 
L 3431 531 
L 3431 0 
L 469 0 
L 469 531 
Q 828 903 1448 1529 
Q 2069 2156 2228 2338 
Q 2531 2678 2651 2914 
Q 2772 3150 2772 3378 
Q 2772 3750 2511 3984 
Q 2250 4219 1831 4219 
Q 1534 4219 1204 4116 
Q 875 4013 500 3803 
L 500 4441 
Q 881 4594 1212 4672 
Q 1544 4750 1819 4750 
Q 2544 4750 2975 4387 
Q 3406 4025 3406 3419 
Q 3406 3131 3298 2873 
Q 3191 2616 2906 2266 
Q 2828 2175 2409 1742 
Q 1991 1309 1228 531 
z
" transform="scale(0.015625)"/>
       </defs>
       <use xlink:href="#DejaVuSans-32"/>
       <use xlink:href="#DejaVuSans-30" x="63.623047"/>
      </g>
     </g>
    </g>
    <g id="xtick_6">
     <g id="line2d_6">
      <g>
       <use xlink:href="#mb7e94029d1" x="344.754462" y="119.740235" style="stroke: #000000; stroke-width: 0.8"/>
      </g>
     </g>
     <g id="text_6">
      <!-- 25 -->
      <g transform="translate(338.391962 134.338673) scale(0.1 -0.1)">
       <use xlink:href="#DejaVuSans-32"/>
       <use xlink:href="#DejaVuSans-35" x="63.623047"/>
      </g>
     </g>
    </g>
    <g id="xtick_7">
     <g id="line2d_7">
      <g>
       <use xlink:href="#mb7e94029d1" x="398.938809" y="119.740235" style="stroke: #000000; stroke-width: 0.8"/>
      </g>
     </g>
     <g id="text_7">
      <!-- 30 -->
      <g transform="translate(392.576309 134.338673) scale(0.1 -0.1)">
       <defs>
        <path id="DejaVuSans-33" d="M 2597 2516 
Q 3050 2419 3304 2112 
Q 3559 1806 3559 1356 
Q 3559 666 3084 287 
Q 2609 -91 1734 -91 
Q 1441 -91 1130 -33 
Q 819 25 488 141 
L 488 750 
Q 750 597 1062 519 
Q 1375 441 1716 441 
Q 2309 441 2620 675 
Q 2931 909 2931 1356 
Q 2931 1769 2642 2001 
Q 2353 2234 1838 2234 
L 1294 2234 
L 1294 2753 
L 1863 2753 
Q 2328 2753 2575 2939 
Q 2822 3125 2822 3475 
Q 2822 3834 2567 4026 
Q 2313 4219 1838 4219 
Q 1578 4219 1281 4162 
Q 984 4106 628 3988 
L 628 4550 
Q 988 4650 1302 4700 
Q 1616 4750 1894 4750 
Q 2613 4750 3031 4423 
Q 3450 4097 3450 3541 
Q 3450 3153 3228 2886 
Q 3006 2619 2597 2516 
z
" transform="scale(0.015625)"/>
       </defs>
       <use xlink:href="#DejaVuSans-33"/>
       <use xlink:href="#DejaVuSans-30" x="63.623047"/>
      </g>
     </g>
    </g>
   </g>
   <g id="matplotlib.axis_2">
    <g id="ytick_1">
     <g id="line2d_8">
      <defs>
       <path id="mbc1029a7f5" d="M 0 0 
L -3.5 0 
" style="stroke: #000000; stroke-width: 0.8"/>
      </defs>
      <g>
       <use xlink:href="#mbc1029a7f5" x="57.6" y="92.464941" style="stroke: #000000; stroke-width: 0.8"/>
      </g>
     </g>
     <g id="text_8">
      <!-- 0 -->
      <g transform="translate(44.2375 96.26416) scale(0.1 -0.1)">
       <use xlink:href="#DejaVuSans-30"/>
      </g>
     </g>
    </g>
    <g id="ytick_2">
     <g id="line2d_9">
      <g>
       <use xlink:href="#mbc1029a7f5" x="57.6" y="52.935529" style="stroke: #000000; stroke-width: 0.8"/>
      </g>
     </g>
     <g id="text_9">
      <!-- 20 -->
      <g transform="translate(37.875 56.734748) scale(0.1 -0.1)">
       <use xlink:href="#DejaVuSans-32"/>
       <use xlink:href="#DejaVuSans-30" x="63.623047"/>
      </g>
     </g>
    </g>
   </g>
   <g id="line2d_10">
    <path d="M 73.832727 70.723765 
L 74.284263 66.770824 
L 74.7358 64.794353 
L 75.187336 64.794353 
L 76.090408 60.841412 
L 76.541945 62.817882 
L 77.445017 62.817882 
L 78.34809 70.723765 
L 78.799626 72.700235 
L 79.251162 76.653176 
L 80.154234 80.606118 
L 80.605771 80.606118 
L 81.057307 76.653176 
L 82.411916 76.653176 
L 82.863452 80.606118 
L 83.314988 82.582588 
L 83.766524 80.606118 
L 84.21806 80.606118 
L 84.669597 82.582588 
L 85.121133 86.535529 
L 86.475742 86.535529 
L 86.927278 84.559059 
L 89.636495 84.559059 
L 90.088031 82.582588 
L 90.539568 82.582588 
L 90.991104 84.559059 
L 92.345712 84.559059 
L 92.797249 86.535529 
L 93.700321 86.535529 
L 94.603394 78.629647 
L 95.05493 72.700235 
L 95.958002 68.747294 
L 96.409539 68.747294 
L 96.861075 66.770824 
L 97.312611 68.747294 
L 97.764147 68.747294 
L 98.215683 70.723765 
L 102.279509 70.723765 
L 102.731046 72.700235 
L 103.182582 72.700235 
L 103.634118 74.676706 
L 104.085654 72.700235 
L 104.537191 72.700235 
L 104.988727 70.723765 
L 105.440263 72.700235 
L 106.343335 68.747294 
L 107.246408 76.653176 
L 107.697944 72.700235 
L 108.14948 76.653176 
L 108.601017 72.700235 
L 109.052553 74.676706 
L 109.504089 74.676706 
L 110.858698 80.606118 
L 111.310234 80.606118 
L 111.76177 76.653176 
L 112.213306 70.723765 
L 112.664843 70.723765 
L 113.567915 66.770824 
L 114.019451 62.817882 
L 114.922524 62.817882 
L 115.37406 64.794353 
L 115.825596 64.794353 
L 116.277132 68.747294 
L 116.728669 76.653176 
L 118.534814 76.653176 
L 118.98635 78.629647 
L 119.437886 74.676706 
L 119.889422 72.700235 
L 120.340958 74.676706 
L 121.695567 68.747294 
L 122.59864 68.747294 
L 123.050176 70.723765 
L 123.501712 68.747294 
L 124.856321 68.747294 
L 125.307857 70.723765 
L 125.759393 74.676706 
L 126.210929 76.653176 
L 126.662466 74.676706 
L 127.114002 74.676706 
L 127.565538 72.700235 
L 128.017074 76.653176 
L 128.46861 74.676706 
L 128.920147 76.653176 
L 129.823219 76.653176 
L 130.274755 74.676706 
L 130.726292 76.653176 
L 134.790118 76.653176 
L 135.241654 74.676706 
L 135.69319 76.653176 
L 136.144726 76.653176 
L 136.596262 80.606118 
L 137.047799 82.582588 
L 137.499335 82.582588 
L 137.950871 86.535529 
L 138.853944 86.535529 
L 139.30548 90.488471 
L 139.757016 88.512 
L 140.208552 90.488471 
L 140.660089 90.488471 
L 141.111625 88.512 
L 142.014697 88.512 
L 142.91777 84.559059 
L 146.981596 84.559059 
L 147.433132 88.512 
L 147.884668 86.535529 
L 148.336204 86.535529 
L 148.787741 88.512 
L 149.239277 86.535529 
L 149.690813 86.535529 
L 150.142349 88.512 
L 150.593885 86.535529 
L 151.045422 86.535529 
L 151.496958 88.512 
L 151.948494 80.606118 
L 152.40003 68.747294 
L 152.851567 72.700235 
L 153.303103 74.676706 
L 154.206175 66.770824 
L 154.657711 64.794353 
L 155.109248 64.794353 
L 156.01232 60.841412 
L 156.915393 64.794353 
L 157.366929 64.794353 
L 157.818465 68.747294 
L 158.270001 76.653176 
L 158.721537 82.582588 
L 159.173074 80.606118 
L 159.62461 80.606118 
L 160.076146 76.653176 
L 160.979219 76.653176 
L 161.430755 78.629647 
L 161.882291 74.676706 
L 162.333827 80.606118 
L 162.785364 84.559059 
L 163.2369 86.535529 
L 165.946117 86.535529 
L 166.397653 88.512 
L 166.84919 86.535529 
L 167.300726 88.512 
L 167.752262 86.535529 
L 168.203798 78.629647 
L 168.655334 74.676706 
L 169.106871 72.700235 
L 169.558407 72.700235 
L 170.009943 74.676706 
L 170.461479 78.629647 
L 170.913016 86.535529 
L 171.364552 88.512 
L 171.816088 86.535529 
L 173.170697 92.464941 
L 173.622233 90.488471 
L 174.525305 90.488471 
L 174.976842 88.512 
L 175.879914 88.512 
L 176.33145 90.488471 
L 176.782986 88.512 
L 177.234523 90.488471 
L 178.137595 86.535529 
L 178.589131 88.512 
L 179.94374 82.582588 
L 180.395276 84.559059 
L 180.846812 84.559059 
L 181.298349 82.582588 
L 182.201421 86.535529 
L 182.652957 84.559059 
L 183.104494 84.559059 
L 183.55603 86.535529 
L 185.813711 86.535529 
L 186.265247 84.559059 
L 187.619856 84.559059 
L 188.071392 82.582588 
L 188.974465 86.535529 
L 189.426001 90.488471 
L 189.877537 90.488471 
L 190.329073 92.464941 
L 194.844435 92.464941 
L 195.295972 94.441412 
L 195.747508 92.464941 
L 198.908261 92.464941 
L 199.359798 94.441412 
L 199.811334 94.441412 
L 200.26287 92.464941 
L 200.714406 94.441412 
L 212.002812 94.441412 
L 212.454348 96.417882 
L 214.260493 96.417882 
L 214.712029 98.394353 
L 215.163566 98.394353 
L 215.615102 94.441412 
L 217.872783 94.441412 
L 218.324319 96.417882 
L 221.033536 96.417882 
L 221.485073 98.394353 
L 221.936609 94.441412 
L 226.451971 94.441412 
L 227.355044 90.488471 
L 228.258116 90.488471 
L 228.709652 92.464941 
L 229.161189 92.464941 
L 229.612725 94.441412 
L 231.870406 94.441412 
L 232.773478 90.488471 
L 233.225015 90.488471 
L 234.128087 86.535529 
L 234.579623 86.535529 
L 235.031159 88.512 
L 235.482696 86.535529 
L 235.934232 86.535529 
L 236.385768 84.559059 
L 237.740377 84.559059 
L 238.191913 86.535529 
L 239.094985 86.535529 
L 239.546522 84.559059 
L 239.998058 84.559059 
L 240.90113 88.512 
L 241.352667 86.535529 
L 241.804203 88.512 
L 242.255739 92.464941 
L 242.707275 86.535529 
L 243.158811 86.535529 
L 243.610348 88.512 
L 244.061884 88.512 
L 244.51342 90.488471 
L 245.416493 90.488471 
L 245.868029 92.464941 
L 246.771101 92.464941 
L 247.222638 90.488471 
L 247.674174 90.488471 
L 248.12571 92.464941 
L 249.931855 92.464941 
L 250.383391 90.488471 
L 250.834927 90.488471 
L 251.286464 92.464941 
L 259.414116 92.464941 
L 259.865652 90.488471 
L 260.317188 90.488471 
L 260.768724 92.464941 
L 261.22026 86.535529 
L 261.671797 86.535529 
L 262.574869 90.488471 
L 263.929478 90.488471 
L 264.381014 92.464941 
L 266.187159 92.464941 
L 266.638695 94.441412 
L 267.090231 92.464941 
L 267.541768 94.441412 
L 267.993304 92.464941 
L 268.44484 94.441412 
L 270.250985 94.441412 
L 270.702521 92.464941 
L 271.154057 92.464941 
L 271.605594 94.441412 
L 273.411739 94.441412 
L 273.863275 96.417882 
L 274.766347 96.417882 
L 275.217883 98.394353 
L 275.66942 94.441412 
L 277.024028 94.441412 
L 277.475565 90.488471 
L 278.378637 90.488471 
L 278.830173 92.464941 
L 281.990927 92.464941 
L 282.442463 94.441412 
L 283.345535 90.488471 
L 283.797072 90.488471 
L 284.700144 86.535529 
L 285.15168 86.535529 
L 285.603217 88.512 
L 286.054753 86.535529 
L 286.506289 90.488471 
L 286.957825 90.488471 
L 288.312434 78.629647 
L 288.76397 76.653176 
L 290.118579 82.582588 
L 290.570115 82.582588 
L 291.021651 84.559059 
L 293.730869 84.559059 
L 294.182405 82.582588 
L 294.633941 84.559059 
L 295.085477 84.559059 
L 295.537014 86.535529 
L 297.343158 86.535529 
L 297.794695 90.488471 
L 299.60084 90.488471 
L 300.052376 88.512 
L 300.503912 90.488471 
L 300.955448 90.488471 
L 302.310057 78.629647 
L 302.761593 76.653176 
L 304.116202 82.582588 
L 304.567738 82.582588 
L 305.019274 84.559059 
L 306.373883 84.559059 
L 306.825419 82.582588 
L 307.276955 82.582588 
L 307.728492 84.559059 
L 308.180028 84.559059 
L 308.631564 86.535529 
L 310.437709 86.535529 
L 310.889245 84.559059 
L 312.243854 84.559059 
L 312.69539 86.535529 
L 315.404607 86.535529 
L 315.856144 84.559059 
L 316.30768 84.559059 
L 316.759216 82.582588 
L 318.113825 82.582588 
L 318.565361 84.559059 
L 319.468433 84.559059 
L 319.91997 86.535529 
L 320.371506 84.559059 
L 320.823042 86.535529 
L 323.983796 86.535529 
L 324.435332 84.559059 
L 325.338404 84.559059 
L 325.789941 86.535529 
L 326.241477 90.488471 
L 326.693013 92.464941 
L 328.047622 92.464941 
L 328.499158 70.723765 
L 329.40223 62.817882 
L 329.853767 60.841412 
L 330.756839 52.935529 
L 331.659911 48.982588 
L 332.111448 45.029647 
L 333.466056 45.029647 
L 333.917593 47.006118 
L 334.369129 50.959059 
L 334.820665 52.935529 
L 335.272201 58.864941 
L 336.62681 58.864941 
L 337.529882 62.817882 
L 338.884491 62.817882 
L 339.336027 64.794353 
L 340.690636 58.864941 
L 341.593708 58.864941 
L 342.045245 60.841412 
L 342.496781 64.794353 
L 342.948317 66.770824 
L 343.399853 62.817882 
L 343.85139 60.841412 
L 344.302926 60.841412 
L 344.754462 62.817882 
L 345.205998 62.817882 
L 345.657534 64.794353 
L 346.109071 62.817882 
L 347.463679 68.747294 
L 348.366752 64.794353 
L 348.818288 66.770824 
L 349.269824 58.864941 
L 349.72136 54.912 
L 350.172897 52.935529 
L 350.624433 56.888471 
L 351.979042 62.817882 
L 352.430578 62.817882 
L 352.882114 66.770824 
L 354.236723 72.700235 
L 354.688259 66.770824 
L 355.139795 58.864941 
L 355.591331 64.794353 
L 356.042868 68.747294 
L 356.494404 66.770824 
L 357.397476 50.959059 
L 357.849013 47.006118 
L 358.300549 45.029647 
L 358.752085 45.029647 
L 359.203621 92.464941 
L 359.655157 98.394353 
L 360.106694 102.347294 
L 360.55823 104.323765 
L 361.009766 104.323765 
L 361.461302 102.347294 
L 361.912839 102.347294 
L 363.267447 96.417882 
L 363.718983 96.417882 
L 364.622056 92.464941 
L 365.073592 92.464941 
L 365.525128 90.488471 
L 365.976665 90.488471 
L 366.428201 92.464941 
L 366.879737 96.417882 
L 367.782809 100.370824 
L 368.234346 100.370824 
L 368.685882 98.394353 
L 369.137418 98.394353 
L 370.040491 102.347294 
L 371.846635 102.347294 
L 372.749708 106.300235 
L 373.201244 102.347294 
L 373.65278 102.347294 
L 374.555853 106.300235 
L 375.007389 102.347294 
L 375.458925 102.347294 
L 375.910461 98.394353 
L 376.361998 102.347294 
L 376.813534 98.394353 
L 377.26507 102.347294 
L 377.716606 102.347294 
L 378.168143 104.323765 
L 379.071215 104.323765 
L 379.522751 108.276706 
L 380.425824 108.276706 
L 380.87736 106.300235 
L 381.328896 108.276706 
L 381.780432 112.229647 
L 382.231969 112.229647 
L 382.683505 114.206118 
L 383.135041 112.229647 
L 383.586577 114.206118 
L 384.038114 112.229647 
L 384.48965 114.206118 
L 384.941186 112.229647 
L 385.392722 114.206118 
L 385.844258 114.206118 
L 386.295795 116.182588 
L 390.359621 116.182588 
L 390.811157 114.206118 
L 391.262693 114.206118 
L 391.714229 112.229647 
L 392.165766 104.323765 
L 392.617302 100.370824 
L 393.068838 100.370824 
L 393.520374 92.464941 
L 393.97191 98.394353 
L 394.423447 102.347294 
L 394.874983 104.323765 
L 395.326519 104.323765 
L 395.778055 102.347294 
L 396.229592 102.347294 
L 397.5842 96.417882 
L 398.487273 96.417882 
L 398.487273 96.417882 
" clip-path="url(#pb5223a1cc4)" style="fill: none; stroke: #1f77b4; stroke-width: 1.5; stroke-linecap: square"/>
   </g>
   <g id="patch_3">
    <path d="M 57.6 119.740235 
L 57.6 41.472 
" style="fill: none; stroke: #000000; stroke-width: 0.8; stroke-linejoin: miter; stroke-linecap: square"/>
   </g>
   <g id="patch_4">
    <path d="M 414.72 119.740235 
L 414.72 41.472 
" style="fill: none; stroke: #000000; stroke-width: 0.8; stroke-linejoin: miter; stroke-linecap: square"/>
   </g>
   <g id="patch_5">
    <path d="M 57.6 119.740235 
L 414.72 119.740235 
" style="fill: none; stroke: #000000; stroke-width: 0.8; stroke-linejoin: miter; stroke-linecap: square"/>
   </g>
   <g id="patch_6">
    <path d="M 57.6 41.472 
L 414.72 41.472 
" style="fill: none; stroke: #000000; stroke-width: 0.8; stroke-linejoin: miter; stroke-linecap: square"/>
   </g>
  </g>
  <g id="axes_2">
   <g id="patch_7">
    <path d="M 57.6 213.662118 
L 414.72 213.662118 
L 414.72 135.393882 
L 57.6 135.393882 
z
" style="fill: #ffffff"/>
   </g>
   <g id="matplotlib.axis_3">
    <g id="xtick_8">
     <g id="line2d_11">
      <g>
       <use xlink:href="#mb7e94029d1" x="73.832727" y="213.662118" style="stroke: #000000; stroke-width: 0.8"/>
      </g>
     </g>
     <g id="text_10">
      <!-- 0 -->
      <g transform="translate(70.651477 228.260555) scale(0.1 -0.1)">
       <use xlink:href="#DejaVuSans-30"/>
      </g>
     </g>
    </g>
    <g id="xtick_9">
     <g id="line2d_12">
      <g>
       <use xlink:href="#mb7e94029d1" x="128.017074" y="213.662118" style="stroke: #000000; stroke-width: 0.8"/>
      </g>
     </g>
     <g id="text_11">
      <!-- 5 -->
      <g transform="translate(124.835824 228.260555) scale(0.1 -0.1)">
       <use xlink:href="#DejaVuSans-35"/>
      </g>
     </g>
    </g>
    <g id="xtick_10">
     <g id="line2d_13">
      <g>
       <use xlink:href="#mb7e94029d1" x="182.201421" y="213.662118" style="stroke: #000000; stroke-width: 0.8"/>
      </g>
     </g>
     <g id="text_12">
      <!-- 10 -->
      <g transform="translate(175.838921 228.260555) scale(0.1 -0.1)">
       <use xlink:href="#DejaVuSans-31"/>
       <use xlink:href="#DejaVuSans-30" x="63.623047"/>
      </g>
     </g>
    </g>
    <g id="xtick_11">
     <g id="line2d_14">
      <g>
       <use xlink:href="#mb7e94029d1" x="236.385768" y="213.662118" style="stroke: #000000; stroke-width: 0.8"/>
      </g>
     </g>
     <g id="text_13">
      <!-- 15 -->
      <g transform="translate(230.023268 228.260555) scale(0.1 -0.1)">
       <use xlink:href="#DejaVuSans-31"/>
       <use xlink:href="#DejaVuSans-35" x="63.623047"/>
      </g>
     </g>
    </g>
    <g id="xtick_12">
     <g id="line2d_15">
      <g>
       <use xlink:href="#mb7e94029d1" x="290.570115" y="213.662118" style="stroke: #000000; stroke-width: 0.8"/>
      </g>
     </g>
     <g id="text_14">
      <!-- 20 -->
      <g transform="translate(284.207615 228.260555) scale(0.1 -0.1)">
       <use xlink:href="#DejaVuSans-32"/>
       <use xlink:href="#DejaVuSans-30" x="63.623047"/>
      </g>
     </g>
    </g>
    <g id="xtick_13">
     <g id="line2d_16">
      <g>
       <use xlink:href="#mb7e94029d1" x="344.754462" y="213.662118" style="stroke: #000000; stroke-width: 0.8"/>
      </g>
     </g>
     <g id="text_15">
      <!-- 25 -->
      <g transform="translate(338.391962 228.260555) scale(0.1 -0.1)">
       <use xlink:href="#DejaVuSans-32"/>
       <use xlink:href="#DejaVuSans-35" x="63.623047"/>
      </g>
     </g>
    </g>
    <g id="xtick_14">
     <g id="line2d_17">
      <g>
       <use xlink:href="#mb7e94029d1" x="398.938809" y="213.662118" style="stroke: #000000; stroke-width: 0.8"/>
      </g>
     </g>
     <g id="text_16">
      <!-- 30 -->
      <g transform="translate(392.576309 228.260555) scale(0.1 -0.1)">
       <use xlink:href="#DejaVuSans-33"/>
       <use xlink:href="#DejaVuSans-30" x="63.623047"/>
      </g>
     </g>
    </g>
   </g>
   <g id="matplotlib.axis_4">
    <g id="ytick_3">
     <g id="line2d_18">
      <g>
       <use xlink:href="#mbc1029a7f5" x="57.6" y="210.104471" style="stroke: #000000; stroke-width: 0.8"/>
      </g>
     </g>
     <g id="text_17">
      <!-- 0 -->
      <g transform="translate(44.2375 213.903689) scale(0.1 -0.1)">
       <use xlink:href="#DejaVuSans-30"/>
      </g>
     </g>
    </g>
    <g id="ytick_4">
     <g id="line2d_19">
      <g>
       <use xlink:href="#mbc1029a7f5" x="57.6" y="174.528" style="stroke: #000000; stroke-width: 0.8"/>
      </g>
     </g>
     <g id="text_18">
      <!-- 50 -->
      <g transform="translate(37.875 178.327219) scale(0.1 -0.1)">
       <use xlink:href="#DejaVuSans-35"/>
       <use xlink:href="#DejaVuSans-30" x="63.623047"/>
      </g>
     </g>
    </g>
    <g id="ytick_5">
     <g id="line2d_20">
      <g>
       <use xlink:href="#mbc1029a7f5" x="57.6" y="138.951529" style="stroke: #000000; stroke-width: 0.8"/>
      </g>
     </g>
     <g id="text_19">
      <!-- 100 -->
      <g transform="translate(31.5125 142.750748) scale(0.1 -0.1)">
       <use xlink:href="#DejaVuSans-31"/>
       <use xlink:href="#DejaVuSans-30" x="63.623047"/>
       <use xlink:href="#DejaVuSans-30" x="127.246094"/>
      </g>
     </g>
    </g>
   </g>
   <g id="line2d_21">
    <path d="M 73.832727 151.047529 
L 74.7358 163.855059 
L 75.187336 165.278118 
L 75.638872 171.681882 
L 76.090408 175.951059 
L 76.541945 175.239529 
L 76.993481 176.662588 
L 77.445017 175.239529 
L 77.896553 170.970353 
L 78.34809 164.566588 
L 78.799626 156.028235 
L 79.251162 151.047529 
L 79.702698 143.932235 
L 80.154234 141.086118 
L 80.605771 141.086118 
L 81.057307 148.912941 
L 81.508843 154.605176 
L 81.960379 153.893647 
L 82.411916 151.047529 
L 83.314988 138.951529 
L 83.766524 138.951529 
L 84.21806 139.663059 
L 84.669597 138.951529 
L 93.700321 138.951529 
L 94.151857 142.509176 
L 95.05493 157.451294 
L 95.506466 165.989647 
L 95.958002 163.143529 
L 96.409539 165.989647 
L 96.861075 165.989647 
L 97.312611 163.855059 
L 98.215683 147.489882 
L 98.66722 149.624471 
L 99.118756 147.489882 
L 99.570292 149.624471 
L 100.021828 147.489882 
L 100.473365 147.489882 
L 100.924901 149.624471 
L 101.376437 147.489882 
L 101.827973 149.624471 
L 102.279509 147.489882 
L 102.731046 147.489882 
L 103.634118 138.951529 
L 104.085654 140.374588 
L 104.537191 139.663059 
L 104.988727 140.374588 
L 105.440263 138.951529 
L 105.891799 139.663059 
L 106.343335 142.509176 
L 106.794872 140.374588 
L 107.246408 138.951529 
L 107.697944 141.797647 
L 108.14948 139.663059 
L 108.601017 143.220706 
L 109.052553 141.086118 
L 109.504089 141.086118 
L 109.955625 138.951529 
L 111.310234 138.951529 
L 111.76177 142.509176 
L 112.213306 153.893647 
L 112.664843 150.336 
L 113.116379 153.893647 
L 113.567915 162.432 
L 114.019451 168.124235 
L 114.470987 171.681882 
L 115.37406 174.528 
L 115.825596 175.239529 
L 116.277132 172.393412 
L 116.728669 153.893647 
L 117.180205 153.182118 
L 117.631741 150.336 
L 118.083277 150.336 
L 118.534814 148.912941 
L 118.98635 146.778353 
L 119.437886 152.470588 
L 119.889422 153.893647 
L 120.340958 152.470588 
L 120.792495 155.316706 
L 122.147103 159.585882 
L 122.59864 156.028235 
L 123.050176 153.893647 
L 123.501712 159.585882 
L 123.953248 156.028235 
L 124.404784 155.316706 
L 124.856321 160.297412 
L 125.307857 155.316706 
L 125.759393 148.912941 
L 126.210929 147.489882 
L 126.662466 151.759059 
L 127.114002 153.893647 
L 127.565538 155.316706 
L 128.017074 153.893647 
L 128.46861 155.316706 
L 128.920147 151.759059 
L 129.371683 151.047529 
L 129.823219 153.893647 
L 130.274755 159.585882 
L 130.726292 156.739765 
L 131.177828 155.316706 
L 131.629364 152.470588 
L 132.0809 153.182118 
L 132.532436 151.047529 
L 132.983973 153.893647 
L 133.435509 153.182118 
L 133.887045 150.336 
L 134.338581 150.336 
L 134.790118 148.912941 
L 135.241654 150.336 
L 135.69319 149.624471 
L 136.596262 140.374588 
L 137.047799 138.951529 
L 151.496958 138.951529 
L 151.948494 142.509176 
L 152.40003 157.451294 
L 152.851567 149.624471 
L 153.303103 145.355294 
L 153.754639 151.047529 
L 154.657711 163.855059 
L 155.109248 165.278118 
L 155.560784 171.681882 
L 156.01232 175.951059 
L 156.463856 173.104941 
L 156.915393 174.528 
L 157.366929 175.239529 
L 157.818465 172.393412 
L 158.270001 153.893647 
L 158.721537 142.509176 
L 159.173074 146.778353 
L 159.62461 145.355294 
L 160.076146 148.201412 
L 160.527682 146.066824 
L 160.979219 149.624471 
L 161.430755 146.066824 
L 161.882291 151.759059 
L 162.333827 142.509176 
L 162.785364 138.951529 
L 167.752262 138.951529 
L 168.655334 155.316706 
L 169.106871 155.316706 
L 169.558407 154.605176 
L 170.009943 151.047529 
L 170.913016 138.951529 
L 182.201421 138.951529 
L 182.652957 141.797647 
L 183.104494 139.663059 
L 183.55603 139.663059 
L 184.007566 140.374588 
L 184.910639 140.374588 
L 185.362175 138.951529 
L 226.000435 138.951529 
L 226.451971 139.663059 
L 227.355044 153.182118 
L 227.80658 154.605176 
L 228.258116 153.182118 
L 228.709652 151.047529 
L 229.161189 147.489882 
L 229.612725 142.509176 
L 230.064261 140.374588 
L 230.515797 141.797647 
L 230.967333 142.509176 
L 231.41887 140.374588 
L 231.870406 138.951529 
L 232.321942 141.086118 
L 233.676551 143.220706 
L 234.128087 145.355294 
L 234.579623 146.778353 
L 235.031159 143.220706 
L 235.482696 141.086118 
L 235.934232 142.509176 
L 236.385768 146.778353 
L 236.837304 148.201412 
L 237.740377 149.624471 
L 238.191913 147.489882 
L 239.094985 146.066824 
L 239.546522 147.489882 
L 239.998058 146.066824 
L 240.90113 140.374588 
L 241.804203 140.374588 
L 242.255739 138.951529 
L 246.771101 138.951529 
L 247.222638 140.374588 
L 247.674174 141.086118 
L 248.12571 139.663059 
L 249.028782 139.663059 
L 249.480319 138.951529 
L 253.544145 138.951529 
L 253.995681 139.663059 
L 254.447217 138.951529 
L 257.607971 138.951529 
L 258.059507 139.663059 
L 258.511043 138.951529 
L 282.442463 138.951529 
L 282.893999 141.086118 
L 284.248608 143.220706 
L 284.700144 145.355294 
L 285.15168 146.778353 
L 285.603217 143.220706 
L 286.054753 141.086118 
L 286.506289 139.663059 
L 286.957825 138.951529 
L 287.409361 143.932235 
L 288.312434 160.297412 
L 288.76397 162.432 
L 289.215506 152.470588 
L 289.667043 151.047529 
L 290.118579 148.912941 
L 290.570115 146.066824 
L 291.021651 142.509176 
L 293.279332 142.509176 
L 293.730869 140.374588 
L 294.182405 141.086118 
L 294.633941 139.663059 
L 295.085477 141.086118 
L 297.343158 141.086118 
L 297.794695 139.663059 
L 298.246231 138.951529 
L 299.60084 138.951529 
L 300.052376 139.663059 
L 300.503912 139.663059 
L 300.955448 138.951529 
L 301.406984 143.932235 
L 302.310057 160.297412 
L 302.761593 162.432 
L 303.213129 152.470588 
L 303.664666 151.047529 
L 304.116202 148.912941 
L 304.567738 146.066824 
L 305.019274 142.509176 
L 305.922347 142.509176 
L 306.373883 140.374588 
L 306.825419 141.086118 
L 307.276955 141.086118 
L 307.728492 139.663059 
L 308.180028 141.086118 
L 309.986173 141.086118 
L 310.437709 142.509176 
L 310.889245 146.778353 
L 311.340781 148.201412 
L 312.243854 149.624471 
L 312.69539 147.489882 
L 314.501535 144.643765 
L 314.953071 144.643765 
L 316.759216 150.336 
L 317.210752 150.336 
L 317.662289 148.912941 
L 318.113825 148.201412 
L 318.565361 146.066824 
L 319.016897 147.489882 
L 319.468433 146.066824 
L 319.91997 145.355294 
L 320.371506 146.066824 
L 320.823042 143.220706 
L 321.274578 141.797647 
L 322.177651 141.797647 
L 322.629187 141.086118 
L 323.532259 141.086118 
L 323.983796 142.509176 
L 324.435332 146.778353 
L 324.886868 148.201412 
L 325.338404 150.336 
L 325.789941 149.624471 
L 326.241477 141.086118 
L 326.693013 138.951529 
L 327.596085 138.951529 
L 328.047622 210.104471 
L 328.499158 138.951529 
L 328.950694 139.663059 
L 329.40223 146.066824 
L 329.853767 149.624471 
L 330.756839 161.008941 
L 332.111448 173.816471 
L 332.562984 175.951059 
L 333.01452 176.662588 
L 333.466056 176.662588 
L 333.917593 175.951059 
L 334.369129 168.835765 
L 334.820665 165.989647 
L 335.272201 155.316706 
L 335.723738 151.759059 
L 336.175274 151.047529 
L 336.62681 148.912941 
L 337.078346 143.932235 
L 337.529882 141.086118 
L 337.981419 139.663059 
L 338.432955 141.086118 
L 338.884491 139.663059 
L 339.336027 138.951529 
L 339.787564 138.951529 
L 340.2391 139.663059 
L 341.593708 149.624471 
L 342.045245 145.355294 
L 342.948317 139.663059 
L 343.399853 146.066824 
L 343.85139 149.624471 
L 344.302926 147.489882 
L 344.754462 143.932235 
L 345.205998 141.797647 
L 345.657534 140.374588 
L 346.109071 143.220706 
L 346.560607 140.374588 
L 347.012143 138.951529 
L 347.463679 138.951529 
L 348.366752 140.374588 
L 348.818288 138.951529 
L 349.72136 158.162824 
L 350.172897 163.143529 
L 351.075969 157.451294 
L 351.979042 151.047529 
L 352.430578 149.624471 
L 352.882114 141.086118 
L 353.33365 138.951529 
L 354.236723 138.951529 
L 355.139795 163.143529 
L 356.042868 143.932235 
L 356.494404 146.778353 
L 356.94594 156.028235 
L 357.397476 168.124235 
L 358.300549 175.239529 
L 358.752085 174.528 
L 359.203621 210.104471 
L 359.655157 155.316706 
L 360.106694 150.336 
L 360.55823 146.778353 
L 361.009766 145.355294 
L 361.912839 146.778353 
L 362.364375 148.912941 
L 362.815911 154.605176 
L 363.267447 156.028235 
L 363.718983 158.162824 
L 364.17052 162.432 
L 364.622056 172.393412 
L 365.976665 156.739765 
L 366.428201 156.028235 
L 366.879737 143.932235 
L 367.331273 138.951529 
L 367.782809 138.951529 
L 368.234346 139.663059 
L 368.685882 138.951529 
L 371.395099 138.951529 
L 371.846635 139.663059 
L 372.298172 138.951529 
L 373.201244 138.951529 
L 373.65278 139.663059 
L 374.104317 138.951529 
L 375.458925 138.951529 
L 375.910461 139.663059 
L 376.361998 138.951529 
L 376.813534 139.663059 
L 377.26507 138.951529 
L 387.198867 138.951529 
L 387.650403 139.663059 
L 392.165766 139.663059 
L 392.617302 142.509176 
L 393.068838 146.066824 
L 393.520374 210.104471 
L 393.97191 155.316706 
L 394.423447 150.336 
L 394.874983 146.778353 
L 395.326519 145.355294 
L 396.229592 146.778353 
L 396.681128 148.912941 
L 397.132664 154.605176 
L 397.5842 156.028235 
L 398.035737 156.028235 
L 398.487273 158.162824 
L 398.487273 158.162824 
" clip-path="url(#pa81981f8f9)" style="fill: none; stroke: #1f77b4; stroke-width: 1.5; stroke-linecap: square"/>
   </g>
   <g id="patch_8">
    <path d="M 57.6 213.662118 
L 57.6 135.393882 
" style="fill: none; stroke: #000000; stroke-width: 0.8; stroke-linejoin: miter; stroke-linecap: square"/>
   </g>
   <g id="patch_9">
    <path d="M 414.72 213.662118 
L 414.72 135.393882 
" style="fill: none; stroke: #000000; stroke-width: 0.8; stroke-linejoin: miter; stroke-linecap: square"/>
   </g>
   <g id="patch_10">
    <path d="M 57.6 213.662118 
L 414.72 213.662118 
" style="fill: none; stroke: #000000; stroke-width: 0.8; stroke-linejoin: miter; stroke-linecap: square"/>
   </g>
   <g id="patch_11">
    <path d="M 57.6 135.393882 
L 414.72 135.393882 
" style="fill: none; stroke: #000000; stroke-width: 0.8; stroke-linejoin: miter; stroke-linecap: square"/>
   </g>
  </g>
  <g id="axes_3">
   <g id="patch_12">
    <path d="M 57.6 307.584 
L 414.72 307.584 
L 414.72 229.315765 
L 57.6 229.315765 
z
" style="fill: #ffffff"/>
   </g>
   <g id="matplotlib.axis_5">
    <g id="xtick_15">
     <g id="line2d_22">
      <g>
       <use xlink:href="#mb7e94029d1" x="73.832727" y="307.584" style="stroke: #000000; stroke-width: 0.8"/>
      </g>
     </g>
     <g id="text_20">
      <!-- 0 -->
      <g transform="translate(70.651477 322.182437) scale(0.1 -0.1)">
       <use xlink:href="#DejaVuSans-30"/>
      </g>
     </g>
    </g>
    <g id="xtick_16">
     <g id="line2d_23">
      <g>
       <use xlink:href="#mb7e94029d1" x="128.017074" y="307.584" style="stroke: #000000; stroke-width: 0.8"/>
      </g>
     </g>
     <g id="text_21">
      <!-- 5 -->
      <g transform="translate(124.835824 322.182437) scale(0.1 -0.1)">
       <use xlink:href="#DejaVuSans-35"/>
      </g>
     </g>
    </g>
    <g id="xtick_17">
     <g id="line2d_24">
      <g>
       <use xlink:href="#mb7e94029d1" x="182.201421" y="307.584" style="stroke: #000000; stroke-width: 0.8"/>
      </g>
     </g>
     <g id="text_22">
      <!-- 10 -->
      <g transform="translate(175.838921 322.182437) scale(0.1 -0.1)">
       <use xlink:href="#DejaVuSans-31"/>
       <use xlink:href="#DejaVuSans-30" x="63.623047"/>
      </g>
     </g>
    </g>
    <g id="xtick_18">
     <g id="line2d_25">
      <g>
       <use xlink:href="#mb7e94029d1" x="236.385768" y="307.584" style="stroke: #000000; stroke-width: 0.8"/>
      </g>
     </g>
     <g id="text_23">
      <!-- 15 -->
      <g transform="translate(230.023268 322.182437) scale(0.1 -0.1)">
       <use xlink:href="#DejaVuSans-31"/>
       <use xlink:href="#DejaVuSans-35" x="63.623047"/>
      </g>
     </g>
    </g>
    <g id="xtick_19">
     <g id="line2d_26">
      <g>
       <use xlink:href="#mb7e94029d1" x="290.570115" y="307.584" style="stroke: #000000; stroke-width: 0.8"/>
      </g>
     </g>
     <g id="text_24">
      <!-- 20 -->
      <g transform="translate(284.207615 322.182437) scale(0.1 -0.1)">
       <use xlink:href="#DejaVuSans-32"/>
       <use xlink:href="#DejaVuSans-30" x="63.623047"/>
      </g>
     </g>
    </g>
    <g id="xtick_20">
     <g id="line2d_27">
      <g>
       <use xlink:href="#mb7e94029d1" x="344.754462" y="307.584" style="stroke: #000000; stroke-width: 0.8"/>
      </g>
     </g>
     <g id="text_25">
      <!-- 25 -->
      <g transform="translate(338.391962 322.182437) scale(0.1 -0.1)">
       <use xlink:href="#DejaVuSans-32"/>
       <use xlink:href="#DejaVuSans-35" x="63.623047"/>
      </g>
     </g>
    </g>
    <g id="xtick_21">
     <g id="line2d_28">
      <g>
       <use xlink:href="#mb7e94029d1" x="398.938809" y="307.584" style="stroke: #000000; stroke-width: 0.8"/>
      </g>
     </g>
     <g id="text_26">
      <!-- 30 -->
      <g transform="translate(392.576309 322.182437) scale(0.1 -0.1)">
       <use xlink:href="#DejaVuSans-33"/>
       <use xlink:href="#DejaVuSans-30" x="63.623047"/>
      </g>
     </g>
    </g>
   </g>
   <g id="matplotlib.axis_6">
    <g id="ytick_6">
     <g id="line2d_29">
      <g>
       <use xlink:href="#mbc1029a7f5" x="57.6" y="304.026353" style="stroke: #000000; stroke-width: 0.8"/>
      </g>
     </g>
     <g id="text_27">
      <!-- 0.0 -->
      <g transform="translate(34.696875 307.825572) scale(0.1 -0.1)">
       <defs>
        <path id="DejaVuSans-2e" d="M 684 794 
L 1344 794 
L 1344 0 
L 684 0 
L 684 794 
z
" transform="scale(0.015625)"/>
       </defs>
       <use xlink:href="#DejaVuSans-30"/>
       <use xlink:href="#DejaVuSans-2e" x="63.623047"/>
       <use xlink:href="#DejaVuSans-30" x="95.410156"/>
      </g>
     </g>
    </g>
    <g id="ytick_7">
     <g id="line2d_30">
      <g>
       <use xlink:href="#mbc1029a7f5" x="57.6" y="268.449882" style="stroke: #000000; stroke-width: 0.8"/>
      </g>
     </g>
     <g id="text_28">
      <!-- 0.5 -->
      <g transform="translate(34.696875 272.249101) scale(0.1 -0.1)">
       <use xlink:href="#DejaVuSans-30"/>
       <use xlink:href="#DejaVuSans-2e" x="63.623047"/>
       <use xlink:href="#DejaVuSans-35" x="95.410156"/>
      </g>
     </g>
    </g>
    <g id="ytick_8">
     <g id="line2d_31">
      <g>
       <use xlink:href="#mbc1029a7f5" x="57.6" y="232.873412" style="stroke: #000000; stroke-width: 0.8"/>
      </g>
     </g>
     <g id="text_29">
      <!-- 1.0 -->
      <g transform="translate(34.696875 236.672631) scale(0.1 -0.1)">
       <use xlink:href="#DejaVuSans-31"/>
       <use xlink:href="#DejaVuSans-2e" x="63.623047"/>
       <use xlink:href="#DejaVuSans-30" x="95.410156"/>
      </g>
     </g>
    </g>
   </g>
   <g id="line2d_32">
    <path d="M 73.832727 304.026353 
L 102.731046 304.026353 
L 103.182582 232.873412 
L 103.634118 232.873412 
L 104.085654 304.026353 
L 144.272378 304.026353 
L 144.723915 232.873412 
L 145.175451 304.026353 
L 145.626987 232.873412 
L 146.078523 304.026353 
L 184.910639 304.026353 
L 185.362175 232.873412 
L 185.813711 304.026353 
L 186.265247 232.873412 
L 186.716783 304.026353 
L 398.487273 304.026353 
L 398.487273 304.026353 
" clip-path="url(#p423360da36)" style="fill: none; stroke: #1f77b4; stroke-width: 1.5; stroke-linecap: square"/>
   </g>
   <g id="patch_13">
    <path d="M 57.6 307.584 
L 57.6 229.315765 
" style="fill: none; stroke: #000000; stroke-width: 0.8; stroke-linejoin: miter; stroke-linecap: square"/>
   </g>
   <g id="patch_14">
    <path d="M 414.72 307.584 
L 414.72 229.315765 
" style="fill: none; stroke: #000000; stroke-width: 0.8; stroke-linejoin: miter; stroke-linecap: square"/>
   </g>
   <g id="patch_15">
    <path d="M 57.6 307.584 
L 414.72 307.584 
" style="fill: none; stroke: #000000; stroke-width: 0.8; stroke-linejoin: miter; stroke-linecap: square"/>
   </g>
   <g id="patch_16">
    <path d="M 57.6 229.315765 
L 414.72 229.315765 
" style="fill: none; stroke: #000000; stroke-width: 0.8; stroke-linejoin: miter; stroke-linecap: square"/>
   </g>
  </g>
  <g id="text_30">
   <!-- cleaned_weather_fall -->
   <g transform="translate(167.050313 16.030125) scale(0.12 -0.12)">
    <defs>
     <path id="DejaVuSans-63" d="M 3122 3366 
L 3122 2828 
Q 2878 2963 2633 3030 
Q 2388 3097 2138 3097 
Q 1578 3097 1268 2742 
Q 959 2388 959 1747 
Q 959 1106 1268 751 
Q 1578 397 2138 397 
Q 2388 397 2633 464 
Q 2878 531 3122 666 
L 3122 134 
Q 2881 22 2623 -34 
Q 2366 -91 2075 -91 
Q 1284 -91 818 406 
Q 353 903 353 1747 
Q 353 2603 823 3093 
Q 1294 3584 2113 3584 
Q 2378 3584 2631 3529 
Q 2884 3475 3122 3366 
z
" transform="scale(0.015625)"/>
     <path id="DejaVuSans-6c" d="M 603 4863 
L 1178 4863 
L 1178 0 
L 603 0 
L 603 4863 
z
" transform="scale(0.015625)"/>
     <path id="DejaVuSans-65" d="M 3597 1894 
L 3597 1613 
L 953 1613 
Q 991 1019 1311 708 
Q 1631 397 2203 397 
Q 2534 397 2845 478 
Q 3156 559 3463 722 
L 3463 178 
Q 3153 47 2828 -22 
Q 2503 -91 2169 -91 
Q 1331 -91 842 396 
Q 353 884 353 1716 
Q 353 2575 817 3079 
Q 1281 3584 2069 3584 
Q 2775 3584 3186 3129 
Q 3597 2675 3597 1894 
z
M 3022 2063 
Q 3016 2534 2758 2815 
Q 2500 3097 2075 3097 
Q 1594 3097 1305 2825 
Q 1016 2553 972 2059 
L 3022 2063 
z
" transform="scale(0.015625)"/>
     <path id="DejaVuSans-61" d="M 2194 1759 
Q 1497 1759 1228 1600 
Q 959 1441 959 1056 
Q 959 750 1161 570 
Q 1363 391 1709 391 
Q 2188 391 2477 730 
Q 2766 1069 2766 1631 
L 2766 1759 
L 2194 1759 
z
M 3341 1997 
L 3341 0 
L 2766 0 
L 2766 531 
Q 2569 213 2275 61 
Q 1981 -91 1556 -91 
Q 1019 -91 701 211 
Q 384 513 384 1019 
Q 384 1609 779 1909 
Q 1175 2209 1959 2209 
L 2766 2209 
L 2766 2266 
Q 2766 2663 2505 2880 
Q 2244 3097 1772 3097 
Q 1472 3097 1187 3025 
Q 903 2953 641 2809 
L 641 3341 
Q 956 3463 1253 3523 
Q 1550 3584 1831 3584 
Q 2591 3584 2966 3190 
Q 3341 2797 3341 1997 
z
" transform="scale(0.015625)"/>
     <path id="DejaVuSans-6e" d="M 3513 2113 
L 3513 0 
L 2938 0 
L 2938 2094 
Q 2938 2591 2744 2837 
Q 2550 3084 2163 3084 
Q 1697 3084 1428 2787 
Q 1159 2491 1159 1978 
L 1159 0 
L 581 0 
L 581 3500 
L 1159 3500 
L 1159 2956 
Q 1366 3272 1645 3428 
Q 1925 3584 2291 3584 
Q 2894 3584 3203 3211 
Q 3513 2838 3513 2113 
z
" transform="scale(0.015625)"/>
     <path id="DejaVuSans-64" d="M 2906 2969 
L 2906 4863 
L 3481 4863 
L 3481 0 
L 2906 0 
L 2906 525 
Q 2725 213 2448 61 
Q 2172 -91 1784 -91 
Q 1150 -91 751 415 
Q 353 922 353 1747 
Q 353 2572 751 3078 
Q 1150 3584 1784 3584 
Q 2172 3584 2448 3432 
Q 2725 3281 2906 2969 
z
M 947 1747 
Q 947 1113 1208 752 
Q 1469 391 1925 391 
Q 2381 391 2643 752 
Q 2906 1113 2906 1747 
Q 2906 2381 2643 2742 
Q 2381 3103 1925 3103 
Q 1469 3103 1208 2742 
Q 947 2381 947 1747 
z
" transform="scale(0.015625)"/>
     <path id="DejaVuSans-5f" d="M 3263 -1063 
L 3263 -1509 
L -63 -1509 
L -63 -1063 
L 3263 -1063 
z
" transform="scale(0.015625)"/>
     <path id="DejaVuSans-77" d="M 269 3500 
L 844 3500 
L 1563 769 
L 2278 3500 
L 2956 3500 
L 3675 769 
L 4391 3500 
L 4966 3500 
L 4050 0 
L 3372 0 
L 2619 2869 
L 1863 0 
L 1184 0 
L 269 3500 
z
" transform="scale(0.015625)"/>
     <path id="DejaVuSans-74" d="M 1172 4494 
L 1172 3500 
L 2356 3500 
L 2356 3053 
L 1172 3053 
L 1172 1153 
Q 1172 725 1289 603 
Q 1406 481 1766 481 
L 2356 481 
L 2356 0 
L 1766 0 
Q 1100 0 847 248 
Q 594 497 594 1153 
L 594 3053 
L 172 3053 
L 172 3500 
L 594 3500 
L 594 4494 
L 1172 4494 
z
" transform="scale(0.015625)"/>
     <path id="DejaVuSans-68" d="M 3513 2113 
L 3513 0 
L 2938 0 
L 2938 2094 
Q 2938 2591 2744 2837 
Q 2550 3084 2163 3084 
Q 1697 3084 1428 2787 
Q 1159 2491 1159 1978 
L 1159 0 
L 581 0 
L 581 4863 
L 1159 4863 
L 1159 2956 
Q 1366 3272 1645 3428 
Q 1925 3584 2291 3584 
Q 2894 3584 3203 3211 
Q 3513 2838 3513 2113 
z
" transform="scale(0.015625)"/>
     <path id="DejaVuSans-72" d="M 2631 2963 
Q 2534 3019 2420 3045 
Q 2306 3072 2169 3072 
Q 1681 3072 1420 2755 
Q 1159 2438 1159 1844 
L 1159 0 
L 581 0 
L 581 3500 
L 1159 3500 
L 1159 2956 
Q 1341 3275 1631 3429 
Q 1922 3584 2338 3584 
Q 2397 3584 2469 3576 
Q 2541 3569 2628 3553 
L 2631 2963 
z
" transform="scale(0.015625)"/>
     <path id="DejaVuSans-66" d="M 2375 4863 
L 2375 4384 
L 1825 4384 
Q 1516 4384 1395 4259 
Q 1275 4134 1275 3809 
L 1275 3500 
L 2222 3500 
L 2222 3053 
L 1275 3053 
L 1275 0 
L 697 0 
L 697 3053 
L 147 3053 
L 147 3500 
L 697 3500 
L 697 3744 
Q 697 4328 969 4595 
Q 1241 4863 1831 4863 
L 2375 4863 
z
" transform="scale(0.015625)"/>
    </defs>
    <use xlink:href="#DejaVuSans-63"/>
    <use xlink:href="#DejaVuSans-6c" x="54.980469"/>
    <use xlink:href="#DejaVuSans-65" x="82.763672"/>
    <use xlink:href="#DejaVuSans-61" x="144.287109"/>
    <use xlink:href="#DejaVuSans-6e" x="205.566406"/>
    <use xlink:href="#DejaVuSans-65" x="268.945312"/>
    <use xlink:href="#DejaVuSans-64" x="330.46875"/>
    <use xlink:href="#DejaVuSans-5f" x="393.945312"/>
    <use xlink:href="#DejaVuSans-77" x="443.945312"/>
    <use xlink:href="#DejaVuSans-65" x="525.732422"/>
    <use xlink:href="#DejaVuSans-61" x="587.255859"/>
    <use xlink:href="#DejaVuSans-74" x="648.535156"/>
    <use xlink:href="#DejaVuSans-68" x="687.744141"/>
    <use xlink:href="#DejaVuSans-65" x="751.123047"/>
    <use xlink:href="#DejaVuSans-72" x="812.646484"/>
    <use xlink:href="#DejaVuSans-5f" x="853.759766"/>
    <use xlink:href="#DejaVuSans-66" x="903.759766"/>
    <use xlink:href="#DejaVuSans-61" x="938.964844"/>
    <use xlink:href="#DejaVuSans-6c" x="1000.244141"/>
    <use xlink:href="#DejaVuSans-6c" x="1028.027344"/>
   </g>
  </g>
 </g>
 <defs>
  <clipPath id="pb5223a1cc4">
   <rect x="57.6" y="41.472" width="357.12" height="78.268235"/>
  </clipPath>
  <clipPath id="pa81981f8f9">
   <rect x="57.6" y="135.393882" width="357.12" height="78.268235"/>
  </clipPath>
  <clipPath id="p423360da36">
   <rect x="57.6" y="229.315765" width="357.12" height="78.268235"/>
  </clipPath>
 </defs>
</svg>
