<?xml version="1.0" encoding="utf-8" standalone="no"?>
<!DOCTYPE svg PUBLIC "-//W3C//DTD SVG 1.1//EN"
  "http://www.w3.org/Graphics/SVG/1.1/DTD/svg11.dtd">
<svg xmlns:xlink="http://www.w3.org/1999/xlink" width="460.8pt" height="345.6pt" viewBox="0 0 460.8 345.6" xmlns="http://www.w3.org/2000/svg" version="1.1">
 <metadata>
  <rdf:RDF xmlns:dc="http://purl.org/dc/elements/1.1/" xmlns:cc="http://creativecommons.org/ns#" xmlns:rdf="http://www.w3.org/1999/02/22-rdf-syntax-ns#">
   <cc:Work>
    <dc:type rdf:resource="http://purl.org/dc/dcmitype/StillImage"/>
    <dc:date>2023-04-08T20:04:25.954772</dc:date>
    <dc:format>image/svg+xml</dc:format>
    <dc:creator>
     <cc:Agent>
      <dc:title>Matplotlib v3.7.1, https://matplotlib.org/</dc:title>
     </cc:Agent>
    </dc:creator>
   </cc:Work>
  </rdf:RDF>
 </metadata>
 <defs>
  <style type="text/css">*{stroke-linejoin: round; stroke-linecap: butt}</style>
 </defs>
 <g id="figure_1">
  <g id="patch_1">
   <path d="M 0 345.6 
L 460.8 345.6 
L 460.8 0 
L 0 0 
z
" style="fill: #ffffff"/>
  </g>
  <g id="axes_1">
   <g id="patch_2">
    <path d="M 57.6 119.740235 
L 414.72 119.740235 
L 414.72 41.472 
L 57.6 41.472 
z
" style="fill: #ffffff"/>
   </g>
   <g id="matplotlib.axis_1">
    <g id="xtick_1">
     <g id="line2d_1">
      <defs>
       <path id="m5dc79ff1cd" d="M 0 0 
L 0 3.5 
" style="stroke: #000000; stroke-width: 0.8"/>
      </defs>
      <g>
       <use xlink:href="#m5dc79ff1cd" x="73.832727" y="119.740235" style="stroke: #000000; stroke-width: 0.8"/>
      </g>
     </g>
     <g id="text_1">
      <!-- 0 -->
      <g transform="translate(70.651477 134.338673) scale(0.1 -0.1)">
       <defs>
        <path id="DejaVuSans-30" d="M 2034 4250 
Q 1547 4250 1301 3770 
Q 1056 3291 1056 2328 
Q 1056 1369 1301 889 
Q 1547 409 2034 409 
Q 2525 409 2770 889 
Q 3016 1369 3016 2328 
Q 3016 3291 2770 3770 
Q 2525 4250 2034 4250 
z
M 2034 4750 
Q 2819 4750 3233 4129 
Q 3647 3509 3647 2328 
Q 3647 1150 3233 529 
Q 2819 -91 2034 -91 
Q 1250 -91 836 529 
Q 422 1150 422 2328 
Q 422 3509 836 4129 
Q 1250 4750 2034 4750 
z
" transform="scale(0.015625)"/>
       </defs>
       <use xlink:href="#DejaVuSans-30"/>
      </g>
     </g>
    </g>
    <g id="xtick_2">
     <g id="line2d_2">
      <g>
       <use xlink:href="#m5dc79ff1cd" x="128.017074" y="119.740235" style="stroke: #000000; stroke-width: 0.8"/>
      </g>
     </g>
     <g id="text_2">
      <!-- 5 -->
      <g transform="translate(124.835824 134.338673) scale(0.1 -0.1)">
       <defs>
        <path id="DejaVuSans-35" d="M 691 4666 
L 3169 4666 
L 3169 4134 
L 1269 4134 
L 1269 2991 
Q 1406 3038 1543 3061 
Q 1681 3084 1819 3084 
Q 2600 3084 3056 2656 
Q 3513 2228 3513 1497 
Q 3513 744 3044 326 
Q 2575 -91 1722 -91 
Q 1428 -91 1123 -41 
Q 819 9 494 109 
L 494 744 
Q 775 591 1075 516 
Q 1375 441 1709 441 
Q 2250 441 2565 725 
Q 2881 1009 2881 1497 
Q 2881 1984 2565 2268 
Q 2250 2553 1709 2553 
Q 1456 2553 1204 2497 
Q 953 2441 691 2322 
L 691 4666 
z
" transform="scale(0.015625)"/>
       </defs>
       <use xlink:href="#DejaVuSans-35"/>
      </g>
     </g>
    </g>
    <g id="xtick_3">
     <g id="line2d_3">
      <g>
       <use xlink:href="#m5dc79ff1cd" x="182.201421" y="119.740235" style="stroke: #000000; stroke-width: 0.8"/>
      </g>
     </g>
     <g id="text_3">
      <!-- 10 -->
      <g transform="translate(175.838921 134.338673) scale(0.1 -0.1)">
       <defs>
        <path id="DejaVuSans-31" d="M 794 531 
L 1825 531 
L 1825 4091 
L 703 3866 
L 703 4441 
L 1819 4666 
L 2450 4666 
L 2450 531 
L 3481 531 
L 3481 0 
L 794 0 
L 794 531 
z
" transform="scale(0.015625)"/>
       </defs>
       <use xlink:href="#DejaVuSans-31"/>
       <use xlink:href="#DejaVuSans-30" x="63.623047"/>
      </g>
     </g>
    </g>
    <g id="xtick_4">
     <g id="line2d_4">
      <g>
       <use xlink:href="#m5dc79ff1cd" x="236.385768" y="119.740235" style="stroke: #000000; stroke-width: 0.8"/>
      </g>
     </g>
     <g id="text_4">
      <!-- 15 -->
      <g transform="translate(230.023268 134.338673) scale(0.1 -0.1)">
       <use xlink:href="#DejaVuSans-31"/>
       <use xlink:href="#DejaVuSans-35" x="63.623047"/>
      </g>
     </g>
    </g>
    <g id="xtick_5">
     <g id="line2d_5">
      <g>
       <use xlink:href="#m5dc79ff1cd" x="290.570115" y="119.740235" style="stroke: #000000; stroke-width: 0.8"/>
      </g>
     </g>
     <g id="text_5">
      <!-- 20 -->
      <g transform="translate(284.207615 134.338673) scale(0.1 -0.1)">
       <defs>
        <path id="DejaVuSans-32" d="M 1228 531 
L 3431 531 
L 3431 0 
L 469 0 
L 469 531 
Q 828 903 1448 1529 
Q 2069 2156 2228 2338 
Q 2531 2678 2651 2914 
Q 2772 3150 2772 3378 
Q 2772 3750 2511 3984 
Q 2250 4219 1831 4219 
Q 1534 4219 1204 4116 
Q 875 4013 500 3803 
L 500 4441 
Q 881 4594 1212 4672 
Q 1544 4750 1819 4750 
Q 2544 4750 2975 4387 
Q 3406 4025 3406 3419 
Q 3406 3131 3298 2873 
Q 3191 2616 2906 2266 
Q 2828 2175 2409 1742 
Q 1991 1309 1228 531 
z
" transform="scale(0.015625)"/>
       </defs>
       <use xlink:href="#DejaVuSans-32"/>
       <use xlink:href="#DejaVuSans-30" x="63.623047"/>
      </g>
     </g>
    </g>
    <g id="xtick_6">
     <g id="line2d_6">
      <g>
       <use xlink:href="#m5dc79ff1cd" x="344.754462" y="119.740235" style="stroke: #000000; stroke-width: 0.8"/>
      </g>
     </g>
     <g id="text_6">
      <!-- 25 -->
      <g transform="translate(338.391962 134.338673) scale(0.1 -0.1)">
       <use xlink:href="#DejaVuSans-32"/>
       <use xlink:href="#DejaVuSans-35" x="63.623047"/>
      </g>
     </g>
    </g>
    <g id="xtick_7">
     <g id="line2d_7">
      <g>
       <use xlink:href="#m5dc79ff1cd" x="398.938809" y="119.740235" style="stroke: #000000; stroke-width: 0.8"/>
      </g>
     </g>
     <g id="text_7">
      <!-- 30 -->
      <g transform="translate(392.576309 134.338673) scale(0.1 -0.1)">
       <defs>
        <path id="DejaVuSans-33" d="M 2597 2516 
Q 3050 2419 3304 2112 
Q 3559 1806 3559 1356 
Q 3559 666 3084 287 
Q 2609 -91 1734 -91 
Q 1441 -91 1130 -33 
Q 819 25 488 141 
L 488 750 
Q 750 597 1062 519 
Q 1375 441 1716 441 
Q 2309 441 2620 675 
Q 2931 909 2931 1356 
Q 2931 1769 2642 2001 
Q 2353 2234 1838 2234 
L 1294 2234 
L 1294 2753 
L 1863 2753 
Q 2328 2753 2575 2939 
Q 2822 3125 2822 3475 
Q 2822 3834 2567 4026 
Q 2313 4219 1838 4219 
Q 1578 4219 1281 4162 
Q 984 4106 628 3988 
L 628 4550 
Q 988 4650 1302 4700 
Q 1616 4750 1894 4750 
Q 2613 4750 3031 4423 
Q 3450 4097 3450 3541 
Q 3450 3153 3228 2886 
Q 3006 2619 2597 2516 
z
" transform="scale(0.015625)"/>
       </defs>
       <use xlink:href="#DejaVuSans-33"/>
       <use xlink:href="#DejaVuSans-30" x="63.623047"/>
      </g>
     </g>
    </g>
   </g>
   <g id="matplotlib.axis_2">
    <g id="ytick_1">
     <g id="line2d_8">
      <defs>
       <path id="m7ca1639170" d="M 0 0 
L -3.5 0 
" style="stroke: #000000; stroke-width: 0.8"/>
      </defs>
      <g>
       <use xlink:href="#m7ca1639170" x="57.6" y="98.93339" style="stroke: #000000; stroke-width: 0.8"/>
      </g>
     </g>
     <g id="text_8">
      <!-- 10 -->
      <g transform="translate(37.875 102.732609) scale(0.1 -0.1)">
       <use xlink:href="#DejaVuSans-31"/>
       <use xlink:href="#DejaVuSans-30" x="63.623047"/>
      </g>
     </g>
    </g>
    <g id="ytick_2">
     <g id="line2d_9">
      <g>
       <use xlink:href="#m7ca1639170" x="57.6" y="77.371893" style="stroke: #000000; stroke-width: 0.8"/>
      </g>
     </g>
     <g id="text_9">
      <!-- 20 -->
      <g transform="translate(37.875 81.171112) scale(0.1 -0.1)">
       <use xlink:href="#DejaVuSans-32"/>
       <use xlink:href="#DejaVuSans-30" x="63.623047"/>
      </g>
     </g>
    </g>
    <g id="ytick_3">
     <g id="line2d_10">
      <g>
       <use xlink:href="#m7ca1639170" x="57.6" y="55.810396" style="stroke: #000000; stroke-width: 0.8"/>
      </g>
     </g>
     <g id="text_10">
      <!-- 30 -->
      <g transform="translate(37.875 59.609614) scale(0.1 -0.1)">
       <use xlink:href="#DejaVuSans-33"/>
       <use xlink:href="#DejaVuSans-30" x="63.623047"/>
      </g>
     </g>
    </g>
   </g>
   <g id="line2d_11">
    <path d="M 73.832727 96.777241 
L 74.284263 96.777241 
L 74.7358 103.24569 
L 75.187336 107.557989 
L 75.638872 107.557989 
L 76.993481 101.08954 
L 77.896553 101.08954 
L 78.34809 103.24569 
L 80.154234 103.24569 
L 81.057307 107.557989 
L 81.508843 98.93339 
L 81.960379 101.08954 
L 83.314988 101.08954 
L 84.669597 107.557989 
L 85.121133 103.24569 
L 85.572669 92.464941 
L 86.475742 96.777241 
L 86.927278 101.08954 
L 87.378814 101.08954 
L 87.83035 98.93339 
L 88.281886 94.621091 
L 88.733423 92.464941 
L 89.636495 83.840342 
L 90.088031 83.840342 
L 90.991104 79.528043 
L 91.44264 83.840342 
L 91.894176 94.621091 
L 93.248785 88.152642 
L 94.151857 92.464941 
L 95.958002 75.215743 
L 96.409539 73.059594 
L 97.312611 64.434995 
L 97.764147 64.434995 
L 98.66722 68.747294 
L 99.570292 68.747294 
L 100.021828 77.371893 
L 100.473365 79.528043 
L 100.924901 79.528043 
L 101.376437 81.684193 
L 102.279509 81.684193 
L 102.731046 83.840342 
L 103.182582 83.840342 
L 103.634118 85.996492 
L 104.085654 90.308791 
L 104.537191 85.996492 
L 104.988727 90.308791 
L 105.440263 85.996492 
L 105.891799 90.308791 
L 106.343335 90.308791 
L 106.794872 92.464941 
L 107.697944 92.464941 
L 108.14948 90.308791 
L 108.601017 90.308791 
L 109.052553 81.684193 
L 109.504089 79.528043 
L 109.955625 79.528043 
L 112.664843 66.591144 
L 113.116379 68.747294 
L 113.567915 68.747294 
L 114.019451 75.215743 
L 115.37406 81.684193 
L 115.825596 81.684193 
L 117.180205 88.152642 
L 117.631741 83.840342 
L 118.083277 85.996492 
L 118.534814 83.840342 
L 118.98635 79.528043 
L 119.437886 77.371893 
L 119.889422 79.528043 
L 120.340958 83.840342 
L 120.792495 85.996492 
L 121.695567 98.93339 
L 123.050176 105.40184 
L 124.404784 92.464941 
L 124.856321 98.93339 
L 126.210929 105.40184 
L 127.114002 105.40184 
L 127.565538 96.777241 
L 128.017074 94.621091 
L 128.46861 90.308791 
L 129.371683 73.059594 
L 130.274755 68.747294 
L 130.726292 64.434995 
L 131.177828 64.434995 
L 132.0809 68.747294 
L 132.983973 68.747294 
L 133.435509 77.371893 
L 133.887045 79.528043 
L 134.338581 79.528043 
L 134.790118 81.684193 
L 136.144726 81.684193 
L 136.596262 83.840342 
L 137.047799 83.840342 
L 137.499335 85.996492 
L 137.950871 90.308791 
L 138.402407 85.996492 
L 138.853944 90.308791 
L 139.30548 90.308791 
L 139.757016 92.464941 
L 140.660089 92.464941 
L 141.111625 90.308791 
L 141.563161 90.308791 
L 142.014697 81.684193 
L 142.466233 79.528043 
L 142.91777 79.528043 
L 145.626987 66.591144 
L 146.078523 68.747294 
L 146.530059 68.747294 
L 146.981596 75.215743 
L 148.336204 81.684193 
L 148.787741 81.684193 
L 149.690813 85.996492 
L 150.142349 73.059594 
L 150.593885 64.434995 
L 151.496958 60.122695 
L 155.109248 60.122695 
L 155.560784 57.966545 
L 156.01232 60.122695 
L 156.915393 68.747294 
L 157.366929 79.528043 
L 158.270001 83.840342 
L 159.62461 83.840342 
L 160.076146 88.152642 
L 160.527682 88.152642 
L 160.979219 92.464941 
L 161.882291 92.464941 
L 162.333827 90.308791 
L 162.785364 81.684193 
L 163.2369 79.528043 
L 163.688436 79.528043 
L 164.591508 83.840342 
L 165.946117 83.840342 
L 166.397653 88.152642 
L 166.84919 88.152642 
L 167.300726 92.464941 
L 168.203798 92.464941 
L 168.655334 90.308791 
L 169.106871 90.308791 
L 169.558407 83.840342 
L 170.913016 77.371893 
L 171.364552 77.371893 
L 171.816088 75.215743 
L 173.170697 75.215743 
L 173.622233 79.528043 
L 174.073769 77.371893 
L 174.525305 79.528043 
L 174.976842 75.215743 
L 175.428378 73.059594 
L 176.33145 73.059594 
L 176.782986 75.215743 
L 177.234523 83.840342 
L 177.686059 88.152642 
L 178.137595 88.152642 
L 178.589131 90.308791 
L 179.040668 90.308791 
L 179.492204 92.464941 
L 182.652957 92.464941 
L 183.104494 85.996492 
L 183.55603 81.684193 
L 184.007566 75.215743 
L 185.813711 66.591144 
L 186.265247 66.591144 
L 186.716783 68.747294 
L 187.16832 66.591144 
L 187.619856 68.747294 
L 188.522928 68.747294 
L 189.426001 77.371893 
L 189.877537 83.840342 
L 190.329073 85.996492 
L 190.780609 90.308791 
L 191.232146 92.464941 
L 193.941363 92.464941 
L 194.392899 90.308791 
L 194.844435 83.840342 
L 196.199044 77.371893 
L 196.65058 77.371893 
L 197.102117 75.215743 
L 197.553653 75.215743 
L 198.456725 70.903444 
L 198.908261 73.059594 
L 199.359798 73.059594 
L 199.811334 75.215743 
L 200.26287 79.528043 
L 200.714406 77.371893 
L 201.617479 81.684193 
L 202.069015 81.684193 
L 202.520551 83.840342 
L 204.326696 83.840342 
L 204.778232 92.464941 
L 206.584377 92.464941 
L 207.035914 94.621091 
L 207.48745 92.464941 
L 207.938986 88.152642 
L 209.293595 81.684193 
L 209.745131 88.152642 
L 210.196667 85.996492 
L 210.648203 79.528043 
L 211.09974 75.215743 
L 211.551276 68.747294 
L 212.002812 66.591144 
L 212.454348 66.591144 
L 212.905884 62.278845 
L 213.357421 60.122695 
L 214.712029 60.122695 
L 215.163566 62.278845 
L 215.615102 68.747294 
L 216.066638 66.591144 
L 216.518174 70.903444 
L 217.872783 77.371893 
L 218.324319 81.684193 
L 218.775855 83.840342 
L 219.227392 83.840342 
L 219.678928 85.996492 
L 220.130464 92.464941 
L 222.388145 92.464941 
L 222.839681 90.308791 
L 223.291218 90.308791 
L 223.742754 81.684193 
L 224.19429 79.528043 
L 224.645826 79.528043 
L 227.355044 66.591144 
L 227.80658 68.747294 
L 228.258116 68.747294 
L 228.709652 75.215743 
L 230.064261 81.684193 
L 230.515797 81.684193 
L 231.41887 85.996492 
L 231.870406 73.059594 
L 232.321942 64.434995 
L 232.773478 60.122695 
L 233.225015 53.654246 
L 234.128087 49.341947 
L 234.579623 49.341947 
L 235.482696 45.029647 
L 235.934232 45.029647 
L 236.385768 47.185797 
L 236.837304 51.498096 
L 237.740377 68.747294 
L 238.191913 75.215743 
L 238.643449 77.371893 
L 239.094985 75.215743 
L 239.546522 81.684193 
L 240.90113 88.152642 
L 241.352667 88.152642 
L 242.255739 83.840342 
L 242.707275 77.371893 
L 243.610348 73.059594 
L 244.061884 68.747294 
L 244.51342 75.215743 
L 244.964956 75.215743 
L 245.416493 73.059594 
L 245.868029 77.371893 
L 246.319565 77.371893 
L 246.771101 79.528043 
L 248.12571 92.464941 
L 248.577246 85.996492 
L 249.028782 81.684193 
L 249.480319 75.215743 
L 251.286464 66.591144 
L 251.738 66.591144 
L 252.189536 68.747294 
L 252.641072 66.591144 
L 253.092608 68.747294 
L 253.995681 68.747294 
L 254.898753 77.371893 
L 255.35029 83.840342 
L 255.801826 85.996492 
L 256.253362 90.308791 
L 256.704898 90.308791 
L 257.156434 85.996492 
L 258.059507 94.621091 
L 258.962579 94.621091 
L 259.865652 90.308791 
L 260.317188 85.996492 
L 260.768724 83.840342 
L 261.22026 83.840342 
L 261.671797 92.464941 
L 263.477942 92.464941 
L 263.929478 94.621091 
L 264.381014 92.464941 
L 264.83255 88.152642 
L 266.187159 81.684193 
L 267.090231 81.684193 
L 267.541768 79.528043 
L 267.993304 75.215743 
L 268.44484 75.215743 
L 268.896376 73.059594 
L 269.799449 73.059594 
L 270.250985 68.747294 
L 271.605594 68.747294 
L 272.05713 70.903444 
L 272.960202 79.528043 
L 273.411739 75.215743 
L 273.863275 75.215743 
L 275.217883 68.747294 
L 275.66942 68.747294 
L 276.120956 66.591144 
L 277.024028 66.591144 
L 277.475565 68.747294 
L 277.927101 66.591144 
L 278.378637 66.591144 
L 278.830173 70.903444 
L 280.184782 77.371893 
L 280.636318 81.684193 
L 281.087854 83.840342 
L 281.539391 83.840342 
L 281.990927 85.996492 
L 282.442463 92.464941 
L 283.345535 92.464941 
L 283.797072 94.621091 
L 284.700144 81.684193 
L 285.15168 79.528043 
L 285.603217 75.215743 
L 286.054753 75.215743 
L 286.506289 68.747294 
L 287.409361 68.747294 
L 287.860898 66.591144 
L 288.76397 66.591144 
L 289.215506 68.747294 
L 290.570115 81.684193 
L 291.021651 83.840342 
L 291.924724 83.840342 
L 292.827796 88.152642 
L 294.182405 88.152642 
L 294.633941 90.308791 
L 295.537014 90.308791 
L 295.98855 92.464941 
L 299.60084 92.464941 
L 300.052376 90.308791 
L 300.503912 90.308791 
L 300.955448 81.684193 
L 301.406984 79.528043 
L 301.858521 79.528043 
L 304.567738 66.591144 
L 305.019274 68.747294 
L 305.47081 68.747294 
L 305.922347 75.215743 
L 307.276955 81.684193 
L 307.728492 81.684193 
L 310.889245 96.777241 
L 311.340781 96.777241 
L 311.792318 92.464941 
L 312.243854 90.308791 
L 312.69539 90.308791 
L 313.598463 85.996492 
L 314.049999 85.996492 
L 314.501535 83.840342 
L 314.953071 83.840342 
L 315.404607 85.996492 
L 315.856144 85.996492 
L 316.30768 83.840342 
L 318.113825 83.840342 
L 318.565361 81.684193 
L 319.016897 83.840342 
L 319.91997 101.08954 
L 320.371506 105.40184 
L 320.823042 105.40184 
L 321.726115 109.714139 
L 322.177651 107.557989 
L 322.629187 98.93339 
L 323.080723 94.621091 
L 323.532259 92.464941 
L 323.983796 85.996492 
L 324.435332 81.684193 
L 325.338404 81.684193 
L 325.789941 79.528043 
L 326.241477 81.684193 
L 326.693013 88.152642 
L 327.144549 88.152642 
L 327.596085 94.621091 
L 328.047622 98.93339 
L 328.499158 101.08954 
L 328.950694 101.08954 
L 329.40223 98.93339 
L 329.853767 94.621091 
L 330.305303 92.464941 
L 331.208375 83.840342 
L 331.659911 81.684193 
L 332.111448 81.684193 
L 333.01452 77.371893 
L 333.466056 79.528043 
L 333.917593 79.528043 
L 335.723738 88.152642 
L 336.175274 88.152642 
L 337.078346 92.464941 
L 337.529882 92.464941 
L 338.884491 85.996492 
L 339.336027 81.684193 
L 339.787564 75.215743 
L 340.2391 70.903444 
L 341.142172 66.591144 
L 342.496781 73.059594 
L 342.948317 73.059594 
L 343.399853 75.215743 
L 344.302926 83.840342 
L 344.754462 81.684193 
L 345.205998 77.371893 
L 346.109071 73.059594 
L 346.560607 68.747294 
L 347.012143 66.591144 
L 347.463679 62.278845 
L 347.915216 60.122695 
L 348.366752 62.278845 
L 348.818288 66.591144 
L 349.269824 68.747294 
L 351.527505 68.747294 
L 351.979042 73.059594 
L 352.430578 83.840342 
L 353.33365 92.464941 
L 353.785186 83.840342 
L 354.236723 79.528043 
L 355.591331 73.059594 
L 356.042868 75.215743 
L 356.494404 83.840342 
L 356.94594 88.152642 
L 358.300549 75.215743 
L 360.106694 66.591144 
L 360.55823 68.747294 
L 361.009766 66.591144 
L 361.461302 62.278845 
L 361.912839 60.122695 
L 362.364375 62.278845 
L 362.815911 66.591144 
L 363.267447 68.747294 
L 365.073592 68.747294 
L 365.525128 66.591144 
L 365.976665 68.747294 
L 366.428201 73.059594 
L 366.879737 75.215743 
L 367.331273 73.059594 
L 367.782809 68.747294 
L 368.234346 77.371893 
L 368.685882 75.215743 
L 369.137418 79.528043 
L 370.040491 92.464941 
L 370.492027 94.621091 
L 370.943563 94.621091 
L 371.395099 98.93339 
L 372.298172 103.24569 
L 373.201244 103.24569 
L 373.65278 101.08954 
L 374.104317 105.40184 
L 374.555853 105.40184 
L 375.007389 107.557989 
L 375.458925 107.557989 
L 375.910461 109.714139 
L 376.361998 109.714139 
L 377.716606 116.182588 
L 378.168143 116.182588 
L 378.619679 107.557989 
L 379.071215 96.777241 
L 379.522751 92.464941 
L 379.974288 94.621091 
L 380.425824 92.464941 
L 380.87736 92.464941 
L 381.328896 98.93339 
L 381.780432 92.464941 
L 382.231969 90.308791 
L 382.683505 85.996492 
L 383.135041 85.996492 
L 383.586577 90.308791 
L 384.48965 90.308791 
L 385.844258 103.24569 
L 386.747331 107.557989 
L 387.650403 107.557989 
L 389.005012 94.621091 
L 390.811157 85.996492 
L 391.262693 85.996492 
L 393.068838 103.24569 
L 393.97191 107.557989 
L 394.874983 107.557989 
L 396.229592 94.621091 
L 396.681128 92.464941 
L 397.132664 94.621091 
L 398.035737 94.621091 
L 398.487273 96.777241 
L 398.487273 96.777241 
" clip-path="url(#p9f55deb568)" style="fill: none; stroke: #1f77b4; stroke-width: 1.5; stroke-linecap: square"/>
   </g>
   <g id="patch_3">
    <path d="M 57.6 119.740235 
L 57.6 41.472 
" style="fill: none; stroke: #000000; stroke-width: 0.8; stroke-linejoin: miter; stroke-linecap: square"/>
   </g>
   <g id="patch_4">
    <path d="M 414.72 119.740235 
L 414.72 41.472 
" style="fill: none; stroke: #000000; stroke-width: 0.8; stroke-linejoin: miter; stroke-linecap: square"/>
   </g>
   <g id="patch_5">
    <path d="M 57.6 119.740235 
L 414.72 119.740235 
" style="fill: none; stroke: #000000; stroke-width: 0.8; stroke-linejoin: miter; stroke-linecap: square"/>
   </g>
   <g id="patch_6">
    <path d="M 57.6 41.472 
L 414.72 41.472 
" style="fill: none; stroke: #000000; stroke-width: 0.8; stroke-linejoin: miter; stroke-linecap: square"/>
   </g>
  </g>
  <g id="axes_2">
   <g id="patch_7">
    <path d="M 57.6 213.662118 
L 414.72 213.662118 
L 414.72 135.393882 
L 57.6 135.393882 
z
" style="fill: #ffffff"/>
   </g>
   <g id="matplotlib.axis_3">
    <g id="xtick_8">
     <g id="line2d_12">
      <g>
       <use xlink:href="#m5dc79ff1cd" x="73.832727" y="213.662118" style="stroke: #000000; stroke-width: 0.8"/>
      </g>
     </g>
     <g id="text_11">
      <!-- 0 -->
      <g transform="translate(70.651477 228.260555) scale(0.1 -0.1)">
       <use xlink:href="#DejaVuSans-30"/>
      </g>
     </g>
    </g>
    <g id="xtick_9">
     <g id="line2d_13">
      <g>
       <use xlink:href="#m5dc79ff1cd" x="128.017074" y="213.662118" style="stroke: #000000; stroke-width: 0.8"/>
      </g>
     </g>
     <g id="text_12">
      <!-- 5 -->
      <g transform="translate(124.835824 228.260555) scale(0.1 -0.1)">
       <use xlink:href="#DejaVuSans-35"/>
      </g>
     </g>
    </g>
    <g id="xtick_10">
     <g id="line2d_14">
      <g>
       <use xlink:href="#m5dc79ff1cd" x="182.201421" y="213.662118" style="stroke: #000000; stroke-width: 0.8"/>
      </g>
     </g>
     <g id="text_13">
      <!-- 10 -->
      <g transform="translate(175.838921 228.260555) scale(0.1 -0.1)">
       <use xlink:href="#DejaVuSans-31"/>
       <use xlink:href="#DejaVuSans-30" x="63.623047"/>
      </g>
     </g>
    </g>
    <g id="xtick_11">
     <g id="line2d_15">
      <g>
       <use xlink:href="#m5dc79ff1cd" x="236.385768" y="213.662118" style="stroke: #000000; stroke-width: 0.8"/>
      </g>
     </g>
     <g id="text_14">
      <!-- 15 -->
      <g transform="translate(230.023268 228.260555) scale(0.1 -0.1)">
       <use xlink:href="#DejaVuSans-31"/>
       <use xlink:href="#DejaVuSans-35" x="63.623047"/>
      </g>
     </g>
    </g>
    <g id="xtick_12">
     <g id="line2d_16">
      <g>
       <use xlink:href="#m5dc79ff1cd" x="290.570115" y="213.662118" style="stroke: #000000; stroke-width: 0.8"/>
      </g>
     </g>
     <g id="text_15">
      <!-- 20 -->
      <g transform="translate(284.207615 228.260555) scale(0.1 -0.1)">
       <use xlink:href="#DejaVuSans-32"/>
       <use xlink:href="#DejaVuSans-30" x="63.623047"/>
      </g>
     </g>
    </g>
    <g id="xtick_13">
     <g id="line2d_17">
      <g>
       <use xlink:href="#m5dc79ff1cd" x="344.754462" y="213.662118" style="stroke: #000000; stroke-width: 0.8"/>
      </g>
     </g>
     <g id="text_16">
      <!-- 25 -->
      <g transform="translate(338.391962 228.260555) scale(0.1 -0.1)">
       <use xlink:href="#DejaVuSans-32"/>
       <use xlink:href="#DejaVuSans-35" x="63.623047"/>
      </g>
     </g>
    </g>
    <g id="xtick_14">
     <g id="line2d_18">
      <g>
       <use xlink:href="#m5dc79ff1cd" x="398.938809" y="213.662118" style="stroke: #000000; stroke-width: 0.8"/>
      </g>
     </g>
     <g id="text_17">
      <!-- 30 -->
      <g transform="translate(392.576309 228.260555) scale(0.1 -0.1)">
       <use xlink:href="#DejaVuSans-33"/>
       <use xlink:href="#DejaVuSans-30" x="63.623047"/>
      </g>
     </g>
    </g>
   </g>
   <g id="matplotlib.axis_4">
    <g id="ytick_4">
     <g id="line2d_19">
      <g>
       <use xlink:href="#m7ca1639170" x="57.6" y="188.363294" style="stroke: #000000; stroke-width: 0.8"/>
      </g>
     </g>
     <g id="text_18">
      <!-- 50 -->
      <g transform="translate(37.875 192.162513) scale(0.1 -0.1)">
       <use xlink:href="#DejaVuSans-35"/>
       <use xlink:href="#DejaVuSans-30" x="63.623047"/>
      </g>
     </g>
    </g>
    <g id="ytick_5">
     <g id="line2d_20">
      <g>
       <use xlink:href="#m7ca1639170" x="57.6" y="138.951529" style="stroke: #000000; stroke-width: 0.8"/>
      </g>
     </g>
     <g id="text_19">
      <!-- 100 -->
      <g transform="translate(31.5125 142.750748) scale(0.1 -0.1)">
       <use xlink:href="#DejaVuSans-31"/>
       <use xlink:href="#DejaVuSans-30" x="63.623047"/>
       <use xlink:href="#DejaVuSans-30" x="127.246094"/>
      </g>
     </g>
    </g>
   </g>
   <g id="line2d_21">
    <path d="M 73.832727 155.751529 
L 74.284263 153.775059 
L 74.7358 143.892706 
L 75.187336 139.939765 
L 75.638872 140.928 
L 76.090408 144.880941 
L 76.541945 146.857412 
L 76.993481 147.845647 
L 77.445017 149.822118 
L 77.896553 140.928 
L 78.34809 138.951529 
L 79.251162 138.951529 
L 79.702698 140.928 
L 80.154234 138.951529 
L 81.057307 138.951529 
L 81.508843 147.845647 
L 81.960379 142.904471 
L 82.863452 138.951529 
L 84.669597 138.951529 
L 85.121133 142.904471 
L 85.572669 160.692706 
L 86.024205 156.739765 
L 86.927278 142.904471 
L 87.378814 144.880941 
L 87.83035 149.822118 
L 88.281886 159.704471 
L 88.733423 162.669176 
L 89.184959 170.575059 
L 90.088031 193.304471 
L 90.539568 191.328 
L 90.991104 194.292706 
L 91.44264 187.375059 
L 91.894176 163.657412 
L 92.345712 170.575059 
L 92.797249 173.539765 
L 93.248785 175.516235 
L 93.700321 165.633882 
L 94.151857 158.716235 
L 94.603394 165.633882 
L 95.05493 175.516235 
L 95.506466 178.480941 
L 95.958002 180.457412 
L 96.409539 184.410353 
L 97.312611 194.292706 
L 97.764147 197.257412 
L 98.215683 194.292706 
L 98.66722 189.351529 
L 99.118756 186.386824 
L 99.570292 177.492706 
L 100.021828 145.869176 
L 100.473365 139.939765 
L 100.924901 138.951529 
L 101.376437 138.951529 
L 101.827973 144.880941 
L 102.279509 143.892706 
L 102.731046 146.857412 
L 103.182582 151.798588 
L 103.634118 151.798588 
L 104.085654 144.880941 
L 104.537191 151.798588 
L 104.988727 144.880941 
L 105.440263 151.798588 
L 105.891799 140.928 
L 106.343335 138.951529 
L 108.14948 138.951529 
L 108.601017 140.928 
L 109.052553 159.704471 
L 109.504089 158.716235 
L 109.955625 156.739765 
L 110.407161 160.692706 
L 110.858698 167.610353 
L 111.310234 169.586824 
L 111.76177 172.551529 
L 112.213306 177.492706 
L 112.664843 179.469176 
L 113.116379 175.516235 
L 113.567915 174.528 
L 114.019451 153.775059 
L 114.470987 139.939765 
L 114.922524 138.951529 
L 115.37406 138.951529 
L 115.825596 139.939765 
L 116.728669 161.680941 
L 117.180205 163.657412 
L 117.631741 176.504471 
L 118.083277 173.539765 
L 118.534814 177.492706 
L 118.98635 190.339765 
L 119.437886 192.316235 
L 119.889422 190.339765 
L 120.340958 186.386824 
L 120.792495 178.480941 
L 121.244031 155.751529 
L 121.695567 142.904471 
L 122.147103 139.939765 
L 122.59864 138.951529 
L 123.050176 138.951529 
L 123.501712 143.892706 
L 123.953248 156.739765 
L 124.404784 164.645647 
L 124.856321 144.880941 
L 125.307857 139.939765 
L 125.759393 138.951529 
L 127.114002 138.951529 
L 127.565538 140.928 
L 128.017074 141.916235 
L 128.46861 151.798588 
L 129.371683 183.422118 
L 130.274755 189.351529 
L 130.726292 194.292706 
L 131.177828 197.257412 
L 131.629364 194.292706 
L 132.0809 189.351529 
L 132.532436 186.386824 
L 132.983973 177.492706 
L 133.435509 145.869176 
L 133.887045 139.939765 
L 134.338581 138.951529 
L 135.241654 138.951529 
L 135.69319 144.880941 
L 136.144726 143.892706 
L 136.596262 146.857412 
L 137.047799 151.798588 
L 137.499335 151.798588 
L 137.950871 144.880941 
L 138.402407 151.798588 
L 138.853944 140.928 
L 139.30548 138.951529 
L 141.111625 138.951529 
L 141.563161 140.928 
L 142.014697 159.704471 
L 142.466233 158.716235 
L 142.91777 156.739765 
L 143.369306 160.692706 
L 143.820842 167.610353 
L 144.272378 169.586824 
L 144.723915 172.551529 
L 145.175451 177.492706 
L 145.626987 179.469176 
L 146.078523 175.516235 
L 146.530059 174.528 
L 146.981596 153.775059 
L 147.433132 139.939765 
L 147.884668 138.951529 
L 148.336204 138.951529 
L 148.787741 139.939765 
L 149.690813 161.680941 
L 150.142349 185.398588 
L 150.593885 198.245647 
L 151.496958 202.198588 
L 153.754639 202.198588 
L 154.206175 201.210353 
L 154.657711 203.186824 
L 155.109248 202.198588 
L 155.560784 202.198588 
L 156.01232 201.210353 
L 156.463856 195.280941 
L 156.915393 181.445647 
L 157.366929 156.739765 
L 157.818465 145.869176 
L 158.270001 144.880941 
L 158.721537 148.833882 
L 159.173074 155.751529 
L 160.527682 140.928 
L 160.979219 138.951529 
L 161.882291 138.951529 
L 162.333827 140.928 
L 162.785364 159.704471 
L 163.2369 158.716235 
L 163.688436 156.739765 
L 164.139972 145.869176 
L 164.591508 144.880941 
L 165.043045 148.833882 
L 165.494581 155.751529 
L 166.84919 140.928 
L 167.300726 138.951529 
L 168.655334 138.951529 
L 169.106871 140.928 
L 169.558407 155.751529 
L 170.461479 171.563294 
L 171.364552 181.445647 
L 171.816088 184.410353 
L 172.267624 185.398588 
L 172.71916 189.351529 
L 173.170697 187.375059 
L 173.622233 180.457412 
L 174.073769 186.386824 
L 174.525305 185.398588 
L 174.976842 188.363294 
L 175.428378 193.304471 
L 175.879914 193.304471 
L 176.33145 189.351529 
L 176.782986 182.433882 
L 177.234523 157.728 
L 177.686059 151.798588 
L 178.137595 147.845647 
L 178.589131 141.916235 
L 179.040668 139.939765 
L 179.492204 138.951529 
L 182.652957 138.951529 
L 183.104494 146.857412 
L 184.007566 168.598588 
L 184.459102 172.551529 
L 185.813711 187.375059 
L 186.265247 189.351529 
L 186.716783 185.398588 
L 187.16832 188.363294 
L 187.619856 185.398588 
L 188.071392 186.386824 
L 188.522928 184.410353 
L 189.877537 153.775059 
L 190.329073 147.845647 
L 190.780609 139.939765 
L 191.232146 138.951529 
L 193.941363 138.951529 
L 194.392899 140.928 
L 194.844435 155.751529 
L 195.747508 171.563294 
L 196.65058 181.445647 
L 197.102117 184.410353 
L 197.553653 185.398588 
L 198.005189 188.363294 
L 198.456725 190.339765 
L 198.908261 191.328 
L 199.359798 190.339765 
L 199.811334 187.375059 
L 200.26287 180.457412 
L 200.714406 186.386824 
L 201.165943 185.398588 
L 201.617479 182.433882 
L 202.069015 182.433882 
L 202.520551 178.480941 
L 203.423624 174.528 
L 203.87516 173.539765 
L 204.326696 168.598588 
L 204.778232 139.939765 
L 205.229769 138.951529 
L 205.681305 138.951529 
L 206.132841 140.928 
L 206.584377 139.939765 
L 207.035914 143.892706 
L 207.48745 149.822118 
L 207.938986 161.680941 
L 208.390522 178.480941 
L 208.842058 183.422118 
L 209.293595 186.386824 
L 209.745131 177.492706 
L 210.196667 180.457412 
L 211.09974 196.269176 
L 211.551276 200.222118 
L 212.002812 203.186824 
L 212.905884 207.139765 
L 214.260493 210.104471 
L 215.163566 208.128 
L 215.615102 202.198588 
L 216.066638 204.175059 
L 217.421247 192.316235 
L 217.872783 187.375059 
L 218.324319 176.504471 
L 218.775855 161.680941 
L 219.227392 156.739765 
L 219.678928 154.763294 
L 220.130464 143.892706 
L 220.582 140.928 
L 221.033536 138.951529 
L 222.839681 138.951529 
L 223.291218 140.928 
L 223.742754 159.704471 
L 224.19429 158.716235 
L 224.645826 156.739765 
L 225.097362 160.692706 
L 225.548899 167.610353 
L 226.000435 169.586824 
L 226.451971 172.551529 
L 226.903507 177.492706 
L 227.355044 179.469176 
L 227.80658 175.516235 
L 228.258116 174.528 
L 228.709652 153.775059 
L 229.161189 139.939765 
L 229.612725 138.951529 
L 230.064261 138.951529 
L 230.515797 139.939765 
L 231.41887 161.680941 
L 231.870406 185.398588 
L 232.321942 198.245647 
L 233.676551 204.175059 
L 234.128087 205.163294 
L 235.934232 205.163294 
L 236.385768 203.186824 
L 236.837304 198.245647 
L 237.288841 185.398588 
L 238.191913 153.775059 
L 238.643449 149.822118 
L 239.094985 153.775059 
L 239.546522 142.904471 
L 239.998058 139.939765 
L 240.449594 138.951529 
L 240.90113 138.951529 
L 241.352667 139.939765 
L 242.255739 149.822118 
L 242.707275 161.680941 
L 243.158811 169.586824 
L 243.610348 173.539765 
L 244.061884 181.445647 
L 244.51342 167.610353 
L 244.964956 165.633882 
L 245.416493 171.563294 
L 245.868029 161.680941 
L 246.319565 155.751529 
L 246.771101 155.751529 
L 247.222638 149.822118 
L 247.674174 139.939765 
L 248.12571 138.951529 
L 248.577246 146.857412 
L 249.480319 168.598588 
L 249.931855 172.551529 
L 251.286464 187.375059 
L 251.738 189.351529 
L 252.189536 185.398588 
L 252.641072 188.363294 
L 253.092608 185.398588 
L 253.544145 186.386824 
L 253.995681 184.410353 
L 255.35029 153.775059 
L 255.801826 147.845647 
L 256.253362 139.939765 
L 256.704898 141.916235 
L 257.156434 151.798588 
L 257.607971 143.892706 
L 258.059507 138.951529 
L 258.962579 138.951529 
L 259.414116 143.892706 
L 260.317188 169.586824 
L 260.768724 173.539765 
L 261.22026 168.598588 
L 261.671797 139.939765 
L 262.123333 138.951529 
L 262.574869 138.951529 
L 263.026405 140.928 
L 263.477942 139.939765 
L 263.929478 143.892706 
L 264.381014 149.822118 
L 264.83255 161.680941 
L 265.284086 178.480941 
L 265.735623 183.422118 
L 266.187159 190.339765 
L 267.090231 188.363294 
L 267.993304 196.269176 
L 268.44484 198.245647 
L 268.896376 199.233882 
L 269.799449 199.233882 
L 270.250985 203.186824 
L 271.154057 203.186824 
L 271.605594 202.198588 
L 272.05713 200.222118 
L 272.960202 190.339765 
L 273.411739 197.257412 
L 273.863275 198.245647 
L 274.314811 200.222118 
L 274.766347 201.210353 
L 275.217883 203.186824 
L 275.66942 203.186824 
L 276.120956 204.175059 
L 276.572492 206.151529 
L 277.475565 204.175059 
L 277.927101 205.163294 
L 278.378637 204.175059 
L 279.733246 192.316235 
L 280.184782 187.375059 
L 280.636318 176.504471 
L 281.087854 161.680941 
L 281.539391 156.739765 
L 281.990927 154.763294 
L 282.442463 143.892706 
L 282.893999 140.928 
L 283.345535 138.951529 
L 283.797072 138.951529 
L 284.248608 146.857412 
L 284.700144 161.680941 
L 285.15168 169.586824 
L 285.603217 174.528 
L 286.054753 181.445647 
L 286.506289 191.328 
L 287.860898 200.222118 
L 288.312434 199.233882 
L 289.215506 188.363294 
L 289.667043 180.457412 
L 290.118579 167.610353 
L 290.570115 144.880941 
L 291.021651 139.939765 
L 291.473188 138.951529 
L 291.924724 140.928 
L 292.827796 138.951529 
L 295.537014 138.951529 
L 295.98855 139.939765 
L 296.440086 138.951529 
L 300.052376 138.951529 
L 300.503912 140.928 
L 300.955448 159.704471 
L 301.406984 158.716235 
L 301.858521 156.739765 
L 302.310057 160.692706 
L 302.761593 167.610353 
L 303.213129 169.586824 
L 303.664666 172.551529 
L 304.116202 177.492706 
L 304.567738 179.469176 
L 305.019274 175.516235 
L 305.47081 174.528 
L 305.922347 153.775059 
L 306.373883 139.939765 
L 306.825419 138.951529 
L 307.276955 138.951529 
L 307.728492 139.939765 
L 308.631564 161.680941 
L 309.0831 163.657412 
L 309.986173 154.763294 
L 310.437709 150.810353 
L 310.889245 150.810353 
L 311.340781 151.798588 
L 311.792318 164.645647 
L 312.243854 172.551529 
L 312.69539 169.586824 
L 313.146926 168.598588 
L 313.598463 169.586824 
L 314.049999 174.528 
L 314.501535 181.445647 
L 314.953071 185.398588 
L 315.404607 169.586824 
L 315.856144 174.528 
L 316.30768 181.445647 
L 316.759216 185.398588 
L 317.662289 185.398588 
L 318.113825 184.410353 
L 318.565361 186.386824 
L 319.016897 183.422118 
L 319.91997 144.880941 
L 320.371506 139.939765 
L 320.823042 138.951529 
L 321.726115 138.951529 
L 322.177651 139.939765 
L 323.532259 168.598588 
L 323.983796 185.398588 
L 324.435332 190.339765 
L 325.338404 188.363294 
L 325.789941 192.316235 
L 326.241477 194.292706 
L 326.693013 178.480941 
L 327.144549 171.563294 
L 328.047622 139.939765 
L 328.499158 140.928 
L 328.950694 144.880941 
L 329.40223 149.822118 
L 329.853767 159.704471 
L 330.305303 162.669176 
L 330.756839 170.575059 
L 331.208375 176.504471 
L 332.111448 184.410353 
L 332.562984 184.410353 
L 333.01452 188.363294 
L 333.466056 190.339765 
L 333.917593 189.351529 
L 334.369129 185.398588 
L 334.820665 182.433882 
L 335.272201 176.504471 
L 335.723738 167.610353 
L 336.175274 166.622118 
L 337.078346 148.833882 
L 337.529882 145.869176 
L 338.884491 165.633882 
L 339.336027 170.575059 
L 340.690636 197.257412 
L 341.142172 200.222118 
L 341.593708 196.269176 
L 342.045245 195.280941 
L 342.496781 192.316235 
L 342.948317 190.339765 
L 343.399853 186.386824 
L 343.85139 179.469176 
L 344.302926 168.598588 
L 344.754462 175.516235 
L 345.205998 190.339765 
L 345.657534 191.328 
L 347.012143 205.163294 
L 347.463679 207.139765 
L 347.915216 208.128 
L 348.366752 205.163294 
L 348.818288 200.222118 
L 349.269824 199.233882 
L 351.527505 199.233882 
L 351.979042 192.316235 
L 353.33365 153.775059 
L 354.236723 187.375059 
L 354.688259 194.292706 
L 355.591331 198.245647 
L 356.042868 197.257412 
L 356.94594 175.516235 
L 357.397476 186.386824 
L 357.849013 194.292706 
L 358.300549 198.245647 
L 358.752085 200.222118 
L 359.203621 201.210353 
L 359.655157 203.186824 
L 360.106694 204.175059 
L 360.55823 204.175059 
L 361.009766 205.163294 
L 361.461302 207.139765 
L 361.912839 208.128 
L 362.364375 205.163294 
L 363.267447 195.280941 
L 363.718983 196.269176 
L 364.622056 196.269176 
L 365.073592 197.257412 
L 365.525128 200.222118 
L 366.428201 189.351529 
L 366.879737 182.433882 
L 367.331273 190.339765 
L 367.782809 196.269176 
L 368.234346 178.480941 
L 368.685882 181.445647 
L 369.137418 174.528 
L 369.588954 158.716235 
L 370.492027 147.845647 
L 370.943563 144.880941 
L 371.395099 138.951529 
L 373.201244 138.951529 
L 373.65278 139.939765 
L 374.104317 139.939765 
L 374.555853 138.951529 
L 375.007389 138.951529 
L 375.458925 140.928 
L 375.910461 139.939765 
L 376.361998 139.939765 
L 376.813534 138.951529 
L 378.168143 138.951529 
L 378.619679 142.904471 
L 379.071215 162.669176 
L 379.522751 171.563294 
L 379.974288 171.563294 
L 380.425824 176.504471 
L 380.87736 178.480941 
L 381.328896 168.598588 
L 381.780432 176.504471 
L 383.135041 193.304471 
L 384.038114 189.351529 
L 384.48965 190.339765 
L 384.941186 186.386824 
L 385.392722 174.528 
L 385.844258 155.751529 
L 386.295795 153.775059 
L 386.747331 150.810353 
L 387.198867 146.857412 
L 387.650403 147.845647 
L 388.10194 156.739765 
L 388.553476 169.586824 
L 389.005012 186.386824 
L 389.456548 191.328 
L 389.908084 193.304471 
L 390.359621 194.292706 
L 390.811157 197.257412 
L 391.262693 198.245647 
L 391.714229 193.304471 
L 392.165766 186.386824 
L 392.617302 174.528 
L 393.068838 155.751529 
L 393.520374 153.775059 
L 393.97191 150.810353 
L 394.423447 146.857412 
L 394.874983 147.845647 
L 395.326519 156.739765 
L 395.778055 169.586824 
L 396.229592 186.386824 
L 396.681128 191.328 
L 397.132664 190.339765 
L 397.5842 188.363294 
L 398.035737 188.363294 
L 398.487273 186.386824 
L 398.487273 186.386824 
" clip-path="url(#pf7896474e9)" style="fill: none; stroke: #1f77b4; stroke-width: 1.5; stroke-linecap: square"/>
   </g>
   <g id="patch_8">
    <path d="M 57.6 213.662118 
L 57.6 135.393882 
" style="fill: none; stroke: #000000; stroke-width: 0.8; stroke-linejoin: miter; stroke-linecap: square"/>
   </g>
   <g id="patch_9">
    <path d="M 414.72 213.662118 
L 414.72 135.393882 
" style="fill: none; stroke: #000000; stroke-width: 0.8; stroke-linejoin: miter; stroke-linecap: square"/>
   </g>
   <g id="patch_10">
    <path d="M 57.6 213.662118 
L 414.72 213.662118 
" style="fill: none; stroke: #000000; stroke-width: 0.8; stroke-linejoin: miter; stroke-linecap: square"/>
   </g>
   <g id="patch_11">
    <path d="M 57.6 135.393882 
L 414.72 135.393882 
" style="fill: none; stroke: #000000; stroke-width: 0.8; stroke-linejoin: miter; stroke-linecap: square"/>
   </g>
  </g>
  <g id="axes_3">
   <g id="patch_12">
    <path d="M 57.6 307.584 
L 414.72 307.584 
L 414.72 229.315765 
L 57.6 229.315765 
z
" style="fill: #ffffff"/>
   </g>
   <g id="matplotlib.axis_5">
    <g id="xtick_15">
     <g id="line2d_22">
      <g>
       <use xlink:href="#m5dc79ff1cd" x="73.832727" y="307.584" style="stroke: #000000; stroke-width: 0.8"/>
      </g>
     </g>
     <g id="text_20">
      <!-- 0 -->
      <g transform="translate(70.651477 322.182437) scale(0.1 -0.1)">
       <use xlink:href="#DejaVuSans-30"/>
      </g>
     </g>
    </g>
    <g id="xtick_16">
     <g id="line2d_23">
      <g>
       <use xlink:href="#m5dc79ff1cd" x="128.017074" y="307.584" style="stroke: #000000; stroke-width: 0.8"/>
      </g>
     </g>
     <g id="text_21">
      <!-- 5 -->
      <g transform="translate(124.835824 322.182437) scale(0.1 -0.1)">
       <use xlink:href="#DejaVuSans-35"/>
      </g>
     </g>
    </g>
    <g id="xtick_17">
     <g id="line2d_24">
      <g>
       <use xlink:href="#m5dc79ff1cd" x="182.201421" y="307.584" style="stroke: #000000; stroke-width: 0.8"/>
      </g>
     </g>
     <g id="text_22">
      <!-- 10 -->
      <g transform="translate(175.838921 322.182437) scale(0.1 -0.1)">
       <use xlink:href="#DejaVuSans-31"/>
       <use xlink:href="#DejaVuSans-30" x="63.623047"/>
      </g>
     </g>
    </g>
    <g id="xtick_18">
     <g id="line2d_25">
      <g>
       <use xlink:href="#m5dc79ff1cd" x="236.385768" y="307.584" style="stroke: #000000; stroke-width: 0.8"/>
      </g>
     </g>
     <g id="text_23">
      <!-- 15 -->
      <g transform="translate(230.023268 322.182437) scale(0.1 -0.1)">
       <use xlink:href="#DejaVuSans-31"/>
       <use xlink:href="#DejaVuSans-35" x="63.623047"/>
      </g>
     </g>
    </g>
    <g id="xtick_19">
     <g id="line2d_26">
      <g>
       <use xlink:href="#m5dc79ff1cd" x="290.570115" y="307.584" style="stroke: #000000; stroke-width: 0.8"/>
      </g>
     </g>
     <g id="text_24">
      <!-- 20 -->
      <g transform="translate(284.207615 322.182437) scale(0.1 -0.1)">
       <use xlink:href="#DejaVuSans-32"/>
       <use xlink:href="#DejaVuSans-30" x="63.623047"/>
      </g>
     </g>
    </g>
    <g id="xtick_20">
     <g id="line2d_27">
      <g>
       <use xlink:href="#m5dc79ff1cd" x="344.754462" y="307.584" style="stroke: #000000; stroke-width: 0.8"/>
      </g>
     </g>
     <g id="text_25">
      <!-- 25 -->
      <g transform="translate(338.391962 322.182437) scale(0.1 -0.1)">
       <use xlink:href="#DejaVuSans-32"/>
       <use xlink:href="#DejaVuSans-35" x="63.623047"/>
      </g>
     </g>
    </g>
    <g id="xtick_21">
     <g id="line2d_28">
      <g>
       <use xlink:href="#m5dc79ff1cd" x="398.938809" y="307.584" style="stroke: #000000; stroke-width: 0.8"/>
      </g>
     </g>
     <g id="text_26">
      <!-- 30 -->
      <g transform="translate(392.576309 322.182437) scale(0.1 -0.1)">
       <use xlink:href="#DejaVuSans-33"/>
       <use xlink:href="#DejaVuSans-30" x="63.623047"/>
      </g>
     </g>
    </g>
   </g>
   <g id="matplotlib.axis_6">
    <g id="ytick_6">
     <g id="line2d_29">
      <g>
       <use xlink:href="#m7ca1639170" x="57.6" y="304.026353" style="stroke: #000000; stroke-width: 0.8"/>
      </g>
     </g>
     <g id="text_27">
      <!-- 0 -->
      <g transform="translate(44.2375 307.825572) scale(0.1 -0.1)">
       <use xlink:href="#DejaVuSans-30"/>
      </g>
     </g>
    </g>
    <g id="ytick_7">
     <g id="line2d_30">
      <g>
       <use xlink:href="#m7ca1639170" x="57.6" y="268.449882" style="stroke: #000000; stroke-width: 0.8"/>
      </g>
     </g>
     <g id="text_28">
      <!-- 5 -->
      <g transform="translate(44.2375 272.249101) scale(0.1 -0.1)">
       <use xlink:href="#DejaVuSans-35"/>
      </g>
     </g>
    </g>
    <g id="ytick_8">
     <g id="line2d_31">
      <g>
       <use xlink:href="#m7ca1639170" x="57.6" y="232.873412" style="stroke: #000000; stroke-width: 0.8"/>
      </g>
     </g>
     <g id="text_29">
      <!-- 10 -->
      <g transform="translate(37.875 236.672631) scale(0.1 -0.1)">
       <use xlink:href="#DejaVuSans-31"/>
       <use xlink:href="#DejaVuSans-30" x="63.623047"/>
      </g>
     </g>
    </g>
   </g>
   <g id="line2d_32">
    <path d="M 73.832727 304.026353 
L 77.896553 304.026353 
L 78.34809 296.911059 
L 78.799626 304.026353 
L 105.891799 304.026353 
L 106.343335 296.911059 
L 106.794872 304.026353 
L 113.567915 304.026353 
L 114.019451 275.565176 
L 114.470987 296.911059 
L 114.922524 304.026353 
L 115.37406 296.911059 
L 115.825596 304.026353 
L 138.853944 304.026353 
L 139.30548 296.911059 
L 139.757016 304.026353 
L 146.530059 304.026353 
L 146.981596 275.565176 
L 147.433132 296.911059 
L 147.884668 304.026353 
L 148.336204 296.911059 
L 148.787741 304.026353 
L 206.132841 304.026353 
L 206.584377 296.911059 
L 207.035914 304.026353 
L 228.258116 304.026353 
L 228.709652 275.565176 
L 229.161189 296.911059 
L 229.612725 304.026353 
L 230.064261 296.911059 
L 230.515797 304.026353 
L 258.511043 304.026353 
L 258.962579 296.911059 
L 259.414116 304.026353 
L 263.026405 304.026353 
L 263.477942 296.911059 
L 263.929478 304.026353 
L 292.37626 304.026353 
L 292.827796 247.104 
L 293.279332 261.334588 
L 293.730869 296.911059 
L 294.182405 304.026353 
L 295.537014 304.026353 
L 295.98855 296.911059 
L 296.440086 304.026353 
L 296.891622 304.026353 
L 297.343158 289.795765 
L 297.794695 232.873412 
L 298.246231 304.026353 
L 298.697767 289.795765 
L 299.149303 304.026353 
L 305.47081 304.026353 
L 305.922347 275.565176 
L 306.373883 296.911059 
L 306.825419 304.026353 
L 307.276955 296.911059 
L 307.728492 304.026353 
L 398.487273 304.026353 
L 398.487273 304.026353 
" clip-path="url(#p653def2173)" style="fill: none; stroke: #1f77b4; stroke-width: 1.5; stroke-linecap: square"/>
   </g>
   <g id="patch_13">
    <path d="M 57.6 307.584 
L 57.6 229.315765 
" style="fill: none; stroke: #000000; stroke-width: 0.8; stroke-linejoin: miter; stroke-linecap: square"/>
   </g>
   <g id="patch_14">
    <path d="M 414.72 307.584 
L 414.72 229.315765 
" style="fill: none; stroke: #000000; stroke-width: 0.8; stroke-linejoin: miter; stroke-linecap: square"/>
   </g>
   <g id="patch_15">
    <path d="M 57.6 307.584 
L 414.72 307.584 
" style="fill: none; stroke: #000000; stroke-width: 0.8; stroke-linejoin: miter; stroke-linecap: square"/>
   </g>
   <g id="patch_16">
    <path d="M 57.6 229.315765 
L 414.72 229.315765 
" style="fill: none; stroke: #000000; stroke-width: 0.8; stroke-linejoin: miter; stroke-linecap: square"/>
   </g>
  </g>
  <g id="text_30">
   <!-- cleaned_weather_spring -->
   <g transform="translate(157.493438 16.030125) scale(0.12 -0.12)">
    <defs>
     <path id="DejaVuSans-63" d="M 3122 3366 
L 3122 2828 
Q 2878 2963 2633 3030 
Q 2388 3097 2138 3097 
Q 1578 3097 1268 2742 
Q 959 2388 959 1747 
Q 959 1106 1268 751 
Q 1578 397 2138 397 
Q 2388 397 2633 464 
Q 2878 531 3122 666 
L 3122 134 
Q 2881 22 2623 -34 
Q 2366 -91 2075 -91 
Q 1284 -91 818 406 
Q 353 903 353 1747 
Q 353 2603 823 3093 
Q 1294 3584 2113 3584 
Q 2378 3584 2631 3529 
Q 2884 3475 3122 3366 
z
" transform="scale(0.015625)"/>
     <path id="DejaVuSans-6c" d="M 603 4863 
L 1178 4863 
L 1178 0 
L 603 0 
L 603 4863 
z
" transform="scale(0.015625)"/>
     <path id="DejaVuSans-65" d="M 3597 1894 
L 3597 1613 
L 953 1613 
Q 991 1019 1311 708 
Q 1631 397 2203 397 
Q 2534 397 2845 478 
Q 3156 559 3463 722 
L 3463 178 
Q 3153 47 2828 -22 
Q 2503 -91 2169 -91 
Q 1331 -91 842 396 
Q 353 884 353 1716 
Q 353 2575 817 3079 
Q 1281 3584 2069 3584 
Q 2775 3584 3186 3129 
Q 3597 2675 3597 1894 
z
M 3022 2063 
Q 3016 2534 2758 2815 
Q 2500 3097 2075 3097 
Q 1594 3097 1305 2825 
Q 1016 2553 972 2059 
L 3022 2063 
z
" transform="scale(0.015625)"/>
     <path id="DejaVuSans-61" d="M 2194 1759 
Q 1497 1759 1228 1600 
Q 959 1441 959 1056 
Q 959 750 1161 570 
Q 1363 391 1709 391 
Q 2188 391 2477 730 
Q 2766 1069 2766 1631 
L 2766 1759 
L 2194 1759 
z
M 3341 1997 
L 3341 0 
L 2766 0 
L 2766 531 
Q 2569 213 2275 61 
Q 1981 -91 1556 -91 
Q 1019 -91 701 211 
Q 384 513 384 1019 
Q 384 1609 779 1909 
Q 1175 2209 1959 2209 
L 2766 2209 
L 2766 2266 
Q 2766 2663 2505 2880 
Q 2244 3097 1772 3097 
Q 1472 3097 1187 3025 
Q 903 2953 641 2809 
L 641 3341 
Q 956 3463 1253 3523 
Q 1550 3584 1831 3584 
Q 2591 3584 2966 3190 
Q 3341 2797 3341 1997 
z
" transform="scale(0.015625)"/>
     <path id="DejaVuSans-6e" d="M 3513 2113 
L 3513 0 
L 2938 0 
L 2938 2094 
Q 2938 2591 2744 2837 
Q 2550 3084 2163 3084 
Q 1697 3084 1428 2787 
Q 1159 2491 1159 1978 
L 1159 0 
L 581 0 
L 581 3500 
L 1159 3500 
L 1159 2956 
Q 1366 3272 1645 3428 
Q 1925 3584 2291 3584 
Q 2894 3584 3203 3211 
Q 3513 2838 3513 2113 
z
" transform="scale(0.015625)"/>
     <path id="DejaVuSans-64" d="M 2906 2969 
L 2906 4863 
L 3481 4863 
L 3481 0 
L 2906 0 
L 2906 525 
Q 2725 213 2448 61 
Q 2172 -91 1784 -91 
Q 1150 -91 751 415 
Q 353 922 353 1747 
Q 353 2572 751 3078 
Q 1150 3584 1784 3584 
Q 2172 3584 2448 3432 
Q 2725 3281 2906 2969 
z
M 947 1747 
Q 947 1113 1208 752 
Q 1469 391 1925 391 
Q 2381 391 2643 752 
Q 2906 1113 2906 1747 
Q 2906 2381 2643 2742 
Q 2381 3103 1925 3103 
Q 1469 3103 1208 2742 
Q 947 2381 947 1747 
z
" transform="scale(0.015625)"/>
     <path id="DejaVuSans-5f" d="M 3263 -1063 
L 3263 -1509 
L -63 -1509 
L -63 -1063 
L 3263 -1063 
z
" transform="scale(0.015625)"/>
     <path id="DejaVuSans-77" d="M 269 3500 
L 844 3500 
L 1563 769 
L 2278 3500 
L 2956 3500 
L 3675 769 
L 4391 3500 
L 4966 3500 
L 4050 0 
L 3372 0 
L 2619 2869 
L 1863 0 
L 1184 0 
L 269 3500 
z
" transform="scale(0.015625)"/>
     <path id="DejaVuSans-74" d="M 1172 4494 
L 1172 3500 
L 2356 3500 
L 2356 3053 
L 1172 3053 
L 1172 1153 
Q 1172 725 1289 603 
Q 1406 481 1766 481 
L 2356 481 
L 2356 0 
L 1766 0 
Q 1100 0 847 248 
Q 594 497 594 1153 
L 594 3053 
L 172 3053 
L 172 3500 
L 594 3500 
L 594 4494 
L 1172 4494 
z
" transform="scale(0.015625)"/>
     <path id="DejaVuSans-68" d="M 3513 2113 
L 3513 0 
L 2938 0 
L 2938 2094 
Q 2938 2591 2744 2837 
Q 2550 3084 2163 3084 
Q 1697 3084 1428 2787 
Q 1159 2491 1159 1978 
L 1159 0 
L 581 0 
L 581 4863 
L 1159 4863 
L 1159 2956 
Q 1366 3272 1645 3428 
Q 1925 3584 2291 3584 
Q 2894 3584 3203 3211 
Q 3513 2838 3513 2113 
z
" transform="scale(0.015625)"/>
     <path id="DejaVuSans-72" d="M 2631 2963 
Q 2534 3019 2420 3045 
Q 2306 3072 2169 3072 
Q 1681 3072 1420 2755 
Q 1159 2438 1159 1844 
L 1159 0 
L 581 0 
L 581 3500 
L 1159 3500 
L 1159 2956 
Q 1341 3275 1631 3429 
Q 1922 3584 2338 3584 
Q 2397 3584 2469 3576 
Q 2541 3569 2628 3553 
L 2631 2963 
z
" transform="scale(0.015625)"/>
     <path id="DejaVuSans-73" d="M 2834 3397 
L 2834 2853 
Q 2591 2978 2328 3040 
Q 2066 3103 1784 3103 
Q 1356 3103 1142 2972 
Q 928 2841 928 2578 
Q 928 2378 1081 2264 
Q 1234 2150 1697 2047 
L 1894 2003 
Q 2506 1872 2764 1633 
Q 3022 1394 3022 966 
Q 3022 478 2636 193 
Q 2250 -91 1575 -91 
Q 1294 -91 989 -36 
Q 684 19 347 128 
L 347 722 
Q 666 556 975 473 
Q 1284 391 1588 391 
Q 1994 391 2212 530 
Q 2431 669 2431 922 
Q 2431 1156 2273 1281 
Q 2116 1406 1581 1522 
L 1381 1569 
Q 847 1681 609 1914 
Q 372 2147 372 2553 
Q 372 3047 722 3315 
Q 1072 3584 1716 3584 
Q 2034 3584 2315 3537 
Q 2597 3491 2834 3397 
z
" transform="scale(0.015625)"/>
     <path id="DejaVuSans-70" d="M 1159 525 
L 1159 -1331 
L 581 -1331 
L 581 3500 
L 1159 3500 
L 1159 2969 
Q 1341 3281 1617 3432 
Q 1894 3584 2278 3584 
Q 2916 3584 3314 3078 
Q 3713 2572 3713 1747 
Q 3713 922 3314 415 
Q 2916 -91 2278 -91 
Q 1894 -91 1617 61 
Q 1341 213 1159 525 
z
M 3116 1747 
Q 3116 2381 2855 2742 
Q 2594 3103 2138 3103 
Q 1681 3103 1420 2742 
Q 1159 2381 1159 1747 
Q 1159 1113 1420 752 
Q 1681 391 2138 391 
Q 2594 391 2855 752 
Q 3116 1113 3116 1747 
z
" transform="scale(0.015625)"/>
     <path id="DejaVuSans-69" d="M 603 3500 
L 1178 3500 
L 1178 0 
L 603 0 
L 603 3500 
z
M 603 4863 
L 1178 4863 
L 1178 4134 
L 603 4134 
L 603 4863 
z
" transform="scale(0.015625)"/>
     <path id="DejaVuSans-67" d="M 2906 1791 
Q 2906 2416 2648 2759 
Q 2391 3103 1925 3103 
Q 1463 3103 1205 2759 
Q 947 2416 947 1791 
Q 947 1169 1205 825 
Q 1463 481 1925 481 
Q 2391 481 2648 825 
Q 2906 1169 2906 1791 
z
M 3481 434 
Q 3481 -459 3084 -895 
Q 2688 -1331 1869 -1331 
Q 1566 -1331 1297 -1286 
Q 1028 -1241 775 -1147 
L 775 -588 
Q 1028 -725 1275 -790 
Q 1522 -856 1778 -856 
Q 2344 -856 2625 -561 
Q 2906 -266 2906 331 
L 2906 616 
Q 2728 306 2450 153 
Q 2172 0 1784 0 
Q 1141 0 747 490 
Q 353 981 353 1791 
Q 353 2603 747 3093 
Q 1141 3584 1784 3584 
Q 2172 3584 2450 3431 
Q 2728 3278 2906 2969 
L 2906 3500 
L 3481 3500 
L 3481 434 
z
" transform="scale(0.015625)"/>
    </defs>
    <use xlink:href="#DejaVuSans-63"/>
    <use xlink:href="#DejaVuSans-6c" x="54.980469"/>
    <use xlink:href="#DejaVuSans-65" x="82.763672"/>
    <use xlink:href="#DejaVuSans-61" x="144.287109"/>
    <use xlink:href="#DejaVuSans-6e" x="205.566406"/>
    <use xlink:href="#DejaVuSans-65" x="268.945312"/>
    <use xlink:href="#DejaVuSans-64" x="330.46875"/>
    <use xlink:href="#DejaVuSans-5f" x="393.945312"/>
    <use xlink:href="#DejaVuSans-77" x="443.945312"/>
    <use xlink:href="#DejaVuSans-65" x="525.732422"/>
    <use xlink:href="#DejaVuSans-61" x="587.255859"/>
    <use xlink:href="#DejaVuSans-74" x="648.535156"/>
    <use xlink:href="#DejaVuSans-68" x="687.744141"/>
    <use xlink:href="#DejaVuSans-65" x="751.123047"/>
    <use xlink:href="#DejaVuSans-72" x="812.646484"/>
    <use xlink:href="#DejaVuSans-5f" x="853.759766"/>
    <use xlink:href="#DejaVuSans-73" x="903.759766"/>
    <use xlink:href="#DejaVuSans-70" x="955.859375"/>
    <use xlink:href="#DejaVuSans-72" x="1019.335938"/>
    <use xlink:href="#DejaVuSans-69" x="1060.449219"/>
    <use xlink:href="#DejaVuSans-6e" x="1088.232422"/>
    <use xlink:href="#DejaVuSans-67" x="1151.611328"/>
   </g>
  </g>
 </g>
 <defs>
  <clipPath id="p9f55deb568">
   <rect x="57.6" y="41.472" width="357.12" height="78.268235"/>
  </clipPath>
  <clipPath id="pf7896474e9">
   <rect x="57.6" y="135.393882" width="357.12" height="78.268235"/>
  </clipPath>
  <clipPath id="p653def2173">
   <rect x="57.6" y="229.315765" width="357.12" height="78.268235"/>
  </clipPath>
 </defs>
</svg>
