<?xml version="1.0" encoding="utf-8" standalone="no"?>
<!DOCTYPE svg PUBLIC "-//W3C//DTD SVG 1.1//EN"
  "http://www.w3.org/Graphics/SVG/1.1/DTD/svg11.dtd">
<svg xmlns:xlink="http://www.w3.org/1999/xlink" width="460.8pt" height="345.6pt" viewBox="0 0 460.8 345.6" xmlns="http://www.w3.org/2000/svg" version="1.1">
 <metadata>
  <rdf:RDF xmlns:dc="http://purl.org/dc/elements/1.1/" xmlns:cc="http://creativecommons.org/ns#" xmlns:rdf="http://www.w3.org/1999/02/22-rdf-syntax-ns#">
   <cc:Work>
    <dc:type rdf:resource="http://purl.org/dc/dcmitype/StillImage"/>
    <dc:date>2023-03-28T23:57:19.927960</dc:date>
    <dc:format>image/svg+xml</dc:format>
    <dc:creator>
     <cc:Agent>
      <dc:title>Matplotlib v3.7.1, https://matplotlib.org/</dc:title>
     </cc:Agent>
    </dc:creator>
   </cc:Work>
  </rdf:RDF>
 </metadata>
 <defs>
  <style type="text/css">*{stroke-linejoin: round; stroke-linecap: butt}</style>
 </defs>
 <g id="figure_1">
  <g id="patch_1">
   <path d="M 0 345.6 
L 460.8 345.6 
L 460.8 0 
L 0 0 
z
" style="fill: #ffffff"/>
  </g>
  <g id="axes_1">
   <g id="patch_2">
    <path d="M 57.6 119.740235 
L 414.72 119.740235 
L 414.72 41.472 
L 57.6 41.472 
z
" style="fill: #ffffff"/>
   </g>
   <g id="matplotlib.axis_1">
    <g id="xtick_1">
     <g id="line2d_1">
      <defs>
       <path id="mb1e2b0ac9f" d="M 0 0 
L 0 3.5 
" style="stroke: #000000; stroke-width: 0.8"/>
      </defs>
      <g>
       <use xlink:href="#mb1e2b0ac9f" x="73.832727" y="119.740235" style="stroke: #000000; stroke-width: 0.8"/>
      </g>
     </g>
     <g id="text_1">
      <!-- 0 -->
      <g transform="translate(70.651477 134.338673) scale(0.1 -0.1)">
       <defs>
        <path id="DejaVuSans-30" d="M 2034 4250 
Q 1547 4250 1301 3770 
Q 1056 3291 1056 2328 
Q 1056 1369 1301 889 
Q 1547 409 2034 409 
Q 2525 409 2770 889 
Q 3016 1369 3016 2328 
Q 3016 3291 2770 3770 
Q 2525 4250 2034 4250 
z
M 2034 4750 
Q 2819 4750 3233 4129 
Q 3647 3509 3647 2328 
Q 3647 1150 3233 529 
Q 2819 -91 2034 -91 
Q 1250 -91 836 529 
Q 422 1150 422 2328 
Q 422 3509 836 4129 
Q 1250 4750 2034 4750 
z
" transform="scale(0.015625)"/>
       </defs>
       <use xlink:href="#DejaVuSans-30"/>
      </g>
     </g>
    </g>
    <g id="xtick_2">
     <g id="line2d_2">
      <g>
       <use xlink:href="#mb1e2b0ac9f" x="128.017074" y="119.740235" style="stroke: #000000; stroke-width: 0.8"/>
      </g>
     </g>
     <g id="text_2">
      <!-- 5 -->
      <g transform="translate(124.835824 134.338673) scale(0.1 -0.1)">
       <defs>
        <path id="DejaVuSans-35" d="M 691 4666 
L 3169 4666 
L 3169 4134 
L 1269 4134 
L 1269 2991 
Q 1406 3038 1543 3061 
Q 1681 3084 1819 3084 
Q 2600 3084 3056 2656 
Q 3513 2228 3513 1497 
Q 3513 744 3044 326 
Q 2575 -91 1722 -91 
Q 1428 -91 1123 -41 
Q 819 9 494 109 
L 494 744 
Q 775 591 1075 516 
Q 1375 441 1709 441 
Q 2250 441 2565 725 
Q 2881 1009 2881 1497 
Q 2881 1984 2565 2268 
Q 2250 2553 1709 2553 
Q 1456 2553 1204 2497 
Q 953 2441 691 2322 
L 691 4666 
z
" transform="scale(0.015625)"/>
       </defs>
       <use xlink:href="#DejaVuSans-35"/>
      </g>
     </g>
    </g>
    <g id="xtick_3">
     <g id="line2d_3">
      <g>
       <use xlink:href="#mb1e2b0ac9f" x="182.201421" y="119.740235" style="stroke: #000000; stroke-width: 0.8"/>
      </g>
     </g>
     <g id="text_3">
      <!-- 10 -->
      <g transform="translate(175.838921 134.338673) scale(0.1 -0.1)">
       <defs>
        <path id="DejaVuSans-31" d="M 794 531 
L 1825 531 
L 1825 4091 
L 703 3866 
L 703 4441 
L 1819 4666 
L 2450 4666 
L 2450 531 
L 3481 531 
L 3481 0 
L 794 0 
L 794 531 
z
" transform="scale(0.015625)"/>
       </defs>
       <use xlink:href="#DejaVuSans-31"/>
       <use xlink:href="#DejaVuSans-30" x="63.623047"/>
      </g>
     </g>
    </g>
    <g id="xtick_4">
     <g id="line2d_4">
      <g>
       <use xlink:href="#mb1e2b0ac9f" x="236.385768" y="119.740235" style="stroke: #000000; stroke-width: 0.8"/>
      </g>
     </g>
     <g id="text_4">
      <!-- 15 -->
      <g transform="translate(230.023268 134.338673) scale(0.1 -0.1)">
       <use xlink:href="#DejaVuSans-31"/>
       <use xlink:href="#DejaVuSans-35" x="63.623047"/>
      </g>
     </g>
    </g>
    <g id="xtick_5">
     <g id="line2d_5">
      <g>
       <use xlink:href="#mb1e2b0ac9f" x="290.570115" y="119.740235" style="stroke: #000000; stroke-width: 0.8"/>
      </g>
     </g>
     <g id="text_5">
      <!-- 20 -->
      <g transform="translate(284.207615 134.338673) scale(0.1 -0.1)">
       <defs>
        <path id="DejaVuSans-32" d="M 1228 531 
L 3431 531 
L 3431 0 
L 469 0 
L 469 531 
Q 828 903 1448 1529 
Q 2069 2156 2228 2338 
Q 2531 2678 2651 2914 
Q 2772 3150 2772 3378 
Q 2772 3750 2511 3984 
Q 2250 4219 1831 4219 
Q 1534 4219 1204 4116 
Q 875 4013 500 3803 
L 500 4441 
Q 881 4594 1212 4672 
Q 1544 4750 1819 4750 
Q 2544 4750 2975 4387 
Q 3406 4025 3406 3419 
Q 3406 3131 3298 2873 
Q 3191 2616 2906 2266 
Q 2828 2175 2409 1742 
Q 1991 1309 1228 531 
z
" transform="scale(0.015625)"/>
       </defs>
       <use xlink:href="#DejaVuSans-32"/>
       <use xlink:href="#DejaVuSans-30" x="63.623047"/>
      </g>
     </g>
    </g>
    <g id="xtick_6">
     <g id="line2d_6">
      <g>
       <use xlink:href="#mb1e2b0ac9f" x="344.754462" y="119.740235" style="stroke: #000000; stroke-width: 0.8"/>
      </g>
     </g>
     <g id="text_6">
      <!-- 25 -->
      <g transform="translate(338.391962 134.338673) scale(0.1 -0.1)">
       <use xlink:href="#DejaVuSans-32"/>
       <use xlink:href="#DejaVuSans-35" x="63.623047"/>
      </g>
     </g>
    </g>
    <g id="xtick_7">
     <g id="line2d_7">
      <g>
       <use xlink:href="#mb1e2b0ac9f" x="398.938809" y="119.740235" style="stroke: #000000; stroke-width: 0.8"/>
      </g>
     </g>
     <g id="text_7">
      <!-- 30 -->
      <g transform="translate(392.576309 134.338673) scale(0.1 -0.1)">
       <defs>
        <path id="DejaVuSans-33" d="M 2597 2516 
Q 3050 2419 3304 2112 
Q 3559 1806 3559 1356 
Q 3559 666 3084 287 
Q 2609 -91 1734 -91 
Q 1441 -91 1130 -33 
Q 819 25 488 141 
L 488 750 
Q 750 597 1062 519 
Q 1375 441 1716 441 
Q 2309 441 2620 675 
Q 2931 909 2931 1356 
Q 2931 1769 2642 2001 
Q 2353 2234 1838 2234 
L 1294 2234 
L 1294 2753 
L 1863 2753 
Q 2328 2753 2575 2939 
Q 2822 3125 2822 3475 
Q 2822 3834 2567 4026 
Q 2313 4219 1838 4219 
Q 1578 4219 1281 4162 
Q 984 4106 628 3988 
L 628 4550 
Q 988 4650 1302 4700 
Q 1616 4750 1894 4750 
Q 2613 4750 3031 4423 
Q 3450 4097 3450 3541 
Q 3450 3153 3228 2886 
Q 3006 2619 2597 2516 
z
" transform="scale(0.015625)"/>
       </defs>
       <use xlink:href="#DejaVuSans-33"/>
       <use xlink:href="#DejaVuSans-30" x="63.623047"/>
      </g>
     </g>
    </g>
   </g>
   <g id="matplotlib.axis_2">
    <g id="ytick_1">
     <g id="line2d_8">
      <defs>
       <path id="m3847aea245" d="M 0 0 
L -3.5 0 
" style="stroke: #000000; stroke-width: 0.8"/>
      </defs>
      <g>
       <use xlink:href="#m3847aea245" x="57.6" y="116.182588" style="stroke: #000000; stroke-width: 0.8"/>
      </g>
     </g>
     <g id="text_8">
      <!-- 0 -->
      <g transform="translate(44.2375 119.981807) scale(0.1 -0.1)">
       <use xlink:href="#DejaVuSans-30"/>
      </g>
     </g>
    </g>
    <g id="ytick_2">
     <g id="line2d_9">
      <g>
       <use xlink:href="#m3847aea245" x="57.6" y="77.721539" style="stroke: #000000; stroke-width: 0.8"/>
      </g>
     </g>
     <g id="text_9">
      <!-- 20 -->
      <g transform="translate(37.875 81.520758) scale(0.1 -0.1)">
       <use xlink:href="#DejaVuSans-32"/>
       <use xlink:href="#DejaVuSans-30" x="63.623047"/>
      </g>
     </g>
    </g>
   </g>
   <g id="line2d_10">
    <path d="M 73.832727 95.029011 
L 74.7358 95.029011 
L 75.187336 96.952064 
L 75.638872 100.798169 
L 77.445017 100.798169 
L 77.896553 98.875116 
L 78.34809 98.875116 
L 78.799626 100.798169 
L 79.251162 98.875116 
L 79.702698 91.182906 
L 80.154234 85.413749 
L 80.605771 81.567644 
L 81.057307 73.875434 
L 81.508843 71.952382 
L 81.960379 73.875434 
L 83.314988 68.106277 
L 84.21806 75.798486 
L 84.669597 81.567644 
L 85.121133 83.490696 
L 85.572669 83.490696 
L 86.024205 85.413749 
L 86.475742 85.413749 
L 86.927278 87.336801 
L 87.378814 85.413749 
L 88.281886 89.259854 
L 89.636495 89.259854 
L 90.088031 87.336801 
L 90.539568 89.259854 
L 91.44264 68.106277 
L 91.894176 60.414067 
L 92.345712 66.183224 
L 92.797249 73.875434 
L 93.248785 73.875434 
L 93.700321 71.952382 
L 94.151857 73.875434 
L 94.603394 73.875434 
L 95.05493 79.644591 
L 95.506466 83.490696 
L 95.958002 85.413749 
L 96.409539 85.413749 
L 96.861075 89.259854 
L 97.312611 91.182906 
L 98.215683 87.336801 
L 98.66722 87.336801 
L 99.570292 91.182906 
L 100.473365 91.182906 
L 100.924901 87.336801 
L 101.827973 71.952382 
L 102.279509 71.952382 
L 102.731046 73.875434 
L 103.182582 77.721539 
L 103.634118 68.106277 
L 104.537191 68.106277 
L 105.440263 71.952382 
L 106.343335 64.260172 
L 106.794872 68.106277 
L 107.246408 64.260172 
L 108.14948 60.414067 
L 109.955625 60.414067 
L 110.407161 58.491014 
L 110.858698 60.414067 
L 111.310234 60.414067 
L 111.76177 62.337119 
L 112.213306 68.106277 
L 113.116379 75.798486 
L 113.567915 81.567644 
L 114.019451 83.490696 
L 114.470987 83.490696 
L 114.922524 85.413749 
L 115.37406 85.413749 
L 115.825596 87.336801 
L 116.277132 85.413749 
L 116.728669 87.336801 
L 118.534814 71.952382 
L 118.98635 70.029329 
L 119.437886 66.183224 
L 119.889422 64.260172 
L 120.792495 64.260172 
L 121.244031 62.337119 
L 121.695567 62.337119 
L 122.147103 60.414067 
L 122.59864 60.414067 
L 123.050176 62.337119 
L 123.501712 62.337119 
L 123.953248 60.414067 
L 124.404784 62.337119 
L 124.856321 60.414067 
L 125.307857 62.337119 
L 125.759393 60.414067 
L 127.114002 66.183224 
L 127.565538 73.875434 
L 128.017074 77.721539 
L 128.46861 79.644591 
L 128.920147 83.490696 
L 129.371683 89.259854 
L 130.274755 89.259854 
L 130.726292 91.182906 
L 134.338581 91.182906 
L 135.241654 87.336801 
L 136.144726 95.029011 
L 136.596262 96.952064 
L 137.499335 89.259854 
L 139.30548 81.567644 
L 139.757016 81.567644 
L 140.208552 85.413749 
L 140.660089 85.413749 
L 141.111625 83.490696 
L 141.563161 87.336801 
L 142.014697 96.952064 
L 142.466233 102.721221 
L 143.820842 108.490378 
L 144.272378 106.567326 
L 144.723915 110.413431 
L 145.626987 110.413431 
L 146.078523 112.336483 
L 146.981596 108.490378 
L 147.433132 110.413431 
L 148.787741 110.413431 
L 149.239277 104.644273 
L 149.690813 96.952064 
L 150.142349 95.029011 
L 154.206175 95.029011 
L 154.657711 93.105959 
L 155.560784 96.952064 
L 156.01232 91.182906 
L 156.463856 81.567644 
L 156.915393 87.336801 
L 157.366929 89.259854 
L 157.818465 87.336801 
L 158.270001 87.336801 
L 158.721537 91.182906 
L 159.173074 89.259854 
L 159.62461 85.413749 
L 160.527682 81.567644 
L 160.979219 83.490696 
L 161.430755 81.567644 
L 161.882291 83.490696 
L 162.333827 77.721539 
L 162.785364 73.875434 
L 163.2369 71.952382 
L 163.688436 71.952382 
L 164.139972 73.875434 
L 164.591508 73.875434 
L 165.043045 75.798486 
L 165.494581 73.875434 
L 165.946117 75.798486 
L 166.397653 81.567644 
L 166.84919 85.413749 
L 167.300726 83.490696 
L 167.752262 83.490696 
L 168.203798 85.413749 
L 168.655334 89.259854 
L 169.558407 89.259854 
L 170.009943 91.182906 
L 170.461479 89.259854 
L 170.913016 85.413749 
L 171.364552 87.336801 
L 171.816088 87.336801 
L 172.267624 85.413749 
L 172.71916 87.336801 
L 173.170697 87.336801 
L 173.622233 89.259854 
L 174.073769 89.259854 
L 174.525305 87.336801 
L 174.976842 83.490696 
L 175.428378 83.490696 
L 175.879914 85.413749 
L 176.33145 81.567644 
L 176.782986 75.798486 
L 177.234523 71.952382 
L 178.137595 75.798486 
L 178.589131 81.567644 
L 180.395276 66.183224 
L 180.846812 66.183224 
L 181.298349 68.106277 
L 181.749885 116.182588 
L 182.201421 58.491014 
L 182.652957 58.491014 
L 183.104494 60.414067 
L 183.55603 56.567962 
L 184.007566 50.798804 
L 184.459102 50.798804 
L 185.813711 45.029647 
L 186.716783 45.029647 
L 187.619856 48.875752 
L 188.071392 56.567962 
L 188.974465 73.875434 
L 189.877537 66.183224 
L 190.329073 64.260172 
L 190.780609 64.260172 
L 191.232146 68.106277 
L 192.135218 85.413749 
L 193.038291 93.105959 
L 193.489827 93.105959 
L 193.941363 87.336801 
L 194.392899 79.644591 
L 194.844435 75.798486 
L 195.295972 81.567644 
L 195.747508 73.875434 
L 196.65058 70.029329 
L 197.553653 77.721539 
L 198.456725 73.875434 
L 198.908261 77.721539 
L 200.26287 77.721539 
L 201.165943 70.029329 
L 201.617479 70.029329 
L 203.423624 62.337119 
L 203.87516 116.182588 
L 204.326696 77.721539 
L 204.778232 79.644591 
L 206.584377 95.029011 
L 207.035914 95.029011 
L 207.48745 87.336801 
L 207.938986 83.490696 
L 208.390522 81.567644 
L 209.293595 73.875434 
L 210.196667 70.029329 
L 210.648203 70.029329 
L 211.09974 68.106277 
L 211.551276 71.952382 
L 212.454348 64.260172 
L 212.905884 62.337119 
L 213.357421 62.337119 
L 213.808957 64.260172 
L 214.260493 60.414067 
L 214.712029 58.491014 
L 215.615102 58.491014 
L 216.066638 60.414067 
L 216.518174 68.106277 
L 216.96971 68.106277 
L 217.421247 64.260172 
L 217.872783 64.260172 
L 218.324319 68.106277 
L 218.775855 81.567644 
L 219.227392 87.336801 
L 219.678928 91.182906 
L 221.033536 96.952064 
L 221.936609 79.644591 
L 222.388145 83.490696 
L 222.839681 85.413749 
L 223.291218 81.567644 
L 223.742754 81.567644 
L 224.19429 77.721539 
L 225.548899 71.952382 
L 226.000435 73.875434 
L 226.451971 81.567644 
L 226.903507 77.721539 
L 227.80658 81.567644 
L 228.258116 81.567644 
L 228.709652 87.336801 
L 229.161189 83.490696 
L 230.064261 79.644591 
L 230.515797 75.798486 
L 230.967333 73.875434 
L 232.773478 73.875434 
L 233.225015 71.952382 
L 233.676551 71.952382 
L 234.128087 70.029329 
L 234.579623 70.029329 
L 235.031159 73.875434 
L 235.934232 73.875434 
L 236.385768 77.721539 
L 237.288841 89.259854 
L 237.740377 89.259854 
L 238.191913 91.182906 
L 238.643449 95.029011 
L 239.094985 95.029011 
L 239.546522 89.259854 
L 240.449594 89.259854 
L 240.90113 91.182906 
L 243.610348 91.182906 
L 244.061884 89.259854 
L 245.416493 89.259854 
L 245.868029 91.182906 
L 246.319565 89.259854 
L 247.222638 68.106277 
L 247.674174 60.414067 
L 248.12571 56.567962 
L 248.577246 54.644909 
L 249.028782 56.567962 
L 249.480319 54.644909 
L 249.931855 58.491014 
L 251.286464 75.798486 
L 251.738 79.644591 
L 252.641072 83.490696 
L 253.092608 89.259854 
L 253.995681 93.105959 
L 255.35029 93.105959 
L 255.801826 91.182906 
L 256.704898 91.182906 
L 257.156434 89.259854 
L 258.059507 81.567644 
L 258.511043 79.644591 
L 258.962579 81.567644 
L 259.414116 85.413749 
L 260.317188 81.567644 
L 260.768724 85.413749 
L 261.22026 87.336801 
L 262.123333 87.336801 
L 262.574869 89.259854 
L 263.477942 89.259854 
L 263.929478 91.182906 
L 266.187159 91.182906 
L 266.638695 87.336801 
L 267.993304 81.567644 
L 268.44484 81.567644 
L 268.896376 83.490696 
L 269.347913 79.644591 
L 269.799449 77.721539 
L 270.250985 73.875434 
L 271.154057 70.029329 
L 273.863275 70.029329 
L 274.766347 77.721539 
L 275.217883 79.644591 
L 275.66942 87.336801 
L 276.120956 91.182906 
L 276.572492 91.182906 
L 277.024028 95.029011 
L 278.378637 89.259854 
L 278.830173 89.259854 
L 279.281709 85.413749 
L 279.733246 87.336801 
L 281.087854 98.875116 
L 284.700144 98.875116 
L 285.15168 100.798169 
L 285.603217 100.798169 
L 286.054753 98.875116 
L 286.506289 100.798169 
L 286.957825 100.798169 
L 287.409361 102.721221 
L 287.860898 106.567326 
L 288.312434 100.798169 
L 288.76397 102.721221 
L 289.215506 100.798169 
L 290.118579 83.490696 
L 290.570115 75.798486 
L 291.021651 70.029329 
L 291.473188 66.183224 
L 291.924724 66.183224 
L 292.827796 62.337119 
L 293.279332 62.337119 
L 294.182405 66.183224 
L 294.633941 73.875434 
L 295.085477 77.721539 
L 295.537014 79.644591 
L 295.98855 77.721539 
L 297.343158 89.259854 
L 297.794695 95.029011 
L 298.697767 95.029011 
L 299.149303 96.952064 
L 299.60084 100.798169 
L 300.052376 93.105959 
L 300.503912 87.336801 
L 300.955448 87.336801 
L 301.858521 79.644591 
L 302.310057 77.721539 
L 303.213129 77.721539 
L 304.567738 66.183224 
L 305.922347 60.414067 
L 306.373883 64.260172 
L 306.825419 71.952382 
L 307.728492 83.490696 
L 308.631564 87.336801 
L 309.534636 95.029011 
L 309.986173 96.952064 
L 310.437709 95.029011 
L 310.889245 91.182906 
L 311.340781 89.259854 
L 312.69539 89.259854 
L 313.146926 87.336801 
L 313.598463 87.336801 
L 314.501535 91.182906 
L 314.953071 91.182906 
L 315.404607 89.259854 
L 316.30768 68.106277 
L 317.210752 68.106277 
L 318.113825 71.952382 
L 318.565361 68.106277 
L 319.016897 66.183224 
L 319.468433 66.183224 
L 319.91997 68.106277 
L 320.823042 79.644591 
L 321.274578 83.490696 
L 321.726115 85.413749 
L 322.177651 85.413749 
L 322.629187 87.336801 
L 323.532259 87.336801 
L 323.983796 89.259854 
L 324.435332 89.259854 
L 324.886868 87.336801 
L 326.241477 87.336801 
L 326.693013 91.182906 
L 327.144549 93.105959 
L 327.596085 89.259854 
L 328.047622 91.182906 
L 329.40223 91.182906 
L 329.853767 85.413749 
L 330.305303 89.259854 
L 330.756839 91.182906 
L 331.208375 91.182906 
L 331.659911 89.259854 
L 332.562984 89.259854 
L 333.01452 87.336801 
L 333.466056 87.336801 
L 333.917593 89.259854 
L 334.369129 89.259854 
L 334.820665 87.336801 
L 335.723738 87.336801 
L 336.175274 89.259854 
L 338.432955 70.029329 
L 338.884491 68.106277 
L 339.336027 64.260172 
L 339.787564 70.029329 
L 340.2391 73.875434 
L 341.142172 73.875434 
L 342.045245 81.567644 
L 344.754462 81.567644 
L 345.205998 77.721539 
L 345.657534 77.721539 
L 346.560607 73.875434 
L 347.012143 77.721539 
L 347.463679 71.952382 
L 347.915216 70.029329 
L 348.366752 70.029329 
L 348.818288 71.952382 
L 349.72136 64.260172 
L 350.624433 71.952382 
L 351.527505 75.798486 
L 351.979042 79.644591 
L 352.882114 83.490696 
L 353.33365 87.336801 
L 353.785186 83.490696 
L 354.236723 83.490696 
L 354.688259 85.413749 
L 355.139795 81.567644 
L 356.042868 89.259854 
L 356.494404 89.259854 
L 356.94594 87.336801 
L 358.300549 87.336801 
L 358.752085 89.259854 
L 361.461302 89.259854 
L 361.912839 87.336801 
L 362.364375 89.259854 
L 363.267447 96.952064 
L 363.718983 98.875116 
L 364.622056 98.875116 
L 365.073592 100.798169 
L 365.525128 98.875116 
L 365.976665 98.875116 
L 366.428201 100.798169 
L 366.879737 98.875116 
L 367.782809 81.567644 
L 368.234346 73.875434 
L 369.137418 66.183224 
L 369.588954 64.260172 
L 370.040491 68.106277 
L 370.943563 85.413749 
L 371.846635 93.105959 
L 372.298172 93.105959 
L 372.749708 91.182906 
L 373.65278 83.490696 
L 374.104317 81.567644 
L 374.555853 83.490696 
L 375.007389 91.182906 
L 375.458925 95.029011 
L 376.813534 100.798169 
L 377.26507 93.105959 
L 377.716606 87.336801 
L 378.168143 79.644591 
L 378.619679 75.798486 
L 379.071215 73.875434 
L 379.522751 73.875434 
L 380.425824 70.029329 
L 380.87736 71.952382 
L 381.780432 79.644591 
L 382.231969 85.413749 
L 383.586577 91.182906 
L 384.038114 95.029011 
L 384.48965 95.029011 
L 384.941186 93.105959 
L 385.392722 93.105959 
L 386.295795 89.259854 
L 386.747331 85.413749 
L 387.198867 85.413749 
L 387.650403 81.567644 
L 388.553476 77.721539 
L 389.005012 79.644591 
L 390.359621 73.875434 
L 390.811157 73.875434 
L 391.262693 75.798486 
L 392.165766 93.105959 
L 392.617302 96.952064 
L 393.520374 96.952064 
L 394.423447 100.798169 
L 394.874983 100.798169 
L 395.778055 104.644273 
L 396.229592 100.798169 
L 396.681128 102.721221 
L 397.132664 100.798169 
L 397.5842 102.721221 
L 398.035737 96.952064 
L 398.487273 89.259854 
L 398.487273 89.259854 
" clip-path="url(#p6318f09f4c)" style="fill: none; stroke: #1f77b4; stroke-width: 1.5; stroke-linecap: square"/>
   </g>
   <g id="patch_3">
    <path d="M 57.6 119.740235 
L 57.6 41.472 
" style="fill: none; stroke: #000000; stroke-width: 0.8; stroke-linejoin: miter; stroke-linecap: square"/>
   </g>
   <g id="patch_4">
    <path d="M 414.72 119.740235 
L 414.72 41.472 
" style="fill: none; stroke: #000000; stroke-width: 0.8; stroke-linejoin: miter; stroke-linecap: square"/>
   </g>
   <g id="patch_5">
    <path d="M 57.6 119.740235 
L 414.72 119.740235 
" style="fill: none; stroke: #000000; stroke-width: 0.8; stroke-linejoin: miter; stroke-linecap: square"/>
   </g>
   <g id="patch_6">
    <path d="M 57.6 41.472 
L 414.72 41.472 
" style="fill: none; stroke: #000000; stroke-width: 0.8; stroke-linejoin: miter; stroke-linecap: square"/>
   </g>
  </g>
  <g id="axes_2">
   <g id="patch_7">
    <path d="M 57.6 213.662118 
L 414.72 213.662118 
L 414.72 135.393882 
L 57.6 135.393882 
z
" style="fill: #ffffff"/>
   </g>
   <g id="matplotlib.axis_3">
    <g id="xtick_8">
     <g id="line2d_11">
      <g>
       <use xlink:href="#mb1e2b0ac9f" x="73.832727" y="213.662118" style="stroke: #000000; stroke-width: 0.8"/>
      </g>
     </g>
     <g id="text_10">
      <!-- 0 -->
      <g transform="translate(70.651477 228.260555) scale(0.1 -0.1)">
       <use xlink:href="#DejaVuSans-30"/>
      </g>
     </g>
    </g>
    <g id="xtick_9">
     <g id="line2d_12">
      <g>
       <use xlink:href="#mb1e2b0ac9f" x="128.017074" y="213.662118" style="stroke: #000000; stroke-width: 0.8"/>
      </g>
     </g>
     <g id="text_11">
      <!-- 5 -->
      <g transform="translate(124.835824 228.260555) scale(0.1 -0.1)">
       <use xlink:href="#DejaVuSans-35"/>
      </g>
     </g>
    </g>
    <g id="xtick_10">
     <g id="line2d_13">
      <g>
       <use xlink:href="#mb1e2b0ac9f" x="182.201421" y="213.662118" style="stroke: #000000; stroke-width: 0.8"/>
      </g>
     </g>
     <g id="text_12">
      <!-- 10 -->
      <g transform="translate(175.838921 228.260555) scale(0.1 -0.1)">
       <use xlink:href="#DejaVuSans-31"/>
       <use xlink:href="#DejaVuSans-30" x="63.623047"/>
      </g>
     </g>
    </g>
    <g id="xtick_11">
     <g id="line2d_14">
      <g>
       <use xlink:href="#mb1e2b0ac9f" x="236.385768" y="213.662118" style="stroke: #000000; stroke-width: 0.8"/>
      </g>
     </g>
     <g id="text_13">
      <!-- 15 -->
      <g transform="translate(230.023268 228.260555) scale(0.1 -0.1)">
       <use xlink:href="#DejaVuSans-31"/>
       <use xlink:href="#DejaVuSans-35" x="63.623047"/>
      </g>
     </g>
    </g>
    <g id="xtick_12">
     <g id="line2d_15">
      <g>
       <use xlink:href="#mb1e2b0ac9f" x="290.570115" y="213.662118" style="stroke: #000000; stroke-width: 0.8"/>
      </g>
     </g>
     <g id="text_14">
      <!-- 20 -->
      <g transform="translate(284.207615 228.260555) scale(0.1 -0.1)">
       <use xlink:href="#DejaVuSans-32"/>
       <use xlink:href="#DejaVuSans-30" x="63.623047"/>
      </g>
     </g>
    </g>
    <g id="xtick_13">
     <g id="line2d_16">
      <g>
       <use xlink:href="#mb1e2b0ac9f" x="344.754462" y="213.662118" style="stroke: #000000; stroke-width: 0.8"/>
      </g>
     </g>
     <g id="text_15">
      <!-- 25 -->
      <g transform="translate(338.391962 228.260555) scale(0.1 -0.1)">
       <use xlink:href="#DejaVuSans-32"/>
       <use xlink:href="#DejaVuSans-35" x="63.623047"/>
      </g>
     </g>
    </g>
    <g id="xtick_14">
     <g id="line2d_17">
      <g>
       <use xlink:href="#mb1e2b0ac9f" x="398.938809" y="213.662118" style="stroke: #000000; stroke-width: 0.8"/>
      </g>
     </g>
     <g id="text_16">
      <!-- 30 -->
      <g transform="translate(392.576309 228.260555) scale(0.1 -0.1)">
       <use xlink:href="#DejaVuSans-33"/>
       <use xlink:href="#DejaVuSans-30" x="63.623047"/>
      </g>
     </g>
    </g>
   </g>
   <g id="matplotlib.axis_4">
    <g id="ytick_3">
     <g id="line2d_18">
      <g>
       <use xlink:href="#m3847aea245" x="57.6" y="210.104471" style="stroke: #000000; stroke-width: 0.8"/>
      </g>
     </g>
     <g id="text_17">
      <!-- 0 -->
      <g transform="translate(44.2375 213.903689) scale(0.1 -0.1)">
       <use xlink:href="#DejaVuSans-30"/>
      </g>
     </g>
    </g>
    <g id="ytick_4">
     <g id="line2d_19">
      <g>
       <use xlink:href="#m3847aea245" x="57.6" y="174.528" style="stroke: #000000; stroke-width: 0.8"/>
      </g>
     </g>
     <g id="text_18">
      <!-- 50 -->
      <g transform="translate(37.875 178.327219) scale(0.1 -0.1)">
       <use xlink:href="#DejaVuSans-35"/>
       <use xlink:href="#DejaVuSans-30" x="63.623047"/>
      </g>
     </g>
    </g>
    <g id="ytick_5">
     <g id="line2d_20">
      <g>
       <use xlink:href="#m3847aea245" x="57.6" y="138.951529" style="stroke: #000000; stroke-width: 0.8"/>
      </g>
     </g>
     <g id="text_19">
      <!-- 100 -->
      <g transform="translate(31.5125 142.750748) scale(0.1 -0.1)">
       <use xlink:href="#DejaVuSans-31"/>
       <use xlink:href="#DejaVuSans-30" x="63.623047"/>
       <use xlink:href="#DejaVuSans-30" x="127.246094"/>
      </g>
     </g>
    </g>
   </g>
   <g id="line2d_21">
    <path d="M 73.832727 151.047529 
L 74.7358 148.201412 
L 75.187336 141.086118 
L 75.638872 138.951529 
L 78.799626 138.951529 
L 79.251162 140.374588 
L 81.057307 172.393412 
L 81.508843 175.951059 
L 81.960379 174.528 
L 82.863452 177.374118 
L 83.314988 180.931765 
L 83.766524 180.931765 
L 84.21806 174.528 
L 84.669597 165.989647 
L 85.121133 154.605176 
L 85.572669 151.759059 
L 86.024205 151.047529 
L 86.927278 146.778353 
L 87.378814 146.778353 
L 87.83035 145.355294 
L 88.281886 141.797647 
L 88.733423 144.643765 
L 89.184959 146.066824 
L 89.636495 146.066824 
L 90.088031 147.489882 
L 90.539568 143.932235 
L 90.991104 163.143529 
L 91.44264 175.951059 
L 91.894176 184.489412 
L 92.345712 180.220235 
L 92.797249 171.681882 
L 93.248785 173.816471 
L 93.700321 178.797176 
L 94.151857 178.085647 
L 94.603394 174.528 
L 95.05493 166.701176 
L 95.506466 161.720471 
L 95.958002 154.605176 
L 96.409539 153.893647 
L 96.861075 148.912941 
L 97.312611 146.778353 
L 97.764147 146.066824 
L 98.215683 148.912941 
L 98.66722 149.624471 
L 99.118756 148.201412 
L 99.570292 144.643765 
L 100.021828 143.220706 
L 100.473365 142.509176 
L 100.924901 148.201412 
L 101.827973 170.258824 
L 102.279509 170.970353 
L 102.731046 168.124235 
L 103.182582 163.143529 
L 103.634118 175.951059 
L 104.085654 177.374118 
L 104.537191 178.085647 
L 104.988727 172.393412 
L 105.440263 168.835765 
L 106.343335 178.085647 
L 106.794872 175.951059 
L 107.246408 182.354824 
L 107.697944 186.624 
L 108.14948 188.758588 
L 111.76177 188.758588 
L 112.213306 185.912471 
L 112.664843 180.931765 
L 113.116379 174.528 
L 113.567915 165.989647 
L 114.019451 154.605176 
L 114.470987 151.759059 
L 114.922524 151.047529 
L 115.825596 146.778353 
L 116.277132 146.778353 
L 116.728669 145.355294 
L 118.534814 172.393412 
L 118.98635 178.797176 
L 119.437886 183.066353 
L 119.889422 185.200941 
L 120.340958 186.624 
L 121.695567 188.758588 
L 122.147103 190.181647 
L 123.050176 190.181647 
L 123.501712 190.893176 
L 126.662466 190.893176 
L 127.114002 189.470118 
L 127.565538 185.200941 
L 128.017074 178.797176 
L 128.46861 175.951059 
L 128.920147 168.124235 
L 129.371683 158.162824 
L 129.823219 156.028235 
L 130.274755 153.182118 
L 131.177828 148.912941 
L 132.983973 148.912941 
L 133.435509 146.066824 
L 133.887045 148.201412 
L 134.338581 149.624471 
L 134.790118 152.470588 
L 135.241654 156.739765 
L 136.596262 141.797647 
L 137.499335 153.893647 
L 138.402407 168.124235 
L 138.853944 168.835765 
L 139.30548 173.816471 
L 139.757016 175.951059 
L 140.208552 173.816471 
L 140.660089 173.104941 
L 141.111625 173.816471 
L 141.563161 170.970353 
L 142.014697 150.336 
L 142.466233 139.663059 
L 142.91777 138.951529 
L 149.239277 138.951529 
L 150.142349 149.624471 
L 151.045422 146.778353 
L 151.496958 146.066824 
L 152.40003 143.220706 
L 152.851567 142.509176 
L 153.303103 140.374588 
L 153.754639 141.086118 
L 154.206175 140.374588 
L 154.657711 143.220706 
L 155.109248 139.663059 
L 155.560784 138.951529 
L 156.01232 143.932235 
L 156.463856 159.585882 
L 156.915393 151.047529 
L 157.366929 146.778353 
L 157.818465 146.778353 
L 158.721537 140.374588 
L 159.173074 141.086118 
L 159.62461 145.355294 
L 160.076146 151.759059 
L 160.527682 155.316706 
L 160.979219 151.759059 
L 161.430755 155.316706 
L 161.882291 150.336 
L 162.785364 165.989647 
L 163.2369 170.970353 
L 163.688436 170.258824 
L 164.139972 168.124235 
L 164.591508 166.701176 
L 165.043045 162.432 
L 165.494581 161.720471 
L 165.946117 158.874353 
L 166.397653 147.489882 
L 166.84919 140.374588 
L 167.300726 143.932235 
L 167.752262 143.932235 
L 168.655334 139.663059 
L 169.106871 138.951529 
L 170.461479 138.951529 
L 170.913016 142.509176 
L 171.364552 141.797647 
L 171.816088 140.374588 
L 172.267624 144.643765 
L 172.71916 144.643765 
L 173.170697 142.509176 
L 173.622233 138.951529 
L 174.073769 138.951529 
L 174.525305 141.797647 
L 174.976842 149.624471 
L 175.428378 143.932235 
L 175.879914 141.086118 
L 176.33145 146.066824 
L 176.782986 159.585882 
L 177.234523 168.835765 
L 177.686059 167.412706 
L 178.137595 163.855059 
L 178.589131 153.893647 
L 179.492204 170.258824 
L 180.395276 179.508706 
L 180.846812 180.931765 
L 181.298349 179.508706 
L 181.749885 210.104471 
L 182.201421 187.335529 
L 182.652957 187.335529 
L 183.104494 186.624 
L 184.007566 190.893176 
L 185.362175 195.162353 
L 186.265247 196.585412 
L 186.716783 196.585412 
L 187.16832 195.873882 
L 187.619856 195.873882 
L 188.071392 193.027765 
L 188.522928 187.335529 
L 188.974465 176.662588 
L 189.877537 183.066353 
L 190.329073 185.200941 
L 190.780609 186.624 
L 191.232146 183.777882 
L 191.683682 174.528 
L 192.135218 161.008941 
L 193.038291 145.355294 
L 193.489827 143.932235 
L 193.941363 151.759059 
L 194.844435 170.258824 
L 195.295972 159.585882 
L 195.747508 170.258824 
L 196.199044 173.104941 
L 196.65058 176.662588 
L 197.553653 158.162824 
L 198.005189 160.297412 
L 198.456725 164.566588 
L 198.908261 163.143529 
L 199.359798 160.297412 
L 199.811334 160.297412 
L 200.26287 164.566588 
L 200.714406 171.681882 
L 201.165943 175.951059 
L 202.069015 180.220235 
L 202.972087 183.066353 
L 203.423624 185.200941 
L 203.87516 210.104471 
L 204.326696 168.124235 
L 204.778232 164.566588 
L 205.229769 158.162824 
L 206.132841 140.374588 
L 206.584377 138.951529 
L 207.035914 138.951529 
L 207.938986 163.143529 
L 208.390522 168.835765 
L 209.293595 175.239529 
L 209.745131 176.662588 
L 210.196667 180.220235 
L 210.648203 181.643294 
L 211.09974 182.354824 
L 211.551276 181.643294 
L 212.002812 185.912471 
L 212.454348 188.758588 
L 212.905884 189.470118 
L 213.357421 189.470118 
L 213.808957 188.758588 
L 214.712029 190.181647 
L 215.163566 190.181647 
L 215.615102 190.893176 
L 216.066638 190.181647 
L 216.518174 184.489412 
L 216.96971 185.912471 
L 217.421247 188.758588 
L 217.872783 188.758588 
L 218.324319 185.912471 
L 219.227392 150.336 
L 219.678928 142.509176 
L 220.582 139.663059 
L 221.033536 139.663059 
L 221.936609 166.701176 
L 222.388145 161.720471 
L 222.839681 154.605176 
L 223.291218 165.989647 
L 225.097362 182.354824 
L 225.548899 184.489412 
L 226.000435 183.777882 
L 226.451971 174.528 
L 226.903507 176.662588 
L 227.355044 173.816471 
L 227.80658 171.681882 
L 228.258116 168.835765 
L 228.709652 156.739765 
L 229.612725 170.970353 
L 230.515797 179.508706 
L 230.967333 181.643294 
L 231.41887 182.354824 
L 231.870406 182.354824 
L 232.321942 184.489412 
L 232.773478 181.643294 
L 233.676551 185.912471 
L 234.128087 186.624 
L 234.579623 186.624 
L 235.031159 184.489412 
L 235.482696 181.643294 
L 235.934232 180.220235 
L 236.385768 178.085647 
L 236.837304 173.104941 
L 237.288841 162.432 
L 237.740377 161.008941 
L 238.191913 158.874353 
L 238.643449 151.759059 
L 239.094985 150.336 
L 239.546522 158.162824 
L 239.998058 156.028235 
L 240.449594 153.182118 
L 241.352667 148.912941 
L 241.804203 148.912941 
L 242.255739 146.066824 
L 242.707275 146.066824 
L 243.158811 145.355294 
L 243.610348 146.778353 
L 244.061884 146.066824 
L 244.51342 144.643765 
L 244.964956 146.066824 
L 245.416493 144.643765 
L 245.868029 143.932235 
L 246.319565 143.932235 
L 246.771101 163.143529 
L 247.222638 175.951059 
L 247.674174 184.489412 
L 248.12571 186.624 
L 248.577246 187.335529 
L 249.028782 187.335529 
L 249.480319 188.047059 
L 249.931855 185.912471 
L 250.834927 173.816471 
L 251.738 152.470588 
L 252.189536 147.489882 
L 252.641072 146.066824 
L 253.092608 139.663059 
L 253.544145 139.663059 
L 253.995681 138.951529 
L 255.801826 138.951529 
L 256.253362 139.663059 
L 256.704898 138.951529 
L 257.156434 138.951529 
L 257.607971 140.374588 
L 258.511043 151.759059 
L 258.962579 147.489882 
L 259.414116 139.663059 
L 259.865652 141.086118 
L 260.317188 148.912941 
L 260.768724 143.220706 
L 261.22026 146.066824 
L 261.671797 156.739765 
L 262.123333 158.162824 
L 262.574869 158.162824 
L 263.026405 156.028235 
L 263.477942 153.182118 
L 264.381014 148.912941 
L 264.83255 146.066824 
L 265.284086 146.066824 
L 265.735623 145.355294 
L 266.187159 146.778353 
L 266.638695 155.316706 
L 267.090231 159.585882 
L 267.993304 173.816471 
L 268.44484 174.528 
L 268.896376 170.970353 
L 269.799449 180.220235 
L 270.702521 185.912471 
L 271.154057 186.624 
L 273.863275 186.624 
L 274.314811 184.489412 
L 274.766347 181.643294 
L 275.217883 180.220235 
L 276.120956 163.855059 
L 276.572492 159.585882 
L 277.024028 151.047529 
L 277.927101 165.278118 
L 278.378637 172.393412 
L 278.830173 169.547294 
L 279.281709 179.508706 
L 279.733246 179.508706 
L 280.636318 156.028235 
L 281.087854 139.663059 
L 281.990927 139.663059 
L 282.442463 138.951529 
L 282.893999 138.951529 
L 283.345535 140.374588 
L 283.797072 145.355294 
L 284.248608 143.932235 
L 284.700144 146.066824 
L 285.15168 145.355294 
L 285.603217 146.066824 
L 286.054753 148.912941 
L 286.957825 143.220706 
L 287.409361 141.797647 
L 287.860898 138.951529 
L 288.312434 140.374588 
L 288.76397 138.951529 
L 289.215506 142.509176 
L 289.667043 158.162824 
L 290.118579 169.547294 
L 291.021651 183.066353 
L 291.473188 187.335529 
L 291.924724 188.758588 
L 293.279332 190.893176 
L 293.730869 190.893176 
L 294.182405 189.470118 
L 294.633941 185.200941 
L 295.085477 178.797176 
L 295.537014 175.951059 
L 295.98855 178.085647 
L 296.440086 175.239529 
L 297.343158 161.008941 
L 297.794695 151.047529 
L 298.697767 148.201412 
L 299.149303 141.086118 
L 299.60084 138.951529 
L 300.503912 156.739765 
L 300.955448 160.297412 
L 301.406984 165.989647 
L 301.858521 169.547294 
L 302.310057 171.681882 
L 302.761593 169.547294 
L 303.213129 168.835765 
L 304.567738 181.643294 
L 305.019274 183.066353 
L 305.922347 187.335529 
L 306.373883 184.489412 
L 307.276955 168.835765 
L 307.728492 155.316706 
L 308.631564 144.643765 
L 309.0831 142.509176 
L 309.534636 139.663059 
L 309.986173 138.951529 
L 310.437709 139.663059 
L 310.889245 138.951529 
L 311.340781 139.663059 
L 311.792318 138.951529 
L 312.243854 138.951529 
L 312.69539 141.797647 
L 313.146926 148.912941 
L 313.598463 149.624471 
L 314.049999 148.201412 
L 314.501535 144.643765 
L 314.953071 143.220706 
L 315.404607 143.932235 
L 315.856144 163.143529 
L 316.30768 175.951059 
L 316.759216 177.374118 
L 317.210752 178.085647 
L 317.662289 172.393412 
L 318.113825 168.835765 
L 318.565361 170.970353 
L 319.468433 172.393412 
L 319.91997 172.393412 
L 320.371506 161.720471 
L 320.823042 146.778353 
L 321.274578 141.797647 
L 321.726115 139.663059 
L 322.177651 142.509176 
L 322.629187 141.797647 
L 323.080723 140.374588 
L 323.532259 140.374588 
L 323.983796 138.951529 
L 325.338404 138.951529 
L 325.789941 139.663059 
L 326.241477 141.797647 
L 326.693013 138.951529 
L 327.144549 138.951529 
L 327.596085 139.663059 
L 328.047622 138.951529 
L 329.40223 138.951529 
L 329.853767 141.086118 
L 330.305303 138.951529 
L 331.208375 138.951529 
L 331.659911 141.086118 
L 332.562984 139.663059 
L 333.01452 140.374588 
L 333.466056 140.374588 
L 333.917593 138.951529 
L 336.175274 138.951529 
L 336.62681 141.797647 
L 337.078346 147.489882 
L 337.529882 148.912941 
L 337.981419 153.893647 
L 338.432955 161.008941 
L 338.884491 163.143529 
L 339.336027 172.393412 
L 339.787564 166.701176 
L 340.2391 151.047529 
L 341.142172 148.201412 
L 341.593708 141.797647 
L 342.045245 138.951529 
L 342.496781 138.951529 
L 343.399853 140.374588 
L 344.302926 138.951529 
L 344.754462 140.374588 
L 345.205998 148.201412 
L 345.657534 147.489882 
L 346.109071 153.182118 
L 346.560607 155.316706 
L 347.012143 143.932235 
L 347.463679 161.720471 
L 347.915216 167.412706 
L 348.366752 170.970353 
L 348.818288 168.835765 
L 349.72136 178.085647 
L 350.624433 173.816471 
L 351.979042 163.143529 
L 352.430578 155.316706 
L 352.882114 141.086118 
L 353.33365 139.663059 
L 353.785186 143.932235 
L 354.236723 143.932235 
L 354.688259 141.797647 
L 355.139795 147.489882 
L 355.591331 140.374588 
L 356.042868 138.951529 
L 356.494404 138.951529 
L 357.849013 143.220706 
L 358.300549 145.355294 
L 358.752085 141.797647 
L 359.203621 144.643765 
L 359.655157 146.066824 
L 361.461302 146.066824 
L 361.912839 147.489882 
L 362.364375 154.605176 
L 362.815911 149.624471 
L 363.267447 141.086118 
L 363.718983 138.951529 
L 365.525128 138.951529 
L 365.976665 139.663059 
L 366.428201 138.951529 
L 366.879737 141.797647 
L 367.331273 156.739765 
L 368.234346 173.104941 
L 368.685882 178.797176 
L 369.588954 186.624 
L 370.040491 183.777882 
L 370.492027 174.528 
L 370.943563 161.008941 
L 371.846635 145.355294 
L 372.298172 143.932235 
L 372.749708 146.778353 
L 374.104317 170.970353 
L 374.555853 166.701176 
L 375.007389 155.316706 
L 375.458925 146.778353 
L 375.910461 141.797647 
L 376.361998 139.663059 
L 376.813534 138.951529 
L 377.26507 143.932235 
L 377.716606 151.759059 
L 378.619679 170.258824 
L 379.071215 175.951059 
L 379.522751 178.797176 
L 379.974288 180.220235 
L 380.425824 183.777882 
L 381.328896 182.354824 
L 381.780432 178.797176 
L 382.231969 169.547294 
L 382.683505 166.701176 
L 383.586577 156.739765 
L 384.038114 149.624471 
L 384.48965 147.489882 
L 384.941186 146.778353 
L 385.392722 141.797647 
L 386.295795 151.047529 
L 386.747331 161.008941 
L 387.650403 173.104941 
L 388.10194 175.951059 
L 388.553476 178.085647 
L 389.456548 176.662588 
L 389.908084 179.508706 
L 390.359621 181.643294 
L 390.811157 180.220235 
L 391.262693 177.374118 
L 391.714229 157.451294 
L 392.165766 142.509176 
L 392.617302 138.951529 
L 395.778055 138.951529 
L 396.229592 139.663059 
L 396.681128 138.951529 
L 397.5842 138.951529 
L 398.035737 141.797647 
L 398.487273 152.470588 
L 398.487273 152.470588 
" clip-path="url(#p771440156f)" style="fill: none; stroke: #1f77b4; stroke-width: 1.5; stroke-linecap: square"/>
   </g>
   <g id="patch_8">
    <path d="M 57.6 213.662118 
L 57.6 135.393882 
" style="fill: none; stroke: #000000; stroke-width: 0.8; stroke-linejoin: miter; stroke-linecap: square"/>
   </g>
   <g id="patch_9">
    <path d="M 414.72 213.662118 
L 414.72 135.393882 
" style="fill: none; stroke: #000000; stroke-width: 0.8; stroke-linejoin: miter; stroke-linecap: square"/>
   </g>
   <g id="patch_10">
    <path d="M 57.6 213.662118 
L 414.72 213.662118 
" style="fill: none; stroke: #000000; stroke-width: 0.8; stroke-linejoin: miter; stroke-linecap: square"/>
   </g>
   <g id="patch_11">
    <path d="M 57.6 135.393882 
L 414.72 135.393882 
" style="fill: none; stroke: #000000; stroke-width: 0.8; stroke-linejoin: miter; stroke-linecap: square"/>
   </g>
  </g>
  <g id="axes_3">
   <g id="patch_12">
    <path d="M 57.6 307.584 
L 414.72 307.584 
L 414.72 229.315765 
L 57.6 229.315765 
z
" style="fill: #ffffff"/>
   </g>
   <g id="matplotlib.axis_5">
    <g id="xtick_15">
     <g id="line2d_22">
      <g>
       <use xlink:href="#mb1e2b0ac9f" x="73.832727" y="307.584" style="stroke: #000000; stroke-width: 0.8"/>
      </g>
     </g>
     <g id="text_20">
      <!-- 0 -->
      <g transform="translate(70.651477 322.182437) scale(0.1 -0.1)">
       <use xlink:href="#DejaVuSans-30"/>
      </g>
     </g>
    </g>
    <g id="xtick_16">
     <g id="line2d_23">
      <g>
       <use xlink:href="#mb1e2b0ac9f" x="128.017074" y="307.584" style="stroke: #000000; stroke-width: 0.8"/>
      </g>
     </g>
     <g id="text_21">
      <!-- 5 -->
      <g transform="translate(124.835824 322.182437) scale(0.1 -0.1)">
       <use xlink:href="#DejaVuSans-35"/>
      </g>
     </g>
    </g>
    <g id="xtick_17">
     <g id="line2d_24">
      <g>
       <use xlink:href="#mb1e2b0ac9f" x="182.201421" y="307.584" style="stroke: #000000; stroke-width: 0.8"/>
      </g>
     </g>
     <g id="text_22">
      <!-- 10 -->
      <g transform="translate(175.838921 322.182437) scale(0.1 -0.1)">
       <use xlink:href="#DejaVuSans-31"/>
       <use xlink:href="#DejaVuSans-30" x="63.623047"/>
      </g>
     </g>
    </g>
    <g id="xtick_18">
     <g id="line2d_25">
      <g>
       <use xlink:href="#mb1e2b0ac9f" x="236.385768" y="307.584" style="stroke: #000000; stroke-width: 0.8"/>
      </g>
     </g>
     <g id="text_23">
      <!-- 15 -->
      <g transform="translate(230.023268 322.182437) scale(0.1 -0.1)">
       <use xlink:href="#DejaVuSans-31"/>
       <use xlink:href="#DejaVuSans-35" x="63.623047"/>
      </g>
     </g>
    </g>
    <g id="xtick_19">
     <g id="line2d_26">
      <g>
       <use xlink:href="#mb1e2b0ac9f" x="290.570115" y="307.584" style="stroke: #000000; stroke-width: 0.8"/>
      </g>
     </g>
     <g id="text_24">
      <!-- 20 -->
      <g transform="translate(284.207615 322.182437) scale(0.1 -0.1)">
       <use xlink:href="#DejaVuSans-32"/>
       <use xlink:href="#DejaVuSans-30" x="63.623047"/>
      </g>
     </g>
    </g>
    <g id="xtick_20">
     <g id="line2d_27">
      <g>
       <use xlink:href="#mb1e2b0ac9f" x="344.754462" y="307.584" style="stroke: #000000; stroke-width: 0.8"/>
      </g>
     </g>
     <g id="text_25">
      <!-- 25 -->
      <g transform="translate(338.391962 322.182437) scale(0.1 -0.1)">
       <use xlink:href="#DejaVuSans-32"/>
       <use xlink:href="#DejaVuSans-35" x="63.623047"/>
      </g>
     </g>
    </g>
    <g id="xtick_21">
     <g id="line2d_28">
      <g>
       <use xlink:href="#mb1e2b0ac9f" x="398.938809" y="307.584" style="stroke: #000000; stroke-width: 0.8"/>
      </g>
     </g>
     <g id="text_26">
      <!-- 30 -->
      <g transform="translate(392.576309 322.182437) scale(0.1 -0.1)">
       <use xlink:href="#DejaVuSans-33"/>
       <use xlink:href="#DejaVuSans-30" x="63.623047"/>
      </g>
     </g>
    </g>
   </g>
   <g id="matplotlib.axis_6">
    <g id="ytick_6">
     <g id="line2d_29">
      <g>
       <use xlink:href="#m3847aea245" x="57.6" y="304.026353" style="stroke: #000000; stroke-width: 0.8"/>
      </g>
     </g>
     <g id="text_27">
      <!-- 0 -->
      <g transform="translate(44.2375 307.825572) scale(0.1 -0.1)">
       <use xlink:href="#DejaVuSans-30"/>
      </g>
     </g>
    </g>
    <g id="ytick_7">
     <g id="line2d_30">
      <g>
       <use xlink:href="#m3847aea245" x="57.6" y="268.449882" style="stroke: #000000; stroke-width: 0.8"/>
      </g>
     </g>
     <g id="text_28">
      <!-- 2 -->
      <g transform="translate(44.2375 272.249101) scale(0.1 -0.1)">
       <use xlink:href="#DejaVuSans-32"/>
      </g>
     </g>
    </g>
    <g id="ytick_8">
     <g id="line2d_31">
      <g>
       <use xlink:href="#m3847aea245" x="57.6" y="232.873412" style="stroke: #000000; stroke-width: 0.8"/>
      </g>
     </g>
     <g id="text_29">
      <!-- 4 -->
      <g transform="translate(44.2375 236.672631) scale(0.1 -0.1)">
       <defs>
        <path id="DejaVuSans-34" d="M 2419 4116 
L 825 1625 
L 2419 1625 
L 2419 4116 
z
M 2253 4666 
L 3047 4666 
L 3047 1625 
L 3713 1625 
L 3713 1100 
L 3047 1100 
L 3047 0 
L 2419 0 
L 2419 1100 
L 313 1100 
L 313 1709 
L 2253 4666 
z
" transform="scale(0.015625)"/>
       </defs>
       <use xlink:href="#DejaVuSans-34"/>
      </g>
     </g>
    </g>
   </g>
   <g id="line2d_32">
    <path d="M 73.832727 304.026353 
L 173.170697 304.026353 
L 173.622233 286.238118 
L 174.073769 304.026353 
L 254.447217 304.026353 
L 254.898753 286.238118 
L 255.35029 304.026353 
L 255.801826 304.026353 
L 256.253362 286.238118 
L 256.704898 250.661647 
L 257.156434 286.238118 
L 257.607971 304.026353 
L 258.962579 304.026353 
L 259.414116 232.873412 
L 259.865652 304.026353 
L 281.087854 304.026353 
L 281.539391 286.238118 
L 282.442463 286.238118 
L 282.893999 304.026353 
L 323.080723 304.026353 
L 323.532259 232.873412 
L 323.983796 286.238118 
L 324.435332 268.449882 
L 324.886868 268.449882 
L 325.338404 304.026353 
L 333.01452 304.026353 
L 333.466056 232.873412 
L 333.917593 286.238118 
L 334.369129 268.449882 
L 334.820665 268.449882 
L 335.272201 304.026353 
L 364.17052 304.026353 
L 364.622056 268.449882 
L 365.073592 304.026353 
L 398.487273 304.026353 
L 398.487273 304.026353 
" clip-path="url(#pea538bc150)" style="fill: none; stroke: #1f77b4; stroke-width: 1.5; stroke-linecap: square"/>
   </g>
   <g id="patch_13">
    <path d="M 57.6 307.584 
L 57.6 229.315765 
" style="fill: none; stroke: #000000; stroke-width: 0.8; stroke-linejoin: miter; stroke-linecap: square"/>
   </g>
   <g id="patch_14">
    <path d="M 414.72 307.584 
L 414.72 229.315765 
" style="fill: none; stroke: #000000; stroke-width: 0.8; stroke-linejoin: miter; stroke-linecap: square"/>
   </g>
   <g id="patch_15">
    <path d="M 57.6 307.584 
L 414.72 307.584 
" style="fill: none; stroke: #000000; stroke-width: 0.8; stroke-linejoin: miter; stroke-linecap: square"/>
   </g>
   <g id="patch_16">
    <path d="M 57.6 229.315765 
L 414.72 229.315765 
" style="fill: none; stroke: #000000; stroke-width: 0.8; stroke-linejoin: miter; stroke-linecap: square"/>
   </g>
  </g>
  <g id="text_30">
   <!-- cleaned_weather_summer -->
   <g transform="translate(151.397813 16.030125) scale(0.12 -0.12)">
    <defs>
     <path id="DejaVuSans-63" d="M 3122 3366 
L 3122 2828 
Q 2878 2963 2633 3030 
Q 2388 3097 2138 3097 
Q 1578 3097 1268 2742 
Q 959 2388 959 1747 
Q 959 1106 1268 751 
Q 1578 397 2138 397 
Q 2388 397 2633 464 
Q 2878 531 3122 666 
L 3122 134 
Q 2881 22 2623 -34 
Q 2366 -91 2075 -91 
Q 1284 -91 818 406 
Q 353 903 353 1747 
Q 353 2603 823 3093 
Q 1294 3584 2113 3584 
Q 2378 3584 2631 3529 
Q 2884 3475 3122 3366 
z
" transform="scale(0.015625)"/>
     <path id="DejaVuSans-6c" d="M 603 4863 
L 1178 4863 
L 1178 0 
L 603 0 
L 603 4863 
z
" transform="scale(0.015625)"/>
     <path id="DejaVuSans-65" d="M 3597 1894 
L 3597 1613 
L 953 1613 
Q 991 1019 1311 708 
Q 1631 397 2203 397 
Q 2534 397 2845 478 
Q 3156 559 3463 722 
L 3463 178 
Q 3153 47 2828 -22 
Q 2503 -91 2169 -91 
Q 1331 -91 842 396 
Q 353 884 353 1716 
Q 353 2575 817 3079 
Q 1281 3584 2069 3584 
Q 2775 3584 3186 3129 
Q 3597 2675 3597 1894 
z
M 3022 2063 
Q 3016 2534 2758 2815 
Q 2500 3097 2075 3097 
Q 1594 3097 1305 2825 
Q 1016 2553 972 2059 
L 3022 2063 
z
" transform="scale(0.015625)"/>
     <path id="DejaVuSans-61" d="M 2194 1759 
Q 1497 1759 1228 1600 
Q 959 1441 959 1056 
Q 959 750 1161 570 
Q 1363 391 1709 391 
Q 2188 391 2477 730 
Q 2766 1069 2766 1631 
L 2766 1759 
L 2194 1759 
z
M 3341 1997 
L 3341 0 
L 2766 0 
L 2766 531 
Q 2569 213 2275 61 
Q 1981 -91 1556 -91 
Q 1019 -91 701 211 
Q 384 513 384 1019 
Q 384 1609 779 1909 
Q 1175 2209 1959 2209 
L 2766 2209 
L 2766 2266 
Q 2766 2663 2505 2880 
Q 2244 3097 1772 3097 
Q 1472 3097 1187 3025 
Q 903 2953 641 2809 
L 641 3341 
Q 956 3463 1253 3523 
Q 1550 3584 1831 3584 
Q 2591 3584 2966 3190 
Q 3341 2797 3341 1997 
z
" transform="scale(0.015625)"/>
     <path id="DejaVuSans-6e" d="M 3513 2113 
L 3513 0 
L 2938 0 
L 2938 2094 
Q 2938 2591 2744 2837 
Q 2550 3084 2163 3084 
Q 1697 3084 1428 2787 
Q 1159 2491 1159 1978 
L 1159 0 
L 581 0 
L 581 3500 
L 1159 3500 
L 1159 2956 
Q 1366 3272 1645 3428 
Q 1925 3584 2291 3584 
Q 2894 3584 3203 3211 
Q 3513 2838 3513 2113 
z
" transform="scale(0.015625)"/>
     <path id="DejaVuSans-64" d="M 2906 2969 
L 2906 4863 
L 3481 4863 
L 3481 0 
L 2906 0 
L 2906 525 
Q 2725 213 2448 61 
Q 2172 -91 1784 -91 
Q 1150 -91 751 415 
Q 353 922 353 1747 
Q 353 2572 751 3078 
Q 1150 3584 1784 3584 
Q 2172 3584 2448 3432 
Q 2725 3281 2906 2969 
z
M 947 1747 
Q 947 1113 1208 752 
Q 1469 391 1925 391 
Q 2381 391 2643 752 
Q 2906 1113 2906 1747 
Q 2906 2381 2643 2742 
Q 2381 3103 1925 3103 
Q 1469 3103 1208 2742 
Q 947 2381 947 1747 
z
" transform="scale(0.015625)"/>
     <path id="DejaVuSans-5f" d="M 3263 -1063 
L 3263 -1509 
L -63 -1509 
L -63 -1063 
L 3263 -1063 
z
" transform="scale(0.015625)"/>
     <path id="DejaVuSans-77" d="M 269 3500 
L 844 3500 
L 1563 769 
L 2278 3500 
L 2956 3500 
L 3675 769 
L 4391 3500 
L 4966 3500 
L 4050 0 
L 3372 0 
L 2619 2869 
L 1863 0 
L 1184 0 
L 269 3500 
z
" transform="scale(0.015625)"/>
     <path id="DejaVuSans-74" d="M 1172 4494 
L 1172 3500 
L 2356 3500 
L 2356 3053 
L 1172 3053 
L 1172 1153 
Q 1172 725 1289 603 
Q 1406 481 1766 481 
L 2356 481 
L 2356 0 
L 1766 0 
Q 1100 0 847 248 
Q 594 497 594 1153 
L 594 3053 
L 172 3053 
L 172 3500 
L 594 3500 
L 594 4494 
L 1172 4494 
z
" transform="scale(0.015625)"/>
     <path id="DejaVuSans-68" d="M 3513 2113 
L 3513 0 
L 2938 0 
L 2938 2094 
Q 2938 2591 2744 2837 
Q 2550 3084 2163 3084 
Q 1697 3084 1428 2787 
Q 1159 2491 1159 1978 
L 1159 0 
L 581 0 
L 581 4863 
L 1159 4863 
L 1159 2956 
Q 1366 3272 1645 3428 
Q 1925 3584 2291 3584 
Q 2894 3584 3203 3211 
Q 3513 2838 3513 2113 
z
" transform="scale(0.015625)"/>
     <path id="DejaVuSans-72" d="M 2631 2963 
Q 2534 3019 2420 3045 
Q 2306 3072 2169 3072 
Q 1681 3072 1420 2755 
Q 1159 2438 1159 1844 
L 1159 0 
L 581 0 
L 581 3500 
L 1159 3500 
L 1159 2956 
Q 1341 3275 1631 3429 
Q 1922 3584 2338 3584 
Q 2397 3584 2469 3576 
Q 2541 3569 2628 3553 
L 2631 2963 
z
" transform="scale(0.015625)"/>
     <path id="DejaVuSans-73" d="M 2834 3397 
L 2834 2853 
Q 2591 2978 2328 3040 
Q 2066 3103 1784 3103 
Q 1356 3103 1142 2972 
Q 928 2841 928 2578 
Q 928 2378 1081 2264 
Q 1234 2150 1697 2047 
L 1894 2003 
Q 2506 1872 2764 1633 
Q 3022 1394 3022 966 
Q 3022 478 2636 193 
Q 2250 -91 1575 -91 
Q 1294 -91 989 -36 
Q 684 19 347 128 
L 347 722 
Q 666 556 975 473 
Q 1284 391 1588 391 
Q 1994 391 2212 530 
Q 2431 669 2431 922 
Q 2431 1156 2273 1281 
Q 2116 1406 1581 1522 
L 1381 1569 
Q 847 1681 609 1914 
Q 372 2147 372 2553 
Q 372 3047 722 3315 
Q 1072 3584 1716 3584 
Q 2034 3584 2315 3537 
Q 2597 3491 2834 3397 
z
" transform="scale(0.015625)"/>
     <path id="DejaVuSans-75" d="M 544 1381 
L 544 3500 
L 1119 3500 
L 1119 1403 
Q 1119 906 1312 657 
Q 1506 409 1894 409 
Q 2359 409 2629 706 
Q 2900 1003 2900 1516 
L 2900 3500 
L 3475 3500 
L 3475 0 
L 2900 0 
L 2900 538 
Q 2691 219 2414 64 
Q 2138 -91 1772 -91 
Q 1169 -91 856 284 
Q 544 659 544 1381 
z
M 1991 3584 
L 1991 3584 
z
" transform="scale(0.015625)"/>
     <path id="DejaVuSans-6d" d="M 3328 2828 
Q 3544 3216 3844 3400 
Q 4144 3584 4550 3584 
Q 5097 3584 5394 3201 
Q 5691 2819 5691 2113 
L 5691 0 
L 5113 0 
L 5113 2094 
Q 5113 2597 4934 2840 
Q 4756 3084 4391 3084 
Q 3944 3084 3684 2787 
Q 3425 2491 3425 1978 
L 3425 0 
L 2847 0 
L 2847 2094 
Q 2847 2600 2669 2842 
Q 2491 3084 2119 3084 
Q 1678 3084 1418 2786 
Q 1159 2488 1159 1978 
L 1159 0 
L 581 0 
L 581 3500 
L 1159 3500 
L 1159 2956 
Q 1356 3278 1631 3431 
Q 1906 3584 2284 3584 
Q 2666 3584 2933 3390 
Q 3200 3197 3328 2828 
z
" transform="scale(0.015625)"/>
    </defs>
    <use xlink:href="#DejaVuSans-63"/>
    <use xlink:href="#DejaVuSans-6c" x="54.980469"/>
    <use xlink:href="#DejaVuSans-65" x="82.763672"/>
    <use xlink:href="#DejaVuSans-61" x="144.287109"/>
    <use xlink:href="#DejaVuSans-6e" x="205.566406"/>
    <use xlink:href="#DejaVuSans-65" x="268.945312"/>
    <use xlink:href="#DejaVuSans-64" x="330.46875"/>
    <use xlink:href="#DejaVuSans-5f" x="393.945312"/>
    <use xlink:href="#DejaVuSans-77" x="443.945312"/>
    <use xlink:href="#DejaVuSans-65" x="525.732422"/>
    <use xlink:href="#DejaVuSans-61" x="587.255859"/>
    <use xlink:href="#DejaVuSans-74" x="648.535156"/>
    <use xlink:href="#DejaVuSans-68" x="687.744141"/>
    <use xlink:href="#DejaVuSans-65" x="751.123047"/>
    <use xlink:href="#DejaVuSans-72" x="812.646484"/>
    <use xlink:href="#DejaVuSans-5f" x="853.759766"/>
    <use xlink:href="#DejaVuSans-73" x="903.759766"/>
    <use xlink:href="#DejaVuSans-75" x="955.859375"/>
    <use xlink:href="#DejaVuSans-6d" x="1019.238281"/>
    <use xlink:href="#DejaVuSans-6d" x="1116.650391"/>
    <use xlink:href="#DejaVuSans-65" x="1214.0625"/>
    <use xlink:href="#DejaVuSans-72" x="1275.585938"/>
   </g>
  </g>
 </g>
 <defs>
  <clipPath id="p6318f09f4c">
   <rect x="57.6" y="41.472" width="357.12" height="78.268235"/>
  </clipPath>
  <clipPath id="p771440156f">
   <rect x="57.6" y="135.393882" width="357.12" height="78.268235"/>
  </clipPath>
  <clipPath id="pea538bc150">
   <rect x="57.6" y="229.315765" width="357.12" height="78.268235"/>
  </clipPath>
 </defs>
</svg>
