<?xml version="1.0" encoding="utf-8" standalone="no"?>
<!DOCTYPE svg PUBLIC "-//W3C//DTD SVG 1.1//EN"
  "http://www.w3.org/Graphics/SVG/1.1/DTD/svg11.dtd">
<svg xmlns:xlink="http://www.w3.org/1999/xlink" width="460.8pt" height="345.6pt" viewBox="0 0 460.8 345.6" xmlns="http://www.w3.org/2000/svg" version="1.1">
 <metadata>
  <rdf:RDF xmlns:dc="http://purl.org/dc/elements/1.1/" xmlns:cc="http://creativecommons.org/ns#" xmlns:rdf="http://www.w3.org/1999/02/22-rdf-syntax-ns#">
   <cc:Work>
    <dc:type rdf:resource="http://purl.org/dc/dcmitype/StillImage"/>
    <dc:date>2023-04-08T20:04:26.253998</dc:date>
    <dc:format>image/svg+xml</dc:format>
    <dc:creator>
     <cc:Agent>
      <dc:title>Matplotlib v3.7.1, https://matplotlib.org/</dc:title>
     </cc:Agent>
    </dc:creator>
   </cc:Work>
  </rdf:RDF>
 </metadata>
 <defs>
  <style type="text/css">*{stroke-linejoin: round; stroke-linecap: butt}</style>
 </defs>
 <g id="figure_1">
  <g id="patch_1">
   <path d="M 0 345.6 
L 460.8 345.6 
L 460.8 0 
L 0 0 
z
" style="fill: #ffffff"/>
  </g>
  <g id="axes_1">
   <g id="patch_2">
    <path d="M 57.6 119.740235 
L 414.72 119.740235 
L 414.72 41.472 
L 57.6 41.472 
z
" style="fill: #ffffff"/>
   </g>
   <g id="matplotlib.axis_1">
    <g id="xtick_1">
     <g id="line2d_1">
      <defs>
       <path id="mac493cbff4" d="M 0 0 
L 0 3.5 
" style="stroke: #000000; stroke-width: 0.8"/>
      </defs>
      <g>
       <use xlink:href="#mac493cbff4" x="73.832727" y="119.740235" style="stroke: #000000; stroke-width: 0.8"/>
      </g>
     </g>
     <g id="text_1">
      <!-- 0 -->
      <g transform="translate(70.651477 134.338673) scale(0.1 -0.1)">
       <defs>
        <path id="DejaVuSans-30" d="M 2034 4250 
Q 1547 4250 1301 3770 
Q 1056 3291 1056 2328 
Q 1056 1369 1301 889 
Q 1547 409 2034 409 
Q 2525 409 2770 889 
Q 3016 1369 3016 2328 
Q 3016 3291 2770 3770 
Q 2525 4250 2034 4250 
z
M 2034 4750 
Q 2819 4750 3233 4129 
Q 3647 3509 3647 2328 
Q 3647 1150 3233 529 
Q 2819 -91 2034 -91 
Q 1250 -91 836 529 
Q 422 1150 422 2328 
Q 422 3509 836 4129 
Q 1250 4750 2034 4750 
z
" transform="scale(0.015625)"/>
       </defs>
       <use xlink:href="#DejaVuSans-30"/>
      </g>
     </g>
    </g>
    <g id="xtick_2">
     <g id="line2d_2">
      <g>
       <use xlink:href="#mac493cbff4" x="128.017074" y="119.740235" style="stroke: #000000; stroke-width: 0.8"/>
      </g>
     </g>
     <g id="text_2">
      <!-- 5 -->
      <g transform="translate(124.835824 134.338673) scale(0.1 -0.1)">
       <defs>
        <path id="DejaVuSans-35" d="M 691 4666 
L 3169 4666 
L 3169 4134 
L 1269 4134 
L 1269 2991 
Q 1406 3038 1543 3061 
Q 1681 3084 1819 3084 
Q 2600 3084 3056 2656 
Q 3513 2228 3513 1497 
Q 3513 744 3044 326 
Q 2575 -91 1722 -91 
Q 1428 -91 1123 -41 
Q 819 9 494 109 
L 494 744 
Q 775 591 1075 516 
Q 1375 441 1709 441 
Q 2250 441 2565 725 
Q 2881 1009 2881 1497 
Q 2881 1984 2565 2268 
Q 2250 2553 1709 2553 
Q 1456 2553 1204 2497 
Q 953 2441 691 2322 
L 691 4666 
z
" transform="scale(0.015625)"/>
       </defs>
       <use xlink:href="#DejaVuSans-35"/>
      </g>
     </g>
    </g>
    <g id="xtick_3">
     <g id="line2d_3">
      <g>
       <use xlink:href="#mac493cbff4" x="182.201421" y="119.740235" style="stroke: #000000; stroke-width: 0.8"/>
      </g>
     </g>
     <g id="text_3">
      <!-- 10 -->
      <g transform="translate(175.838921 134.338673) scale(0.1 -0.1)">
       <defs>
        <path id="DejaVuSans-31" d="M 794 531 
L 1825 531 
L 1825 4091 
L 703 3866 
L 703 4441 
L 1819 4666 
L 2450 4666 
L 2450 531 
L 3481 531 
L 3481 0 
L 794 0 
L 794 531 
z
" transform="scale(0.015625)"/>
       </defs>
       <use xlink:href="#DejaVuSans-31"/>
       <use xlink:href="#DejaVuSans-30" x="63.623047"/>
      </g>
     </g>
    </g>
    <g id="xtick_4">
     <g id="line2d_4">
      <g>
       <use xlink:href="#mac493cbff4" x="236.385768" y="119.740235" style="stroke: #000000; stroke-width: 0.8"/>
      </g>
     </g>
     <g id="text_4">
      <!-- 15 -->
      <g transform="translate(230.023268 134.338673) scale(0.1 -0.1)">
       <use xlink:href="#DejaVuSans-31"/>
       <use xlink:href="#DejaVuSans-35" x="63.623047"/>
      </g>
     </g>
    </g>
    <g id="xtick_5">
     <g id="line2d_5">
      <g>
       <use xlink:href="#mac493cbff4" x="290.570115" y="119.740235" style="stroke: #000000; stroke-width: 0.8"/>
      </g>
     </g>
     <g id="text_5">
      <!-- 20 -->
      <g transform="translate(284.207615 134.338673) scale(0.1 -0.1)">
       <defs>
        <path id="DejaVuSans-32" d="M 1228 531 
L 3431 531 
L 3431 0 
L 469 0 
L 469 531 
Q 828 903 1448 1529 
Q 2069 2156 2228 2338 
Q 2531 2678 2651 2914 
Q 2772 3150 2772 3378 
Q 2772 3750 2511 3984 
Q 2250 4219 1831 4219 
Q 1534 4219 1204 4116 
Q 875 4013 500 3803 
L 500 4441 
Q 881 4594 1212 4672 
Q 1544 4750 1819 4750 
Q 2544 4750 2975 4387 
Q 3406 4025 3406 3419 
Q 3406 3131 3298 2873 
Q 3191 2616 2906 2266 
Q 2828 2175 2409 1742 
Q 1991 1309 1228 531 
z
" transform="scale(0.015625)"/>
       </defs>
       <use xlink:href="#DejaVuSans-32"/>
       <use xlink:href="#DejaVuSans-30" x="63.623047"/>
      </g>
     </g>
    </g>
    <g id="xtick_6">
     <g id="line2d_6">
      <g>
       <use xlink:href="#mac493cbff4" x="344.754462" y="119.740235" style="stroke: #000000; stroke-width: 0.8"/>
      </g>
     </g>
     <g id="text_6">
      <!-- 25 -->
      <g transform="translate(338.391962 134.338673) scale(0.1 -0.1)">
       <use xlink:href="#DejaVuSans-32"/>
       <use xlink:href="#DejaVuSans-35" x="63.623047"/>
      </g>
     </g>
    </g>
    <g id="xtick_7">
     <g id="line2d_7">
      <g>
       <use xlink:href="#mac493cbff4" x="398.938809" y="119.740235" style="stroke: #000000; stroke-width: 0.8"/>
      </g>
     </g>
     <g id="text_7">
      <!-- 30 -->
      <g transform="translate(392.576309 134.338673) scale(0.1 -0.1)">
       <defs>
        <path id="DejaVuSans-33" d="M 2597 2516 
Q 3050 2419 3304 2112 
Q 3559 1806 3559 1356 
Q 3559 666 3084 287 
Q 2609 -91 1734 -91 
Q 1441 -91 1130 -33 
Q 819 25 488 141 
L 488 750 
Q 750 597 1062 519 
Q 1375 441 1716 441 
Q 2309 441 2620 675 
Q 2931 909 2931 1356 
Q 2931 1769 2642 2001 
Q 2353 2234 1838 2234 
L 1294 2234 
L 1294 2753 
L 1863 2753 
Q 2328 2753 2575 2939 
Q 2822 3125 2822 3475 
Q 2822 3834 2567 4026 
Q 2313 4219 1838 4219 
Q 1578 4219 1281 4162 
Q 984 4106 628 3988 
L 628 4550 
Q 988 4650 1302 4700 
Q 1616 4750 1894 4750 
Q 2613 4750 3031 4423 
Q 3450 4097 3450 3541 
Q 3450 3153 3228 2886 
Q 3006 2619 2597 2516 
z
" transform="scale(0.015625)"/>
       </defs>
       <use xlink:href="#DejaVuSans-33"/>
       <use xlink:href="#DejaVuSans-30" x="63.623047"/>
      </g>
     </g>
    </g>
   </g>
   <g id="matplotlib.axis_2">
    <g id="ytick_1">
     <g id="line2d_8">
      <defs>
       <path id="m586cf61b7c" d="M 0 0 
L -3.5 0 
" style="stroke: #000000; stroke-width: 0.8"/>
      </defs>
      <g>
       <use xlink:href="#m586cf61b7c" x="57.6" y="106.90177" style="stroke: #000000; stroke-width: 0.8"/>
      </g>
     </g>
     <g id="text_8">
      <!-- 0 -->
      <g transform="translate(44.2375 110.700989) scale(0.1 -0.1)">
       <use xlink:href="#DejaVuSans-30"/>
      </g>
     </g>
    </g>
    <g id="ytick_2">
     <g id="line2d_9">
      <g>
       <use xlink:href="#m586cf61b7c" x="57.6" y="75.965708" style="stroke: #000000; stroke-width: 0.8"/>
      </g>
     </g>
     <g id="text_9">
      <!-- 10 -->
      <g transform="translate(37.875 79.764927) scale(0.1 -0.1)">
       <use xlink:href="#DejaVuSans-31"/>
       <use xlink:href="#DejaVuSans-30" x="63.623047"/>
      </g>
     </g>
    </g>
    <g id="ytick_3">
     <g id="line2d_10">
      <g>
       <use xlink:href="#m586cf61b7c" x="57.6" y="45.029647" style="stroke: #000000; stroke-width: 0.8"/>
      </g>
     </g>
     <g id="text_10">
      <!-- 20 -->
      <g transform="translate(37.875 48.828866) scale(0.1 -0.1)">
       <use xlink:href="#DejaVuSans-32"/>
       <use xlink:href="#DejaVuSans-30" x="63.623047"/>
      </g>
     </g>
    </g>
   </g>
   <g id="line2d_11">
    <path d="M 73.832727 72.872102 
L 74.284263 66.68489 
L 74.7358 63.591284 
L 75.187336 63.591284 
L 76.090408 57.404072 
L 77.445017 66.68489 
L 77.896553 66.68489 
L 78.34809 72.872102 
L 78.799626 75.965708 
L 79.702698 75.965708 
L 80.605771 82.152921 
L 81.508843 75.965708 
L 82.863452 75.965708 
L 83.314988 72.872102 
L 84.21806 72.872102 
L 84.669597 69.778496 
L 85.121133 60.497678 
L 85.572669 57.404072 
L 86.024205 63.591284 
L 86.475742 66.68489 
L 86.927278 72.872102 
L 87.378814 75.965708 
L 87.83035 75.965708 
L 88.281886 79.059315 
L 89.636495 69.778496 
L 90.539568 75.965708 
L 90.991104 75.965708 
L 91.44264 66.68489 
L 92.345712 54.310465 
L 92.797249 51.216859 
L 93.248785 54.310465 
L 93.700321 54.310465 
L 94.151857 57.404072 
L 94.603394 66.68489 
L 95.05493 69.778496 
L 95.506466 69.778496 
L 95.958002 72.872102 
L 96.409539 72.872102 
L 96.861075 69.778496 
L 97.764147 69.778496 
L 99.118756 60.497678 
L 99.570292 54.310465 
L 100.021828 54.310465 
L 100.473365 51.216859 
L 101.376437 51.216859 
L 102.279509 45.029647 
L 102.731046 45.029647 
L 103.182582 48.123253 
L 103.634118 63.591284 
L 104.085654 69.778496 
L 104.537191 72.872102 
L 104.988727 72.872102 
L 105.440263 75.965708 
L 105.891799 66.68489 
L 106.794872 54.310465 
L 107.246408 51.216859 
L 107.697944 54.310465 
L 108.14948 54.310465 
L 108.601017 57.404072 
L 109.052553 66.68489 
L 109.504089 69.778496 
L 110.407161 69.778496 
L 110.858698 72.872102 
L 112.213306 72.872102 
L 113.116379 66.68489 
L 114.470987 75.965708 
L 115.825596 75.965708 
L 116.728669 82.152921 
L 117.180205 63.591284 
L 118.083277 69.778496 
L 118.534814 75.965708 
L 119.437886 82.152921 
L 119.889422 63.591284 
L 120.792495 69.778496 
L 121.244031 63.591284 
L 121.695567 63.591284 
L 122.59864 69.778496 
L 123.050176 63.591284 
L 123.953248 57.404072 
L 125.307857 57.404072 
L 125.759393 60.497678 
L 126.210929 69.778496 
L 127.114002 75.965708 
L 127.565538 75.965708 
L 128.017074 79.059315 
L 128.46861 69.778496 
L 128.920147 66.68489 
L 129.371683 57.404072 
L 130.274755 51.216859 
L 132.0809 63.591284 
L 132.532436 69.778496 
L 133.435509 69.778496 
L 133.887045 72.872102 
L 134.338581 69.778496 
L 134.790118 72.872102 
L 135.69319 66.68489 
L 136.144726 57.404072 
L 137.047799 51.216859 
L 137.499335 54.310465 
L 137.950871 51.216859 
L 139.30548 51.216859 
L 139.757016 54.310465 
L 141.111625 82.152921 
L 141.563161 88.340133 
L 142.014697 91.433739 
L 142.466233 88.340133 
L 142.91777 88.340133 
L 143.369306 85.246527 
L 143.820842 79.059315 
L 144.272378 69.778496 
L 144.723915 63.591284 
L 145.175451 54.310465 
L 145.626987 48.123253 
L 146.078523 48.123253 
L 146.530059 45.029647 
L 146.981596 106.90177 
L 147.884668 106.90177 
L 148.336204 94.527345 
L 149.239277 94.527345 
L 149.690813 97.620951 
L 150.142349 103.808164 
L 150.593885 103.808164 
L 151.045422 106.90177 
L 151.496958 103.808164 
L 151.948494 103.808164 
L 152.40003 106.90177 
L 153.303103 106.90177 
L 153.754639 97.620951 
L 154.206175 97.620951 
L 154.657711 103.808164 
L 156.01232 103.808164 
L 156.463856 106.90177 
L 156.915393 106.90177 
L 157.366929 103.808164 
L 157.818465 106.90177 
L 160.979219 106.90177 
L 161.430755 103.808164 
L 161.882291 106.90177 
L 172.267624 106.90177 
L 172.71916 109.995376 
L 175.879914 109.995376 
L 176.33145 113.088982 
L 177.686059 113.088982 
L 178.137595 116.182588 
L 179.492204 116.182588 
L 179.94374 113.088982 
L 180.395276 116.182588 
L 180.846812 109.995376 
L 182.652957 109.995376 
L 183.55603 103.808164 
L 184.007566 103.808164 
L 184.910639 97.620951 
L 185.362175 97.620951 
L 185.813711 100.714558 
L 186.265247 97.620951 
L 187.619856 97.620951 
L 188.071392 94.527345 
L 189.426001 94.527345 
L 189.877537 97.620951 
L 190.780609 97.620951 
L 191.232146 94.527345 
L 192.135218 94.527345 
L 192.586754 97.620951 
L 193.038291 103.808164 
L 193.489827 106.90177 
L 193.941363 103.808164 
L 194.392899 103.808164 
L 194.844435 106.90177 
L 203.87516 106.90177 
L 204.326696 103.808164 
L 205.229769 103.808164 
L 205.681305 97.620951 
L 206.132841 94.527345 
L 207.48745 94.527345 
L 207.938986 97.620951 
L 208.842058 97.620951 
L 209.293595 94.527345 
L 209.745131 94.527345 
L 210.196667 97.620951 
L 212.905884 97.620951 
L 213.357421 94.527345 
L 213.808957 97.620951 
L 214.260493 94.527345 
L 215.163566 94.527345 
L 215.615102 79.059315 
L 216.066638 82.152921 
L 216.96971 82.152921 
L 217.421247 75.965708 
L 217.872783 75.965708 
L 218.324319 69.778496 
L 218.775855 66.68489 
L 219.678928 66.68489 
L 220.130464 60.497678 
L 220.582 57.404072 
L 221.033536 57.404072 
L 221.485073 63.591284 
L 221.936609 66.68489 
L 222.388145 72.872102 
L 222.839681 75.965708 
L 223.291218 75.965708 
L 223.742754 79.059315 
L 225.097362 69.778496 
L 226.000435 75.965708 
L 226.451971 72.872102 
L 227.80658 72.872102 
L 228.258116 69.778496 
L 228.709652 75.965708 
L 230.064261 75.965708 
L 230.515797 79.059315 
L 231.41887 66.68489 
L 231.870406 63.591284 
L 232.773478 63.591284 
L 233.676551 57.404072 
L 234.579623 63.591284 
L 235.031159 63.591284 
L 235.482696 69.778496 
L 235.934232 82.152921 
L 237.740377 82.152921 
L 238.191913 79.059315 
L 238.643449 82.152921 
L 239.094985 88.340133 
L 239.546522 91.433739 
L 239.998058 91.433739 
L 240.90113 85.246527 
L 241.352667 91.433739 
L 242.255739 91.433739 
L 244.51342 106.90177 
L 244.964956 103.808164 
L 245.416493 106.90177 
L 247.674174 106.90177 
L 248.12571 100.714558 
L 248.577246 106.90177 
L 251.738 106.90177 
L 252.189536 103.808164 
L 252.641072 106.90177 
L 256.253362 106.90177 
L 257.156434 113.088982 
L 257.607971 113.088982 
L 258.059507 109.995376 
L 261.671797 109.995376 
L 262.574869 103.808164 
L 263.477942 103.808164 
L 263.929478 106.90177 
L 264.381014 106.90177 
L 264.83255 109.995376 
L 267.993304 109.995376 
L 268.896376 103.808164 
L 269.347913 103.808164 
L 270.250985 97.620951 
L 270.702521 97.620951 
L 271.154057 100.714558 
L 271.605594 97.620951 
L 272.508666 97.620951 
L 272.960202 103.808164 
L 273.411739 103.808164 
L 273.863275 106.90177 
L 274.314811 103.808164 
L 274.766347 106.90177 
L 275.217883 103.808164 
L 276.120956 103.808164 
L 276.572492 106.90177 
L 283.797072 106.90177 
L 284.248608 75.965708 
L 285.15168 88.340133 
L 285.603217 82.152921 
L 287.409361 82.152921 
L 287.860898 85.246527 
L 288.312434 85.246527 
L 288.76397 91.433739 
L 291.924724 91.433739 
L 292.37626 85.246527 
L 292.827796 75.965708 
L 293.730869 69.778496 
L 294.182405 69.778496 
L 294.633941 66.68489 
L 295.085477 69.778496 
L 295.537014 69.778496 
L 295.98855 72.872102 
L 296.440086 79.059315 
L 296.891622 82.152921 
L 297.794695 75.965708 
L 298.246231 75.965708 
L 298.697767 79.059315 
L 299.60084 79.059315 
L 300.503912 85.246527 
L 301.406984 79.059315 
L 301.858521 72.872102 
L 302.310057 75.965708 
L 303.664666 75.965708 
L 304.116202 72.872102 
L 304.567738 66.68489 
L 305.47081 66.68489 
L 305.922347 72.872102 
L 306.373883 75.965708 
L 307.276955 88.340133 
L 308.180028 88.340133 
L 308.631564 75.965708 
L 309.0831 82.152921 
L 309.986173 75.965708 
L 310.437709 69.778496 
L 310.889245 66.68489 
L 311.792318 66.68489 
L 312.243854 60.497678 
L 312.69539 57.404072 
L 313.598463 57.404072 
L 314.049999 54.310465 
L 314.953071 54.310465 
L 315.404607 57.404072 
L 315.856144 66.68489 
L 316.30768 79.059315 
L 318.113825 91.433739 
L 318.565361 91.433739 
L 319.016897 88.340133 
L 319.468433 82.152921 
L 319.91997 82.152921 
L 320.371506 85.246527 
L 320.823042 85.246527 
L 321.274578 88.340133 
L 321.726115 82.152921 
L 322.177651 85.246527 
L 322.629187 85.246527 
L 323.080723 88.340133 
L 323.532259 88.340133 
L 323.983796 91.433739 
L 324.435332 88.340133 
L 325.338404 88.340133 
L 325.789941 91.433739 
L 326.241477 88.340133 
L 326.693013 91.433739 
L 327.596085 91.433739 
L 328.047622 88.340133 
L 328.499158 88.340133 
L 328.950694 97.620951 
L 329.853767 97.620951 
L 330.305303 100.714558 
L 330.756839 97.620951 
L 331.659911 97.620951 
L 332.111448 94.527345 
L 335.723738 94.527345 
L 336.175274 91.433739 
L 337.529882 91.433739 
L 337.981419 94.527345 
L 338.432955 91.433739 
L 338.884491 91.433739 
L 339.336027 94.527345 
L 340.2391 69.778496 
L 341.142172 69.778496 
L 342.045245 63.591284 
L 345.657534 63.591284 
L 346.109071 66.68489 
L 347.012143 66.68489 
L 347.463679 69.778496 
L 348.366752 69.778496 
L 349.269824 63.591284 
L 350.172897 63.591284 
L 351.075969 75.965708 
L 351.527505 75.965708 
L 352.430578 69.778496 
L 353.33365 82.152921 
L 354.236723 82.152921 
L 354.688259 75.965708 
L 355.139795 72.872102 
L 355.591331 72.872102 
L 356.042868 69.778496 
L 356.494404 75.965708 
L 357.397476 75.965708 
L 357.849013 72.872102 
L 358.300549 75.965708 
L 358.752085 82.152921 
L 359.655157 75.965708 
L 361.009766 85.246527 
L 361.461302 82.152921 
L 362.815911 91.433739 
L 363.267447 97.620951 
L 363.718983 94.527345 
L 364.17052 94.527345 
L 364.622056 91.433739 
L 365.525128 91.433739 
L 365.976665 88.340133 
L 366.428201 69.778496 
L 366.879737 63.591284 
L 367.331273 63.591284 
L 367.782809 54.310465 
L 368.234346 51.216859 
L 368.685882 51.216859 
L 369.137418 48.123253 
L 369.588954 51.216859 
L 370.040491 51.216859 
L 370.492027 54.310465 
L 370.943563 60.497678 
L 371.395099 72.872102 
L 371.846635 69.778496 
L 372.298172 69.778496 
L 372.749708 72.872102 
L 373.201244 69.778496 
L 374.555853 69.778496 
L 375.007389 72.872102 
L 375.458925 79.059315 
L 375.910461 82.152921 
L 376.813534 82.152921 
L 377.716606 88.340133 
L 378.168143 85.246527 
L 378.619679 88.340133 
L 379.071215 88.340133 
L 379.522751 75.965708 
L 379.974288 75.965708 
L 380.425824 82.152921 
L 381.328896 88.340133 
L 382.231969 88.340133 
L 382.683505 91.433739 
L 383.135041 88.340133 
L 384.48965 97.620951 
L 384.941186 103.808164 
L 385.392722 97.620951 
L 385.844258 88.340133 
L 386.295795 82.152921 
L 388.10194 82.152921 
L 388.553476 85.246527 
L 389.005012 79.059315 
L 390.359621 79.059315 
L 390.811157 85.246527 
L 391.262693 97.620951 
L 391.714229 97.620951 
L 392.165766 100.714558 
L 392.617302 97.620951 
L 393.068838 97.620951 
L 393.520374 100.714558 
L 393.97191 88.340133 
L 394.423447 79.059315 
L 394.874983 75.965708 
L 395.326519 75.965708 
L 395.778055 79.059315 
L 397.5842 66.68489 
L 398.035737 60.497678 
L 398.487273 57.404072 
L 398.487273 57.404072 
" clip-path="url(#p5828b3444a)" style="fill: none; stroke: #1f77b4; stroke-width: 1.5; stroke-linecap: square"/>
   </g>
   <g id="patch_3">
    <path d="M 57.6 119.740235 
L 57.6 41.472 
" style="fill: none; stroke: #000000; stroke-width: 0.8; stroke-linejoin: miter; stroke-linecap: square"/>
   </g>
   <g id="patch_4">
    <path d="M 414.72 119.740235 
L 414.72 41.472 
" style="fill: none; stroke: #000000; stroke-width: 0.8; stroke-linejoin: miter; stroke-linecap: square"/>
   </g>
   <g id="patch_5">
    <path d="M 57.6 119.740235 
L 414.72 119.740235 
" style="fill: none; stroke: #000000; stroke-width: 0.8; stroke-linejoin: miter; stroke-linecap: square"/>
   </g>
   <g id="patch_6">
    <path d="M 57.6 41.472 
L 414.72 41.472 
" style="fill: none; stroke: #000000; stroke-width: 0.8; stroke-linejoin: miter; stroke-linecap: square"/>
   </g>
  </g>
  <g id="axes_2">
   <g id="patch_7">
    <path d="M 57.6 213.662118 
L 414.72 213.662118 
L 414.72 135.393882 
L 57.6 135.393882 
z
" style="fill: #ffffff"/>
   </g>
   <g id="matplotlib.axis_3">
    <g id="xtick_8">
     <g id="line2d_12">
      <g>
       <use xlink:href="#mac493cbff4" x="73.832727" y="213.662118" style="stroke: #000000; stroke-width: 0.8"/>
      </g>
     </g>
     <g id="text_11">
      <!-- 0 -->
      <g transform="translate(70.651477 228.260555) scale(0.1 -0.1)">
       <use xlink:href="#DejaVuSans-30"/>
      </g>
     </g>
    </g>
    <g id="xtick_9">
     <g id="line2d_13">
      <g>
       <use xlink:href="#mac493cbff4" x="128.017074" y="213.662118" style="stroke: #000000; stroke-width: 0.8"/>
      </g>
     </g>
     <g id="text_12">
      <!-- 5 -->
      <g transform="translate(124.835824 228.260555) scale(0.1 -0.1)">
       <use xlink:href="#DejaVuSans-35"/>
      </g>
     </g>
    </g>
    <g id="xtick_10">
     <g id="line2d_14">
      <g>
       <use xlink:href="#mac493cbff4" x="182.201421" y="213.662118" style="stroke: #000000; stroke-width: 0.8"/>
      </g>
     </g>
     <g id="text_13">
      <!-- 10 -->
      <g transform="translate(175.838921 228.260555) scale(0.1 -0.1)">
       <use xlink:href="#DejaVuSans-31"/>
       <use xlink:href="#DejaVuSans-30" x="63.623047"/>
      </g>
     </g>
    </g>
    <g id="xtick_11">
     <g id="line2d_15">
      <g>
       <use xlink:href="#mac493cbff4" x="236.385768" y="213.662118" style="stroke: #000000; stroke-width: 0.8"/>
      </g>
     </g>
     <g id="text_14">
      <!-- 15 -->
      <g transform="translate(230.023268 228.260555) scale(0.1 -0.1)">
       <use xlink:href="#DejaVuSans-31"/>
       <use xlink:href="#DejaVuSans-35" x="63.623047"/>
      </g>
     </g>
    </g>
    <g id="xtick_12">
     <g id="line2d_16">
      <g>
       <use xlink:href="#mac493cbff4" x="290.570115" y="213.662118" style="stroke: #000000; stroke-width: 0.8"/>
      </g>
     </g>
     <g id="text_15">
      <!-- 20 -->
      <g transform="translate(284.207615 228.260555) scale(0.1 -0.1)">
       <use xlink:href="#DejaVuSans-32"/>
       <use xlink:href="#DejaVuSans-30" x="63.623047"/>
      </g>
     </g>
    </g>
    <g id="xtick_13">
     <g id="line2d_17">
      <g>
       <use xlink:href="#mac493cbff4" x="344.754462" y="213.662118" style="stroke: #000000; stroke-width: 0.8"/>
      </g>
     </g>
     <g id="text_16">
      <!-- 25 -->
      <g transform="translate(338.391962 228.260555) scale(0.1 -0.1)">
       <use xlink:href="#DejaVuSans-32"/>
       <use xlink:href="#DejaVuSans-35" x="63.623047"/>
      </g>
     </g>
    </g>
    <g id="xtick_14">
     <g id="line2d_18">
      <g>
       <use xlink:href="#mac493cbff4" x="398.938809" y="213.662118" style="stroke: #000000; stroke-width: 0.8"/>
      </g>
     </g>
     <g id="text_17">
      <!-- 30 -->
      <g transform="translate(392.576309 228.260555) scale(0.1 -0.1)">
       <use xlink:href="#DejaVuSans-33"/>
       <use xlink:href="#DejaVuSans-30" x="63.623047"/>
      </g>
     </g>
    </g>
   </g>
   <g id="matplotlib.axis_4">
    <g id="ytick_4">
     <g id="line2d_19">
      <g>
       <use xlink:href="#m586cf61b7c" x="57.6" y="210.104471" style="stroke: #000000; stroke-width: 0.8"/>
      </g>
     </g>
     <g id="text_18">
      <!-- 0 -->
      <g transform="translate(44.2375 213.903689) scale(0.1 -0.1)">
       <use xlink:href="#DejaVuSans-30"/>
      </g>
     </g>
    </g>
    <g id="ytick_5">
     <g id="line2d_20">
      <g>
       <use xlink:href="#m586cf61b7c" x="57.6" y="174.528" style="stroke: #000000; stroke-width: 0.8"/>
      </g>
     </g>
     <g id="text_19">
      <!-- 50 -->
      <g transform="translate(37.875 178.327219) scale(0.1 -0.1)">
       <use xlink:href="#DejaVuSans-35"/>
       <use xlink:href="#DejaVuSans-30" x="63.623047"/>
      </g>
     </g>
    </g>
    <g id="ytick_6">
     <g id="line2d_21">
      <g>
       <use xlink:href="#m586cf61b7c" x="57.6" y="138.951529" style="stroke: #000000; stroke-width: 0.8"/>
      </g>
     </g>
     <g id="text_20">
      <!-- 100 -->
      <g transform="translate(31.5125 142.750748) scale(0.1 -0.1)">
       <use xlink:href="#DejaVuSans-31"/>
       <use xlink:href="#DejaVuSans-30" x="63.623047"/>
       <use xlink:href="#DejaVuSans-30" x="127.246094"/>
      </g>
     </g>
    </g>
   </g>
   <g id="line2d_22">
    <path d="M 73.832727 151.047529 
L 74.7358 163.855059 
L 75.187336 165.278118 
L 75.638872 171.681882 
L 76.090408 175.951059 
L 76.541945 173.104941 
L 77.445017 165.989647 
L 77.896553 158.874353 
L 78.34809 153.893647 
L 78.799626 147.489882 
L 79.251162 143.932235 
L 79.702698 145.355294 
L 80.154234 143.220706 
L 80.605771 139.663059 
L 81.057307 145.355294 
L 81.508843 148.201412 
L 81.960379 147.489882 
L 82.411916 148.201412 
L 83.314988 157.451294 
L 83.766524 156.739765 
L 84.21806 157.451294 
L 84.669597 160.297412 
L 85.121133 170.258824 
L 85.572669 175.951059 
L 86.024205 168.835765 
L 86.927278 162.432 
L 87.378814 153.893647 
L 87.83035 150.336 
L 88.281886 141.797647 
L 88.733423 141.086118 
L 89.184959 143.932235 
L 89.636495 144.643765 
L 90.088031 142.509176 
L 90.539568 141.797647 
L 90.991104 141.797647 
L 91.44264 150.336 
L 91.894176 151.759059 
L 92.345712 158.162824 
L 92.797249 161.720471 
L 93.248785 163.143529 
L 93.700321 161.720471 
L 94.151857 156.739765 
L 94.603394 143.220706 
L 95.05493 140.374588 
L 95.506466 138.951529 
L 95.958002 138.951529 
L 96.409539 139.663059 
L 96.861075 141.086118 
L 97.312611 138.951529 
L 97.764147 139.663059 
L 98.215683 142.509176 
L 98.66722 143.220706 
L 99.118756 148.201412 
L 99.570292 156.739765 
L 100.021828 159.585882 
L 100.473365 161.720471 
L 100.924901 163.143529 
L 101.376437 165.989647 
L 102.279509 175.239529 
L 102.731046 177.374118 
L 103.182582 172.393412 
L 103.634118 155.316706 
L 104.085654 144.643765 
L 104.537191 142.509176 
L 104.988727 142.509176 
L 105.440263 141.797647 
L 105.891799 150.336 
L 106.343335 151.759059 
L 106.794872 158.162824 
L 107.246408 161.720471 
L 107.697944 163.143529 
L 108.14948 161.720471 
L 108.601017 156.739765 
L 109.052553 143.220706 
L 109.504089 140.374588 
L 109.955625 138.951529 
L 111.76177 138.951529 
L 112.213306 139.663059 
L 112.664843 142.509176 
L 113.116379 148.912941 
L 113.567915 145.355294 
L 114.019451 143.932235 
L 114.470987 140.374588 
L 114.922524 143.932235 
L 115.825596 146.778353 
L 116.277132 145.355294 
L 116.728669 144.643765 
L 117.180205 165.989647 
L 117.631741 164.566588 
L 118.534814 149.624471 
L 118.98635 145.355294 
L 119.437886 144.643765 
L 119.889422 165.989647 
L 120.340958 164.566588 
L 120.792495 157.451294 
L 121.244031 165.989647 
L 121.695567 165.989647 
L 122.147103 164.566588 
L 122.59864 157.451294 
L 123.501712 173.816471 
L 123.953248 175.951059 
L 124.404784 178.797176 
L 124.856321 180.220235 
L 125.307857 180.931765 
L 125.759393 178.085647 
L 126.662466 147.489882 
L 127.114002 141.797647 
L 128.017074 140.374588 
L 128.46861 146.778353 
L 129.823219 172.393412 
L 130.274755 174.528 
L 130.726292 173.816471 
L 131.629364 168.124235 
L 132.532436 151.759059 
L 133.435509 146.066824 
L 133.887045 143.932235 
L 134.338581 148.201412 
L 134.790118 144.643765 
L 135.241654 146.778353 
L 136.596262 172.393412 
L 137.047799 174.528 
L 137.499335 173.816471 
L 137.950871 176.662588 
L 138.402407 178.797176 
L 138.853944 178.085647 
L 139.30548 178.797176 
L 139.757016 177.374118 
L 140.208552 172.393412 
L 141.563161 140.374588 
L 142.014697 138.951529 
L 143.369306 138.951529 
L 143.820842 142.509176 
L 145.626987 178.797176 
L 146.078523 179.508706 
L 146.530059 180.931765 
L 146.981596 210.104471 
L 147.884668 210.104471 
L 148.336204 138.951529 
L 158.721537 138.951529 
L 159.173074 139.663059 
L 159.62461 138.951529 
L 172.71916 138.951529 
L 173.170697 139.663059 
L 173.622233 141.086118 
L 174.073769 143.220706 
L 174.525305 139.663059 
L 174.976842 138.951529 
L 182.652957 138.951529 
L 183.104494 141.086118 
L 184.459102 143.220706 
L 184.910639 145.355294 
L 185.362175 146.778353 
L 185.813711 143.220706 
L 186.265247 141.086118 
L 187.16832 141.086118 
L 187.619856 142.509176 
L 188.071392 146.778353 
L 188.522928 148.201412 
L 189.426001 149.624471 
L 189.877537 147.489882 
L 190.780609 146.066824 
L 191.232146 147.489882 
L 191.683682 148.201412 
L 192.135218 150.336 
L 192.586754 149.624471 
L 193.038291 141.086118 
L 193.489827 138.951529 
L 203.87516 138.951529 
L 204.326696 139.663059 
L 204.778232 141.086118 
L 205.229769 141.797647 
L 205.681305 146.066824 
L 206.132841 147.489882 
L 207.48745 149.624471 
L 207.938986 147.489882 
L 208.842058 146.066824 
L 209.293595 147.489882 
L 209.745131 146.066824 
L 210.196667 143.220706 
L 210.648203 141.797647 
L 211.09974 141.797647 
L 212.002812 138.951529 
L 215.163566 138.951529 
L 215.615102 146.778353 
L 216.066638 143.932235 
L 216.518174 143.220706 
L 216.96971 141.086118 
L 217.421247 147.489882 
L 217.872783 148.201412 
L 218.324319 156.028235 
L 218.775855 158.162824 
L 219.678928 161.008941 
L 220.130464 163.855059 
L 220.582 172.393412 
L 221.033536 175.951059 
L 221.485073 168.835765 
L 222.388145 162.432 
L 222.839681 153.893647 
L 223.291218 150.336 
L 223.742754 141.797647 
L 224.19429 141.086118 
L 224.645826 143.932235 
L 225.097362 144.643765 
L 225.548899 142.509176 
L 226.451971 141.086118 
L 226.903507 139.663059 
L 227.80658 139.663059 
L 228.258116 142.509176 
L 228.709652 140.374588 
L 229.161189 143.932235 
L 230.064261 146.778353 
L 230.515797 145.355294 
L 230.967333 151.047529 
L 231.870406 163.855059 
L 232.321942 165.278118 
L 232.773478 165.989647 
L 233.225015 173.816471 
L 233.676551 175.951059 
L 234.128087 173.104941 
L 234.579623 174.528 
L 235.031159 175.239529 
L 235.482696 172.393412 
L 235.934232 153.893647 
L 236.385768 153.182118 
L 236.837304 150.336 
L 237.288841 150.336 
L 237.740377 148.912941 
L 238.191913 150.336 
L 238.643449 149.624471 
L 239.094985 140.374588 
L 239.546522 138.951529 
L 239.998058 138.951529 
L 240.449594 142.509176 
L 240.90113 143.932235 
L 241.352667 139.663059 
L 241.804203 138.951529 
L 257.156434 138.951529 
L 257.607971 139.663059 
L 258.059507 141.086118 
L 258.962579 142.509176 
L 259.414116 140.374588 
L 259.865652 139.663059 
L 260.768724 139.663059 
L 261.22026 138.951529 
L 261.671797 139.663059 
L 262.574869 153.182118 
L 263.026405 154.605176 
L 263.477942 153.182118 
L 263.929478 151.047529 
L 264.381014 147.489882 
L 264.83255 142.509176 
L 266.638695 142.509176 
L 267.090231 140.374588 
L 267.541768 138.951529 
L 267.993304 138.951529 
L 268.44484 141.086118 
L 269.799449 143.220706 
L 270.250985 145.355294 
L 270.702521 146.778353 
L 271.154057 143.220706 
L 271.605594 141.086118 
L 272.508666 141.086118 
L 272.960202 139.663059 
L 273.411739 138.951529 
L 274.766347 138.951529 
L 275.217883 140.374588 
L 275.66942 141.086118 
L 276.120956 141.086118 
L 276.572492 139.663059 
L 277.024028 139.663059 
L 277.475565 138.951529 
L 282.893999 138.951529 
L 283.345535 210.104471 
L 283.797072 210.104471 
L 284.248608 165.278118 
L 284.700144 158.874353 
L 285.15168 148.912941 
L 285.603217 153.182118 
L 286.054753 152.470588 
L 286.506289 153.182118 
L 286.957825 151.047529 
L 287.409361 151.047529 
L 288.312434 149.624471 
L 288.76397 142.509176 
L 291.924724 142.509176 
L 292.827796 157.451294 
L 293.279332 165.989647 
L 293.730869 163.143529 
L 294.182405 165.989647 
L 294.633941 165.989647 
L 295.085477 163.855059 
L 295.98855 147.489882 
L 296.891622 139.663059 
L 297.343158 145.355294 
L 297.794695 148.201412 
L 298.246231 147.489882 
L 298.697767 146.066824 
L 299.149303 143.220706 
L 299.60084 142.509176 
L 300.052376 138.951529 
L 300.503912 138.951529 
L 301.406984 140.374588 
L 301.858521 146.778353 
L 302.761593 141.086118 
L 303.213129 139.663059 
L 303.664666 141.086118 
L 304.567738 161.008941 
L 305.019274 165.989647 
L 305.47081 158.874353 
L 305.922347 153.893647 
L 306.825419 141.086118 
L 307.276955 138.951529 
L 308.180028 138.951529 
L 308.631564 143.932235 
L 309.0831 139.663059 
L 309.534636 145.355294 
L 309.986173 148.201412 
L 310.437709 156.028235 
L 310.889245 158.162824 
L 311.792318 161.008941 
L 312.243854 163.855059 
L 312.69539 172.393412 
L 313.146926 175.951059 
L 313.598463 177.374118 
L 314.049999 180.220235 
L 314.501535 180.931765 
L 314.953071 179.508706 
L 315.404607 176.662588 
L 315.856144 170.970353 
L 316.30768 153.182118 
L 316.759216 146.778353 
L 317.210752 145.355294 
L 317.662289 141.797647 
L 318.113825 139.663059 
L 318.565361 138.951529 
L 326.693013 138.951529 
L 327.144549 140.374588 
L 327.596085 142.509176 
L 328.047622 148.201412 
L 328.499158 147.489882 
L 328.950694 139.663059 
L 329.40223 138.951529 
L 336.62681 138.951529 
L 337.078346 140.374588 
L 337.529882 141.086118 
L 337.981419 139.663059 
L 338.432955 141.086118 
L 338.884491 141.086118 
L 339.336027 139.663059 
L 339.787564 153.182118 
L 340.2391 161.008941 
L 340.690636 163.143529 
L 341.142172 162.432 
L 341.593708 167.412706 
L 342.045245 169.547294 
L 342.948317 169.547294 
L 343.399853 168.124235 
L 343.85139 167.412706 
L 344.302926 168.124235 
L 344.754462 167.412706 
L 345.205998 165.278118 
L 345.657534 164.566588 
L 346.109071 162.432 
L 347.012143 153.182118 
L 347.463679 146.066824 
L 347.915216 144.643765 
L 348.366752 143.932235 
L 349.269824 151.759059 
L 350.172897 154.605176 
L 350.624433 145.355294 
L 351.075969 139.663059 
L 351.527505 138.951529 
L 351.979042 139.663059 
L 352.430578 142.509176 
L 352.882114 140.374588 
L 353.33365 138.951529 
L 354.236723 138.951529 
L 354.688259 141.797647 
L 355.139795 141.086118 
L 355.591331 139.663059 
L 356.042868 142.509176 
L 356.494404 140.374588 
L 356.94594 143.932235 
L 357.397476 142.509176 
L 357.849013 146.066824 
L 358.752085 138.951529 
L 359.203621 144.643765 
L 359.655157 148.201412 
L 360.106694 146.778353 
L 360.55823 143.932235 
L 361.009766 140.374588 
L 361.912839 138.951529 
L 365.525128 138.951529 
L 365.976665 142.509176 
L 366.428201 157.451294 
L 366.879737 165.989647 
L 367.331273 165.989647 
L 367.782809 176.662588 
L 368.234346 180.220235 
L 369.137418 183.066353 
L 369.588954 183.066353 
L 370.040491 182.354824 
L 370.492027 180.931765 
L 370.943563 170.258824 
L 371.395099 153.893647 
L 371.846635 159.585882 
L 372.298172 156.028235 
L 372.749708 153.893647 
L 373.201244 159.585882 
L 373.65278 156.028235 
L 374.104317 155.316706 
L 374.555853 160.297412 
L 375.007389 155.316706 
L 375.458925 148.912941 
L 375.910461 147.489882 
L 376.361998 145.355294 
L 376.813534 140.374588 
L 377.716606 138.951529 
L 379.071215 138.951529 
L 379.522751 143.932235 
L 379.974288 146.066824 
L 380.425824 140.374588 
L 381.328896 138.951529 
L 384.941186 138.951529 
L 385.392722 141.797647 
L 385.844258 149.624471 
L 386.295795 153.893647 
L 386.747331 153.182118 
L 387.198867 150.336 
L 387.650403 150.336 
L 388.10194 148.912941 
L 388.553476 146.778353 
L 389.005012 152.470588 
L 389.908084 153.893647 
L 390.359621 151.047529 
L 391.262693 138.951529 
L 393.520374 138.951529 
L 393.97191 143.932235 
L 394.423447 152.470588 
L 394.874983 153.893647 
L 395.326519 150.336 
L 395.778055 141.797647 
L 396.229592 141.086118 
L 396.681128 143.932235 
L 397.132664 148.201412 
L 397.5842 149.624471 
L 398.035737 155.316706 
L 398.487273 159.585882 
L 398.487273 159.585882 
" clip-path="url(#p33c56d18b6)" style="fill: none; stroke: #1f77b4; stroke-width: 1.5; stroke-linecap: square"/>
   </g>
   <g id="patch_8">
    <path d="M 57.6 213.662118 
L 57.6 135.393882 
" style="fill: none; stroke: #000000; stroke-width: 0.8; stroke-linejoin: miter; stroke-linecap: square"/>
   </g>
   <g id="patch_9">
    <path d="M 414.72 213.662118 
L 414.72 135.393882 
" style="fill: none; stroke: #000000; stroke-width: 0.8; stroke-linejoin: miter; stroke-linecap: square"/>
   </g>
   <g id="patch_10">
    <path d="M 57.6 213.662118 
L 414.72 213.662118 
" style="fill: none; stroke: #000000; stroke-width: 0.8; stroke-linejoin: miter; stroke-linecap: square"/>
   </g>
   <g id="patch_11">
    <path d="M 57.6 135.393882 
L 414.72 135.393882 
" style="fill: none; stroke: #000000; stroke-width: 0.8; stroke-linejoin: miter; stroke-linecap: square"/>
   </g>
  </g>
  <g id="axes_3">
   <g id="patch_12">
    <path d="M 57.6 307.584 
L 414.72 307.584 
L 414.72 229.315765 
L 57.6 229.315765 
z
" style="fill: #ffffff"/>
   </g>
   <g id="matplotlib.axis_5">
    <g id="xtick_15">
     <g id="line2d_23">
      <g>
       <use xlink:href="#mac493cbff4" x="73.832727" y="307.584" style="stroke: #000000; stroke-width: 0.8"/>
      </g>
     </g>
     <g id="text_21">
      <!-- 0 -->
      <g transform="translate(70.651477 322.182437) scale(0.1 -0.1)">
       <use xlink:href="#DejaVuSans-30"/>
      </g>
     </g>
    </g>
    <g id="xtick_16">
     <g id="line2d_24">
      <g>
       <use xlink:href="#mac493cbff4" x="128.017074" y="307.584" style="stroke: #000000; stroke-width: 0.8"/>
      </g>
     </g>
     <g id="text_22">
      <!-- 5 -->
      <g transform="translate(124.835824 322.182437) scale(0.1 -0.1)">
       <use xlink:href="#DejaVuSans-35"/>
      </g>
     </g>
    </g>
    <g id="xtick_17">
     <g id="line2d_25">
      <g>
       <use xlink:href="#mac493cbff4" x="182.201421" y="307.584" style="stroke: #000000; stroke-width: 0.8"/>
      </g>
     </g>
     <g id="text_23">
      <!-- 10 -->
      <g transform="translate(175.838921 322.182437) scale(0.1 -0.1)">
       <use xlink:href="#DejaVuSans-31"/>
       <use xlink:href="#DejaVuSans-30" x="63.623047"/>
      </g>
     </g>
    </g>
    <g id="xtick_18">
     <g id="line2d_26">
      <g>
       <use xlink:href="#mac493cbff4" x="236.385768" y="307.584" style="stroke: #000000; stroke-width: 0.8"/>
      </g>
     </g>
     <g id="text_24">
      <!-- 15 -->
      <g transform="translate(230.023268 322.182437) scale(0.1 -0.1)">
       <use xlink:href="#DejaVuSans-31"/>
       <use xlink:href="#DejaVuSans-35" x="63.623047"/>
      </g>
     </g>
    </g>
    <g id="xtick_19">
     <g id="line2d_27">
      <g>
       <use xlink:href="#mac493cbff4" x="290.570115" y="307.584" style="stroke: #000000; stroke-width: 0.8"/>
      </g>
     </g>
     <g id="text_25">
      <!-- 20 -->
      <g transform="translate(284.207615 322.182437) scale(0.1 -0.1)">
       <use xlink:href="#DejaVuSans-32"/>
       <use xlink:href="#DejaVuSans-30" x="63.623047"/>
      </g>
     </g>
    </g>
    <g id="xtick_20">
     <g id="line2d_28">
      <g>
       <use xlink:href="#mac493cbff4" x="344.754462" y="307.584" style="stroke: #000000; stroke-width: 0.8"/>
      </g>
     </g>
     <g id="text_26">
      <!-- 25 -->
      <g transform="translate(338.391962 322.182437) scale(0.1 -0.1)">
       <use xlink:href="#DejaVuSans-32"/>
       <use xlink:href="#DejaVuSans-35" x="63.623047"/>
      </g>
     </g>
    </g>
    <g id="xtick_21">
     <g id="line2d_29">
      <g>
       <use xlink:href="#mac493cbff4" x="398.938809" y="307.584" style="stroke: #000000; stroke-width: 0.8"/>
      </g>
     </g>
     <g id="text_27">
      <!-- 30 -->
      <g transform="translate(392.576309 322.182437) scale(0.1 -0.1)">
       <use xlink:href="#DejaVuSans-33"/>
       <use xlink:href="#DejaVuSans-30" x="63.623047"/>
      </g>
     </g>
    </g>
   </g>
   <g id="matplotlib.axis_6">
    <g id="ytick_7">
     <g id="line2d_30">
      <g>
       <use xlink:href="#m586cf61b7c" x="57.6" y="304.026353" style="stroke: #000000; stroke-width: 0.8"/>
      </g>
     </g>
     <g id="text_28">
      <!-- 0 -->
      <g transform="translate(44.2375 307.825572) scale(0.1 -0.1)">
       <use xlink:href="#DejaVuSans-30"/>
      </g>
     </g>
    </g>
    <g id="ytick_8">
     <g id="line2d_31">
      <g>
       <use xlink:href="#m586cf61b7c" x="57.6" y="268.449882" style="stroke: #000000; stroke-width: 0.8"/>
      </g>
     </g>
     <g id="text_29">
      <!-- 1 -->
      <g transform="translate(44.2375 272.249101) scale(0.1 -0.1)">
       <use xlink:href="#DejaVuSans-31"/>
      </g>
     </g>
    </g>
    <g id="ytick_9">
     <g id="line2d_32">
      <g>
       <use xlink:href="#m586cf61b7c" x="57.6" y="232.873412" style="stroke: #000000; stroke-width: 0.8"/>
      </g>
     </g>
     <g id="text_30">
      <!-- 2 -->
      <g transform="translate(44.2375 236.672631) scale(0.1 -0.1)">
       <use xlink:href="#DejaVuSans-32"/>
      </g>
     </g>
    </g>
   </g>
   <g id="line2d_33">
    <path d="M 73.832727 304.026353 
L 87.83035 304.026353 
L 88.281886 232.873412 
L 88.733423 304.026353 
L 166.397653 304.026353 
L 166.84919 268.449882 
L 167.300726 304.026353 
L 223.291218 304.026353 
L 223.742754 232.873412 
L 224.19429 304.026353 
L 253.544145 304.026353 
L 253.995681 268.449882 
L 254.447217 268.449882 
L 254.898753 304.026353 
L 302.310057 304.026353 
L 302.761593 268.449882 
L 303.213129 304.026353 
L 333.01452 304.026353 
L 333.466056 268.449882 
L 333.917593 304.026353 
L 334.369129 268.449882 
L 334.820665 304.026353 
L 395.326519 304.026353 
L 395.778055 232.873412 
L 396.229592 304.026353 
L 398.487273 304.026353 
L 398.487273 304.026353 
" clip-path="url(#pef0d8c9d27)" style="fill: none; stroke: #1f77b4; stroke-width: 1.5; stroke-linecap: square"/>
   </g>
   <g id="patch_13">
    <path d="M 57.6 307.584 
L 57.6 229.315765 
" style="fill: none; stroke: #000000; stroke-width: 0.8; stroke-linejoin: miter; stroke-linecap: square"/>
   </g>
   <g id="patch_14">
    <path d="M 414.72 307.584 
L 414.72 229.315765 
" style="fill: none; stroke: #000000; stroke-width: 0.8; stroke-linejoin: miter; stroke-linecap: square"/>
   </g>
   <g id="patch_15">
    <path d="M 57.6 307.584 
L 414.72 307.584 
" style="fill: none; stroke: #000000; stroke-width: 0.8; stroke-linejoin: miter; stroke-linecap: square"/>
   </g>
   <g id="patch_16">
    <path d="M 57.6 229.315765 
L 414.72 229.315765 
" style="fill: none; stroke: #000000; stroke-width: 0.8; stroke-linejoin: miter; stroke-linecap: square"/>
   </g>
  </g>
  <g id="text_31">
   <!-- cleaned_weather_fall -->
   <g transform="translate(167.050313 16.030125) scale(0.12 -0.12)">
    <defs>
     <path id="DejaVuSans-63" d="M 3122 3366 
L 3122 2828 
Q 2878 2963 2633 3030 
Q 2388 3097 2138 3097 
Q 1578 3097 1268 2742 
Q 959 2388 959 1747 
Q 959 1106 1268 751 
Q 1578 397 2138 397 
Q 2388 397 2633 464 
Q 2878 531 3122 666 
L 3122 134 
Q 2881 22 2623 -34 
Q 2366 -91 2075 -91 
Q 1284 -91 818 406 
Q 353 903 353 1747 
Q 353 2603 823 3093 
Q 1294 3584 2113 3584 
Q 2378 3584 2631 3529 
Q 2884 3475 3122 3366 
z
" transform="scale(0.015625)"/>
     <path id="DejaVuSans-6c" d="M 603 4863 
L 1178 4863 
L 1178 0 
L 603 0 
L 603 4863 
z
" transform="scale(0.015625)"/>
     <path id="DejaVuSans-65" d="M 3597 1894 
L 3597 1613 
L 953 1613 
Q 991 1019 1311 708 
Q 1631 397 2203 397 
Q 2534 397 2845 478 
Q 3156 559 3463 722 
L 3463 178 
Q 3153 47 2828 -22 
Q 2503 -91 2169 -91 
Q 1331 -91 842 396 
Q 353 884 353 1716 
Q 353 2575 817 3079 
Q 1281 3584 2069 3584 
Q 2775 3584 3186 3129 
Q 3597 2675 3597 1894 
z
M 3022 2063 
Q 3016 2534 2758 2815 
Q 2500 3097 2075 3097 
Q 1594 3097 1305 2825 
Q 1016 2553 972 2059 
L 3022 2063 
z
" transform="scale(0.015625)"/>
     <path id="DejaVuSans-61" d="M 2194 1759 
Q 1497 1759 1228 1600 
Q 959 1441 959 1056 
Q 959 750 1161 570 
Q 1363 391 1709 391 
Q 2188 391 2477 730 
Q 2766 1069 2766 1631 
L 2766 1759 
L 2194 1759 
z
M 3341 1997 
L 3341 0 
L 2766 0 
L 2766 531 
Q 2569 213 2275 61 
Q 1981 -91 1556 -91 
Q 1019 -91 701 211 
Q 384 513 384 1019 
Q 384 1609 779 1909 
Q 1175 2209 1959 2209 
L 2766 2209 
L 2766 2266 
Q 2766 2663 2505 2880 
Q 2244 3097 1772 3097 
Q 1472 3097 1187 3025 
Q 903 2953 641 2809 
L 641 3341 
Q 956 3463 1253 3523 
Q 1550 3584 1831 3584 
Q 2591 3584 2966 3190 
Q 3341 2797 3341 1997 
z
" transform="scale(0.015625)"/>
     <path id="DejaVuSans-6e" d="M 3513 2113 
L 3513 0 
L 2938 0 
L 2938 2094 
Q 2938 2591 2744 2837 
Q 2550 3084 2163 3084 
Q 1697 3084 1428 2787 
Q 1159 2491 1159 1978 
L 1159 0 
L 581 0 
L 581 3500 
L 1159 3500 
L 1159 2956 
Q 1366 3272 1645 3428 
Q 1925 3584 2291 3584 
Q 2894 3584 3203 3211 
Q 3513 2838 3513 2113 
z
" transform="scale(0.015625)"/>
     <path id="DejaVuSans-64" d="M 2906 2969 
L 2906 4863 
L 3481 4863 
L 3481 0 
L 2906 0 
L 2906 525 
Q 2725 213 2448 61 
Q 2172 -91 1784 -91 
Q 1150 -91 751 415 
Q 353 922 353 1747 
Q 353 2572 751 3078 
Q 1150 3584 1784 3584 
Q 2172 3584 2448 3432 
Q 2725 3281 2906 2969 
z
M 947 1747 
Q 947 1113 1208 752 
Q 1469 391 1925 391 
Q 2381 391 2643 752 
Q 2906 1113 2906 1747 
Q 2906 2381 2643 2742 
Q 2381 3103 1925 3103 
Q 1469 3103 1208 2742 
Q 947 2381 947 1747 
z
" transform="scale(0.015625)"/>
     <path id="DejaVuSans-5f" d="M 3263 -1063 
L 3263 -1509 
L -63 -1509 
L -63 -1063 
L 3263 -1063 
z
" transform="scale(0.015625)"/>
     <path id="DejaVuSans-77" d="M 269 3500 
L 844 3500 
L 1563 769 
L 2278 3500 
L 2956 3500 
L 3675 769 
L 4391 3500 
L 4966 3500 
L 4050 0 
L 3372 0 
L 2619 2869 
L 1863 0 
L 1184 0 
L 269 3500 
z
" transform="scale(0.015625)"/>
     <path id="DejaVuSans-74" d="M 1172 4494 
L 1172 3500 
L 2356 3500 
L 2356 3053 
L 1172 3053 
L 1172 1153 
Q 1172 725 1289 603 
Q 1406 481 1766 481 
L 2356 481 
L 2356 0 
L 1766 0 
Q 1100 0 847 248 
Q 594 497 594 1153 
L 594 3053 
L 172 3053 
L 172 3500 
L 594 3500 
L 594 4494 
L 1172 4494 
z
" transform="scale(0.015625)"/>
     <path id="DejaVuSans-68" d="M 3513 2113 
L 3513 0 
L 2938 0 
L 2938 2094 
Q 2938 2591 2744 2837 
Q 2550 3084 2163 3084 
Q 1697 3084 1428 2787 
Q 1159 2491 1159 1978 
L 1159 0 
L 581 0 
L 581 4863 
L 1159 4863 
L 1159 2956 
Q 1366 3272 1645 3428 
Q 1925 3584 2291 3584 
Q 2894 3584 3203 3211 
Q 3513 2838 3513 2113 
z
" transform="scale(0.015625)"/>
     <path id="DejaVuSans-72" d="M 2631 2963 
Q 2534 3019 2420 3045 
Q 2306 3072 2169 3072 
Q 1681 3072 1420 2755 
Q 1159 2438 1159 1844 
L 1159 0 
L 581 0 
L 581 3500 
L 1159 3500 
L 1159 2956 
Q 1341 3275 1631 3429 
Q 1922 3584 2338 3584 
Q 2397 3584 2469 3576 
Q 2541 3569 2628 3553 
L 2631 2963 
z
" transform="scale(0.015625)"/>
     <path id="DejaVuSans-66" d="M 2375 4863 
L 2375 4384 
L 1825 4384 
Q 1516 4384 1395 4259 
Q 1275 4134 1275 3809 
L 1275 3500 
L 2222 3500 
L 2222 3053 
L 1275 3053 
L 1275 0 
L 697 0 
L 697 3053 
L 147 3053 
L 147 3500 
L 697 3500 
L 697 3744 
Q 697 4328 969 4595 
Q 1241 4863 1831 4863 
L 2375 4863 
z
" transform="scale(0.015625)"/>
    </defs>
    <use xlink:href="#DejaVuSans-63"/>
    <use xlink:href="#DejaVuSans-6c" x="54.980469"/>
    <use xlink:href="#DejaVuSans-65" x="82.763672"/>
    <use xlink:href="#DejaVuSans-61" x="144.287109"/>
    <use xlink:href="#DejaVuSans-6e" x="205.566406"/>
    <use xlink:href="#DejaVuSans-65" x="268.945312"/>
    <use xlink:href="#DejaVuSans-64" x="330.46875"/>
    <use xlink:href="#DejaVuSans-5f" x="393.945312"/>
    <use xlink:href="#DejaVuSans-77" x="443.945312"/>
    <use xlink:href="#DejaVuSans-65" x="525.732422"/>
    <use xlink:href="#DejaVuSans-61" x="587.255859"/>
    <use xlink:href="#DejaVuSans-74" x="648.535156"/>
    <use xlink:href="#DejaVuSans-68" x="687.744141"/>
    <use xlink:href="#DejaVuSans-65" x="751.123047"/>
    <use xlink:href="#DejaVuSans-72" x="812.646484"/>
    <use xlink:href="#DejaVuSans-5f" x="853.759766"/>
    <use xlink:href="#DejaVuSans-66" x="903.759766"/>
    <use xlink:href="#DejaVuSans-61" x="938.964844"/>
    <use xlink:href="#DejaVuSans-6c" x="1000.244141"/>
    <use xlink:href="#DejaVuSans-6c" x="1028.027344"/>
   </g>
  </g>
 </g>
 <defs>
  <clipPath id="p5828b3444a">
   <rect x="57.6" y="41.472" width="357.12" height="78.268235"/>
  </clipPath>
  <clipPath id="p33c56d18b6">
   <rect x="57.6" y="135.393882" width="357.12" height="78.268235"/>
  </clipPath>
  <clipPath id="pef0d8c9d27">
   <rect x="57.6" y="229.315765" width="357.12" height="78.268235"/>
  </clipPath>
 </defs>
</svg>
