<?xml version="1.0" encoding="utf-8" standalone="no"?>
<!DOCTYPE svg PUBLIC "-//W3C//DTD SVG 1.1//EN"
  "http://www.w3.org/Graphics/SVG/1.1/DTD/svg11.dtd">
<svg xmlns:xlink="http://www.w3.org/1999/xlink" width="460.8pt" height="345.6pt" viewBox="0 0 460.8 345.6" xmlns="http://www.w3.org/2000/svg" version="1.1">
 <metadata>
  <rdf:RDF xmlns:dc="http://purl.org/dc/elements/1.1/" xmlns:cc="http://creativecommons.org/ns#" xmlns:rdf="http://www.w3.org/1999/02/22-rdf-syntax-ns#">
   <cc:Work>
    <dc:type rdf:resource="http://purl.org/dc/dcmitype/StillImage"/>
    <dc:date>2023-03-02T15:27:56.005157</dc:date>
    <dc:format>image/svg+xml</dc:format>
    <dc:creator>
     <cc:Agent>
      <dc:title>Matplotlib v3.6.3, https://matplotlib.org/</dc:title>
     </cc:Agent>
    </dc:creator>
   </cc:Work>
  </rdf:RDF>
 </metadata>
 <defs>
  <style type="text/css">*{stroke-linejoin: round; stroke-linecap: butt}</style>
 </defs>
 <g id="figure_1">
  <g id="patch_1">
   <path d="M 0 345.6 
L 460.8 345.6 
L 460.8 0 
L 0 0 
z
" style="fill: #ffffff"/>
  </g>
  <g id="axes_1">
   <g id="patch_2">
    <path d="M 57.6 119.740235 
L 414.72 119.740235 
L 414.72 41.472 
L 57.6 41.472 
z
" style="fill: #ffffff"/>
   </g>
   <g id="matplotlib.axis_1">
    <g id="xtick_1">
     <g id="line2d_1">
      <defs>
       <path id="mbd993fe0ae" d="M 0 0 
L 0 3.5 
" style="stroke: #000000; stroke-width: 0.8"/>
      </defs>
      <g>
       <use xlink:href="#mbd993fe0ae" x="73.832727" y="119.740235" style="stroke: #000000; stroke-width: 0.8"/>
      </g>
     </g>
     <g id="text_1">
      <!-- 0 -->
      <g transform="translate(70.651477 134.338673) scale(0.1 -0.1)">
       <defs>
        <path id="DejaVuSans-30" d="M 2034 4250 
Q 1547 4250 1301 3770 
Q 1056 3291 1056 2328 
Q 1056 1369 1301 889 
Q 1547 409 2034 409 
Q 2525 409 2770 889 
Q 3016 1369 3016 2328 
Q 3016 3291 2770 3770 
Q 2525 4250 2034 4250 
z
M 2034 4750 
Q 2819 4750 3233 4129 
Q 3647 3509 3647 2328 
Q 3647 1150 3233 529 
Q 2819 -91 2034 -91 
Q 1250 -91 836 529 
Q 422 1150 422 2328 
Q 422 3509 836 4129 
Q 1250 4750 2034 4750 
z
" transform="scale(0.015625)"/>
       </defs>
       <use xlink:href="#DejaVuSans-30"/>
      </g>
     </g>
    </g>
    <g id="xtick_2">
     <g id="line2d_2">
      <g>
       <use xlink:href="#mbd993fe0ae" x="128.017074" y="119.740235" style="stroke: #000000; stroke-width: 0.8"/>
      </g>
     </g>
     <g id="text_2">
      <!-- 5 -->
      <g transform="translate(124.835824 134.338673) scale(0.1 -0.1)">
       <defs>
        <path id="DejaVuSans-35" d="M 691 4666 
L 3169 4666 
L 3169 4134 
L 1269 4134 
L 1269 2991 
Q 1406 3038 1543 3061 
Q 1681 3084 1819 3084 
Q 2600 3084 3056 2656 
Q 3513 2228 3513 1497 
Q 3513 744 3044 326 
Q 2575 -91 1722 -91 
Q 1428 -91 1123 -41 
Q 819 9 494 109 
L 494 744 
Q 775 591 1075 516 
Q 1375 441 1709 441 
Q 2250 441 2565 725 
Q 2881 1009 2881 1497 
Q 2881 1984 2565 2268 
Q 2250 2553 1709 2553 
Q 1456 2553 1204 2497 
Q 953 2441 691 2322 
L 691 4666 
z
" transform="scale(0.015625)"/>
       </defs>
       <use xlink:href="#DejaVuSans-35"/>
      </g>
     </g>
    </g>
    <g id="xtick_3">
     <g id="line2d_3">
      <g>
       <use xlink:href="#mbd993fe0ae" x="182.201421" y="119.740235" style="stroke: #000000; stroke-width: 0.8"/>
      </g>
     </g>
     <g id="text_3">
      <!-- 10 -->
      <g transform="translate(175.838921 134.338673) scale(0.1 -0.1)">
       <defs>
        <path id="DejaVuSans-31" d="M 794 531 
L 1825 531 
L 1825 4091 
L 703 3866 
L 703 4441 
L 1819 4666 
L 2450 4666 
L 2450 531 
L 3481 531 
L 3481 0 
L 794 0 
L 794 531 
z
" transform="scale(0.015625)"/>
       </defs>
       <use xlink:href="#DejaVuSans-31"/>
       <use xlink:href="#DejaVuSans-30" x="63.623047"/>
      </g>
     </g>
    </g>
    <g id="xtick_4">
     <g id="line2d_4">
      <g>
       <use xlink:href="#mbd993fe0ae" x="236.385768" y="119.740235" style="stroke: #000000; stroke-width: 0.8"/>
      </g>
     </g>
     <g id="text_4">
      <!-- 15 -->
      <g transform="translate(230.023268 134.338673) scale(0.1 -0.1)">
       <use xlink:href="#DejaVuSans-31"/>
       <use xlink:href="#DejaVuSans-35" x="63.623047"/>
      </g>
     </g>
    </g>
    <g id="xtick_5">
     <g id="line2d_5">
      <g>
       <use xlink:href="#mbd993fe0ae" x="290.570115" y="119.740235" style="stroke: #000000; stroke-width: 0.8"/>
      </g>
     </g>
     <g id="text_5">
      <!-- 20 -->
      <g transform="translate(284.207615 134.338673) scale(0.1 -0.1)">
       <defs>
        <path id="DejaVuSans-32" d="M 1228 531 
L 3431 531 
L 3431 0 
L 469 0 
L 469 531 
Q 828 903 1448 1529 
Q 2069 2156 2228 2338 
Q 2531 2678 2651 2914 
Q 2772 3150 2772 3378 
Q 2772 3750 2511 3984 
Q 2250 4219 1831 4219 
Q 1534 4219 1204 4116 
Q 875 4013 500 3803 
L 500 4441 
Q 881 4594 1212 4672 
Q 1544 4750 1819 4750 
Q 2544 4750 2975 4387 
Q 3406 4025 3406 3419 
Q 3406 3131 3298 2873 
Q 3191 2616 2906 2266 
Q 2828 2175 2409 1742 
Q 1991 1309 1228 531 
z
" transform="scale(0.015625)"/>
       </defs>
       <use xlink:href="#DejaVuSans-32"/>
       <use xlink:href="#DejaVuSans-30" x="63.623047"/>
      </g>
     </g>
    </g>
    <g id="xtick_6">
     <g id="line2d_6">
      <g>
       <use xlink:href="#mbd993fe0ae" x="344.754462" y="119.740235" style="stroke: #000000; stroke-width: 0.8"/>
      </g>
     </g>
     <g id="text_6">
      <!-- 25 -->
      <g transform="translate(338.391962 134.338673) scale(0.1 -0.1)">
       <use xlink:href="#DejaVuSans-32"/>
       <use xlink:href="#DejaVuSans-35" x="63.623047"/>
      </g>
     </g>
    </g>
    <g id="xtick_7">
     <g id="line2d_7">
      <g>
       <use xlink:href="#mbd993fe0ae" x="398.938809" y="119.740235" style="stroke: #000000; stroke-width: 0.8"/>
      </g>
     </g>
     <g id="text_7">
      <!-- 30 -->
      <g transform="translate(392.576309 134.338673) scale(0.1 -0.1)">
       <defs>
        <path id="DejaVuSans-33" d="M 2597 2516 
Q 3050 2419 3304 2112 
Q 3559 1806 3559 1356 
Q 3559 666 3084 287 
Q 2609 -91 1734 -91 
Q 1441 -91 1130 -33 
Q 819 25 488 141 
L 488 750 
Q 750 597 1062 519 
Q 1375 441 1716 441 
Q 2309 441 2620 675 
Q 2931 909 2931 1356 
Q 2931 1769 2642 2001 
Q 2353 2234 1838 2234 
L 1294 2234 
L 1294 2753 
L 1863 2753 
Q 2328 2753 2575 2939 
Q 2822 3125 2822 3475 
Q 2822 3834 2567 4026 
Q 2313 4219 1838 4219 
Q 1578 4219 1281 4162 
Q 984 4106 628 3988 
L 628 4550 
Q 988 4650 1302 4700 
Q 1616 4750 1894 4750 
Q 2613 4750 3031 4423 
Q 3450 4097 3450 3541 
Q 3450 3153 3228 2886 
Q 3006 2619 2597 2516 
z
" transform="scale(0.015625)"/>
       </defs>
       <use xlink:href="#DejaVuSans-33"/>
       <use xlink:href="#DejaVuSans-30" x="63.623047"/>
      </g>
     </g>
    </g>
   </g>
   <g id="matplotlib.axis_2">
    <g id="ytick_1">
     <g id="line2d_8">
      <defs>
       <path id="m59f095843f" d="M 0 0 
L -3.5 0 
" style="stroke: #000000; stroke-width: 0.8"/>
      </defs>
      <g>
       <use xlink:href="#m59f095843f" x="57.6" y="116.182588" style="stroke: #000000; stroke-width: 0.8"/>
      </g>
     </g>
     <g id="text_8">
      <!-- 0 -->
      <g transform="translate(44.2375 119.981807) scale(0.1 -0.1)">
       <use xlink:href="#DejaVuSans-30"/>
      </g>
     </g>
    </g>
    <g id="ytick_2">
     <g id="line2d_9">
      <g>
       <use xlink:href="#m59f095843f" x="57.6" y="70.277465" style="stroke: #000000; stroke-width: 0.8"/>
      </g>
     </g>
     <g id="text_9">
      <!-- 20 -->
      <g transform="translate(37.875 74.076684) scale(0.1 -0.1)">
       <use xlink:href="#DejaVuSans-32"/>
       <use xlink:href="#DejaVuSans-30" x="63.623047"/>
      </g>
     </g>
    </g>
   </g>
   <g id="line2d_10">
    <path d="M 73.832727 90.93477 
L 74.7358 90.93477 
L 75.187336 88.639514 
L 76.090408 93.230027 
L 76.993481 93.230027 
L 77.445017 116.182588 
L 77.896553 47.324903 
L 78.34809 49.620159 
L 78.799626 49.620159 
L 79.251162 51.915416 
L 79.702698 51.915416 
L 80.154234 58.801184 
L 80.605771 63.391696 
L 81.057307 58.801184 
L 81.508843 56.505928 
L 82.411916 56.505928 
L 82.863452 54.210672 
L 83.314988 65.686953 
L 83.766524 63.391696 
L 84.669597 72.572721 
L 85.121133 70.277465 
L 85.572669 77.163233 
L 86.927278 84.049002 
L 87.378814 84.049002 
L 87.83035 79.45849 
L 88.281886 81.753746 
L 89.636495 95.525283 
L 93.248785 95.525283 
L 93.700321 97.820539 
L 94.603394 97.820539 
L 95.05493 102.411051 
L 95.958002 102.411051 
L 96.409539 100.115795 
L 96.861075 88.639514 
L 97.312611 86.344258 
L 97.764147 81.753746 
L 98.215683 81.753746 
L 98.66722 86.344258 
L 99.118756 86.344258 
L 99.570292 90.93477 
L 100.021828 86.344258 
L 100.924901 90.93477 
L 101.376437 90.93477 
L 101.827973 88.639514 
L 102.279509 88.639514 
L 102.731046 86.344258 
L 103.634118 86.344258 
L 104.085654 77.163233 
L 104.537191 81.753746 
L 104.988727 77.163233 
L 105.440263 74.867977 
L 105.891799 77.163233 
L 106.343335 74.867977 
L 106.794872 81.753746 
L 108.601017 90.93477 
L 109.955625 90.93477 
L 110.407161 93.230027 
L 110.858698 90.93477 
L 111.76177 90.93477 
L 112.213306 88.639514 
L 113.116379 93.230027 
L 114.019451 93.230027 
L 114.470987 97.820539 
L 115.37406 102.411051 
L 115.825596 100.115795 
L 116.277132 102.411051 
L 116.728669 100.115795 
L 118.534814 109.29682 
L 119.437886 109.29682 
L 119.889422 107.001564 
L 120.340958 107.001564 
L 120.792495 109.29682 
L 122.59864 109.29682 
L 123.050176 111.592076 
L 123.501712 111.592076 
L 123.953248 109.29682 
L 124.404784 109.29682 
L 124.856321 111.592076 
L 125.307857 109.29682 
L 125.759393 111.592076 
L 126.210929 109.29682 
L 126.662466 109.29682 
L 127.114002 111.592076 
L 128.017074 107.001564 
L 128.920147 107.001564 
L 129.371683 102.411051 
L 130.274755 107.001564 
L 130.726292 107.001564 
L 131.177828 109.29682 
L 131.629364 102.411051 
L 132.0809 88.639514 
L 132.532436 90.93477 
L 132.983973 81.753746 
L 133.435509 77.163233 
L 133.887045 81.753746 
L 134.790118 77.163233 
L 135.69319 77.163233 
L 137.047799 84.049002 
L 137.499335 90.93477 
L 137.950871 93.230027 
L 138.402407 93.230027 
L 139.30548 72.572721 
L 139.757016 77.163233 
L 140.208552 79.45849 
L 141.111625 74.867977 
L 141.563161 70.277465 
L 142.466233 70.277465 
L 142.91777 74.867977 
L 143.369306 77.163233 
L 144.272378 86.344258 
L 144.723915 88.639514 
L 145.175451 86.344258 
L 145.626987 88.639514 
L 146.078523 95.525283 
L 146.530059 97.820539 
L 146.981596 86.344258 
L 147.433132 90.93477 
L 147.884668 90.93477 
L 149.239277 77.163233 
L 150.142349 77.163233 
L 150.593885 81.753746 
L 151.045422 79.45849 
L 151.496958 74.867977 
L 151.948494 77.163233 
L 152.40003 86.344258 
L 152.851567 90.93477 
L 153.303103 93.230027 
L 154.657711 72.572721 
L 155.109248 67.982209 
L 156.01232 63.391696 
L 156.915393 63.391696 
L 157.818465 58.801184 
L 158.270001 63.391696 
L 158.721537 72.572721 
L 159.173074 74.867977 
L 160.076146 70.277465 
L 160.527682 70.277465 
L 161.430755 79.45849 
L 161.882291 77.163233 
L 162.333827 84.049002 
L 162.785364 86.344258 
L 163.2369 86.344258 
L 163.688436 84.049002 
L 164.139972 77.163233 
L 164.591508 74.867977 
L 165.043045 81.753746 
L 165.494581 84.049002 
L 165.946117 84.049002 
L 166.397653 81.753746 
L 166.84919 84.049002 
L 167.752262 84.049002 
L 168.203798 77.163233 
L 168.655334 72.572721 
L 169.558407 54.210672 
L 170.461479 54.210672 
L 170.913016 116.182588 
L 171.816088 116.182588 
L 172.267624 90.93477 
L 173.170697 86.344258 
L 174.073769 86.344258 
L 174.976842 81.753746 
L 175.428378 84.049002 
L 175.879914 79.45849 
L 176.33145 81.753746 
L 177.234523 72.572721 
L 177.686059 77.163233 
L 178.137595 72.572721 
L 179.94374 81.753746 
L 180.395276 79.45849 
L 180.846812 84.049002 
L 181.298349 84.049002 
L 181.749885 86.344258 
L 183.104494 86.344258 
L 183.55603 77.163233 
L 184.007566 72.572721 
L 184.459102 70.277465 
L 184.910639 65.686953 
L 185.362175 63.391696 
L 185.813711 65.686953 
L 186.265247 70.277465 
L 186.716783 65.686953 
L 187.16832 65.686953 
L 188.071392 61.09644 
L 188.522928 56.505928 
L 188.974465 47.324903 
L 190.329073 47.324903 
L 190.780609 51.915416 
L 191.232146 51.915416 
L 191.683682 49.620159 
L 192.135218 49.620159 
L 193.038291 54.210672 
L 193.489827 63.391696 
L 193.941363 63.391696 
L 194.392899 70.277465 
L 194.844435 74.867977 
L 195.747508 79.45849 
L 196.65058 79.45849 
L 197.102117 70.277465 
L 197.553653 70.277465 
L 198.005189 65.686953 
L 198.456725 63.391696 
L 199.811334 63.391696 
L 200.26287 65.686953 
L 200.714406 74.867977 
L 201.165943 77.163233 
L 201.617479 72.572721 
L 203.423624 63.391696 
L 204.326696 63.391696 
L 205.229769 72.572721 
L 206.132841 86.344258 
L 207.035914 86.344258 
L 207.48745 79.45849 
L 208.390522 79.45849 
L 208.842058 72.572721 
L 209.293595 70.277465 
L 209.745131 70.277465 
L 210.196667 61.09644 
L 210.648203 56.505928 
L 211.09974 58.801184 
L 211.551276 56.505928 
L 212.002812 56.505928 
L 212.454348 54.210672 
L 212.905884 63.391696 
L 213.357421 61.09644 
L 213.808957 61.09644 
L 214.260493 56.505928 
L 214.712029 54.210672 
L 215.163566 116.182588 
L 215.615102 54.210672 
L 216.066638 49.620159 
L 217.872783 49.620159 
L 218.324319 54.210672 
L 218.775855 49.620159 
L 219.227392 51.915416 
L 219.678928 51.915416 
L 220.130464 54.210672 
L 221.485073 47.324903 
L 221.936609 51.915416 
L 222.388145 51.915416 
L 222.839681 54.210672 
L 223.291218 63.391696 
L 223.742754 63.391696 
L 224.19429 67.982209 
L 225.097362 81.753746 
L 225.548899 86.344258 
L 226.451971 86.344258 
L 226.903507 77.163233 
L 227.80658 86.344258 
L 228.258116 86.344258 
L 228.709652 77.163233 
L 230.064261 56.505928 
L 230.515797 65.686953 
L 230.967333 70.277465 
L 231.41887 72.572721 
L 231.870406 65.686953 
L 232.321942 63.391696 
L 233.225015 67.982209 
L 234.128087 63.391696 
L 235.031159 63.391696 
L 235.482696 61.09644 
L 235.934232 63.391696 
L 236.385768 63.391696 
L 237.288841 58.801184 
L 237.740377 63.391696 
L 238.643449 63.391696 
L 239.094985 67.982209 
L 239.546522 70.277465 
L 239.998058 77.163233 
L 240.449594 72.572721 
L 241.352667 72.572721 
L 242.255739 67.982209 
L 242.707275 70.277465 
L 243.158811 77.163233 
L 243.610348 81.753746 
L 244.061884 84.049002 
L 244.51342 90.93477 
L 244.964956 88.639514 
L 245.416493 79.45849 
L 245.868029 84.049002 
L 246.319565 84.049002 
L 246.771101 86.344258 
L 247.222638 90.93477 
L 247.674174 93.230027 
L 248.12571 93.230027 
L 249.028782 72.572721 
L 249.480319 65.686953 
L 249.931855 63.391696 
L 250.383391 63.391696 
L 250.834927 61.09644 
L 251.738 61.09644 
L 252.189536 65.686953 
L 252.641072 74.867977 
L 253.544145 74.867977 
L 253.995681 70.277465 
L 255.35029 63.391696 
L 255.801826 65.686953 
L 256.253362 63.391696 
L 257.156434 72.572721 
L 257.607971 79.45849 
L 258.059507 81.753746 
L 258.511043 86.344258 
L 258.962579 86.344258 
L 259.414116 77.163233 
L 260.768724 56.505928 
L 261.22026 65.686953 
L 262.123333 56.505928 
L 262.574869 54.210672 
L 263.026405 49.620159 
L 263.477942 47.324903 
L 263.929478 49.620159 
L 264.83255 49.620159 
L 265.735623 54.210672 
L 266.187159 54.210672 
L 266.638695 116.182588 
L 267.090231 84.049002 
L 267.993304 84.049002 
L 268.44484 67.982209 
L 269.347913 67.982209 
L 269.799449 65.686953 
L 270.702521 65.686953 
L 271.605594 56.505928 
L 272.05713 61.09644 
L 272.508666 63.391696 
L 272.960202 54.210672 
L 273.863275 63.391696 
L 274.314811 65.686953 
L 275.217883 56.505928 
L 275.66942 58.801184 
L 276.572492 49.620159 
L 277.024028 47.324903 
L 277.475565 47.324903 
L 277.927101 45.029647 
L 278.378637 47.324903 
L 278.830173 58.801184 
L 279.281709 63.391696 
L 279.733246 56.505928 
L 280.636318 51.915416 
L 281.087854 54.210672 
L 281.539391 58.801184 
L 281.990927 65.686953 
L 282.442463 70.277465 
L 282.893999 72.572721 
L 283.345535 77.163233 
L 283.797072 77.163233 
L 284.248608 74.867977 
L 284.700144 74.867977 
L 285.15168 70.277465 
L 285.603217 67.982209 
L 286.054753 74.867977 
L 286.506289 79.45849 
L 286.957825 77.163233 
L 287.409361 79.45849 
L 287.860898 84.049002 
L 288.312434 86.344258 
L 288.76397 90.93477 
L 289.215506 90.93477 
L 289.667043 93.230027 
L 290.570115 93.230027 
L 291.021651 95.525283 
L 291.473188 93.230027 
L 291.924724 97.820539 
L 292.37626 97.820539 
L 293.730869 90.93477 
L 294.182405 93.230027 
L 294.633941 97.820539 
L 295.085477 97.820539 
L 295.537014 95.525283 
L 296.440086 77.163233 
L 296.891622 74.867977 
L 297.343158 81.753746 
L 297.794695 86.344258 
L 298.246231 86.344258 
L 298.697767 84.049002 
L 299.149303 84.049002 
L 299.60084 86.344258 
L 300.052376 81.753746 
L 300.503912 72.572721 
L 300.955448 116.182588 
L 301.406984 47.324903 
L 302.761593 47.324903 
L 303.213129 49.620159 
L 303.664666 54.210672 
L 304.567738 49.620159 
L 305.019274 49.620159 
L 305.47081 47.324903 
L 305.922347 51.915416 
L 306.825419 47.324903 
L 307.728492 47.324903 
L 308.180028 49.620159 
L 309.0831 70.277465 
L 309.534636 63.391696 
L 309.986173 70.277465 
L 310.437709 72.572721 
L 310.889245 67.982209 
L 311.340781 72.572721 
L 312.243854 67.982209 
L 312.69539 63.391696 
L 313.146926 61.09644 
L 313.598463 61.09644 
L 314.049999 116.182588 
L 314.501535 116.182588 
L 314.953071 47.324903 
L 315.404607 49.620159 
L 316.30768 49.620159 
L 317.210752 54.210672 
L 317.662289 54.210672 
L 319.016897 47.324903 
L 320.823042 47.324903 
L 321.726115 51.915416 
L 322.177651 51.915416 
L 322.629187 54.210672 
L 323.080723 51.915416 
L 323.532259 54.210672 
L 323.983796 65.686953 
L 324.435332 63.391696 
L 325.338404 63.391696 
L 325.789941 65.686953 
L 326.241477 65.686953 
L 326.693013 63.391696 
L 327.144549 67.982209 
L 327.596085 67.982209 
L 328.047622 70.277465 
L 328.499158 74.867977 
L 328.950694 74.867977 
L 329.40223 84.049002 
L 329.853767 88.639514 
L 330.305303 79.45849 
L 330.756839 79.45849 
L 331.208375 81.753746 
L 331.659911 90.93477 
L 332.111448 93.230027 
L 332.562984 86.344258 
L 333.01452 70.277465 
L 333.466056 70.277465 
L 333.917593 49.620159 
L 334.369129 49.620159 
L 334.820665 58.801184 
L 335.272201 58.801184 
L 335.723738 61.09644 
L 336.175274 56.505928 
L 337.078346 51.915416 
L 337.529882 51.915416 
L 337.981419 63.391696 
L 338.432955 56.505928 
L 338.884491 58.801184 
L 339.787564 72.572721 
L 340.2391 77.163233 
L 340.690636 79.45849 
L 341.142172 77.163233 
L 341.593708 79.45849 
L 342.045245 84.049002 
L 342.496781 86.344258 
L 342.948317 86.344258 
L 343.85139 81.753746 
L 344.302926 77.163233 
L 344.754462 77.163233 
L 345.657534 81.753746 
L 346.560607 81.753746 
L 347.915216 88.639514 
L 348.366752 88.639514 
L 348.818288 86.344258 
L 354.688259 86.344258 
L 355.139795 88.639514 
L 356.494404 88.639514 
L 356.94594 86.344258 
L 358.300549 86.344258 
L 358.752085 79.45849 
L 359.203621 74.867977 
L 359.655157 72.572721 
L 360.106694 74.867977 
L 360.55823 79.45849 
L 361.009766 77.163233 
L 361.461302 77.163233 
L 362.364375 81.753746 
L 363.267447 72.572721 
L 363.718983 70.277465 
L 364.17052 63.391696 
L 364.622056 70.277465 
L 365.073592 67.982209 
L 365.525128 70.277465 
L 365.976665 77.163233 
L 366.428201 67.982209 
L 366.879737 67.982209 
L 368.685882 77.163233 
L 369.588954 77.163233 
L 370.040491 79.45849 
L 370.492027 74.867977 
L 371.395099 79.45849 
L 371.846635 77.163233 
L 372.298172 81.753746 
L 372.749708 84.049002 
L 373.201244 81.753746 
L 374.104317 86.344258 
L 374.555853 86.344258 
L 375.007389 84.049002 
L 375.458925 79.45849 
L 375.910461 77.163233 
L 376.361998 79.45849 
L 376.813534 116.182588 
L 377.26507 90.93477 
L 377.716606 90.93477 
L 378.168143 88.639514 
L 378.619679 93.230027 
L 379.071215 95.525283 
L 379.522751 95.525283 
L 379.974288 97.820539 
L 380.425824 95.525283 
L 381.328896 100.115795 
L 381.780432 97.820539 
L 382.231969 97.820539 
L 382.683505 90.93477 
L 383.135041 93.230027 
L 383.586577 93.230027 
L 384.038114 95.525283 
L 384.48965 95.525283 
L 384.941186 93.230027 
L 385.844258 97.820539 
L 386.295795 88.639514 
L 387.198867 93.230027 
L 387.650403 81.753746 
L 388.10194 86.344258 
L 388.553476 81.753746 
L 389.005012 86.344258 
L 389.456548 86.344258 
L 389.908084 77.163233 
L 390.359621 81.753746 
L 390.811157 72.572721 
L 391.262693 72.572721 
L 391.714229 116.182588 
L 392.165766 116.182588 
L 392.617302 90.93477 
L 393.068838 86.344258 
L 393.520374 86.344258 
L 393.97191 84.049002 
L 394.874983 84.049002 
L 395.326519 86.344258 
L 395.778055 84.049002 
L 396.681128 88.639514 
L 397.5842 88.639514 
L 398.487273 93.230027 
L 398.487273 93.230027 
" clip-path="url(#pa7bb9bc89a)" style="fill: none; stroke: #1f77b4; stroke-width: 1.5; stroke-linecap: square"/>
   </g>
   <g id="patch_3">
    <path d="M 57.6 119.740235 
L 57.6 41.472 
" style="fill: none; stroke: #000000; stroke-width: 0.8; stroke-linejoin: miter; stroke-linecap: square"/>
   </g>
   <g id="patch_4">
    <path d="M 414.72 119.740235 
L 414.72 41.472 
" style="fill: none; stroke: #000000; stroke-width: 0.8; stroke-linejoin: miter; stroke-linecap: square"/>
   </g>
   <g id="patch_5">
    <path d="M 57.6 119.740235 
L 414.72 119.740235 
" style="fill: none; stroke: #000000; stroke-width: 0.8; stroke-linejoin: miter; stroke-linecap: square"/>
   </g>
   <g id="patch_6">
    <path d="M 57.6 41.472 
L 414.72 41.472 
" style="fill: none; stroke: #000000; stroke-width: 0.8; stroke-linejoin: miter; stroke-linecap: square"/>
   </g>
  </g>
  <g id="axes_2">
   <g id="patch_7">
    <path d="M 57.6 213.662118 
L 414.72 213.662118 
L 414.72 135.393882 
L 57.6 135.393882 
z
" style="fill: #ffffff"/>
   </g>
   <g id="matplotlib.axis_3">
    <g id="xtick_8">
     <g id="line2d_11">
      <g>
       <use xlink:href="#mbd993fe0ae" x="73.832727" y="213.662118" style="stroke: #000000; stroke-width: 0.8"/>
      </g>
     </g>
     <g id="text_10">
      <!-- 0 -->
      <g transform="translate(70.651477 228.260555) scale(0.1 -0.1)">
       <use xlink:href="#DejaVuSans-30"/>
      </g>
     </g>
    </g>
    <g id="xtick_9">
     <g id="line2d_12">
      <g>
       <use xlink:href="#mbd993fe0ae" x="128.017074" y="213.662118" style="stroke: #000000; stroke-width: 0.8"/>
      </g>
     </g>
     <g id="text_11">
      <!-- 5 -->
      <g transform="translate(124.835824 228.260555) scale(0.1 -0.1)">
       <use xlink:href="#DejaVuSans-35"/>
      </g>
     </g>
    </g>
    <g id="xtick_10">
     <g id="line2d_13">
      <g>
       <use xlink:href="#mbd993fe0ae" x="182.201421" y="213.662118" style="stroke: #000000; stroke-width: 0.8"/>
      </g>
     </g>
     <g id="text_12">
      <!-- 10 -->
      <g transform="translate(175.838921 228.260555) scale(0.1 -0.1)">
       <use xlink:href="#DejaVuSans-31"/>
       <use xlink:href="#DejaVuSans-30" x="63.623047"/>
      </g>
     </g>
    </g>
    <g id="xtick_11">
     <g id="line2d_14">
      <g>
       <use xlink:href="#mbd993fe0ae" x="236.385768" y="213.662118" style="stroke: #000000; stroke-width: 0.8"/>
      </g>
     </g>
     <g id="text_13">
      <!-- 15 -->
      <g transform="translate(230.023268 228.260555) scale(0.1 -0.1)">
       <use xlink:href="#DejaVuSans-31"/>
       <use xlink:href="#DejaVuSans-35" x="63.623047"/>
      </g>
     </g>
    </g>
    <g id="xtick_12">
     <g id="line2d_15">
      <g>
       <use xlink:href="#mbd993fe0ae" x="290.570115" y="213.662118" style="stroke: #000000; stroke-width: 0.8"/>
      </g>
     </g>
     <g id="text_14">
      <!-- 20 -->
      <g transform="translate(284.207615 228.260555) scale(0.1 -0.1)">
       <use xlink:href="#DejaVuSans-32"/>
       <use xlink:href="#DejaVuSans-30" x="63.623047"/>
      </g>
     </g>
    </g>
    <g id="xtick_13">
     <g id="line2d_16">
      <g>
       <use xlink:href="#mbd993fe0ae" x="344.754462" y="213.662118" style="stroke: #000000; stroke-width: 0.8"/>
      </g>
     </g>
     <g id="text_15">
      <!-- 25 -->
      <g transform="translate(338.391962 228.260555) scale(0.1 -0.1)">
       <use xlink:href="#DejaVuSans-32"/>
       <use xlink:href="#DejaVuSans-35" x="63.623047"/>
      </g>
     </g>
    </g>
    <g id="xtick_14">
     <g id="line2d_17">
      <g>
       <use xlink:href="#mbd993fe0ae" x="398.938809" y="213.662118" style="stroke: #000000; stroke-width: 0.8"/>
      </g>
     </g>
     <g id="text_16">
      <!-- 30 -->
      <g transform="translate(392.576309 228.260555) scale(0.1 -0.1)">
       <use xlink:href="#DejaVuSans-33"/>
       <use xlink:href="#DejaVuSans-30" x="63.623047"/>
      </g>
     </g>
    </g>
   </g>
   <g id="matplotlib.axis_4">
    <g id="ytick_3">
     <g id="line2d_18">
      <g>
       <use xlink:href="#m59f095843f" x="57.6" y="210.104471" style="stroke: #000000; stroke-width: 0.8"/>
      </g>
     </g>
     <g id="text_17">
      <!-- 0 -->
      <g transform="translate(44.2375 213.903689) scale(0.1 -0.1)">
       <use xlink:href="#DejaVuSans-30"/>
      </g>
     </g>
    </g>
    <g id="ytick_4">
     <g id="line2d_19">
      <g>
       <use xlink:href="#m59f095843f" x="57.6" y="174.528" style="stroke: #000000; stroke-width: 0.8"/>
      </g>
     </g>
     <g id="text_18">
      <!-- 50 -->
      <g transform="translate(37.875 178.327219) scale(0.1 -0.1)">
       <use xlink:href="#DejaVuSans-35"/>
       <use xlink:href="#DejaVuSans-30" x="63.623047"/>
      </g>
     </g>
    </g>
    <g id="ytick_5">
     <g id="line2d_20">
      <g>
       <use xlink:href="#m59f095843f" x="57.6" y="138.951529" style="stroke: #000000; stroke-width: 0.8"/>
      </g>
     </g>
     <g id="text_19">
      <!-- 100 -->
      <g transform="translate(31.5125 142.750748) scale(0.1 -0.1)">
       <use xlink:href="#DejaVuSans-31"/>
       <use xlink:href="#DejaVuSans-30" x="63.623047"/>
       <use xlink:href="#DejaVuSans-30" x="127.246094"/>
      </g>
     </g>
    </g>
   </g>
   <g id="line2d_21">
    <path d="M 73.832727 151.759059 
L 74.284263 150.336 
L 74.7358 147.489882 
L 75.187336 147.489882 
L 75.638872 143.220706 
L 76.090408 141.797647 
L 76.541945 138.951529 
L 76.993481 138.951529 
L 77.445017 210.104471 
L 77.896553 187.335529 
L 78.34809 187.335529 
L 78.799626 188.758588 
L 79.702698 188.758588 
L 80.154234 185.912471 
L 80.605771 181.643294 
L 81.057307 185.912471 
L 81.960379 188.758588 
L 82.411916 188.758588 
L 82.863452 190.181647 
L 83.314988 184.489412 
L 83.766524 184.489412 
L 84.21806 183.066353 
L 84.669597 178.797176 
L 85.121133 180.220235 
L 86.024205 171.681882 
L 86.475742 174.528 
L 86.927278 173.104941 
L 87.378814 170.258824 
L 87.83035 180.220235 
L 88.281886 180.220235 
L 89.184959 156.028235 
L 89.636495 140.374588 
L 90.539568 140.374588 
L 90.991104 138.951529 
L 92.797249 138.951529 
L 93.248785 140.374588 
L 94.603394 140.374588 
L 95.05493 138.951529 
L 95.958002 138.951529 
L 96.409539 140.374588 
L 96.861075 156.028235 
L 97.312611 156.028235 
L 97.764147 163.143529 
L 98.215683 167.412706 
L 98.66722 161.720471 
L 99.118756 157.451294 
L 99.570292 150.336 
L 100.021828 156.028235 
L 100.473365 148.912941 
L 100.924901 146.066824 
L 101.376437 144.643765 
L 101.827973 147.489882 
L 102.279509 144.643765 
L 103.182582 150.336 
L 103.634118 144.643765 
L 104.085654 160.297412 
L 104.537191 151.759059 
L 104.988727 158.874353 
L 105.440263 157.451294 
L 105.891799 151.759059 
L 106.343335 156.028235 
L 106.794872 143.220706 
L 107.246408 147.489882 
L 107.697944 154.605176 
L 108.14948 150.336 
L 108.601017 147.489882 
L 109.504089 144.643765 
L 109.955625 146.066824 
L 110.407161 143.220706 
L 110.858698 148.912941 
L 111.76177 146.066824 
L 112.213306 147.489882 
L 112.664843 143.220706 
L 113.116379 140.374588 
L 114.019451 146.066824 
L 114.470987 141.797647 
L 114.922524 138.951529 
L 116.277132 138.951529 
L 116.728669 140.374588 
L 117.180205 138.951529 
L 131.177828 138.951529 
L 131.629364 141.797647 
L 132.0809 157.451294 
L 132.532436 154.605176 
L 132.983973 164.566588 
L 133.435509 171.681882 
L 133.887045 168.835765 
L 134.790118 177.374118 
L 135.241654 178.797176 
L 135.69319 181.643294 
L 136.596262 170.258824 
L 137.047799 167.412706 
L 137.499335 151.759059 
L 137.950871 146.066824 
L 138.402407 143.220706 
L 138.853944 158.874353 
L 139.30548 168.835765 
L 140.208552 154.605176 
L 140.660089 165.989647 
L 141.111625 170.258824 
L 141.563161 175.951059 
L 142.014697 175.951059 
L 142.466233 178.797176 
L 142.91777 175.951059 
L 143.369306 171.681882 
L 143.820842 168.835765 
L 144.272378 158.874353 
L 144.723915 156.028235 
L 145.175451 156.028235 
L 145.626987 153.182118 
L 146.078523 147.489882 
L 146.530059 143.220706 
L 146.981596 158.874353 
L 147.433132 151.759059 
L 147.884668 150.336 
L 148.336204 156.028235 
L 149.239277 173.104941 
L 150.142349 175.951059 
L 150.593885 165.989647 
L 151.045422 164.566588 
L 151.496958 171.681882 
L 151.948494 167.412706 
L 152.40003 156.028235 
L 152.851567 147.489882 
L 153.303103 147.489882 
L 153.754639 154.605176 
L 154.206175 165.989647 
L 155.109248 181.643294 
L 155.560784 183.066353 
L 156.01232 185.912471 
L 156.915393 188.758588 
L 157.818465 188.758588 
L 158.270001 185.912471 
L 158.721537 173.104941 
L 159.173074 171.681882 
L 160.076146 180.220235 
L 160.527682 178.797176 
L 160.979219 175.951059 
L 161.430755 168.835765 
L 161.882291 168.835765 
L 162.333827 158.874353 
L 163.2369 153.182118 
L 163.688436 157.451294 
L 164.139972 164.566588 
L 164.591508 168.835765 
L 165.043045 150.336 
L 165.494581 148.912941 
L 166.397653 151.759059 
L 166.84919 147.489882 
L 167.752262 147.489882 
L 168.203798 153.182118 
L 168.655334 160.297412 
L 169.558407 181.643294 
L 170.009943 185.912471 
L 170.461479 185.912471 
L 170.913016 210.104471 
L 171.364552 141.797647 
L 171.816088 210.104471 
L 172.267624 138.951529 
L 175.428378 138.951529 
L 175.879914 143.220706 
L 176.33145 141.797647 
L 177.234523 153.182118 
L 177.686059 147.489882 
L 178.137595 153.182118 
L 179.040668 153.182118 
L 179.492204 148.912941 
L 179.94374 147.489882 
L 180.395276 147.489882 
L 180.846812 141.797647 
L 181.749885 138.951529 
L 183.104494 138.951529 
L 183.55603 147.489882 
L 184.007566 153.182118 
L 184.459102 161.720471 
L 184.910639 167.412706 
L 185.362175 168.835765 
L 185.813711 167.412706 
L 186.265247 164.566588 
L 186.716783 167.412706 
L 187.16832 165.989647 
L 188.071392 171.681882 
L 188.522928 171.681882 
L 188.974465 183.066353 
L 189.877537 185.912471 
L 190.329073 185.912471 
L 190.780609 183.066353 
L 192.135218 187.335529 
L 192.586754 187.335529 
L 193.038291 185.912471 
L 193.489827 181.643294 
L 193.941363 181.643294 
L 194.844435 175.951059 
L 195.295972 170.258824 
L 196.199044 161.720471 
L 196.65058 167.412706 
L 197.102117 175.951059 
L 197.553653 178.797176 
L 198.005189 183.066353 
L 198.456725 185.912471 
L 198.908261 183.066353 
L 199.359798 185.912471 
L 199.811334 185.912471 
L 200.26287 184.489412 
L 200.714406 174.528 
L 201.165943 171.681882 
L 202.069015 180.220235 
L 202.520551 181.643294 
L 202.972087 185.912471 
L 203.87516 188.758588 
L 204.326696 188.758588 
L 204.778232 187.335529 
L 205.229769 183.066353 
L 206.584377 161.720471 
L 207.035914 160.297412 
L 207.48745 164.566588 
L 207.938986 165.989647 
L 208.390522 161.720471 
L 208.842058 170.258824 
L 209.293595 171.681882 
L 209.745131 170.258824 
L 210.196667 178.797176 
L 210.648203 181.643294 
L 211.551276 181.643294 
L 212.454348 184.489412 
L 212.905884 175.951059 
L 213.357421 178.797176 
L 213.808957 178.797176 
L 214.260493 183.066353 
L 214.712029 184.489412 
L 215.163566 210.104471 
L 215.615102 184.489412 
L 216.96971 188.758588 
L 218.324319 188.758588 
L 218.775855 190.181647 
L 219.678928 190.181647 
L 220.130464 188.758588 
L 221.033536 188.758588 
L 221.485073 190.181647 
L 222.839681 185.912471 
L 223.291218 178.797176 
L 223.742754 178.797176 
L 224.19429 175.951059 
L 224.645826 170.258824 
L 225.097362 154.605176 
L 225.548899 146.066824 
L 226.000435 148.912941 
L 226.451971 148.912941 
L 226.903507 163.143529 
L 227.355044 161.720471 
L 227.80658 161.720471 
L 228.258116 158.874353 
L 228.709652 170.258824 
L 229.612725 183.066353 
L 230.064261 187.335529 
L 230.967333 167.412706 
L 231.41887 163.143529 
L 231.870406 175.951059 
L 232.321942 181.643294 
L 232.773478 181.643294 
L 233.225015 180.220235 
L 233.676551 184.489412 
L 234.128087 184.489412 
L 234.579623 185.912471 
L 235.031159 185.912471 
L 235.482696 187.335529 
L 235.934232 187.335529 
L 236.385768 188.758588 
L 237.288841 188.758588 
L 238.191913 183.066353 
L 239.094985 183.066353 
L 239.546522 181.643294 
L 239.998058 175.951059 
L 240.449594 177.374118 
L 241.804203 177.374118 
L 242.255739 180.220235 
L 242.707275 178.797176 
L 243.158811 173.104941 
L 244.061884 167.412706 
L 244.51342 151.759059 
L 244.964956 157.451294 
L 245.416493 164.566588 
L 245.868029 160.297412 
L 246.319565 158.874353 
L 246.771101 151.759059 
L 247.222638 147.489882 
L 247.674174 144.643765 
L 248.12571 143.220706 
L 248.577246 158.874353 
L 249.028782 168.835765 
L 249.931855 181.643294 
L 250.834927 184.489412 
L 251.286464 187.335529 
L 251.738 187.335529 
L 252.189536 184.489412 
L 252.641072 174.528 
L 253.544145 174.528 
L 254.447217 180.220235 
L 254.898753 184.489412 
L 256.253362 184.489412 
L 256.704898 183.066353 
L 257.156434 178.797176 
L 257.607971 170.258824 
L 258.059507 167.412706 
L 258.511043 161.720471 
L 258.962579 158.874353 
L 259.414116 170.258824 
L 260.317188 183.066353 
L 260.768724 187.335529 
L 261.22026 177.374118 
L 262.123333 183.066353 
L 263.477942 187.335529 
L 263.929478 185.912471 
L 264.381014 187.335529 
L 265.284086 187.335529 
L 265.735623 184.489412 
L 266.187159 185.912471 
L 266.638695 210.104471 
L 267.090231 144.643765 
L 267.541768 146.066824 
L 267.993304 144.643765 
L 268.44484 163.143529 
L 268.896376 161.720471 
L 269.347913 158.874353 
L 269.799449 161.720471 
L 270.250985 160.297412 
L 270.702521 157.451294 
L 271.154057 163.143529 
L 271.605594 167.412706 
L 272.05713 161.720471 
L 272.508666 158.874353 
L 272.960202 171.681882 
L 273.863275 157.451294 
L 274.314811 153.182118 
L 275.217883 164.566588 
L 275.66942 160.297412 
L 276.120956 165.989647 
L 277.024028 174.528 
L 277.475565 177.374118 
L 277.927101 181.643294 
L 278.378637 180.220235 
L 279.281709 154.605176 
L 279.733246 164.566588 
L 280.184782 170.258824 
L 280.636318 170.258824 
L 281.087854 167.412706 
L 281.539391 160.297412 
L 281.990927 148.912941 
L 282.442463 143.220706 
L 282.893999 143.220706 
L 283.345535 138.951529 
L 283.797072 138.951529 
L 284.248608 140.374588 
L 285.15168 153.182118 
L 285.603217 158.874353 
L 286.054753 147.489882 
L 286.506289 140.374588 
L 286.957825 144.643765 
L 287.409361 141.797647 
L 287.860898 140.374588 
L 288.312434 140.374588 
L 288.76397 138.951529 
L 291.021651 138.951529 
L 291.473188 143.220706 
L 291.924724 138.951529 
L 292.37626 138.951529 
L 292.827796 140.374588 
L 293.279332 143.220706 
L 293.730869 148.912941 
L 294.182405 141.797647 
L 294.633941 138.951529 
L 295.085477 138.951529 
L 295.537014 141.797647 
L 295.98855 157.451294 
L 296.440086 165.989647 
L 296.891622 170.258824 
L 297.343158 154.605176 
L 297.794695 146.066824 
L 298.246231 146.066824 
L 298.697767 148.912941 
L 299.149303 148.912941 
L 299.60084 143.220706 
L 300.052376 148.912941 
L 300.503912 160.297412 
L 300.955448 210.104471 
L 301.406984 187.335529 
L 301.858521 187.335529 
L 302.310057 188.758588 
L 302.761593 188.758588 
L 303.213129 187.335529 
L 303.664666 184.489412 
L 304.116202 188.758588 
L 305.922347 188.758588 
L 306.373883 190.181647 
L 306.825419 190.181647 
L 307.276955 191.604706 
L 307.728492 191.604706 
L 308.180028 190.181647 
L 308.631564 184.489412 
L 309.0831 173.104941 
L 309.534636 177.374118 
L 309.986173 168.835765 
L 310.437709 164.566588 
L 310.889245 168.835765 
L 311.340781 160.297412 
L 311.792318 163.143529 
L 312.69539 171.681882 
L 313.146926 177.374118 
L 313.598463 180.220235 
L 314.049999 210.104471 
L 314.501535 210.104471 
L 314.953071 187.335529 
L 315.856144 187.335529 
L 316.30768 185.912471 
L 316.759216 185.912471 
L 317.210752 210.104471 
L 317.662289 184.489412 
L 318.113825 188.758588 
L 318.565361 190.181647 
L 319.468433 190.181647 
L 319.91997 191.604706 
L 320.823042 191.604706 
L 321.274578 190.181647 
L 323.532259 190.181647 
L 323.983796 184.489412 
L 324.435332 185.912471 
L 325.338404 185.912471 
L 325.789941 184.489412 
L 326.241477 184.489412 
L 326.693013 188.758588 
L 327.596085 185.912471 
L 328.499158 180.220235 
L 328.950694 178.797176 
L 329.40223 164.566588 
L 329.853767 156.028235 
L 330.305303 165.989647 
L 331.208375 163.143529 
L 331.659911 146.066824 
L 332.111448 140.374588 
L 332.562984 148.912941 
L 333.01452 171.681882 
L 333.466056 185.912471 
L 333.917593 187.335529 
L 334.369129 185.912471 
L 334.820665 178.797176 
L 335.723738 175.951059 
L 336.175274 177.374118 
L 337.078346 183.066353 
L 337.529882 184.489412 
L 337.981419 173.104941 
L 338.432955 175.951059 
L 338.884491 173.104941 
L 339.336027 161.720471 
L 339.787564 147.489882 
L 340.2391 141.797647 
L 340.690636 140.374588 
L 341.142172 144.643765 
L 341.593708 141.797647 
L 342.496781 138.951529 
L 342.948317 140.374588 
L 343.399853 140.374588 
L 343.85139 141.797647 
L 344.302926 147.489882 
L 344.754462 143.220706 
L 345.205998 143.220706 
L 345.657534 141.797647 
L 346.560607 141.797647 
L 347.463679 138.951529 
L 352.882114 138.951529 
L 353.33365 141.797647 
L 354.236723 138.951529 
L 356.94594 138.951529 
L 357.397476 140.374588 
L 357.849013 138.951529 
L 358.300549 138.951529 
L 358.752085 140.374588 
L 359.203621 147.489882 
L 359.655157 151.759059 
L 360.106694 147.489882 
L 360.55823 140.374588 
L 361.009766 141.797647 
L 361.461302 148.912941 
L 361.912839 143.220706 
L 362.364375 146.066824 
L 364.17052 173.104941 
L 364.622056 170.258824 
L 365.073592 175.951059 
L 365.525128 170.258824 
L 365.976665 160.297412 
L 366.428201 170.258824 
L 366.879737 171.681882 
L 367.331273 167.412706 
L 367.782809 157.451294 
L 368.234346 151.759059 
L 368.685882 150.336 
L 369.137418 144.643765 
L 369.588954 144.643765 
L 370.040491 141.797647 
L 370.492027 147.489882 
L 370.943563 143.220706 
L 371.395099 143.220706 
L 371.846635 147.489882 
L 372.298172 143.220706 
L 373.201244 151.759059 
L 373.65278 147.489882 
L 374.104317 144.643765 
L 374.555853 144.643765 
L 375.007389 147.489882 
L 375.910461 156.028235 
L 376.361998 150.336 
L 376.813534 210.104471 
L 377.26507 138.951529 
L 384.48965 138.951529 
L 384.941186 141.797647 
L 385.844258 138.951529 
L 386.295795 144.643765 
L 386.747331 143.220706 
L 387.198867 140.374588 
L 387.650403 153.182118 
L 388.10194 143.220706 
L 388.553476 148.912941 
L 389.005012 140.374588 
L 389.456548 144.643765 
L 389.908084 160.297412 
L 390.359621 151.759059 
L 390.811157 161.720471 
L 391.262693 160.297412 
L 391.714229 210.104471 
L 392.165766 210.104471 
L 392.617302 138.951529 
L 393.068838 138.951529 
L 393.520374 141.797647 
L 393.97191 148.912941 
L 394.874983 148.912941 
L 395.326519 144.643765 
L 395.778055 147.489882 
L 396.229592 154.605176 
L 396.681128 150.336 
L 397.5842 150.336 
L 398.035737 147.489882 
L 398.487273 141.797647 
L 398.487273 141.797647 
" clip-path="url(#pcdef0eff45)" style="fill: none; stroke: #1f77b4; stroke-width: 1.5; stroke-linecap: square"/>
   </g>
   <g id="patch_8">
    <path d="M 57.6 213.662118 
L 57.6 135.393882 
" style="fill: none; stroke: #000000; stroke-width: 0.8; stroke-linejoin: miter; stroke-linecap: square"/>
   </g>
   <g id="patch_9">
    <path d="M 414.72 213.662118 
L 414.72 135.393882 
" style="fill: none; stroke: #000000; stroke-width: 0.8; stroke-linejoin: miter; stroke-linecap: square"/>
   </g>
   <g id="patch_10">
    <path d="M 57.6 213.662118 
L 414.72 213.662118 
" style="fill: none; stroke: #000000; stroke-width: 0.8; stroke-linejoin: miter; stroke-linecap: square"/>
   </g>
   <g id="patch_11">
    <path d="M 57.6 135.393882 
L 414.72 135.393882 
" style="fill: none; stroke: #000000; stroke-width: 0.8; stroke-linejoin: miter; stroke-linecap: square"/>
   </g>
  </g>
  <g id="axes_3">
   <g id="patch_12">
    <path d="M 57.6 307.584 
L 414.72 307.584 
L 414.72 229.315765 
L 57.6 229.315765 
z
" style="fill: #ffffff"/>
   </g>
   <g id="matplotlib.axis_5">
    <g id="xtick_15">
     <g id="line2d_22">
      <g>
       <use xlink:href="#mbd993fe0ae" x="73.832727" y="307.584" style="stroke: #000000; stroke-width: 0.8"/>
      </g>
     </g>
     <g id="text_20">
      <!-- 0 -->
      <g transform="translate(70.651477 322.182437) scale(0.1 -0.1)">
       <use xlink:href="#DejaVuSans-30"/>
      </g>
     </g>
    </g>
    <g id="xtick_16">
     <g id="line2d_23">
      <g>
       <use xlink:href="#mbd993fe0ae" x="128.017074" y="307.584" style="stroke: #000000; stroke-width: 0.8"/>
      </g>
     </g>
     <g id="text_21">
      <!-- 5 -->
      <g transform="translate(124.835824 322.182437) scale(0.1 -0.1)">
       <use xlink:href="#DejaVuSans-35"/>
      </g>
     </g>
    </g>
    <g id="xtick_17">
     <g id="line2d_24">
      <g>
       <use xlink:href="#mbd993fe0ae" x="182.201421" y="307.584" style="stroke: #000000; stroke-width: 0.8"/>
      </g>
     </g>
     <g id="text_22">
      <!-- 10 -->
      <g transform="translate(175.838921 322.182437) scale(0.1 -0.1)">
       <use xlink:href="#DejaVuSans-31"/>
       <use xlink:href="#DejaVuSans-30" x="63.623047"/>
      </g>
     </g>
    </g>
    <g id="xtick_18">
     <g id="line2d_25">
      <g>
       <use xlink:href="#mbd993fe0ae" x="236.385768" y="307.584" style="stroke: #000000; stroke-width: 0.8"/>
      </g>
     </g>
     <g id="text_23">
      <!-- 15 -->
      <g transform="translate(230.023268 322.182437) scale(0.1 -0.1)">
       <use xlink:href="#DejaVuSans-31"/>
       <use xlink:href="#DejaVuSans-35" x="63.623047"/>
      </g>
     </g>
    </g>
    <g id="xtick_19">
     <g id="line2d_26">
      <g>
       <use xlink:href="#mbd993fe0ae" x="290.570115" y="307.584" style="stroke: #000000; stroke-width: 0.8"/>
      </g>
     </g>
     <g id="text_24">
      <!-- 20 -->
      <g transform="translate(284.207615 322.182437) scale(0.1 -0.1)">
       <use xlink:href="#DejaVuSans-32"/>
       <use xlink:href="#DejaVuSans-30" x="63.623047"/>
      </g>
     </g>
    </g>
    <g id="xtick_20">
     <g id="line2d_27">
      <g>
       <use xlink:href="#mbd993fe0ae" x="344.754462" y="307.584" style="stroke: #000000; stroke-width: 0.8"/>
      </g>
     </g>
     <g id="text_25">
      <!-- 25 -->
      <g transform="translate(338.391962 322.182437) scale(0.1 -0.1)">
       <use xlink:href="#DejaVuSans-32"/>
       <use xlink:href="#DejaVuSans-35" x="63.623047"/>
      </g>
     </g>
    </g>
    <g id="xtick_21">
     <g id="line2d_28">
      <g>
       <use xlink:href="#mbd993fe0ae" x="398.938809" y="307.584" style="stroke: #000000; stroke-width: 0.8"/>
      </g>
     </g>
     <g id="text_26">
      <!-- 30 -->
      <g transform="translate(392.576309 322.182437) scale(0.1 -0.1)">
       <use xlink:href="#DejaVuSans-33"/>
       <use xlink:href="#DejaVuSans-30" x="63.623047"/>
      </g>
     </g>
    </g>
   </g>
   <g id="matplotlib.axis_6">
    <g id="ytick_6">
     <g id="line2d_29">
      <g>
       <use xlink:href="#m59f095843f" x="57.6" y="304.026353" style="stroke: #000000; stroke-width: 0.8"/>
      </g>
     </g>
     <g id="text_27">
      <!-- 0 -->
      <g transform="translate(44.2375 307.825572) scale(0.1 -0.1)">
       <use xlink:href="#DejaVuSans-30"/>
      </g>
     </g>
    </g>
    <g id="ytick_7">
     <g id="line2d_30">
      <g>
       <use xlink:href="#m59f095843f" x="57.6" y="268.449882" style="stroke: #000000; stroke-width: 0.8"/>
      </g>
     </g>
     <g id="text_28">
      <!-- 2 -->
      <g transform="translate(44.2375 272.249101) scale(0.1 -0.1)">
       <use xlink:href="#DejaVuSans-32"/>
      </g>
     </g>
    </g>
    <g id="ytick_8">
     <g id="line2d_31">
      <g>
       <use xlink:href="#m59f095843f" x="57.6" y="232.873412" style="stroke: #000000; stroke-width: 0.8"/>
      </g>
     </g>
     <g id="text_29">
      <!-- 4 -->
      <g transform="translate(44.2375 236.672631) scale(0.1 -0.1)">
       <defs>
        <path id="DejaVuSans-34" d="M 2419 4116 
L 825 1625 
L 2419 1625 
L 2419 4116 
z
M 2253 4666 
L 3047 4666 
L 3047 1625 
L 3713 1625 
L 3713 1100 
L 3047 1100 
L 3047 0 
L 2419 0 
L 2419 1100 
L 313 1100 
L 313 1709 
L 2253 4666 
z
" transform="scale(0.015625)"/>
       </defs>
       <use xlink:href="#DejaVuSans-34"/>
      </g>
     </g>
    </g>
   </g>
   <g id="line2d_32">
    <path d="M 73.832727 304.026353 
L 89.636495 304.026353 
L 90.088031 286.238118 
L 92.345712 286.238118 
L 92.797249 304.026353 
L 355.591331 304.026353 
L 356.042868 286.238118 
L 356.494404 304.026353 
L 356.94594 304.026353 
L 357.397476 286.238118 
L 357.849013 250.661647 
L 358.300549 286.238118 
L 358.752085 304.026353 
L 360.106694 304.026353 
L 360.55823 232.873412 
L 361.009766 304.026353 
L 379.071215 304.026353 
L 379.522751 268.449882 
L 379.974288 304.026353 
L 398.487273 304.026353 
L 398.487273 304.026353 
" clip-path="url(#pb9286117f9)" style="fill: none; stroke: #1f77b4; stroke-width: 1.5; stroke-linecap: square"/>
   </g>
   <g id="patch_13">
    <path d="M 57.6 307.584 
L 57.6 229.315765 
" style="fill: none; stroke: #000000; stroke-width: 0.8; stroke-linejoin: miter; stroke-linecap: square"/>
   </g>
   <g id="patch_14">
    <path d="M 414.72 307.584 
L 414.72 229.315765 
" style="fill: none; stroke: #000000; stroke-width: 0.8; stroke-linejoin: miter; stroke-linecap: square"/>
   </g>
   <g id="patch_15">
    <path d="M 57.6 307.584 
L 414.72 307.584 
" style="fill: none; stroke: #000000; stroke-width: 0.8; stroke-linejoin: miter; stroke-linecap: square"/>
   </g>
   <g id="patch_16">
    <path d="M 57.6 229.315765 
L 414.72 229.315765 
" style="fill: none; stroke: #000000; stroke-width: 0.8; stroke-linejoin: miter; stroke-linecap: square"/>
   </g>
  </g>
  <g id="text_30">
   <!-- cleaned_weather_summer -->
   <g transform="translate(151.397813 16.030125) scale(0.12 -0.12)">
    <defs>
     <path id="DejaVuSans-63" d="M 3122 3366 
L 3122 2828 
Q 2878 2963 2633 3030 
Q 2388 3097 2138 3097 
Q 1578 3097 1268 2742 
Q 959 2388 959 1747 
Q 959 1106 1268 751 
Q 1578 397 2138 397 
Q 2388 397 2633 464 
Q 2878 531 3122 666 
L 3122 134 
Q 2881 22 2623 -34 
Q 2366 -91 2075 -91 
Q 1284 -91 818 406 
Q 353 903 353 1747 
Q 353 2603 823 3093 
Q 1294 3584 2113 3584 
Q 2378 3584 2631 3529 
Q 2884 3475 3122 3366 
z
" transform="scale(0.015625)"/>
     <path id="DejaVuSans-6c" d="M 603 4863 
L 1178 4863 
L 1178 0 
L 603 0 
L 603 4863 
z
" transform="scale(0.015625)"/>
     <path id="DejaVuSans-65" d="M 3597 1894 
L 3597 1613 
L 953 1613 
Q 991 1019 1311 708 
Q 1631 397 2203 397 
Q 2534 397 2845 478 
Q 3156 559 3463 722 
L 3463 178 
Q 3153 47 2828 -22 
Q 2503 -91 2169 -91 
Q 1331 -91 842 396 
Q 353 884 353 1716 
Q 353 2575 817 3079 
Q 1281 3584 2069 3584 
Q 2775 3584 3186 3129 
Q 3597 2675 3597 1894 
z
M 3022 2063 
Q 3016 2534 2758 2815 
Q 2500 3097 2075 3097 
Q 1594 3097 1305 2825 
Q 1016 2553 972 2059 
L 3022 2063 
z
" transform="scale(0.015625)"/>
     <path id="DejaVuSans-61" d="M 2194 1759 
Q 1497 1759 1228 1600 
Q 959 1441 959 1056 
Q 959 750 1161 570 
Q 1363 391 1709 391 
Q 2188 391 2477 730 
Q 2766 1069 2766 1631 
L 2766 1759 
L 2194 1759 
z
M 3341 1997 
L 3341 0 
L 2766 0 
L 2766 531 
Q 2569 213 2275 61 
Q 1981 -91 1556 -91 
Q 1019 -91 701 211 
Q 384 513 384 1019 
Q 384 1609 779 1909 
Q 1175 2209 1959 2209 
L 2766 2209 
L 2766 2266 
Q 2766 2663 2505 2880 
Q 2244 3097 1772 3097 
Q 1472 3097 1187 3025 
Q 903 2953 641 2809 
L 641 3341 
Q 956 3463 1253 3523 
Q 1550 3584 1831 3584 
Q 2591 3584 2966 3190 
Q 3341 2797 3341 1997 
z
" transform="scale(0.015625)"/>
     <path id="DejaVuSans-6e" d="M 3513 2113 
L 3513 0 
L 2938 0 
L 2938 2094 
Q 2938 2591 2744 2837 
Q 2550 3084 2163 3084 
Q 1697 3084 1428 2787 
Q 1159 2491 1159 1978 
L 1159 0 
L 581 0 
L 581 3500 
L 1159 3500 
L 1159 2956 
Q 1366 3272 1645 3428 
Q 1925 3584 2291 3584 
Q 2894 3584 3203 3211 
Q 3513 2838 3513 2113 
z
" transform="scale(0.015625)"/>
     <path id="DejaVuSans-64" d="M 2906 2969 
L 2906 4863 
L 3481 4863 
L 3481 0 
L 2906 0 
L 2906 525 
Q 2725 213 2448 61 
Q 2172 -91 1784 -91 
Q 1150 -91 751 415 
Q 353 922 353 1747 
Q 353 2572 751 3078 
Q 1150 3584 1784 3584 
Q 2172 3584 2448 3432 
Q 2725 3281 2906 2969 
z
M 947 1747 
Q 947 1113 1208 752 
Q 1469 391 1925 391 
Q 2381 391 2643 752 
Q 2906 1113 2906 1747 
Q 2906 2381 2643 2742 
Q 2381 3103 1925 3103 
Q 1469 3103 1208 2742 
Q 947 2381 947 1747 
z
" transform="scale(0.015625)"/>
     <path id="DejaVuSans-5f" d="M 3263 -1063 
L 3263 -1509 
L -63 -1509 
L -63 -1063 
L 3263 -1063 
z
" transform="scale(0.015625)"/>
     <path id="DejaVuSans-77" d="M 269 3500 
L 844 3500 
L 1563 769 
L 2278 3500 
L 2956 3500 
L 3675 769 
L 4391 3500 
L 4966 3500 
L 4050 0 
L 3372 0 
L 2619 2869 
L 1863 0 
L 1184 0 
L 269 3500 
z
" transform="scale(0.015625)"/>
     <path id="DejaVuSans-74" d="M 1172 4494 
L 1172 3500 
L 2356 3500 
L 2356 3053 
L 1172 3053 
L 1172 1153 
Q 1172 725 1289 603 
Q 1406 481 1766 481 
L 2356 481 
L 2356 0 
L 1766 0 
Q 1100 0 847 248 
Q 594 497 594 1153 
L 594 3053 
L 172 3053 
L 172 3500 
L 594 3500 
L 594 4494 
L 1172 4494 
z
" transform="scale(0.015625)"/>
     <path id="DejaVuSans-68" d="M 3513 2113 
L 3513 0 
L 2938 0 
L 2938 2094 
Q 2938 2591 2744 2837 
Q 2550 3084 2163 3084 
Q 1697 3084 1428 2787 
Q 1159 2491 1159 1978 
L 1159 0 
L 581 0 
L 581 4863 
L 1159 4863 
L 1159 2956 
Q 1366 3272 1645 3428 
Q 1925 3584 2291 3584 
Q 2894 3584 3203 3211 
Q 3513 2838 3513 2113 
z
" transform="scale(0.015625)"/>
     <path id="DejaVuSans-72" d="M 2631 2963 
Q 2534 3019 2420 3045 
Q 2306 3072 2169 3072 
Q 1681 3072 1420 2755 
Q 1159 2438 1159 1844 
L 1159 0 
L 581 0 
L 581 3500 
L 1159 3500 
L 1159 2956 
Q 1341 3275 1631 3429 
Q 1922 3584 2338 3584 
Q 2397 3584 2469 3576 
Q 2541 3569 2628 3553 
L 2631 2963 
z
" transform="scale(0.015625)"/>
     <path id="DejaVuSans-73" d="M 2834 3397 
L 2834 2853 
Q 2591 2978 2328 3040 
Q 2066 3103 1784 3103 
Q 1356 3103 1142 2972 
Q 928 2841 928 2578 
Q 928 2378 1081 2264 
Q 1234 2150 1697 2047 
L 1894 2003 
Q 2506 1872 2764 1633 
Q 3022 1394 3022 966 
Q 3022 478 2636 193 
Q 2250 -91 1575 -91 
Q 1294 -91 989 -36 
Q 684 19 347 128 
L 347 722 
Q 666 556 975 473 
Q 1284 391 1588 391 
Q 1994 391 2212 530 
Q 2431 669 2431 922 
Q 2431 1156 2273 1281 
Q 2116 1406 1581 1522 
L 1381 1569 
Q 847 1681 609 1914 
Q 372 2147 372 2553 
Q 372 3047 722 3315 
Q 1072 3584 1716 3584 
Q 2034 3584 2315 3537 
Q 2597 3491 2834 3397 
z
" transform="scale(0.015625)"/>
     <path id="DejaVuSans-75" d="M 544 1381 
L 544 3500 
L 1119 3500 
L 1119 1403 
Q 1119 906 1312 657 
Q 1506 409 1894 409 
Q 2359 409 2629 706 
Q 2900 1003 2900 1516 
L 2900 3500 
L 3475 3500 
L 3475 0 
L 2900 0 
L 2900 538 
Q 2691 219 2414 64 
Q 2138 -91 1772 -91 
Q 1169 -91 856 284 
Q 544 659 544 1381 
z
M 1991 3584 
L 1991 3584 
z
" transform="scale(0.015625)"/>
     <path id="DejaVuSans-6d" d="M 3328 2828 
Q 3544 3216 3844 3400 
Q 4144 3584 4550 3584 
Q 5097 3584 5394 3201 
Q 5691 2819 5691 2113 
L 5691 0 
L 5113 0 
L 5113 2094 
Q 5113 2597 4934 2840 
Q 4756 3084 4391 3084 
Q 3944 3084 3684 2787 
Q 3425 2491 3425 1978 
L 3425 0 
L 2847 0 
L 2847 2094 
Q 2847 2600 2669 2842 
Q 2491 3084 2119 3084 
Q 1678 3084 1418 2786 
Q 1159 2488 1159 1978 
L 1159 0 
L 581 0 
L 581 3500 
L 1159 3500 
L 1159 2956 
Q 1356 3278 1631 3431 
Q 1906 3584 2284 3584 
Q 2666 3584 2933 3390 
Q 3200 3197 3328 2828 
z
" transform="scale(0.015625)"/>
    </defs>
    <use xlink:href="#DejaVuSans-63"/>
    <use xlink:href="#DejaVuSans-6c" x="54.980469"/>
    <use xlink:href="#DejaVuSans-65" x="82.763672"/>
    <use xlink:href="#DejaVuSans-61" x="144.287109"/>
    <use xlink:href="#DejaVuSans-6e" x="205.566406"/>
    <use xlink:href="#DejaVuSans-65" x="268.945312"/>
    <use xlink:href="#DejaVuSans-64" x="330.46875"/>
    <use xlink:href="#DejaVuSans-5f" x="393.945312"/>
    <use xlink:href="#DejaVuSans-77" x="443.945312"/>
    <use xlink:href="#DejaVuSans-65" x="525.732422"/>
    <use xlink:href="#DejaVuSans-61" x="587.255859"/>
    <use xlink:href="#DejaVuSans-74" x="648.535156"/>
    <use xlink:href="#DejaVuSans-68" x="687.744141"/>
    <use xlink:href="#DejaVuSans-65" x="751.123047"/>
    <use xlink:href="#DejaVuSans-72" x="812.646484"/>
    <use xlink:href="#DejaVuSans-5f" x="853.759766"/>
    <use xlink:href="#DejaVuSans-73" x="903.759766"/>
    <use xlink:href="#DejaVuSans-75" x="955.859375"/>
    <use xlink:href="#DejaVuSans-6d" x="1019.238281"/>
    <use xlink:href="#DejaVuSans-6d" x="1116.650391"/>
    <use xlink:href="#DejaVuSans-65" x="1214.0625"/>
    <use xlink:href="#DejaVuSans-72" x="1275.585938"/>
   </g>
  </g>
 </g>
 <defs>
  <clipPath id="pa7bb9bc89a">
   <rect x="57.6" y="41.472" width="357.12" height="78.268235"/>
  </clipPath>
  <clipPath id="pcdef0eff45">
   <rect x="57.6" y="135.393882" width="357.12" height="78.268235"/>
  </clipPath>
  <clipPath id="pb9286117f9">
   <rect x="57.6" y="229.315765" width="357.12" height="78.268235"/>
  </clipPath>
 </defs>
</svg>
