<?xml version="1.0" encoding="utf-8" standalone="no"?>
<!DOCTYPE svg PUBLIC "-//W3C//DTD SVG 1.1//EN"
  "http://www.w3.org/Graphics/SVG/1.1/DTD/svg11.dtd">
<svg xmlns:xlink="http://www.w3.org/1999/xlink" width="460.8pt" height="345.6pt" viewBox="0 0 460.8 345.6" xmlns="http://www.w3.org/2000/svg" version="1.1">
 <metadata>
  <rdf:RDF xmlns:dc="http://purl.org/dc/elements/1.1/" xmlns:cc="http://creativecommons.org/ns#" xmlns:rdf="http://www.w3.org/1999/02/22-rdf-syntax-ns#">
   <cc:Work>
    <dc:type rdf:resource="http://purl.org/dc/dcmitype/StillImage"/>
    <dc:date>2023-03-02T15:27:56.179018</dc:date>
    <dc:format>image/svg+xml</dc:format>
    <dc:creator>
     <cc:Agent>
      <dc:title>Matplotlib v3.6.3, https://matplotlib.org/</dc:title>
     </cc:Agent>
    </dc:creator>
   </cc:Work>
  </rdf:RDF>
 </metadata>
 <defs>
  <style type="text/css">*{stroke-linejoin: round; stroke-linecap: butt}</style>
 </defs>
 <g id="figure_1">
  <g id="patch_1">
   <path d="M 0 345.6 
L 460.8 345.6 
L 460.8 0 
L 0 0 
z
" style="fill: #ffffff"/>
  </g>
  <g id="axes_1">
   <g id="patch_2">
    <path d="M 57.6 119.740235 
L 414.72 119.740235 
L 414.72 41.472 
L 57.6 41.472 
z
" style="fill: #ffffff"/>
   </g>
   <g id="matplotlib.axis_1">
    <g id="xtick_1">
     <g id="line2d_1">
      <defs>
       <path id="m7128cd366d" d="M 0 0 
L 0 3.5 
" style="stroke: #000000; stroke-width: 0.8"/>
      </defs>
      <g>
       <use xlink:href="#m7128cd366d" x="73.832727" y="119.740235" style="stroke: #000000; stroke-width: 0.8"/>
      </g>
     </g>
     <g id="text_1">
      <!-- 0 -->
      <g transform="translate(70.651477 134.338673) scale(0.1 -0.1)">
       <defs>
        <path id="DejaVuSans-30" d="M 2034 4250 
Q 1547 4250 1301 3770 
Q 1056 3291 1056 2328 
Q 1056 1369 1301 889 
Q 1547 409 2034 409 
Q 2525 409 2770 889 
Q 3016 1369 3016 2328 
Q 3016 3291 2770 3770 
Q 2525 4250 2034 4250 
z
M 2034 4750 
Q 2819 4750 3233 4129 
Q 3647 3509 3647 2328 
Q 3647 1150 3233 529 
Q 2819 -91 2034 -91 
Q 1250 -91 836 529 
Q 422 1150 422 2328 
Q 422 3509 836 4129 
Q 1250 4750 2034 4750 
z
" transform="scale(0.015625)"/>
       </defs>
       <use xlink:href="#DejaVuSans-30"/>
      </g>
     </g>
    </g>
    <g id="xtick_2">
     <g id="line2d_2">
      <g>
       <use xlink:href="#m7128cd366d" x="128.017074" y="119.740235" style="stroke: #000000; stroke-width: 0.8"/>
      </g>
     </g>
     <g id="text_2">
      <!-- 5 -->
      <g transform="translate(124.835824 134.338673) scale(0.1 -0.1)">
       <defs>
        <path id="DejaVuSans-35" d="M 691 4666 
L 3169 4666 
L 3169 4134 
L 1269 4134 
L 1269 2991 
Q 1406 3038 1543 3061 
Q 1681 3084 1819 3084 
Q 2600 3084 3056 2656 
Q 3513 2228 3513 1497 
Q 3513 744 3044 326 
Q 2575 -91 1722 -91 
Q 1428 -91 1123 -41 
Q 819 9 494 109 
L 494 744 
Q 775 591 1075 516 
Q 1375 441 1709 441 
Q 2250 441 2565 725 
Q 2881 1009 2881 1497 
Q 2881 1984 2565 2268 
Q 2250 2553 1709 2553 
Q 1456 2553 1204 2497 
Q 953 2441 691 2322 
L 691 4666 
z
" transform="scale(0.015625)"/>
       </defs>
       <use xlink:href="#DejaVuSans-35"/>
      </g>
     </g>
    </g>
    <g id="xtick_3">
     <g id="line2d_3">
      <g>
       <use xlink:href="#m7128cd366d" x="182.201421" y="119.740235" style="stroke: #000000; stroke-width: 0.8"/>
      </g>
     </g>
     <g id="text_3">
      <!-- 10 -->
      <g transform="translate(175.838921 134.338673) scale(0.1 -0.1)">
       <defs>
        <path id="DejaVuSans-31" d="M 794 531 
L 1825 531 
L 1825 4091 
L 703 3866 
L 703 4441 
L 1819 4666 
L 2450 4666 
L 2450 531 
L 3481 531 
L 3481 0 
L 794 0 
L 794 531 
z
" transform="scale(0.015625)"/>
       </defs>
       <use xlink:href="#DejaVuSans-31"/>
       <use xlink:href="#DejaVuSans-30" x="63.623047"/>
      </g>
     </g>
    </g>
    <g id="xtick_4">
     <g id="line2d_4">
      <g>
       <use xlink:href="#m7128cd366d" x="236.385768" y="119.740235" style="stroke: #000000; stroke-width: 0.8"/>
      </g>
     </g>
     <g id="text_4">
      <!-- 15 -->
      <g transform="translate(230.023268 134.338673) scale(0.1 -0.1)">
       <use xlink:href="#DejaVuSans-31"/>
       <use xlink:href="#DejaVuSans-35" x="63.623047"/>
      </g>
     </g>
    </g>
    <g id="xtick_5">
     <g id="line2d_5">
      <g>
       <use xlink:href="#m7128cd366d" x="290.570115" y="119.740235" style="stroke: #000000; stroke-width: 0.8"/>
      </g>
     </g>
     <g id="text_5">
      <!-- 20 -->
      <g transform="translate(284.207615 134.338673) scale(0.1 -0.1)">
       <defs>
        <path id="DejaVuSans-32" d="M 1228 531 
L 3431 531 
L 3431 0 
L 469 0 
L 469 531 
Q 828 903 1448 1529 
Q 2069 2156 2228 2338 
Q 2531 2678 2651 2914 
Q 2772 3150 2772 3378 
Q 2772 3750 2511 3984 
Q 2250 4219 1831 4219 
Q 1534 4219 1204 4116 
Q 875 4013 500 3803 
L 500 4441 
Q 881 4594 1212 4672 
Q 1544 4750 1819 4750 
Q 2544 4750 2975 4387 
Q 3406 4025 3406 3419 
Q 3406 3131 3298 2873 
Q 3191 2616 2906 2266 
Q 2828 2175 2409 1742 
Q 1991 1309 1228 531 
z
" transform="scale(0.015625)"/>
       </defs>
       <use xlink:href="#DejaVuSans-32"/>
       <use xlink:href="#DejaVuSans-30" x="63.623047"/>
      </g>
     </g>
    </g>
    <g id="xtick_6">
     <g id="line2d_6">
      <g>
       <use xlink:href="#m7128cd366d" x="344.754462" y="119.740235" style="stroke: #000000; stroke-width: 0.8"/>
      </g>
     </g>
     <g id="text_6">
      <!-- 25 -->
      <g transform="translate(338.391962 134.338673) scale(0.1 -0.1)">
       <use xlink:href="#DejaVuSans-32"/>
       <use xlink:href="#DejaVuSans-35" x="63.623047"/>
      </g>
     </g>
    </g>
    <g id="xtick_7">
     <g id="line2d_7">
      <g>
       <use xlink:href="#m7128cd366d" x="398.938809" y="119.740235" style="stroke: #000000; stroke-width: 0.8"/>
      </g>
     </g>
     <g id="text_7">
      <!-- 30 -->
      <g transform="translate(392.576309 134.338673) scale(0.1 -0.1)">
       <defs>
        <path id="DejaVuSans-33" d="M 2597 2516 
Q 3050 2419 3304 2112 
Q 3559 1806 3559 1356 
Q 3559 666 3084 287 
Q 2609 -91 1734 -91 
Q 1441 -91 1130 -33 
Q 819 25 488 141 
L 488 750 
Q 750 597 1062 519 
Q 1375 441 1716 441 
Q 2309 441 2620 675 
Q 2931 909 2931 1356 
Q 2931 1769 2642 2001 
Q 2353 2234 1838 2234 
L 1294 2234 
L 1294 2753 
L 1863 2753 
Q 2328 2753 2575 2939 
Q 2822 3125 2822 3475 
Q 2822 3834 2567 4026 
Q 2313 4219 1838 4219 
Q 1578 4219 1281 4162 
Q 984 4106 628 3988 
L 628 4550 
Q 988 4650 1302 4700 
Q 1616 4750 1894 4750 
Q 2613 4750 3031 4423 
Q 3450 4097 3450 3541 
Q 3450 3153 3228 2886 
Q 3006 2619 2597 2516 
z
" transform="scale(0.015625)"/>
       </defs>
       <use xlink:href="#DejaVuSans-33"/>
       <use xlink:href="#DejaVuSans-30" x="63.623047"/>
      </g>
     </g>
    </g>
   </g>
   <g id="matplotlib.axis_2">
    <g id="ytick_1">
     <g id="line2d_8">
      <defs>
       <path id="maeba0105ee" d="M 0 0 
L -3.5 0 
" style="stroke: #000000; stroke-width: 0.8"/>
      </defs>
      <g>
       <use xlink:href="#maeba0105ee" x="57.6" y="88.152642" style="stroke: #000000; stroke-width: 0.8"/>
      </g>
     </g>
     <g id="text_8">
      <!-- 0 -->
      <g transform="translate(44.2375 91.95186) scale(0.1 -0.1)">
       <use xlink:href="#DejaVuSans-30"/>
      </g>
     </g>
    </g>
    <g id="ytick_2">
     <g id="line2d_9">
      <g>
       <use xlink:href="#maeba0105ee" x="57.6" y="45.029647" style="stroke: #000000; stroke-width: 0.8"/>
      </g>
     </g>
     <g id="text_9">
      <!-- 20 -->
      <g transform="translate(37.875 48.828866) scale(0.1 -0.1)">
       <use xlink:href="#DejaVuSans-32"/>
       <use xlink:href="#DejaVuSans-30" x="63.623047"/>
      </g>
     </g>
    </g>
   </g>
   <g id="line2d_10">
    <path d="M 73.832727 64.434995 
L 74.284263 57.966545 
L 74.7358 60.122695 
L 75.187336 57.966545 
L 75.638872 53.654246 
L 76.090408 60.122695 
L 77.896553 60.122695 
L 78.34809 57.966545 
L 78.799626 53.654246 
L 79.702698 53.654246 
L 80.154234 51.498096 
L 81.960379 51.498096 
L 82.411916 55.810396 
L 82.863452 66.591144 
L 84.21806 79.528043 
L 85.121133 83.840342 
L 85.572669 88.152642 
L 96.409539 88.152642 
L 96.861075 90.308791 
L 97.764147 90.308791 
L 98.215683 88.152642 
L 100.021828 88.152642 
L 100.473365 90.308791 
L 100.924901 90.308791 
L 101.376437 88.152642 
L 102.731046 88.152642 
L 103.182582 90.308791 
L 105.440263 90.308791 
L 105.891799 92.464941 
L 107.246408 92.464941 
L 107.697944 88.152642 
L 108.601017 96.777241 
L 109.052553 96.777241 
L 111.310234 107.557989 
L 112.213306 107.557989 
L 112.664843 101.08954 
L 113.116379 101.08954 
L 113.567915 98.93339 
L 114.019451 98.93339 
L 114.470987 92.464941 
L 115.825596 92.464941 
L 116.277132 88.152642 
L 116.728669 88.152642 
L 117.631741 96.777241 
L 118.083277 98.93339 
L 118.534814 96.777241 
L 118.98635 96.777241 
L 119.437886 94.621091 
L 120.340958 94.621091 
L 120.792495 92.464941 
L 123.953248 92.464941 
L 124.856321 88.152642 
L 125.307857 88.152642 
L 125.759393 90.308791 
L 126.210929 90.308791 
L 126.662466 88.152642 
L 135.241654 88.152642 
L 135.69319 85.996492 
L 137.047799 85.996492 
L 137.499335 88.152642 
L 137.950871 88.152642 
L 138.402407 85.996492 
L 138.853944 88.152642 
L 140.660089 88.152642 
L 141.111625 83.840342 
L 141.563161 88.152642 
L 142.91777 88.152642 
L 143.369306 90.308791 
L 145.175451 90.308791 
L 145.626987 92.464941 
L 147.433132 92.464941 
L 147.884668 90.308791 
L 148.787741 90.308791 
L 149.239277 94.621091 
L 150.593885 94.621091 
L 151.045422 96.777241 
L 151.496958 88.152642 
L 153.303103 88.152642 
L 153.754639 49.341947 
L 154.206175 57.966545 
L 155.109248 57.966545 
L 156.01232 66.591144 
L 157.818465 66.591144 
L 158.270001 64.434995 
L 158.721537 66.591144 
L 159.62461 66.591144 
L 160.076146 64.434995 
L 160.527682 60.122695 
L 160.979219 60.122695 
L 161.430755 62.278845 
L 161.882291 62.278845 
L 162.333827 64.434995 
L 162.785364 60.122695 
L 163.688436 64.434995 
L 164.139972 62.278845 
L 164.591508 64.434995 
L 165.043045 64.434995 
L 165.494581 66.591144 
L 166.397653 66.591144 
L 166.84919 60.122695 
L 167.752262 60.122695 
L 168.203798 57.966545 
L 168.655334 51.498096 
L 170.009943 51.498096 
L 170.461479 47.185797 
L 170.913016 45.029647 
L 171.364552 49.341947 
L 171.816088 51.498096 
L 172.71916 47.185797 
L 173.170697 47.185797 
L 173.622233 49.341947 
L 174.073769 47.185797 
L 174.525305 49.341947 
L 174.976842 47.185797 
L 175.428378 47.185797 
L 175.879914 45.029647 
L 177.234523 45.029647 
L 178.137595 53.654246 
L 178.589131 51.498096 
L 179.040668 47.185797 
L 179.492204 45.029647 
L 179.94374 45.029647 
L 180.395276 49.341947 
L 180.846812 47.185797 
L 181.298349 51.498096 
L 181.749885 51.498096 
L 182.201421 49.341947 
L 183.104494 66.591144 
L 183.55603 68.747294 
L 184.459102 64.434995 
L 185.362175 64.434995 
L 186.716783 70.903444 
L 187.16832 68.747294 
L 188.071392 73.059594 
L 188.522928 73.059594 
L 188.974465 77.371893 
L 190.329073 83.840342 
L 190.780609 81.684193 
L 192.586754 81.684193 
L 193.038291 85.996492 
L 193.489827 88.152642 
L 197.553653 88.152642 
L 198.005189 90.308791 
L 198.456725 90.308791 
L 198.908261 88.152642 
L 199.811334 88.152642 
L 200.26287 90.308791 
L 202.069015 90.308791 
L 202.520551 88.152642 
L 204.326696 88.152642 
L 204.778232 90.308791 
L 206.584377 90.308791 
L 207.035914 92.464941 
L 210.648203 92.464941 
L 211.09974 94.621091 
L 213.808957 94.621091 
L 214.712029 90.308791 
L 215.163566 92.464941 
L 216.066638 92.464941 
L 216.518174 88.152642 
L 216.96971 90.308791 
L 217.421247 90.308791 
L 217.872783 92.464941 
L 218.324319 88.152642 
L 219.227392 88.152642 
L 219.678928 90.308791 
L 220.130464 90.308791 
L 220.582 92.464941 
L 221.033536 88.152642 
L 221.936609 88.152642 
L 222.388145 90.308791 
L 222.839681 90.308791 
L 223.742754 94.621091 
L 224.19429 98.93339 
L 224.645826 101.08954 
L 225.097362 101.08954 
L 225.548899 103.24569 
L 226.000435 107.557989 
L 226.451971 109.714139 
L 226.903507 109.714139 
L 228.258116 116.182588 
L 228.709652 114.026439 
L 229.161189 114.026439 
L 229.612725 116.182588 
L 230.064261 114.026439 
L 230.515797 109.714139 
L 230.967333 101.08954 
L 231.41887 101.08954 
L 231.870406 94.621091 
L 232.321942 92.464941 
L 232.773478 94.621091 
L 233.225015 98.93339 
L 233.676551 101.08954 
L 234.128087 101.08954 
L 234.579623 105.40184 
L 235.031159 105.40184 
L 235.482696 107.557989 
L 235.934232 105.40184 
L 236.385768 105.40184 
L 236.837304 107.557989 
L 237.288841 101.08954 
L 238.643449 101.08954 
L 239.094985 98.93339 
L 239.546522 98.93339 
L 239.998058 103.24569 
L 240.449594 109.714139 
L 240.90113 109.714139 
L 241.804203 114.026439 
L 242.707275 114.026439 
L 243.158811 111.870289 
L 243.610348 111.870289 
L 244.061884 109.714139 
L 244.51342 101.08954 
L 244.964956 94.621091 
L 245.416493 96.777241 
L 245.868029 101.08954 
L 246.771101 101.08954 
L 248.12571 107.557989 
L 249.028782 103.24569 
L 249.480319 105.40184 
L 249.931855 103.24569 
L 250.383391 105.40184 
L 250.834927 103.24569 
L 251.286464 105.40184 
L 251.738 105.40184 
L 252.189536 107.557989 
L 252.641072 101.08954 
L 253.092608 101.08954 
L 253.544145 98.93339 
L 253.995681 98.93339 
L 254.898753 103.24569 
L 255.35029 109.714139 
L 255.801826 109.714139 
L 256.253362 114.026439 
L 257.607971 114.026439 
L 258.059507 109.714139 
L 258.511043 101.08954 
L 258.962579 94.621091 
L 259.414116 92.464941 
L 259.865652 94.621091 
L 260.317188 98.93339 
L 260.768724 101.08954 
L 261.22026 101.08954 
L 262.123333 105.40184 
L 262.574869 103.24569 
L 263.026405 98.93339 
L 263.929478 98.93339 
L 265.284086 105.40184 
L 266.187159 101.08954 
L 267.541768 107.557989 
L 268.44484 107.557989 
L 268.896376 105.40184 
L 269.799449 105.40184 
L 270.250985 107.557989 
L 270.702521 101.08954 
L 271.605594 101.08954 
L 272.05713 98.93339 
L 272.508666 103.24569 
L 272.960202 109.714139 
L 273.411739 109.714139 
L 273.863275 111.870289 
L 274.314811 111.870289 
L 274.766347 114.026439 
L 275.66942 114.026439 
L 276.120956 109.714139 
L 277.024028 92.464941 
L 277.475565 88.152642 
L 277.927101 88.152642 
L 278.830173 96.777241 
L 279.281709 96.777241 
L 279.733246 94.621091 
L 280.184782 94.621091 
L 280.636318 96.777241 
L 281.087854 101.08954 
L 281.990927 101.08954 
L 282.442463 103.24569 
L 282.893999 98.93339 
L 283.797072 98.93339 
L 284.248608 96.777241 
L 284.700144 101.08954 
L 285.603217 101.08954 
L 286.054753 103.24569 
L 287.409361 103.24569 
L 287.860898 98.93339 
L 288.312434 96.777241 
L 288.76397 101.08954 
L 289.215506 94.621091 
L 289.667043 92.464941 
L 290.118579 94.621091 
L 290.570115 94.621091 
L 291.021651 96.777241 
L 291.473188 88.152642 
L 292.37626 88.152642 
L 292.827796 94.621091 
L 293.279332 98.93339 
L 293.730869 101.08954 
L 294.182405 101.08954 
L 294.633941 98.93339 
L 295.085477 98.93339 
L 295.98855 94.621091 
L 296.440086 94.621091 
L 297.794695 88.152642 
L 298.697767 88.152642 
L 299.149303 85.996492 
L 299.60084 88.152642 
L 300.052376 92.464941 
L 300.503912 92.464941 
L 300.955448 94.621091 
L 309.0831 94.621091 
L 310.437709 101.08954 
L 310.889245 101.08954 
L 311.340781 103.24569 
L 311.792318 98.93339 
L 312.243854 101.08954 
L 312.69539 101.08954 
L 313.146926 105.40184 
L 314.501535 105.40184 
L 314.953071 107.557989 
L 315.404607 101.08954 
L 316.759216 101.08954 
L 317.210752 98.93339 
L 318.113825 98.93339 
L 319.016897 103.24569 
L 319.468433 109.714139 
L 319.91997 109.714139 
L 320.371506 111.870289 
L 320.823042 111.870289 
L 321.274578 109.714139 
L 321.726115 111.870289 
L 322.177651 111.870289 
L 323.532259 105.40184 
L 323.983796 105.40184 
L 324.435332 107.557989 
L 325.338404 107.557989 
L 325.789941 109.714139 
L 326.241477 114.026439 
L 326.693013 116.182588 
L 327.144549 116.182588 
L 327.596085 114.026439 
L 328.047622 114.026439 
L 328.499158 116.182588 
L 329.40223 116.182588 
L 329.853767 114.026439 
L 332.111448 114.026439 
L 332.562984 109.714139 
L 333.01452 101.08954 
L 333.466056 96.777241 
L 333.917593 96.777241 
L 334.369129 94.621091 
L 334.820665 94.621091 
L 335.272201 92.464941 
L 335.723738 92.464941 
L 336.175274 94.621091 
L 338.884491 94.621091 
L 339.336027 98.93339 
L 339.787564 90.308791 
L 340.2391 88.152642 
L 340.690636 83.840342 
L 341.142172 83.840342 
L 342.045245 88.152642 
L 342.496781 92.464941 
L 342.948317 94.621091 
L 343.85139 94.621091 
L 344.302926 96.777241 
L 344.754462 101.08954 
L 346.109071 101.08954 
L 347.012143 109.714139 
L 347.463679 109.714139 
L 347.915216 111.870289 
L 349.269824 111.870289 
L 349.72136 109.714139 
L 351.075969 116.182588 
L 351.527505 114.026439 
L 351.979042 109.714139 
L 352.882114 92.464941 
L 353.33365 90.308791 
L 353.785186 90.308791 
L 354.236723 94.621091 
L 358.752085 94.621091 
L 359.203621 96.777241 
L 359.655157 94.621091 
L 360.106694 96.777241 
L 361.009766 92.464941 
L 361.912839 92.464941 
L 362.364375 94.621091 
L 363.267447 94.621091 
L 363.718983 96.777241 
L 364.17052 96.777241 
L 364.622056 98.93339 
L 365.073592 96.777241 
L 365.525128 98.93339 
L 365.976665 98.93339 
L 366.428201 101.08954 
L 367.782809 101.08954 
L 368.234346 105.40184 
L 369.137418 105.40184 
L 369.588954 107.557989 
L 370.040491 105.40184 
L 370.492027 105.40184 
L 370.943563 107.557989 
L 371.395099 101.08954 
L 371.846635 101.08954 
L 372.298172 98.93339 
L 373.201244 98.93339 
L 374.104317 94.621091 
L 375.007389 94.621091 
L 376.361998 88.152642 
L 377.26507 88.152642 
L 377.716606 85.996492 
L 378.168143 88.152642 
L 378.619679 92.464941 
L 381.780432 92.464941 
L 382.231969 90.308791 
L 382.683505 90.308791 
L 383.135041 94.621091 
L 385.392722 94.621091 
L 385.844258 96.777241 
L 386.295795 94.621091 
L 387.650403 94.621091 
L 388.10194 98.93339 
L 388.553476 101.08954 
L 389.005012 101.08954 
L 389.456548 105.40184 
L 389.908084 105.40184 
L 390.359621 107.557989 
L 390.811157 101.08954 
L 391.262693 101.08954 
L 391.714229 103.24569 
L 392.165766 98.93339 
L 392.617302 98.93339 
L 393.068838 94.621091 
L 393.520374 98.93339 
L 394.423447 98.93339 
L 394.874983 101.08954 
L 395.326519 101.08954 
L 395.778055 103.24569 
L 396.229592 101.08954 
L 396.681128 103.24569 
L 397.132664 103.24569 
L 397.5842 105.40184 
L 398.487273 105.40184 
L 398.487273 105.40184 
" clip-path="url(#p7d468779ba)" style="fill: none; stroke: #1f77b4; stroke-width: 1.5; stroke-linecap: square"/>
   </g>
   <g id="patch_3">
    <path d="M 57.6 119.740235 
L 57.6 41.472 
" style="fill: none; stroke: #000000; stroke-width: 0.8; stroke-linejoin: miter; stroke-linecap: square"/>
   </g>
   <g id="patch_4">
    <path d="M 414.72 119.740235 
L 414.72 41.472 
" style="fill: none; stroke: #000000; stroke-width: 0.8; stroke-linejoin: miter; stroke-linecap: square"/>
   </g>
   <g id="patch_5">
    <path d="M 57.6 119.740235 
L 414.72 119.740235 
" style="fill: none; stroke: #000000; stroke-width: 0.8; stroke-linejoin: miter; stroke-linecap: square"/>
   </g>
   <g id="patch_6">
    <path d="M 57.6 41.472 
L 414.72 41.472 
" style="fill: none; stroke: #000000; stroke-width: 0.8; stroke-linejoin: miter; stroke-linecap: square"/>
   </g>
  </g>
  <g id="axes_2">
   <g id="patch_7">
    <path d="M 57.6 213.662118 
L 414.72 213.662118 
L 414.72 135.393882 
L 57.6 135.393882 
z
" style="fill: #ffffff"/>
   </g>
   <g id="matplotlib.axis_3">
    <g id="xtick_8">
     <g id="line2d_11">
      <g>
       <use xlink:href="#m7128cd366d" x="73.832727" y="213.662118" style="stroke: #000000; stroke-width: 0.8"/>
      </g>
     </g>
     <g id="text_10">
      <!-- 0 -->
      <g transform="translate(70.651477 228.260555) scale(0.1 -0.1)">
       <use xlink:href="#DejaVuSans-30"/>
      </g>
     </g>
    </g>
    <g id="xtick_9">
     <g id="line2d_12">
      <g>
       <use xlink:href="#m7128cd366d" x="128.017074" y="213.662118" style="stroke: #000000; stroke-width: 0.8"/>
      </g>
     </g>
     <g id="text_11">
      <!-- 5 -->
      <g transform="translate(124.835824 228.260555) scale(0.1 -0.1)">
       <use xlink:href="#DejaVuSans-35"/>
      </g>
     </g>
    </g>
    <g id="xtick_10">
     <g id="line2d_13">
      <g>
       <use xlink:href="#m7128cd366d" x="182.201421" y="213.662118" style="stroke: #000000; stroke-width: 0.8"/>
      </g>
     </g>
     <g id="text_12">
      <!-- 10 -->
      <g transform="translate(175.838921 228.260555) scale(0.1 -0.1)">
       <use xlink:href="#DejaVuSans-31"/>
       <use xlink:href="#DejaVuSans-30" x="63.623047"/>
      </g>
     </g>
    </g>
    <g id="xtick_11">
     <g id="line2d_14">
      <g>
       <use xlink:href="#m7128cd366d" x="236.385768" y="213.662118" style="stroke: #000000; stroke-width: 0.8"/>
      </g>
     </g>
     <g id="text_13">
      <!-- 15 -->
      <g transform="translate(230.023268 228.260555) scale(0.1 -0.1)">
       <use xlink:href="#DejaVuSans-31"/>
       <use xlink:href="#DejaVuSans-35" x="63.623047"/>
      </g>
     </g>
    </g>
    <g id="xtick_12">
     <g id="line2d_15">
      <g>
       <use xlink:href="#m7128cd366d" x="290.570115" y="213.662118" style="stroke: #000000; stroke-width: 0.8"/>
      </g>
     </g>
     <g id="text_14">
      <!-- 20 -->
      <g transform="translate(284.207615 228.260555) scale(0.1 -0.1)">
       <use xlink:href="#DejaVuSans-32"/>
       <use xlink:href="#DejaVuSans-30" x="63.623047"/>
      </g>
     </g>
    </g>
    <g id="xtick_13">
     <g id="line2d_16">
      <g>
       <use xlink:href="#m7128cd366d" x="344.754462" y="213.662118" style="stroke: #000000; stroke-width: 0.8"/>
      </g>
     </g>
     <g id="text_15">
      <!-- 25 -->
      <g transform="translate(338.391962 228.260555) scale(0.1 -0.1)">
       <use xlink:href="#DejaVuSans-32"/>
       <use xlink:href="#DejaVuSans-35" x="63.623047"/>
      </g>
     </g>
    </g>
    <g id="xtick_14">
     <g id="line2d_17">
      <g>
       <use xlink:href="#m7128cd366d" x="398.938809" y="213.662118" style="stroke: #000000; stroke-width: 0.8"/>
      </g>
     </g>
     <g id="text_16">
      <!-- 30 -->
      <g transform="translate(392.576309 228.260555) scale(0.1 -0.1)">
       <use xlink:href="#DejaVuSans-33"/>
       <use xlink:href="#DejaVuSans-30" x="63.623047"/>
      </g>
     </g>
    </g>
   </g>
   <g id="matplotlib.axis_4">
    <g id="ytick_3">
     <g id="line2d_18">
      <g>
       <use xlink:href="#maeba0105ee" x="57.6" y="210.104471" style="stroke: #000000; stroke-width: 0.8"/>
      </g>
     </g>
     <g id="text_17">
      <!-- 0 -->
      <g transform="translate(44.2375 213.903689) scale(0.1 -0.1)">
       <use xlink:href="#DejaVuSans-30"/>
      </g>
     </g>
    </g>
    <g id="ytick_4">
     <g id="line2d_19">
      <g>
       <use xlink:href="#maeba0105ee" x="57.6" y="174.528" style="stroke: #000000; stroke-width: 0.8"/>
      </g>
     </g>
     <g id="text_18">
      <!-- 50 -->
      <g transform="translate(37.875 178.327219) scale(0.1 -0.1)">
       <use xlink:href="#DejaVuSans-35"/>
       <use xlink:href="#DejaVuSans-30" x="63.623047"/>
      </g>
     </g>
    </g>
    <g id="ytick_5">
     <g id="line2d_20">
      <g>
       <use xlink:href="#maeba0105ee" x="57.6" y="138.951529" style="stroke: #000000; stroke-width: 0.8"/>
      </g>
     </g>
     <g id="text_19">
      <!-- 100 -->
      <g transform="translate(31.5125 142.750748) scale(0.1 -0.1)">
       <use xlink:href="#DejaVuSans-31"/>
       <use xlink:href="#DejaVuSans-30" x="63.623047"/>
       <use xlink:href="#DejaVuSans-30" x="127.246094"/>
      </g>
     </g>
    </g>
   </g>
   <g id="line2d_21">
    <path d="M 73.832727 151.759059 
L 74.284263 161.720471 
L 74.7358 161.720471 
L 75.187336 164.566588 
L 75.638872 173.104941 
L 76.090408 170.258824 
L 76.541945 165.989647 
L 76.993481 158.874353 
L 77.896553 161.720471 
L 78.34809 164.566588 
L 78.799626 173.104941 
L 79.251162 175.951059 
L 79.702698 177.374118 
L 80.154234 180.220235 
L 80.605771 181.643294 
L 81.057307 180.220235 
L 81.960379 183.066353 
L 82.411916 177.374118 
L 82.863452 158.874353 
L 83.314988 158.874353 
L 84.21806 144.643765 
L 84.669597 140.374588 
L 85.121133 138.951529 
L 104.085654 138.951529 
L 105.440263 143.220706 
L 105.891799 140.374588 
L 106.343335 140.374588 
L 106.794872 141.797647 
L 107.246408 141.797647 
L 107.697944 148.912941 
L 108.14948 143.220706 
L 108.601017 138.951529 
L 114.019451 138.951529 
L 114.922524 144.643765 
L 115.825596 147.489882 
L 116.277132 156.028235 
L 117.180205 143.220706 
L 117.631741 138.951529 
L 118.534814 138.951529 
L 118.98635 140.374588 
L 119.437886 138.951529 
L 131.629364 138.951529 
L 132.0809 140.374588 
L 132.532436 138.951529 
L 143.820842 138.951529 
L 145.175451 143.220706 
L 145.626987 140.374588 
L 146.078523 141.797647 
L 146.530059 144.643765 
L 147.884668 148.912941 
L 148.336204 151.759059 
L 148.787741 151.759059 
L 149.239277 147.489882 
L 150.593885 147.489882 
L 151.045422 146.066824 
L 151.496958 210.104471 
L 153.303103 210.104471 
L 153.754639 153.182118 
L 154.206175 141.797647 
L 154.657711 140.374588 
L 155.109248 143.220706 
L 155.560784 140.374588 
L 156.01232 138.951529 
L 160.076146 138.951529 
L 160.527682 140.374588 
L 160.979219 140.374588 
L 161.430755 138.951529 
L 162.333827 138.951529 
L 162.785364 140.374588 
L 163.2369 138.951529 
L 165.494581 138.951529 
L 165.946117 140.374588 
L 166.397653 138.951529 
L 166.84919 138.951529 
L 167.300726 140.374588 
L 167.752262 140.374588 
L 168.203798 143.220706 
L 169.106871 158.874353 
L 169.558407 153.182118 
L 170.009943 154.605176 
L 170.913016 167.412706 
L 171.364552 167.412706 
L 171.816088 164.566588 
L 172.71916 170.258824 
L 173.170697 170.258824 
L 173.622233 167.412706 
L 174.073769 170.258824 
L 174.525305 167.412706 
L 174.976842 170.258824 
L 175.428378 170.258824 
L 175.879914 175.951059 
L 176.782986 178.797176 
L 177.234523 178.797176 
L 177.686059 175.951059 
L 178.137595 165.989647 
L 178.589131 173.104941 
L 179.040668 175.951059 
L 179.94374 178.797176 
L 180.395276 175.951059 
L 180.846812 177.374118 
L 181.298349 174.528 
L 181.749885 177.374118 
L 182.201421 181.643294 
L 182.652957 171.681882 
L 183.104494 148.912941 
L 183.55603 147.489882 
L 184.007566 150.336 
L 184.459102 158.874353 
L 184.910639 161.720471 
L 185.362175 163.143529 
L 185.813711 158.874353 
L 186.265247 150.336 
L 186.716783 147.489882 
L 187.16832 151.759059 
L 187.619856 150.336 
L 188.071392 144.643765 
L 188.522928 144.643765 
L 188.974465 140.374588 
L 189.426001 138.951529 
L 195.747508 138.951529 
L 196.199044 140.374588 
L 196.65058 143.220706 
L 197.102117 140.374588 
L 197.553653 138.951529 
L 205.681305 138.951529 
L 206.132841 140.374588 
L 209.293595 140.374588 
L 209.745131 141.797647 
L 210.196667 144.643765 
L 210.648203 144.643765 
L 211.09974 138.951529 
L 213.357421 138.951529 
L 214.712029 143.220706 
L 215.163566 140.374588 
L 215.615102 140.374588 
L 216.066638 141.797647 
L 216.518174 148.912941 
L 216.96971 144.643765 
L 217.421247 144.643765 
L 217.872783 147.489882 
L 218.324319 156.028235 
L 218.775855 156.028235 
L 219.227392 148.912941 
L 219.678928 144.643765 
L 220.130464 144.643765 
L 220.582 147.489882 
L 221.033536 156.028235 
L 221.485073 156.028235 
L 221.936609 148.912941 
L 222.388145 144.643765 
L 222.839681 144.643765 
L 223.291218 141.797647 
L 224.19429 138.951529 
L 227.80658 138.951529 
L 228.258116 140.374588 
L 230.515797 140.374588 
L 230.967333 138.951529 
L 231.41887 138.951529 
L 231.870406 141.797647 
L 232.321942 151.759059 
L 232.773478 146.066824 
L 233.225015 141.797647 
L 233.676551 138.951529 
L 235.934232 138.951529 
L 236.385768 140.374588 
L 236.837304 140.374588 
L 237.288841 143.220706 
L 238.643449 143.220706 
L 239.094985 144.643765 
L 239.546522 144.643765 
L 239.998058 140.374588 
L 240.449594 138.951529 
L 241.804203 138.951529 
L 242.255739 140.374588 
L 244.061884 140.374588 
L 244.51342 138.951529 
L 251.286464 138.951529 
L 251.738 140.374588 
L 252.189536 140.374588 
L 252.641072 143.220706 
L 253.092608 143.220706 
L 253.995681 146.066824 
L 254.447217 144.643765 
L 254.898753 140.374588 
L 255.35029 138.951529 
L 256.253362 138.951529 
L 256.704898 140.374588 
L 258.059507 140.374588 
L 258.511043 138.951529 
L 258.962579 141.797647 
L 259.414116 151.759059 
L 259.865652 146.066824 
L 260.317188 141.797647 
L 260.768724 138.951529 
L 263.026405 138.951529 
L 263.477942 140.374588 
L 263.929478 138.951529 
L 269.347913 138.951529 
L 269.799449 140.374588 
L 270.250985 140.374588 
L 270.702521 143.220706 
L 271.605594 143.220706 
L 272.05713 144.643765 
L 272.508666 140.374588 
L 272.960202 138.951529 
L 274.766347 138.951529 
L 275.217883 140.374588 
L 276.572492 140.374588 
L 277.475565 156.028235 
L 278.378637 143.220706 
L 278.830173 138.951529 
L 279.281709 140.374588 
L 279.733246 138.951529 
L 282.893999 138.951529 
L 283.345535 140.374588 
L 283.797072 138.951529 
L 288.76397 138.951529 
L 289.215506 141.797647 
L 289.667043 151.759059 
L 290.118579 146.066824 
L 291.021651 146.066824 
L 291.473188 210.104471 
L 292.37626 210.104471 
L 292.827796 156.028235 
L 293.279332 150.336 
L 293.730869 147.489882 
L 294.182405 146.066824 
L 294.633941 146.066824 
L 295.537014 148.912941 
L 295.98855 154.605176 
L 296.440086 156.028235 
L 296.891622 158.874353 
L 297.343158 163.143529 
L 297.794695 173.104941 
L 298.246231 167.412706 
L 298.697767 163.143529 
L 299.149303 157.451294 
L 299.60084 156.028235 
L 300.052376 144.643765 
L 300.955448 144.643765 
L 301.406984 146.066824 
L 301.858521 146.066824 
L 302.310057 144.643765 
L 303.213129 144.643765 
L 303.664666 146.066824 
L 304.567738 146.066824 
L 305.019274 147.489882 
L 305.47081 147.489882 
L 305.922347 146.066824 
L 306.373883 147.489882 
L 307.276955 147.489882 
L 308.180028 144.643765 
L 308.631564 141.797647 
L 309.0831 143.220706 
L 309.534636 138.951529 
L 314.049999 138.951529 
L 314.501535 140.374588 
L 314.953071 140.374588 
L 315.404607 143.220706 
L 316.759216 143.220706 
L 317.210752 144.643765 
L 317.662289 144.643765 
L 318.113825 146.066824 
L 318.565361 144.643765 
L 319.016897 140.374588 
L 319.468433 138.951529 
L 327.596085 138.951529 
L 328.047622 140.374588 
L 333.01452 140.374588 
L 333.917593 146.066824 
L 334.369129 147.489882 
L 334.820665 150.336 
L 335.272201 150.336 
L 336.175274 147.489882 
L 336.62681 147.489882 
L 337.078346 146.066824 
L 337.529882 146.066824 
L 337.981419 147.489882 
L 338.884491 147.489882 
L 339.336027 140.374588 
L 339.787564 146.066824 
L 340.2391 158.874353 
L 340.690636 161.720471 
L 341.142172 163.143529 
L 341.593708 157.451294 
L 342.045245 156.028235 
L 342.496781 144.643765 
L 342.948317 144.643765 
L 343.399853 141.797647 
L 343.85139 143.220706 
L 344.302926 138.951529 
L 350.624433 138.951529 
L 351.075969 140.374588 
L 352.430578 140.374588 
L 352.882114 147.489882 
L 353.33365 148.912941 
L 353.785186 151.759059 
L 354.236723 147.489882 
L 354.688259 147.489882 
L 355.139795 146.066824 
L 356.94594 146.066824 
L 357.397476 144.643765 
L 357.849013 141.797647 
L 358.752085 144.643765 
L 362.364375 144.643765 
L 362.815911 141.797647 
L 363.267447 143.220706 
L 363.718983 138.951529 
L 370.040491 138.951529 
L 370.492027 140.374588 
L 370.943563 140.374588 
L 371.395099 143.220706 
L 371.846635 143.220706 
L 373.65278 148.912941 
L 374.104317 154.605176 
L 374.555853 156.028235 
L 375.007389 156.028235 
L 375.458925 158.874353 
L 375.910461 163.143529 
L 376.361998 173.104941 
L 376.813534 167.412706 
L 377.26507 163.143529 
L 377.716606 157.451294 
L 378.168143 156.028235 
L 378.619679 144.643765 
L 380.87736 144.643765 
L 382.231969 148.912941 
L 382.683505 151.759059 
L 383.135041 147.489882 
L 384.038114 144.643765 
L 384.48965 141.797647 
L 385.392722 144.643765 
L 387.198867 144.643765 
L 387.650403 146.066824 
L 388.10194 141.797647 
L 388.553476 138.951529 
L 392.617302 138.951529 
L 393.068838 140.374588 
L 393.520374 138.951529 
L 393.97191 138.951529 
L 394.423447 140.374588 
L 394.874983 138.951529 
L 398.487273 138.951529 
L 398.487273 138.951529 
" clip-path="url(#p7456929921)" style="fill: none; stroke: #1f77b4; stroke-width: 1.5; stroke-linecap: square"/>
   </g>
   <g id="patch_8">
    <path d="M 57.6 213.662118 
L 57.6 135.393882 
" style="fill: none; stroke: #000000; stroke-width: 0.8; stroke-linejoin: miter; stroke-linecap: square"/>
   </g>
   <g id="patch_9">
    <path d="M 414.72 213.662118 
L 414.72 135.393882 
" style="fill: none; stroke: #000000; stroke-width: 0.8; stroke-linejoin: miter; stroke-linecap: square"/>
   </g>
   <g id="patch_10">
    <path d="M 57.6 213.662118 
L 414.72 213.662118 
" style="fill: none; stroke: #000000; stroke-width: 0.8; stroke-linejoin: miter; stroke-linecap: square"/>
   </g>
   <g id="patch_11">
    <path d="M 57.6 135.393882 
L 414.72 135.393882 
" style="fill: none; stroke: #000000; stroke-width: 0.8; stroke-linejoin: miter; stroke-linecap: square"/>
   </g>
  </g>
  <g id="axes_3">
   <g id="patch_12">
    <path d="M 57.6 307.584 
L 414.72 307.584 
L 414.72 229.315765 
L 57.6 229.315765 
z
" style="fill: #ffffff"/>
   </g>
   <g id="matplotlib.axis_5">
    <g id="xtick_15">
     <g id="line2d_22">
      <g>
       <use xlink:href="#m7128cd366d" x="73.832727" y="307.584" style="stroke: #000000; stroke-width: 0.8"/>
      </g>
     </g>
     <g id="text_20">
      <!-- 0 -->
      <g transform="translate(70.651477 322.182437) scale(0.1 -0.1)">
       <use xlink:href="#DejaVuSans-30"/>
      </g>
     </g>
    </g>
    <g id="xtick_16">
     <g id="line2d_23">
      <g>
       <use xlink:href="#m7128cd366d" x="128.017074" y="307.584" style="stroke: #000000; stroke-width: 0.8"/>
      </g>
     </g>
     <g id="text_21">
      <!-- 5 -->
      <g transform="translate(124.835824 322.182437) scale(0.1 -0.1)">
       <use xlink:href="#DejaVuSans-35"/>
      </g>
     </g>
    </g>
    <g id="xtick_17">
     <g id="line2d_24">
      <g>
       <use xlink:href="#m7128cd366d" x="182.201421" y="307.584" style="stroke: #000000; stroke-width: 0.8"/>
      </g>
     </g>
     <g id="text_22">
      <!-- 10 -->
      <g transform="translate(175.838921 322.182437) scale(0.1 -0.1)">
       <use xlink:href="#DejaVuSans-31"/>
       <use xlink:href="#DejaVuSans-30" x="63.623047"/>
      </g>
     </g>
    </g>
    <g id="xtick_18">
     <g id="line2d_25">
      <g>
       <use xlink:href="#m7128cd366d" x="236.385768" y="307.584" style="stroke: #000000; stroke-width: 0.8"/>
      </g>
     </g>
     <g id="text_23">
      <!-- 15 -->
      <g transform="translate(230.023268 322.182437) scale(0.1 -0.1)">
       <use xlink:href="#DejaVuSans-31"/>
       <use xlink:href="#DejaVuSans-35" x="63.623047"/>
      </g>
     </g>
    </g>
    <g id="xtick_19">
     <g id="line2d_26">
      <g>
       <use xlink:href="#m7128cd366d" x="290.570115" y="307.584" style="stroke: #000000; stroke-width: 0.8"/>
      </g>
     </g>
     <g id="text_24">
      <!-- 20 -->
      <g transform="translate(284.207615 322.182437) scale(0.1 -0.1)">
       <use xlink:href="#DejaVuSans-32"/>
       <use xlink:href="#DejaVuSans-30" x="63.623047"/>
      </g>
     </g>
    </g>
    <g id="xtick_20">
     <g id="line2d_27">
      <g>
       <use xlink:href="#m7128cd366d" x="344.754462" y="307.584" style="stroke: #000000; stroke-width: 0.8"/>
      </g>
     </g>
     <g id="text_25">
      <!-- 25 -->
      <g transform="translate(338.391962 322.182437) scale(0.1 -0.1)">
       <use xlink:href="#DejaVuSans-32"/>
       <use xlink:href="#DejaVuSans-35" x="63.623047"/>
      </g>
     </g>
    </g>
    <g id="xtick_21">
     <g id="line2d_28">
      <g>
       <use xlink:href="#m7128cd366d" x="398.938809" y="307.584" style="stroke: #000000; stroke-width: 0.8"/>
      </g>
     </g>
     <g id="text_26">
      <!-- 30 -->
      <g transform="translate(392.576309 322.182437) scale(0.1 -0.1)">
       <use xlink:href="#DejaVuSans-33"/>
       <use xlink:href="#DejaVuSans-30" x="63.623047"/>
      </g>
     </g>
    </g>
   </g>
   <g id="matplotlib.axis_6">
    <g id="ytick_6">
     <g id="line2d_29">
      <g>
       <use xlink:href="#maeba0105ee" x="57.6" y="304.026353" style="stroke: #000000; stroke-width: 0.8"/>
      </g>
     </g>
     <g id="text_27">
      <!-- 0.0 -->
      <g transform="translate(34.696875 307.825572) scale(0.1 -0.1)">
       <defs>
        <path id="DejaVuSans-2e" d="M 684 794 
L 1344 794 
L 1344 0 
L 684 0 
L 684 794 
z
" transform="scale(0.015625)"/>
       </defs>
       <use xlink:href="#DejaVuSans-30"/>
       <use xlink:href="#DejaVuSans-2e" x="63.623047"/>
       <use xlink:href="#DejaVuSans-30" x="95.410156"/>
      </g>
     </g>
    </g>
    <g id="ytick_7">
     <g id="line2d_30">
      <g>
       <use xlink:href="#maeba0105ee" x="57.6" y="268.449882" style="stroke: #000000; stroke-width: 0.8"/>
      </g>
     </g>
     <g id="text_28">
      <!-- 0.5 -->
      <g transform="translate(34.696875 272.249101) scale(0.1 -0.1)">
       <use xlink:href="#DejaVuSans-30"/>
       <use xlink:href="#DejaVuSans-2e" x="63.623047"/>
       <use xlink:href="#DejaVuSans-35" x="95.410156"/>
      </g>
     </g>
    </g>
    <g id="ytick_8">
     <g id="line2d_31">
      <g>
       <use xlink:href="#maeba0105ee" x="57.6" y="232.873412" style="stroke: #000000; stroke-width: 0.8"/>
      </g>
     </g>
     <g id="text_29">
      <!-- 1.0 -->
      <g transform="translate(34.696875 236.672631) scale(0.1 -0.1)">
       <use xlink:href="#DejaVuSans-31"/>
       <use xlink:href="#DejaVuSans-2e" x="63.623047"/>
       <use xlink:href="#DejaVuSans-30" x="95.410156"/>
      </g>
     </g>
    </g>
   </g>
   <g id="line2d_32">
    <path d="M 73.832727 304.026353 
L 91.44264 304.026353 
L 91.894176 232.873412 
L 92.345712 232.873412 
L 92.797249 304.026353 
L 398.487273 304.026353 
L 398.487273 304.026353 
" clip-path="url(#pe3d50420f5)" style="fill: none; stroke: #1f77b4; stroke-width: 1.5; stroke-linecap: square"/>
   </g>
   <g id="patch_13">
    <path d="M 57.6 307.584 
L 57.6 229.315765 
" style="fill: none; stroke: #000000; stroke-width: 0.8; stroke-linejoin: miter; stroke-linecap: square"/>
   </g>
   <g id="patch_14">
    <path d="M 414.72 307.584 
L 414.72 229.315765 
" style="fill: none; stroke: #000000; stroke-width: 0.8; stroke-linejoin: miter; stroke-linecap: square"/>
   </g>
   <g id="patch_15">
    <path d="M 57.6 307.584 
L 414.72 307.584 
" style="fill: none; stroke: #000000; stroke-width: 0.8; stroke-linejoin: miter; stroke-linecap: square"/>
   </g>
   <g id="patch_16">
    <path d="M 57.6 229.315765 
L 414.72 229.315765 
" style="fill: none; stroke: #000000; stroke-width: 0.8; stroke-linejoin: miter; stroke-linecap: square"/>
   </g>
  </g>
  <g id="text_30">
   <!-- cleaned_weather_fall -->
   <g transform="translate(167.050313 16.030125) scale(0.12 -0.12)">
    <defs>
     <path id="DejaVuSans-63" d="M 3122 3366 
L 3122 2828 
Q 2878 2963 2633 3030 
Q 2388 3097 2138 3097 
Q 1578 3097 1268 2742 
Q 959 2388 959 1747 
Q 959 1106 1268 751 
Q 1578 397 2138 397 
Q 2388 397 2633 464 
Q 2878 531 3122 666 
L 3122 134 
Q 2881 22 2623 -34 
Q 2366 -91 2075 -91 
Q 1284 -91 818 406 
Q 353 903 353 1747 
Q 353 2603 823 3093 
Q 1294 3584 2113 3584 
Q 2378 3584 2631 3529 
Q 2884 3475 3122 3366 
z
" transform="scale(0.015625)"/>
     <path id="DejaVuSans-6c" d="M 603 4863 
L 1178 4863 
L 1178 0 
L 603 0 
L 603 4863 
z
" transform="scale(0.015625)"/>
     <path id="DejaVuSans-65" d="M 3597 1894 
L 3597 1613 
L 953 1613 
Q 991 1019 1311 708 
Q 1631 397 2203 397 
Q 2534 397 2845 478 
Q 3156 559 3463 722 
L 3463 178 
Q 3153 47 2828 -22 
Q 2503 -91 2169 -91 
Q 1331 -91 842 396 
Q 353 884 353 1716 
Q 353 2575 817 3079 
Q 1281 3584 2069 3584 
Q 2775 3584 3186 3129 
Q 3597 2675 3597 1894 
z
M 3022 2063 
Q 3016 2534 2758 2815 
Q 2500 3097 2075 3097 
Q 1594 3097 1305 2825 
Q 1016 2553 972 2059 
L 3022 2063 
z
" transform="scale(0.015625)"/>
     <path id="DejaVuSans-61" d="M 2194 1759 
Q 1497 1759 1228 1600 
Q 959 1441 959 1056 
Q 959 750 1161 570 
Q 1363 391 1709 391 
Q 2188 391 2477 730 
Q 2766 1069 2766 1631 
L 2766 1759 
L 2194 1759 
z
M 3341 1997 
L 3341 0 
L 2766 0 
L 2766 531 
Q 2569 213 2275 61 
Q 1981 -91 1556 -91 
Q 1019 -91 701 211 
Q 384 513 384 1019 
Q 384 1609 779 1909 
Q 1175 2209 1959 2209 
L 2766 2209 
L 2766 2266 
Q 2766 2663 2505 2880 
Q 2244 3097 1772 3097 
Q 1472 3097 1187 3025 
Q 903 2953 641 2809 
L 641 3341 
Q 956 3463 1253 3523 
Q 1550 3584 1831 3584 
Q 2591 3584 2966 3190 
Q 3341 2797 3341 1997 
z
" transform="scale(0.015625)"/>
     <path id="DejaVuSans-6e" d="M 3513 2113 
L 3513 0 
L 2938 0 
L 2938 2094 
Q 2938 2591 2744 2837 
Q 2550 3084 2163 3084 
Q 1697 3084 1428 2787 
Q 1159 2491 1159 1978 
L 1159 0 
L 581 0 
L 581 3500 
L 1159 3500 
L 1159 2956 
Q 1366 3272 1645 3428 
Q 1925 3584 2291 3584 
Q 2894 3584 3203 3211 
Q 3513 2838 3513 2113 
z
" transform="scale(0.015625)"/>
     <path id="DejaVuSans-64" d="M 2906 2969 
L 2906 4863 
L 3481 4863 
L 3481 0 
L 2906 0 
L 2906 525 
Q 2725 213 2448 61 
Q 2172 -91 1784 -91 
Q 1150 -91 751 415 
Q 353 922 353 1747 
Q 353 2572 751 3078 
Q 1150 3584 1784 3584 
Q 2172 3584 2448 3432 
Q 2725 3281 2906 2969 
z
M 947 1747 
Q 947 1113 1208 752 
Q 1469 391 1925 391 
Q 2381 391 2643 752 
Q 2906 1113 2906 1747 
Q 2906 2381 2643 2742 
Q 2381 3103 1925 3103 
Q 1469 3103 1208 2742 
Q 947 2381 947 1747 
z
" transform="scale(0.015625)"/>
     <path id="DejaVuSans-5f" d="M 3263 -1063 
L 3263 -1509 
L -63 -1509 
L -63 -1063 
L 3263 -1063 
z
" transform="scale(0.015625)"/>
     <path id="DejaVuSans-77" d="M 269 3500 
L 844 3500 
L 1563 769 
L 2278 3500 
L 2956 3500 
L 3675 769 
L 4391 3500 
L 4966 3500 
L 4050 0 
L 3372 0 
L 2619 2869 
L 1863 0 
L 1184 0 
L 269 3500 
z
" transform="scale(0.015625)"/>
     <path id="DejaVuSans-74" d="M 1172 4494 
L 1172 3500 
L 2356 3500 
L 2356 3053 
L 1172 3053 
L 1172 1153 
Q 1172 725 1289 603 
Q 1406 481 1766 481 
L 2356 481 
L 2356 0 
L 1766 0 
Q 1100 0 847 248 
Q 594 497 594 1153 
L 594 3053 
L 172 3053 
L 172 3500 
L 594 3500 
L 594 4494 
L 1172 4494 
z
" transform="scale(0.015625)"/>
     <path id="DejaVuSans-68" d="M 3513 2113 
L 3513 0 
L 2938 0 
L 2938 2094 
Q 2938 2591 2744 2837 
Q 2550 3084 2163 3084 
Q 1697 3084 1428 2787 
Q 1159 2491 1159 1978 
L 1159 0 
L 581 0 
L 581 4863 
L 1159 4863 
L 1159 2956 
Q 1366 3272 1645 3428 
Q 1925 3584 2291 3584 
Q 2894 3584 3203 3211 
Q 3513 2838 3513 2113 
z
" transform="scale(0.015625)"/>
     <path id="DejaVuSans-72" d="M 2631 2963 
Q 2534 3019 2420 3045 
Q 2306 3072 2169 3072 
Q 1681 3072 1420 2755 
Q 1159 2438 1159 1844 
L 1159 0 
L 581 0 
L 581 3500 
L 1159 3500 
L 1159 2956 
Q 1341 3275 1631 3429 
Q 1922 3584 2338 3584 
Q 2397 3584 2469 3576 
Q 2541 3569 2628 3553 
L 2631 2963 
z
" transform="scale(0.015625)"/>
     <path id="DejaVuSans-66" d="M 2375 4863 
L 2375 4384 
L 1825 4384 
Q 1516 4384 1395 4259 
Q 1275 4134 1275 3809 
L 1275 3500 
L 2222 3500 
L 2222 3053 
L 1275 3053 
L 1275 0 
L 697 0 
L 697 3053 
L 147 3053 
L 147 3500 
L 697 3500 
L 697 3744 
Q 697 4328 969 4595 
Q 1241 4863 1831 4863 
L 2375 4863 
z
" transform="scale(0.015625)"/>
    </defs>
    <use xlink:href="#DejaVuSans-63"/>
    <use xlink:href="#DejaVuSans-6c" x="54.980469"/>
    <use xlink:href="#DejaVuSans-65" x="82.763672"/>
    <use xlink:href="#DejaVuSans-61" x="144.287109"/>
    <use xlink:href="#DejaVuSans-6e" x="205.566406"/>
    <use xlink:href="#DejaVuSans-65" x="268.945312"/>
    <use xlink:href="#DejaVuSans-64" x="330.46875"/>
    <use xlink:href="#DejaVuSans-5f" x="393.945312"/>
    <use xlink:href="#DejaVuSans-77" x="443.945312"/>
    <use xlink:href="#DejaVuSans-65" x="525.732422"/>
    <use xlink:href="#DejaVuSans-61" x="587.255859"/>
    <use xlink:href="#DejaVuSans-74" x="648.535156"/>
    <use xlink:href="#DejaVuSans-68" x="687.744141"/>
    <use xlink:href="#DejaVuSans-65" x="751.123047"/>
    <use xlink:href="#DejaVuSans-72" x="812.646484"/>
    <use xlink:href="#DejaVuSans-5f" x="853.759766"/>
    <use xlink:href="#DejaVuSans-66" x="903.759766"/>
    <use xlink:href="#DejaVuSans-61" x="938.964844"/>
    <use xlink:href="#DejaVuSans-6c" x="1000.244141"/>
    <use xlink:href="#DejaVuSans-6c" x="1028.027344"/>
   </g>
  </g>
 </g>
 <defs>
  <clipPath id="p7d468779ba">
   <rect x="57.6" y="41.472" width="357.12" height="78.268235"/>
  </clipPath>
  <clipPath id="p7456929921">
   <rect x="57.6" y="135.393882" width="357.12" height="78.268235"/>
  </clipPath>
  <clipPath id="pe3d50420f5">
   <rect x="57.6" y="229.315765" width="357.12" height="78.268235"/>
  </clipPath>
 </defs>
</svg>
