<?xml version="1.0" encoding="utf-8" standalone="no"?>
<!DOCTYPE svg PUBLIC "-//W3C//DTD SVG 1.1//EN"
  "http://www.w3.org/Graphics/SVG/1.1/DTD/svg11.dtd">
<svg xmlns:xlink="http://www.w3.org/1999/xlink" width="460.8pt" height="345.6pt" viewBox="0 0 460.8 345.6" xmlns="http://www.w3.org/2000/svg" version="1.1">
 <metadata>
  <rdf:RDF xmlns:dc="http://purl.org/dc/elements/1.1/" xmlns:cc="http://creativecommons.org/ns#" xmlns:rdf="http://www.w3.org/1999/02/22-rdf-syntax-ns#">
   <cc:Work>
    <dc:type rdf:resource="http://purl.org/dc/dcmitype/StillImage"/>
    <dc:date>2023-03-02T15:27:55.812233</dc:date>
    <dc:format>image/svg+xml</dc:format>
    <dc:creator>
     <cc:Agent>
      <dc:title>Matplotlib v3.6.3, https://matplotlib.org/</dc:title>
     </cc:Agent>
    </dc:creator>
   </cc:Work>
  </rdf:RDF>
 </metadata>
 <defs>
  <style type="text/css">*{stroke-linejoin: round; stroke-linecap: butt}</style>
 </defs>
 <g id="figure_1">
  <g id="patch_1">
   <path d="M 0 345.6 
L 460.8 345.6 
L 460.8 0 
L 0 0 
z
" style="fill: #ffffff"/>
  </g>
  <g id="axes_1">
   <g id="patch_2">
    <path d="M 57.6 119.740235 
L 414.72 119.740235 
L 414.72 41.472 
L 57.6 41.472 
z
" style="fill: #ffffff"/>
   </g>
   <g id="matplotlib.axis_1">
    <g id="xtick_1">
     <g id="line2d_1">
      <defs>
       <path id="m54d11e26e1" d="M 0 0 
L 0 3.5 
" style="stroke: #000000; stroke-width: 0.8"/>
      </defs>
      <g>
       <use xlink:href="#m54d11e26e1" x="73.832727" y="119.740235" style="stroke: #000000; stroke-width: 0.8"/>
      </g>
     </g>
     <g id="text_1">
      <!-- 0 -->
      <g transform="translate(70.651477 134.338673) scale(0.1 -0.1)">
       <defs>
        <path id="DejaVuSans-30" d="M 2034 4250 
Q 1547 4250 1301 3770 
Q 1056 3291 1056 2328 
Q 1056 1369 1301 889 
Q 1547 409 2034 409 
Q 2525 409 2770 889 
Q 3016 1369 3016 2328 
Q 3016 3291 2770 3770 
Q 2525 4250 2034 4250 
z
M 2034 4750 
Q 2819 4750 3233 4129 
Q 3647 3509 3647 2328 
Q 3647 1150 3233 529 
Q 2819 -91 2034 -91 
Q 1250 -91 836 529 
Q 422 1150 422 2328 
Q 422 3509 836 4129 
Q 1250 4750 2034 4750 
z
" transform="scale(0.015625)"/>
       </defs>
       <use xlink:href="#DejaVuSans-30"/>
      </g>
     </g>
    </g>
    <g id="xtick_2">
     <g id="line2d_2">
      <g>
       <use xlink:href="#m54d11e26e1" x="128.017074" y="119.740235" style="stroke: #000000; stroke-width: 0.8"/>
      </g>
     </g>
     <g id="text_2">
      <!-- 5 -->
      <g transform="translate(124.835824 134.338673) scale(0.1 -0.1)">
       <defs>
        <path id="DejaVuSans-35" d="M 691 4666 
L 3169 4666 
L 3169 4134 
L 1269 4134 
L 1269 2991 
Q 1406 3038 1543 3061 
Q 1681 3084 1819 3084 
Q 2600 3084 3056 2656 
Q 3513 2228 3513 1497 
Q 3513 744 3044 326 
Q 2575 -91 1722 -91 
Q 1428 -91 1123 -41 
Q 819 9 494 109 
L 494 744 
Q 775 591 1075 516 
Q 1375 441 1709 441 
Q 2250 441 2565 725 
Q 2881 1009 2881 1497 
Q 2881 1984 2565 2268 
Q 2250 2553 1709 2553 
Q 1456 2553 1204 2497 
Q 953 2441 691 2322 
L 691 4666 
z
" transform="scale(0.015625)"/>
       </defs>
       <use xlink:href="#DejaVuSans-35"/>
      </g>
     </g>
    </g>
    <g id="xtick_3">
     <g id="line2d_3">
      <g>
       <use xlink:href="#m54d11e26e1" x="182.201421" y="119.740235" style="stroke: #000000; stroke-width: 0.8"/>
      </g>
     </g>
     <g id="text_3">
      <!-- 10 -->
      <g transform="translate(175.838921 134.338673) scale(0.1 -0.1)">
       <defs>
        <path id="DejaVuSans-31" d="M 794 531 
L 1825 531 
L 1825 4091 
L 703 3866 
L 703 4441 
L 1819 4666 
L 2450 4666 
L 2450 531 
L 3481 531 
L 3481 0 
L 794 0 
L 794 531 
z
" transform="scale(0.015625)"/>
       </defs>
       <use xlink:href="#DejaVuSans-31"/>
       <use xlink:href="#DejaVuSans-30" x="63.623047"/>
      </g>
     </g>
    </g>
    <g id="xtick_4">
     <g id="line2d_4">
      <g>
       <use xlink:href="#m54d11e26e1" x="236.385768" y="119.740235" style="stroke: #000000; stroke-width: 0.8"/>
      </g>
     </g>
     <g id="text_4">
      <!-- 15 -->
      <g transform="translate(230.023268 134.338673) scale(0.1 -0.1)">
       <use xlink:href="#DejaVuSans-31"/>
       <use xlink:href="#DejaVuSans-35" x="63.623047"/>
      </g>
     </g>
    </g>
    <g id="xtick_5">
     <g id="line2d_5">
      <g>
       <use xlink:href="#m54d11e26e1" x="290.570115" y="119.740235" style="stroke: #000000; stroke-width: 0.8"/>
      </g>
     </g>
     <g id="text_5">
      <!-- 20 -->
      <g transform="translate(284.207615 134.338673) scale(0.1 -0.1)">
       <defs>
        <path id="DejaVuSans-32" d="M 1228 531 
L 3431 531 
L 3431 0 
L 469 0 
L 469 531 
Q 828 903 1448 1529 
Q 2069 2156 2228 2338 
Q 2531 2678 2651 2914 
Q 2772 3150 2772 3378 
Q 2772 3750 2511 3984 
Q 2250 4219 1831 4219 
Q 1534 4219 1204 4116 
Q 875 4013 500 3803 
L 500 4441 
Q 881 4594 1212 4672 
Q 1544 4750 1819 4750 
Q 2544 4750 2975 4387 
Q 3406 4025 3406 3419 
Q 3406 3131 3298 2873 
Q 3191 2616 2906 2266 
Q 2828 2175 2409 1742 
Q 1991 1309 1228 531 
z
" transform="scale(0.015625)"/>
       </defs>
       <use xlink:href="#DejaVuSans-32"/>
       <use xlink:href="#DejaVuSans-30" x="63.623047"/>
      </g>
     </g>
    </g>
    <g id="xtick_6">
     <g id="line2d_6">
      <g>
       <use xlink:href="#m54d11e26e1" x="344.754462" y="119.740235" style="stroke: #000000; stroke-width: 0.8"/>
      </g>
     </g>
     <g id="text_6">
      <!-- 25 -->
      <g transform="translate(338.391962 134.338673) scale(0.1 -0.1)">
       <use xlink:href="#DejaVuSans-32"/>
       <use xlink:href="#DejaVuSans-35" x="63.623047"/>
      </g>
     </g>
    </g>
    <g id="xtick_7">
     <g id="line2d_7">
      <g>
       <use xlink:href="#m54d11e26e1" x="398.938809" y="119.740235" style="stroke: #000000; stroke-width: 0.8"/>
      </g>
     </g>
     <g id="text_7">
      <!-- 30 -->
      <g transform="translate(392.576309 134.338673) scale(0.1 -0.1)">
       <defs>
        <path id="DejaVuSans-33" d="M 2597 2516 
Q 3050 2419 3304 2112 
Q 3559 1806 3559 1356 
Q 3559 666 3084 287 
Q 2609 -91 1734 -91 
Q 1441 -91 1130 -33 
Q 819 25 488 141 
L 488 750 
Q 750 597 1062 519 
Q 1375 441 1716 441 
Q 2309 441 2620 675 
Q 2931 909 2931 1356 
Q 2931 1769 2642 2001 
Q 2353 2234 1838 2234 
L 1294 2234 
L 1294 2753 
L 1863 2753 
Q 2328 2753 2575 2939 
Q 2822 3125 2822 3475 
Q 2822 3834 2567 4026 
Q 2313 4219 1838 4219 
Q 1578 4219 1281 4162 
Q 984 4106 628 3988 
L 628 4550 
Q 988 4650 1302 4700 
Q 1616 4750 1894 4750 
Q 2613 4750 3031 4423 
Q 3450 4097 3450 3541 
Q 3450 3153 3228 2886 
Q 3006 2619 2597 2516 
z
" transform="scale(0.015625)"/>
       </defs>
       <use xlink:href="#DejaVuSans-33"/>
       <use xlink:href="#DejaVuSans-30" x="63.623047"/>
      </g>
     </g>
    </g>
   </g>
   <g id="matplotlib.axis_2">
    <g id="ytick_1">
     <g id="line2d_8">
      <defs>
       <path id="m2d700406ec" d="M 0 0 
L -3.5 0 
" style="stroke: #000000; stroke-width: 0.8"/>
      </defs>
      <g>
       <use xlink:href="#m2d700406ec" x="57.6" y="118.275322" style="stroke: #000000; stroke-width: 0.8"/>
      </g>
     </g>
     <g id="text_8">
      <!-- 0 -->
      <g transform="translate(44.2375 122.074541) scale(0.1 -0.1)">
       <use xlink:href="#DejaVuSans-30"/>
      </g>
     </g>
    </g>
    <g id="ytick_2">
     <g id="line2d_9">
      <g>
       <use xlink:href="#m2d700406ec" x="57.6" y="76.420651" style="stroke: #000000; stroke-width: 0.8"/>
      </g>
     </g>
     <g id="text_9">
      <!-- 20 -->
      <g transform="translate(37.875 80.219869) scale(0.1 -0.1)">
       <use xlink:href="#DejaVuSans-32"/>
       <use xlink:href="#DejaVuSans-30" x="63.623047"/>
      </g>
     </g>
    </g>
   </g>
   <g id="line2d_10">
    <path d="M 73.832727 95.255253 
L 74.284263 97.347986 
L 74.7358 95.255253 
L 75.187336 97.347986 
L 75.638872 93.162519 
L 76.541945 97.347986 
L 76.993481 86.884318 
L 77.896553 91.069785 
L 78.34809 88.977052 
L 79.251162 72.235183 
L 80.154234 68.049716 
L 81.057307 68.049716 
L 81.508843 76.420651 
L 82.863452 82.698851 
L 84.669597 82.698851 
L 85.572669 86.884318 
L 86.024205 86.884318 
L 86.927278 82.698851 
L 87.378814 86.884318 
L 87.83035 86.884318 
L 88.281886 80.606118 
L 89.184959 57.586048 
L 89.636495 53.400581 
L 90.539568 49.215114 
L 90.991104 53.400581 
L 91.44264 59.678782 
L 91.894176 57.586048 
L 92.345712 61.771516 
L 93.700321 68.049716 
L 94.151857 72.235183 
L 94.603394 78.513384 
L 95.05493 82.698851 
L 95.506466 84.791585 
L 95.958002 88.977052 
L 96.409539 91.069785 
L 98.66722 91.069785 
L 99.118756 93.162519 
L 99.570292 88.977052 
L 100.021828 91.069785 
L 100.473365 95.255253 
L 100.924901 95.255253 
L 101.827973 99.44072 
L 102.279509 97.347986 
L 102.731046 99.44072 
L 104.085654 93.162519 
L 104.537191 93.162519 
L 104.988727 97.347986 
L 105.440263 99.44072 
L 105.891799 103.626187 
L 106.343335 105.71892 
L 106.794872 99.44072 
L 107.246408 101.533453 
L 107.697944 99.44072 
L 108.601017 103.626187 
L 109.052553 101.533453 
L 109.504089 103.626187 
L 110.407161 111.997121 
L 110.858698 111.997121 
L 111.310234 103.626187 
L 111.76177 101.533453 
L 112.213306 101.533453 
L 112.664843 99.44072 
L 113.116379 101.533453 
L 114.922524 101.533453 
L 115.37406 99.44072 
L 115.825596 99.44072 
L 116.728669 107.811654 
L 117.631741 107.811654 
L 118.083277 103.626187 
L 118.534814 101.533453 
L 118.98635 101.533453 
L 119.437886 99.44072 
L 120.792495 99.44072 
L 121.244031 95.255253 
L 121.695567 86.884318 
L 122.147103 82.698851 
L 122.59864 86.884318 
L 123.050176 93.162519 
L 123.501712 97.347986 
L 123.953248 99.44072 
L 124.856321 99.44072 
L 126.210929 105.71892 
L 126.662466 101.533453 
L 127.114002 101.533453 
L 127.565538 103.626187 
L 128.017074 95.255253 
L 128.920147 99.44072 
L 129.371683 99.44072 
L 130.274755 107.811654 
L 131.177828 103.626187 
L 131.629364 105.71892 
L 132.0809 103.626187 
L 132.983973 86.884318 
L 133.435509 88.977052 
L 133.887045 93.162519 
L 134.338581 93.162519 
L 134.790118 88.977052 
L 135.241654 86.884318 
L 135.69319 82.698851 
L 136.144726 82.698851 
L 136.596262 80.606118 
L 137.047799 84.791585 
L 137.499335 86.884318 
L 137.950871 91.069785 
L 138.402407 88.977052 
L 138.853944 91.069785 
L 139.757016 82.698851 
L 140.208552 86.884318 
L 140.660089 86.884318 
L 141.111625 82.698851 
L 142.014697 82.698851 
L 142.466233 80.606118 
L 142.91777 82.698851 
L 143.369306 78.513384 
L 143.820842 80.606118 
L 144.272378 80.606118 
L 144.723915 76.420651 
L 145.175451 78.513384 
L 145.626987 76.420651 
L 146.078523 76.420651 
L 146.530059 80.606118 
L 147.433132 76.420651 
L 147.884668 82.698851 
L 148.336204 78.513384 
L 150.142349 86.884318 
L 150.593885 84.791585 
L 151.045422 84.791585 
L 151.496958 82.698851 
L 151.948494 84.791585 
L 152.40003 84.791585 
L 152.851567 88.977052 
L 154.206175 82.698851 
L 154.657711 84.791585 
L 155.109248 82.698851 
L 155.560784 82.698851 
L 156.01232 78.513384 
L 156.463856 82.698851 
L 156.915393 82.698851 
L 157.366929 78.513384 
L 157.818465 76.420651 
L 158.270001 76.420651 
L 159.173074 68.049716 
L 159.62461 68.049716 
L 160.076146 65.956983 
L 160.527682 65.956983 
L 160.979219 68.049716 
L 161.882291 63.864249 
L 162.333827 63.864249 
L 163.2369 68.049716 
L 163.688436 68.049716 
L 165.494581 84.791585 
L 166.397653 88.977052 
L 166.84919 93.162519 
L 167.300726 95.255253 
L 168.655334 95.255253 
L 169.106871 93.162519 
L 170.461479 93.162519 
L 170.913016 88.977052 
L 171.816088 72.235183 
L 172.267624 68.049716 
L 172.71916 68.049716 
L 173.170697 65.956983 
L 173.622233 68.049716 
L 174.976842 68.049716 
L 175.879914 76.420651 
L 176.33145 82.698851 
L 177.686059 82.698851 
L 178.589131 86.884318 
L 179.94374 86.884318 
L 180.395276 88.977052 
L 181.749885 88.977052 
L 182.652957 93.162519 
L 183.55603 93.162519 
L 184.007566 97.347986 
L 184.459102 99.44072 
L 185.813711 99.44072 
L 186.265247 101.533453 
L 186.716783 99.44072 
L 187.619856 103.626187 
L 189.426001 103.626187 
L 189.877537 101.533453 
L 190.329073 97.347986 
L 190.780609 97.347986 
L 192.135218 103.626187 
L 192.586754 103.626187 
L 193.038291 101.533453 
L 193.489827 103.626187 
L 194.392899 103.626187 
L 194.844435 105.71892 
L 195.295972 103.626187 
L 196.199044 86.884318 
L 196.65058 82.698851 
L 197.553653 82.698851 
L 198.005189 80.606118 
L 198.456725 76.420651 
L 199.359798 84.791585 
L 199.811334 93.162519 
L 200.26287 97.347986 
L 200.714406 97.347986 
L 201.165943 99.44072 
L 201.617479 99.44072 
L 202.069015 93.162519 
L 202.520551 84.791585 
L 202.972087 91.069785 
L 203.423624 95.255253 
L 204.326696 95.255253 
L 204.778232 91.069785 
L 205.229769 93.162519 
L 205.681305 91.069785 
L 206.132841 91.069785 
L 207.035914 82.698851 
L 207.48745 84.791585 
L 208.390522 93.162519 
L 210.648203 93.162519 
L 211.09974 95.255253 
L 211.551276 95.255253 
L 212.002812 91.069785 
L 212.454348 88.977052 
L 212.905884 91.069785 
L 213.808957 86.884318 
L 214.260493 88.977052 
L 214.712029 82.698851 
L 215.615102 82.698851 
L 216.066638 78.513384 
L 216.96971 86.884318 
L 217.421247 82.698851 
L 217.872783 91.069785 
L 219.227392 91.069785 
L 219.678928 93.162519 
L 221.033536 93.162519 
L 221.485073 97.347986 
L 221.936609 99.44072 
L 222.839681 99.44072 
L 223.742754 103.626187 
L 224.19429 107.811654 
L 224.645826 109.904388 
L 225.097362 114.089855 
L 225.548899 114.089855 
L 226.000435 111.997121 
L 226.451971 114.089855 
L 227.80658 114.089855 
L 228.258116 116.182588 
L 228.709652 114.089855 
L 229.161189 101.533453 
L 229.612725 97.347986 
L 230.515797 101.533453 
L 230.967333 101.533453 
L 231.41887 107.811654 
L 231.870406 111.997121 
L 232.321942 107.811654 
L 233.225015 95.255253 
L 234.128087 103.626187 
L 235.031159 107.811654 
L 235.482696 105.71892 
L 235.934232 101.533453 
L 236.385768 93.162519 
L 236.837304 97.347986 
L 237.288841 97.347986 
L 238.191913 101.533453 
L 239.094985 101.533453 
L 239.546522 99.44072 
L 240.449594 99.44072 
L 240.90113 101.533453 
L 242.255739 101.533453 
L 242.707275 99.44072 
L 243.158811 93.162519 
L 243.610348 84.791585 
L 244.061884 91.069785 
L 244.51342 95.255253 
L 244.964956 95.255253 
L 245.416493 91.069785 
L 245.868029 93.162519 
L 246.319565 91.069785 
L 246.771101 91.069785 
L 247.674174 86.884318 
L 248.12571 88.977052 
L 248.577246 82.698851 
L 249.028782 82.698851 
L 249.480319 88.977052 
L 251.286464 88.977052 
L 251.738 93.162519 
L 252.189536 91.069785 
L 252.641072 84.791585 
L 253.092608 82.698851 
L 253.544145 86.884318 
L 253.995681 93.162519 
L 254.898753 74.327917 
L 255.35029 68.049716 
L 255.801826 68.049716 
L 256.704898 72.235183 
L 257.156434 72.235183 
L 257.607971 76.420651 
L 258.059507 78.513384 
L 258.511043 76.420651 
L 258.962579 78.513384 
L 259.414116 76.420651 
L 259.865652 80.606118 
L 260.768724 97.347986 
L 261.22026 97.347986 
L 261.671797 99.44072 
L 262.123333 97.347986 
L 262.574869 103.626187 
L 263.026405 105.71892 
L 263.477942 109.904388 
L 263.929478 103.626187 
L 264.83255 99.44072 
L 265.284086 99.44072 
L 266.638695 105.71892 
L 267.090231 99.44072 
L 269.347913 99.44072 
L 269.799449 97.347986 
L 270.250985 93.162519 
L 271.154057 80.606118 
L 272.05713 76.420651 
L 272.508666 80.606118 
L 272.960202 82.698851 
L 273.411739 82.698851 
L 273.863275 84.791585 
L 274.314811 84.791585 
L 274.766347 91.069785 
L 275.66942 91.069785 
L 276.120956 93.162519 
L 276.572492 91.069785 
L 277.024028 93.162519 
L 277.475565 93.162519 
L 277.927101 86.884318 
L 278.830173 78.513384 
L 279.733246 74.327917 
L 280.184782 68.049716 
L 280.636318 68.049716 
L 281.087854 65.956983 
L 281.539391 68.049716 
L 282.442463 68.049716 
L 283.345535 76.420651 
L 283.797072 82.698851 
L 285.15168 82.698851 
L 286.054753 86.884318 
L 287.409361 86.884318 
L 287.860898 88.977052 
L 288.312434 84.791585 
L 288.76397 76.420651 
L 289.667043 68.049716 
L 290.118579 74.327917 
L 290.570115 76.420651 
L 291.021651 80.606118 
L 291.924724 72.235183 
L 292.37626 74.327917 
L 292.827796 80.606118 
L 294.182405 86.884318 
L 294.633941 93.162519 
L 296.440086 93.162519 
L 297.343158 84.791585 
L 297.794695 72.235183 
L 298.246231 63.864249 
L 299.60084 57.586048 
L 300.052376 59.678782 
L 301.858521 59.678782 
L 302.310057 57.586048 
L 302.761593 59.678782 
L 303.213129 59.678782 
L 304.116202 63.864249 
L 304.567738 61.771516 
L 305.47081 65.956983 
L 305.922347 65.956983 
L 306.373883 68.049716 
L 306.825419 65.956983 
L 307.276955 65.956983 
L 307.728492 63.864249 
L 308.631564 68.049716 
L 309.0831 68.049716 
L 309.986173 72.235183 
L 310.437709 82.698851 
L 310.889245 86.884318 
L 311.792318 91.069785 
L 312.243854 88.977052 
L 312.69539 91.069785 
L 313.146926 97.347986 
L 314.049999 101.533453 
L 314.953071 101.533453 
L 315.856144 105.71892 
L 316.30768 99.44072 
L 316.759216 97.347986 
L 317.662289 101.533453 
L 318.113825 101.533453 
L 318.565361 103.626187 
L 319.91997 103.626187 
L 320.371506 97.347986 
L 321.726115 84.791585 
L 322.177651 72.235183 
L 322.629187 82.698851 
L 323.080723 78.513384 
L 323.983796 86.884318 
L 324.435332 82.698851 
L 324.886868 91.069785 
L 327.144549 91.069785 
L 328.047622 86.884318 
L 328.499158 91.069785 
L 329.40223 91.069785 
L 329.853767 84.791585 
L 330.756839 76.420651 
L 332.111448 70.14245 
L 332.562984 72.235183 
L 333.01452 63.864249 
L 333.466056 63.864249 
L 333.917593 61.771516 
L 335.272201 68.049716 
L 336.175274 76.420651 
L 336.62681 72.235183 
L 337.981419 78.513384 
L 338.432955 76.420651 
L 338.884491 78.513384 
L 339.787564 74.327917 
L 340.2391 76.420651 
L 340.690636 72.235183 
L 341.142172 76.420651 
L 341.593708 82.698851 
L 342.045245 86.884318 
L 342.496781 88.977052 
L 342.948317 82.698851 
L 343.399853 82.698851 
L 344.302926 86.884318 
L 345.205998 78.513384 
L 345.657534 82.698851 
L 346.109071 84.791585 
L 346.560607 91.069785 
L 347.463679 91.069785 
L 347.915216 88.977052 
L 348.818288 88.977052 
L 349.269824 82.698851 
L 349.72136 78.513384 
L 351.075969 78.513384 
L 351.527505 82.698851 
L 353.33365 82.698851 
L 354.236723 86.884318 
L 354.688259 86.884318 
L 355.139795 88.977052 
L 355.591331 88.977052 
L 356.042868 82.698851 
L 356.494404 84.791585 
L 357.397476 84.791585 
L 358.300549 72.235183 
L 358.752085 68.049716 
L 359.203621 65.956983 
L 359.655157 68.049716 
L 360.55823 68.049716 
L 361.461302 76.420651 
L 361.912839 82.698851 
L 363.267447 82.698851 
L 364.17052 74.327917 
L 364.622056 72.235183 
L 365.073592 78.513384 
L 366.879737 70.14245 
L 367.331273 72.235183 
L 367.782809 63.864249 
L 369.137418 57.586048 
L 369.588954 59.678782 
L 370.492027 68.049716 
L 370.943563 78.513384 
L 373.201244 68.049716 
L 374.104317 68.049716 
L 374.555853 57.586048 
L 375.007389 53.400581 
L 376.361998 47.122381 
L 377.716606 47.122381 
L 378.168143 45.029647 
L 378.619679 49.215114 
L 379.071215 51.307848 
L 379.522751 61.771516 
L 380.425824 74.327917 
L 380.87736 76.420651 
L 381.328896 76.420651 
L 381.780432 82.698851 
L 382.231969 82.698851 
L 383.135041 86.884318 
L 384.48965 86.884318 
L 384.941186 88.977052 
L 385.844258 88.977052 
L 387.650403 72.235183 
L 388.10194 76.420651 
L 388.553476 78.513384 
L 389.908084 91.069785 
L 390.359621 91.069785 
L 390.811157 93.162519 
L 391.714229 93.162519 
L 392.165766 95.255253 
L 393.068838 95.255253 
L 393.97191 99.44072 
L 394.874983 99.44072 
L 395.326519 101.533453 
L 395.778055 101.533453 
L 396.229592 103.626187 
L 396.681128 103.626187 
L 397.132664 105.71892 
L 397.5842 105.71892 
L 398.035737 107.811654 
L 398.487273 103.626187 
L 398.487273 103.626187 
" clip-path="url(#p3519000008)" style="fill: none; stroke: #1f77b4; stroke-width: 1.5; stroke-linecap: square"/>
   </g>
   <g id="patch_3">
    <path d="M 57.6 119.740235 
L 57.6 41.472 
" style="fill: none; stroke: #000000; stroke-width: 0.8; stroke-linejoin: miter; stroke-linecap: square"/>
   </g>
   <g id="patch_4">
    <path d="M 414.72 119.740235 
L 414.72 41.472 
" style="fill: none; stroke: #000000; stroke-width: 0.8; stroke-linejoin: miter; stroke-linecap: square"/>
   </g>
   <g id="patch_5">
    <path d="M 57.6 119.740235 
L 414.72 119.740235 
" style="fill: none; stroke: #000000; stroke-width: 0.8; stroke-linejoin: miter; stroke-linecap: square"/>
   </g>
   <g id="patch_6">
    <path d="M 57.6 41.472 
L 414.72 41.472 
" style="fill: none; stroke: #000000; stroke-width: 0.8; stroke-linejoin: miter; stroke-linecap: square"/>
   </g>
  </g>
  <g id="axes_2">
   <g id="patch_7">
    <path d="M 57.6 213.662118 
L 414.72 213.662118 
L 414.72 135.393882 
L 57.6 135.393882 
z
" style="fill: #ffffff"/>
   </g>
   <g id="matplotlib.axis_3">
    <g id="xtick_8">
     <g id="line2d_11">
      <g>
       <use xlink:href="#m54d11e26e1" x="73.832727" y="213.662118" style="stroke: #000000; stroke-width: 0.8"/>
      </g>
     </g>
     <g id="text_10">
      <!-- 0 -->
      <g transform="translate(70.651477 228.260555) scale(0.1 -0.1)">
       <use xlink:href="#DejaVuSans-30"/>
      </g>
     </g>
    </g>
    <g id="xtick_9">
     <g id="line2d_12">
      <g>
       <use xlink:href="#m54d11e26e1" x="128.017074" y="213.662118" style="stroke: #000000; stroke-width: 0.8"/>
      </g>
     </g>
     <g id="text_11">
      <!-- 5 -->
      <g transform="translate(124.835824 228.260555) scale(0.1 -0.1)">
       <use xlink:href="#DejaVuSans-35"/>
      </g>
     </g>
    </g>
    <g id="xtick_10">
     <g id="line2d_13">
      <g>
       <use xlink:href="#m54d11e26e1" x="182.201421" y="213.662118" style="stroke: #000000; stroke-width: 0.8"/>
      </g>
     </g>
     <g id="text_12">
      <!-- 10 -->
      <g transform="translate(175.838921 228.260555) scale(0.1 -0.1)">
       <use xlink:href="#DejaVuSans-31"/>
       <use xlink:href="#DejaVuSans-30" x="63.623047"/>
      </g>
     </g>
    </g>
    <g id="xtick_11">
     <g id="line2d_14">
      <g>
       <use xlink:href="#m54d11e26e1" x="236.385768" y="213.662118" style="stroke: #000000; stroke-width: 0.8"/>
      </g>
     </g>
     <g id="text_13">
      <!-- 15 -->
      <g transform="translate(230.023268 228.260555) scale(0.1 -0.1)">
       <use xlink:href="#DejaVuSans-31"/>
       <use xlink:href="#DejaVuSans-35" x="63.623047"/>
      </g>
     </g>
    </g>
    <g id="xtick_12">
     <g id="line2d_15">
      <g>
       <use xlink:href="#m54d11e26e1" x="290.570115" y="213.662118" style="stroke: #000000; stroke-width: 0.8"/>
      </g>
     </g>
     <g id="text_14">
      <!-- 20 -->
      <g transform="translate(284.207615 228.260555) scale(0.1 -0.1)">
       <use xlink:href="#DejaVuSans-32"/>
       <use xlink:href="#DejaVuSans-30" x="63.623047"/>
      </g>
     </g>
    </g>
    <g id="xtick_13">
     <g id="line2d_16">
      <g>
       <use xlink:href="#m54d11e26e1" x="344.754462" y="213.662118" style="stroke: #000000; stroke-width: 0.8"/>
      </g>
     </g>
     <g id="text_15">
      <!-- 25 -->
      <g transform="translate(338.391962 228.260555) scale(0.1 -0.1)">
       <use xlink:href="#DejaVuSans-32"/>
       <use xlink:href="#DejaVuSans-35" x="63.623047"/>
      </g>
     </g>
    </g>
    <g id="xtick_14">
     <g id="line2d_17">
      <g>
       <use xlink:href="#m54d11e26e1" x="398.938809" y="213.662118" style="stroke: #000000; stroke-width: 0.8"/>
      </g>
     </g>
     <g id="text_16">
      <!-- 30 -->
      <g transform="translate(392.576309 228.260555) scale(0.1 -0.1)">
       <use xlink:href="#DejaVuSans-33"/>
       <use xlink:href="#DejaVuSans-30" x="63.623047"/>
      </g>
     </g>
    </g>
   </g>
   <g id="matplotlib.axis_4">
    <g id="ytick_3">
     <g id="line2d_18">
      <g>
       <use xlink:href="#m2d700406ec" x="57.6" y="191.269869" style="stroke: #000000; stroke-width: 0.8"/>
      </g>
     </g>
     <g id="text_17">
      <!-- 50 -->
      <g transform="translate(37.875 195.069087) scale(0.1 -0.1)">
       <use xlink:href="#DejaVuSans-35"/>
       <use xlink:href="#DejaVuSans-30" x="63.623047"/>
      </g>
     </g>
    </g>
    <g id="ytick_4">
     <g id="line2d_19">
      <g>
       <use xlink:href="#m2d700406ec" x="57.6" y="165.110699" style="stroke: #000000; stroke-width: 0.8"/>
      </g>
     </g>
     <g id="text_18">
      <!-- 75 -->
      <g transform="translate(37.875 168.909918) scale(0.1 -0.1)">
       <defs>
        <path id="DejaVuSans-37" d="M 525 4666 
L 3525 4666 
L 3525 4397 
L 1831 0 
L 1172 0 
L 2766 4134 
L 525 4134 
L 525 4666 
z
" transform="scale(0.015625)"/>
       </defs>
       <use xlink:href="#DejaVuSans-37"/>
       <use xlink:href="#DejaVuSans-35" x="63.623047"/>
      </g>
     </g>
    </g>
    <g id="ytick_5">
     <g id="line2d_20">
      <g>
       <use xlink:href="#m2d700406ec" x="57.6" y="138.951529" style="stroke: #000000; stroke-width: 0.8"/>
      </g>
     </g>
     <g id="text_19">
      <!-- 100 -->
      <g transform="translate(31.5125 142.750748) scale(0.1 -0.1)">
       <use xlink:href="#DejaVuSans-31"/>
       <use xlink:href="#DejaVuSans-30" x="63.623047"/>
       <use xlink:href="#DejaVuSans-30" x="127.246094"/>
      </g>
     </g>
    </g>
   </g>
   <g id="line2d_21">
    <path d="M 73.832727 157.786131 
L 74.284263 151.507931 
L 74.7358 153.600664 
L 75.187336 151.507931 
L 75.638872 161.971599 
L 76.090408 153.600664 
L 76.541945 151.507931 
L 76.993481 168.249799 
L 77.445017 159.878865 
L 77.896553 149.415197 
L 78.34809 153.600664 
L 79.251162 187.084401 
L 79.702698 189.177135 
L 80.154234 193.362602 
L 80.605771 189.177135 
L 81.057307 180.806201 
L 81.508843 147.322464 
L 81.960379 141.044263 
L 82.411916 138.951529 
L 82.863452 138.951529 
L 83.314988 145.22973 
L 83.766524 141.044263 
L 84.21806 138.951529 
L 84.669597 141.044263 
L 85.121133 138.951529 
L 85.572669 138.951529 
L 86.024205 141.044263 
L 86.475742 145.22973 
L 86.927278 151.507931 
L 87.378814 145.22973 
L 87.83035 141.044263 
L 88.281886 151.507931 
L 89.184959 203.82627 
L 89.636495 210.104471 
L 90.088031 210.104471 
L 90.539568 208.011737 
L 90.991104 197.548069 
L 91.44264 191.269869 
L 91.894176 195.455336 
L 92.797249 187.084401 
L 93.700321 187.084401 
L 95.05493 155.693398 
L 95.506466 149.415197 
L 95.958002 141.044263 
L 96.409539 138.951529 
L 99.118756 138.951529 
L 99.570292 147.322464 
L 100.473365 138.951529 
L 100.924901 141.044263 
L 101.376437 138.951529 
L 103.182582 138.951529 
L 103.634118 143.136997 
L 104.085654 145.22973 
L 104.537191 143.136997 
L 104.988727 143.136997 
L 105.440263 141.044263 
L 105.891799 141.044263 
L 106.343335 138.951529 
L 106.794872 149.415197 
L 107.246408 141.044263 
L 107.697944 143.136997 
L 108.14948 141.044263 
L 108.601017 141.044263 
L 109.052553 145.22973 
L 109.504089 141.044263 
L 109.955625 138.951529 
L 110.858698 138.951529 
L 111.76177 151.507931 
L 112.213306 151.507931 
L 112.664843 157.786131 
L 113.116379 147.322464 
L 113.567915 151.507931 
L 114.019451 145.22973 
L 114.470987 149.415197 
L 114.922524 147.322464 
L 115.37406 149.415197 
L 116.277132 141.044263 
L 116.728669 138.951529 
L 117.631741 138.951529 
L 118.083277 145.22973 
L 118.534814 153.600664 
L 118.98635 153.600664 
L 119.437886 159.878865 
L 119.889422 155.693398 
L 120.340958 153.600664 
L 120.792495 155.693398 
L 122.147103 189.177135 
L 122.59864 180.806201 
L 123.953248 145.22973 
L 124.404784 145.22973 
L 124.856321 141.044263 
L 125.307857 138.951529 
L 126.210929 138.951529 
L 126.662466 149.415197 
L 127.114002 147.322464 
L 127.565538 143.136997 
L 128.017074 159.878865 
L 128.46861 153.600664 
L 129.823219 141.044263 
L 130.274755 138.951529 
L 131.629364 138.951529 
L 132.0809 141.044263 
L 132.983973 180.806201 
L 133.435509 172.435266 
L 133.887045 161.971599 
L 134.338581 159.878865 
L 134.790118 170.342533 
L 135.241654 172.435266 
L 136.144726 197.548069 
L 136.596262 195.455336 
L 137.047799 184.991668 
L 137.499335 184.991668 
L 137.950871 180.806201 
L 138.402407 180.806201 
L 138.853944 176.620734 
L 139.30548 182.898934 
L 139.757016 191.269869 
L 140.208552 178.713467 
L 140.660089 182.898934 
L 141.111625 189.177135 
L 142.014697 193.362602 
L 142.466233 193.362602 
L 142.91777 189.177135 
L 143.369306 193.362602 
L 144.272378 193.362602 
L 144.723915 199.640803 
L 145.626987 203.82627 
L 146.530059 199.640803 
L 146.981596 201.733536 
L 147.433132 201.733536 
L 147.884668 189.177135 
L 148.336204 193.362602 
L 149.239277 184.991668 
L 149.690813 178.713467 
L 150.142349 170.342533 
L 150.593885 172.435266 
L 151.045422 176.620734 
L 151.496958 184.991668 
L 151.948494 182.898934 
L 152.40003 184.991668 
L 152.851567 172.435266 
L 153.303103 170.342533 
L 153.754639 172.435266 
L 154.206175 176.620734 
L 155.109248 168.249799 
L 155.560784 170.342533 
L 156.01232 182.898934 
L 156.463856 166.157066 
L 156.915393 166.157066 
L 157.366929 174.528 
L 157.818465 178.713467 
L 158.270001 184.991668 
L 158.721537 193.362602 
L 159.62461 201.733536 
L 160.076146 203.82627 
L 160.527682 203.82627 
L 160.979219 197.548069 
L 161.430755 197.548069 
L 161.882291 201.733536 
L 162.333827 203.82627 
L 163.2369 199.640803 
L 163.688436 199.640803 
L 164.139972 193.362602 
L 165.043045 176.620734 
L 165.494581 159.878865 
L 165.946117 149.415197 
L 166.397653 151.507931 
L 166.84919 145.22973 
L 167.300726 141.044263 
L 170.009943 141.044263 
L 170.461479 143.136997 
L 170.913016 153.600664 
L 171.816088 187.084401 
L 172.267624 195.455336 
L 172.71916 195.455336 
L 173.622233 199.640803 
L 174.073769 199.640803 
L 174.525305 197.548069 
L 174.976842 191.269869 
L 175.428378 182.898934 
L 175.879914 170.342533 
L 176.33145 145.22973 
L 176.782986 141.044263 
L 177.234523 138.951529 
L 177.686059 141.044263 
L 178.137595 141.044263 
L 178.589131 138.951529 
L 180.395276 138.951529 
L 181.298349 143.136997 
L 182.201421 138.951529 
L 182.652957 138.951529 
L 183.55603 143.136997 
L 184.007566 143.136997 
L 184.459102 138.951529 
L 186.265247 138.951529 
L 186.716783 141.044263 
L 187.16832 138.951529 
L 189.877537 138.951529 
L 190.329073 145.22973 
L 190.780609 143.136997 
L 191.232146 138.951529 
L 194.844435 138.951529 
L 195.295972 141.044263 
L 196.199044 176.620734 
L 196.65058 187.084401 
L 197.102117 193.362602 
L 197.553653 197.548069 
L 198.005189 195.455336 
L 198.456725 199.640803 
L 198.908261 187.084401 
L 199.811334 151.507931 
L 200.26287 151.507931 
L 200.714406 149.415197 
L 201.165943 149.415197 
L 201.617479 143.136997 
L 202.069015 164.064332 
L 202.520551 176.620734 
L 202.972087 157.786131 
L 203.423624 151.507931 
L 203.87516 147.322464 
L 204.326696 147.322464 
L 204.778232 153.600664 
L 205.229769 149.415197 
L 205.681305 149.415197 
L 206.132841 147.322464 
L 207.035914 172.435266 
L 207.48745 153.600664 
L 207.938986 145.22973 
L 208.390522 138.951529 
L 211.551276 138.951529 
L 212.002812 145.22973 
L 212.454348 159.878865 
L 212.905884 149.415197 
L 213.357421 153.600664 
L 213.808957 161.971599 
L 214.260493 155.693398 
L 214.712029 166.157066 
L 215.615102 166.157066 
L 216.066638 176.620734 
L 216.518174 170.342533 
L 216.96971 147.322464 
L 217.421247 170.342533 
L 217.872783 141.044263 
L 218.324319 138.951529 
L 220.130464 138.951529 
L 221.033536 143.136997 
L 221.485073 143.136997 
L 221.936609 138.951529 
L 222.839681 138.951529 
L 223.291218 141.044263 
L 223.742754 141.044263 
L 224.19429 138.951529 
L 228.258116 138.951529 
L 228.709652 141.044263 
L 229.161189 164.064332 
L 229.612725 170.342533 
L 230.515797 151.507931 
L 230.967333 149.415197 
L 231.41887 141.044263 
L 231.870406 138.951529 
L 232.321942 147.322464 
L 232.773478 157.786131 
L 233.225015 172.435266 
L 233.676551 166.157066 
L 234.128087 155.693398 
L 235.031159 147.322464 
L 235.482696 153.600664 
L 235.934232 164.064332 
L 236.385768 178.713467 
L 236.837304 155.693398 
L 237.288841 159.878865 
L 237.740377 153.600664 
L 238.191913 145.22973 
L 238.643449 149.415197 
L 239.094985 147.322464 
L 239.998058 151.507931 
L 240.449594 141.044263 
L 240.90113 138.951529 
L 241.804203 138.951529 
L 242.707275 143.136997 
L 243.158811 164.064332 
L 243.610348 176.620734 
L 244.061884 157.786131 
L 244.51342 151.507931 
L 244.964956 147.322464 
L 245.416493 153.600664 
L 245.868029 149.415197 
L 246.319565 149.415197 
L 246.771101 147.322464 
L 247.222638 153.600664 
L 247.674174 161.971599 
L 248.12571 155.693398 
L 248.577246 166.157066 
L 249.028782 166.157066 
L 249.480319 147.322464 
L 249.931855 149.415197 
L 250.383391 149.415197 
L 250.834927 151.507931 
L 251.286464 159.878865 
L 251.738 164.064332 
L 252.189536 170.342533 
L 252.641072 189.177135 
L 253.092608 197.548069 
L 253.544145 184.991668 
L 253.995681 161.971599 
L 254.447217 172.435266 
L 255.35029 199.640803 
L 255.801826 197.548069 
L 256.253362 193.362602 
L 256.704898 195.455336 
L 257.607971 191.269869 
L 258.059507 193.362602 
L 258.511043 201.733536 
L 258.962579 199.640803 
L 259.414116 203.82627 
L 259.865652 201.733536 
L 260.317188 182.898934 
L 260.768724 155.693398 
L 261.22026 159.878865 
L 261.671797 159.878865 
L 262.123333 164.064332 
L 262.574869 143.136997 
L 263.026405 145.22973 
L 263.477942 141.044263 
L 263.929478 153.600664 
L 264.381014 153.600664 
L 265.284086 157.786131 
L 265.735623 155.693398 
L 266.187159 151.507931 
L 266.638695 149.415197 
L 267.090231 155.693398 
L 268.44484 155.693398 
L 268.896376 153.600664 
L 269.347913 157.786131 
L 269.799449 166.157066 
L 270.702521 178.713467 
L 271.154057 189.177135 
L 271.605594 189.177135 
L 272.05713 191.269869 
L 272.960202 164.064332 
L 273.411739 157.786131 
L 273.863275 155.693398 
L 274.314811 155.693398 
L 274.766347 145.22973 
L 275.217883 141.044263 
L 275.66942 138.951529 
L 277.475565 138.951529 
L 277.927101 147.322464 
L 278.378637 164.064332 
L 278.830173 172.435266 
L 279.281709 176.620734 
L 279.733246 184.991668 
L 280.184782 195.455336 
L 280.636318 195.455336 
L 281.539391 199.640803 
L 281.990927 197.548069 
L 282.442463 191.269869 
L 282.893999 182.898934 
L 283.345535 170.342533 
L 283.797072 145.22973 
L 284.248608 141.044263 
L 284.700144 138.951529 
L 285.15168 141.044263 
L 285.603217 141.044263 
L 286.054753 138.951529 
L 287.860898 138.951529 
L 288.312434 147.322464 
L 288.76397 172.435266 
L 289.215506 187.084401 
L 289.667043 193.362602 
L 290.118579 193.362602 
L 291.021651 176.620734 
L 291.473188 182.898934 
L 291.924724 193.362602 
L 292.37626 189.177135 
L 292.827796 182.898934 
L 293.730869 159.878865 
L 294.182405 157.786131 
L 294.633941 145.22973 
L 295.085477 143.136997 
L 295.537014 138.951529 
L 296.440086 143.136997 
L 297.343158 164.064332 
L 297.794695 189.177135 
L 298.246231 201.733536 
L 299.149303 205.919003 
L 303.664666 205.919003 
L 304.116202 203.82627 
L 304.567738 205.919003 
L 305.47081 201.733536 
L 305.922347 197.548069 
L 306.373883 199.640803 
L 306.825419 205.919003 
L 307.276955 205.919003 
L 308.180028 210.104471 
L 308.631564 210.104471 
L 309.0831 208.011737 
L 309.534636 199.640803 
L 309.986173 195.455336 
L 310.889245 168.249799 
L 311.340781 159.878865 
L 311.792318 155.693398 
L 312.243854 159.878865 
L 312.69539 155.693398 
L 313.146926 143.136997 
L 314.049999 138.951529 
L 315.856144 138.951529 
L 316.30768 145.22973 
L 316.759216 153.600664 
L 317.210752 145.22973 
L 317.662289 138.951529 
L 319.91997 138.951529 
L 320.823042 143.136997 
L 321.726115 164.064332 
L 322.177651 189.177135 
L 322.629187 166.157066 
L 323.080723 176.620734 
L 323.532259 170.342533 
L 323.983796 147.322464 
L 324.435332 170.342533 
L 324.886868 141.044263 
L 325.338404 138.951529 
L 327.596085 138.951529 
L 328.047622 141.044263 
L 328.499158 138.951529 
L 329.40223 138.951529 
L 329.853767 147.322464 
L 331.208375 178.713467 
L 332.111448 191.269869 
L 332.562984 189.177135 
L 333.01452 201.733536 
L 333.917593 205.919003 
L 335.272201 199.640803 
L 335.723738 193.362602 
L 336.175274 184.991668 
L 336.62681 193.362602 
L 337.529882 189.177135 
L 337.981419 189.177135 
L 338.432955 191.269869 
L 338.884491 182.898934 
L 339.336027 189.177135 
L 339.787564 193.362602 
L 340.2391 184.991668 
L 340.690636 193.362602 
L 341.142172 184.991668 
L 341.593708 159.878865 
L 342.496781 147.322464 
L 342.948317 157.786131 
L 343.399853 151.507931 
L 343.85139 164.064332 
L 344.302926 166.157066 
L 344.754462 178.713467 
L 345.205998 180.806201 
L 345.657534 164.064332 
L 346.109071 155.693398 
L 346.560607 145.22973 
L 347.012143 141.044263 
L 347.463679 138.951529 
L 348.366752 138.951529 
L 348.818288 141.044263 
L 349.269824 161.971599 
L 350.172897 157.786131 
L 351.075969 157.786131 
L 351.527505 147.322464 
L 351.979042 145.22973 
L 352.430578 145.22973 
L 352.882114 147.322464 
L 353.33365 153.600664 
L 354.236723 153.600664 
L 354.688259 149.415197 
L 355.139795 143.136997 
L 355.591331 141.044263 
L 356.042868 157.786131 
L 356.494404 155.693398 
L 356.94594 151.507931 
L 357.397476 153.600664 
L 358.300549 189.177135 
L 358.752085 195.455336 
L 359.655157 199.640803 
L 360.106694 197.548069 
L 360.55823 191.269869 
L 361.009766 182.898934 
L 361.461302 170.342533 
L 361.912839 145.22973 
L 362.364375 149.415197 
L 362.815911 157.786131 
L 363.267447 151.507931 
L 363.718983 164.064332 
L 364.17052 172.435266 
L 364.622056 176.620734 
L 365.073592 166.157066 
L 365.525128 170.342533 
L 365.976665 178.713467 
L 366.879737 191.269869 
L 367.331273 189.177135 
L 367.782809 201.733536 
L 368.685882 205.919003 
L 369.588954 205.919003 
L 370.040491 199.640803 
L 370.492027 184.991668 
L 370.943563 157.786131 
L 371.395099 161.971599 
L 371.846635 170.342533 
L 372.749708 174.528 
L 373.201244 180.806201 
L 373.65278 182.898934 
L 374.104317 178.713467 
L 374.555853 203.82627 
L 375.007389 210.104471 
L 378.168143 210.104471 
L 378.619679 208.011737 
L 379.071215 201.733536 
L 379.522751 189.177135 
L 380.425824 155.693398 
L 380.87736 151.507931 
L 381.328896 155.693398 
L 381.780432 143.136997 
L 382.231969 141.044263 
L 382.683505 141.044263 
L 383.135041 138.951529 
L 385.844258 138.951529 
L 386.295795 147.322464 
L 387.198867 170.342533 
L 387.650403 174.528 
L 388.10194 164.064332 
L 389.005012 151.507931 
L 389.456548 141.044263 
L 389.908084 138.951529 
L 392.165766 138.951529 
L 392.617302 141.044263 
L 393.068838 141.044263 
L 393.520374 138.951529 
L 398.035737 138.951529 
L 398.487273 145.22973 
L 398.487273 145.22973 
" clip-path="url(#p044c15cfea)" style="fill: none; stroke: #1f77b4; stroke-width: 1.5; stroke-linecap: square"/>
   </g>
   <g id="patch_8">
    <path d="M 57.6 213.662118 
L 57.6 135.393882 
" style="fill: none; stroke: #000000; stroke-width: 0.8; stroke-linejoin: miter; stroke-linecap: square"/>
   </g>
   <g id="patch_9">
    <path d="M 414.72 213.662118 
L 414.72 135.393882 
" style="fill: none; stroke: #000000; stroke-width: 0.8; stroke-linejoin: miter; stroke-linecap: square"/>
   </g>
   <g id="patch_10">
    <path d="M 57.6 213.662118 
L 414.72 213.662118 
" style="fill: none; stroke: #000000; stroke-width: 0.8; stroke-linejoin: miter; stroke-linecap: square"/>
   </g>
   <g id="patch_11">
    <path d="M 57.6 135.393882 
L 414.72 135.393882 
" style="fill: none; stroke: #000000; stroke-width: 0.8; stroke-linejoin: miter; stroke-linecap: square"/>
   </g>
  </g>
  <g id="axes_3">
   <g id="patch_12">
    <path d="M 57.6 307.584 
L 414.72 307.584 
L 414.72 229.315765 
L 57.6 229.315765 
z
" style="fill: #ffffff"/>
   </g>
   <g id="matplotlib.axis_5">
    <g id="xtick_15">
     <g id="line2d_22">
      <g>
       <use xlink:href="#m54d11e26e1" x="73.832727" y="307.584" style="stroke: #000000; stroke-width: 0.8"/>
      </g>
     </g>
     <g id="text_20">
      <!-- 0 -->
      <g transform="translate(70.651477 322.182437) scale(0.1 -0.1)">
       <use xlink:href="#DejaVuSans-30"/>
      </g>
     </g>
    </g>
    <g id="xtick_16">
     <g id="line2d_23">
      <g>
       <use xlink:href="#m54d11e26e1" x="128.017074" y="307.584" style="stroke: #000000; stroke-width: 0.8"/>
      </g>
     </g>
     <g id="text_21">
      <!-- 5 -->
      <g transform="translate(124.835824 322.182437) scale(0.1 -0.1)">
       <use xlink:href="#DejaVuSans-35"/>
      </g>
     </g>
    </g>
    <g id="xtick_17">
     <g id="line2d_24">
      <g>
       <use xlink:href="#m54d11e26e1" x="182.201421" y="307.584" style="stroke: #000000; stroke-width: 0.8"/>
      </g>
     </g>
     <g id="text_22">
      <!-- 10 -->
      <g transform="translate(175.838921 322.182437) scale(0.1 -0.1)">
       <use xlink:href="#DejaVuSans-31"/>
       <use xlink:href="#DejaVuSans-30" x="63.623047"/>
      </g>
     </g>
    </g>
    <g id="xtick_18">
     <g id="line2d_25">
      <g>
       <use xlink:href="#m54d11e26e1" x="236.385768" y="307.584" style="stroke: #000000; stroke-width: 0.8"/>
      </g>
     </g>
     <g id="text_23">
      <!-- 15 -->
      <g transform="translate(230.023268 322.182437) scale(0.1 -0.1)">
       <use xlink:href="#DejaVuSans-31"/>
       <use xlink:href="#DejaVuSans-35" x="63.623047"/>
      </g>
     </g>
    </g>
    <g id="xtick_19">
     <g id="line2d_26">
      <g>
       <use xlink:href="#m54d11e26e1" x="290.570115" y="307.584" style="stroke: #000000; stroke-width: 0.8"/>
      </g>
     </g>
     <g id="text_24">
      <!-- 20 -->
      <g transform="translate(284.207615 322.182437) scale(0.1 -0.1)">
       <use xlink:href="#DejaVuSans-32"/>
       <use xlink:href="#DejaVuSans-30" x="63.623047"/>
      </g>
     </g>
    </g>
    <g id="xtick_20">
     <g id="line2d_27">
      <g>
       <use xlink:href="#m54d11e26e1" x="344.754462" y="307.584" style="stroke: #000000; stroke-width: 0.8"/>
      </g>
     </g>
     <g id="text_25">
      <!-- 25 -->
      <g transform="translate(338.391962 322.182437) scale(0.1 -0.1)">
       <use xlink:href="#DejaVuSans-32"/>
       <use xlink:href="#DejaVuSans-35" x="63.623047"/>
      </g>
     </g>
    </g>
    <g id="xtick_21">
     <g id="line2d_28">
      <g>
       <use xlink:href="#m54d11e26e1" x="398.938809" y="307.584" style="stroke: #000000; stroke-width: 0.8"/>
      </g>
     </g>
     <g id="text_26">
      <!-- 30 -->
      <g transform="translate(392.576309 322.182437) scale(0.1 -0.1)">
       <use xlink:href="#DejaVuSans-33"/>
       <use xlink:href="#DejaVuSans-30" x="63.623047"/>
      </g>
     </g>
    </g>
   </g>
   <g id="matplotlib.axis_6">
    <g id="ytick_6">
     <g id="line2d_29">
      <g>
       <use xlink:href="#m2d700406ec" x="57.6" y="304.026353" style="stroke: #000000; stroke-width: 0.8"/>
      </g>
     </g>
     <g id="text_27">
      <!-- 0 -->
      <g transform="translate(44.2375 307.825572) scale(0.1 -0.1)">
       <use xlink:href="#DejaVuSans-30"/>
      </g>
     </g>
    </g>
    <g id="ytick_7">
     <g id="line2d_30">
      <g>
       <use xlink:href="#m2d700406ec" x="57.6" y="259.555765" style="stroke: #000000; stroke-width: 0.8"/>
      </g>
     </g>
     <g id="text_28">
      <!-- 5 -->
      <g transform="translate(44.2375 263.354983) scale(0.1 -0.1)">
       <use xlink:href="#DejaVuSans-35"/>
      </g>
     </g>
    </g>
   </g>
   <g id="line2d_31">
    <path d="M 73.832727 304.026353 
L 178.137595 304.026353 
L 178.589131 232.873412 
L 179.040668 250.661647 
L 179.492204 295.132235 
L 179.94374 304.026353 
L 211.09974 304.026353 
L 211.551276 295.132235 
L 212.002812 304.026353 
L 240.449594 304.026353 
L 240.90113 295.132235 
L 241.352667 304.026353 
L 285.603217 304.026353 
L 286.054753 232.873412 
L 286.506289 250.661647 
L 286.957825 295.132235 
L 287.409361 304.026353 
L 325.789941 304.026353 
L 326.241477 286.238118 
L 326.693013 304.026353 
L 382.683505 304.026353 
L 383.135041 232.873412 
L 383.586577 250.661647 
L 384.038114 295.132235 
L 384.48965 304.026353 
L 398.487273 304.026353 
L 398.487273 304.026353 
" clip-path="url(#p68f672781e)" style="fill: none; stroke: #1f77b4; stroke-width: 1.5; stroke-linecap: square"/>
   </g>
   <g id="patch_13">
    <path d="M 57.6 307.584 
L 57.6 229.315765 
" style="fill: none; stroke: #000000; stroke-width: 0.8; stroke-linejoin: miter; stroke-linecap: square"/>
   </g>
   <g id="patch_14">
    <path d="M 414.72 307.584 
L 414.72 229.315765 
" style="fill: none; stroke: #000000; stroke-width: 0.8; stroke-linejoin: miter; stroke-linecap: square"/>
   </g>
   <g id="patch_15">
    <path d="M 57.6 307.584 
L 414.72 307.584 
" style="fill: none; stroke: #000000; stroke-width: 0.8; stroke-linejoin: miter; stroke-linecap: square"/>
   </g>
   <g id="patch_16">
    <path d="M 57.6 229.315765 
L 414.72 229.315765 
" style="fill: none; stroke: #000000; stroke-width: 0.8; stroke-linejoin: miter; stroke-linecap: square"/>
   </g>
  </g>
  <g id="text_29">
   <!-- cleaned_weather_spring -->
   <g transform="translate(157.493438 16.030125) scale(0.12 -0.12)">
    <defs>
     <path id="DejaVuSans-63" d="M 3122 3366 
L 3122 2828 
Q 2878 2963 2633 3030 
Q 2388 3097 2138 3097 
Q 1578 3097 1268 2742 
Q 959 2388 959 1747 
Q 959 1106 1268 751 
Q 1578 397 2138 397 
Q 2388 397 2633 464 
Q 2878 531 3122 666 
L 3122 134 
Q 2881 22 2623 -34 
Q 2366 -91 2075 -91 
Q 1284 -91 818 406 
Q 353 903 353 1747 
Q 353 2603 823 3093 
Q 1294 3584 2113 3584 
Q 2378 3584 2631 3529 
Q 2884 3475 3122 3366 
z
" transform="scale(0.015625)"/>
     <path id="DejaVuSans-6c" d="M 603 4863 
L 1178 4863 
L 1178 0 
L 603 0 
L 603 4863 
z
" transform="scale(0.015625)"/>
     <path id="DejaVuSans-65" d="M 3597 1894 
L 3597 1613 
L 953 1613 
Q 991 1019 1311 708 
Q 1631 397 2203 397 
Q 2534 397 2845 478 
Q 3156 559 3463 722 
L 3463 178 
Q 3153 47 2828 -22 
Q 2503 -91 2169 -91 
Q 1331 -91 842 396 
Q 353 884 353 1716 
Q 353 2575 817 3079 
Q 1281 3584 2069 3584 
Q 2775 3584 3186 3129 
Q 3597 2675 3597 1894 
z
M 3022 2063 
Q 3016 2534 2758 2815 
Q 2500 3097 2075 3097 
Q 1594 3097 1305 2825 
Q 1016 2553 972 2059 
L 3022 2063 
z
" transform="scale(0.015625)"/>
     <path id="DejaVuSans-61" d="M 2194 1759 
Q 1497 1759 1228 1600 
Q 959 1441 959 1056 
Q 959 750 1161 570 
Q 1363 391 1709 391 
Q 2188 391 2477 730 
Q 2766 1069 2766 1631 
L 2766 1759 
L 2194 1759 
z
M 3341 1997 
L 3341 0 
L 2766 0 
L 2766 531 
Q 2569 213 2275 61 
Q 1981 -91 1556 -91 
Q 1019 -91 701 211 
Q 384 513 384 1019 
Q 384 1609 779 1909 
Q 1175 2209 1959 2209 
L 2766 2209 
L 2766 2266 
Q 2766 2663 2505 2880 
Q 2244 3097 1772 3097 
Q 1472 3097 1187 3025 
Q 903 2953 641 2809 
L 641 3341 
Q 956 3463 1253 3523 
Q 1550 3584 1831 3584 
Q 2591 3584 2966 3190 
Q 3341 2797 3341 1997 
z
" transform="scale(0.015625)"/>
     <path id="DejaVuSans-6e" d="M 3513 2113 
L 3513 0 
L 2938 0 
L 2938 2094 
Q 2938 2591 2744 2837 
Q 2550 3084 2163 3084 
Q 1697 3084 1428 2787 
Q 1159 2491 1159 1978 
L 1159 0 
L 581 0 
L 581 3500 
L 1159 3500 
L 1159 2956 
Q 1366 3272 1645 3428 
Q 1925 3584 2291 3584 
Q 2894 3584 3203 3211 
Q 3513 2838 3513 2113 
z
" transform="scale(0.015625)"/>
     <path id="DejaVuSans-64" d="M 2906 2969 
L 2906 4863 
L 3481 4863 
L 3481 0 
L 2906 0 
L 2906 525 
Q 2725 213 2448 61 
Q 2172 -91 1784 -91 
Q 1150 -91 751 415 
Q 353 922 353 1747 
Q 353 2572 751 3078 
Q 1150 3584 1784 3584 
Q 2172 3584 2448 3432 
Q 2725 3281 2906 2969 
z
M 947 1747 
Q 947 1113 1208 752 
Q 1469 391 1925 391 
Q 2381 391 2643 752 
Q 2906 1113 2906 1747 
Q 2906 2381 2643 2742 
Q 2381 3103 1925 3103 
Q 1469 3103 1208 2742 
Q 947 2381 947 1747 
z
" transform="scale(0.015625)"/>
     <path id="DejaVuSans-5f" d="M 3263 -1063 
L 3263 -1509 
L -63 -1509 
L -63 -1063 
L 3263 -1063 
z
" transform="scale(0.015625)"/>
     <path id="DejaVuSans-77" d="M 269 3500 
L 844 3500 
L 1563 769 
L 2278 3500 
L 2956 3500 
L 3675 769 
L 4391 3500 
L 4966 3500 
L 4050 0 
L 3372 0 
L 2619 2869 
L 1863 0 
L 1184 0 
L 269 3500 
z
" transform="scale(0.015625)"/>
     <path id="DejaVuSans-74" d="M 1172 4494 
L 1172 3500 
L 2356 3500 
L 2356 3053 
L 1172 3053 
L 1172 1153 
Q 1172 725 1289 603 
Q 1406 481 1766 481 
L 2356 481 
L 2356 0 
L 1766 0 
Q 1100 0 847 248 
Q 594 497 594 1153 
L 594 3053 
L 172 3053 
L 172 3500 
L 594 3500 
L 594 4494 
L 1172 4494 
z
" transform="scale(0.015625)"/>
     <path id="DejaVuSans-68" d="M 3513 2113 
L 3513 0 
L 2938 0 
L 2938 2094 
Q 2938 2591 2744 2837 
Q 2550 3084 2163 3084 
Q 1697 3084 1428 2787 
Q 1159 2491 1159 1978 
L 1159 0 
L 581 0 
L 581 4863 
L 1159 4863 
L 1159 2956 
Q 1366 3272 1645 3428 
Q 1925 3584 2291 3584 
Q 2894 3584 3203 3211 
Q 3513 2838 3513 2113 
z
" transform="scale(0.015625)"/>
     <path id="DejaVuSans-72" d="M 2631 2963 
Q 2534 3019 2420 3045 
Q 2306 3072 2169 3072 
Q 1681 3072 1420 2755 
Q 1159 2438 1159 1844 
L 1159 0 
L 581 0 
L 581 3500 
L 1159 3500 
L 1159 2956 
Q 1341 3275 1631 3429 
Q 1922 3584 2338 3584 
Q 2397 3584 2469 3576 
Q 2541 3569 2628 3553 
L 2631 2963 
z
" transform="scale(0.015625)"/>
     <path id="DejaVuSans-73" d="M 2834 3397 
L 2834 2853 
Q 2591 2978 2328 3040 
Q 2066 3103 1784 3103 
Q 1356 3103 1142 2972 
Q 928 2841 928 2578 
Q 928 2378 1081 2264 
Q 1234 2150 1697 2047 
L 1894 2003 
Q 2506 1872 2764 1633 
Q 3022 1394 3022 966 
Q 3022 478 2636 193 
Q 2250 -91 1575 -91 
Q 1294 -91 989 -36 
Q 684 19 347 128 
L 347 722 
Q 666 556 975 473 
Q 1284 391 1588 391 
Q 1994 391 2212 530 
Q 2431 669 2431 922 
Q 2431 1156 2273 1281 
Q 2116 1406 1581 1522 
L 1381 1569 
Q 847 1681 609 1914 
Q 372 2147 372 2553 
Q 372 3047 722 3315 
Q 1072 3584 1716 3584 
Q 2034 3584 2315 3537 
Q 2597 3491 2834 3397 
z
" transform="scale(0.015625)"/>
     <path id="DejaVuSans-70" d="M 1159 525 
L 1159 -1331 
L 581 -1331 
L 581 3500 
L 1159 3500 
L 1159 2969 
Q 1341 3281 1617 3432 
Q 1894 3584 2278 3584 
Q 2916 3584 3314 3078 
Q 3713 2572 3713 1747 
Q 3713 922 3314 415 
Q 2916 -91 2278 -91 
Q 1894 -91 1617 61 
Q 1341 213 1159 525 
z
M 3116 1747 
Q 3116 2381 2855 2742 
Q 2594 3103 2138 3103 
Q 1681 3103 1420 2742 
Q 1159 2381 1159 1747 
Q 1159 1113 1420 752 
Q 1681 391 2138 391 
Q 2594 391 2855 752 
Q 3116 1113 3116 1747 
z
" transform="scale(0.015625)"/>
     <path id="DejaVuSans-69" d="M 603 3500 
L 1178 3500 
L 1178 0 
L 603 0 
L 603 3500 
z
M 603 4863 
L 1178 4863 
L 1178 4134 
L 603 4134 
L 603 4863 
z
" transform="scale(0.015625)"/>
     <path id="DejaVuSans-67" d="M 2906 1791 
Q 2906 2416 2648 2759 
Q 2391 3103 1925 3103 
Q 1463 3103 1205 2759 
Q 947 2416 947 1791 
Q 947 1169 1205 825 
Q 1463 481 1925 481 
Q 2391 481 2648 825 
Q 2906 1169 2906 1791 
z
M 3481 434 
Q 3481 -459 3084 -895 
Q 2688 -1331 1869 -1331 
Q 1566 -1331 1297 -1286 
Q 1028 -1241 775 -1147 
L 775 -588 
Q 1028 -725 1275 -790 
Q 1522 -856 1778 -856 
Q 2344 -856 2625 -561 
Q 2906 -266 2906 331 
L 2906 616 
Q 2728 306 2450 153 
Q 2172 0 1784 0 
Q 1141 0 747 490 
Q 353 981 353 1791 
Q 353 2603 747 3093 
Q 1141 3584 1784 3584 
Q 2172 3584 2450 3431 
Q 2728 3278 2906 2969 
L 2906 3500 
L 3481 3500 
L 3481 434 
z
" transform="scale(0.015625)"/>
    </defs>
    <use xlink:href="#DejaVuSans-63"/>
    <use xlink:href="#DejaVuSans-6c" x="54.980469"/>
    <use xlink:href="#DejaVuSans-65" x="82.763672"/>
    <use xlink:href="#DejaVuSans-61" x="144.287109"/>
    <use xlink:href="#DejaVuSans-6e" x="205.566406"/>
    <use xlink:href="#DejaVuSans-65" x="268.945312"/>
    <use xlink:href="#DejaVuSans-64" x="330.46875"/>
    <use xlink:href="#DejaVuSans-5f" x="393.945312"/>
    <use xlink:href="#DejaVuSans-77" x="443.945312"/>
    <use xlink:href="#DejaVuSans-65" x="525.732422"/>
    <use xlink:href="#DejaVuSans-61" x="587.255859"/>
    <use xlink:href="#DejaVuSans-74" x="648.535156"/>
    <use xlink:href="#DejaVuSans-68" x="687.744141"/>
    <use xlink:href="#DejaVuSans-65" x="751.123047"/>
    <use xlink:href="#DejaVuSans-72" x="812.646484"/>
    <use xlink:href="#DejaVuSans-5f" x="853.759766"/>
    <use xlink:href="#DejaVuSans-73" x="903.759766"/>
    <use xlink:href="#DejaVuSans-70" x="955.859375"/>
    <use xlink:href="#DejaVuSans-72" x="1019.335938"/>
    <use xlink:href="#DejaVuSans-69" x="1060.449219"/>
    <use xlink:href="#DejaVuSans-6e" x="1088.232422"/>
    <use xlink:href="#DejaVuSans-67" x="1151.611328"/>
   </g>
  </g>
 </g>
 <defs>
  <clipPath id="p3519000008">
   <rect x="57.6" y="41.472" width="357.12" height="78.268235"/>
  </clipPath>
  <clipPath id="p044c15cfea">
   <rect x="57.6" y="135.393882" width="357.12" height="78.268235"/>
  </clipPath>
  <clipPath id="p68f672781e">
   <rect x="57.6" y="229.315765" width="357.12" height="78.268235"/>
  </clipPath>
 </defs>
</svg>
