<?xml version="1.0" encoding="utf-8" standalone="no"?>
<!DOCTYPE svg PUBLIC "-//W3C//DTD SVG 1.1//EN"
  "http://www.w3.org/Graphics/SVG/1.1/DTD/svg11.dtd">
<svg xmlns:xlink="http://www.w3.org/1999/xlink" width="460.8pt" height="345.6pt" viewBox="0 0 460.8 345.6" xmlns="http://www.w3.org/2000/svg" version="1.1">
 <metadata>
  <rdf:RDF xmlns:dc="http://purl.org/dc/elements/1.1/" xmlns:cc="http://creativecommons.org/ns#" xmlns:rdf="http://www.w3.org/1999/02/22-rdf-syntax-ns#">
   <cc:Work>
    <dc:type rdf:resource="http://purl.org/dc/dcmitype/StillImage"/>
    <dc:date>2023-03-08T10:27:26.564705</dc:date>
    <dc:format>image/svg+xml</dc:format>
    <dc:creator>
     <cc:Agent>
      <dc:title>Matplotlib v3.6.3, https://matplotlib.org/</dc:title>
     </cc:Agent>
    </dc:creator>
   </cc:Work>
  </rdf:RDF>
 </metadata>
 <defs>
  <style type="text/css">*{stroke-linejoin: round; stroke-linecap: butt}</style>
 </defs>
 <g id="figure_1">
  <g id="patch_1">
   <path d="M 0 345.6 
L 460.8 345.6 
L 460.8 0 
L 0 0 
z
" style="fill: #ffffff"/>
  </g>
  <g id="axes_1">
   <g id="patch_2">
    <path d="M 57.6 119.740235 
L 414.72 119.740235 
L 414.72 41.472 
L 57.6 41.472 
z
" style="fill: #ffffff"/>
   </g>
   <g id="matplotlib.axis_1">
    <g id="xtick_1">
     <g id="line2d_1">
      <defs>
       <path id="md1e10c8978" d="M 0 0 
L 0 3.5 
" style="stroke: #000000; stroke-width: 0.8"/>
      </defs>
      <g>
       <use xlink:href="#md1e10c8978" x="73.832727" y="119.740235" style="stroke: #000000; stroke-width: 0.8"/>
      </g>
     </g>
     <g id="text_1">
      <!-- 0 -->
      <g transform="translate(70.651477 134.338673) scale(0.1 -0.1)">
       <defs>
        <path id="DejaVuSans-30" d="M 2034 4250 
Q 1547 4250 1301 3770 
Q 1056 3291 1056 2328 
Q 1056 1369 1301 889 
Q 1547 409 2034 409 
Q 2525 409 2770 889 
Q 3016 1369 3016 2328 
Q 3016 3291 2770 3770 
Q 2525 4250 2034 4250 
z
M 2034 4750 
Q 2819 4750 3233 4129 
Q 3647 3509 3647 2328 
Q 3647 1150 3233 529 
Q 2819 -91 2034 -91 
Q 1250 -91 836 529 
Q 422 1150 422 2328 
Q 422 3509 836 4129 
Q 1250 4750 2034 4750 
z
" transform="scale(0.015625)"/>
       </defs>
       <use xlink:href="#DejaVuSans-30"/>
      </g>
     </g>
    </g>
    <g id="xtick_2">
     <g id="line2d_2">
      <g>
       <use xlink:href="#md1e10c8978" x="128.017074" y="119.740235" style="stroke: #000000; stroke-width: 0.8"/>
      </g>
     </g>
     <g id="text_2">
      <!-- 5 -->
      <g transform="translate(124.835824 134.338673) scale(0.1 -0.1)">
       <defs>
        <path id="DejaVuSans-35" d="M 691 4666 
L 3169 4666 
L 3169 4134 
L 1269 4134 
L 1269 2991 
Q 1406 3038 1543 3061 
Q 1681 3084 1819 3084 
Q 2600 3084 3056 2656 
Q 3513 2228 3513 1497 
Q 3513 744 3044 326 
Q 2575 -91 1722 -91 
Q 1428 -91 1123 -41 
Q 819 9 494 109 
L 494 744 
Q 775 591 1075 516 
Q 1375 441 1709 441 
Q 2250 441 2565 725 
Q 2881 1009 2881 1497 
Q 2881 1984 2565 2268 
Q 2250 2553 1709 2553 
Q 1456 2553 1204 2497 
Q 953 2441 691 2322 
L 691 4666 
z
" transform="scale(0.015625)"/>
       </defs>
       <use xlink:href="#DejaVuSans-35"/>
      </g>
     </g>
    </g>
    <g id="xtick_3">
     <g id="line2d_3">
      <g>
       <use xlink:href="#md1e10c8978" x="182.201421" y="119.740235" style="stroke: #000000; stroke-width: 0.8"/>
      </g>
     </g>
     <g id="text_3">
      <!-- 10 -->
      <g transform="translate(175.838921 134.338673) scale(0.1 -0.1)">
       <defs>
        <path id="DejaVuSans-31" d="M 794 531 
L 1825 531 
L 1825 4091 
L 703 3866 
L 703 4441 
L 1819 4666 
L 2450 4666 
L 2450 531 
L 3481 531 
L 3481 0 
L 794 0 
L 794 531 
z
" transform="scale(0.015625)"/>
       </defs>
       <use xlink:href="#DejaVuSans-31"/>
       <use xlink:href="#DejaVuSans-30" x="63.623047"/>
      </g>
     </g>
    </g>
    <g id="xtick_4">
     <g id="line2d_4">
      <g>
       <use xlink:href="#md1e10c8978" x="236.385768" y="119.740235" style="stroke: #000000; stroke-width: 0.8"/>
      </g>
     </g>
     <g id="text_4">
      <!-- 15 -->
      <g transform="translate(230.023268 134.338673) scale(0.1 -0.1)">
       <use xlink:href="#DejaVuSans-31"/>
       <use xlink:href="#DejaVuSans-35" x="63.623047"/>
      </g>
     </g>
    </g>
    <g id="xtick_5">
     <g id="line2d_5">
      <g>
       <use xlink:href="#md1e10c8978" x="290.570115" y="119.740235" style="stroke: #000000; stroke-width: 0.8"/>
      </g>
     </g>
     <g id="text_5">
      <!-- 20 -->
      <g transform="translate(284.207615 134.338673) scale(0.1 -0.1)">
       <defs>
        <path id="DejaVuSans-32" d="M 1228 531 
L 3431 531 
L 3431 0 
L 469 0 
L 469 531 
Q 828 903 1448 1529 
Q 2069 2156 2228 2338 
Q 2531 2678 2651 2914 
Q 2772 3150 2772 3378 
Q 2772 3750 2511 3984 
Q 2250 4219 1831 4219 
Q 1534 4219 1204 4116 
Q 875 4013 500 3803 
L 500 4441 
Q 881 4594 1212 4672 
Q 1544 4750 1819 4750 
Q 2544 4750 2975 4387 
Q 3406 4025 3406 3419 
Q 3406 3131 3298 2873 
Q 3191 2616 2906 2266 
Q 2828 2175 2409 1742 
Q 1991 1309 1228 531 
z
" transform="scale(0.015625)"/>
       </defs>
       <use xlink:href="#DejaVuSans-32"/>
       <use xlink:href="#DejaVuSans-30" x="63.623047"/>
      </g>
     </g>
    </g>
    <g id="xtick_6">
     <g id="line2d_6">
      <g>
       <use xlink:href="#md1e10c8978" x="344.754462" y="119.740235" style="stroke: #000000; stroke-width: 0.8"/>
      </g>
     </g>
     <g id="text_6">
      <!-- 25 -->
      <g transform="translate(338.391962 134.338673) scale(0.1 -0.1)">
       <use xlink:href="#DejaVuSans-32"/>
       <use xlink:href="#DejaVuSans-35" x="63.623047"/>
      </g>
     </g>
    </g>
    <g id="xtick_7">
     <g id="line2d_7">
      <g>
       <use xlink:href="#md1e10c8978" x="398.938809" y="119.740235" style="stroke: #000000; stroke-width: 0.8"/>
      </g>
     </g>
     <g id="text_7">
      <!-- 30 -->
      <g transform="translate(392.576309 134.338673) scale(0.1 -0.1)">
       <defs>
        <path id="DejaVuSans-33" d="M 2597 2516 
Q 3050 2419 3304 2112 
Q 3559 1806 3559 1356 
Q 3559 666 3084 287 
Q 2609 -91 1734 -91 
Q 1441 -91 1130 -33 
Q 819 25 488 141 
L 488 750 
Q 750 597 1062 519 
Q 1375 441 1716 441 
Q 2309 441 2620 675 
Q 2931 909 2931 1356 
Q 2931 1769 2642 2001 
Q 2353 2234 1838 2234 
L 1294 2234 
L 1294 2753 
L 1863 2753 
Q 2328 2753 2575 2939 
Q 2822 3125 2822 3475 
Q 2822 3834 2567 4026 
Q 2313 4219 1838 4219 
Q 1578 4219 1281 4162 
Q 984 4106 628 3988 
L 628 4550 
Q 988 4650 1302 4700 
Q 1616 4750 1894 4750 
Q 2613 4750 3031 4423 
Q 3450 4097 3450 3541 
Q 3450 3153 3228 2886 
Q 3006 2619 2597 2516 
z
" transform="scale(0.015625)"/>
       </defs>
       <use xlink:href="#DejaVuSans-33"/>
       <use xlink:href="#DejaVuSans-30" x="63.623047"/>
      </g>
     </g>
    </g>
   </g>
   <g id="matplotlib.axis_2">
    <g id="ytick_1">
     <g id="line2d_8">
      <defs>
       <path id="m77b4667ca0" d="M 0 0 
L -3.5 0 
" style="stroke: #000000; stroke-width: 0.8"/>
      </defs>
      <g>
       <use xlink:href="#m77b4667ca0" x="57.6" y="116.182588" style="stroke: #000000; stroke-width: 0.8"/>
      </g>
     </g>
     <g id="text_8">
      <!-- 0 -->
      <g transform="translate(44.2375 119.981807) scale(0.1 -0.1)">
       <use xlink:href="#DejaVuSans-30"/>
      </g>
     </g>
    </g>
    <g id="ytick_2">
     <g id="line2d_9">
      <g>
       <use xlink:href="#m77b4667ca0" x="57.6" y="78.733672" style="stroke: #000000; stroke-width: 0.8"/>
      </g>
     </g>
     <g id="text_9">
      <!-- 20 -->
      <g transform="translate(37.875 82.532891) scale(0.1 -0.1)">
       <use xlink:href="#DejaVuSans-32"/>
       <use xlink:href="#DejaVuSans-30" x="63.623047"/>
      </g>
     </g>
    </g>
   </g>
   <g id="line2d_10">
    <path d="M 73.832727 95.585684 
L 74.7358 95.585684 
L 75.187336 97.45813 
L 75.638872 101.203022 
L 76.090408 93.713238 
L 76.541945 88.095901 
L 77.445017 95.585684 
L 77.896553 95.585684 
L 78.34809 97.45813 
L 80.605771 88.095901 
L 81.057307 93.713238 
L 81.960379 93.713238 
L 82.411916 95.585684 
L 82.863452 101.203022 
L 83.314988 99.330576 
L 83.766524 104.947913 
L 84.21806 104.947913 
L 85.121133 101.203022 
L 88.733423 101.203022 
L 89.184959 97.45813 
L 90.088031 80.606118 
L 90.539568 78.733672 
L 90.991104 74.98878 
L 91.894176 71.243889 
L 92.797249 78.733672 
L 93.248785 84.351009 
L 93.700321 78.733672 
L 94.151857 74.98878 
L 94.603394 76.861226 
L 95.05493 73.116334 
L 95.506466 71.243889 
L 96.409539 78.733672 
L 97.312611 74.98878 
L 97.764147 78.733672 
L 98.215683 78.733672 
L 98.66722 76.861226 
L 100.021828 76.861226 
L 100.473365 78.733672 
L 100.924901 74.98878 
L 101.827973 74.98878 
L 102.279509 73.116334 
L 103.182582 73.116334 
L 104.085654 65.626551 
L 106.343335 65.626551 
L 107.246408 73.116334 
L 107.697944 71.243889 
L 108.14948 71.243889 
L 109.504089 65.626551 
L 109.955625 65.626551 
L 110.407161 71.243889 
L 111.310234 86.223455 
L 112.664843 74.98878 
L 113.116379 76.861226 
L 113.567915 82.478563 
L 115.37406 67.498997 
L 115.825596 67.498997 
L 116.277132 69.371443 
L 116.728669 116.182588 
L 117.180205 116.182588 
L 117.631741 89.968347 
L 118.534814 89.968347 
L 118.98635 88.095901 
L 119.437886 89.968347 
L 119.889422 93.713238 
L 121.695567 93.713238 
L 122.147103 95.585684 
L 123.050176 84.351009 
L 123.501712 80.606118 
L 123.953248 74.98878 
L 125.307857 69.371443 
L 125.759393 69.371443 
L 126.210929 67.498997 
L 128.017074 67.498997 
L 128.46861 69.371443 
L 128.920147 73.116334 
L 129.371683 71.243889 
L 129.823219 71.243889 
L 130.274755 74.98878 
L 130.726292 74.98878 
L 131.177828 76.861226 
L 131.629364 80.606118 
L 132.0809 86.223455 
L 133.435509 91.840793 
L 133.887045 95.585684 
L 134.338581 91.840793 
L 135.241654 88.095901 
L 135.69319 93.713238 
L 136.144726 93.713238 
L 136.596262 91.840793 
L 137.499335 95.585684 
L 140.208552 95.585684 
L 140.660089 97.45813 
L 141.563161 80.606118 
L 142.014697 78.733672 
L 142.466233 74.98878 
L 143.369306 71.243889 
L 144.272378 78.733672 
L 145.175451 74.98878 
L 145.626987 78.733672 
L 146.530059 78.733672 
L 146.981596 80.606118 
L 147.433132 84.351009 
L 147.884668 86.223455 
L 148.787741 78.733672 
L 149.239277 73.116334 
L 149.690813 69.371443 
L 151.948494 60.009214 
L 152.40003 60.009214 
L 152.851567 58.136768 
L 153.303103 60.009214 
L 154.206175 67.498997 
L 154.657711 76.861226 
L 155.109248 82.478563 
L 155.560784 82.478563 
L 156.01232 84.351009 
L 156.463856 76.861226 
L 157.366929 84.351009 
L 157.818465 84.351009 
L 158.270001 76.861226 
L 159.173074 84.351009 
L 159.62461 86.223455 
L 160.979219 86.223455 
L 161.430755 88.095901 
L 162.785364 88.095901 
L 164.139972 93.713238 
L 164.591508 89.968347 
L 165.043045 91.840793 
L 165.494581 88.095901 
L 165.946117 80.606118 
L 166.397653 74.98878 
L 168.203798 67.498997 
L 169.106871 67.498997 
L 170.009943 63.754105 
L 170.461479 60.009214 
L 171.364552 60.009214 
L 171.816088 58.136768 
L 172.71916 61.881659 
L 173.170697 61.881659 
L 173.622233 65.626551 
L 174.525305 61.881659 
L 176.33145 61.881659 
L 176.782986 60.009214 
L 177.234523 61.881659 
L 179.492204 61.881659 
L 179.94374 60.009214 
L 180.395276 61.881659 
L 180.846812 61.881659 
L 181.298349 63.754105 
L 181.749885 69.371443 
L 182.201421 73.116334 
L 182.652957 73.116334 
L 183.55603 76.861226 
L 184.007566 76.861226 
L 184.459102 61.881659 
L 184.910639 61.881659 
L 185.362175 65.626551 
L 185.813711 63.754105 
L 188.071392 63.754105 
L 188.522928 65.626551 
L 188.974465 61.881659 
L 189.426001 60.009214 
L 189.877537 61.881659 
L 191.232146 61.881659 
L 191.683682 63.754105 
L 192.135218 63.754105 
L 192.586754 61.881659 
L 193.038291 61.881659 
L 193.489827 63.754105 
L 193.941363 63.754105 
L 195.295972 69.371443 
L 195.747508 69.371443 
L 196.199044 71.243889 
L 197.102117 86.223455 
L 197.553653 91.840793 
L 198.005189 95.585684 
L 198.456725 101.203022 
L 198.908261 103.075467 
L 199.359798 97.45813 
L 199.811334 86.223455 
L 200.26287 78.733672 
L 200.714406 78.733672 
L 202.520551 71.243889 
L 204.326696 71.243889 
L 205.681305 82.478563 
L 206.584377 86.223455 
L 207.035914 82.478563 
L 207.48745 84.351009 
L 207.938986 80.606118 
L 208.390522 78.733672 
L 208.842058 74.98878 
L 209.293595 73.116334 
L 209.745131 73.116334 
L 210.196667 74.98878 
L 210.648203 73.116334 
L 211.551276 73.116334 
L 212.905884 78.733672 
L 213.357421 82.478563 
L 213.808957 82.478563 
L 214.260493 84.351009 
L 214.712029 84.351009 
L 215.163566 88.095901 
L 215.615102 88.095901 
L 216.066638 89.968347 
L 216.96971 89.968347 
L 217.421247 91.840793 
L 217.872783 95.585684 
L 218.324319 95.585684 
L 219.227392 84.351009 
L 220.130464 76.861226 
L 220.582 74.98878 
L 221.033536 74.98878 
L 221.485073 73.116334 
L 221.936609 74.98878 
L 222.388145 73.116334 
L 222.839681 76.861226 
L 223.742754 88.095901 
L 224.19429 95.585684 
L 224.645826 99.330576 
L 225.097362 101.203022 
L 225.548899 101.203022 
L 226.000435 103.075467 
L 226.451971 97.45813 
L 226.903507 97.45813 
L 227.355044 116.182588 
L 227.80658 95.585684 
L 229.161189 78.733672 
L 229.612725 84.351009 
L 230.064261 86.223455 
L 230.967333 69.371443 
L 231.41887 65.626551 
L 231.870406 65.626551 
L 232.321942 63.754105 
L 233.225015 63.754105 
L 234.579623 69.371443 
L 235.031159 69.371443 
L 235.934232 76.861226 
L 236.837304 88.095901 
L 237.740377 95.585684 
L 238.191913 91.840793 
L 238.643449 89.968347 
L 239.094985 86.223455 
L 239.546522 86.223455 
L 239.998058 82.478563 
L 240.90113 78.733672 
L 242.255739 89.968347 
L 242.707275 95.585684 
L 243.610348 95.585684 
L 244.061884 97.45813 
L 244.51342 101.203022 
L 245.868029 101.203022 
L 246.319565 103.075467 
L 246.771101 97.45813 
L 247.222638 89.968347 
L 247.674174 84.351009 
L 248.12571 80.606118 
L 248.577246 78.733672 
L 249.028782 74.98878 
L 249.480319 73.116334 
L 249.931855 73.116334 
L 250.834927 76.861226 
L 251.286464 80.606118 
L 252.189536 84.351009 
L 252.641072 88.095901 
L 253.544145 88.095901 
L 253.995681 91.840793 
L 254.447217 93.713238 
L 254.898753 89.968347 
L 255.35029 78.733672 
L 255.801826 82.478563 
L 256.253362 74.98878 
L 256.704898 73.116334 
L 257.156434 73.116334 
L 258.059507 76.861226 
L 258.511043 80.606118 
L 259.414116 84.351009 
L 259.865652 88.095901 
L 260.317188 88.095901 
L 260.768724 86.223455 
L 261.22026 88.095901 
L 262.123333 88.095901 
L 262.574869 89.968347 
L 263.026405 86.223455 
L 263.477942 89.968347 
L 263.929478 84.351009 
L 264.381014 88.095901 
L 265.284086 91.840793 
L 266.187159 91.840793 
L 266.638695 86.223455 
L 267.090231 89.968347 
L 267.541768 88.095901 
L 267.993304 88.095901 
L 268.896376 80.606118 
L 270.702521 88.095901 
L 271.154057 80.606118 
L 271.605594 74.98878 
L 272.05713 74.98878 
L 272.508666 73.116334 
L 273.411739 89.968347 
L 273.863275 93.713238 
L 275.66942 101.203022 
L 277.024028 101.203022 
L 277.475565 97.45813 
L 277.927101 95.585684 
L 278.830173 78.733672 
L 279.281709 78.733672 
L 281.539391 69.371443 
L 281.990927 78.733672 
L 282.442463 84.351009 
L 283.797072 89.968347 
L 284.248608 88.095901 
L 284.700144 88.095901 
L 285.15168 91.840793 
L 286.054753 88.095901 
L 286.506289 89.968347 
L 286.957825 88.095901 
L 287.409361 88.095901 
L 287.860898 86.223455 
L 289.215506 86.223455 
L 289.667043 89.968347 
L 290.118579 89.968347 
L 290.570115 91.840793 
L 291.924724 91.840793 
L 292.37626 93.713238 
L 292.827796 91.840793 
L 293.279332 91.840793 
L 293.730869 89.968347 
L 294.182405 91.840793 
L 295.537014 91.840793 
L 295.98855 86.223455 
L 296.440086 82.478563 
L 297.343158 71.243889 
L 297.794695 69.371443 
L 298.246231 73.116334 
L 298.697767 74.98878 
L 299.149303 78.733672 
L 299.60084 84.351009 
L 300.052376 86.223455 
L 300.503912 89.968347 
L 300.955448 91.840793 
L 301.406984 86.223455 
L 301.858521 89.968347 
L 302.310057 91.840793 
L 302.761593 91.840793 
L 303.213129 93.713238 
L 303.664666 93.713238 
L 304.567738 89.968347 
L 305.019274 89.968347 
L 305.47081 86.223455 
L 305.922347 88.095901 
L 306.825419 88.095901 
L 307.276955 89.968347 
L 307.728492 89.968347 
L 308.180028 88.095901 
L 309.0831 88.095901 
L 309.534636 89.968347 
L 309.986173 89.968347 
L 310.437709 91.840793 
L 311.792318 86.223455 
L 312.243854 88.095901 
L 313.146926 88.095901 
L 313.598463 89.968347 
L 314.049999 89.968347 
L 314.501535 86.223455 
L 314.953071 78.733672 
L 315.404607 73.116334 
L 315.856144 65.626551 
L 316.30768 61.881659 
L 316.759216 60.009214 
L 317.210752 54.391876 
L 319.016897 46.902093 
L 321.274578 46.902093 
L 321.726115 45.029647 
L 322.177651 46.902093 
L 323.080723 61.881659 
L 323.532259 60.009214 
L 323.983796 61.881659 
L 324.886868 61.881659 
L 325.338404 63.754105 
L 325.789941 61.881659 
L 326.241477 61.881659 
L 326.693013 60.009214 
L 327.596085 60.009214 
L 328.047622 58.136768 
L 328.950694 61.881659 
L 329.40223 61.881659 
L 330.756839 56.264322 
L 331.208375 56.264322 
L 331.659911 58.136768 
L 332.111448 61.881659 
L 332.562984 69.371443 
L 333.01452 69.371443 
L 333.466056 67.498997 
L 333.917593 67.498997 
L 334.369129 69.371443 
L 334.820665 73.116334 
L 335.272201 71.243889 
L 336.62681 71.243889 
L 337.529882 78.733672 
L 337.981419 84.351009 
L 338.884491 88.095901 
L 339.336027 93.713238 
L 339.787564 95.585684 
L 340.690636 88.095901 
L 341.142172 88.095901 
L 341.593708 86.223455 
L 342.496781 89.968347 
L 342.948317 89.968347 
L 343.399853 97.45813 
L 343.85139 97.45813 
L 344.302926 101.203022 
L 344.754462 97.45813 
L 345.205998 97.45813 
L 345.657534 91.840793 
L 347.012143 80.606118 
L 347.463679 78.733672 
L 349.269824 78.733672 
L 350.172897 82.478563 
L 350.624433 88.095901 
L 351.527505 84.351009 
L 351.979042 84.351009 
L 352.430578 82.478563 
L 352.882114 86.223455 
L 354.236723 91.840793 
L 354.688259 95.585684 
L 355.591331 95.585684 
L 357.397476 103.075467 
L 358.300549 86.223455 
L 358.752085 80.606118 
L 359.203621 76.861226 
L 359.655157 74.98878 
L 360.106694 78.733672 
L 360.55823 80.606118 
L 361.009766 84.351009 
L 361.461302 89.968347 
L 361.912839 91.840793 
L 362.364375 95.585684 
L 363.267447 99.330576 
L 364.17052 99.330576 
L 364.622056 97.45813 
L 365.073592 91.840793 
L 365.525128 76.861226 
L 365.976665 78.733672 
L 366.428201 84.351009 
L 366.879737 86.223455 
L 367.782809 69.371443 
L 368.234346 65.626551 
L 368.685882 65.626551 
L 369.588954 61.881659 
L 370.040491 69.371443 
L 370.492027 69.371443 
L 371.395099 73.116334 
L 371.846635 78.733672 
L 372.298172 78.733672 
L 372.749708 82.478563 
L 374.104317 88.095901 
L 375.007389 95.585684 
L 375.458925 97.45813 
L 375.910461 116.182588 
L 376.813534 116.182588 
L 377.26507 95.585684 
L 377.716606 88.095901 
L 378.168143 84.351009 
L 378.619679 88.095901 
L 379.071215 80.606118 
L 379.522751 78.733672 
L 379.974288 74.98878 
L 380.425824 73.116334 
L 380.87736 73.116334 
L 381.780432 76.861226 
L 382.231969 80.606118 
L 383.135041 84.351009 
L 383.586577 88.095901 
L 384.48965 88.095901 
L 385.844258 93.713238 
L 386.295795 91.840793 
L 387.198867 91.840793 
L 387.650403 93.713238 
L 388.553476 93.713238 
L 389.005012 86.223455 
L 389.908084 82.478563 
L 390.359621 78.733672 
L 390.811157 76.861226 
L 391.714229 76.861226 
L 393.068838 88.095901 
L 393.97191 67.498997 
L 394.423447 60.009214 
L 396.229592 60.009214 
L 396.681128 56.264322 
L 398.035737 56.264322 
L 398.487273 54.391876 
L 398.487273 54.391876 
" clip-path="url(#pf9e3c20584)" style="fill: none; stroke: #1f77b4; stroke-width: 1.5; stroke-linecap: square"/>
   </g>
   <g id="patch_3">
    <path d="M 57.6 119.740235 
L 57.6 41.472 
" style="fill: none; stroke: #000000; stroke-width: 0.8; stroke-linejoin: miter; stroke-linecap: square"/>
   </g>
   <g id="patch_4">
    <path d="M 414.72 119.740235 
L 414.72 41.472 
" style="fill: none; stroke: #000000; stroke-width: 0.8; stroke-linejoin: miter; stroke-linecap: square"/>
   </g>
   <g id="patch_5">
    <path d="M 57.6 119.740235 
L 414.72 119.740235 
" style="fill: none; stroke: #000000; stroke-width: 0.8; stroke-linejoin: miter; stroke-linecap: square"/>
   </g>
   <g id="patch_6">
    <path d="M 57.6 41.472 
L 414.72 41.472 
" style="fill: none; stroke: #000000; stroke-width: 0.8; stroke-linejoin: miter; stroke-linecap: square"/>
   </g>
  </g>
  <g id="axes_2">
   <g id="patch_7">
    <path d="M 57.6 213.662118 
L 414.72 213.662118 
L 414.72 135.393882 
L 57.6 135.393882 
z
" style="fill: #ffffff"/>
   </g>
   <g id="matplotlib.axis_3">
    <g id="xtick_8">
     <g id="line2d_11">
      <g>
       <use xlink:href="#md1e10c8978" x="73.832727" y="213.662118" style="stroke: #000000; stroke-width: 0.8"/>
      </g>
     </g>
     <g id="text_10">
      <!-- 0 -->
      <g transform="translate(70.651477 228.260555) scale(0.1 -0.1)">
       <use xlink:href="#DejaVuSans-30"/>
      </g>
     </g>
    </g>
    <g id="xtick_9">
     <g id="line2d_12">
      <g>
       <use xlink:href="#md1e10c8978" x="128.017074" y="213.662118" style="stroke: #000000; stroke-width: 0.8"/>
      </g>
     </g>
     <g id="text_11">
      <!-- 5 -->
      <g transform="translate(124.835824 228.260555) scale(0.1 -0.1)">
       <use xlink:href="#DejaVuSans-35"/>
      </g>
     </g>
    </g>
    <g id="xtick_10">
     <g id="line2d_13">
      <g>
       <use xlink:href="#md1e10c8978" x="182.201421" y="213.662118" style="stroke: #000000; stroke-width: 0.8"/>
      </g>
     </g>
     <g id="text_12">
      <!-- 10 -->
      <g transform="translate(175.838921 228.260555) scale(0.1 -0.1)">
       <use xlink:href="#DejaVuSans-31"/>
       <use xlink:href="#DejaVuSans-30" x="63.623047"/>
      </g>
     </g>
    </g>
    <g id="xtick_11">
     <g id="line2d_14">
      <g>
       <use xlink:href="#md1e10c8978" x="236.385768" y="213.662118" style="stroke: #000000; stroke-width: 0.8"/>
      </g>
     </g>
     <g id="text_13">
      <!-- 15 -->
      <g transform="translate(230.023268 228.260555) scale(0.1 -0.1)">
       <use xlink:href="#DejaVuSans-31"/>
       <use xlink:href="#DejaVuSans-35" x="63.623047"/>
      </g>
     </g>
    </g>
    <g id="xtick_12">
     <g id="line2d_15">
      <g>
       <use xlink:href="#md1e10c8978" x="290.570115" y="213.662118" style="stroke: #000000; stroke-width: 0.8"/>
      </g>
     </g>
     <g id="text_14">
      <!-- 20 -->
      <g transform="translate(284.207615 228.260555) scale(0.1 -0.1)">
       <use xlink:href="#DejaVuSans-32"/>
       <use xlink:href="#DejaVuSans-30" x="63.623047"/>
      </g>
     </g>
    </g>
    <g id="xtick_13">
     <g id="line2d_16">
      <g>
       <use xlink:href="#md1e10c8978" x="344.754462" y="213.662118" style="stroke: #000000; stroke-width: 0.8"/>
      </g>
     </g>
     <g id="text_15">
      <!-- 25 -->
      <g transform="translate(338.391962 228.260555) scale(0.1 -0.1)">
       <use xlink:href="#DejaVuSans-32"/>
       <use xlink:href="#DejaVuSans-35" x="63.623047"/>
      </g>
     </g>
    </g>
    <g id="xtick_14">
     <g id="line2d_17">
      <g>
       <use xlink:href="#md1e10c8978" x="398.938809" y="213.662118" style="stroke: #000000; stroke-width: 0.8"/>
      </g>
     </g>
     <g id="text_16">
      <!-- 30 -->
      <g transform="translate(392.576309 228.260555) scale(0.1 -0.1)">
       <use xlink:href="#DejaVuSans-33"/>
       <use xlink:href="#DejaVuSans-30" x="63.623047"/>
      </g>
     </g>
    </g>
   </g>
   <g id="matplotlib.axis_4">
    <g id="ytick_3">
     <g id="line2d_18">
      <g>
       <use xlink:href="#m77b4667ca0" x="57.6" y="210.104471" style="stroke: #000000; stroke-width: 0.8"/>
      </g>
     </g>
     <g id="text_17">
      <!-- 0 -->
      <g transform="translate(44.2375 213.903689) scale(0.1 -0.1)">
       <use xlink:href="#DejaVuSans-30"/>
      </g>
     </g>
    </g>
    <g id="ytick_4">
     <g id="line2d_19">
      <g>
       <use xlink:href="#m77b4667ca0" x="57.6" y="174.528" style="stroke: #000000; stroke-width: 0.8"/>
      </g>
     </g>
     <g id="text_18">
      <!-- 50 -->
      <g transform="translate(37.875 178.327219) scale(0.1 -0.1)">
       <use xlink:href="#DejaVuSans-35"/>
       <use xlink:href="#DejaVuSans-30" x="63.623047"/>
      </g>
     </g>
    </g>
    <g id="ytick_5">
     <g id="line2d_20">
      <g>
       <use xlink:href="#m77b4667ca0" x="57.6" y="138.951529" style="stroke: #000000; stroke-width: 0.8"/>
      </g>
     </g>
     <g id="text_19">
      <!-- 100 -->
      <g transform="translate(31.5125 142.750748) scale(0.1 -0.1)">
       <use xlink:href="#DejaVuSans-31"/>
       <use xlink:href="#DejaVuSans-30" x="63.623047"/>
       <use xlink:href="#DejaVuSans-30" x="127.246094"/>
      </g>
     </g>
    </g>
   </g>
   <g id="line2d_21">
    <path d="M 73.832727 151.047529 
L 74.7358 148.201412 
L 75.187336 141.086118 
L 75.638872 138.951529 
L 76.541945 156.739765 
L 77.445017 146.778353 
L 77.896553 143.932235 
L 78.34809 140.374588 
L 78.799626 148.912941 
L 80.154234 160.297412 
L 80.605771 168.835765 
L 81.057307 158.162824 
L 81.508843 161.720471 
L 81.960379 162.432 
L 82.411916 161.008941 
L 82.863452 144.643765 
L 83.314988 146.066824 
L 83.766524 138.951529 
L 84.21806 141.086118 
L 84.669597 142.509176 
L 85.121133 142.509176 
L 85.572669 140.374588 
L 86.024205 138.951529 
L 89.184959 138.951529 
L 90.088031 162.432 
L 90.539568 162.432 
L 91.44264 173.104941 
L 91.894176 176.662588 
L 93.248785 147.489882 
L 93.700321 159.585882 
L 94.151857 166.701176 
L 94.603394 167.412706 
L 95.506466 176.662588 
L 96.409539 158.162824 
L 96.861075 160.297412 
L 97.312611 164.566588 
L 97.764147 163.143529 
L 98.215683 160.297412 
L 98.66722 158.162824 
L 99.118756 157.451294 
L 99.570292 160.297412 
L 100.021828 156.739765 
L 100.473365 150.336 
L 100.924901 163.855059 
L 101.376437 167.412706 
L 101.827973 165.989647 
L 103.182582 163.855059 
L 103.634118 170.258824 
L 104.537191 178.085647 
L 104.988727 179.508706 
L 105.891799 179.508706 
L 106.343335 178.085647 
L 107.246408 173.816471 
L 107.697944 175.951059 
L 108.14948 175.951059 
L 108.601017 178.797176 
L 109.052553 182.354824 
L 109.504089 183.777882 
L 109.955625 183.777882 
L 110.407161 180.931765 
L 111.310234 153.893647 
L 111.76177 158.162824 
L 112.213306 163.855059 
L 112.664843 167.412706 
L 113.116379 163.855059 
L 113.567915 153.893647 
L 114.470987 170.258824 
L 115.37406 179.508706 
L 115.825596 180.931765 
L 116.277132 179.508706 
L 116.728669 210.104471 
L 117.180205 210.104471 
L 117.631741 144.643765 
L 118.083277 146.066824 
L 118.534814 146.066824 
L 118.98635 147.489882 
L 119.437886 154.605176 
L 119.889422 149.624471 
L 121.695567 149.624471 
L 122.147103 147.489882 
L 122.59864 156.739765 
L 123.050176 162.432 
L 123.501712 162.432 
L 123.953248 175.951059 
L 124.404784 181.643294 
L 125.759393 185.912471 
L 126.210929 188.047059 
L 127.565538 188.047059 
L 128.017074 188.758588 
L 128.46861 188.047059 
L 128.920147 185.912471 
L 129.371683 186.624 
L 129.823219 186.624 
L 130.274755 184.489412 
L 130.726292 181.643294 
L 131.177828 182.354824 
L 131.629364 178.797176 
L 132.0809 169.547294 
L 132.532436 166.701176 
L 133.435509 156.739765 
L 133.887045 149.624471 
L 134.790118 160.297412 
L 135.241654 168.835765 
L 135.69319 158.162824 
L 136.144726 155.316706 
L 136.596262 156.028235 
L 137.047799 148.912941 
L 137.499335 146.066824 
L 138.402407 143.220706 
L 138.853944 142.509176 
L 139.30548 140.374588 
L 139.757016 141.086118 
L 140.208552 140.374588 
L 140.660089 138.951529 
L 141.563161 162.432 
L 142.014697 162.432 
L 142.91777 173.104941 
L 143.369306 176.662588 
L 144.272378 158.162824 
L 144.723915 160.297412 
L 145.175451 164.566588 
L 145.626987 163.143529 
L 146.078523 160.297412 
L 146.530059 160.297412 
L 146.981596 158.874353 
L 147.884668 151.047529 
L 148.336204 156.028235 
L 149.239277 167.412706 
L 149.690813 173.104941 
L 150.142349 175.951059 
L 150.593885 178.085647 
L 151.045422 178.797176 
L 151.496958 180.931765 
L 152.851567 185.200941 
L 153.303103 185.912471 
L 153.754639 179.508706 
L 154.206175 178.085647 
L 154.657711 151.759059 
L 155.109248 139.663059 
L 155.560784 138.951529 
L 156.01232 138.951529 
L 156.463856 152.470588 
L 156.915393 143.220706 
L 157.366929 138.951529 
L 157.818465 138.951529 
L 158.270001 152.470588 
L 158.721537 143.220706 
L 159.173074 138.951529 
L 159.62461 139.663059 
L 160.076146 138.951529 
L 164.139972 138.951529 
L 164.591508 139.663059 
L 165.043045 138.951529 
L 165.494581 142.509176 
L 165.946117 161.720471 
L 166.397653 175.951059 
L 166.84919 178.085647 
L 167.300726 178.797176 
L 167.752262 180.931765 
L 168.203798 181.643294 
L 168.655334 181.643294 
L 169.106871 182.354824 
L 170.009943 185.200941 
L 170.461479 188.047059 
L 170.913016 188.047059 
L 171.364552 188.758588 
L 172.71916 186.624 
L 173.170697 187.335529 
L 173.622233 184.489412 
L 174.073769 187.335529 
L 174.525305 188.758588 
L 175.428378 188.758588 
L 175.879914 188.047059 
L 176.33145 188.758588 
L 176.782986 188.758588 
L 177.234523 188.047059 
L 177.686059 188.758588 
L 178.137595 188.047059 
L 178.589131 188.758588 
L 179.040668 188.047059 
L 179.492204 188.758588 
L 181.298349 188.758588 
L 181.749885 185.912471 
L 182.201421 180.931765 
L 183.55603 170.970353 
L 184.007566 185.200941 
L 184.459102 186.624 
L 184.910639 187.335529 
L 185.362175 184.489412 
L 185.813711 187.335529 
L 186.265247 188.758588 
L 186.716783 188.047059 
L 188.071392 188.047059 
L 188.522928 186.624 
L 188.974465 188.047059 
L 189.426001 188.758588 
L 189.877537 188.047059 
L 190.329073 188.758588 
L 190.780609 188.047059 
L 191.683682 188.047059 
L 192.135218 188.758588 
L 192.586754 190.181647 
L 193.489827 190.181647 
L 193.941363 190.893176 
L 194.392899 190.893176 
L 194.844435 189.470118 
L 195.295972 190.181647 
L 195.747508 190.181647 
L 196.199044 189.470118 
L 196.65058 183.777882 
L 198.005189 155.316706 
L 198.456725 143.932235 
L 198.908261 139.663059 
L 199.359798 148.201412 
L 199.811334 166.701176 
L 200.26287 175.951059 
L 200.714406 176.662588 
L 201.165943 180.931765 
L 201.617479 183.066353 
L 202.069015 185.912471 
L 202.520551 186.624 
L 204.326696 186.624 
L 204.778232 184.489412 
L 205.229769 180.931765 
L 205.681305 175.951059 
L 206.132841 169.547294 
L 206.584377 165.278118 
L 207.035914 174.528 
L 207.48745 170.970353 
L 208.390522 180.220235 
L 208.842058 183.066353 
L 209.293595 185.200941 
L 209.745131 184.489412 
L 210.196667 184.489412 
L 211.09974 187.335529 
L 211.551276 188.047059 
L 212.454348 185.200941 
L 212.905884 182.354824 
L 213.357421 180.220235 
L 213.808957 178.797176 
L 214.260493 175.951059 
L 215.163566 169.547294 
L 215.615102 166.701176 
L 216.518174 162.432 
L 216.96971 161.008941 
L 217.421247 158.874353 
L 217.872783 151.759059 
L 218.324319 150.336 
L 219.678928 172.393412 
L 220.130464 178.797176 
L 220.582 183.066353 
L 221.485073 184.489412 
L 221.936609 183.777882 
L 222.388145 183.777882 
L 222.839681 182.354824 
L 223.291218 177.374118 
L 223.742754 166.701176 
L 224.19429 151.759059 
L 224.645826 143.932235 
L 225.097362 141.086118 
L 225.548899 139.663059 
L 226.000435 138.951529 
L 226.903507 138.951529 
L 227.355044 210.104471 
L 227.80658 138.951529 
L 228.258116 142.509176 
L 229.161189 168.835765 
L 229.612725 155.316706 
L 230.064261 150.336 
L 230.515797 164.566588 
L 230.967333 173.816471 
L 231.41887 178.085647 
L 231.870406 180.220235 
L 232.321942 183.066353 
L 233.225015 184.489412 
L 233.676551 181.643294 
L 234.128087 180.931765 
L 234.579623 180.931765 
L 235.031159 180.220235 
L 235.482696 178.797176 
L 235.934232 175.951059 
L 236.385768 169.547294 
L 236.837304 153.893647 
L 237.288841 146.778353 
L 237.740377 142.509176 
L 238.643449 151.047529 
L 239.094985 161.008941 
L 239.998058 173.104941 
L 240.449594 175.951059 
L 240.90113 178.085647 
L 241.352667 175.239529 
L 242.255739 161.008941 
L 242.707275 151.047529 
L 243.610348 148.201412 
L 244.061884 141.086118 
L 244.51342 138.951529 
L 246.319565 138.951529 
L 246.771101 141.797647 
L 247.674174 162.432 
L 248.577246 162.432 
L 249.480319 173.104941 
L 249.931855 173.816471 
L 251.286464 163.143529 
L 251.738 155.316706 
L 252.189536 141.086118 
L 252.641072 139.663059 
L 253.092608 139.663059 
L 253.544145 141.797647 
L 253.995681 138.951529 
L 254.447217 138.951529 
L 254.898753 143.932235 
L 255.35029 163.143529 
L 255.801826 159.585882 
L 256.253362 170.258824 
L 256.704898 173.104941 
L 257.156434 173.816471 
L 258.511043 163.143529 
L 258.962579 155.316706 
L 259.414116 141.086118 
L 259.865652 139.663059 
L 260.317188 139.663059 
L 260.768724 143.220706 
L 261.22026 140.374588 
L 261.671797 138.951529 
L 262.574869 138.951529 
L 263.026405 141.797647 
L 263.477942 139.663059 
L 263.929478 150.336 
L 264.381014 141.797647 
L 265.284086 138.951529 
L 266.187159 138.951529 
L 266.638695 141.086118 
L 267.090231 138.951529 
L 267.541768 138.951529 
L 267.993304 139.663059 
L 268.44484 143.932235 
L 268.896376 152.470588 
L 269.347913 153.182118 
L 269.799449 152.470588 
L 270.250985 148.201412 
L 270.702521 142.509176 
L 271.154057 161.720471 
L 271.605594 175.951059 
L 272.05713 178.797176 
L 272.508666 180.220235 
L 272.960202 168.835765 
L 273.411739 153.182118 
L 273.863275 146.066824 
L 274.314811 141.797647 
L 274.766347 139.663059 
L 275.217883 138.951529 
L 277.024028 138.951529 
L 277.927101 141.797647 
L 278.378637 157.451294 
L 278.830173 167.412706 
L 279.281709 168.124235 
L 280.636318 181.643294 
L 281.539391 184.489412 
L 282.893999 152.470588 
L 283.345535 147.489882 
L 283.797072 143.932235 
L 284.248608 146.778353 
L 285.15168 140.374588 
L 285.603217 141.797647 
L 286.054753 148.912941 
L 286.506289 149.624471 
L 286.957825 151.047529 
L 287.409361 155.316706 
L 287.860898 156.739765 
L 288.312434 158.874353 
L 288.76397 162.432 
L 289.215506 156.028235 
L 289.667043 143.220706 
L 290.118579 140.374588 
L 290.570115 138.951529 
L 293.730869 138.951529 
L 294.182405 139.663059 
L 294.633941 138.951529 
L 295.537014 138.951529 
L 295.98855 141.086118 
L 296.440086 146.066824 
L 296.891622 159.585882 
L 297.343158 168.124235 
L 297.794695 170.258824 
L 298.246231 168.124235 
L 298.697767 164.566588 
L 299.149303 158.874353 
L 299.60084 150.336 
L 300.052376 143.932235 
L 300.503912 140.374588 
L 300.955448 138.951529 
L 301.406984 141.086118 
L 301.858521 138.951529 
L 302.310057 138.951529 
L 302.761593 139.663059 
L 303.213129 138.951529 
L 305.019274 138.951529 
L 305.47081 140.374588 
L 305.922347 140.374588 
L 306.373883 141.086118 
L 306.825419 140.374588 
L 307.276955 138.951529 
L 307.728492 138.951529 
L 308.180028 143.220706 
L 308.631564 141.086118 
L 309.0831 140.374588 
L 309.534636 138.951529 
L 314.049999 138.951529 
L 314.501535 140.374588 
L 314.953071 153.893647 
L 315.404607 158.874353 
L 315.856144 170.970353 
L 316.759216 183.066353 
L 317.210752 188.047059 
L 318.113825 189.470118 
L 318.565361 191.604706 
L 320.823042 191.604706 
L 321.726115 193.027765 
L 322.177651 192.316235 
L 322.629187 190.181647 
L 323.080723 185.200941 
L 323.532259 186.624 
L 323.983796 185.912471 
L 324.435332 186.624 
L 324.886868 186.624 
L 325.338404 183.066353 
L 325.789941 186.624 
L 326.693013 189.470118 
L 327.596085 190.893176 
L 328.950694 188.758588 
L 330.305303 190.893176 
L 330.756839 190.893176 
L 331.208375 191.604706 
L 331.659911 191.604706 
L 332.111448 190.181647 
L 332.562984 184.489412 
L 333.01452 185.912471 
L 333.466056 188.047059 
L 333.917593 188.758588 
L 334.369129 188.047059 
L 334.820665 185.912471 
L 335.272201 186.624 
L 336.62681 186.624 
L 337.078346 184.489412 
L 337.529882 181.643294 
L 337.981419 175.239529 
L 338.432955 171.681882 
L 338.884491 165.278118 
L 339.336027 153.182118 
L 339.787564 149.624471 
L 340.2391 155.316706 
L 340.690636 163.143529 
L 341.593708 170.970353 
L 342.045245 173.816471 
L 342.496781 173.104941 
L 342.948317 168.124235 
L 343.399853 151.759059 
L 344.302926 140.374588 
L 344.754462 144.643765 
L 345.205998 144.643765 
L 346.109071 163.855059 
L 346.560607 170.970353 
L 347.463679 180.220235 
L 347.915216 180.931765 
L 348.818288 179.508706 
L 349.269824 180.220235 
L 349.72136 178.085647 
L 350.172897 176.662588 
L 350.624433 168.835765 
L 351.527505 176.662588 
L 352.430578 180.931765 
L 353.33365 170.258824 
L 353.785186 171.681882 
L 354.236723 165.989647 
L 354.688259 156.028235 
L 355.139795 156.739765 
L 355.591331 153.893647 
L 356.042868 147.489882 
L 356.94594 141.797647 
L 357.397476 140.374588 
L 357.849013 156.028235 
L 359.203621 181.643294 
L 359.655157 185.200941 
L 360.106694 178.797176 
L 360.55823 175.951059 
L 361.009766 168.124235 
L 361.461302 158.162824 
L 362.364375 146.778353 
L 362.815911 141.797647 
L 363.267447 139.663059 
L 363.718983 138.951529 
L 364.17052 138.951529 
L 364.622056 139.663059 
L 365.073592 148.912941 
L 365.525128 170.970353 
L 365.976665 168.835765 
L 366.428201 155.316706 
L 366.879737 150.336 
L 367.331273 164.566588 
L 367.782809 173.816471 
L 368.234346 178.085647 
L 368.685882 180.220235 
L 369.137418 183.777882 
L 369.588954 185.200941 
L 370.040491 178.085647 
L 370.492027 177.374118 
L 370.943563 175.951059 
L 371.395099 173.104941 
L 371.846635 169.547294 
L 372.298172 168.835765 
L 372.749708 165.989647 
L 373.65278 158.162824 
L 374.104317 153.893647 
L 374.555853 145.355294 
L 375.007389 139.663059 
L 375.458925 138.951529 
L 375.910461 210.104471 
L 376.361998 141.086118 
L 376.813534 210.104471 
L 377.26507 138.951529 
L 377.716606 151.759059 
L 378.168143 158.874353 
L 378.619679 150.336 
L 379.071215 162.432 
L 379.522751 162.432 
L 380.425824 173.104941 
L 380.87736 173.816471 
L 382.231969 163.143529 
L 382.683505 155.316706 
L 383.135041 141.086118 
L 383.586577 139.663059 
L 384.038114 139.663059 
L 384.48965 141.797647 
L 385.392722 138.951529 
L 385.844258 138.951529 
L 386.295795 139.663059 
L 386.747331 138.951529 
L 387.198867 139.663059 
L 387.650403 138.951529 
L 388.10194 138.951529 
L 388.553476 139.663059 
L 389.005012 151.759059 
L 389.456548 156.739765 
L 389.908084 158.874353 
L 390.811157 170.258824 
L 391.262693 170.970353 
L 391.714229 167.412706 
L 392.617302 147.489882 
L 393.068838 143.220706 
L 393.520374 161.008941 
L 394.423447 183.066353 
L 394.874983 185.200941 
L 396.229592 185.200941 
L 396.681128 186.624 
L 397.132664 187.335529 
L 397.5842 187.335529 
L 398.035737 188.758588 
L 398.487273 188.758588 
L 398.487273 188.758588 
" clip-path="url(#p4d2f628d83)" style="fill: none; stroke: #1f77b4; stroke-width: 1.5; stroke-linecap: square"/>
   </g>
   <g id="patch_8">
    <path d="M 57.6 213.662118 
L 57.6 135.393882 
" style="fill: none; stroke: #000000; stroke-width: 0.8; stroke-linejoin: miter; stroke-linecap: square"/>
   </g>
   <g id="patch_9">
    <path d="M 414.72 213.662118 
L 414.72 135.393882 
" style="fill: none; stroke: #000000; stroke-width: 0.8; stroke-linejoin: miter; stroke-linecap: square"/>
   </g>
   <g id="patch_10">
    <path d="M 57.6 213.662118 
L 414.72 213.662118 
" style="fill: none; stroke: #000000; stroke-width: 0.8; stroke-linejoin: miter; stroke-linecap: square"/>
   </g>
   <g id="patch_11">
    <path d="M 57.6 135.393882 
L 414.72 135.393882 
" style="fill: none; stroke: #000000; stroke-width: 0.8; stroke-linejoin: miter; stroke-linecap: square"/>
   </g>
  </g>
  <g id="axes_3">
   <g id="patch_12">
    <path d="M 57.6 307.584 
L 414.72 307.584 
L 414.72 229.315765 
L 57.6 229.315765 
z
" style="fill: #ffffff"/>
   </g>
   <g id="matplotlib.axis_5">
    <g id="xtick_15">
     <g id="line2d_22">
      <g>
       <use xlink:href="#md1e10c8978" x="73.832727" y="307.584" style="stroke: #000000; stroke-width: 0.8"/>
      </g>
     </g>
     <g id="text_20">
      <!-- 0 -->
      <g transform="translate(70.651477 322.182437) scale(0.1 -0.1)">
       <use xlink:href="#DejaVuSans-30"/>
      </g>
     </g>
    </g>
    <g id="xtick_16">
     <g id="line2d_23">
      <g>
       <use xlink:href="#md1e10c8978" x="128.017074" y="307.584" style="stroke: #000000; stroke-width: 0.8"/>
      </g>
     </g>
     <g id="text_21">
      <!-- 5 -->
      <g transform="translate(124.835824 322.182437) scale(0.1 -0.1)">
       <use xlink:href="#DejaVuSans-35"/>
      </g>
     </g>
    </g>
    <g id="xtick_17">
     <g id="line2d_24">
      <g>
       <use xlink:href="#md1e10c8978" x="182.201421" y="307.584" style="stroke: #000000; stroke-width: 0.8"/>
      </g>
     </g>
     <g id="text_22">
      <!-- 10 -->
      <g transform="translate(175.838921 322.182437) scale(0.1 -0.1)">
       <use xlink:href="#DejaVuSans-31"/>
       <use xlink:href="#DejaVuSans-30" x="63.623047"/>
      </g>
     </g>
    </g>
    <g id="xtick_18">
     <g id="line2d_25">
      <g>
       <use xlink:href="#md1e10c8978" x="236.385768" y="307.584" style="stroke: #000000; stroke-width: 0.8"/>
      </g>
     </g>
     <g id="text_23">
      <!-- 15 -->
      <g transform="translate(230.023268 322.182437) scale(0.1 -0.1)">
       <use xlink:href="#DejaVuSans-31"/>
       <use xlink:href="#DejaVuSans-35" x="63.623047"/>
      </g>
     </g>
    </g>
    <g id="xtick_19">
     <g id="line2d_26">
      <g>
       <use xlink:href="#md1e10c8978" x="290.570115" y="307.584" style="stroke: #000000; stroke-width: 0.8"/>
      </g>
     </g>
     <g id="text_24">
      <!-- 20 -->
      <g transform="translate(284.207615 322.182437) scale(0.1 -0.1)">
       <use xlink:href="#DejaVuSans-32"/>
       <use xlink:href="#DejaVuSans-30" x="63.623047"/>
      </g>
     </g>
    </g>
    <g id="xtick_20">
     <g id="line2d_27">
      <g>
       <use xlink:href="#md1e10c8978" x="344.754462" y="307.584" style="stroke: #000000; stroke-width: 0.8"/>
      </g>
     </g>
     <g id="text_25">
      <!-- 25 -->
      <g transform="translate(338.391962 322.182437) scale(0.1 -0.1)">
       <use xlink:href="#DejaVuSans-32"/>
       <use xlink:href="#DejaVuSans-35" x="63.623047"/>
      </g>
     </g>
    </g>
    <g id="xtick_21">
     <g id="line2d_28">
      <g>
       <use xlink:href="#md1e10c8978" x="398.938809" y="307.584" style="stroke: #000000; stroke-width: 0.8"/>
      </g>
     </g>
     <g id="text_26">
      <!-- 30 -->
      <g transform="translate(392.576309 322.182437) scale(0.1 -0.1)">
       <use xlink:href="#DejaVuSans-33"/>
       <use xlink:href="#DejaVuSans-30" x="63.623047"/>
      </g>
     </g>
    </g>
   </g>
   <g id="matplotlib.axis_6">
    <g id="ytick_6">
     <g id="line2d_29">
      <g>
       <use xlink:href="#m77b4667ca0" x="57.6" y="304.026353" style="stroke: #000000; stroke-width: 0.8"/>
      </g>
     </g>
     <g id="text_27">
      <!-- 0 -->
      <g transform="translate(44.2375 307.825572) scale(0.1 -0.1)">
       <use xlink:href="#DejaVuSans-30"/>
      </g>
     </g>
    </g>
    <g id="ytick_7">
     <g id="line2d_30">
      <g>
       <use xlink:href="#m77b4667ca0" x="57.6" y="264.496941" style="stroke: #000000; stroke-width: 0.8"/>
      </g>
     </g>
     <g id="text_28">
      <!-- 5 -->
      <g transform="translate(44.2375 268.29616) scale(0.1 -0.1)">
       <use xlink:href="#DejaVuSans-35"/>
      </g>
     </g>
    </g>
   </g>
   <g id="line2d_31">
    <path d="M 73.832727 304.026353 
L 82.863452 304.026353 
L 83.766524 288.214588 
L 84.21806 304.026353 
L 154.206175 304.026353 
L 154.657711 264.496941 
L 155.109248 304.026353 
L 289.215506 304.026353 
L 289.667043 296.120471 
L 290.118579 304.026353 
L 310.437709 304.026353 
L 310.889245 280.308706 
L 311.340781 232.873412 
L 311.792318 304.026353 
L 398.487273 304.026353 
L 398.487273 304.026353 
" clip-path="url(#p966458c344)" style="fill: none; stroke: #1f77b4; stroke-width: 1.5; stroke-linecap: square"/>
   </g>
   <g id="patch_13">
    <path d="M 57.6 307.584 
L 57.6 229.315765 
" style="fill: none; stroke: #000000; stroke-width: 0.8; stroke-linejoin: miter; stroke-linecap: square"/>
   </g>
   <g id="patch_14">
    <path d="M 414.72 307.584 
L 414.72 229.315765 
" style="fill: none; stroke: #000000; stroke-width: 0.8; stroke-linejoin: miter; stroke-linecap: square"/>
   </g>
   <g id="patch_15">
    <path d="M 57.6 307.584 
L 414.72 307.584 
" style="fill: none; stroke: #000000; stroke-width: 0.8; stroke-linejoin: miter; stroke-linecap: square"/>
   </g>
   <g id="patch_16">
    <path d="M 57.6 229.315765 
L 414.72 229.315765 
" style="fill: none; stroke: #000000; stroke-width: 0.8; stroke-linejoin: miter; stroke-linecap: square"/>
   </g>
  </g>
  <g id="text_29">
   <!-- cleaned_weather_summer -->
   <g transform="translate(151.397813 16.030125) scale(0.12 -0.12)">
    <defs>
     <path id="DejaVuSans-63" d="M 3122 3366 
L 3122 2828 
Q 2878 2963 2633 3030 
Q 2388 3097 2138 3097 
Q 1578 3097 1268 2742 
Q 959 2388 959 1747 
Q 959 1106 1268 751 
Q 1578 397 2138 397 
Q 2388 397 2633 464 
Q 2878 531 3122 666 
L 3122 134 
Q 2881 22 2623 -34 
Q 2366 -91 2075 -91 
Q 1284 -91 818 406 
Q 353 903 353 1747 
Q 353 2603 823 3093 
Q 1294 3584 2113 3584 
Q 2378 3584 2631 3529 
Q 2884 3475 3122 3366 
z
" transform="scale(0.015625)"/>
     <path id="DejaVuSans-6c" d="M 603 4863 
L 1178 4863 
L 1178 0 
L 603 0 
L 603 4863 
z
" transform="scale(0.015625)"/>
     <path id="DejaVuSans-65" d="M 3597 1894 
L 3597 1613 
L 953 1613 
Q 991 1019 1311 708 
Q 1631 397 2203 397 
Q 2534 397 2845 478 
Q 3156 559 3463 722 
L 3463 178 
Q 3153 47 2828 -22 
Q 2503 -91 2169 -91 
Q 1331 -91 842 396 
Q 353 884 353 1716 
Q 353 2575 817 3079 
Q 1281 3584 2069 3584 
Q 2775 3584 3186 3129 
Q 3597 2675 3597 1894 
z
M 3022 2063 
Q 3016 2534 2758 2815 
Q 2500 3097 2075 3097 
Q 1594 3097 1305 2825 
Q 1016 2553 972 2059 
L 3022 2063 
z
" transform="scale(0.015625)"/>
     <path id="DejaVuSans-61" d="M 2194 1759 
Q 1497 1759 1228 1600 
Q 959 1441 959 1056 
Q 959 750 1161 570 
Q 1363 391 1709 391 
Q 2188 391 2477 730 
Q 2766 1069 2766 1631 
L 2766 1759 
L 2194 1759 
z
M 3341 1997 
L 3341 0 
L 2766 0 
L 2766 531 
Q 2569 213 2275 61 
Q 1981 -91 1556 -91 
Q 1019 -91 701 211 
Q 384 513 384 1019 
Q 384 1609 779 1909 
Q 1175 2209 1959 2209 
L 2766 2209 
L 2766 2266 
Q 2766 2663 2505 2880 
Q 2244 3097 1772 3097 
Q 1472 3097 1187 3025 
Q 903 2953 641 2809 
L 641 3341 
Q 956 3463 1253 3523 
Q 1550 3584 1831 3584 
Q 2591 3584 2966 3190 
Q 3341 2797 3341 1997 
z
" transform="scale(0.015625)"/>
     <path id="DejaVuSans-6e" d="M 3513 2113 
L 3513 0 
L 2938 0 
L 2938 2094 
Q 2938 2591 2744 2837 
Q 2550 3084 2163 3084 
Q 1697 3084 1428 2787 
Q 1159 2491 1159 1978 
L 1159 0 
L 581 0 
L 581 3500 
L 1159 3500 
L 1159 2956 
Q 1366 3272 1645 3428 
Q 1925 3584 2291 3584 
Q 2894 3584 3203 3211 
Q 3513 2838 3513 2113 
z
" transform="scale(0.015625)"/>
     <path id="DejaVuSans-64" d="M 2906 2969 
L 2906 4863 
L 3481 4863 
L 3481 0 
L 2906 0 
L 2906 525 
Q 2725 213 2448 61 
Q 2172 -91 1784 -91 
Q 1150 -91 751 415 
Q 353 922 353 1747 
Q 353 2572 751 3078 
Q 1150 3584 1784 3584 
Q 2172 3584 2448 3432 
Q 2725 3281 2906 2969 
z
M 947 1747 
Q 947 1113 1208 752 
Q 1469 391 1925 391 
Q 2381 391 2643 752 
Q 2906 1113 2906 1747 
Q 2906 2381 2643 2742 
Q 2381 3103 1925 3103 
Q 1469 3103 1208 2742 
Q 947 2381 947 1747 
z
" transform="scale(0.015625)"/>
     <path id="DejaVuSans-5f" d="M 3263 -1063 
L 3263 -1509 
L -63 -1509 
L -63 -1063 
L 3263 -1063 
z
" transform="scale(0.015625)"/>
     <path id="DejaVuSans-77" d="M 269 3500 
L 844 3500 
L 1563 769 
L 2278 3500 
L 2956 3500 
L 3675 769 
L 4391 3500 
L 4966 3500 
L 4050 0 
L 3372 0 
L 2619 2869 
L 1863 0 
L 1184 0 
L 269 3500 
z
" transform="scale(0.015625)"/>
     <path id="DejaVuSans-74" d="M 1172 4494 
L 1172 3500 
L 2356 3500 
L 2356 3053 
L 1172 3053 
L 1172 1153 
Q 1172 725 1289 603 
Q 1406 481 1766 481 
L 2356 481 
L 2356 0 
L 1766 0 
Q 1100 0 847 248 
Q 594 497 594 1153 
L 594 3053 
L 172 3053 
L 172 3500 
L 594 3500 
L 594 4494 
L 1172 4494 
z
" transform="scale(0.015625)"/>
     <path id="DejaVuSans-68" d="M 3513 2113 
L 3513 0 
L 2938 0 
L 2938 2094 
Q 2938 2591 2744 2837 
Q 2550 3084 2163 3084 
Q 1697 3084 1428 2787 
Q 1159 2491 1159 1978 
L 1159 0 
L 581 0 
L 581 4863 
L 1159 4863 
L 1159 2956 
Q 1366 3272 1645 3428 
Q 1925 3584 2291 3584 
Q 2894 3584 3203 3211 
Q 3513 2838 3513 2113 
z
" transform="scale(0.015625)"/>
     <path id="DejaVuSans-72" d="M 2631 2963 
Q 2534 3019 2420 3045 
Q 2306 3072 2169 3072 
Q 1681 3072 1420 2755 
Q 1159 2438 1159 1844 
L 1159 0 
L 581 0 
L 581 3500 
L 1159 3500 
L 1159 2956 
Q 1341 3275 1631 3429 
Q 1922 3584 2338 3584 
Q 2397 3584 2469 3576 
Q 2541 3569 2628 3553 
L 2631 2963 
z
" transform="scale(0.015625)"/>
     <path id="DejaVuSans-73" d="M 2834 3397 
L 2834 2853 
Q 2591 2978 2328 3040 
Q 2066 3103 1784 3103 
Q 1356 3103 1142 2972 
Q 928 2841 928 2578 
Q 928 2378 1081 2264 
Q 1234 2150 1697 2047 
L 1894 2003 
Q 2506 1872 2764 1633 
Q 3022 1394 3022 966 
Q 3022 478 2636 193 
Q 2250 -91 1575 -91 
Q 1294 -91 989 -36 
Q 684 19 347 128 
L 347 722 
Q 666 556 975 473 
Q 1284 391 1588 391 
Q 1994 391 2212 530 
Q 2431 669 2431 922 
Q 2431 1156 2273 1281 
Q 2116 1406 1581 1522 
L 1381 1569 
Q 847 1681 609 1914 
Q 372 2147 372 2553 
Q 372 3047 722 3315 
Q 1072 3584 1716 3584 
Q 2034 3584 2315 3537 
Q 2597 3491 2834 3397 
z
" transform="scale(0.015625)"/>
     <path id="DejaVuSans-75" d="M 544 1381 
L 544 3500 
L 1119 3500 
L 1119 1403 
Q 1119 906 1312 657 
Q 1506 409 1894 409 
Q 2359 409 2629 706 
Q 2900 1003 2900 1516 
L 2900 3500 
L 3475 3500 
L 3475 0 
L 2900 0 
L 2900 538 
Q 2691 219 2414 64 
Q 2138 -91 1772 -91 
Q 1169 -91 856 284 
Q 544 659 544 1381 
z
M 1991 3584 
L 1991 3584 
z
" transform="scale(0.015625)"/>
     <path id="DejaVuSans-6d" d="M 3328 2828 
Q 3544 3216 3844 3400 
Q 4144 3584 4550 3584 
Q 5097 3584 5394 3201 
Q 5691 2819 5691 2113 
L 5691 0 
L 5113 0 
L 5113 2094 
Q 5113 2597 4934 2840 
Q 4756 3084 4391 3084 
Q 3944 3084 3684 2787 
Q 3425 2491 3425 1978 
L 3425 0 
L 2847 0 
L 2847 2094 
Q 2847 2600 2669 2842 
Q 2491 3084 2119 3084 
Q 1678 3084 1418 2786 
Q 1159 2488 1159 1978 
L 1159 0 
L 581 0 
L 581 3500 
L 1159 3500 
L 1159 2956 
Q 1356 3278 1631 3431 
Q 1906 3584 2284 3584 
Q 2666 3584 2933 3390 
Q 3200 3197 3328 2828 
z
" transform="scale(0.015625)"/>
    </defs>
    <use xlink:href="#DejaVuSans-63"/>
    <use xlink:href="#DejaVuSans-6c" x="54.980469"/>
    <use xlink:href="#DejaVuSans-65" x="82.763672"/>
    <use xlink:href="#DejaVuSans-61" x="144.287109"/>
    <use xlink:href="#DejaVuSans-6e" x="205.566406"/>
    <use xlink:href="#DejaVuSans-65" x="268.945312"/>
    <use xlink:href="#DejaVuSans-64" x="330.46875"/>
    <use xlink:href="#DejaVuSans-5f" x="393.945312"/>
    <use xlink:href="#DejaVuSans-77" x="443.945312"/>
    <use xlink:href="#DejaVuSans-65" x="525.732422"/>
    <use xlink:href="#DejaVuSans-61" x="587.255859"/>
    <use xlink:href="#DejaVuSans-74" x="648.535156"/>
    <use xlink:href="#DejaVuSans-68" x="687.744141"/>
    <use xlink:href="#DejaVuSans-65" x="751.123047"/>
    <use xlink:href="#DejaVuSans-72" x="812.646484"/>
    <use xlink:href="#DejaVuSans-5f" x="853.759766"/>
    <use xlink:href="#DejaVuSans-73" x="903.759766"/>
    <use xlink:href="#DejaVuSans-75" x="955.859375"/>
    <use xlink:href="#DejaVuSans-6d" x="1019.238281"/>
    <use xlink:href="#DejaVuSans-6d" x="1116.650391"/>
    <use xlink:href="#DejaVuSans-65" x="1214.0625"/>
    <use xlink:href="#DejaVuSans-72" x="1275.585938"/>
   </g>
  </g>
 </g>
 <defs>
  <clipPath id="pf9e3c20584">
   <rect x="57.6" y="41.472" width="357.12" height="78.268235"/>
  </clipPath>
  <clipPath id="p4d2f628d83">
   <rect x="57.6" y="135.393882" width="357.12" height="78.268235"/>
  </clipPath>
  <clipPath id="p966458c344">
   <rect x="57.6" y="229.315765" width="357.12" height="78.268235"/>
  </clipPath>
 </defs>
</svg>
