<?xml version="1.0" encoding="utf-8" standalone="no"?>
<!DOCTYPE svg PUBLIC "-//W3C//DTD SVG 1.1//EN"
  "http://www.w3.org/Graphics/SVG/1.1/DTD/svg11.dtd">
<svg xmlns:xlink="http://www.w3.org/1999/xlink" width="460.8pt" height="345.6pt" viewBox="0 0 460.8 345.6" xmlns="http://www.w3.org/2000/svg" version="1.1">
 <metadata>
  <rdf:RDF xmlns:dc="http://purl.org/dc/elements/1.1/" xmlns:cc="http://creativecommons.org/ns#" xmlns:rdf="http://www.w3.org/1999/02/22-rdf-syntax-ns#">
   <cc:Work>
    <dc:type rdf:resource="http://purl.org/dc/dcmitype/StillImage"/>
    <dc:date>2023-03-09T09:42:16.736028</dc:date>
    <dc:format>image/svg+xml</dc:format>
    <dc:creator>
     <cc:Agent>
      <dc:title>Matplotlib v3.7.1, https://matplotlib.org/</dc:title>
     </cc:Agent>
    </dc:creator>
   </cc:Work>
  </rdf:RDF>
 </metadata>
 <defs>
  <style type="text/css">*{stroke-linejoin: round; stroke-linecap: butt}</style>
 </defs>
 <g id="figure_1">
  <g id="patch_1">
   <path d="M 0 345.6 
L 460.8 345.6 
L 460.8 0 
L 0 0 
z
" style="fill: #ffffff"/>
  </g>
  <g id="axes_1">
   <g id="patch_2">
    <path d="M 57.6 119.740235 
L 414.72 119.740235 
L 414.72 41.472 
L 57.6 41.472 
z
" style="fill: #ffffff"/>
   </g>
   <g id="matplotlib.axis_1">
    <g id="xtick_1">
     <g id="line2d_1">
      <defs>
       <path id="m3fb87f84b1" d="M 0 0 
L 0 3.5 
" style="stroke: #000000; stroke-width: 0.8"/>
      </defs>
      <g>
       <use xlink:href="#m3fb87f84b1" x="73.832727" y="119.740235" style="stroke: #000000; stroke-width: 0.8"/>
      </g>
     </g>
     <g id="text_1">
      <!-- 0 -->
      <g transform="translate(70.651477 134.338673) scale(0.1 -0.1)">
       <defs>
        <path id="DejaVuSans-30" d="M 2034 4250 
Q 1547 4250 1301 3770 
Q 1056 3291 1056 2328 
Q 1056 1369 1301 889 
Q 1547 409 2034 409 
Q 2525 409 2770 889 
Q 3016 1369 3016 2328 
Q 3016 3291 2770 3770 
Q 2525 4250 2034 4250 
z
M 2034 4750 
Q 2819 4750 3233 4129 
Q 3647 3509 3647 2328 
Q 3647 1150 3233 529 
Q 2819 -91 2034 -91 
Q 1250 -91 836 529 
Q 422 1150 422 2328 
Q 422 3509 836 4129 
Q 1250 4750 2034 4750 
z
" transform="scale(0.015625)"/>
       </defs>
       <use xlink:href="#DejaVuSans-30"/>
      </g>
     </g>
    </g>
    <g id="xtick_2">
     <g id="line2d_2">
      <g>
       <use xlink:href="#m3fb87f84b1" x="128.017074" y="119.740235" style="stroke: #000000; stroke-width: 0.8"/>
      </g>
     </g>
     <g id="text_2">
      <!-- 5 -->
      <g transform="translate(124.835824 134.338673) scale(0.1 -0.1)">
       <defs>
        <path id="DejaVuSans-35" d="M 691 4666 
L 3169 4666 
L 3169 4134 
L 1269 4134 
L 1269 2991 
Q 1406 3038 1543 3061 
Q 1681 3084 1819 3084 
Q 2600 3084 3056 2656 
Q 3513 2228 3513 1497 
Q 3513 744 3044 326 
Q 2575 -91 1722 -91 
Q 1428 -91 1123 -41 
Q 819 9 494 109 
L 494 744 
Q 775 591 1075 516 
Q 1375 441 1709 441 
Q 2250 441 2565 725 
Q 2881 1009 2881 1497 
Q 2881 1984 2565 2268 
Q 2250 2553 1709 2553 
Q 1456 2553 1204 2497 
Q 953 2441 691 2322 
L 691 4666 
z
" transform="scale(0.015625)"/>
       </defs>
       <use xlink:href="#DejaVuSans-35"/>
      </g>
     </g>
    </g>
    <g id="xtick_3">
     <g id="line2d_3">
      <g>
       <use xlink:href="#m3fb87f84b1" x="182.201421" y="119.740235" style="stroke: #000000; stroke-width: 0.8"/>
      </g>
     </g>
     <g id="text_3">
      <!-- 10 -->
      <g transform="translate(175.838921 134.338673) scale(0.1 -0.1)">
       <defs>
        <path id="DejaVuSans-31" d="M 794 531 
L 1825 531 
L 1825 4091 
L 703 3866 
L 703 4441 
L 1819 4666 
L 2450 4666 
L 2450 531 
L 3481 531 
L 3481 0 
L 794 0 
L 794 531 
z
" transform="scale(0.015625)"/>
       </defs>
       <use xlink:href="#DejaVuSans-31"/>
       <use xlink:href="#DejaVuSans-30" x="63.623047"/>
      </g>
     </g>
    </g>
    <g id="xtick_4">
     <g id="line2d_4">
      <g>
       <use xlink:href="#m3fb87f84b1" x="236.385768" y="119.740235" style="stroke: #000000; stroke-width: 0.8"/>
      </g>
     </g>
     <g id="text_4">
      <!-- 15 -->
      <g transform="translate(230.023268 134.338673) scale(0.1 -0.1)">
       <use xlink:href="#DejaVuSans-31"/>
       <use xlink:href="#DejaVuSans-35" x="63.623047"/>
      </g>
     </g>
    </g>
    <g id="xtick_5">
     <g id="line2d_5">
      <g>
       <use xlink:href="#m3fb87f84b1" x="290.570115" y="119.740235" style="stroke: #000000; stroke-width: 0.8"/>
      </g>
     </g>
     <g id="text_5">
      <!-- 20 -->
      <g transform="translate(284.207615 134.338673) scale(0.1 -0.1)">
       <defs>
        <path id="DejaVuSans-32" d="M 1228 531 
L 3431 531 
L 3431 0 
L 469 0 
L 469 531 
Q 828 903 1448 1529 
Q 2069 2156 2228 2338 
Q 2531 2678 2651 2914 
Q 2772 3150 2772 3378 
Q 2772 3750 2511 3984 
Q 2250 4219 1831 4219 
Q 1534 4219 1204 4116 
Q 875 4013 500 3803 
L 500 4441 
Q 881 4594 1212 4672 
Q 1544 4750 1819 4750 
Q 2544 4750 2975 4387 
Q 3406 4025 3406 3419 
Q 3406 3131 3298 2873 
Q 3191 2616 2906 2266 
Q 2828 2175 2409 1742 
Q 1991 1309 1228 531 
z
" transform="scale(0.015625)"/>
       </defs>
       <use xlink:href="#DejaVuSans-32"/>
       <use xlink:href="#DejaVuSans-30" x="63.623047"/>
      </g>
     </g>
    </g>
    <g id="xtick_6">
     <g id="line2d_6">
      <g>
       <use xlink:href="#m3fb87f84b1" x="344.754462" y="119.740235" style="stroke: #000000; stroke-width: 0.8"/>
      </g>
     </g>
     <g id="text_6">
      <!-- 25 -->
      <g transform="translate(338.391962 134.338673) scale(0.1 -0.1)">
       <use xlink:href="#DejaVuSans-32"/>
       <use xlink:href="#DejaVuSans-35" x="63.623047"/>
      </g>
     </g>
    </g>
    <g id="xtick_7">
     <g id="line2d_7">
      <g>
       <use xlink:href="#m3fb87f84b1" x="398.938809" y="119.740235" style="stroke: #000000; stroke-width: 0.8"/>
      </g>
     </g>
     <g id="text_7">
      <!-- 30 -->
      <g transform="translate(392.576309 134.338673) scale(0.1 -0.1)">
       <defs>
        <path id="DejaVuSans-33" d="M 2597 2516 
Q 3050 2419 3304 2112 
Q 3559 1806 3559 1356 
Q 3559 666 3084 287 
Q 2609 -91 1734 -91 
Q 1441 -91 1130 -33 
Q 819 25 488 141 
L 488 750 
Q 750 597 1062 519 
Q 1375 441 1716 441 
Q 2309 441 2620 675 
Q 2931 909 2931 1356 
Q 2931 1769 2642 2001 
Q 2353 2234 1838 2234 
L 1294 2234 
L 1294 2753 
L 1863 2753 
Q 2328 2753 2575 2939 
Q 2822 3125 2822 3475 
Q 2822 3834 2567 4026 
Q 2313 4219 1838 4219 
Q 1578 4219 1281 4162 
Q 984 4106 628 3988 
L 628 4550 
Q 988 4650 1302 4700 
Q 1616 4750 1894 4750 
Q 2613 4750 3031 4423 
Q 3450 4097 3450 3541 
Q 3450 3153 3228 2886 
Q 3006 2619 2597 2516 
z
" transform="scale(0.015625)"/>
       </defs>
       <use xlink:href="#DejaVuSans-33"/>
       <use xlink:href="#DejaVuSans-30" x="63.623047"/>
      </g>
     </g>
    </g>
   </g>
   <g id="matplotlib.axis_2">
    <g id="ytick_1">
     <g id="line2d_8">
      <defs>
       <path id="mab2311624a" d="M 0 0 
L -3.5 0 
" style="stroke: #000000; stroke-width: 0.8"/>
      </defs>
      <g>
       <use xlink:href="#mab2311624a" x="57.6" y="112.794353" style="stroke: #000000; stroke-width: 0.8"/>
      </g>
     </g>
     <g id="text_8">
      <!-- 0 -->
      <g transform="translate(44.2375 116.593572) scale(0.1 -0.1)">
       <use xlink:href="#DejaVuSans-30"/>
      </g>
     </g>
    </g>
    <g id="ytick_2">
     <g id="line2d_9">
      <g>
       <use xlink:href="#mab2311624a" x="57.6" y="78.912" style="stroke: #000000; stroke-width: 0.8"/>
      </g>
     </g>
     <g id="text_9">
      <!-- 10 -->
      <g transform="translate(37.875 82.711219) scale(0.1 -0.1)">
       <use xlink:href="#DejaVuSans-31"/>
       <use xlink:href="#DejaVuSans-30" x="63.623047"/>
      </g>
     </g>
    </g>
    <g id="ytick_3">
     <g id="line2d_10">
      <g>
       <use xlink:href="#mab2311624a" x="57.6" y="45.029647" style="stroke: #000000; stroke-width: 0.8"/>
      </g>
     </g>
     <g id="text_10">
      <!-- 20 -->
      <g transform="translate(37.875 48.828866) scale(0.1 -0.1)">
       <use xlink:href="#DejaVuSans-32"/>
       <use xlink:href="#DejaVuSans-30" x="63.623047"/>
      </g>
     </g>
    </g>
   </g>
   <g id="line2d_11">
    <path d="M 73.832727 75.523765 
L 74.284263 68.747294 
L 74.7358 65.359059 
L 75.187336 65.359059 
L 76.090408 58.582588 
L 77.445017 58.582588 
L 77.896553 61.970824 
L 78.34809 72.135529 
L 79.251162 78.912 
L 79.702698 75.523765 
L 80.154234 75.523765 
L 81.057307 68.747294 
L 81.508843 61.970824 
L 81.960379 61.970824 
L 82.411916 58.582588 
L 83.314988 72.135529 
L 84.21806 65.359059 
L 87.378814 65.359059 
L 87.83035 68.747294 
L 88.281886 61.970824 
L 89.184959 61.970824 
L 89.636495 65.359059 
L 90.088031 65.359059 
L 90.539568 72.135529 
L 90.991104 85.688471 
L 91.44264 82.300235 
L 91.894176 85.688471 
L 93.700321 85.688471 
L 94.151857 89.076706 
L 94.603394 89.076706 
L 95.05493 95.853176 
L 96.409539 95.853176 
L 96.861075 99.241412 
L 99.118756 99.241412 
L 100.021828 106.017882 
L 100.473365 102.629647 
L 100.924901 106.017882 
L 101.376437 112.794353 
L 101.827973 109.406118 
L 102.279509 95.853176 
L 102.731046 78.912 
L 103.182582 68.747294 
L 103.634118 61.970824 
L 104.085654 61.970824 
L 104.537191 58.582588 
L 104.988727 61.970824 
L 105.440263 58.582588 
L 105.891799 61.970824 
L 106.343335 75.523765 
L 106.794872 85.688471 
L 107.246408 85.688471 
L 107.697944 92.464941 
L 108.14948 89.076706 
L 108.601017 92.464941 
L 109.052553 92.464941 
L 109.504089 89.076706 
L 109.955625 92.464941 
L 110.858698 92.464941 
L 111.310234 89.076706 
L 111.76177 89.076706 
L 112.213306 85.688471 
L 113.567915 85.688471 
L 114.019451 78.912 
L 114.922524 78.912 
L 115.825596 85.688471 
L 117.631741 85.688471 
L 118.534814 92.464941 
L 118.98635 78.912 
L 119.437886 78.912 
L 119.889422 85.688471 
L 121.695567 99.241412 
L 122.59864 85.688471 
L 123.501712 85.688471 
L 123.953248 82.300235 
L 124.404784 85.688471 
L 125.307857 85.688471 
L 125.759393 82.300235 
L 126.210929 85.688471 
L 127.114002 85.688471 
L 127.565538 92.464941 
L 128.920147 102.629647 
L 129.371683 92.464941 
L 129.823219 85.688471 
L 130.274755 82.300235 
L 130.726292 85.688471 
L 131.629364 85.688471 
L 132.0809 92.464941 
L 133.435509 102.629647 
L 134.338581 102.629647 
L 134.790118 109.406118 
L 135.241654 106.017882 
L 135.69319 109.406118 
L 137.047799 109.406118 
L 137.499335 112.794353 
L 137.950871 102.629647 
L 138.402407 99.241412 
L 141.563161 99.241412 
L 142.466233 106.017882 
L 142.91777 102.629647 
L 143.820842 109.406118 
L 144.723915 109.406118 
L 145.175451 102.629647 
L 145.626987 99.241412 
L 146.078523 99.241412 
L 146.530059 95.853176 
L 148.787741 95.853176 
L 149.239277 99.241412 
L 150.142349 99.241412 
L 151.045422 106.017882 
L 151.496958 102.629647 
L 152.40003 109.406118 
L 152.851567 109.406118 
L 153.303103 112.794353 
L 155.109248 112.794353 
L 155.560784 109.406118 
L 156.01232 102.629647 
L 156.463856 102.629647 
L 156.915393 106.017882 
L 158.270001 106.017882 
L 158.721537 112.794353 
L 159.173074 102.629647 
L 159.62461 99.241412 
L 160.979219 109.406118 
L 161.430755 109.406118 
L 161.882291 106.017882 
L 162.333827 106.017882 
L 162.785364 109.406118 
L 164.139972 109.406118 
L 164.591508 112.794353 
L 167.752262 112.794353 
L 168.203798 116.182588 
L 168.655334 112.794353 
L 175.879914 112.794353 
L 176.33145 102.629647 
L 176.782986 106.017882 
L 177.234523 102.629647 
L 178.137595 102.629647 
L 179.040668 109.406118 
L 179.492204 102.629647 
L 179.94374 102.629647 
L 180.395276 85.688471 
L 180.846812 85.688471 
L 181.298349 89.076706 
L 181.749885 85.688471 
L 182.652957 85.688471 
L 183.104494 89.076706 
L 183.55603 85.688471 
L 184.007566 78.912 
L 184.459102 82.300235 
L 184.910639 72.135529 
L 185.362175 65.359059 
L 185.813711 61.970824 
L 186.716783 61.970824 
L 187.16832 65.359059 
L 187.619856 72.135529 
L 188.071392 72.135529 
L 188.974465 78.912 
L 189.426001 92.464941 
L 190.780609 102.629647 
L 191.683682 102.629647 
L 192.135218 99.241412 
L 194.844435 99.241412 
L 195.295972 106.017882 
L 195.747508 109.406118 
L 198.908261 109.406118 
L 199.359798 112.794353 
L 199.811334 109.406118 
L 201.165943 109.406118 
L 201.617479 112.794353 
L 206.584377 112.794353 
L 207.035914 109.406118 
L 207.48745 102.629647 
L 207.938986 102.629647 
L 208.390522 99.241412 
L 208.842058 102.629647 
L 209.293595 109.406118 
L 210.196667 109.406118 
L 210.648203 102.629647 
L 211.09974 106.017882 
L 211.551276 106.017882 
L 212.454348 99.241412 
L 215.163566 99.241412 
L 215.615102 106.017882 
L 216.066638 106.017882 
L 216.518174 109.406118 
L 217.421247 109.406118 
L 217.872783 112.794353 
L 219.227392 112.794353 
L 219.678928 106.017882 
L 220.130464 102.629647 
L 220.582 106.017882 
L 221.033536 92.464941 
L 221.485073 82.300235 
L 222.839681 72.135529 
L 224.645826 72.135529 
L 225.097362 61.970824 
L 225.548899 58.582588 
L 226.000435 58.582588 
L 226.451971 55.194353 
L 227.355044 55.194353 
L 227.80658 58.582588 
L 228.258116 68.747294 
L 228.709652 82.300235 
L 230.064261 92.464941 
L 230.515797 102.629647 
L 231.870406 102.629647 
L 232.773478 65.359059 
L 233.676551 72.135529 
L 234.128087 65.359059 
L 234.579623 65.359059 
L 235.482696 72.135529 
L 235.934232 65.359059 
L 236.385768 65.359059 
L 236.837304 55.194353 
L 237.288841 51.806118 
L 237.740377 51.806118 
L 238.191913 48.417882 
L 238.643449 51.806118 
L 239.094985 51.806118 
L 239.546522 55.194353 
L 239.998058 61.970824 
L 240.449594 75.523765 
L 240.90113 68.747294 
L 242.255739 58.582588 
L 243.158811 65.359059 
L 243.610348 65.359059 
L 244.061884 72.135529 
L 244.51342 85.688471 
L 245.416493 85.688471 
L 245.868029 89.076706 
L 246.319565 89.076706 
L 246.771101 95.853176 
L 247.222638 95.853176 
L 247.674174 89.076706 
L 248.12571 78.912 
L 249.028782 72.135529 
L 249.480319 78.912 
L 249.931855 82.300235 
L 250.383391 89.076706 
L 250.834927 85.688471 
L 251.286464 92.464941 
L 251.738 89.076706 
L 252.189536 92.464941 
L 252.641072 92.464941 
L 253.092608 89.076706 
L 253.544145 92.464941 
L 254.447217 92.464941 
L 254.898753 89.076706 
L 255.35029 89.076706 
L 255.801826 85.688471 
L 256.704898 85.688471 
L 257.156434 78.912 
L 258.059507 78.912 
L 258.511043 82.300235 
L 259.414116 82.300235 
L 260.317188 89.076706 
L 260.768724 82.300235 
L 261.22026 92.464941 
L 262.123333 85.688471 
L 262.574869 92.464941 
L 263.026405 95.853176 
L 263.477942 95.853176 
L 263.929478 102.629647 
L 264.381014 99.241412 
L 264.83255 82.300235 
L 265.735623 89.076706 
L 266.187159 85.688471 
L 266.638695 89.076706 
L 267.090231 85.688471 
L 267.541768 89.076706 
L 267.993304 95.853176 
L 268.44484 99.241412 
L 272.508666 99.241412 
L 272.960202 95.853176 
L 273.411739 95.853176 
L 273.863275 99.241412 
L 274.314811 95.853176 
L 274.766347 95.853176 
L 275.217883 99.241412 
L 275.66942 95.853176 
L 276.120956 99.241412 
L 279.733246 99.241412 
L 280.184782 95.853176 
L 280.636318 95.853176 
L 281.087854 102.629647 
L 283.797072 102.629647 
L 284.700144 89.076706 
L 285.15168 78.912 
L 286.054753 72.135529 
L 286.506289 72.135529 
L 286.957825 68.747294 
L 287.409361 72.135529 
L 287.860898 72.135529 
L 288.76397 78.912 
L 290.118579 78.912 
L 291.021651 85.688471 
L 292.37626 85.688471 
L 292.827796 89.076706 
L 293.730869 82.300235 
L 294.182405 82.300235 
L 294.633941 78.912 
L 295.085477 78.912 
L 295.537014 82.300235 
L 295.98855 89.076706 
L 296.891622 95.853176 
L 297.343158 78.912 
L 297.794695 68.747294 
L 298.246231 61.970824 
L 298.697767 61.970824 
L 299.149303 58.582588 
L 299.60084 61.970824 
L 300.052376 58.582588 
L 301.406984 58.582588 
L 301.858521 61.970824 
L 302.310057 72.135529 
L 303.213129 78.912 
L 304.116202 78.912 
L 305.019274 72.135529 
L 305.922347 58.582588 
L 306.373883 58.582588 
L 306.825419 61.970824 
L 307.276955 68.747294 
L 307.728492 68.747294 
L 308.180028 72.135529 
L 308.631564 68.747294 
L 309.0831 61.970824 
L 309.534636 58.582588 
L 309.986173 61.970824 
L 310.437709 61.970824 
L 310.889245 65.359059 
L 311.340781 65.359059 
L 311.792318 72.135529 
L 312.243854 75.523765 
L 312.69539 112.794353 
L 313.146926 75.523765 
L 313.598463 75.523765 
L 315.404607 61.970824 
L 316.759216 61.970824 
L 317.210752 65.359059 
L 317.662289 61.970824 
L 318.113825 68.747294 
L 318.565361 68.747294 
L 319.016897 72.135529 
L 319.91997 85.688471 
L 320.371506 85.688471 
L 321.274578 78.912 
L 322.177651 78.912 
L 323.080723 85.688471 
L 323.532259 85.688471 
L 323.983796 89.076706 
L 324.886868 75.523765 
L 325.338404 72.135529 
L 325.789941 65.359059 
L 327.144549 55.194353 
L 328.499158 65.359059 
L 328.950694 72.135529 
L 329.853767 72.135529 
L 330.305303 75.523765 
L 330.756839 72.135529 
L 331.208375 75.523765 
L 331.659911 72.135529 
L 332.111448 75.523765 
L 332.562984 72.135529 
L 333.01452 78.912 
L 333.466056 82.300235 
L 333.917593 82.300235 
L 334.369129 85.688471 
L 334.820665 78.912 
L 335.272201 75.523765 
L 335.723738 78.912 
L 336.175274 75.523765 
L 336.62681 75.523765 
L 337.078346 68.747294 
L 337.529882 58.582588 
L 337.981419 51.806118 
L 338.884491 51.806118 
L 339.336027 55.194353 
L 339.787564 55.194353 
L 340.2391 58.582588 
L 340.690636 58.582588 
L 341.142172 61.970824 
L 341.593708 68.747294 
L 342.496781 68.747294 
L 342.948317 72.135529 
L 343.399853 72.135529 
L 343.85139 75.523765 
L 344.302926 72.135529 
L 344.754462 72.135529 
L 345.205998 75.523765 
L 346.560607 75.523765 
L 347.012143 68.747294 
L 347.463679 55.194353 
L 348.366752 61.970824 
L 349.72136 61.970824 
L 350.172897 65.359059 
L 351.527505 55.194353 
L 352.430578 55.194353 
L 352.882114 58.582588 
L 353.785186 72.135529 
L 354.688259 78.912 
L 355.591331 78.912 
L 356.042868 75.523765 
L 356.94594 75.523765 
L 357.397476 78.912 
L 357.849013 85.688471 
L 358.300549 78.912 
L 358.752085 78.912 
L 359.203621 75.523765 
L 359.655157 68.747294 
L 360.106694 55.194353 
L 360.55823 48.417882 
L 361.009766 45.029647 
L 361.461302 51.806118 
L 362.364375 58.582588 
L 362.815911 58.582588 
L 363.267447 65.359059 
L 363.718983 78.912 
L 365.073592 89.076706 
L 365.525128 95.853176 
L 365.976665 99.241412 
L 367.782809 99.241412 
L 368.234346 95.853176 
L 368.685882 78.912 
L 369.588954 58.582588 
L 370.040491 51.806118 
L 370.943563 45.029647 
L 371.846635 45.029647 
L 372.749708 58.582588 
L 373.201244 68.747294 
L 373.65278 68.747294 
L 374.104317 61.970824 
L 374.555853 68.747294 
L 375.007389 68.747294 
L 375.458925 72.135529 
L 376.361998 65.359059 
L 376.813534 75.523765 
L 377.26507 75.523765 
L 377.716606 78.912 
L 378.168143 75.523765 
L 378.619679 78.912 
L 379.974288 78.912 
L 380.425824 75.523765 
L 380.87736 68.747294 
L 381.780432 68.747294 
L 382.231969 75.523765 
L 382.683505 72.135529 
L 384.038114 72.135529 
L 384.48965 61.970824 
L 384.941186 58.582588 
L 385.392722 58.582588 
L 385.844258 55.194353 
L 386.747331 55.194353 
L 387.198867 61.970824 
L 387.650403 55.194353 
L 388.10194 55.194353 
L 388.553476 58.582588 
L 389.005012 68.747294 
L 389.456548 82.300235 
L 390.359621 89.076706 
L 390.811157 82.300235 
L 392.165766 82.300235 
L 392.617302 89.076706 
L 393.068838 92.464941 
L 393.520374 102.629647 
L 394.423447 102.629647 
L 394.874983 99.241412 
L 395.326519 99.241412 
L 395.778055 102.629647 
L 396.229592 102.629647 
L 396.681128 106.017882 
L 397.132664 92.464941 
L 397.5842 82.300235 
L 398.035737 78.912 
L 398.487273 78.912 
L 398.487273 78.912 
" clip-path="url(#p336b65edcb)" style="fill: none; stroke: #1f77b4; stroke-width: 1.5; stroke-linecap: square"/>
   </g>
   <g id="patch_3">
    <path d="M 57.6 119.740235 
L 57.6 41.472 
" style="fill: none; stroke: #000000; stroke-width: 0.8; stroke-linejoin: miter; stroke-linecap: square"/>
   </g>
   <g id="patch_4">
    <path d="M 414.72 119.740235 
L 414.72 41.472 
" style="fill: none; stroke: #000000; stroke-width: 0.8; stroke-linejoin: miter; stroke-linecap: square"/>
   </g>
   <g id="patch_5">
    <path d="M 57.6 119.740235 
L 414.72 119.740235 
" style="fill: none; stroke: #000000; stroke-width: 0.8; stroke-linejoin: miter; stroke-linecap: square"/>
   </g>
   <g id="patch_6">
    <path d="M 57.6 41.472 
L 414.72 41.472 
" style="fill: none; stroke: #000000; stroke-width: 0.8; stroke-linejoin: miter; stroke-linecap: square"/>
   </g>
  </g>
  <g id="axes_2">
   <g id="patch_7">
    <path d="M 57.6 213.662118 
L 414.72 213.662118 
L 414.72 135.393882 
L 57.6 135.393882 
z
" style="fill: #ffffff"/>
   </g>
   <g id="matplotlib.axis_3">
    <g id="xtick_8">
     <g id="line2d_12">
      <g>
       <use xlink:href="#m3fb87f84b1" x="73.832727" y="213.662118" style="stroke: #000000; stroke-width: 0.8"/>
      </g>
     </g>
     <g id="text_11">
      <!-- 0 -->
      <g transform="translate(70.651477 228.260555) scale(0.1 -0.1)">
       <use xlink:href="#DejaVuSans-30"/>
      </g>
     </g>
    </g>
    <g id="xtick_9">
     <g id="line2d_13">
      <g>
       <use xlink:href="#m3fb87f84b1" x="128.017074" y="213.662118" style="stroke: #000000; stroke-width: 0.8"/>
      </g>
     </g>
     <g id="text_12">
      <!-- 5 -->
      <g transform="translate(124.835824 228.260555) scale(0.1 -0.1)">
       <use xlink:href="#DejaVuSans-35"/>
      </g>
     </g>
    </g>
    <g id="xtick_10">
     <g id="line2d_14">
      <g>
       <use xlink:href="#m3fb87f84b1" x="182.201421" y="213.662118" style="stroke: #000000; stroke-width: 0.8"/>
      </g>
     </g>
     <g id="text_13">
      <!-- 10 -->
      <g transform="translate(175.838921 228.260555) scale(0.1 -0.1)">
       <use xlink:href="#DejaVuSans-31"/>
       <use xlink:href="#DejaVuSans-30" x="63.623047"/>
      </g>
     </g>
    </g>
    <g id="xtick_11">
     <g id="line2d_15">
      <g>
       <use xlink:href="#m3fb87f84b1" x="236.385768" y="213.662118" style="stroke: #000000; stroke-width: 0.8"/>
      </g>
     </g>
     <g id="text_14">
      <!-- 15 -->
      <g transform="translate(230.023268 228.260555) scale(0.1 -0.1)">
       <use xlink:href="#DejaVuSans-31"/>
       <use xlink:href="#DejaVuSans-35" x="63.623047"/>
      </g>
     </g>
    </g>
    <g id="xtick_12">
     <g id="line2d_16">
      <g>
       <use xlink:href="#m3fb87f84b1" x="290.570115" y="213.662118" style="stroke: #000000; stroke-width: 0.8"/>
      </g>
     </g>
     <g id="text_15">
      <!-- 20 -->
      <g transform="translate(284.207615 228.260555) scale(0.1 -0.1)">
       <use xlink:href="#DejaVuSans-32"/>
       <use xlink:href="#DejaVuSans-30" x="63.623047"/>
      </g>
     </g>
    </g>
    <g id="xtick_13">
     <g id="line2d_17">
      <g>
       <use xlink:href="#m3fb87f84b1" x="344.754462" y="213.662118" style="stroke: #000000; stroke-width: 0.8"/>
      </g>
     </g>
     <g id="text_16">
      <!-- 25 -->
      <g transform="translate(338.391962 228.260555) scale(0.1 -0.1)">
       <use xlink:href="#DejaVuSans-32"/>
       <use xlink:href="#DejaVuSans-35" x="63.623047"/>
      </g>
     </g>
    </g>
    <g id="xtick_14">
     <g id="line2d_18">
      <g>
       <use xlink:href="#m3fb87f84b1" x="398.938809" y="213.662118" style="stroke: #000000; stroke-width: 0.8"/>
      </g>
     </g>
     <g id="text_17">
      <!-- 30 -->
      <g transform="translate(392.576309 228.260555) scale(0.1 -0.1)">
       <use xlink:href="#DejaVuSans-33"/>
       <use xlink:href="#DejaVuSans-30" x="63.623047"/>
      </g>
     </g>
    </g>
   </g>
   <g id="matplotlib.axis_4">
    <g id="ytick_4">
     <g id="line2d_19">
      <g>
       <use xlink:href="#mab2311624a" x="57.6" y="196.332934" style="stroke: #000000; stroke-width: 0.8"/>
      </g>
     </g>
     <g id="text_18">
      <!-- 50 -->
      <g transform="translate(37.875 200.132152) scale(0.1 -0.1)">
       <use xlink:href="#DejaVuSans-35"/>
       <use xlink:href="#DejaVuSans-30" x="63.623047"/>
      </g>
     </g>
    </g>
    <g id="ytick_5">
     <g id="line2d_20">
      <g>
       <use xlink:href="#mab2311624a" x="57.6" y="167.642231" style="stroke: #000000; stroke-width: 0.8"/>
      </g>
     </g>
     <g id="text_19">
      <!-- 75 -->
      <g transform="translate(37.875 171.44145) scale(0.1 -0.1)">
       <defs>
        <path id="DejaVuSans-37" d="M 525 4666 
L 3525 4666 
L 3525 4397 
L 1831 0 
L 1172 0 
L 2766 4134 
L 525 4134 
L 525 4666 
z
" transform="scale(0.015625)"/>
       </defs>
       <use xlink:href="#DejaVuSans-37"/>
       <use xlink:href="#DejaVuSans-35" x="63.623047"/>
      </g>
     </g>
    </g>
    <g id="ytick_6">
     <g id="line2d_21">
      <g>
       <use xlink:href="#mab2311624a" x="57.6" y="138.951529" style="stroke: #000000; stroke-width: 0.8"/>
      </g>
     </g>
     <g id="text_20">
      <!-- 100 -->
      <g transform="translate(31.5125 142.750748) scale(0.1 -0.1)">
       <use xlink:href="#DejaVuSans-31"/>
       <use xlink:href="#DejaVuSans-30" x="63.623047"/>
       <use xlink:href="#DejaVuSans-30" x="127.246094"/>
      </g>
     </g>
    </g>
   </g>
   <g id="line2d_22">
    <path d="M 73.832727 158.461207 
L 74.7358 179.118512 
L 75.187336 181.413769 
L 75.638872 191.742421 
L 76.090408 198.62819 
L 76.541945 203.218702 
L 76.993481 205.513958 
L 77.445017 206.661586 
L 77.896553 202.071074 
L 78.799626 152.723066 
L 79.251162 143.542042 
L 79.702698 163.051719 
L 80.154234 157.313579 
L 80.605771 163.051719 
L 81.057307 176.823256 
L 81.508843 186.004281 
L 81.960379 190.594793 
L 82.411916 194.037677 
L 82.863452 188.299537 
L 83.314988 176.823256 
L 83.766524 184.856653 
L 84.21806 188.299537 
L 84.669597 188.299537 
L 85.121133 186.004281 
L 85.572669 184.856653 
L 86.024205 186.004281 
L 86.475742 184.856653 
L 86.927278 181.413769 
L 87.378814 180.26614 
L 87.83035 176.823256 
L 88.281886 186.004281 
L 88.733423 191.742421 
L 89.636495 196.332934 
L 90.088031 197.480562 
L 90.539568 192.890049 
L 90.991104 163.051719 
L 91.44264 172.232744 
L 91.894176 167.642231 
L 92.345712 165.346975 
L 92.797249 160.756463 
L 93.248785 161.904091 
L 93.700321 158.461207 
L 94.603394 156.165951 
L 95.05493 144.68967 
L 95.958002 144.68967 
L 96.409539 142.394414 
L 96.861075 142.394414 
L 97.312611 141.246786 
L 97.764147 143.542042 
L 98.66722 152.723066 
L 99.118756 150.42781 
L 100.021828 141.246786 
L 100.924901 141.246786 
L 101.376437 138.951529 
L 101.827973 138.951529 
L 102.279509 140.099157 
L 102.731046 167.642231 
L 103.182582 186.004281 
L 103.634118 195.185306 
L 104.085654 198.62819 
L 104.537191 199.775818 
L 104.988727 197.480562 
L 105.440263 198.62819 
L 105.891799 194.037677 
L 106.343335 171.085116 
L 106.794872 156.165951 
L 107.697944 141.246786 
L 108.14948 142.394414 
L 108.601017 140.099157 
L 109.504089 140.099157 
L 109.955625 138.951529 
L 111.76177 138.951529 
L 112.213306 140.099157 
L 112.664843 145.837298 
L 113.116379 143.542042 
L 113.567915 143.542042 
L 114.019451 148.132554 
L 114.470987 160.756463 
L 114.922524 159.608835 
L 115.37406 152.723066 
L 116.277132 145.837298 
L 116.728669 143.542042 
L 117.180205 144.68967 
L 117.631741 144.68967 
L 118.083277 141.246786 
L 118.534814 138.951529 
L 118.98635 146.984926 
L 119.437886 150.42781 
L 119.889422 141.246786 
L 120.792495 138.951529 
L 121.695567 138.951529 
L 122.147103 142.394414 
L 122.59864 155.018323 
L 123.050176 164.199347 
L 123.501712 163.051719 
L 123.953248 165.346975 
L 124.404784 159.608835 
L 124.856321 158.461207 
L 125.307857 163.051719 
L 125.759393 172.232744 
L 126.210929 167.642231 
L 126.662466 165.346975 
L 127.114002 160.756463 
L 127.565538 151.575438 
L 128.017074 145.837298 
L 128.46861 142.394414 
L 128.920147 143.542042 
L 129.371683 156.165951 
L 129.823219 163.051719 
L 130.274755 172.232744 
L 130.726292 167.642231 
L 131.177828 165.346975 
L 131.629364 160.756463 
L 132.0809 151.575438 
L 132.532436 145.837298 
L 132.983973 142.394414 
L 134.338581 142.394414 
L 134.790118 140.099157 
L 135.241654 138.951529 
L 137.950871 138.951529 
L 138.402407 143.542042 
L 138.853944 140.099157 
L 139.30548 142.394414 
L 139.757016 141.246786 
L 140.208552 143.542042 
L 141.111625 152.723066 
L 141.563161 150.42781 
L 142.466233 141.246786 
L 143.369306 141.246786 
L 143.820842 140.099157 
L 144.272378 142.394414 
L 144.723915 143.542042 
L 145.175451 150.42781 
L 146.530059 157.313579 
L 146.981596 157.313579 
L 147.433132 155.018323 
L 147.884668 153.870694 
L 148.787741 153.870694 
L 149.239277 150.42781 
L 149.690813 152.723066 
L 150.142349 150.42781 
L 151.045422 141.246786 
L 151.948494 141.246786 
L 152.40003 140.099157 
L 152.851567 144.68967 
L 153.303103 141.246786 
L 153.754639 144.68967 
L 154.206175 142.394414 
L 154.657711 141.246786 
L 155.109248 142.394414 
L 155.560784 149.280182 
L 156.01232 153.870694 
L 156.463856 149.280182 
L 156.915393 141.246786 
L 157.366929 138.951529 
L 158.270001 141.246786 
L 158.721537 138.951529 
L 165.043045 138.951529 
L 165.494581 140.099157 
L 165.946117 138.951529 
L 172.267624 138.951529 
L 172.71916 140.099157 
L 173.170697 138.951529 
L 179.94374 138.951529 
L 180.395276 148.132554 
L 181.298349 141.246786 
L 181.749885 141.246786 
L 182.201421 143.542042 
L 182.652957 140.099157 
L 183.104494 140.099157 
L 183.55603 143.542042 
L 184.007566 153.870694 
L 184.459102 151.575438 
L 184.910639 168.78986 
L 185.813711 187.151909 
L 186.265247 194.037677 
L 186.716783 194.037677 
L 187.16832 188.299537 
L 187.619856 176.823256 
L 188.071392 175.675628 
L 188.522928 177.970884 
L 188.974465 167.642231 
L 189.426001 143.542042 
L 189.877537 140.099157 
L 190.329073 138.951529 
L 199.359798 138.951529 
L 199.811334 141.246786 
L 200.26287 142.394414 
L 201.165943 142.394414 
L 201.617479 140.099157 
L 202.520551 140.099157 
L 202.972087 138.951529 
L 205.681305 138.951529 
L 206.132841 140.099157 
L 206.584377 143.542042 
L 207.035914 143.542042 
L 207.48745 144.68967 
L 207.938986 149.280182 
L 208.390522 150.42781 
L 208.842058 145.837298 
L 209.293595 138.951529 
L 220.582 138.951529 
L 221.033536 146.984926 
L 221.485073 160.756463 
L 221.936609 165.346975 
L 223.291218 172.232744 
L 223.742754 166.494603 
L 224.19429 165.346975 
L 224.645826 173.380372 
L 225.097362 189.447165 
L 225.548899 198.62819 
L 226.000435 200.923446 
L 226.451971 205.513958 
L 226.903507 206.661586 
L 227.355044 204.36633 
L 227.80658 199.775818 
L 228.258116 190.594793 
L 228.709652 161.904091 
L 229.161189 151.575438 
L 229.612725 149.280182 
L 230.515797 138.951529 
L 231.870406 138.951529 
L 232.321942 148.132554 
L 232.773478 182.561397 
L 233.225015 180.26614 
L 233.676551 168.78986 
L 234.128087 182.561397 
L 234.579623 182.561397 
L 235.031159 180.26614 
L 235.482696 168.78986 
L 235.934232 182.561397 
L 236.385768 182.561397 
L 236.837304 199.775818 
L 237.288841 205.513958 
L 238.191913 210.104471 
L 238.643449 210.104471 
L 239.094985 208.956843 
L 239.546522 206.661586 
L 239.998058 189.447165 
L 240.449594 163.051719 
L 240.90113 179.118512 
L 241.352667 181.413769 
L 241.804203 191.742421 
L 242.255739 198.62819 
L 242.707275 194.037677 
L 243.158811 196.332934 
L 243.610348 197.480562 
L 244.061884 192.890049 
L 244.51342 163.051719 
L 244.964956 161.904091 
L 245.416493 158.461207 
L 246.319565 156.165951 
L 246.771101 144.68967 
L 247.222638 144.68967 
L 248.12571 168.78986 
L 248.577246 182.561397 
L 249.028782 177.970884 
L 249.480319 171.085116 
L 249.931855 157.313579 
L 250.383391 146.984926 
L 250.834927 148.132554 
L 251.286464 141.246786 
L 251.738 142.394414 
L 252.189536 140.099157 
L 253.092608 140.099157 
L 253.544145 138.951529 
L 255.35029 138.951529 
L 255.801826 140.099157 
L 256.253362 145.837298 
L 256.704898 143.542042 
L 257.156434 148.132554 
L 257.607971 160.756463 
L 258.059507 159.608835 
L 258.511043 152.723066 
L 258.962579 156.165951 
L 259.414116 156.165951 
L 259.865652 152.723066 
L 260.317188 150.42781 
L 260.768724 159.608835 
L 261.22026 144.68967 
L 261.671797 146.984926 
L 262.123333 148.132554 
L 262.574869 141.246786 
L 263.026405 138.951529 
L 264.381014 138.951529 
L 264.83255 151.575438 
L 265.284086 146.984926 
L 265.735623 141.246786 
L 266.187159 140.099157 
L 266.638695 140.099157 
L 267.090231 143.542042 
L 267.541768 140.099157 
L 267.993304 138.951529 
L 280.184782 138.951529 
L 280.636318 140.099157 
L 281.087854 138.951529 
L 283.797072 138.951529 
L 284.248608 144.68967 
L 285.15168 168.78986 
L 285.603217 182.561397 
L 286.054753 177.970884 
L 286.506289 182.561397 
L 286.957825 182.561397 
L 287.409361 179.118512 
L 288.312434 152.723066 
L 288.76397 152.723066 
L 289.215506 146.984926 
L 290.118579 151.575438 
L 290.570115 149.280182 
L 291.021651 148.132554 
L 291.473188 144.68967 
L 292.37626 144.68967 
L 292.827796 143.542042 
L 293.279332 152.723066 
L 293.730869 159.608835 
L 294.182405 163.051719 
L 294.633941 165.346975 
L 295.085477 164.199347 
L 295.537014 158.461207 
L 295.98855 149.280182 
L 296.440086 143.542042 
L 296.891622 140.099157 
L 297.343158 167.642231 
L 297.794695 186.004281 
L 298.246231 195.185306 
L 298.697767 198.62819 
L 299.149303 199.775818 
L 299.60084 197.480562 
L 300.052376 198.62819 
L 300.503912 203.218702 
L 300.955448 205.513958 
L 301.406984 206.661586 
L 301.858521 202.071074 
L 302.761593 152.723066 
L 303.213129 143.542042 
L 303.664666 146.984926 
L 304.116202 145.837298 
L 304.567738 145.837298 
L 305.019274 150.42781 
L 305.922347 169.937488 
L 306.373883 174.528 
L 306.825419 167.642231 
L 307.276955 156.165951 
L 307.728492 157.313579 
L 308.180028 153.870694 
L 308.631564 156.165951 
L 309.0831 165.346975 
L 309.534636 172.232744 
L 309.986173 171.085116 
L 310.437709 172.232744 
L 310.889245 167.642231 
L 311.340781 166.494603 
L 312.243854 143.542042 
L 312.69539 143.542042 
L 313.146926 140.099157 
L 313.598463 140.099157 
L 314.049999 144.68967 
L 314.953071 163.051719 
L 315.404607 167.642231 
L 315.856144 173.380372 
L 316.30768 166.494603 
L 316.759216 166.494603 
L 317.210752 159.608835 
L 317.662289 168.78986 
L 318.113825 163.051719 
L 319.016897 144.68967 
L 319.468433 141.246786 
L 319.91997 138.951529 
L 320.371506 138.951529 
L 320.823042 148.132554 
L 321.274578 153.870694 
L 321.726115 152.723066 
L 322.177651 153.870694 
L 322.629187 151.575438 
L 323.080723 146.984926 
L 323.532259 145.837298 
L 323.983796 142.394414 
L 324.886868 157.313579 
L 325.338404 164.199347 
L 325.789941 173.380372 
L 326.241477 184.856653 
L 326.693013 191.742421 
L 327.144549 195.185306 
L 328.047622 186.004281 
L 328.950694 159.608835 
L 329.853767 150.42781 
L 330.305303 146.984926 
L 330.756839 148.132554 
L 331.208375 144.68967 
L 331.659911 148.132554 
L 332.111448 144.68967 
L 332.562984 148.132554 
L 333.01452 144.68967 
L 333.466056 140.099157 
L 333.917593 138.951529 
L 334.820665 138.951529 
L 335.272201 141.246786 
L 335.723738 140.099157 
L 336.175274 142.394414 
L 336.62681 142.394414 
L 337.078346 150.42781 
L 337.529882 165.346975 
L 337.981419 172.232744 
L 338.432955 173.380372 
L 338.884491 171.085116 
L 339.336027 166.494603 
L 339.787564 159.608835 
L 340.2391 148.132554 
L 340.690636 145.837298 
L 341.593708 138.951529 
L 342.948317 138.951529 
L 343.399853 140.099157 
L 343.85139 138.951529 
L 344.302926 138.951529 
L 344.754462 140.099157 
L 345.205998 138.951529 
L 347.012143 138.951529 
L 347.463679 155.018323 
L 347.915216 146.984926 
L 348.366752 142.394414 
L 348.818288 140.099157 
L 349.269824 142.394414 
L 349.72136 140.099157 
L 350.172897 138.951529 
L 350.624433 138.951529 
L 351.075969 140.099157 
L 352.430578 156.165951 
L 352.882114 149.280182 
L 353.33365 144.68967 
L 353.785186 141.246786 
L 354.236723 138.951529 
L 355.591331 138.951529 
L 356.042868 140.099157 
L 356.494404 140.099157 
L 356.94594 146.984926 
L 357.397476 141.246786 
L 357.849013 138.951529 
L 359.655157 138.951529 
L 360.55823 169.937488 
L 361.009766 177.970884 
L 361.912839 168.78986 
L 362.364375 163.051719 
L 362.815911 159.608835 
L 363.267447 152.723066 
L 363.718983 140.099157 
L 364.17052 138.951529 
L 364.622056 138.951529 
L 365.073592 140.099157 
L 365.525128 138.951529 
L 367.782809 138.951529 
L 368.234346 142.394414 
L 368.685882 168.78986 
L 369.137418 183.709025 
L 369.588954 188.299537 
L 370.040491 194.037677 
L 370.943563 200.923446 
L 371.846635 203.218702 
L 372.298172 198.62819 
L 373.201244 166.494603 
L 373.65278 160.756463 
L 374.104317 168.78986 
L 374.555853 163.051719 
L 375.458925 144.68967 
L 376.361998 163.051719 
L 376.813534 150.42781 
L 377.26507 152.723066 
L 377.716606 148.132554 
L 378.168143 151.575438 
L 379.071215 142.394414 
L 379.522751 140.099157 
L 379.974288 142.394414 
L 380.87736 174.528 
L 381.328896 182.561397 
L 381.780432 171.085116 
L 382.231969 163.051719 
L 382.683505 172.232744 
L 383.135041 166.494603 
L 383.586577 165.346975 
L 384.038114 173.380372 
L 384.48965 189.447165 
L 384.941186 198.62819 
L 385.392722 200.923446 
L 385.844258 205.513958 
L 386.295795 206.661586 
L 386.747331 208.956843 
L 387.198867 199.775818 
L 387.650403 206.661586 
L 388.10194 204.36633 
L 388.553476 199.775818 
L 389.005012 190.594793 
L 389.456548 161.904091 
L 389.908084 151.575438 
L 390.359621 149.280182 
L 390.811157 160.756463 
L 391.714229 163.051719 
L 392.165766 158.461207 
L 392.617302 149.280182 
L 393.520374 138.951529 
L 396.681128 138.951529 
L 397.132664 146.984926 
L 397.5842 160.756463 
L 398.035737 163.051719 
L 398.487273 157.313579 
L 398.487273 157.313579 
" clip-path="url(#p8789020aab)" style="fill: none; stroke: #1f77b4; stroke-width: 1.5; stroke-linecap: square"/>
   </g>
   <g id="patch_8">
    <path d="M 57.6 213.662118 
L 57.6 135.393882 
" style="fill: none; stroke: #000000; stroke-width: 0.8; stroke-linejoin: miter; stroke-linecap: square"/>
   </g>
   <g id="patch_9">
    <path d="M 414.72 213.662118 
L 414.72 135.393882 
" style="fill: none; stroke: #000000; stroke-width: 0.8; stroke-linejoin: miter; stroke-linecap: square"/>
   </g>
   <g id="patch_10">
    <path d="M 57.6 213.662118 
L 414.72 213.662118 
" style="fill: none; stroke: #000000; stroke-width: 0.8; stroke-linejoin: miter; stroke-linecap: square"/>
   </g>
   <g id="patch_11">
    <path d="M 57.6 135.393882 
L 414.72 135.393882 
" style="fill: none; stroke: #000000; stroke-width: 0.8; stroke-linejoin: miter; stroke-linecap: square"/>
   </g>
  </g>
  <g id="axes_3">
   <g id="patch_12">
    <path d="M 57.6 307.584 
L 414.72 307.584 
L 414.72 229.315765 
L 57.6 229.315765 
z
" style="fill: #ffffff"/>
   </g>
   <g id="matplotlib.axis_5">
    <g id="xtick_15">
     <g id="line2d_23">
      <g>
       <use xlink:href="#m3fb87f84b1" x="73.832727" y="307.584" style="stroke: #000000; stroke-width: 0.8"/>
      </g>
     </g>
     <g id="text_21">
      <!-- 0 -->
      <g transform="translate(70.651477 322.182437) scale(0.1 -0.1)">
       <use xlink:href="#DejaVuSans-30"/>
      </g>
     </g>
    </g>
    <g id="xtick_16">
     <g id="line2d_24">
      <g>
       <use xlink:href="#m3fb87f84b1" x="128.017074" y="307.584" style="stroke: #000000; stroke-width: 0.8"/>
      </g>
     </g>
     <g id="text_22">
      <!-- 5 -->
      <g transform="translate(124.835824 322.182437) scale(0.1 -0.1)">
       <use xlink:href="#DejaVuSans-35"/>
      </g>
     </g>
    </g>
    <g id="xtick_17">
     <g id="line2d_25">
      <g>
       <use xlink:href="#m3fb87f84b1" x="182.201421" y="307.584" style="stroke: #000000; stroke-width: 0.8"/>
      </g>
     </g>
     <g id="text_23">
      <!-- 10 -->
      <g transform="translate(175.838921 322.182437) scale(0.1 -0.1)">
       <use xlink:href="#DejaVuSans-31"/>
       <use xlink:href="#DejaVuSans-30" x="63.623047"/>
      </g>
     </g>
    </g>
    <g id="xtick_18">
     <g id="line2d_26">
      <g>
       <use xlink:href="#m3fb87f84b1" x="236.385768" y="307.584" style="stroke: #000000; stroke-width: 0.8"/>
      </g>
     </g>
     <g id="text_24">
      <!-- 15 -->
      <g transform="translate(230.023268 322.182437) scale(0.1 -0.1)">
       <use xlink:href="#DejaVuSans-31"/>
       <use xlink:href="#DejaVuSans-35" x="63.623047"/>
      </g>
     </g>
    </g>
    <g id="xtick_19">
     <g id="line2d_27">
      <g>
       <use xlink:href="#m3fb87f84b1" x="290.570115" y="307.584" style="stroke: #000000; stroke-width: 0.8"/>
      </g>
     </g>
     <g id="text_25">
      <!-- 20 -->
      <g transform="translate(284.207615 322.182437) scale(0.1 -0.1)">
       <use xlink:href="#DejaVuSans-32"/>
       <use xlink:href="#DejaVuSans-30" x="63.623047"/>
      </g>
     </g>
    </g>
    <g id="xtick_20">
     <g id="line2d_28">
      <g>
       <use xlink:href="#m3fb87f84b1" x="344.754462" y="307.584" style="stroke: #000000; stroke-width: 0.8"/>
      </g>
     </g>
     <g id="text_26">
      <!-- 25 -->
      <g transform="translate(338.391962 322.182437) scale(0.1 -0.1)">
       <use xlink:href="#DejaVuSans-32"/>
       <use xlink:href="#DejaVuSans-35" x="63.623047"/>
      </g>
     </g>
    </g>
    <g id="xtick_21">
     <g id="line2d_29">
      <g>
       <use xlink:href="#m3fb87f84b1" x="398.938809" y="307.584" style="stroke: #000000; stroke-width: 0.8"/>
      </g>
     </g>
     <g id="text_27">
      <!-- 30 -->
      <g transform="translate(392.576309 322.182437) scale(0.1 -0.1)">
       <use xlink:href="#DejaVuSans-33"/>
       <use xlink:href="#DejaVuSans-30" x="63.623047"/>
      </g>
     </g>
    </g>
   </g>
   <g id="matplotlib.axis_6">
    <g id="ytick_7">
     <g id="line2d_30">
      <g>
       <use xlink:href="#mab2311624a" x="57.6" y="304.026353" style="stroke: #000000; stroke-width: 0.8"/>
      </g>
     </g>
     <g id="text_28">
      <!-- 0 -->
      <g transform="translate(44.2375 307.825572) scale(0.1 -0.1)">
       <use xlink:href="#DejaVuSans-30"/>
      </g>
     </g>
    </g>
    <g id="ytick_8">
     <g id="line2d_31">
      <g>
       <use xlink:href="#mab2311624a" x="57.6" y="268.449882" style="stroke: #000000; stroke-width: 0.8"/>
      </g>
     </g>
     <g id="text_29">
      <!-- 1 -->
      <g transform="translate(44.2375 272.249101) scale(0.1 -0.1)">
       <use xlink:href="#DejaVuSans-31"/>
      </g>
     </g>
    </g>
    <g id="ytick_9">
     <g id="line2d_32">
      <g>
       <use xlink:href="#mab2311624a" x="57.6" y="232.873412" style="stroke: #000000; stroke-width: 0.8"/>
      </g>
     </g>
     <g id="text_30">
      <!-- 2 -->
      <g transform="translate(44.2375 236.672631) scale(0.1 -0.1)">
       <use xlink:href="#DejaVuSans-32"/>
      </g>
     </g>
    </g>
   </g>
   <g id="line2d_33">
    <path d="M 73.832727 304.026353 
L 109.504089 304.026353 
L 109.955625 268.449882 
L 110.407161 268.449882 
L 110.858698 232.873412 
L 111.310234 304.026353 
L 156.463856 304.026353 
L 156.915393 268.449882 
L 157.366929 304.026353 
L 192.586754 304.026353 
L 193.038291 268.449882 
L 193.489827 304.026353 
L 193.941363 268.449882 
L 194.392899 304.026353 
L 253.092608 304.026353 
L 253.544145 268.449882 
L 253.995681 268.449882 
L 254.447217 232.873412 
L 254.898753 304.026353 
L 269.799449 304.026353 
L 270.250985 268.449882 
L 270.702521 304.026353 
L 271.154057 268.449882 
L 271.605594 304.026353 
L 340.690636 304.026353 
L 341.142172 268.449882 
L 341.593708 304.026353 
L 378.619679 304.026353 
L 379.071215 268.449882 
L 379.522751 304.026353 
L 398.487273 304.026353 
L 398.487273 304.026353 
" clip-path="url(#p475d79affe)" style="fill: none; stroke: #1f77b4; stroke-width: 1.5; stroke-linecap: square"/>
   </g>
   <g id="patch_13">
    <path d="M 57.6 307.584 
L 57.6 229.315765 
" style="fill: none; stroke: #000000; stroke-width: 0.8; stroke-linejoin: miter; stroke-linecap: square"/>
   </g>
   <g id="patch_14">
    <path d="M 414.72 307.584 
L 414.72 229.315765 
" style="fill: none; stroke: #000000; stroke-width: 0.8; stroke-linejoin: miter; stroke-linecap: square"/>
   </g>
   <g id="patch_15">
    <path d="M 57.6 307.584 
L 414.72 307.584 
" style="fill: none; stroke: #000000; stroke-width: 0.8; stroke-linejoin: miter; stroke-linecap: square"/>
   </g>
   <g id="patch_16">
    <path d="M 57.6 229.315765 
L 414.72 229.315765 
" style="fill: none; stroke: #000000; stroke-width: 0.8; stroke-linejoin: miter; stroke-linecap: square"/>
   </g>
  </g>
  <g id="text_31">
   <!-- cleaned_weather_fall -->
   <g transform="translate(167.050313 16.030125) scale(0.12 -0.12)">
    <defs>
     <path id="DejaVuSans-63" d="M 3122 3366 
L 3122 2828 
Q 2878 2963 2633 3030 
Q 2388 3097 2138 3097 
Q 1578 3097 1268 2742 
Q 959 2388 959 1747 
Q 959 1106 1268 751 
Q 1578 397 2138 397 
Q 2388 397 2633 464 
Q 2878 531 3122 666 
L 3122 134 
Q 2881 22 2623 -34 
Q 2366 -91 2075 -91 
Q 1284 -91 818 406 
Q 353 903 353 1747 
Q 353 2603 823 3093 
Q 1294 3584 2113 3584 
Q 2378 3584 2631 3529 
Q 2884 3475 3122 3366 
z
" transform="scale(0.015625)"/>
     <path id="DejaVuSans-6c" d="M 603 4863 
L 1178 4863 
L 1178 0 
L 603 0 
L 603 4863 
z
" transform="scale(0.015625)"/>
     <path id="DejaVuSans-65" d="M 3597 1894 
L 3597 1613 
L 953 1613 
Q 991 1019 1311 708 
Q 1631 397 2203 397 
Q 2534 397 2845 478 
Q 3156 559 3463 722 
L 3463 178 
Q 3153 47 2828 -22 
Q 2503 -91 2169 -91 
Q 1331 -91 842 396 
Q 353 884 353 1716 
Q 353 2575 817 3079 
Q 1281 3584 2069 3584 
Q 2775 3584 3186 3129 
Q 3597 2675 3597 1894 
z
M 3022 2063 
Q 3016 2534 2758 2815 
Q 2500 3097 2075 3097 
Q 1594 3097 1305 2825 
Q 1016 2553 972 2059 
L 3022 2063 
z
" transform="scale(0.015625)"/>
     <path id="DejaVuSans-61" d="M 2194 1759 
Q 1497 1759 1228 1600 
Q 959 1441 959 1056 
Q 959 750 1161 570 
Q 1363 391 1709 391 
Q 2188 391 2477 730 
Q 2766 1069 2766 1631 
L 2766 1759 
L 2194 1759 
z
M 3341 1997 
L 3341 0 
L 2766 0 
L 2766 531 
Q 2569 213 2275 61 
Q 1981 -91 1556 -91 
Q 1019 -91 701 211 
Q 384 513 384 1019 
Q 384 1609 779 1909 
Q 1175 2209 1959 2209 
L 2766 2209 
L 2766 2266 
Q 2766 2663 2505 2880 
Q 2244 3097 1772 3097 
Q 1472 3097 1187 3025 
Q 903 2953 641 2809 
L 641 3341 
Q 956 3463 1253 3523 
Q 1550 3584 1831 3584 
Q 2591 3584 2966 3190 
Q 3341 2797 3341 1997 
z
" transform="scale(0.015625)"/>
     <path id="DejaVuSans-6e" d="M 3513 2113 
L 3513 0 
L 2938 0 
L 2938 2094 
Q 2938 2591 2744 2837 
Q 2550 3084 2163 3084 
Q 1697 3084 1428 2787 
Q 1159 2491 1159 1978 
L 1159 0 
L 581 0 
L 581 3500 
L 1159 3500 
L 1159 2956 
Q 1366 3272 1645 3428 
Q 1925 3584 2291 3584 
Q 2894 3584 3203 3211 
Q 3513 2838 3513 2113 
z
" transform="scale(0.015625)"/>
     <path id="DejaVuSans-64" d="M 2906 2969 
L 2906 4863 
L 3481 4863 
L 3481 0 
L 2906 0 
L 2906 525 
Q 2725 213 2448 61 
Q 2172 -91 1784 -91 
Q 1150 -91 751 415 
Q 353 922 353 1747 
Q 353 2572 751 3078 
Q 1150 3584 1784 3584 
Q 2172 3584 2448 3432 
Q 2725 3281 2906 2969 
z
M 947 1747 
Q 947 1113 1208 752 
Q 1469 391 1925 391 
Q 2381 391 2643 752 
Q 2906 1113 2906 1747 
Q 2906 2381 2643 2742 
Q 2381 3103 1925 3103 
Q 1469 3103 1208 2742 
Q 947 2381 947 1747 
z
" transform="scale(0.015625)"/>
     <path id="DejaVuSans-5f" d="M 3263 -1063 
L 3263 -1509 
L -63 -1509 
L -63 -1063 
L 3263 -1063 
z
" transform="scale(0.015625)"/>
     <path id="DejaVuSans-77" d="M 269 3500 
L 844 3500 
L 1563 769 
L 2278 3500 
L 2956 3500 
L 3675 769 
L 4391 3500 
L 4966 3500 
L 4050 0 
L 3372 0 
L 2619 2869 
L 1863 0 
L 1184 0 
L 269 3500 
z
" transform="scale(0.015625)"/>
     <path id="DejaVuSans-74" d="M 1172 4494 
L 1172 3500 
L 2356 3500 
L 2356 3053 
L 1172 3053 
L 1172 1153 
Q 1172 725 1289 603 
Q 1406 481 1766 481 
L 2356 481 
L 2356 0 
L 1766 0 
Q 1100 0 847 248 
Q 594 497 594 1153 
L 594 3053 
L 172 3053 
L 172 3500 
L 594 3500 
L 594 4494 
L 1172 4494 
z
" transform="scale(0.015625)"/>
     <path id="DejaVuSans-68" d="M 3513 2113 
L 3513 0 
L 2938 0 
L 2938 2094 
Q 2938 2591 2744 2837 
Q 2550 3084 2163 3084 
Q 1697 3084 1428 2787 
Q 1159 2491 1159 1978 
L 1159 0 
L 581 0 
L 581 4863 
L 1159 4863 
L 1159 2956 
Q 1366 3272 1645 3428 
Q 1925 3584 2291 3584 
Q 2894 3584 3203 3211 
Q 3513 2838 3513 2113 
z
" transform="scale(0.015625)"/>
     <path id="DejaVuSans-72" d="M 2631 2963 
Q 2534 3019 2420 3045 
Q 2306 3072 2169 3072 
Q 1681 3072 1420 2755 
Q 1159 2438 1159 1844 
L 1159 0 
L 581 0 
L 581 3500 
L 1159 3500 
L 1159 2956 
Q 1341 3275 1631 3429 
Q 1922 3584 2338 3584 
Q 2397 3584 2469 3576 
Q 2541 3569 2628 3553 
L 2631 2963 
z
" transform="scale(0.015625)"/>
     <path id="DejaVuSans-66" d="M 2375 4863 
L 2375 4384 
L 1825 4384 
Q 1516 4384 1395 4259 
Q 1275 4134 1275 3809 
L 1275 3500 
L 2222 3500 
L 2222 3053 
L 1275 3053 
L 1275 0 
L 697 0 
L 697 3053 
L 147 3053 
L 147 3500 
L 697 3500 
L 697 3744 
Q 697 4328 969 4595 
Q 1241 4863 1831 4863 
L 2375 4863 
z
" transform="scale(0.015625)"/>
    </defs>
    <use xlink:href="#DejaVuSans-63"/>
    <use xlink:href="#DejaVuSans-6c" x="54.980469"/>
    <use xlink:href="#DejaVuSans-65" x="82.763672"/>
    <use xlink:href="#DejaVuSans-61" x="144.287109"/>
    <use xlink:href="#DejaVuSans-6e" x="205.566406"/>
    <use xlink:href="#DejaVuSans-65" x="268.945312"/>
    <use xlink:href="#DejaVuSans-64" x="330.46875"/>
    <use xlink:href="#DejaVuSans-5f" x="393.945312"/>
    <use xlink:href="#DejaVuSans-77" x="443.945312"/>
    <use xlink:href="#DejaVuSans-65" x="525.732422"/>
    <use xlink:href="#DejaVuSans-61" x="587.255859"/>
    <use xlink:href="#DejaVuSans-74" x="648.535156"/>
    <use xlink:href="#DejaVuSans-68" x="687.744141"/>
    <use xlink:href="#DejaVuSans-65" x="751.123047"/>
    <use xlink:href="#DejaVuSans-72" x="812.646484"/>
    <use xlink:href="#DejaVuSans-5f" x="853.759766"/>
    <use xlink:href="#DejaVuSans-66" x="903.759766"/>
    <use xlink:href="#DejaVuSans-61" x="938.964844"/>
    <use xlink:href="#DejaVuSans-6c" x="1000.244141"/>
    <use xlink:href="#DejaVuSans-6c" x="1028.027344"/>
   </g>
  </g>
 </g>
 <defs>
  <clipPath id="p336b65edcb">
   <rect x="57.6" y="41.472" width="357.12" height="78.268235"/>
  </clipPath>
  <clipPath id="p8789020aab">
   <rect x="57.6" y="135.393882" width="357.12" height="78.268235"/>
  </clipPath>
  <clipPath id="p475d79affe">
   <rect x="57.6" y="229.315765" width="357.12" height="78.268235"/>
  </clipPath>
 </defs>
</svg>
