<?xml version="1.0" encoding="utf-8" standalone="no"?>
<!DOCTYPE svg PUBLIC "-//W3C//DTD SVG 1.1//EN"
  "http://www.w3.org/Graphics/SVG/1.1/DTD/svg11.dtd">
<svg xmlns:xlink="http://www.w3.org/1999/xlink" width="460.8pt" height="345.6pt" viewBox="0 0 460.8 345.6" xmlns="http://www.w3.org/2000/svg" version="1.1">
 <metadata>
  <rdf:RDF xmlns:dc="http://purl.org/dc/elements/1.1/" xmlns:cc="http://creativecommons.org/ns#" xmlns:rdf="http://www.w3.org/1999/02/22-rdf-syntax-ns#">
   <cc:Work>
    <dc:type rdf:resource="http://purl.org/dc/dcmitype/StillImage"/>
    <dc:date>2023-03-09T09:42:16.489537</dc:date>
    <dc:format>image/svg+xml</dc:format>
    <dc:creator>
     <cc:Agent>
      <dc:title>Matplotlib v3.7.1, https://matplotlib.org/</dc:title>
     </cc:Agent>
    </dc:creator>
   </cc:Work>
  </rdf:RDF>
 </metadata>
 <defs>
  <style type="text/css">*{stroke-linejoin: round; stroke-linecap: butt}</style>
 </defs>
 <g id="figure_1">
  <g id="patch_1">
   <path d="M 0 345.6 
L 460.8 345.6 
L 460.8 0 
L 0 0 
z
" style="fill: #ffffff"/>
  </g>
  <g id="axes_1">
   <g id="patch_2">
    <path d="M 57.6 119.740235 
L 414.72 119.740235 
L 414.72 41.472 
L 57.6 41.472 
z
" style="fill: #ffffff"/>
   </g>
   <g id="matplotlib.axis_1">
    <g id="xtick_1">
     <g id="line2d_1">
      <defs>
       <path id="mc5d31db64f" d="M 0 0 
L 0 3.5 
" style="stroke: #000000; stroke-width: 0.8"/>
      </defs>
      <g>
       <use xlink:href="#mc5d31db64f" x="73.832727" y="119.740235" style="stroke: #000000; stroke-width: 0.8"/>
      </g>
     </g>
     <g id="text_1">
      <!-- 0 -->
      <g transform="translate(70.651477 134.338673) scale(0.1 -0.1)">
       <defs>
        <path id="DejaVuSans-30" d="M 2034 4250 
Q 1547 4250 1301 3770 
Q 1056 3291 1056 2328 
Q 1056 1369 1301 889 
Q 1547 409 2034 409 
Q 2525 409 2770 889 
Q 3016 1369 3016 2328 
Q 3016 3291 2770 3770 
Q 2525 4250 2034 4250 
z
M 2034 4750 
Q 2819 4750 3233 4129 
Q 3647 3509 3647 2328 
Q 3647 1150 3233 529 
Q 2819 -91 2034 -91 
Q 1250 -91 836 529 
Q 422 1150 422 2328 
Q 422 3509 836 4129 
Q 1250 4750 2034 4750 
z
" transform="scale(0.015625)"/>
       </defs>
       <use xlink:href="#DejaVuSans-30"/>
      </g>
     </g>
    </g>
    <g id="xtick_2">
     <g id="line2d_2">
      <g>
       <use xlink:href="#mc5d31db64f" x="128.017074" y="119.740235" style="stroke: #000000; stroke-width: 0.8"/>
      </g>
     </g>
     <g id="text_2">
      <!-- 5 -->
      <g transform="translate(124.835824 134.338673) scale(0.1 -0.1)">
       <defs>
        <path id="DejaVuSans-35" d="M 691 4666 
L 3169 4666 
L 3169 4134 
L 1269 4134 
L 1269 2991 
Q 1406 3038 1543 3061 
Q 1681 3084 1819 3084 
Q 2600 3084 3056 2656 
Q 3513 2228 3513 1497 
Q 3513 744 3044 326 
Q 2575 -91 1722 -91 
Q 1428 -91 1123 -41 
Q 819 9 494 109 
L 494 744 
Q 775 591 1075 516 
Q 1375 441 1709 441 
Q 2250 441 2565 725 
Q 2881 1009 2881 1497 
Q 2881 1984 2565 2268 
Q 2250 2553 1709 2553 
Q 1456 2553 1204 2497 
Q 953 2441 691 2322 
L 691 4666 
z
" transform="scale(0.015625)"/>
       </defs>
       <use xlink:href="#DejaVuSans-35"/>
      </g>
     </g>
    </g>
    <g id="xtick_3">
     <g id="line2d_3">
      <g>
       <use xlink:href="#mc5d31db64f" x="182.201421" y="119.740235" style="stroke: #000000; stroke-width: 0.8"/>
      </g>
     </g>
     <g id="text_3">
      <!-- 10 -->
      <g transform="translate(175.838921 134.338673) scale(0.1 -0.1)">
       <defs>
        <path id="DejaVuSans-31" d="M 794 531 
L 1825 531 
L 1825 4091 
L 703 3866 
L 703 4441 
L 1819 4666 
L 2450 4666 
L 2450 531 
L 3481 531 
L 3481 0 
L 794 0 
L 794 531 
z
" transform="scale(0.015625)"/>
       </defs>
       <use xlink:href="#DejaVuSans-31"/>
       <use xlink:href="#DejaVuSans-30" x="63.623047"/>
      </g>
     </g>
    </g>
    <g id="xtick_4">
     <g id="line2d_4">
      <g>
       <use xlink:href="#mc5d31db64f" x="236.385768" y="119.740235" style="stroke: #000000; stroke-width: 0.8"/>
      </g>
     </g>
     <g id="text_4">
      <!-- 15 -->
      <g transform="translate(230.023268 134.338673) scale(0.1 -0.1)">
       <use xlink:href="#DejaVuSans-31"/>
       <use xlink:href="#DejaVuSans-35" x="63.623047"/>
      </g>
     </g>
    </g>
    <g id="xtick_5">
     <g id="line2d_5">
      <g>
       <use xlink:href="#mc5d31db64f" x="290.570115" y="119.740235" style="stroke: #000000; stroke-width: 0.8"/>
      </g>
     </g>
     <g id="text_5">
      <!-- 20 -->
      <g transform="translate(284.207615 134.338673) scale(0.1 -0.1)">
       <defs>
        <path id="DejaVuSans-32" d="M 1228 531 
L 3431 531 
L 3431 0 
L 469 0 
L 469 531 
Q 828 903 1448 1529 
Q 2069 2156 2228 2338 
Q 2531 2678 2651 2914 
Q 2772 3150 2772 3378 
Q 2772 3750 2511 3984 
Q 2250 4219 1831 4219 
Q 1534 4219 1204 4116 
Q 875 4013 500 3803 
L 500 4441 
Q 881 4594 1212 4672 
Q 1544 4750 1819 4750 
Q 2544 4750 2975 4387 
Q 3406 4025 3406 3419 
Q 3406 3131 3298 2873 
Q 3191 2616 2906 2266 
Q 2828 2175 2409 1742 
Q 1991 1309 1228 531 
z
" transform="scale(0.015625)"/>
       </defs>
       <use xlink:href="#DejaVuSans-32"/>
       <use xlink:href="#DejaVuSans-30" x="63.623047"/>
      </g>
     </g>
    </g>
    <g id="xtick_6">
     <g id="line2d_6">
      <g>
       <use xlink:href="#mc5d31db64f" x="344.754462" y="119.740235" style="stroke: #000000; stroke-width: 0.8"/>
      </g>
     </g>
     <g id="text_6">
      <!-- 25 -->
      <g transform="translate(338.391962 134.338673) scale(0.1 -0.1)">
       <use xlink:href="#DejaVuSans-32"/>
       <use xlink:href="#DejaVuSans-35" x="63.623047"/>
      </g>
     </g>
    </g>
    <g id="xtick_7">
     <g id="line2d_7">
      <g>
       <use xlink:href="#mc5d31db64f" x="398.938809" y="119.740235" style="stroke: #000000; stroke-width: 0.8"/>
      </g>
     </g>
     <g id="text_7">
      <!-- 30 -->
      <g transform="translate(392.576309 134.338673) scale(0.1 -0.1)">
       <defs>
        <path id="DejaVuSans-33" d="M 2597 2516 
Q 3050 2419 3304 2112 
Q 3559 1806 3559 1356 
Q 3559 666 3084 287 
Q 2609 -91 1734 -91 
Q 1441 -91 1130 -33 
Q 819 25 488 141 
L 488 750 
Q 750 597 1062 519 
Q 1375 441 1716 441 
Q 2309 441 2620 675 
Q 2931 909 2931 1356 
Q 2931 1769 2642 2001 
Q 2353 2234 1838 2234 
L 1294 2234 
L 1294 2753 
L 1863 2753 
Q 2328 2753 2575 2939 
Q 2822 3125 2822 3475 
Q 2822 3834 2567 4026 
Q 2313 4219 1838 4219 
Q 1578 4219 1281 4162 
Q 984 4106 628 3988 
L 628 4550 
Q 988 4650 1302 4700 
Q 1616 4750 1894 4750 
Q 2613 4750 3031 4423 
Q 3450 4097 3450 3541 
Q 3450 3153 3228 2886 
Q 3006 2619 2597 2516 
z
" transform="scale(0.015625)"/>
       </defs>
       <use xlink:href="#DejaVuSans-33"/>
       <use xlink:href="#DejaVuSans-30" x="63.623047"/>
      </g>
     </g>
    </g>
   </g>
   <g id="matplotlib.axis_2">
    <g id="ytick_1">
     <g id="line2d_8">
      <defs>
       <path id="m9074d98cbb" d="M 0 0 
L -3.5 0 
" style="stroke: #000000; stroke-width: 0.8"/>
      </defs>
      <g>
       <use xlink:href="#m9074d98cbb" x="57.6" y="116.182588" style="stroke: #000000; stroke-width: 0.8"/>
      </g>
     </g>
     <g id="text_8">
      <!-- 0 -->
      <g transform="translate(44.2375 119.981807) scale(0.1 -0.1)">
       <use xlink:href="#DejaVuSans-30"/>
      </g>
     </g>
    </g>
    <g id="ytick_2">
     <g id="line2d_9">
      <g>
       <use xlink:href="#m9074d98cbb" x="57.6" y="77.721539" style="stroke: #000000; stroke-width: 0.8"/>
      </g>
     </g>
     <g id="text_9">
      <!-- 20 -->
      <g transform="translate(37.875 81.520758) scale(0.1 -0.1)">
       <use xlink:href="#DejaVuSans-32"/>
       <use xlink:href="#DejaVuSans-30" x="63.623047"/>
      </g>
     </g>
    </g>
   </g>
   <g id="line2d_10">
    <path d="M 73.832727 95.029011 
L 74.7358 95.029011 
L 75.187336 96.952064 
L 75.638872 100.798169 
L 76.090408 100.798169 
L 76.993481 104.644273 
L 77.445017 104.644273 
L 78.34809 108.490378 
L 78.799626 108.490378 
L 79.251162 104.644273 
L 79.702698 93.105959 
L 80.154234 85.413749 
L 80.605771 81.567644 
L 81.057307 75.798486 
L 81.960379 71.952382 
L 82.411916 71.952382 
L 82.863452 70.029329 
L 84.21806 75.798486 
L 85.572669 87.336801 
L 86.475742 87.336801 
L 86.927278 85.413749 
L 87.378814 87.336801 
L 87.83035 87.336801 
L 88.281886 89.259854 
L 88.733423 89.259854 
L 89.184959 87.336801 
L 89.636495 83.490696 
L 90.539568 79.644591 
L 91.44264 68.106277 
L 92.345712 60.414067 
L 92.797249 58.491014 
L 93.248785 60.414067 
L 93.700321 58.491014 
L 94.151857 62.337119 
L 94.603394 60.414067 
L 95.05493 56.567962 
L 95.506466 58.491014 
L 95.958002 62.337119 
L 96.409539 64.260172 
L 96.861075 70.029329 
L 98.215683 81.567644 
L 99.570292 87.336801 
L 100.021828 87.336801 
L 100.473365 89.259854 
L 101.376437 89.259854 
L 101.827973 91.182906 
L 103.182582 91.182906 
L 103.634118 95.029011 
L 104.988727 77.721539 
L 106.343335 66.183224 
L 106.794872 68.106277 
L 107.246408 66.183224 
L 107.697944 70.029329 
L 108.14948 71.952382 
L 109.052553 89.259854 
L 109.504089 93.105959 
L 110.407161 96.952064 
L 111.310234 96.952064 
L 111.76177 98.875116 
L 112.213306 96.952064 
L 112.664843 91.182906 
L 113.116379 75.798486 
L 113.567915 75.798486 
L 114.019451 60.414067 
L 114.470987 62.337119 
L 114.922524 60.414067 
L 115.37406 60.414067 
L 115.825596 62.337119 
L 116.277132 62.337119 
L 116.728669 60.414067 
L 117.180205 60.414067 
L 118.083277 64.260172 
L 118.534814 73.875434 
L 118.98635 71.952382 
L 119.437886 75.798486 
L 120.340958 87.336801 
L 120.792495 95.029011 
L 121.244031 98.875116 
L 121.695567 100.798169 
L 122.147103 100.798169 
L 122.59864 102.721221 
L 123.050176 96.952064 
L 123.953248 100.798169 
L 125.307857 100.798169 
L 125.759393 93.105959 
L 126.210929 87.336801 
L 126.662466 87.336801 
L 127.114002 83.490696 
L 127.565538 87.336801 
L 128.46861 91.182906 
L 128.920147 95.029011 
L 129.371683 95.029011 
L 129.823219 93.105959 
L 130.726292 96.952064 
L 132.983973 96.952064 
L 133.435509 98.875116 
L 133.887045 98.875116 
L 134.338581 100.798169 
L 134.790118 100.798169 
L 135.241654 102.721221 
L 135.69319 100.798169 
L 136.144726 96.952064 
L 137.499335 96.952064 
L 137.950871 116.182588 
L 138.402407 60.414067 
L 139.30548 64.260172 
L 140.208552 60.414067 
L 140.660089 60.414067 
L 141.111625 62.337119 
L 141.563161 68.106277 
L 142.466233 75.798486 
L 142.91777 81.567644 
L 143.369306 83.490696 
L 143.820842 83.490696 
L 144.272378 85.413749 
L 144.723915 85.413749 
L 145.175451 87.336801 
L 145.626987 85.413749 
L 146.078523 87.336801 
L 146.530059 85.413749 
L 146.981596 85.413749 
L 147.433132 81.567644 
L 148.336204 81.567644 
L 148.787741 89.259854 
L 149.239277 89.259854 
L 150.142349 85.413749 
L 150.593885 81.567644 
L 151.045422 75.798486 
L 151.496958 68.106277 
L 151.948494 64.260172 
L 152.40003 62.337119 
L 152.851567 116.182588 
L 153.303103 95.029011 
L 153.754639 116.182588 
L 154.206175 96.952064 
L 155.560784 96.952064 
L 156.01232 95.029011 
L 156.463856 95.029011 
L 157.818465 89.259854 
L 158.270001 89.259854 
L 158.721537 85.413749 
L 159.173074 87.336801 
L 160.527682 98.875116 
L 164.139972 98.875116 
L 164.591508 100.798169 
L 165.494581 100.798169 
L 165.946117 93.105959 
L 166.84919 85.413749 
L 167.300726 83.490696 
L 167.752262 83.490696 
L 168.203798 85.413749 
L 169.106871 85.413749 
L 169.558407 89.259854 
L 170.009943 96.952064 
L 170.913016 100.798169 
L 171.816088 100.798169 
L 172.267624 102.721221 
L 172.71916 100.798169 
L 173.170697 102.721221 
L 173.622233 102.721221 
L 174.073769 104.644273 
L 174.525305 104.644273 
L 175.428378 108.490378 
L 175.879914 106.567326 
L 176.33145 102.721221 
L 177.234523 87.336801 
L 177.686059 83.490696 
L 178.589131 95.029011 
L 179.94374 83.490696 
L 180.395276 89.259854 
L 180.846812 89.259854 
L 181.749885 93.105959 
L 182.201421 91.182906 
L 183.104494 83.490696 
L 184.007566 91.182906 
L 185.362175 96.952064 
L 185.813711 96.952064 
L 186.265247 100.798169 
L 188.071392 100.798169 
L 188.522928 93.105959 
L 188.974465 87.336801 
L 189.877537 95.029011 
L 190.329073 95.029011 
L 190.780609 96.952064 
L 193.038291 87.336801 
L 193.489827 93.105959 
L 194.392899 93.105959 
L 194.844435 95.029011 
L 195.295972 100.798169 
L 195.747508 98.875116 
L 196.199044 104.644273 
L 196.65058 104.644273 
L 197.553653 100.798169 
L 199.359798 100.798169 
L 199.811334 102.721221 
L 200.26287 96.952064 
L 201.165943 100.798169 
L 202.069015 100.798169 
L 202.520551 95.029011 
L 202.972087 95.029011 
L 203.423624 96.952064 
L 204.326696 96.952064 
L 204.778232 93.105959 
L 205.229769 93.105959 
L 205.681305 87.336801 
L 206.132841 85.413749 
L 206.584377 89.259854 
L 207.938986 71.952382 
L 208.842058 68.106277 
L 209.293595 68.106277 
L 209.745131 64.260172 
L 210.196667 64.260172 
L 210.648203 68.106277 
L 211.09974 81.567644 
L 211.551276 87.336801 
L 212.002812 91.182906 
L 213.357421 96.952064 
L 214.260493 85.413749 
L 214.712029 81.567644 
L 215.163566 81.567644 
L 215.615102 77.721539 
L 216.96971 71.952382 
L 217.421247 71.952382 
L 217.872783 70.029329 
L 219.227392 75.798486 
L 220.582 87.336801 
L 221.485073 66.183224 
L 221.936609 58.491014 
L 222.388145 52.721857 
L 224.19429 45.029647 
L 226.451971 45.029647 
L 226.903507 50.798804 
L 227.355044 58.491014 
L 227.80658 62.337119 
L 228.258116 64.260172 
L 228.709652 71.952382 
L 229.612725 71.952382 
L 230.515797 64.260172 
L 233.676551 64.260172 
L 234.579623 75.798486 
L 235.482696 68.106277 
L 236.837304 62.337119 
L 237.740377 62.337119 
L 239.094985 68.106277 
L 239.546522 68.106277 
L 240.449594 75.798486 
L 241.352667 87.336801 
L 242.255739 95.029011 
L 242.707275 96.952064 
L 244.964956 96.952064 
L 245.416493 98.875116 
L 245.868029 98.875116 
L 246.319565 100.798169 
L 246.771101 100.798169 
L 247.222638 102.721221 
L 248.577246 102.721221 
L 249.028782 104.644273 
L 249.480319 104.644273 
L 249.931855 100.798169 
L 250.383391 93.105959 
L 251.286464 85.413749 
L 251.738 83.490696 
L 252.189536 83.490696 
L 252.641072 85.413749 
L 253.544145 85.413749 
L 253.995681 89.259854 
L 254.447217 96.952064 
L 254.898753 96.952064 
L 255.801826 100.798169 
L 256.253362 100.798169 
L 256.704898 102.721221 
L 257.156434 106.567326 
L 257.607971 108.490378 
L 258.059507 104.644273 
L 259.414116 110.413431 
L 259.865652 110.413431 
L 260.317188 104.644273 
L 260.768724 104.644273 
L 261.22026 100.798169 
L 261.671797 98.875116 
L 262.123333 100.798169 
L 262.574869 100.798169 
L 263.026405 102.721221 
L 263.477942 106.567326 
L 263.929478 106.567326 
L 264.83255 110.413431 
L 265.735623 110.413431 
L 266.187159 104.644273 
L 266.638695 104.644273 
L 267.090231 100.798169 
L 267.541768 93.105959 
L 268.44484 85.413749 
L 268.896376 83.490696 
L 269.347913 83.490696 
L 269.799449 85.413749 
L 270.702521 85.413749 
L 271.154057 89.259854 
L 271.605594 96.952064 
L 272.508666 100.798169 
L 272.960202 100.798169 
L 273.411739 102.721221 
L 273.863275 102.721221 
L 274.314811 100.798169 
L 275.217883 83.490696 
L 275.66942 81.567644 
L 276.572492 85.413749 
L 277.475565 77.721539 
L 280.184782 77.721539 
L 281.087854 81.567644 
L 281.539391 87.336801 
L 282.442463 83.490696 
L 282.893999 83.490696 
L 283.345535 81.567644 
L 283.797072 85.413749 
L 285.15168 91.182906 
L 285.603217 95.029011 
L 286.506289 95.029011 
L 288.312434 102.721221 
L 289.215506 85.413749 
L 289.667043 79.644591 
L 290.118579 75.798486 
L 291.021651 71.952382 
L 292.37626 71.952382 
L 292.827796 73.875434 
L 293.279332 73.875434 
L 294.182405 77.721539 
L 294.633941 81.567644 
L 295.085477 81.567644 
L 295.537014 89.259854 
L 295.98855 89.259854 
L 296.440086 95.029011 
L 298.246231 79.644591 
L 298.697767 77.721539 
L 300.503912 77.721539 
L 301.406984 81.567644 
L 301.858521 87.336801 
L 302.761593 83.490696 
L 303.213129 83.490696 
L 303.664666 81.567644 
L 304.116202 85.413749 
L 305.47081 91.182906 
L 305.922347 95.029011 
L 307.728492 95.029011 
L 309.0831 89.259854 
L 309.534636 89.259854 
L 309.986173 85.413749 
L 310.437709 87.336801 
L 311.792318 98.875116 
L 315.856144 98.875116 
L 316.30768 100.798169 
L 317.210752 100.798169 
L 317.662289 93.105959 
L 318.565361 85.413749 
L 319.016897 83.490696 
L 319.468433 83.490696 
L 319.91997 85.413749 
L 320.823042 85.413749 
L 321.274578 89.259854 
L 321.726115 96.952064 
L 322.629187 100.798169 
L 323.080723 100.798169 
L 323.532259 102.721221 
L 323.983796 96.952064 
L 324.435332 96.952064 
L 324.886868 95.029011 
L 325.789941 77.721539 
L 326.693013 66.183224 
L 327.144549 62.337119 
L 327.596085 60.414067 
L 328.047622 66.183224 
L 328.950694 62.337119 
L 329.853767 66.183224 
L 330.305303 66.183224 
L 330.756839 68.106277 
L 331.659911 75.798486 
L 332.111448 81.567644 
L 332.562984 85.413749 
L 333.01452 77.721539 
L 333.466056 71.952382 
L 333.917593 64.260172 
L 334.369129 60.414067 
L 335.272201 56.567962 
L 335.723738 60.414067 
L 336.175274 73.875434 
L 336.62681 79.644591 
L 337.078346 77.721539 
L 337.529882 77.721539 
L 337.981419 75.798486 
L 338.884491 79.644591 
L 339.787564 79.644591 
L 340.2391 81.567644 
L 344.754462 81.567644 
L 345.205998 79.644591 
L 345.657534 79.644591 
L 346.560607 83.490696 
L 347.012143 83.490696 
L 347.463679 75.798486 
L 348.366752 64.260172 
L 348.818288 64.260172 
L 350.172897 58.491014 
L 350.624433 58.491014 
L 351.075969 56.567962 
L 351.527505 58.491014 
L 351.979042 62.337119 
L 352.430578 64.260172 
L 352.882114 71.952382 
L 353.785186 71.952382 
L 354.688259 64.260172 
L 355.139795 64.260172 
L 356.494404 58.491014 
L 356.94594 58.491014 
L 357.397476 56.567962 
L 357.849013 58.491014 
L 358.300549 62.337119 
L 358.752085 64.260172 
L 359.203621 71.952382 
L 360.106694 71.952382 
L 360.55823 68.106277 
L 361.009766 73.875434 
L 361.461302 77.721539 
L 361.912839 73.875434 
L 362.364375 71.952382 
L 363.267447 64.260172 
L 365.073592 64.260172 
L 365.976665 75.798486 
L 366.428201 79.644591 
L 366.879737 81.567644 
L 367.331273 85.413749 
L 367.782809 87.336801 
L 368.685882 87.336801 
L 369.137418 89.259854 
L 369.588954 89.259854 
L 370.040491 87.336801 
L 371.395099 87.336801 
L 371.846635 85.413749 
L 372.298172 87.336801 
L 373.65278 87.336801 
L 374.104317 89.259854 
L 374.555853 89.259854 
L 375.007389 85.413749 
L 375.458925 77.721539 
L 375.910461 71.952382 
L 376.361998 64.260172 
L 376.813534 60.414067 
L 377.26507 58.491014 
L 377.716606 60.414067 
L 378.168143 58.491014 
L 378.619679 62.337119 
L 379.071215 60.414067 
L 379.522751 56.567962 
L 379.974288 54.644909 
L 380.425824 66.183224 
L 380.87736 68.106277 
L 381.328896 64.260172 
L 381.780432 68.106277 
L 382.231969 73.875434 
L 383.135041 81.567644 
L 383.586577 81.567644 
L 384.038114 83.490696 
L 385.392722 83.490696 
L 385.844258 81.567644 
L 386.295795 77.721539 
L 387.198867 73.875434 
L 388.10194 73.875434 
L 388.553476 75.798486 
L 389.456548 71.952382 
L 390.359621 64.260172 
L 390.811157 64.260172 
L 391.262693 62.337119 
L 391.714229 73.875434 
L 392.165766 62.337119 
L 392.617302 60.414067 
L 393.068838 64.260172 
L 393.97191 68.106277 
L 396.229592 58.491014 
L 396.681128 58.491014 
L 397.132664 56.567962 
L 397.5842 58.491014 
L 398.487273 66.183224 
L 398.487273 66.183224 
" clip-path="url(#p00d2cd264a)" style="fill: none; stroke: #1f77b4; stroke-width: 1.5; stroke-linecap: square"/>
   </g>
   <g id="patch_3">
    <path d="M 57.6 119.740235 
L 57.6 41.472 
" style="fill: none; stroke: #000000; stroke-width: 0.8; stroke-linejoin: miter; stroke-linecap: square"/>
   </g>
   <g id="patch_4">
    <path d="M 414.72 119.740235 
L 414.72 41.472 
" style="fill: none; stroke: #000000; stroke-width: 0.8; stroke-linejoin: miter; stroke-linecap: square"/>
   </g>
   <g id="patch_5">
    <path d="M 57.6 119.740235 
L 414.72 119.740235 
" style="fill: none; stroke: #000000; stroke-width: 0.8; stroke-linejoin: miter; stroke-linecap: square"/>
   </g>
   <g id="patch_6">
    <path d="M 57.6 41.472 
L 414.72 41.472 
" style="fill: none; stroke: #000000; stroke-width: 0.8; stroke-linejoin: miter; stroke-linecap: square"/>
   </g>
  </g>
  <g id="axes_2">
   <g id="patch_7">
    <path d="M 57.6 213.662118 
L 414.72 213.662118 
L 414.72 135.393882 
L 57.6 135.393882 
z
" style="fill: #ffffff"/>
   </g>
   <g id="matplotlib.axis_3">
    <g id="xtick_8">
     <g id="line2d_11">
      <g>
       <use xlink:href="#mc5d31db64f" x="73.832727" y="213.662118" style="stroke: #000000; stroke-width: 0.8"/>
      </g>
     </g>
     <g id="text_10">
      <!-- 0 -->
      <g transform="translate(70.651477 228.260555) scale(0.1 -0.1)">
       <use xlink:href="#DejaVuSans-30"/>
      </g>
     </g>
    </g>
    <g id="xtick_9">
     <g id="line2d_12">
      <g>
       <use xlink:href="#mc5d31db64f" x="128.017074" y="213.662118" style="stroke: #000000; stroke-width: 0.8"/>
      </g>
     </g>
     <g id="text_11">
      <!-- 5 -->
      <g transform="translate(124.835824 228.260555) scale(0.1 -0.1)">
       <use xlink:href="#DejaVuSans-35"/>
      </g>
     </g>
    </g>
    <g id="xtick_10">
     <g id="line2d_13">
      <g>
       <use xlink:href="#mc5d31db64f" x="182.201421" y="213.662118" style="stroke: #000000; stroke-width: 0.8"/>
      </g>
     </g>
     <g id="text_12">
      <!-- 10 -->
      <g transform="translate(175.838921 228.260555) scale(0.1 -0.1)">
       <use xlink:href="#DejaVuSans-31"/>
       <use xlink:href="#DejaVuSans-30" x="63.623047"/>
      </g>
     </g>
    </g>
    <g id="xtick_11">
     <g id="line2d_14">
      <g>
       <use xlink:href="#mc5d31db64f" x="236.385768" y="213.662118" style="stroke: #000000; stroke-width: 0.8"/>
      </g>
     </g>
     <g id="text_13">
      <!-- 15 -->
      <g transform="translate(230.023268 228.260555) scale(0.1 -0.1)">
       <use xlink:href="#DejaVuSans-31"/>
       <use xlink:href="#DejaVuSans-35" x="63.623047"/>
      </g>
     </g>
    </g>
    <g id="xtick_12">
     <g id="line2d_15">
      <g>
       <use xlink:href="#mc5d31db64f" x="290.570115" y="213.662118" style="stroke: #000000; stroke-width: 0.8"/>
      </g>
     </g>
     <g id="text_14">
      <!-- 20 -->
      <g transform="translate(284.207615 228.260555) scale(0.1 -0.1)">
       <use xlink:href="#DejaVuSans-32"/>
       <use xlink:href="#DejaVuSans-30" x="63.623047"/>
      </g>
     </g>
    </g>
    <g id="xtick_13">
     <g id="line2d_16">
      <g>
       <use xlink:href="#mc5d31db64f" x="344.754462" y="213.662118" style="stroke: #000000; stroke-width: 0.8"/>
      </g>
     </g>
     <g id="text_15">
      <!-- 25 -->
      <g transform="translate(338.391962 228.260555) scale(0.1 -0.1)">
       <use xlink:href="#DejaVuSans-32"/>
       <use xlink:href="#DejaVuSans-35" x="63.623047"/>
      </g>
     </g>
    </g>
    <g id="xtick_14">
     <g id="line2d_17">
      <g>
       <use xlink:href="#mc5d31db64f" x="398.938809" y="213.662118" style="stroke: #000000; stroke-width: 0.8"/>
      </g>
     </g>
     <g id="text_16">
      <!-- 30 -->
      <g transform="translate(392.576309 228.260555) scale(0.1 -0.1)">
       <use xlink:href="#DejaVuSans-33"/>
       <use xlink:href="#DejaVuSans-30" x="63.623047"/>
      </g>
     </g>
    </g>
   </g>
   <g id="matplotlib.axis_4">
    <g id="ytick_3">
     <g id="line2d_18">
      <g>
       <use xlink:href="#m9074d98cbb" x="57.6" y="210.104471" style="stroke: #000000; stroke-width: 0.8"/>
      </g>
     </g>
     <g id="text_17">
      <!-- 0 -->
      <g transform="translate(44.2375 213.903689) scale(0.1 -0.1)">
       <use xlink:href="#DejaVuSans-30"/>
      </g>
     </g>
    </g>
    <g id="ytick_4">
     <g id="line2d_19">
      <g>
       <use xlink:href="#m9074d98cbb" x="57.6" y="174.528" style="stroke: #000000; stroke-width: 0.8"/>
      </g>
     </g>
     <g id="text_18">
      <!-- 50 -->
      <g transform="translate(37.875 178.327219) scale(0.1 -0.1)">
       <use xlink:href="#DejaVuSans-35"/>
       <use xlink:href="#DejaVuSans-30" x="63.623047"/>
      </g>
     </g>
    </g>
    <g id="ytick_5">
     <g id="line2d_20">
      <g>
       <use xlink:href="#m9074d98cbb" x="57.6" y="138.951529" style="stroke: #000000; stroke-width: 0.8"/>
      </g>
     </g>
     <g id="text_19">
      <!-- 100 -->
      <g transform="translate(31.5125 142.750748) scale(0.1 -0.1)">
       <use xlink:href="#DejaVuSans-31"/>
       <use xlink:href="#DejaVuSans-30" x="63.623047"/>
       <use xlink:href="#DejaVuSans-30" x="127.246094"/>
      </g>
     </g>
    </g>
   </g>
   <g id="line2d_21">
    <path d="M 73.832727 151.047529 
L 74.7358 148.201412 
L 75.187336 141.086118 
L 75.638872 138.951529 
L 78.799626 138.951529 
L 79.251162 141.086118 
L 79.702698 156.739765 
L 81.057307 178.085647 
L 81.508843 180.931765 
L 81.960379 181.643294 
L 82.411916 180.931765 
L 82.863452 181.643294 
L 83.314988 180.220235 
L 83.766524 176.662588 
L 85.121133 147.489882 
L 85.572669 143.220706 
L 86.024205 141.086118 
L 86.475742 140.374588 
L 86.927278 144.643765 
L 87.378814 144.643765 
L 87.83035 142.509176 
L 88.281886 138.951529 
L 88.733423 138.951529 
L 89.184959 141.797647 
L 89.636495 149.624471 
L 90.539568 148.201412 
L 91.44264 165.278118 
L 92.797249 183.066353 
L 93.248785 183.066353 
L 93.700321 184.489412 
L 94.151857 178.085647 
L 94.603394 178.797176 
L 95.05493 183.777882 
L 95.506466 180.931765 
L 96.409539 170.258824 
L 96.861075 162.432 
L 97.312611 151.759059 
L 97.764147 143.932235 
L 98.215683 140.374588 
L 98.66722 138.951529 
L 100.924901 138.951529 
L 101.376437 141.797647 
L 101.827973 142.509176 
L 102.279509 142.509176 
L 102.731046 143.932235 
L 103.182582 140.374588 
L 103.634118 138.951529 
L 104.085654 142.509176 
L 104.988727 168.835765 
L 106.343335 181.643294 
L 107.246408 183.066353 
L 107.697944 182.354824 
L 108.14948 180.220235 
L 108.601017 168.835765 
L 109.052553 153.182118 
L 109.504089 146.066824 
L 109.955625 141.797647 
L 110.407161 139.663059 
L 110.858698 138.951529 
L 111.76177 138.951529 
L 112.213306 139.663059 
L 112.664843 148.912941 
L 113.116379 170.970353 
L 113.567915 185.200941 
L 114.019451 186.624 
L 114.470987 183.066353 
L 114.922524 186.624 
L 115.37406 188.047059 
L 115.825596 188.047059 
L 116.277132 188.758588 
L 116.728669 190.181647 
L 117.631741 190.181647 
L 118.083277 189.470118 
L 118.534814 183.777882 
L 118.98635 183.777882 
L 119.437886 182.354824 
L 119.889422 177.374118 
L 120.340958 166.701176 
L 120.792495 151.759059 
L 121.244031 143.932235 
L 121.695567 141.086118 
L 122.147103 139.663059 
L 122.59864 138.951529 
L 125.307857 138.951529 
L 126.210929 156.739765 
L 126.662466 160.297412 
L 127.114002 165.989647 
L 128.017074 150.336 
L 128.46861 144.643765 
L 128.920147 141.797647 
L 129.371683 140.374588 
L 129.823219 143.220706 
L 130.274755 139.663059 
L 130.726292 138.951529 
L 132.0809 145.355294 
L 132.532436 143.220706 
L 132.983973 143.932235 
L 133.435509 139.663059 
L 134.790118 139.663059 
L 135.241654 138.951529 
L 137.499335 138.951529 
L 137.950871 210.104471 
L 138.402407 185.200941 
L 138.853944 210.104471 
L 139.30548 184.489412 
L 139.757016 187.335529 
L 140.208552 188.758588 
L 141.111625 188.758588 
L 141.563161 185.912471 
L 142.014697 180.931765 
L 142.466233 174.528 
L 142.91777 165.989647 
L 143.369306 154.605176 
L 143.820842 151.759059 
L 144.272378 151.047529 
L 145.175451 146.778353 
L 145.626987 146.778353 
L 146.078523 145.355294 
L 146.981596 153.182118 
L 147.433132 161.008941 
L 147.884668 160.297412 
L 148.336204 156.739765 
L 148.787741 143.220706 
L 149.239277 146.778353 
L 149.690813 145.355294 
L 150.142349 146.066824 
L 151.045422 158.874353 
L 151.496958 175.239529 
L 151.948494 181.643294 
L 152.40003 185.200941 
L 152.851567 210.104471 
L 153.303103 138.951529 
L 154.657711 138.951529 
L 155.560784 143.220706 
L 156.01232 148.912941 
L 156.463856 151.047529 
L 157.366929 165.278118 
L 157.818465 172.393412 
L 158.270001 169.547294 
L 158.721537 179.508706 
L 159.173074 179.508706 
L 160.076146 156.028235 
L 160.527682 139.663059 
L 161.430755 139.663059 
L 161.882291 138.951529 
L 162.333827 138.951529 
L 162.785364 140.374588 
L 163.2369 145.355294 
L 163.688436 143.932235 
L 164.139972 146.066824 
L 164.591508 145.355294 
L 165.043045 145.355294 
L 165.494581 146.066824 
L 165.946117 158.162824 
L 166.397653 163.143529 
L 166.84919 171.681882 
L 167.300726 176.662588 
L 167.752262 179.508706 
L 168.203798 176.662588 
L 168.655334 178.085647 
L 169.106871 178.797176 
L 169.558407 168.835765 
L 170.009943 148.201412 
L 170.461479 142.509176 
L 170.913016 141.086118 
L 171.364552 138.951529 
L 175.879914 138.951529 
L 176.33145 141.797647 
L 176.782986 154.605176 
L 177.686059 173.104941 
L 178.589131 153.182118 
L 179.040668 155.316706 
L 179.94374 173.104941 
L 180.395276 162.432 
L 180.846812 161.008941 
L 181.298349 158.874353 
L 181.749885 155.316706 
L 182.201421 155.316706 
L 183.104494 170.970353 
L 183.55603 168.124235 
L 184.459102 150.336 
L 185.362175 143.220706 
L 185.813711 142.509176 
L 186.265247 138.951529 
L 188.071392 138.951529 
L 188.974465 156.739765 
L 189.426001 151.759059 
L 189.877537 145.355294 
L 190.329073 143.932235 
L 190.780609 140.374588 
L 191.232146 148.912941 
L 192.586754 160.297412 
L 193.038291 168.835765 
L 193.489827 158.162824 
L 193.941363 161.720471 
L 194.392899 162.432 
L 194.844435 161.008941 
L 195.295972 144.643765 
L 195.747508 146.066824 
L 196.199044 138.951529 
L 196.65058 141.086118 
L 197.102117 142.509176 
L 197.553653 142.509176 
L 198.005189 140.374588 
L 198.456725 138.951529 
L 203.423624 138.951529 
L 203.87516 140.374588 
L 204.326696 142.509176 
L 204.778232 146.778353 
L 205.229769 146.778353 
L 205.681305 155.316706 
L 206.132841 161.008941 
L 206.584377 152.470588 
L 207.48745 172.393412 
L 207.938986 177.374118 
L 208.390522 180.220235 
L 208.842058 184.489412 
L 209.293595 185.912471 
L 209.745131 188.758588 
L 210.196667 188.758588 
L 210.648203 185.912471 
L 211.551276 150.336 
L 212.002812 142.509176 
L 212.905884 139.663059 
L 213.357421 138.951529 
L 213.808957 145.355294 
L 214.712029 165.989647 
L 216.066638 178.085647 
L 216.518174 180.931765 
L 216.96971 181.643294 
L 217.421247 180.931765 
L 217.872783 181.643294 
L 218.324319 180.220235 
L 218.775855 176.662588 
L 220.130464 147.489882 
L 220.582 143.220706 
L 221.033536 161.008941 
L 221.936609 183.066353 
L 222.388145 188.047059 
L 223.291218 189.470118 
L 223.742754 191.604706 
L 226.451971 191.604706 
L 226.903507 190.181647 
L 228.258116 178.085647 
L 228.709652 165.278118 
L 229.612725 163.855059 
L 230.064261 170.258824 
L 230.967333 178.085647 
L 231.41887 179.508706 
L 232.773478 179.508706 
L 233.225015 178.085647 
L 233.676551 180.220235 
L 234.128087 173.816471 
L 234.579623 163.143529 
L 235.031159 166.701176 
L 235.934232 177.374118 
L 236.837304 183.066353 
L 237.740377 184.489412 
L 238.191913 181.643294 
L 238.643449 180.931765 
L 239.094985 180.931765 
L 239.546522 180.220235 
L 239.998058 178.797176 
L 240.449594 175.951059 
L 240.90113 169.547294 
L 241.352667 153.893647 
L 241.804203 145.355294 
L 242.255739 139.663059 
L 242.707275 138.951529 
L 244.061884 145.355294 
L 244.51342 143.220706 
L 244.964956 143.932235 
L 245.416493 139.663059 
L 246.771101 139.663059 
L 247.222638 138.951529 
L 249.480319 138.951529 
L 249.931855 146.066824 
L 250.383391 158.162824 
L 250.834927 163.143529 
L 251.286464 171.681882 
L 251.738 176.662588 
L 252.189536 179.508706 
L 252.641072 176.662588 
L 253.092608 178.085647 
L 253.544145 178.797176 
L 253.995681 168.835765 
L 254.447217 148.201412 
L 254.898753 149.624471 
L 255.35029 148.912941 
L 256.253362 143.220706 
L 256.704898 141.797647 
L 257.156434 138.951529 
L 260.768724 138.951529 
L 261.22026 146.066824 
L 261.671797 148.912941 
L 262.574869 143.220706 
L 263.026405 141.797647 
L 263.477942 138.951529 
L 266.638695 138.951529 
L 267.090231 146.066824 
L 267.541768 158.162824 
L 267.993304 163.143529 
L 268.44484 171.681882 
L 268.896376 176.662588 
L 269.347913 179.508706 
L 269.799449 176.662588 
L 270.250985 178.085647 
L 270.702521 178.797176 
L 271.154057 168.835765 
L 271.605594 148.201412 
L 272.05713 142.509176 
L 272.960202 139.663059 
L 273.411739 138.951529 
L 273.863275 138.951529 
L 274.314811 142.509176 
L 274.766347 158.162824 
L 275.217883 169.547294 
L 275.66942 172.393412 
L 276.120956 169.547294 
L 276.572492 165.278118 
L 277.024028 174.528 
L 277.475565 175.951059 
L 277.927101 175.951059 
L 278.378637 180.220235 
L 278.830173 180.931765 
L 279.733246 179.508706 
L 280.184782 180.220235 
L 280.636318 178.085647 
L 281.087854 176.662588 
L 281.539391 168.835765 
L 282.442463 176.662588 
L 283.345535 180.931765 
L 284.248608 170.258824 
L 284.700144 171.681882 
L 285.15168 165.989647 
L 285.603217 156.028235 
L 286.054753 156.739765 
L 286.506289 153.893647 
L 286.957825 147.489882 
L 287.860898 141.797647 
L 288.312434 140.374588 
L 288.76397 156.028235 
L 290.118579 181.643294 
L 290.570115 185.200941 
L 291.021651 187.335529 
L 291.924724 188.758588 
L 292.37626 188.047059 
L 292.827796 188.047059 
L 293.730869 185.200941 
L 294.182405 182.354824 
L 294.633941 180.220235 
L 295.085477 178.797176 
L 295.537014 164.566588 
L 295.98855 162.432 
L 296.440086 153.182118 
L 296.891622 155.316706 
L 297.794695 170.970353 
L 298.697767 180.220235 
L 299.149303 180.931765 
L 300.052376 179.508706 
L 300.503912 180.220235 
L 300.955448 178.085647 
L 301.406984 176.662588 
L 301.858521 168.835765 
L 302.761593 176.662588 
L 303.664666 180.931765 
L 304.567738 170.258824 
L 305.019274 171.681882 
L 305.47081 165.989647 
L 305.922347 156.028235 
L 306.373883 156.739765 
L 306.825419 153.893647 
L 307.728492 151.047529 
L 308.631564 165.278118 
L 309.0831 172.393412 
L 309.534636 169.547294 
L 309.986173 179.508706 
L 310.437709 179.508706 
L 311.340781 156.028235 
L 311.792318 139.663059 
L 312.69539 139.663059 
L 313.146926 138.951529 
L 314.049999 138.951529 
L 314.501535 140.374588 
L 314.953071 145.355294 
L 315.404607 143.932235 
L 315.856144 146.066824 
L 316.30768 145.355294 
L 316.759216 145.355294 
L 317.210752 146.066824 
L 317.662289 158.162824 
L 318.113825 163.143529 
L 318.565361 171.681882 
L 319.016897 176.662588 
L 319.468433 179.508706 
L 319.91997 176.662588 
L 320.371506 178.085647 
L 320.823042 178.797176 
L 321.274578 168.835765 
L 321.726115 148.201412 
L 322.177651 142.509176 
L 322.629187 141.086118 
L 323.080723 138.951529 
L 323.983796 138.951529 
L 324.886868 141.797647 
L 325.338404 157.451294 
L 325.789941 167.412706 
L 326.241477 172.393412 
L 326.693013 175.239529 
L 327.596085 178.085647 
L 328.047622 173.816471 
L 328.499158 172.393412 
L 328.950694 174.528 
L 329.40223 173.104941 
L 329.853767 169.547294 
L 330.756839 168.124235 
L 331.208375 161.720471 
L 332.111448 143.220706 
L 332.562984 140.374588 
L 333.01452 153.893647 
L 333.466056 158.874353 
L 333.917593 170.970353 
L 334.369129 177.374118 
L 334.820665 180.220235 
L 335.272201 181.643294 
L 335.723738 178.797176 
L 336.175274 153.182118 
L 336.62681 138.951529 
L 337.529882 138.951529 
L 337.981419 139.663059 
L 338.432955 139.663059 
L 338.884491 138.951529 
L 344.302926 138.951529 
L 344.754462 141.086118 
L 345.205998 141.797647 
L 345.657534 138.951529 
L 347.012143 138.951529 
L 347.915216 164.566588 
L 348.366752 173.816471 
L 348.818288 178.085647 
L 349.269824 178.797176 
L 349.72136 180.931765 
L 351.075969 185.200941 
L 351.527505 185.912471 
L 352.430578 178.085647 
L 352.882114 165.278118 
L 353.785186 163.855059 
L 354.236723 170.258824 
L 355.139795 178.085647 
L 355.591331 178.797176 
L 356.042868 180.931765 
L 357.397476 185.200941 
L 357.849013 185.912471 
L 358.752085 178.085647 
L 359.203621 165.278118 
L 360.106694 163.855059 
L 360.55823 168.124235 
L 361.009766 157.451294 
L 361.461302 149.624471 
L 362.815911 170.258824 
L 363.718983 178.085647 
L 364.17052 179.508706 
L 364.622056 178.085647 
L 365.073592 180.220235 
L 365.525128 173.816471 
L 366.428201 152.470588 
L 366.879737 147.489882 
L 367.331273 143.932235 
L 367.782809 141.797647 
L 368.234346 140.374588 
L 368.685882 140.374588 
L 369.137418 138.951529 
L 370.492027 138.951529 
L 370.943563 139.663059 
L 371.395099 139.663059 
L 371.846635 143.220706 
L 372.298172 140.374588 
L 372.749708 138.951529 
L 374.555853 138.951529 
L 375.007389 140.374588 
L 375.458925 153.893647 
L 375.910461 158.874353 
L 376.361998 170.970353 
L 377.26507 183.066353 
L 377.716606 183.066353 
L 378.168143 184.489412 
L 378.619679 178.085647 
L 379.071215 178.797176 
L 379.522751 183.777882 
L 379.974288 183.777882 
L 380.425824 163.143529 
L 380.87736 150.336 
L 381.780432 170.258824 
L 382.231969 153.182118 
L 382.683505 143.220706 
L 383.135041 139.663059 
L 383.586577 139.663059 
L 384.038114 140.374588 
L 384.941186 138.951529 
L 385.392722 139.663059 
L 385.844258 144.643765 
L 386.295795 152.470588 
L 386.747331 158.162824 
L 387.198867 161.008941 
L 387.650403 159.585882 
L 388.10194 156.739765 
L 388.553476 148.201412 
L 389.005012 149.624471 
L 389.456548 152.470588 
L 389.908084 160.297412 
L 390.359621 162.432 
L 390.811157 163.855059 
L 391.262693 169.547294 
L 391.714229 173.104941 
L 392.165766 170.258824 
L 392.617302 178.085647 
L 393.520374 175.239529 
L 393.97191 173.104941 
L 394.423447 175.951059 
L 394.874983 178.085647 
L 395.326519 178.797176 
L 395.778055 180.931765 
L 397.132664 185.200941 
L 397.5842 185.912471 
L 398.035737 179.508706 
L 398.487273 167.412706 
L 398.487273 167.412706 
" clip-path="url(#pb307bdd148)" style="fill: none; stroke: #1f77b4; stroke-width: 1.5; stroke-linecap: square"/>
   </g>
   <g id="patch_8">
    <path d="M 57.6 213.662118 
L 57.6 135.393882 
" style="fill: none; stroke: #000000; stroke-width: 0.8; stroke-linejoin: miter; stroke-linecap: square"/>
   </g>
   <g id="patch_9">
    <path d="M 414.72 213.662118 
L 414.72 135.393882 
" style="fill: none; stroke: #000000; stroke-width: 0.8; stroke-linejoin: miter; stroke-linecap: square"/>
   </g>
   <g id="patch_10">
    <path d="M 57.6 213.662118 
L 414.72 213.662118 
" style="fill: none; stroke: #000000; stroke-width: 0.8; stroke-linejoin: miter; stroke-linecap: square"/>
   </g>
   <g id="patch_11">
    <path d="M 57.6 135.393882 
L 414.72 135.393882 
" style="fill: none; stroke: #000000; stroke-width: 0.8; stroke-linejoin: miter; stroke-linecap: square"/>
   </g>
  </g>
  <g id="axes_3">
   <g id="patch_12">
    <path d="M 57.6 307.584 
L 414.72 307.584 
L 414.72 229.315765 
L 57.6 229.315765 
z
" style="fill: #ffffff"/>
   </g>
   <g id="matplotlib.axis_5">
    <g id="xtick_15">
     <g id="line2d_22">
      <g>
       <use xlink:href="#mc5d31db64f" x="73.832727" y="307.584" style="stroke: #000000; stroke-width: 0.8"/>
      </g>
     </g>
     <g id="text_20">
      <!-- 0 -->
      <g transform="translate(70.651477 322.182437) scale(0.1 -0.1)">
       <use xlink:href="#DejaVuSans-30"/>
      </g>
     </g>
    </g>
    <g id="xtick_16">
     <g id="line2d_23">
      <g>
       <use xlink:href="#mc5d31db64f" x="128.017074" y="307.584" style="stroke: #000000; stroke-width: 0.8"/>
      </g>
     </g>
     <g id="text_21">
      <!-- 5 -->
      <g transform="translate(124.835824 322.182437) scale(0.1 -0.1)">
       <use xlink:href="#DejaVuSans-35"/>
      </g>
     </g>
    </g>
    <g id="xtick_17">
     <g id="line2d_24">
      <g>
       <use xlink:href="#mc5d31db64f" x="182.201421" y="307.584" style="stroke: #000000; stroke-width: 0.8"/>
      </g>
     </g>
     <g id="text_22">
      <!-- 10 -->
      <g transform="translate(175.838921 322.182437) scale(0.1 -0.1)">
       <use xlink:href="#DejaVuSans-31"/>
       <use xlink:href="#DejaVuSans-30" x="63.623047"/>
      </g>
     </g>
    </g>
    <g id="xtick_18">
     <g id="line2d_25">
      <g>
       <use xlink:href="#mc5d31db64f" x="236.385768" y="307.584" style="stroke: #000000; stroke-width: 0.8"/>
      </g>
     </g>
     <g id="text_23">
      <!-- 15 -->
      <g transform="translate(230.023268 322.182437) scale(0.1 -0.1)">
       <use xlink:href="#DejaVuSans-31"/>
       <use xlink:href="#DejaVuSans-35" x="63.623047"/>
      </g>
     </g>
    </g>
    <g id="xtick_19">
     <g id="line2d_26">
      <g>
       <use xlink:href="#mc5d31db64f" x="290.570115" y="307.584" style="stroke: #000000; stroke-width: 0.8"/>
      </g>
     </g>
     <g id="text_24">
      <!-- 20 -->
      <g transform="translate(284.207615 322.182437) scale(0.1 -0.1)">
       <use xlink:href="#DejaVuSans-32"/>
       <use xlink:href="#DejaVuSans-30" x="63.623047"/>
      </g>
     </g>
    </g>
    <g id="xtick_20">
     <g id="line2d_27">
      <g>
       <use xlink:href="#mc5d31db64f" x="344.754462" y="307.584" style="stroke: #000000; stroke-width: 0.8"/>
      </g>
     </g>
     <g id="text_25">
      <!-- 25 -->
      <g transform="translate(338.391962 322.182437) scale(0.1 -0.1)">
       <use xlink:href="#DejaVuSans-32"/>
       <use xlink:href="#DejaVuSans-35" x="63.623047"/>
      </g>
     </g>
    </g>
    <g id="xtick_21">
     <g id="line2d_28">
      <g>
       <use xlink:href="#mc5d31db64f" x="398.938809" y="307.584" style="stroke: #000000; stroke-width: 0.8"/>
      </g>
     </g>
     <g id="text_26">
      <!-- 30 -->
      <g transform="translate(392.576309 322.182437) scale(0.1 -0.1)">
       <use xlink:href="#DejaVuSans-33"/>
       <use xlink:href="#DejaVuSans-30" x="63.623047"/>
      </g>
     </g>
    </g>
   </g>
   <g id="matplotlib.axis_6">
    <g id="ytick_6">
     <g id="line2d_29">
      <g>
       <use xlink:href="#m9074d98cbb" x="57.6" y="304.026353" style="stroke: #000000; stroke-width: 0.8"/>
      </g>
     </g>
     <g id="text_27">
      <!-- 0 -->
      <g transform="translate(44.2375 307.825572) scale(0.1 -0.1)">
       <use xlink:href="#DejaVuSans-30"/>
      </g>
     </g>
    </g>
    <g id="ytick_7">
     <g id="line2d_30">
      <g>
       <use xlink:href="#m9074d98cbb" x="57.6" y="253.202824" style="stroke: #000000; stroke-width: 0.8"/>
      </g>
     </g>
     <g id="text_28">
      <!-- 5 -->
      <g transform="translate(44.2375 257.002042) scale(0.1 -0.1)">
       <use xlink:href="#DejaVuSans-35"/>
      </g>
     </g>
    </g>
   </g>
   <g id="line2d_31">
    <path d="M 73.832727 304.026353 
L 87.83035 304.026353 
L 88.281886 293.861647 
L 88.733423 304.026353 
L 160.527682 304.026353 
L 160.979219 293.861647 
L 161.882291 293.861647 
L 162.333827 304.026353 
L 195.295972 304.026353 
L 196.199044 283.696941 
L 196.65058 304.026353 
L 311.792318 304.026353 
L 312.243854 293.861647 
L 313.598463 293.861647 
L 314.049999 304.026353 
L 335.723738 304.026353 
L 336.175274 232.873412 
L 336.62681 293.861647 
L 337.078346 304.026353 
L 368.234346 304.026353 
L 368.685882 263.367529 
L 369.137418 293.861647 
L 369.588954 283.696941 
L 370.040491 283.696941 
L 370.492027 304.026353 
L 379.974288 304.026353 
L 380.425824 283.696941 
L 380.87736 304.026353 
L 398.487273 304.026353 
L 398.487273 304.026353 
" clip-path="url(#p29fbab5c80)" style="fill: none; stroke: #1f77b4; stroke-width: 1.5; stroke-linecap: square"/>
   </g>
   <g id="patch_13">
    <path d="M 57.6 307.584 
L 57.6 229.315765 
" style="fill: none; stroke: #000000; stroke-width: 0.8; stroke-linejoin: miter; stroke-linecap: square"/>
   </g>
   <g id="patch_14">
    <path d="M 414.72 307.584 
L 414.72 229.315765 
" style="fill: none; stroke: #000000; stroke-width: 0.8; stroke-linejoin: miter; stroke-linecap: square"/>
   </g>
   <g id="patch_15">
    <path d="M 57.6 307.584 
L 414.72 307.584 
" style="fill: none; stroke: #000000; stroke-width: 0.8; stroke-linejoin: miter; stroke-linecap: square"/>
   </g>
   <g id="patch_16">
    <path d="M 57.6 229.315765 
L 414.72 229.315765 
" style="fill: none; stroke: #000000; stroke-width: 0.8; stroke-linejoin: miter; stroke-linecap: square"/>
   </g>
  </g>
  <g id="text_29">
   <!-- cleaned_weather_summer -->
   <g transform="translate(151.397813 16.030125) scale(0.12 -0.12)">
    <defs>
     <path id="DejaVuSans-63" d="M 3122 3366 
L 3122 2828 
Q 2878 2963 2633 3030 
Q 2388 3097 2138 3097 
Q 1578 3097 1268 2742 
Q 959 2388 959 1747 
Q 959 1106 1268 751 
Q 1578 397 2138 397 
Q 2388 397 2633 464 
Q 2878 531 3122 666 
L 3122 134 
Q 2881 22 2623 -34 
Q 2366 -91 2075 -91 
Q 1284 -91 818 406 
Q 353 903 353 1747 
Q 353 2603 823 3093 
Q 1294 3584 2113 3584 
Q 2378 3584 2631 3529 
Q 2884 3475 3122 3366 
z
" transform="scale(0.015625)"/>
     <path id="DejaVuSans-6c" d="M 603 4863 
L 1178 4863 
L 1178 0 
L 603 0 
L 603 4863 
z
" transform="scale(0.015625)"/>
     <path id="DejaVuSans-65" d="M 3597 1894 
L 3597 1613 
L 953 1613 
Q 991 1019 1311 708 
Q 1631 397 2203 397 
Q 2534 397 2845 478 
Q 3156 559 3463 722 
L 3463 178 
Q 3153 47 2828 -22 
Q 2503 -91 2169 -91 
Q 1331 -91 842 396 
Q 353 884 353 1716 
Q 353 2575 817 3079 
Q 1281 3584 2069 3584 
Q 2775 3584 3186 3129 
Q 3597 2675 3597 1894 
z
M 3022 2063 
Q 3016 2534 2758 2815 
Q 2500 3097 2075 3097 
Q 1594 3097 1305 2825 
Q 1016 2553 972 2059 
L 3022 2063 
z
" transform="scale(0.015625)"/>
     <path id="DejaVuSans-61" d="M 2194 1759 
Q 1497 1759 1228 1600 
Q 959 1441 959 1056 
Q 959 750 1161 570 
Q 1363 391 1709 391 
Q 2188 391 2477 730 
Q 2766 1069 2766 1631 
L 2766 1759 
L 2194 1759 
z
M 3341 1997 
L 3341 0 
L 2766 0 
L 2766 531 
Q 2569 213 2275 61 
Q 1981 -91 1556 -91 
Q 1019 -91 701 211 
Q 384 513 384 1019 
Q 384 1609 779 1909 
Q 1175 2209 1959 2209 
L 2766 2209 
L 2766 2266 
Q 2766 2663 2505 2880 
Q 2244 3097 1772 3097 
Q 1472 3097 1187 3025 
Q 903 2953 641 2809 
L 641 3341 
Q 956 3463 1253 3523 
Q 1550 3584 1831 3584 
Q 2591 3584 2966 3190 
Q 3341 2797 3341 1997 
z
" transform="scale(0.015625)"/>
     <path id="DejaVuSans-6e" d="M 3513 2113 
L 3513 0 
L 2938 0 
L 2938 2094 
Q 2938 2591 2744 2837 
Q 2550 3084 2163 3084 
Q 1697 3084 1428 2787 
Q 1159 2491 1159 1978 
L 1159 0 
L 581 0 
L 581 3500 
L 1159 3500 
L 1159 2956 
Q 1366 3272 1645 3428 
Q 1925 3584 2291 3584 
Q 2894 3584 3203 3211 
Q 3513 2838 3513 2113 
z
" transform="scale(0.015625)"/>
     <path id="DejaVuSans-64" d="M 2906 2969 
L 2906 4863 
L 3481 4863 
L 3481 0 
L 2906 0 
L 2906 525 
Q 2725 213 2448 61 
Q 2172 -91 1784 -91 
Q 1150 -91 751 415 
Q 353 922 353 1747 
Q 353 2572 751 3078 
Q 1150 3584 1784 3584 
Q 2172 3584 2448 3432 
Q 2725 3281 2906 2969 
z
M 947 1747 
Q 947 1113 1208 752 
Q 1469 391 1925 391 
Q 2381 391 2643 752 
Q 2906 1113 2906 1747 
Q 2906 2381 2643 2742 
Q 2381 3103 1925 3103 
Q 1469 3103 1208 2742 
Q 947 2381 947 1747 
z
" transform="scale(0.015625)"/>
     <path id="DejaVuSans-5f" d="M 3263 -1063 
L 3263 -1509 
L -63 -1509 
L -63 -1063 
L 3263 -1063 
z
" transform="scale(0.015625)"/>
     <path id="DejaVuSans-77" d="M 269 3500 
L 844 3500 
L 1563 769 
L 2278 3500 
L 2956 3500 
L 3675 769 
L 4391 3500 
L 4966 3500 
L 4050 0 
L 3372 0 
L 2619 2869 
L 1863 0 
L 1184 0 
L 269 3500 
z
" transform="scale(0.015625)"/>
     <path id="DejaVuSans-74" d="M 1172 4494 
L 1172 3500 
L 2356 3500 
L 2356 3053 
L 1172 3053 
L 1172 1153 
Q 1172 725 1289 603 
Q 1406 481 1766 481 
L 2356 481 
L 2356 0 
L 1766 0 
Q 1100 0 847 248 
Q 594 497 594 1153 
L 594 3053 
L 172 3053 
L 172 3500 
L 594 3500 
L 594 4494 
L 1172 4494 
z
" transform="scale(0.015625)"/>
     <path id="DejaVuSans-68" d="M 3513 2113 
L 3513 0 
L 2938 0 
L 2938 2094 
Q 2938 2591 2744 2837 
Q 2550 3084 2163 3084 
Q 1697 3084 1428 2787 
Q 1159 2491 1159 1978 
L 1159 0 
L 581 0 
L 581 4863 
L 1159 4863 
L 1159 2956 
Q 1366 3272 1645 3428 
Q 1925 3584 2291 3584 
Q 2894 3584 3203 3211 
Q 3513 2838 3513 2113 
z
" transform="scale(0.015625)"/>
     <path id="DejaVuSans-72" d="M 2631 2963 
Q 2534 3019 2420 3045 
Q 2306 3072 2169 3072 
Q 1681 3072 1420 2755 
Q 1159 2438 1159 1844 
L 1159 0 
L 581 0 
L 581 3500 
L 1159 3500 
L 1159 2956 
Q 1341 3275 1631 3429 
Q 1922 3584 2338 3584 
Q 2397 3584 2469 3576 
Q 2541 3569 2628 3553 
L 2631 2963 
z
" transform="scale(0.015625)"/>
     <path id="DejaVuSans-73" d="M 2834 3397 
L 2834 2853 
Q 2591 2978 2328 3040 
Q 2066 3103 1784 3103 
Q 1356 3103 1142 2972 
Q 928 2841 928 2578 
Q 928 2378 1081 2264 
Q 1234 2150 1697 2047 
L 1894 2003 
Q 2506 1872 2764 1633 
Q 3022 1394 3022 966 
Q 3022 478 2636 193 
Q 2250 -91 1575 -91 
Q 1294 -91 989 -36 
Q 684 19 347 128 
L 347 722 
Q 666 556 975 473 
Q 1284 391 1588 391 
Q 1994 391 2212 530 
Q 2431 669 2431 922 
Q 2431 1156 2273 1281 
Q 2116 1406 1581 1522 
L 1381 1569 
Q 847 1681 609 1914 
Q 372 2147 372 2553 
Q 372 3047 722 3315 
Q 1072 3584 1716 3584 
Q 2034 3584 2315 3537 
Q 2597 3491 2834 3397 
z
" transform="scale(0.015625)"/>
     <path id="DejaVuSans-75" d="M 544 1381 
L 544 3500 
L 1119 3500 
L 1119 1403 
Q 1119 906 1312 657 
Q 1506 409 1894 409 
Q 2359 409 2629 706 
Q 2900 1003 2900 1516 
L 2900 3500 
L 3475 3500 
L 3475 0 
L 2900 0 
L 2900 538 
Q 2691 219 2414 64 
Q 2138 -91 1772 -91 
Q 1169 -91 856 284 
Q 544 659 544 1381 
z
M 1991 3584 
L 1991 3584 
z
" transform="scale(0.015625)"/>
     <path id="DejaVuSans-6d" d="M 3328 2828 
Q 3544 3216 3844 3400 
Q 4144 3584 4550 3584 
Q 5097 3584 5394 3201 
Q 5691 2819 5691 2113 
L 5691 0 
L 5113 0 
L 5113 2094 
Q 5113 2597 4934 2840 
Q 4756 3084 4391 3084 
Q 3944 3084 3684 2787 
Q 3425 2491 3425 1978 
L 3425 0 
L 2847 0 
L 2847 2094 
Q 2847 2600 2669 2842 
Q 2491 3084 2119 3084 
Q 1678 3084 1418 2786 
Q 1159 2488 1159 1978 
L 1159 0 
L 581 0 
L 581 3500 
L 1159 3500 
L 1159 2956 
Q 1356 3278 1631 3431 
Q 1906 3584 2284 3584 
Q 2666 3584 2933 3390 
Q 3200 3197 3328 2828 
z
" transform="scale(0.015625)"/>
    </defs>
    <use xlink:href="#DejaVuSans-63"/>
    <use xlink:href="#DejaVuSans-6c" x="54.980469"/>
    <use xlink:href="#DejaVuSans-65" x="82.763672"/>
    <use xlink:href="#DejaVuSans-61" x="144.287109"/>
    <use xlink:href="#DejaVuSans-6e" x="205.566406"/>
    <use xlink:href="#DejaVuSans-65" x="268.945312"/>
    <use xlink:href="#DejaVuSans-64" x="330.46875"/>
    <use xlink:href="#DejaVuSans-5f" x="393.945312"/>
    <use xlink:href="#DejaVuSans-77" x="443.945312"/>
    <use xlink:href="#DejaVuSans-65" x="525.732422"/>
    <use xlink:href="#DejaVuSans-61" x="587.255859"/>
    <use xlink:href="#DejaVuSans-74" x="648.535156"/>
    <use xlink:href="#DejaVuSans-68" x="687.744141"/>
    <use xlink:href="#DejaVuSans-65" x="751.123047"/>
    <use xlink:href="#DejaVuSans-72" x="812.646484"/>
    <use xlink:href="#DejaVuSans-5f" x="853.759766"/>
    <use xlink:href="#DejaVuSans-73" x="903.759766"/>
    <use xlink:href="#DejaVuSans-75" x="955.859375"/>
    <use xlink:href="#DejaVuSans-6d" x="1019.238281"/>
    <use xlink:href="#DejaVuSans-6d" x="1116.650391"/>
    <use xlink:href="#DejaVuSans-65" x="1214.0625"/>
    <use xlink:href="#DejaVuSans-72" x="1275.585938"/>
   </g>
  </g>
 </g>
 <defs>
  <clipPath id="p00d2cd264a">
   <rect x="57.6" y="41.472" width="357.12" height="78.268235"/>
  </clipPath>
  <clipPath id="pb307bdd148">
   <rect x="57.6" y="135.393882" width="357.12" height="78.268235"/>
  </clipPath>
  <clipPath id="p29fbab5c80">
   <rect x="57.6" y="229.315765" width="357.12" height="78.268235"/>
  </clipPath>
 </defs>
</svg>
