<?xml version="1.0" encoding="utf-8" standalone="no"?>
<!DOCTYPE svg PUBLIC "-//W3C//DTD SVG 1.1//EN"
  "http://www.w3.org/Graphics/SVG/1.1/DTD/svg11.dtd">
<svg xmlns:xlink="http://www.w3.org/1999/xlink" width="460.8pt" height="345.6pt" viewBox="0 0 460.8 345.6" xmlns="http://www.w3.org/2000/svg" version="1.1">
 <metadata>
  <rdf:RDF xmlns:dc="http://purl.org/dc/elements/1.1/" xmlns:cc="http://creativecommons.org/ns#" xmlns:rdf="http://www.w3.org/1999/02/22-rdf-syntax-ns#">
   <cc:Work>
    <dc:type rdf:resource="http://purl.org/dc/dcmitype/StillImage"/>
    <dc:date>2023-03-08T10:27:26.372887</dc:date>
    <dc:format>image/svg+xml</dc:format>
    <dc:creator>
     <cc:Agent>
      <dc:title>Matplotlib v3.6.3, https://matplotlib.org/</dc:title>
     </cc:Agent>
    </dc:creator>
   </cc:Work>
  </rdf:RDF>
 </metadata>
 <defs>
  <style type="text/css">*{stroke-linejoin: round; stroke-linecap: butt}</style>
 </defs>
 <g id="figure_1">
  <g id="patch_1">
   <path d="M 0 345.6 
L 460.8 345.6 
L 460.8 0 
L 0 0 
z
" style="fill: #ffffff"/>
  </g>
  <g id="axes_1">
   <g id="patch_2">
    <path d="M 57.6 119.740235 
L 414.72 119.740235 
L 414.72 41.472 
L 57.6 41.472 
z
" style="fill: #ffffff"/>
   </g>
   <g id="matplotlib.axis_1">
    <g id="xtick_1">
     <g id="line2d_1">
      <defs>
       <path id="m0b0c71ff28" d="M 0 0 
L 0 3.5 
" style="stroke: #000000; stroke-width: 0.8"/>
      </defs>
      <g>
       <use xlink:href="#m0b0c71ff28" x="73.832727" y="119.740235" style="stroke: #000000; stroke-width: 0.8"/>
      </g>
     </g>
     <g id="text_1">
      <!-- 0 -->
      <g transform="translate(70.651477 134.338673) scale(0.1 -0.1)">
       <defs>
        <path id="DejaVuSans-30" d="M 2034 4250 
Q 1547 4250 1301 3770 
Q 1056 3291 1056 2328 
Q 1056 1369 1301 889 
Q 1547 409 2034 409 
Q 2525 409 2770 889 
Q 3016 1369 3016 2328 
Q 3016 3291 2770 3770 
Q 2525 4250 2034 4250 
z
M 2034 4750 
Q 2819 4750 3233 4129 
Q 3647 3509 3647 2328 
Q 3647 1150 3233 529 
Q 2819 -91 2034 -91 
Q 1250 -91 836 529 
Q 422 1150 422 2328 
Q 422 3509 836 4129 
Q 1250 4750 2034 4750 
z
" transform="scale(0.015625)"/>
       </defs>
       <use xlink:href="#DejaVuSans-30"/>
      </g>
     </g>
    </g>
    <g id="xtick_2">
     <g id="line2d_2">
      <g>
       <use xlink:href="#m0b0c71ff28" x="128.017074" y="119.740235" style="stroke: #000000; stroke-width: 0.8"/>
      </g>
     </g>
     <g id="text_2">
      <!-- 5 -->
      <g transform="translate(124.835824 134.338673) scale(0.1 -0.1)">
       <defs>
        <path id="DejaVuSans-35" d="M 691 4666 
L 3169 4666 
L 3169 4134 
L 1269 4134 
L 1269 2991 
Q 1406 3038 1543 3061 
Q 1681 3084 1819 3084 
Q 2600 3084 3056 2656 
Q 3513 2228 3513 1497 
Q 3513 744 3044 326 
Q 2575 -91 1722 -91 
Q 1428 -91 1123 -41 
Q 819 9 494 109 
L 494 744 
Q 775 591 1075 516 
Q 1375 441 1709 441 
Q 2250 441 2565 725 
Q 2881 1009 2881 1497 
Q 2881 1984 2565 2268 
Q 2250 2553 1709 2553 
Q 1456 2553 1204 2497 
Q 953 2441 691 2322 
L 691 4666 
z
" transform="scale(0.015625)"/>
       </defs>
       <use xlink:href="#DejaVuSans-35"/>
      </g>
     </g>
    </g>
    <g id="xtick_3">
     <g id="line2d_3">
      <g>
       <use xlink:href="#m0b0c71ff28" x="182.201421" y="119.740235" style="stroke: #000000; stroke-width: 0.8"/>
      </g>
     </g>
     <g id="text_3">
      <!-- 10 -->
      <g transform="translate(175.838921 134.338673) scale(0.1 -0.1)">
       <defs>
        <path id="DejaVuSans-31" d="M 794 531 
L 1825 531 
L 1825 4091 
L 703 3866 
L 703 4441 
L 1819 4666 
L 2450 4666 
L 2450 531 
L 3481 531 
L 3481 0 
L 794 0 
L 794 531 
z
" transform="scale(0.015625)"/>
       </defs>
       <use xlink:href="#DejaVuSans-31"/>
       <use xlink:href="#DejaVuSans-30" x="63.623047"/>
      </g>
     </g>
    </g>
    <g id="xtick_4">
     <g id="line2d_4">
      <g>
       <use xlink:href="#m0b0c71ff28" x="236.385768" y="119.740235" style="stroke: #000000; stroke-width: 0.8"/>
      </g>
     </g>
     <g id="text_4">
      <!-- 15 -->
      <g transform="translate(230.023268 134.338673) scale(0.1 -0.1)">
       <use xlink:href="#DejaVuSans-31"/>
       <use xlink:href="#DejaVuSans-35" x="63.623047"/>
      </g>
     </g>
    </g>
    <g id="xtick_5">
     <g id="line2d_5">
      <g>
       <use xlink:href="#m0b0c71ff28" x="290.570115" y="119.740235" style="stroke: #000000; stroke-width: 0.8"/>
      </g>
     </g>
     <g id="text_5">
      <!-- 20 -->
      <g transform="translate(284.207615 134.338673) scale(0.1 -0.1)">
       <defs>
        <path id="DejaVuSans-32" d="M 1228 531 
L 3431 531 
L 3431 0 
L 469 0 
L 469 531 
Q 828 903 1448 1529 
Q 2069 2156 2228 2338 
Q 2531 2678 2651 2914 
Q 2772 3150 2772 3378 
Q 2772 3750 2511 3984 
Q 2250 4219 1831 4219 
Q 1534 4219 1204 4116 
Q 875 4013 500 3803 
L 500 4441 
Q 881 4594 1212 4672 
Q 1544 4750 1819 4750 
Q 2544 4750 2975 4387 
Q 3406 4025 3406 3419 
Q 3406 3131 3298 2873 
Q 3191 2616 2906 2266 
Q 2828 2175 2409 1742 
Q 1991 1309 1228 531 
z
" transform="scale(0.015625)"/>
       </defs>
       <use xlink:href="#DejaVuSans-32"/>
       <use xlink:href="#DejaVuSans-30" x="63.623047"/>
      </g>
     </g>
    </g>
    <g id="xtick_6">
     <g id="line2d_6">
      <g>
       <use xlink:href="#m0b0c71ff28" x="344.754462" y="119.740235" style="stroke: #000000; stroke-width: 0.8"/>
      </g>
     </g>
     <g id="text_6">
      <!-- 25 -->
      <g transform="translate(338.391962 134.338673) scale(0.1 -0.1)">
       <use xlink:href="#DejaVuSans-32"/>
       <use xlink:href="#DejaVuSans-35" x="63.623047"/>
      </g>
     </g>
    </g>
    <g id="xtick_7">
     <g id="line2d_7">
      <g>
       <use xlink:href="#m0b0c71ff28" x="398.938809" y="119.740235" style="stroke: #000000; stroke-width: 0.8"/>
      </g>
     </g>
     <g id="text_7">
      <!-- 30 -->
      <g transform="translate(392.576309 134.338673) scale(0.1 -0.1)">
       <defs>
        <path id="DejaVuSans-33" d="M 2597 2516 
Q 3050 2419 3304 2112 
Q 3559 1806 3559 1356 
Q 3559 666 3084 287 
Q 2609 -91 1734 -91 
Q 1441 -91 1130 -33 
Q 819 25 488 141 
L 488 750 
Q 750 597 1062 519 
Q 1375 441 1716 441 
Q 2309 441 2620 675 
Q 2931 909 2931 1356 
Q 2931 1769 2642 2001 
Q 2353 2234 1838 2234 
L 1294 2234 
L 1294 2753 
L 1863 2753 
Q 2328 2753 2575 2939 
Q 2822 3125 2822 3475 
Q 2822 3834 2567 4026 
Q 2313 4219 1838 4219 
Q 1578 4219 1281 4162 
Q 984 4106 628 3988 
L 628 4550 
Q 988 4650 1302 4700 
Q 1616 4750 1894 4750 
Q 2613 4750 3031 4423 
Q 3450 4097 3450 3541 
Q 3450 3153 3228 2886 
Q 3006 2619 2597 2516 
z
" transform="scale(0.015625)"/>
       </defs>
       <use xlink:href="#DejaVuSans-33"/>
       <use xlink:href="#DejaVuSans-30" x="63.623047"/>
      </g>
     </g>
    </g>
   </g>
   <g id="matplotlib.axis_2">
    <g id="ytick_1">
     <g id="line2d_8">
      <defs>
       <path id="m68cad56344" d="M 0 0 
L -3.5 0 
" style="stroke: #000000; stroke-width: 0.8"/>
      </defs>
      <g>
       <use xlink:href="#m68cad56344" x="57.6" y="104.706307" style="stroke: #000000; stroke-width: 0.8"/>
      </g>
     </g>
     <g id="text_8">
      <!-- 0 -->
      <g transform="translate(44.2375 108.505526) scale(0.1 -0.1)">
       <use xlink:href="#DejaVuSans-30"/>
      </g>
     </g>
    </g>
    <g id="ytick_2">
     <g id="line2d_9">
      <g>
       <use xlink:href="#m68cad56344" x="57.6" y="58.801184" style="stroke: #000000; stroke-width: 0.8"/>
      </g>
     </g>
     <g id="text_9">
      <!-- 20 -->
      <g transform="translate(37.875 62.600403) scale(0.1 -0.1)">
       <use xlink:href="#DejaVuSans-32"/>
       <use xlink:href="#DejaVuSans-30" x="63.623047"/>
      </g>
     </g>
    </g>
   </g>
   <g id="line2d_10">
    <path d="M 73.832727 79.45849 
L 74.284263 79.45849 
L 74.7358 86.344258 
L 75.187336 90.93477 
L 75.638872 90.93477 
L 76.090408 88.639514 
L 76.541945 90.93477 
L 76.993481 90.93477 
L 77.445017 95.525283 
L 77.896553 97.820539 
L 78.34809 95.525283 
L 78.799626 88.639514 
L 79.251162 77.163233 
L 80.154234 67.982209 
L 80.605771 65.686953 
L 81.057307 61.09644 
L 81.508843 61.09644 
L 82.411916 56.505928 
L 82.863452 61.09644 
L 83.766524 81.753746 
L 84.21806 84.049002 
L 85.121133 79.45849 
L 85.572669 79.45849 
L 86.024205 77.163233 
L 87.378814 63.391696 
L 87.83035 65.686953 
L 88.281886 70.277465 
L 89.184959 74.867977 
L 89.636495 74.867977 
L 90.539568 56.505928 
L 90.991104 49.620159 
L 91.894176 45.029647 
L 92.345712 47.324903 
L 92.797249 47.324903 
L 93.700321 51.915416 
L 94.151857 56.505928 
L 95.05493 61.09644 
L 95.506466 58.801184 
L 95.958002 61.09644 
L 96.409539 65.686953 
L 96.861075 67.982209 
L 97.764147 81.753746 
L 98.215683 84.049002 
L 98.66722 74.867977 
L 99.118756 74.867977 
L 100.021828 79.45849 
L 100.473365 79.45849 
L 100.924901 81.753746 
L 101.827973 81.753746 
L 103.182582 88.639514 
L 104.085654 88.639514 
L 104.988727 70.277465 
L 106.343335 56.505928 
L 106.794872 54.210672 
L 107.697944 45.029647 
L 108.14948 45.029647 
L 109.052553 49.620159 
L 109.955625 49.620159 
L 110.407161 58.801184 
L 110.858698 61.09644 
L 111.310234 61.09644 
L 111.76177 63.391696 
L 112.664843 63.391696 
L 113.116379 65.686953 
L 114.019451 65.686953 
L 114.922524 70.277465 
L 116.277132 70.277465 
L 117.180205 74.867977 
L 118.083277 74.867977 
L 118.534814 72.572721 
L 118.98635 67.982209 
L 119.437886 58.801184 
L 120.340958 49.620159 
L 121.244031 49.620159 
L 121.695567 47.324903 
L 122.59864 47.324903 
L 123.050176 51.915416 
L 123.501712 54.210672 
L 123.953248 63.391696 
L 124.856321 58.801184 
L 125.307857 58.801184 
L 125.759393 56.505928 
L 127.114002 56.505928 
L 127.565538 61.09644 
L 128.017074 58.801184 
L 128.46861 61.09644 
L 128.920147 58.801184 
L 129.371683 58.801184 
L 129.823219 67.982209 
L 130.274755 74.867977 
L 131.177828 79.45849 
L 132.0809 74.867977 
L 133.435509 74.867977 
L 134.790118 67.982209 
L 135.241654 63.391696 
L 135.69319 56.505928 
L 136.144726 51.915416 
L 137.047799 47.324903 
L 137.950871 47.324903 
L 138.402407 49.620159 
L 139.757016 63.391696 
L 140.208552 63.391696 
L 140.660089 65.686953 
L 141.111625 65.686953 
L 141.563161 67.982209 
L 142.466233 77.163233 
L 142.91777 79.45849 
L 143.369306 77.163233 
L 144.272378 81.753746 
L 145.175451 81.753746 
L 145.626987 84.049002 
L 146.078523 81.753746 
L 146.981596 86.344258 
L 148.336204 86.344258 
L 148.787741 79.45849 
L 149.239277 70.277465 
L 150.142349 56.505928 
L 150.593885 54.210672 
L 151.045422 54.210672 
L 151.496958 56.505928 
L 151.948494 61.09644 
L 152.40003 63.391696 
L 152.851567 67.982209 
L 153.303103 65.686953 
L 153.754639 65.686953 
L 154.657711 61.09644 
L 155.109248 61.09644 
L 155.560784 58.801184 
L 156.01232 58.801184 
L 156.463856 61.09644 
L 157.818465 61.09644 
L 158.270001 65.686953 
L 158.721537 72.572721 
L 159.173074 74.867977 
L 159.62461 74.867977 
L 160.527682 70.277465 
L 160.979219 77.163233 
L 161.430755 88.639514 
L 161.882291 95.525283 
L 162.785364 86.344258 
L 163.688436 67.982209 
L 164.139972 67.982209 
L 164.591508 70.277465 
L 165.043045 77.163233 
L 165.494581 67.982209 
L 165.946117 63.391696 
L 167.300726 56.505928 
L 167.752262 56.505928 
L 168.203798 104.706307 
L 168.655334 51.915416 
L 170.461479 51.915416 
L 170.913016 54.210672 
L 171.364552 51.915416 
L 172.267624 56.505928 
L 172.71916 61.09644 
L 173.170697 67.982209 
L 173.622233 77.163233 
L 174.073769 81.753746 
L 174.525305 84.049002 
L 174.976842 88.639514 
L 175.428378 90.93477 
L 176.33145 86.344258 
L 176.782986 81.753746 
L 177.234523 81.753746 
L 177.686059 84.049002 
L 178.137595 81.753746 
L 178.589131 84.049002 
L 179.94374 84.049002 
L 180.395276 86.344258 
L 180.846812 84.049002 
L 181.298349 84.049002 
L 181.749885 86.344258 
L 182.201421 86.344258 
L 182.652957 84.049002 
L 184.007566 84.049002 
L 184.459102 86.344258 
L 188.522928 86.344258 
L 189.877537 93.230027 
L 190.329073 90.93477 
L 190.780609 81.753746 
L 191.232146 86.344258 
L 192.135218 86.344258 
L 192.586754 84.049002 
L 193.038291 74.867977 
L 193.489827 67.982209 
L 193.941363 65.686953 
L 194.844435 70.277465 
L 195.295972 70.277465 
L 196.199044 74.867977 
L 196.65058 67.982209 
L 197.102117 74.867977 
L 198.005189 79.45849 
L 198.908261 74.867977 
L 200.26287 74.867977 
L 201.617479 67.982209 
L 202.069015 63.391696 
L 202.972087 63.391696 
L 203.423624 65.686953 
L 205.229769 65.686953 
L 205.681305 74.867977 
L 207.48745 74.867977 
L 207.938986 77.163233 
L 208.390522 74.867977 
L 208.842058 70.277465 
L 210.196667 63.391696 
L 211.09974 63.391696 
L 211.551276 65.686953 
L 212.454348 61.09644 
L 212.905884 65.686953 
L 213.357421 67.982209 
L 213.808957 72.572721 
L 214.712029 77.163233 
L 215.163566 77.163233 
L 216.518174 90.93477 
L 216.96971 84.049002 
L 217.872783 74.867977 
L 218.324319 72.572721 
L 218.775855 67.982209 
L 219.227392 61.09644 
L 219.678928 63.391696 
L 220.582 63.391696 
L 221.485073 72.572721 
L 221.936609 74.867977 
L 222.388145 79.45849 
L 222.839681 79.45849 
L 223.291218 84.049002 
L 223.742754 84.049002 
L 224.19429 81.753746 
L 224.645826 77.163233 
L 225.097362 74.867977 
L 226.000435 65.686953 
L 226.451971 67.982209 
L 226.903507 61.09644 
L 227.355044 56.505928 
L 227.80658 54.210672 
L 228.258116 56.505928 
L 228.709652 54.210672 
L 229.161189 49.620159 
L 230.064261 49.620159 
L 230.967333 54.210672 
L 231.41887 49.620159 
L 231.870406 47.324903 
L 232.321942 47.324903 
L 232.773478 51.915416 
L 234.128087 58.801184 
L 234.579623 63.391696 
L 235.031159 65.686953 
L 235.482696 65.686953 
L 235.934232 67.982209 
L 236.385768 74.867977 
L 237.288841 74.867977 
L 237.740377 67.982209 
L 238.191913 63.391696 
L 238.643449 56.505928 
L 240.449594 47.324903 
L 240.90113 47.324903 
L 241.352667 49.620159 
L 242.255739 49.620159 
L 243.158811 58.801184 
L 243.610348 65.686953 
L 244.061884 67.982209 
L 244.51342 72.572721 
L 244.964956 74.867977 
L 245.868029 74.867977 
L 246.771101 79.45849 
L 247.222638 77.163233 
L 247.674174 79.45849 
L 248.12571 77.163233 
L 248.577246 67.982209 
L 249.028782 70.277465 
L 249.480319 65.686953 
L 249.931855 67.982209 
L 250.383391 65.686953 
L 251.286464 56.505928 
L 251.738 65.686953 
L 252.189536 67.982209 
L 252.641072 67.982209 
L 253.092608 61.09644 
L 253.544145 63.391696 
L 253.995681 63.391696 
L 254.447217 65.686953 
L 256.253362 65.686953 
L 256.704898 61.09644 
L 257.156434 63.391696 
L 257.607971 67.982209 
L 258.511043 72.572721 
L 258.962579 72.572721 
L 259.414116 74.867977 
L 259.865652 74.867977 
L 260.317188 70.277465 
L 261.22026 56.505928 
L 261.671797 51.915416 
L 262.574869 47.324903 
L 263.026405 49.620159 
L 264.83255 49.620159 
L 265.284086 51.915416 
L 265.735623 56.505928 
L 266.638695 56.505928 
L 268.44484 47.324903 
L 269.347913 51.915416 
L 269.799449 56.505928 
L 270.250985 58.801184 
L 270.702521 65.686953 
L 271.154057 67.982209 
L 272.508666 67.982209 
L 272.960202 72.572721 
L 273.411739 67.982209 
L 273.863275 72.572721 
L 274.314811 67.982209 
L 274.766347 72.572721 
L 275.217883 72.572721 
L 275.66942 74.867977 
L 277.024028 74.867977 
L 277.475565 72.572721 
L 277.927101 72.572721 
L 278.378637 65.686953 
L 278.830173 63.391696 
L 279.281709 72.572721 
L 280.184782 77.163233 
L 280.636318 77.163233 
L 281.087854 74.867977 
L 281.990927 74.867977 
L 282.442463 77.163233 
L 283.345535 77.163233 
L 284.248608 81.753746 
L 284.700144 81.753746 
L 285.15168 84.049002 
L 285.603217 84.049002 
L 286.054753 88.639514 
L 286.506289 88.639514 
L 288.76397 100.115795 
L 289.215506 90.93477 
L 289.667043 79.45849 
L 290.118579 74.867977 
L 290.570115 77.163233 
L 291.021651 77.163233 
L 291.473188 74.867977 
L 291.924724 74.867977 
L 292.827796 70.277465 
L 293.279332 65.686953 
L 293.730869 63.391696 
L 294.182405 63.391696 
L 295.085477 58.801184 
L 295.537014 65.686953 
L 295.98855 67.982209 
L 296.440086 77.163233 
L 296.891622 81.753746 
L 297.343158 84.049002 
L 297.794695 84.049002 
L 298.246231 81.753746 
L 298.697767 81.753746 
L 299.149303 84.049002 
L 299.60084 81.753746 
L 301.406984 81.753746 
L 301.858521 84.049002 
L 302.310057 84.049002 
L 302.761593 81.753746 
L 303.664666 86.344258 
L 304.116202 86.344258 
L 304.567738 88.639514 
L 305.019274 88.639514 
L 306.373883 74.867977 
L 306.825419 81.753746 
L 308.631564 90.93477 
L 309.0831 88.639514 
L 309.986173 93.230027 
L 310.437709 90.93477 
L 310.889245 90.93477 
L 311.340781 93.230027 
L 312.243854 93.230027 
L 312.69539 81.753746 
L 313.146926 84.049002 
L 315.404607 84.049002 
L 315.856144 86.344258 
L 318.565361 86.344258 
L 319.016897 88.639514 
L 319.468433 84.049002 
L 319.91997 81.753746 
L 320.371506 77.163233 
L 320.823042 84.049002 
L 321.274578 88.639514 
L 323.532259 100.115795 
L 323.983796 100.115795 
L 324.435332 102.411051 
L 324.886868 102.411051 
L 325.338404 100.115795 
L 325.789941 100.115795 
L 326.693013 104.706307 
L 327.144549 100.115795 
L 327.596085 86.344258 
L 328.047622 77.163233 
L 328.499158 81.753746 
L 328.950694 77.163233 
L 329.40223 74.867977 
L 329.853767 81.753746 
L 330.756839 90.93477 
L 332.562984 81.753746 
L 333.01452 77.163233 
L 333.466056 74.867977 
L 333.917593 81.753746 
L 334.369129 84.049002 
L 334.820665 84.049002 
L 335.272201 88.639514 
L 335.723738 88.639514 
L 336.175274 90.93477 
L 336.62681 79.45849 
L 337.981419 65.686953 
L 338.432955 77.163233 
L 339.787564 70.277465 
L 340.2391 72.572721 
L 341.142172 81.753746 
L 342.045245 86.344258 
L 342.496781 79.45849 
L 343.85139 86.344258 
L 344.302926 86.344258 
L 344.754462 84.049002 
L 345.205998 84.049002 
L 346.109071 88.639514 
L 346.560607 88.639514 
L 347.012143 86.344258 
L 347.463679 86.344258 
L 348.366752 90.93477 
L 348.818288 90.93477 
L 349.269824 86.344258 
L 350.172897 72.572721 
L 350.624433 67.982209 
L 351.527505 63.391696 
L 352.430578 67.982209 
L 352.882114 65.686953 
L 353.33365 65.686953 
L 354.236723 74.867977 
L 354.688259 81.753746 
L 355.139795 84.049002 
L 358.752085 84.049002 
L 359.203621 86.344258 
L 360.106694 86.344258 
L 360.55823 93.230027 
L 361.912839 93.230027 
L 362.364375 90.93477 
L 363.267447 90.93477 
L 363.718983 93.230027 
L 364.17052 93.230027 
L 364.622056 95.525283 
L 367.331273 95.525283 
L 367.782809 97.820539 
L 368.234346 97.820539 
L 369.137418 102.411051 
L 369.588954 100.115795 
L 370.943563 100.115795 
L 371.395099 102.411051 
L 371.846635 100.115795 
L 373.65278 100.115795 
L 374.104317 102.411051 
L 374.555853 100.115795 
L 376.813534 100.115795 
L 377.26507 102.411051 
L 377.716606 102.411051 
L 378.168143 100.115795 
L 378.619679 100.115795 
L 379.071215 102.411051 
L 379.974288 102.411051 
L 380.425824 100.115795 
L 381.328896 100.115795 
L 381.780432 102.411051 
L 382.231969 100.115795 
L 382.683505 95.525283 
L 383.135041 95.525283 
L 384.941186 86.344258 
L 386.747331 86.344258 
L 387.650403 90.93477 
L 388.10194 97.820539 
L 388.553476 100.115795 
L 389.005012 104.706307 
L 389.456548 104.706307 
L 389.908084 109.29682 
L 390.359621 111.592076 
L 391.262693 111.592076 
L 392.165766 116.182588 
L 393.068838 116.182588 
L 394.874983 72.572721 
L 395.326519 67.982209 
L 395.778055 65.686953 
L 396.229592 61.09644 
L 397.132664 61.09644 
L 397.5842 63.391696 
L 398.035737 67.982209 
L 398.487273 79.45849 
L 398.487273 79.45849 
" clip-path="url(#p8e83f16400)" style="fill: none; stroke: #1f77b4; stroke-width: 1.5; stroke-linecap: square"/>
   </g>
   <g id="patch_3">
    <path d="M 57.6 119.740235 
L 57.6 41.472 
" style="fill: none; stroke: #000000; stroke-width: 0.8; stroke-linejoin: miter; stroke-linecap: square"/>
   </g>
   <g id="patch_4">
    <path d="M 414.72 119.740235 
L 414.72 41.472 
" style="fill: none; stroke: #000000; stroke-width: 0.8; stroke-linejoin: miter; stroke-linecap: square"/>
   </g>
   <g id="patch_5">
    <path d="M 57.6 119.740235 
L 414.72 119.740235 
" style="fill: none; stroke: #000000; stroke-width: 0.8; stroke-linejoin: miter; stroke-linecap: square"/>
   </g>
   <g id="patch_6">
    <path d="M 57.6 41.472 
L 414.72 41.472 
" style="fill: none; stroke: #000000; stroke-width: 0.8; stroke-linejoin: miter; stroke-linecap: square"/>
   </g>
  </g>
  <g id="axes_2">
   <g id="patch_7">
    <path d="M 57.6 213.662118 
L 414.72 213.662118 
L 414.72 135.393882 
L 57.6 135.393882 
z
" style="fill: #ffffff"/>
   </g>
   <g id="matplotlib.axis_3">
    <g id="xtick_8">
     <g id="line2d_11">
      <g>
       <use xlink:href="#m0b0c71ff28" x="73.832727" y="213.662118" style="stroke: #000000; stroke-width: 0.8"/>
      </g>
     </g>
     <g id="text_10">
      <!-- 0 -->
      <g transform="translate(70.651477 228.260555) scale(0.1 -0.1)">
       <use xlink:href="#DejaVuSans-30"/>
      </g>
     </g>
    </g>
    <g id="xtick_9">
     <g id="line2d_12">
      <g>
       <use xlink:href="#m0b0c71ff28" x="128.017074" y="213.662118" style="stroke: #000000; stroke-width: 0.8"/>
      </g>
     </g>
     <g id="text_11">
      <!-- 5 -->
      <g transform="translate(124.835824 228.260555) scale(0.1 -0.1)">
       <use xlink:href="#DejaVuSans-35"/>
      </g>
     </g>
    </g>
    <g id="xtick_10">
     <g id="line2d_13">
      <g>
       <use xlink:href="#m0b0c71ff28" x="182.201421" y="213.662118" style="stroke: #000000; stroke-width: 0.8"/>
      </g>
     </g>
     <g id="text_12">
      <!-- 10 -->
      <g transform="translate(175.838921 228.260555) scale(0.1 -0.1)">
       <use xlink:href="#DejaVuSans-31"/>
       <use xlink:href="#DejaVuSans-30" x="63.623047"/>
      </g>
     </g>
    </g>
    <g id="xtick_11">
     <g id="line2d_14">
      <g>
       <use xlink:href="#m0b0c71ff28" x="236.385768" y="213.662118" style="stroke: #000000; stroke-width: 0.8"/>
      </g>
     </g>
     <g id="text_13">
      <!-- 15 -->
      <g transform="translate(230.023268 228.260555) scale(0.1 -0.1)">
       <use xlink:href="#DejaVuSans-31"/>
       <use xlink:href="#DejaVuSans-35" x="63.623047"/>
      </g>
     </g>
    </g>
    <g id="xtick_12">
     <g id="line2d_15">
      <g>
       <use xlink:href="#m0b0c71ff28" x="290.570115" y="213.662118" style="stroke: #000000; stroke-width: 0.8"/>
      </g>
     </g>
     <g id="text_14">
      <!-- 20 -->
      <g transform="translate(284.207615 228.260555) scale(0.1 -0.1)">
       <use xlink:href="#DejaVuSans-32"/>
       <use xlink:href="#DejaVuSans-30" x="63.623047"/>
      </g>
     </g>
    </g>
    <g id="xtick_13">
     <g id="line2d_16">
      <g>
       <use xlink:href="#m0b0c71ff28" x="344.754462" y="213.662118" style="stroke: #000000; stroke-width: 0.8"/>
      </g>
     </g>
     <g id="text_15">
      <!-- 25 -->
      <g transform="translate(338.391962 228.260555) scale(0.1 -0.1)">
       <use xlink:href="#DejaVuSans-32"/>
       <use xlink:href="#DejaVuSans-35" x="63.623047"/>
      </g>
     </g>
    </g>
    <g id="xtick_14">
     <g id="line2d_17">
      <g>
       <use xlink:href="#m0b0c71ff28" x="398.938809" y="213.662118" style="stroke: #000000; stroke-width: 0.8"/>
      </g>
     </g>
     <g id="text_16">
      <!-- 30 -->
      <g transform="translate(392.576309 228.260555) scale(0.1 -0.1)">
       <use xlink:href="#DejaVuSans-33"/>
       <use xlink:href="#DejaVuSans-30" x="63.623047"/>
      </g>
     </g>
    </g>
   </g>
   <g id="matplotlib.axis_4">
    <g id="ytick_3">
     <g id="line2d_18">
      <g>
       <use xlink:href="#m68cad56344" x="57.6" y="210.104471" style="stroke: #000000; stroke-width: 0.8"/>
      </g>
     </g>
     <g id="text_17">
      <!-- 0 -->
      <g transform="translate(44.2375 213.903689) scale(0.1 -0.1)">
       <use xlink:href="#DejaVuSans-30"/>
      </g>
     </g>
    </g>
    <g id="ytick_4">
     <g id="line2d_19">
      <g>
       <use xlink:href="#m68cad56344" x="57.6" y="174.528" style="stroke: #000000; stroke-width: 0.8"/>
      </g>
     </g>
     <g id="text_18">
      <!-- 50 -->
      <g transform="translate(37.875 178.327219) scale(0.1 -0.1)">
       <use xlink:href="#DejaVuSans-35"/>
       <use xlink:href="#DejaVuSans-30" x="63.623047"/>
      </g>
     </g>
    </g>
    <g id="ytick_5">
     <g id="line2d_20">
      <g>
       <use xlink:href="#m68cad56344" x="57.6" y="138.951529" style="stroke: #000000; stroke-width: 0.8"/>
      </g>
     </g>
     <g id="text_19">
      <!-- 100 -->
      <g transform="translate(31.5125 142.750748) scale(0.1 -0.1)">
       <use xlink:href="#DejaVuSans-31"/>
       <use xlink:href="#DejaVuSans-30" x="63.623047"/>
       <use xlink:href="#DejaVuSans-30" x="127.246094"/>
      </g>
     </g>
    </g>
   </g>
   <g id="line2d_21">
    <path d="M 73.832727 151.047529 
L 74.284263 149.624471 
L 74.7358 142.509176 
L 75.187336 139.663059 
L 75.638872 140.374588 
L 76.090408 142.509176 
L 76.541945 143.932235 
L 76.993481 143.220706 
L 77.445017 140.374588 
L 77.896553 138.951529 
L 78.34809 138.951529 
L 78.799626 143.220706 
L 79.251162 158.874353 
L 79.702698 170.258824 
L 80.154234 175.239529 
L 80.605771 178.085647 
L 81.057307 180.220235 
L 81.508843 179.508706 
L 81.960379 180.220235 
L 82.411916 183.066353 
L 82.863452 181.643294 
L 83.314988 168.835765 
L 83.766524 149.624471 
L 84.21806 147.489882 
L 84.669597 154.605176 
L 85.121133 158.162824 
L 85.572669 160.297412 
L 87.378814 178.085647 
L 87.83035 175.951059 
L 88.733423 163.143529 
L 89.636495 154.605176 
L 90.088031 161.720471 
L 90.991104 180.220235 
L 91.44264 183.777882 
L 91.894176 185.200941 
L 92.345712 185.200941 
L 92.797249 184.489412 
L 93.248785 182.354824 
L 93.700321 180.931765 
L 94.151857 178.797176 
L 94.603394 174.528 
L 95.506466 177.374118 
L 95.958002 175.951059 
L 96.409539 173.104941 
L 96.861075 167.412706 
L 97.312611 151.047529 
L 97.764147 141.797647 
L 98.215683 139.663059 
L 98.66722 152.470588 
L 99.118756 153.893647 
L 99.570292 140.374588 
L 100.021828 138.951529 
L 104.085654 138.951529 
L 104.537191 147.489882 
L 104.988727 158.162824 
L 105.440263 165.278118 
L 105.891799 167.412706 
L 106.343335 168.835765 
L 106.794872 171.681882 
L 107.697944 178.797176 
L 108.14948 180.931765 
L 108.601017 178.797176 
L 109.052553 175.239529 
L 109.504089 173.104941 
L 109.955625 166.701176 
L 110.407161 143.932235 
L 110.858698 139.663059 
L 111.310234 138.951529 
L 112.213306 138.951529 
L 112.664843 143.220706 
L 113.116379 139.663059 
L 113.567915 138.951529 
L 114.019451 140.374588 
L 114.922524 138.951529 
L 116.728669 138.951529 
L 117.180205 139.663059 
L 117.631741 138.951529 
L 118.534814 138.951529 
L 118.98635 144.643765 
L 119.437886 161.008941 
L 119.889422 170.970353 
L 120.340958 176.662588 
L 121.695567 183.066353 
L 122.147103 182.354824 
L 123.050176 175.239529 
L 123.501712 173.104941 
L 123.953248 157.451294 
L 124.404784 162.432 
L 125.307857 169.547294 
L 125.759393 171.681882 
L 126.210929 172.393412 
L 126.662466 175.239529 
L 127.114002 173.816471 
L 127.565538 168.835765 
L 128.017074 173.104941 
L 128.46861 172.393412 
L 128.920147 174.528 
L 129.371683 175.239529 
L 130.274755 151.759059 
L 130.726292 147.489882 
L 131.177828 144.643765 
L 131.629364 144.643765 
L 132.0809 148.201412 
L 132.532436 147.489882 
L 132.983973 145.355294 
L 133.435509 145.355294 
L 133.887045 148.912941 
L 134.338581 154.605176 
L 135.241654 161.720471 
L 136.596262 180.931765 
L 137.047799 183.066353 
L 137.499335 182.354824 
L 138.402407 174.528 
L 138.853944 168.835765 
L 139.30548 159.585882 
L 139.757016 143.220706 
L 140.208552 142.509176 
L 140.660089 144.643765 
L 141.111625 148.201412 
L 141.563161 148.201412 
L 142.014697 142.509176 
L 142.466233 138.951529 
L 142.91777 138.951529 
L 143.369306 139.663059 
L 143.820842 139.663059 
L 144.272378 138.951529 
L 148.336204 138.951529 
L 148.787741 143.220706 
L 149.690813 166.701176 
L 150.142349 174.528 
L 150.593885 180.220235 
L 152.40003 177.374118 
L 152.851567 170.258824 
L 153.303103 172.393412 
L 153.754639 176.662588 
L 154.657711 180.931765 
L 155.109248 180.931765 
L 155.560784 182.354824 
L 156.01232 181.643294 
L 156.915393 178.797176 
L 157.366929 182.354824 
L 157.818465 183.066353 
L 158.270001 181.643294 
L 158.721537 171.681882 
L 159.173074 166.701176 
L 159.62461 165.278118 
L 160.076146 172.393412 
L 160.527682 177.374118 
L 160.979219 170.970353 
L 161.430755 152.470588 
L 161.882291 141.797647 
L 162.333827 146.066824 
L 162.785364 151.759059 
L 163.688436 170.970353 
L 164.139972 171.681882 
L 164.591508 167.412706 
L 165.043045 158.874353 
L 165.494581 168.835765 
L 166.397653 175.239529 
L 166.84919 178.085647 
L 167.300726 180.220235 
L 167.752262 181.643294 
L 168.203798 210.104471 
L 168.655334 184.489412 
L 169.106871 185.200941 
L 170.461479 185.200941 
L 170.913016 184.489412 
L 171.364552 185.200941 
L 171.816088 183.066353 
L 172.267624 179.508706 
L 172.71916 170.970353 
L 173.622233 147.489882 
L 174.525305 139.663059 
L 174.976842 139.663059 
L 175.428378 138.951529 
L 175.879914 140.374588 
L 176.33145 143.220706 
L 176.782986 151.047529 
L 177.234523 149.624471 
L 177.686059 144.643765 
L 178.137595 146.066824 
L 178.589131 145.355294 
L 179.94374 141.086118 
L 180.395276 140.374588 
L 180.846812 145.355294 
L 181.298349 146.778353 
L 181.749885 148.912941 
L 182.201421 146.778353 
L 182.652957 148.201412 
L 183.104494 145.355294 
L 183.55603 146.778353 
L 184.007566 140.374588 
L 184.459102 138.951529 
L 189.877537 138.951529 
L 190.329073 139.663059 
L 190.780609 146.066824 
L 191.232146 141.797647 
L 192.135218 140.374588 
L 192.586754 141.797647 
L 193.038291 155.316706 
L 193.489827 164.566588 
L 193.941363 170.258824 
L 194.392899 165.989647 
L 194.844435 159.585882 
L 195.295972 158.874353 
L 195.747508 152.470588 
L 196.199044 155.316706 
L 196.65058 164.566588 
L 197.102117 151.759059 
L 197.553653 147.489882 
L 198.005189 144.643765 
L 198.456725 144.643765 
L 198.908261 148.201412 
L 199.359798 147.489882 
L 199.811334 145.355294 
L 200.26287 145.355294 
L 200.714406 148.912941 
L 201.165943 154.605176 
L 202.069015 161.720471 
L 202.520551 170.258824 
L 202.972087 170.258824 
L 203.423624 167.412706 
L 204.326696 164.566588 
L 204.778232 163.855059 
L 205.229769 160.297412 
L 205.681305 139.663059 
L 206.132841 138.951529 
L 206.584377 138.951529 
L 207.035914 140.374588 
L 207.48745 139.663059 
L 207.938986 142.509176 
L 208.390522 146.778353 
L 208.842058 155.316706 
L 209.293595 167.412706 
L 209.745131 170.970353 
L 210.196667 175.951059 
L 211.09974 174.528 
L 211.551276 175.239529 
L 212.002812 173.816471 
L 212.454348 175.239529 
L 212.905884 173.816471 
L 213.357421 169.547294 
L 214.260493 158.162824 
L 215.615102 146.066824 
L 216.066638 138.951529 
L 216.518174 138.951529 
L 216.96971 142.509176 
L 217.421247 151.759059 
L 217.872783 157.451294 
L 218.324319 158.162824 
L 219.227392 172.393412 
L 219.678928 170.258824 
L 220.130464 173.104941 
L 220.582 173.816471 
L 221.033536 170.258824 
L 221.485073 161.008941 
L 222.388145 148.912941 
L 222.839681 146.778353 
L 223.291218 141.797647 
L 223.742754 143.220706 
L 224.19429 146.778353 
L 224.645826 153.893647 
L 225.097362 156.028235 
L 225.548899 161.720471 
L 226.000435 170.258824 
L 226.451971 168.835765 
L 227.355044 180.220235 
L 227.80658 181.643294 
L 228.258116 181.643294 
L 228.709652 182.354824 
L 229.161189 185.200941 
L 229.612725 185.200941 
L 230.064261 184.489412 
L 230.515797 183.066353 
L 230.967333 180.220235 
L 231.870406 186.624 
L 232.321942 185.912471 
L 233.676551 177.374118 
L 234.128087 173.816471 
L 234.579623 165.989647 
L 235.031159 155.316706 
L 235.482696 151.759059 
L 235.934232 150.336 
L 236.385768 142.509176 
L 236.837304 140.374588 
L 237.288841 138.951529 
L 237.740377 144.643765 
L 238.643449 160.297412 
L 239.094985 163.143529 
L 240.449594 173.816471 
L 240.90113 175.239529 
L 241.352667 172.393412 
L 241.804203 173.104941 
L 242.255739 171.681882 
L 243.610348 149.624471 
L 244.061884 145.355294 
L 244.51342 139.663059 
L 244.964956 138.951529 
L 246.771101 138.951529 
L 247.222638 139.663059 
L 247.674174 139.663059 
L 248.12571 140.374588 
L 248.577246 155.316706 
L 249.028782 156.739765 
L 249.480319 165.989647 
L 249.931855 163.855059 
L 250.383391 166.701176 
L 250.834927 175.951059 
L 251.286464 180.931765 
L 251.738 172.393412 
L 252.189536 161.008941 
L 252.641072 164.566588 
L 253.092608 172.393412 
L 253.544145 170.258824 
L 253.995681 170.258824 
L 254.447217 167.412706 
L 255.35029 164.566588 
L 255.801826 163.855059 
L 256.253362 162.432 
L 256.704898 163.855059 
L 257.156434 161.720471 
L 258.059507 145.355294 
L 258.511043 147.489882 
L 258.962579 152.470588 
L 259.414116 146.066824 
L 259.865652 143.932235 
L 261.22026 168.124235 
L 261.671797 175.951059 
L 262.123333 180.931765 
L 262.574869 183.066353 
L 263.026405 180.220235 
L 263.929478 180.220235 
L 264.83255 181.643294 
L 265.284086 180.931765 
L 266.187159 180.931765 
L 266.638695 181.643294 
L 267.090231 183.066353 
L 267.541768 183.777882 
L 267.993304 185.200941 
L 268.44484 185.912471 
L 268.896376 185.912471 
L 269.799449 173.816471 
L 270.250985 166.701176 
L 270.702521 156.028235 
L 271.154057 150.336 
L 271.605594 149.624471 
L 272.05713 146.778353 
L 272.508666 148.201412 
L 272.960202 143.220706 
L 273.411739 148.201412 
L 273.863275 143.220706 
L 274.314811 148.201412 
L 274.766347 140.374588 
L 275.217883 138.951529 
L 277.475565 138.951529 
L 277.927101 140.374588 
L 278.378637 151.047529 
L 278.830173 157.451294 
L 279.281709 144.643765 
L 279.733246 141.086118 
L 280.184782 138.951529 
L 281.087854 140.374588 
L 281.990927 138.951529 
L 282.442463 138.951529 
L 282.893999 139.663059 
L 283.345535 141.086118 
L 283.797072 141.797647 
L 284.248608 139.663059 
L 284.700144 138.951529 
L 288.76397 138.951529 
L 289.215506 141.797647 
L 289.667043 156.028235 
L 290.118579 162.432 
L 290.570115 159.585882 
L 291.021651 159.585882 
L 291.473188 161.008941 
L 291.924724 161.008941 
L 292.37626 160.297412 
L 292.827796 161.720471 
L 293.279332 165.989647 
L 294.182405 171.681882 
L 294.633941 171.681882 
L 295.085477 174.528 
L 295.537014 163.855059 
L 295.98855 161.720471 
L 296.440086 143.932235 
L 296.891622 138.951529 
L 300.503912 138.951529 
L 300.955448 139.663059 
L 301.406984 138.951529 
L 305.019274 138.951529 
L 305.47081 142.509176 
L 305.922347 151.759059 
L 306.373883 157.451294 
L 306.825419 143.220706 
L 307.276955 140.374588 
L 307.728492 138.951529 
L 312.243854 138.951529 
L 312.69539 151.759059 
L 313.146926 148.201412 
L 313.598463 146.066824 
L 314.049999 143.220706 
L 314.501535 145.355294 
L 314.953071 146.778353 
L 315.404607 140.374588 
L 315.856144 138.951529 
L 319.016897 138.951529 
L 319.468433 142.509176 
L 320.371506 156.739765 
L 320.823042 143.932235 
L 321.274578 140.374588 
L 321.726115 138.951529 
L 324.886868 138.951529 
L 325.338404 139.663059 
L 325.789941 141.086118 
L 326.241477 140.374588 
L 326.693013 138.951529 
L 327.144549 140.374588 
L 327.596085 156.028235 
L 328.047622 165.989647 
L 328.499158 150.336 
L 328.950694 154.605176 
L 329.40223 157.451294 
L 329.853767 146.066824 
L 330.305303 140.374588 
L 330.756839 140.374588 
L 331.208375 143.220706 
L 331.659911 144.643765 
L 332.111448 145.355294 
L 333.01452 154.605176 
L 333.466056 157.451294 
L 333.917593 146.066824 
L 334.369129 145.355294 
L 334.820665 143.932235 
L 335.272201 139.663059 
L 336.175274 142.509176 
L 336.62681 159.585882 
L 337.981419 173.816471 
L 338.432955 156.739765 
L 338.884491 161.720471 
L 339.336027 163.855059 
L 339.787564 165.278118 
L 341.142172 143.220706 
L 341.593708 140.374588 
L 342.045245 138.951529 
L 342.496781 143.220706 
L 342.948317 141.086118 
L 343.399853 139.663059 
L 343.85139 138.951529 
L 348.818288 138.951529 
L 349.72136 151.759059 
L 350.624433 172.393412 
L 351.075969 175.951059 
L 351.527505 183.066353 
L 351.979042 181.643294 
L 352.430578 181.643294 
L 352.882114 182.354824 
L 353.33365 182.354824 
L 353.785186 178.085647 
L 355.139795 152.470588 
L 355.591331 150.336 
L 356.042868 152.470588 
L 356.94594 148.201412 
L 357.397476 150.336 
L 357.849013 150.336 
L 358.752085 148.912941 
L 359.203621 148.912941 
L 359.655157 146.778353 
L 360.106694 145.355294 
L 360.55823 139.663059 
L 361.009766 141.086118 
L 361.461302 141.086118 
L 361.912839 146.066824 
L 363.267447 152.470588 
L 363.718983 149.624471 
L 364.17052 147.489882 
L 364.622056 143.932235 
L 365.525128 141.086118 
L 365.976665 138.951529 
L 377.716606 138.951529 
L 378.168143 139.663059 
L 378.619679 141.086118 
L 379.071215 141.797647 
L 379.522751 143.932235 
L 379.974288 144.643765 
L 380.87736 147.489882 
L 381.328896 148.201412 
L 381.780432 145.355294 
L 382.683505 153.182118 
L 383.135041 154.605176 
L 383.586577 159.585882 
L 384.038114 162.432 
L 384.941186 168.835765 
L 385.392722 170.258824 
L 386.295795 170.258824 
L 386.747331 169.547294 
L 387.198867 170.258824 
L 387.650403 165.278118 
L 388.553476 146.778353 
L 389.005012 142.509176 
L 389.456548 139.663059 
L 389.908084 138.951529 
L 393.068838 138.951529 
L 394.874983 188.047059 
L 395.778055 190.893176 
L 396.681128 192.316235 
L 397.132664 192.316235 
L 397.5842 191.604706 
L 398.035737 188.758588 
L 398.487273 181.643294 
L 398.487273 181.643294 
" clip-path="url(#p5b6863f221)" style="fill: none; stroke: #1f77b4; stroke-width: 1.5; stroke-linecap: square"/>
   </g>
   <g id="patch_8">
    <path d="M 57.6 213.662118 
L 57.6 135.393882 
" style="fill: none; stroke: #000000; stroke-width: 0.8; stroke-linejoin: miter; stroke-linecap: square"/>
   </g>
   <g id="patch_9">
    <path d="M 414.72 213.662118 
L 414.72 135.393882 
" style="fill: none; stroke: #000000; stroke-width: 0.8; stroke-linejoin: miter; stroke-linecap: square"/>
   </g>
   <g id="patch_10">
    <path d="M 57.6 213.662118 
L 414.72 213.662118 
" style="fill: none; stroke: #000000; stroke-width: 0.8; stroke-linejoin: miter; stroke-linecap: square"/>
   </g>
   <g id="patch_11">
    <path d="M 57.6 135.393882 
L 414.72 135.393882 
" style="fill: none; stroke: #000000; stroke-width: 0.8; stroke-linejoin: miter; stroke-linecap: square"/>
   </g>
  </g>
  <g id="axes_3">
   <g id="patch_12">
    <path d="M 57.6 307.584 
L 414.72 307.584 
L 414.72 229.315765 
L 57.6 229.315765 
z
" style="fill: #ffffff"/>
   </g>
   <g id="matplotlib.axis_5">
    <g id="xtick_15">
     <g id="line2d_22">
      <g>
       <use xlink:href="#m0b0c71ff28" x="73.832727" y="307.584" style="stroke: #000000; stroke-width: 0.8"/>
      </g>
     </g>
     <g id="text_20">
      <!-- 0 -->
      <g transform="translate(70.651477 322.182437) scale(0.1 -0.1)">
       <use xlink:href="#DejaVuSans-30"/>
      </g>
     </g>
    </g>
    <g id="xtick_16">
     <g id="line2d_23">
      <g>
       <use xlink:href="#m0b0c71ff28" x="128.017074" y="307.584" style="stroke: #000000; stroke-width: 0.8"/>
      </g>
     </g>
     <g id="text_21">
      <!-- 5 -->
      <g transform="translate(124.835824 322.182437) scale(0.1 -0.1)">
       <use xlink:href="#DejaVuSans-35"/>
      </g>
     </g>
    </g>
    <g id="xtick_17">
     <g id="line2d_24">
      <g>
       <use xlink:href="#m0b0c71ff28" x="182.201421" y="307.584" style="stroke: #000000; stroke-width: 0.8"/>
      </g>
     </g>
     <g id="text_22">
      <!-- 10 -->
      <g transform="translate(175.838921 322.182437) scale(0.1 -0.1)">
       <use xlink:href="#DejaVuSans-31"/>
       <use xlink:href="#DejaVuSans-30" x="63.623047"/>
      </g>
     </g>
    </g>
    <g id="xtick_18">
     <g id="line2d_25">
      <g>
       <use xlink:href="#m0b0c71ff28" x="236.385768" y="307.584" style="stroke: #000000; stroke-width: 0.8"/>
      </g>
     </g>
     <g id="text_23">
      <!-- 15 -->
      <g transform="translate(230.023268 322.182437) scale(0.1 -0.1)">
       <use xlink:href="#DejaVuSans-31"/>
       <use xlink:href="#DejaVuSans-35" x="63.623047"/>
      </g>
     </g>
    </g>
    <g id="xtick_19">
     <g id="line2d_26">
      <g>
       <use xlink:href="#m0b0c71ff28" x="290.570115" y="307.584" style="stroke: #000000; stroke-width: 0.8"/>
      </g>
     </g>
     <g id="text_24">
      <!-- 20 -->
      <g transform="translate(284.207615 322.182437) scale(0.1 -0.1)">
       <use xlink:href="#DejaVuSans-32"/>
       <use xlink:href="#DejaVuSans-30" x="63.623047"/>
      </g>
     </g>
    </g>
    <g id="xtick_20">
     <g id="line2d_27">
      <g>
       <use xlink:href="#m0b0c71ff28" x="344.754462" y="307.584" style="stroke: #000000; stroke-width: 0.8"/>
      </g>
     </g>
     <g id="text_25">
      <!-- 25 -->
      <g transform="translate(338.391962 322.182437) scale(0.1 -0.1)">
       <use xlink:href="#DejaVuSans-32"/>
       <use xlink:href="#DejaVuSans-35" x="63.623047"/>
      </g>
     </g>
    </g>
    <g id="xtick_21">
     <g id="line2d_28">
      <g>
       <use xlink:href="#m0b0c71ff28" x="398.938809" y="307.584" style="stroke: #000000; stroke-width: 0.8"/>
      </g>
     </g>
     <g id="text_26">
      <!-- 30 -->
      <g transform="translate(392.576309 322.182437) scale(0.1 -0.1)">
       <use xlink:href="#DejaVuSans-33"/>
       <use xlink:href="#DejaVuSans-30" x="63.623047"/>
      </g>
     </g>
    </g>
   </g>
   <g id="matplotlib.axis_6">
    <g id="ytick_6">
     <g id="line2d_29">
      <g>
       <use xlink:href="#m68cad56344" x="57.6" y="304.026353" style="stroke: #000000; stroke-width: 0.8"/>
      </g>
     </g>
     <g id="text_27">
      <!-- 0 -->
      <g transform="translate(44.2375 307.825572) scale(0.1 -0.1)">
       <use xlink:href="#DejaVuSans-30"/>
      </g>
     </g>
    </g>
    <g id="ytick_7">
     <g id="line2d_30">
      <g>
       <use xlink:href="#m68cad56344" x="57.6" y="259.555765" style="stroke: #000000; stroke-width: 0.8"/>
      </g>
     </g>
     <g id="text_28">
      <!-- 5 -->
      <g transform="translate(44.2375 263.354983) scale(0.1 -0.1)">
       <use xlink:href="#DejaVuSans-35"/>
      </g>
     </g>
    </g>
   </g>
   <g id="line2d_31">
    <path d="M 73.832727 304.026353 
L 114.470987 304.026353 
L 114.922524 232.873412 
L 115.37406 250.661647 
L 115.825596 295.132235 
L 116.277132 304.026353 
L 116.728669 304.026353 
L 117.180205 295.132235 
L 117.631741 304.026353 
L 184.007566 304.026353 
L 184.459102 295.132235 
L 184.910639 304.026353 
L 207.035914 304.026353 
L 207.48745 295.132235 
L 207.938986 304.026353 
L 274.766347 304.026353 
L 275.217883 295.132235 
L 275.66942 304.026353 
L 315.404607 304.026353 
L 315.856144 295.132235 
L 316.30768 304.026353 
L 398.487273 304.026353 
L 398.487273 304.026353 
" clip-path="url(#pb7a9b61321)" style="fill: none; stroke: #1f77b4; stroke-width: 1.5; stroke-linecap: square"/>
   </g>
   <g id="patch_13">
    <path d="M 57.6 307.584 
L 57.6 229.315765 
" style="fill: none; stroke: #000000; stroke-width: 0.8; stroke-linejoin: miter; stroke-linecap: square"/>
   </g>
   <g id="patch_14">
    <path d="M 414.72 307.584 
L 414.72 229.315765 
" style="fill: none; stroke: #000000; stroke-width: 0.8; stroke-linejoin: miter; stroke-linecap: square"/>
   </g>
   <g id="patch_15">
    <path d="M 57.6 307.584 
L 414.72 307.584 
" style="fill: none; stroke: #000000; stroke-width: 0.8; stroke-linejoin: miter; stroke-linecap: square"/>
   </g>
   <g id="patch_16">
    <path d="M 57.6 229.315765 
L 414.72 229.315765 
" style="fill: none; stroke: #000000; stroke-width: 0.8; stroke-linejoin: miter; stroke-linecap: square"/>
   </g>
  </g>
  <g id="text_29">
   <!-- cleaned_weather_spring -->
   <g transform="translate(157.493438 16.030125) scale(0.12 -0.12)">
    <defs>
     <path id="DejaVuSans-63" d="M 3122 3366 
L 3122 2828 
Q 2878 2963 2633 3030 
Q 2388 3097 2138 3097 
Q 1578 3097 1268 2742 
Q 959 2388 959 1747 
Q 959 1106 1268 751 
Q 1578 397 2138 397 
Q 2388 397 2633 464 
Q 2878 531 3122 666 
L 3122 134 
Q 2881 22 2623 -34 
Q 2366 -91 2075 -91 
Q 1284 -91 818 406 
Q 353 903 353 1747 
Q 353 2603 823 3093 
Q 1294 3584 2113 3584 
Q 2378 3584 2631 3529 
Q 2884 3475 3122 3366 
z
" transform="scale(0.015625)"/>
     <path id="DejaVuSans-6c" d="M 603 4863 
L 1178 4863 
L 1178 0 
L 603 0 
L 603 4863 
z
" transform="scale(0.015625)"/>
     <path id="DejaVuSans-65" d="M 3597 1894 
L 3597 1613 
L 953 1613 
Q 991 1019 1311 708 
Q 1631 397 2203 397 
Q 2534 397 2845 478 
Q 3156 559 3463 722 
L 3463 178 
Q 3153 47 2828 -22 
Q 2503 -91 2169 -91 
Q 1331 -91 842 396 
Q 353 884 353 1716 
Q 353 2575 817 3079 
Q 1281 3584 2069 3584 
Q 2775 3584 3186 3129 
Q 3597 2675 3597 1894 
z
M 3022 2063 
Q 3016 2534 2758 2815 
Q 2500 3097 2075 3097 
Q 1594 3097 1305 2825 
Q 1016 2553 972 2059 
L 3022 2063 
z
" transform="scale(0.015625)"/>
     <path id="DejaVuSans-61" d="M 2194 1759 
Q 1497 1759 1228 1600 
Q 959 1441 959 1056 
Q 959 750 1161 570 
Q 1363 391 1709 391 
Q 2188 391 2477 730 
Q 2766 1069 2766 1631 
L 2766 1759 
L 2194 1759 
z
M 3341 1997 
L 3341 0 
L 2766 0 
L 2766 531 
Q 2569 213 2275 61 
Q 1981 -91 1556 -91 
Q 1019 -91 701 211 
Q 384 513 384 1019 
Q 384 1609 779 1909 
Q 1175 2209 1959 2209 
L 2766 2209 
L 2766 2266 
Q 2766 2663 2505 2880 
Q 2244 3097 1772 3097 
Q 1472 3097 1187 3025 
Q 903 2953 641 2809 
L 641 3341 
Q 956 3463 1253 3523 
Q 1550 3584 1831 3584 
Q 2591 3584 2966 3190 
Q 3341 2797 3341 1997 
z
" transform="scale(0.015625)"/>
     <path id="DejaVuSans-6e" d="M 3513 2113 
L 3513 0 
L 2938 0 
L 2938 2094 
Q 2938 2591 2744 2837 
Q 2550 3084 2163 3084 
Q 1697 3084 1428 2787 
Q 1159 2491 1159 1978 
L 1159 0 
L 581 0 
L 581 3500 
L 1159 3500 
L 1159 2956 
Q 1366 3272 1645 3428 
Q 1925 3584 2291 3584 
Q 2894 3584 3203 3211 
Q 3513 2838 3513 2113 
z
" transform="scale(0.015625)"/>
     <path id="DejaVuSans-64" d="M 2906 2969 
L 2906 4863 
L 3481 4863 
L 3481 0 
L 2906 0 
L 2906 525 
Q 2725 213 2448 61 
Q 2172 -91 1784 -91 
Q 1150 -91 751 415 
Q 353 922 353 1747 
Q 353 2572 751 3078 
Q 1150 3584 1784 3584 
Q 2172 3584 2448 3432 
Q 2725 3281 2906 2969 
z
M 947 1747 
Q 947 1113 1208 752 
Q 1469 391 1925 391 
Q 2381 391 2643 752 
Q 2906 1113 2906 1747 
Q 2906 2381 2643 2742 
Q 2381 3103 1925 3103 
Q 1469 3103 1208 2742 
Q 947 2381 947 1747 
z
" transform="scale(0.015625)"/>
     <path id="DejaVuSans-5f" d="M 3263 -1063 
L 3263 -1509 
L -63 -1509 
L -63 -1063 
L 3263 -1063 
z
" transform="scale(0.015625)"/>
     <path id="DejaVuSans-77" d="M 269 3500 
L 844 3500 
L 1563 769 
L 2278 3500 
L 2956 3500 
L 3675 769 
L 4391 3500 
L 4966 3500 
L 4050 0 
L 3372 0 
L 2619 2869 
L 1863 0 
L 1184 0 
L 269 3500 
z
" transform="scale(0.015625)"/>
     <path id="DejaVuSans-74" d="M 1172 4494 
L 1172 3500 
L 2356 3500 
L 2356 3053 
L 1172 3053 
L 1172 1153 
Q 1172 725 1289 603 
Q 1406 481 1766 481 
L 2356 481 
L 2356 0 
L 1766 0 
Q 1100 0 847 248 
Q 594 497 594 1153 
L 594 3053 
L 172 3053 
L 172 3500 
L 594 3500 
L 594 4494 
L 1172 4494 
z
" transform="scale(0.015625)"/>
     <path id="DejaVuSans-68" d="M 3513 2113 
L 3513 0 
L 2938 0 
L 2938 2094 
Q 2938 2591 2744 2837 
Q 2550 3084 2163 3084 
Q 1697 3084 1428 2787 
Q 1159 2491 1159 1978 
L 1159 0 
L 581 0 
L 581 4863 
L 1159 4863 
L 1159 2956 
Q 1366 3272 1645 3428 
Q 1925 3584 2291 3584 
Q 2894 3584 3203 3211 
Q 3513 2838 3513 2113 
z
" transform="scale(0.015625)"/>
     <path id="DejaVuSans-72" d="M 2631 2963 
Q 2534 3019 2420 3045 
Q 2306 3072 2169 3072 
Q 1681 3072 1420 2755 
Q 1159 2438 1159 1844 
L 1159 0 
L 581 0 
L 581 3500 
L 1159 3500 
L 1159 2956 
Q 1341 3275 1631 3429 
Q 1922 3584 2338 3584 
Q 2397 3584 2469 3576 
Q 2541 3569 2628 3553 
L 2631 2963 
z
" transform="scale(0.015625)"/>
     <path id="DejaVuSans-73" d="M 2834 3397 
L 2834 2853 
Q 2591 2978 2328 3040 
Q 2066 3103 1784 3103 
Q 1356 3103 1142 2972 
Q 928 2841 928 2578 
Q 928 2378 1081 2264 
Q 1234 2150 1697 2047 
L 1894 2003 
Q 2506 1872 2764 1633 
Q 3022 1394 3022 966 
Q 3022 478 2636 193 
Q 2250 -91 1575 -91 
Q 1294 -91 989 -36 
Q 684 19 347 128 
L 347 722 
Q 666 556 975 473 
Q 1284 391 1588 391 
Q 1994 391 2212 530 
Q 2431 669 2431 922 
Q 2431 1156 2273 1281 
Q 2116 1406 1581 1522 
L 1381 1569 
Q 847 1681 609 1914 
Q 372 2147 372 2553 
Q 372 3047 722 3315 
Q 1072 3584 1716 3584 
Q 2034 3584 2315 3537 
Q 2597 3491 2834 3397 
z
" transform="scale(0.015625)"/>
     <path id="DejaVuSans-70" d="M 1159 525 
L 1159 -1331 
L 581 -1331 
L 581 3500 
L 1159 3500 
L 1159 2969 
Q 1341 3281 1617 3432 
Q 1894 3584 2278 3584 
Q 2916 3584 3314 3078 
Q 3713 2572 3713 1747 
Q 3713 922 3314 415 
Q 2916 -91 2278 -91 
Q 1894 -91 1617 61 
Q 1341 213 1159 525 
z
M 3116 1747 
Q 3116 2381 2855 2742 
Q 2594 3103 2138 3103 
Q 1681 3103 1420 2742 
Q 1159 2381 1159 1747 
Q 1159 1113 1420 752 
Q 1681 391 2138 391 
Q 2594 391 2855 752 
Q 3116 1113 3116 1747 
z
" transform="scale(0.015625)"/>
     <path id="DejaVuSans-69" d="M 603 3500 
L 1178 3500 
L 1178 0 
L 603 0 
L 603 3500 
z
M 603 4863 
L 1178 4863 
L 1178 4134 
L 603 4134 
L 603 4863 
z
" transform="scale(0.015625)"/>
     <path id="DejaVuSans-67" d="M 2906 1791 
Q 2906 2416 2648 2759 
Q 2391 3103 1925 3103 
Q 1463 3103 1205 2759 
Q 947 2416 947 1791 
Q 947 1169 1205 825 
Q 1463 481 1925 481 
Q 2391 481 2648 825 
Q 2906 1169 2906 1791 
z
M 3481 434 
Q 3481 -459 3084 -895 
Q 2688 -1331 1869 -1331 
Q 1566 -1331 1297 -1286 
Q 1028 -1241 775 -1147 
L 775 -588 
Q 1028 -725 1275 -790 
Q 1522 -856 1778 -856 
Q 2344 -856 2625 -561 
Q 2906 -266 2906 331 
L 2906 616 
Q 2728 306 2450 153 
Q 2172 0 1784 0 
Q 1141 0 747 490 
Q 353 981 353 1791 
Q 353 2603 747 3093 
Q 1141 3584 1784 3584 
Q 2172 3584 2450 3431 
Q 2728 3278 2906 2969 
L 2906 3500 
L 3481 3500 
L 3481 434 
z
" transform="scale(0.015625)"/>
    </defs>
    <use xlink:href="#DejaVuSans-63"/>
    <use xlink:href="#DejaVuSans-6c" x="54.980469"/>
    <use xlink:href="#DejaVuSans-65" x="82.763672"/>
    <use xlink:href="#DejaVuSans-61" x="144.287109"/>
    <use xlink:href="#DejaVuSans-6e" x="205.566406"/>
    <use xlink:href="#DejaVuSans-65" x="268.945312"/>
    <use xlink:href="#DejaVuSans-64" x="330.46875"/>
    <use xlink:href="#DejaVuSans-5f" x="393.945312"/>
    <use xlink:href="#DejaVuSans-77" x="443.945312"/>
    <use xlink:href="#DejaVuSans-65" x="525.732422"/>
    <use xlink:href="#DejaVuSans-61" x="587.255859"/>
    <use xlink:href="#DejaVuSans-74" x="648.535156"/>
    <use xlink:href="#DejaVuSans-68" x="687.744141"/>
    <use xlink:href="#DejaVuSans-65" x="751.123047"/>
    <use xlink:href="#DejaVuSans-72" x="812.646484"/>
    <use xlink:href="#DejaVuSans-5f" x="853.759766"/>
    <use xlink:href="#DejaVuSans-73" x="903.759766"/>
    <use xlink:href="#DejaVuSans-70" x="955.859375"/>
    <use xlink:href="#DejaVuSans-72" x="1019.335938"/>
    <use xlink:href="#DejaVuSans-69" x="1060.449219"/>
    <use xlink:href="#DejaVuSans-6e" x="1088.232422"/>
    <use xlink:href="#DejaVuSans-67" x="1151.611328"/>
   </g>
  </g>
 </g>
 <defs>
  <clipPath id="p8e83f16400">
   <rect x="57.6" y="41.472" width="357.12" height="78.268235"/>
  </clipPath>
  <clipPath id="p5b6863f221">
   <rect x="57.6" y="135.393882" width="357.12" height="78.268235"/>
  </clipPath>
  <clipPath id="pb7a9b61321">
   <rect x="57.6" y="229.315765" width="357.12" height="78.268235"/>
  </clipPath>
 </defs>
</svg>
