<?xml version="1.0" encoding="utf-8" standalone="no"?>
<!DOCTYPE svg PUBLIC "-//W3C//DTD SVG 1.1//EN"
  "http://www.w3.org/Graphics/SVG/1.1/DTD/svg11.dtd">
<svg xmlns:xlink="http://www.w3.org/1999/xlink" width="460.8pt" height="345.6pt" viewBox="0 0 460.8 345.6" xmlns="http://www.w3.org/2000/svg" version="1.1">
 <metadata>
  <rdf:RDF xmlns:dc="http://purl.org/dc/elements/1.1/" xmlns:cc="http://creativecommons.org/ns#" xmlns:rdf="http://www.w3.org/1999/02/22-rdf-syntax-ns#">
   <cc:Work>
    <dc:type rdf:resource="http://purl.org/dc/dcmitype/StillImage"/>
    <dc:date>2023-04-08T20:04:26.103962</dc:date>
    <dc:format>image/svg+xml</dc:format>
    <dc:creator>
     <cc:Agent>
      <dc:title>Matplotlib v3.7.1, https://matplotlib.org/</dc:title>
     </cc:Agent>
    </dc:creator>
   </cc:Work>
  </rdf:RDF>
 </metadata>
 <defs>
  <style type="text/css">*{stroke-linejoin: round; stroke-linecap: butt}</style>
 </defs>
 <g id="figure_1">
  <g id="patch_1">
   <path d="M 0 345.6 
L 460.8 345.6 
L 460.8 0 
L 0 0 
z
" style="fill: #ffffff"/>
  </g>
  <g id="axes_1">
   <g id="patch_2">
    <path d="M 57.6 119.740235 
L 414.72 119.740235 
L 414.72 41.472 
L 57.6 41.472 
z
" style="fill: #ffffff"/>
   </g>
   <g id="matplotlib.axis_1">
    <g id="xtick_1">
     <g id="line2d_1">
      <defs>
       <path id="m67fadb1387" d="M 0 0 
L 0 3.5 
" style="stroke: #000000; stroke-width: 0.8"/>
      </defs>
      <g>
       <use xlink:href="#m67fadb1387" x="73.832727" y="119.740235" style="stroke: #000000; stroke-width: 0.8"/>
      </g>
     </g>
     <g id="text_1">
      <!-- 0 -->
      <g transform="translate(70.651477 134.338673) scale(0.1 -0.1)">
       <defs>
        <path id="DejaVuSans-30" d="M 2034 4250 
Q 1547 4250 1301 3770 
Q 1056 3291 1056 2328 
Q 1056 1369 1301 889 
Q 1547 409 2034 409 
Q 2525 409 2770 889 
Q 3016 1369 3016 2328 
Q 3016 3291 2770 3770 
Q 2525 4250 2034 4250 
z
M 2034 4750 
Q 2819 4750 3233 4129 
Q 3647 3509 3647 2328 
Q 3647 1150 3233 529 
Q 2819 -91 2034 -91 
Q 1250 -91 836 529 
Q 422 1150 422 2328 
Q 422 3509 836 4129 
Q 1250 4750 2034 4750 
z
" transform="scale(0.015625)"/>
       </defs>
       <use xlink:href="#DejaVuSans-30"/>
      </g>
     </g>
    </g>
    <g id="xtick_2">
     <g id="line2d_2">
      <g>
       <use xlink:href="#m67fadb1387" x="128.017074" y="119.740235" style="stroke: #000000; stroke-width: 0.8"/>
      </g>
     </g>
     <g id="text_2">
      <!-- 5 -->
      <g transform="translate(124.835824 134.338673) scale(0.1 -0.1)">
       <defs>
        <path id="DejaVuSans-35" d="M 691 4666 
L 3169 4666 
L 3169 4134 
L 1269 4134 
L 1269 2991 
Q 1406 3038 1543 3061 
Q 1681 3084 1819 3084 
Q 2600 3084 3056 2656 
Q 3513 2228 3513 1497 
Q 3513 744 3044 326 
Q 2575 -91 1722 -91 
Q 1428 -91 1123 -41 
Q 819 9 494 109 
L 494 744 
Q 775 591 1075 516 
Q 1375 441 1709 441 
Q 2250 441 2565 725 
Q 2881 1009 2881 1497 
Q 2881 1984 2565 2268 
Q 2250 2553 1709 2553 
Q 1456 2553 1204 2497 
Q 953 2441 691 2322 
L 691 4666 
z
" transform="scale(0.015625)"/>
       </defs>
       <use xlink:href="#DejaVuSans-35"/>
      </g>
     </g>
    </g>
    <g id="xtick_3">
     <g id="line2d_3">
      <g>
       <use xlink:href="#m67fadb1387" x="182.201421" y="119.740235" style="stroke: #000000; stroke-width: 0.8"/>
      </g>
     </g>
     <g id="text_3">
      <!-- 10 -->
      <g transform="translate(175.838921 134.338673) scale(0.1 -0.1)">
       <defs>
        <path id="DejaVuSans-31" d="M 794 531 
L 1825 531 
L 1825 4091 
L 703 3866 
L 703 4441 
L 1819 4666 
L 2450 4666 
L 2450 531 
L 3481 531 
L 3481 0 
L 794 0 
L 794 531 
z
" transform="scale(0.015625)"/>
       </defs>
       <use xlink:href="#DejaVuSans-31"/>
       <use xlink:href="#DejaVuSans-30" x="63.623047"/>
      </g>
     </g>
    </g>
    <g id="xtick_4">
     <g id="line2d_4">
      <g>
       <use xlink:href="#m67fadb1387" x="236.385768" y="119.740235" style="stroke: #000000; stroke-width: 0.8"/>
      </g>
     </g>
     <g id="text_4">
      <!-- 15 -->
      <g transform="translate(230.023268 134.338673) scale(0.1 -0.1)">
       <use xlink:href="#DejaVuSans-31"/>
       <use xlink:href="#DejaVuSans-35" x="63.623047"/>
      </g>
     </g>
    </g>
    <g id="xtick_5">
     <g id="line2d_5">
      <g>
       <use xlink:href="#m67fadb1387" x="290.570115" y="119.740235" style="stroke: #000000; stroke-width: 0.8"/>
      </g>
     </g>
     <g id="text_5">
      <!-- 20 -->
      <g transform="translate(284.207615 134.338673) scale(0.1 -0.1)">
       <defs>
        <path id="DejaVuSans-32" d="M 1228 531 
L 3431 531 
L 3431 0 
L 469 0 
L 469 531 
Q 828 903 1448 1529 
Q 2069 2156 2228 2338 
Q 2531 2678 2651 2914 
Q 2772 3150 2772 3378 
Q 2772 3750 2511 3984 
Q 2250 4219 1831 4219 
Q 1534 4219 1204 4116 
Q 875 4013 500 3803 
L 500 4441 
Q 881 4594 1212 4672 
Q 1544 4750 1819 4750 
Q 2544 4750 2975 4387 
Q 3406 4025 3406 3419 
Q 3406 3131 3298 2873 
Q 3191 2616 2906 2266 
Q 2828 2175 2409 1742 
Q 1991 1309 1228 531 
z
" transform="scale(0.015625)"/>
       </defs>
       <use xlink:href="#DejaVuSans-32"/>
       <use xlink:href="#DejaVuSans-30" x="63.623047"/>
      </g>
     </g>
    </g>
    <g id="xtick_6">
     <g id="line2d_6">
      <g>
       <use xlink:href="#m67fadb1387" x="344.754462" y="119.740235" style="stroke: #000000; stroke-width: 0.8"/>
      </g>
     </g>
     <g id="text_6">
      <!-- 25 -->
      <g transform="translate(338.391962 134.338673) scale(0.1 -0.1)">
       <use xlink:href="#DejaVuSans-32"/>
       <use xlink:href="#DejaVuSans-35" x="63.623047"/>
      </g>
     </g>
    </g>
    <g id="xtick_7">
     <g id="line2d_7">
      <g>
       <use xlink:href="#m67fadb1387" x="398.938809" y="119.740235" style="stroke: #000000; stroke-width: 0.8"/>
      </g>
     </g>
     <g id="text_7">
      <!-- 30 -->
      <g transform="translate(392.576309 134.338673) scale(0.1 -0.1)">
       <defs>
        <path id="DejaVuSans-33" d="M 2597 2516 
Q 3050 2419 3304 2112 
Q 3559 1806 3559 1356 
Q 3559 666 3084 287 
Q 2609 -91 1734 -91 
Q 1441 -91 1130 -33 
Q 819 25 488 141 
L 488 750 
Q 750 597 1062 519 
Q 1375 441 1716 441 
Q 2309 441 2620 675 
Q 2931 909 2931 1356 
Q 2931 1769 2642 2001 
Q 2353 2234 1838 2234 
L 1294 2234 
L 1294 2753 
L 1863 2753 
Q 2328 2753 2575 2939 
Q 2822 3125 2822 3475 
Q 2822 3834 2567 4026 
Q 2313 4219 1838 4219 
Q 1578 4219 1281 4162 
Q 984 4106 628 3988 
L 628 4550 
Q 988 4650 1302 4700 
Q 1616 4750 1894 4750 
Q 2613 4750 3031 4423 
Q 3450 4097 3450 3541 
Q 3450 3153 3228 2886 
Q 3006 2619 2597 2516 
z
" transform="scale(0.015625)"/>
       </defs>
       <use xlink:href="#DejaVuSans-33"/>
       <use xlink:href="#DejaVuSans-30" x="63.623047"/>
      </g>
     </g>
    </g>
   </g>
   <g id="matplotlib.axis_2">
    <g id="ytick_1">
     <g id="line2d_8">
      <defs>
       <path id="m28b80ae67d" d="M 0 0 
L -3.5 0 
" style="stroke: #000000; stroke-width: 0.8"/>
      </defs>
      <g>
       <use xlink:href="#m28b80ae67d" x="57.6" y="116.182588" style="stroke: #000000; stroke-width: 0.8"/>
      </g>
     </g>
     <g id="text_8">
      <!-- 0 -->
      <g transform="translate(44.2375 119.981807) scale(0.1 -0.1)">
       <use xlink:href="#DejaVuSans-30"/>
      </g>
     </g>
    </g>
    <g id="ytick_2">
     <g id="line2d_9">
      <g>
       <use xlink:href="#m28b80ae67d" x="57.6" y="74.327917" style="stroke: #000000; stroke-width: 0.8"/>
      </g>
     </g>
     <g id="text_9">
      <!-- 20 -->
      <g transform="translate(37.875 78.127136) scale(0.1 -0.1)">
       <use xlink:href="#DejaVuSans-32"/>
       <use xlink:href="#DejaVuSans-30" x="63.623047"/>
      </g>
     </g>
    </g>
   </g>
   <g id="line2d_10">
    <path d="M 73.832727 93.162519 
L 74.7358 93.162519 
L 75.187336 95.255253 
L 75.638872 99.44072 
L 77.445017 99.44072 
L 77.896553 101.533453 
L 78.34809 99.44072 
L 78.799626 101.533453 
L 79.251162 101.533453 
L 79.702698 99.44072 
L 80.605771 103.626187 
L 81.057307 95.255253 
L 81.508843 88.977052 
L 81.960379 91.069785 
L 82.411916 97.347986 
L 82.863452 99.44072 
L 83.314988 99.44072 
L 84.21806 80.606118 
L 85.121133 72.235183 
L 86.024205 68.049716 
L 87.378814 74.327917 
L 87.83035 78.513384 
L 88.281886 78.513384 
L 88.733423 86.884318 
L 89.184959 91.069785 
L 89.636495 93.162519 
L 90.539568 93.162519 
L 90.991104 95.255253 
L 91.44264 99.44072 
L 91.894176 101.533453 
L 92.345712 101.533453 
L 92.797249 99.44072 
L 93.248785 99.44072 
L 93.700321 97.347986 
L 94.151857 86.884318 
L 95.506466 68.049716 
L 95.958002 65.956983 
L 96.409539 65.956983 
L 96.861075 63.864249 
L 97.312611 68.049716 
L 98.215683 68.049716 
L 98.66722 65.956983 
L 100.021828 72.235183 
L 100.473365 72.235183 
L 100.924901 74.327917 
L 101.376437 78.513384 
L 101.827973 80.606118 
L 102.731046 80.606118 
L 103.182582 82.698851 
L 103.634118 82.698851 
L 104.085654 116.182588 
L 104.988727 116.182588 
L 105.440263 93.162519 
L 105.891799 84.791585 
L 106.343335 80.606118 
L 106.794872 78.513384 
L 107.697944 70.14245 
L 109.052553 63.864249 
L 109.504089 63.864249 
L 109.955625 70.14245 
L 110.407161 74.327917 
L 111.76177 74.327917 
L 112.664843 78.513384 
L 113.116379 84.791585 
L 114.019451 80.606118 
L 114.470987 80.606118 
L 114.922524 78.513384 
L 115.37406 82.698851 
L 116.728669 88.977052 
L 117.180205 93.162519 
L 118.534814 93.162519 
L 120.340958 101.533453 
L 120.792495 101.533453 
L 121.244031 103.626187 
L 121.695567 101.533453 
L 122.59864 82.698851 
L 123.050176 82.698851 
L 123.501712 86.884318 
L 123.953248 88.977052 
L 125.307857 88.977052 
L 125.759393 86.884318 
L 126.210929 86.884318 
L 126.662466 88.977052 
L 127.114002 88.977052 
L 127.565538 82.698851 
L 128.46861 63.864249 
L 128.920147 59.678782 
L 129.823219 68.049716 
L 130.274755 65.956983 
L 130.726292 61.771516 
L 131.629364 57.586048 
L 132.532436 65.956983 
L 132.983973 63.864249 
L 133.435509 68.049716 
L 133.887045 70.14245 
L 134.338581 74.327917 
L 134.790118 70.14245 
L 135.241654 68.049716 
L 135.69319 68.049716 
L 136.144726 70.14245 
L 136.596262 70.14245 
L 137.047799 72.235183 
L 137.499335 70.14245 
L 137.950871 72.235183 
L 138.402407 78.513384 
L 138.853944 82.698851 
L 139.30548 80.606118 
L 139.757016 80.606118 
L 140.208552 82.698851 
L 140.660089 78.513384 
L 141.563161 86.884318 
L 142.466233 86.884318 
L 142.91777 82.698851 
L 143.369306 72.235183 
L 144.272378 63.864249 
L 144.723915 61.771516 
L 145.175451 57.586048 
L 145.626987 55.493315 
L 146.530059 55.493315 
L 146.981596 53.400581 
L 147.433132 53.400581 
L 147.884668 51.307848 
L 148.336204 63.864249 
L 148.787741 63.864249 
L 149.239277 61.771516 
L 150.142349 70.14245 
L 151.045422 74.327917 
L 151.948494 74.327917 
L 152.40003 78.513384 
L 154.657711 78.513384 
L 155.109248 76.420651 
L 156.01232 76.420651 
L 156.915393 80.606118 
L 157.818465 76.420651 
L 158.721537 80.606118 
L 159.173074 78.513384 
L 160.076146 70.14245 
L 160.527682 68.049716 
L 160.979219 68.049716 
L 161.882291 63.864249 
L 162.785364 76.420651 
L 163.2369 80.606118 
L 164.139972 76.420651 
L 165.043045 80.606118 
L 165.494581 78.513384 
L 166.397653 70.14245 
L 166.84919 68.049716 
L 168.655334 68.049716 
L 169.558407 63.864249 
L 170.009943 68.049716 
L 170.461479 70.14245 
L 170.913016 74.327917 
L 171.364552 80.606118 
L 171.816088 82.698851 
L 172.267624 86.884318 
L 172.71916 88.977052 
L 173.170697 88.977052 
L 174.073769 93.162519 
L 174.525305 93.162519 
L 175.879914 99.44072 
L 176.33145 99.44072 
L 177.234523 95.255253 
L 177.686059 91.069785 
L 178.137595 88.977052 
L 178.589131 84.791585 
L 179.040668 88.977052 
L 179.492204 91.069785 
L 180.395276 103.626187 
L 180.846812 103.626187 
L 181.749885 107.811654 
L 182.201421 103.626187 
L 182.652957 101.533453 
L 183.55603 82.698851 
L 184.007566 82.698851 
L 184.459102 86.884318 
L 184.910639 88.977052 
L 186.716783 88.977052 
L 187.619856 80.606118 
L 188.071392 78.513384 
L 188.522928 74.327917 
L 189.426001 74.327917 
L 189.877537 70.14245 
L 190.329073 68.049716 
L 191.232146 68.049716 
L 192.135218 76.420651 
L 192.586754 82.698851 
L 193.941363 88.977052 
L 194.392899 93.162519 
L 194.844435 88.977052 
L 195.747508 84.791585 
L 196.199044 91.069785 
L 196.65058 91.069785 
L 197.102117 88.977052 
L 197.553653 88.977052 
L 198.005189 91.069785 
L 198.456725 91.069785 
L 198.908261 88.977052 
L 199.359798 91.069785 
L 199.811334 88.977052 
L 200.714406 88.977052 
L 201.165943 86.884318 
L 201.617479 88.977052 
L 202.972087 88.977052 
L 203.423624 86.884318 
L 203.87516 86.884318 
L 204.326696 88.977052 
L 206.584377 88.977052 
L 207.48745 84.791585 
L 207.938986 80.606118 
L 208.390522 78.513384 
L 209.293595 70.14245 
L 209.745131 70.14245 
L 210.196667 65.956983 
L 210.648203 65.956983 
L 211.09974 63.864249 
L 211.551276 68.049716 
L 213.808957 68.049716 
L 214.260493 72.235183 
L 214.712029 78.513384 
L 215.163566 86.884318 
L 216.066638 95.255253 
L 216.518174 95.255253 
L 217.421247 99.44072 
L 217.872783 99.44072 
L 218.324319 101.533453 
L 218.775855 105.71892 
L 219.227392 107.811654 
L 219.678928 107.811654 
L 220.130464 103.626187 
L 220.582 91.069785 
L 221.033536 82.698851 
L 221.485073 78.513384 
L 221.936609 72.235183 
L 222.388145 70.14245 
L 223.291218 70.14245 
L 223.742754 68.049716 
L 226.903507 68.049716 
L 227.80658 72.235183 
L 228.709652 91.069785 
L 229.161189 95.255253 
L 229.612725 116.182588 
L 230.064261 55.493315 
L 230.967333 55.493315 
L 231.41887 63.864249 
L 231.870406 63.864249 
L 232.773478 68.049716 
L 233.225015 74.327917 
L 233.676551 74.327917 
L 234.128087 78.513384 
L 235.482696 84.791585 
L 235.934232 88.977052 
L 238.191913 78.513384 
L 238.643449 78.513384 
L 239.094985 74.327917 
L 239.998058 74.327917 
L 240.449594 70.14245 
L 242.255739 61.771516 
L 242.707275 61.771516 
L 243.158811 63.864249 
L 243.610348 68.049716 
L 244.964956 86.884318 
L 245.416493 91.069785 
L 245.868029 93.162519 
L 246.771101 93.162519 
L 247.222638 95.255253 
L 247.674174 99.44072 
L 248.12571 99.44072 
L 249.028782 80.606118 
L 249.931855 72.235183 
L 250.383391 70.14245 
L 251.286464 70.14245 
L 251.738 68.049716 
L 252.641072 68.049716 
L 253.092608 70.14245 
L 253.544145 70.14245 
L 254.447217 74.327917 
L 254.898753 78.513384 
L 255.35029 78.513384 
L 255.801826 80.606118 
L 256.253362 80.606118 
L 256.704898 84.791585 
L 257.156434 84.791585 
L 257.607971 86.884318 
L 258.059507 86.884318 
L 258.511043 93.162519 
L 258.962579 88.977052 
L 259.414116 88.977052 
L 260.317188 93.162519 
L 261.22026 88.977052 
L 261.671797 84.791585 
L 262.123333 78.513384 
L 262.574869 76.420651 
L 263.026405 72.235183 
L 263.477942 70.14245 
L 263.929478 63.864249 
L 264.381014 59.678782 
L 264.83255 57.586048 
L 265.284086 57.586048 
L 266.638695 70.14245 
L 267.090231 76.420651 
L 267.541768 84.791585 
L 268.44484 93.162519 
L 268.896376 93.162519 
L 269.799449 84.791585 
L 270.250985 84.791585 
L 270.702521 80.606118 
L 271.154057 80.606118 
L 271.605594 84.791585 
L 272.508666 76.420651 
L 274.314811 68.049716 
L 274.766347 70.14245 
L 275.217883 74.327917 
L 276.120956 86.884318 
L 276.572492 86.884318 
L 277.475565 91.069785 
L 277.927101 88.977052 
L 278.378637 88.977052 
L 278.830173 91.069785 
L 279.281709 88.977052 
L 279.733246 84.791585 
L 280.184782 84.791585 
L 280.636318 82.698851 
L 281.539391 86.884318 
L 281.990927 86.884318 
L 282.442463 95.255253 
L 282.893999 95.255253 
L 283.345535 99.44072 
L 283.797072 93.162519 
L 284.248608 97.347986 
L 284.700144 97.347986 
L 285.15168 99.44072 
L 285.603217 99.44072 
L 286.054753 95.255253 
L 286.506289 95.255253 
L 286.957825 93.162519 
L 287.409361 93.162519 
L 287.860898 91.069785 
L 288.312434 93.162519 
L 288.76397 93.162519 
L 290.118579 99.44072 
L 290.570115 93.162519 
L 291.473188 93.162519 
L 292.37626 97.347986 
L 292.827796 97.347986 
L 293.279332 95.255253 
L 293.730869 97.347986 
L 294.633941 97.347986 
L 295.085477 95.255253 
L 295.537014 88.977052 
L 295.98855 72.235183 
L 296.440086 72.235183 
L 296.891622 55.493315 
L 297.794695 55.493315 
L 298.246231 59.678782 
L 298.697767 68.049716 
L 299.149303 74.327917 
L 299.60084 74.327917 
L 300.503912 70.14245 
L 300.955448 74.327917 
L 301.406984 74.327917 
L 301.858521 72.235183 
L 303.213129 72.235183 
L 303.664666 74.327917 
L 304.116202 70.14245 
L 305.019274 70.14245 
L 305.47081 68.049716 
L 306.373883 68.049716 
L 307.276955 59.678782 
L 310.437709 59.678782 
L 311.340781 55.493315 
L 311.792318 63.864249 
L 312.69539 68.049716 
L 313.146926 63.864249 
L 313.598463 53.400581 
L 314.049999 49.215114 
L 314.501535 49.215114 
L 315.404607 45.029647 
L 316.30768 45.029647 
L 316.759216 47.122381 
L 317.210752 68.049716 
L 318.113825 63.864249 
L 318.565361 63.864249 
L 319.016897 70.14245 
L 319.468433 74.327917 
L 320.371506 78.513384 
L 321.274578 78.513384 
L 322.177651 82.698851 
L 322.629187 80.606118 
L 323.983796 68.049716 
L 324.886868 68.049716 
L 325.338404 63.864249 
L 325.789941 61.771516 
L 326.241477 61.771516 
L 326.693013 63.864249 
L 327.596085 72.235183 
L 328.047622 65.956983 
L 328.950694 65.956983 
L 329.853767 61.771516 
L 330.305303 63.864249 
L 331.659911 57.586048 
L 333.01452 57.586048 
L 333.466056 59.678782 
L 333.917593 55.493315 
L 334.369129 53.400581 
L 334.820665 55.493315 
L 335.272201 63.864249 
L 335.723738 70.14245 
L 336.175274 68.049716 
L 338.884491 68.049716 
L 339.336027 72.235183 
L 339.787564 78.513384 
L 340.2391 80.606118 
L 340.690636 80.606118 
L 341.142172 84.791585 
L 341.593708 84.791585 
L 342.045245 86.884318 
L 342.496781 91.069785 
L 342.948317 93.162519 
L 344.754462 93.162519 
L 345.205998 95.255253 
L 345.657534 95.255253 
L 346.109071 116.182588 
L 346.560607 86.884318 
L 347.012143 72.235183 
L 347.463679 76.420651 
L 349.269824 84.791585 
L 349.72136 84.791585 
L 350.172897 86.884318 
L 350.624433 91.069785 
L 351.075969 91.069785 
L 351.527505 95.255253 
L 351.979042 97.347986 
L 352.882114 97.347986 
L 353.33365 99.44072 
L 353.785186 88.977052 
L 354.236723 82.698851 
L 354.688259 78.513384 
L 355.139795 70.14245 
L 356.494404 63.864249 
L 356.94594 68.049716 
L 357.397476 68.049716 
L 357.849013 70.14245 
L 358.300549 68.049716 
L 358.752085 70.14245 
L 359.655157 78.513384 
L 360.106694 78.513384 
L 360.55823 74.327917 
L 361.461302 70.14245 
L 361.912839 70.14245 
L 362.364375 74.327917 
L 362.815911 76.420651 
L 363.267447 84.791585 
L 364.17052 93.162519 
L 364.622056 99.44072 
L 365.525128 103.626187 
L 365.976665 101.533453 
L 366.428201 101.533453 
L 366.879737 103.626187 
L 367.331273 101.533453 
L 367.782809 101.533453 
L 369.588954 109.904388 
L 370.040491 109.904388 
L 370.492027 111.997121 
L 370.943563 109.904388 
L 371.395099 109.904388 
L 371.846635 111.997121 
L 372.298172 109.904388 
L 372.749708 111.997121 
L 373.201244 111.997121 
L 374.104317 107.811654 
L 374.555853 107.811654 
L 375.007389 103.626187 
L 375.458925 91.069785 
L 375.910461 82.698851 
L 376.813534 82.698851 
L 377.26507 86.884318 
L 377.716606 88.977052 
L 378.619679 88.977052 
L 379.522751 84.791585 
L 379.974288 80.606118 
L 380.425824 78.513384 
L 380.87736 80.606118 
L 381.328896 88.977052 
L 381.780432 93.162519 
L 382.231969 93.162519 
L 382.683505 97.347986 
L 383.135041 99.44072 
L 383.586577 97.347986 
L 384.038114 99.44072 
L 384.48965 93.162519 
L 384.941186 91.069785 
L 385.392722 86.884318 
L 385.844258 84.791585 
L 386.295795 84.791585 
L 386.747331 82.698851 
L 388.10194 82.698851 
L 388.553476 86.884318 
L 389.005012 86.884318 
L 389.456548 88.977052 
L 390.811157 88.977052 
L 391.262693 91.069785 
L 391.714229 91.069785 
L 392.165766 88.977052 
L 393.520374 95.255253 
L 394.423447 95.255253 
L 394.874983 91.069785 
L 395.326519 91.069785 
L 398.035737 78.513384 
L 398.487273 78.513384 
L 398.487273 78.513384 
" clip-path="url(#p49e9cde0f9)" style="fill: none; stroke: #1f77b4; stroke-width: 1.5; stroke-linecap: square"/>
   </g>
   <g id="patch_3">
    <path d="M 57.6 119.740235 
L 57.6 41.472 
" style="fill: none; stroke: #000000; stroke-width: 0.8; stroke-linejoin: miter; stroke-linecap: square"/>
   </g>
   <g id="patch_4">
    <path d="M 414.72 119.740235 
L 414.72 41.472 
" style="fill: none; stroke: #000000; stroke-width: 0.8; stroke-linejoin: miter; stroke-linecap: square"/>
   </g>
   <g id="patch_5">
    <path d="M 57.6 119.740235 
L 414.72 119.740235 
" style="fill: none; stroke: #000000; stroke-width: 0.8; stroke-linejoin: miter; stroke-linecap: square"/>
   </g>
   <g id="patch_6">
    <path d="M 57.6 41.472 
L 414.72 41.472 
" style="fill: none; stroke: #000000; stroke-width: 0.8; stroke-linejoin: miter; stroke-linecap: square"/>
   </g>
  </g>
  <g id="axes_2">
   <g id="patch_7">
    <path d="M 57.6 213.662118 
L 414.72 213.662118 
L 414.72 135.393882 
L 57.6 135.393882 
z
" style="fill: #ffffff"/>
   </g>
   <g id="matplotlib.axis_3">
    <g id="xtick_8">
     <g id="line2d_11">
      <g>
       <use xlink:href="#m67fadb1387" x="73.832727" y="213.662118" style="stroke: #000000; stroke-width: 0.8"/>
      </g>
     </g>
     <g id="text_10">
      <!-- 0 -->
      <g transform="translate(70.651477 228.260555) scale(0.1 -0.1)">
       <use xlink:href="#DejaVuSans-30"/>
      </g>
     </g>
    </g>
    <g id="xtick_9">
     <g id="line2d_12">
      <g>
       <use xlink:href="#m67fadb1387" x="128.017074" y="213.662118" style="stroke: #000000; stroke-width: 0.8"/>
      </g>
     </g>
     <g id="text_11">
      <!-- 5 -->
      <g transform="translate(124.835824 228.260555) scale(0.1 -0.1)">
       <use xlink:href="#DejaVuSans-35"/>
      </g>
     </g>
    </g>
    <g id="xtick_10">
     <g id="line2d_13">
      <g>
       <use xlink:href="#m67fadb1387" x="182.201421" y="213.662118" style="stroke: #000000; stroke-width: 0.8"/>
      </g>
     </g>
     <g id="text_12">
      <!-- 10 -->
      <g transform="translate(175.838921 228.260555) scale(0.1 -0.1)">
       <use xlink:href="#DejaVuSans-31"/>
       <use xlink:href="#DejaVuSans-30" x="63.623047"/>
      </g>
     </g>
    </g>
    <g id="xtick_11">
     <g id="line2d_14">
      <g>
       <use xlink:href="#m67fadb1387" x="236.385768" y="213.662118" style="stroke: #000000; stroke-width: 0.8"/>
      </g>
     </g>
     <g id="text_13">
      <!-- 15 -->
      <g transform="translate(230.023268 228.260555) scale(0.1 -0.1)">
       <use xlink:href="#DejaVuSans-31"/>
       <use xlink:href="#DejaVuSans-35" x="63.623047"/>
      </g>
     </g>
    </g>
    <g id="xtick_12">
     <g id="line2d_15">
      <g>
       <use xlink:href="#m67fadb1387" x="290.570115" y="213.662118" style="stroke: #000000; stroke-width: 0.8"/>
      </g>
     </g>
     <g id="text_14">
      <!-- 20 -->
      <g transform="translate(284.207615 228.260555) scale(0.1 -0.1)">
       <use xlink:href="#DejaVuSans-32"/>
       <use xlink:href="#DejaVuSans-30" x="63.623047"/>
      </g>
     </g>
    </g>
    <g id="xtick_13">
     <g id="line2d_16">
      <g>
       <use xlink:href="#m67fadb1387" x="344.754462" y="213.662118" style="stroke: #000000; stroke-width: 0.8"/>
      </g>
     </g>
     <g id="text_15">
      <!-- 25 -->
      <g transform="translate(338.391962 228.260555) scale(0.1 -0.1)">
       <use xlink:href="#DejaVuSans-32"/>
       <use xlink:href="#DejaVuSans-35" x="63.623047"/>
      </g>
     </g>
    </g>
    <g id="xtick_14">
     <g id="line2d_17">
      <g>
       <use xlink:href="#m67fadb1387" x="398.938809" y="213.662118" style="stroke: #000000; stroke-width: 0.8"/>
      </g>
     </g>
     <g id="text_16">
      <!-- 30 -->
      <g transform="translate(392.576309 228.260555) scale(0.1 -0.1)">
       <use xlink:href="#DejaVuSans-33"/>
       <use xlink:href="#DejaVuSans-30" x="63.623047"/>
      </g>
     </g>
    </g>
   </g>
   <g id="matplotlib.axis_4">
    <g id="ytick_3">
     <g id="line2d_18">
      <g>
       <use xlink:href="#m28b80ae67d" x="57.6" y="210.104471" style="stroke: #000000; stroke-width: 0.8"/>
      </g>
     </g>
     <g id="text_17">
      <!-- 0 -->
      <g transform="translate(44.2375 213.903689) scale(0.1 -0.1)">
       <use xlink:href="#DejaVuSans-30"/>
      </g>
     </g>
    </g>
    <g id="ytick_4">
     <g id="line2d_19">
      <g>
       <use xlink:href="#m28b80ae67d" x="57.6" y="174.528" style="stroke: #000000; stroke-width: 0.8"/>
      </g>
     </g>
     <g id="text_18">
      <!-- 50 -->
      <g transform="translate(37.875 178.327219) scale(0.1 -0.1)">
       <use xlink:href="#DejaVuSans-35"/>
       <use xlink:href="#DejaVuSans-30" x="63.623047"/>
      </g>
     </g>
    </g>
    <g id="ytick_5">
     <g id="line2d_20">
      <g>
       <use xlink:href="#m28b80ae67d" x="57.6" y="138.951529" style="stroke: #000000; stroke-width: 0.8"/>
      </g>
     </g>
     <g id="text_19">
      <!-- 100 -->
      <g transform="translate(31.5125 142.750748) scale(0.1 -0.1)">
       <use xlink:href="#DejaVuSans-31"/>
       <use xlink:href="#DejaVuSans-30" x="63.623047"/>
       <use xlink:href="#DejaVuSans-30" x="127.246094"/>
      </g>
     </g>
    </g>
   </g>
   <g id="line2d_21">
    <path d="M 73.832727 151.047529 
L 74.7358 148.201412 
L 75.187336 141.086118 
L 75.638872 138.951529 
L 77.896553 138.951529 
L 78.34809 139.663059 
L 78.799626 138.951529 
L 80.605771 138.951529 
L 81.057307 144.643765 
L 81.508843 155.316706 
L 81.960379 152.470588 
L 82.863452 143.220706 
L 83.314988 139.663059 
L 84.21806 167.412706 
L 85.121133 180.220235 
L 86.024205 188.047059 
L 86.927278 185.200941 
L 87.378814 182.354824 
L 87.83035 180.220235 
L 88.281886 178.797176 
L 88.733423 164.566588 
L 89.184959 156.739765 
L 89.636495 153.893647 
L 90.539568 151.047529 
L 91.44264 140.374588 
L 91.894176 138.951529 
L 93.248785 138.951529 
L 93.700321 141.797647 
L 94.151857 156.739765 
L 94.603394 162.432 
L 95.05493 172.393412 
L 95.506466 177.374118 
L 95.958002 180.220235 
L 96.409539 181.643294 
L 96.861075 182.354824 
L 97.312611 181.643294 
L 97.764147 181.643294 
L 98.215683 180.931765 
L 98.66722 181.643294 
L 99.118756 180.220235 
L 99.570292 176.662588 
L 100.021828 167.412706 
L 100.473365 166.701176 
L 101.376437 155.316706 
L 101.827973 151.759059 
L 102.279509 149.624471 
L 102.731046 150.336 
L 103.182582 149.624471 
L 103.634118 150.336 
L 104.085654 210.104471 
L 104.537191 141.086118 
L 104.988727 210.104471 
L 105.440263 138.951529 
L 106.343335 163.143529 
L 106.794872 168.835765 
L 107.697944 175.239529 
L 108.14948 176.662588 
L 109.504089 187.335529 
L 109.955625 184.489412 
L 110.407161 180.931765 
L 111.310234 179.508706 
L 111.76177 180.220235 
L 112.213306 178.085647 
L 112.664843 176.662588 
L 113.116379 168.835765 
L 114.019451 176.662588 
L 114.922524 180.931765 
L 115.825596 170.258824 
L 116.277132 171.681882 
L 116.728669 165.989647 
L 117.180205 156.028235 
L 117.631741 156.739765 
L 118.083277 156.739765 
L 118.534814 153.893647 
L 118.98635 147.489882 
L 119.889422 141.797647 
L 120.340958 140.374588 
L 121.244031 138.951529 
L 121.695567 140.374588 
L 122.147103 156.028235 
L 122.59864 165.278118 
L 123.050176 161.720471 
L 123.953248 146.066824 
L 124.404784 146.066824 
L 124.856321 145.355294 
L 125.307857 146.778353 
L 125.759393 146.066824 
L 126.210929 144.643765 
L 126.662466 143.932235 
L 127.114002 141.797647 
L 127.565538 150.336 
L 128.017074 164.566588 
L 128.46861 173.816471 
L 128.920147 178.085647 
L 129.823219 173.816471 
L 130.274755 175.951059 
L 130.726292 176.662588 
L 131.177828 176.662588 
L 131.629364 177.374118 
L 132.0809 173.816471 
L 132.532436 168.835765 
L 132.983973 170.258824 
L 133.435509 168.124235 
L 133.887045 164.566588 
L 134.338581 158.874353 
L 134.790118 165.989647 
L 135.241654 170.970353 
L 135.69319 170.258824 
L 136.144726 168.124235 
L 136.596262 166.701176 
L 137.047799 162.432 
L 137.499335 161.720471 
L 137.950871 158.874353 
L 138.402407 147.489882 
L 138.853944 140.374588 
L 139.30548 143.932235 
L 139.757016 143.932235 
L 140.208552 141.797647 
L 140.660089 147.489882 
L 141.111625 140.374588 
L 141.563161 138.951529 
L 142.466233 138.951529 
L 142.91777 143.220706 
L 143.369306 154.605176 
L 143.820842 161.008941 
L 144.272378 163.143529 
L 144.723915 167.412706 
L 145.175451 173.104941 
L 145.626987 174.528 
L 146.078523 174.528 
L 146.530059 175.239529 
L 146.981596 177.374118 
L 147.433132 178.797176 
L 147.884668 179.508706 
L 148.336204 165.278118 
L 148.787741 166.701176 
L 149.239277 164.566588 
L 149.690813 158.874353 
L 150.593885 143.220706 
L 151.045422 143.932235 
L 151.496958 141.797647 
L 151.948494 141.797647 
L 152.40003 138.951529 
L 154.206175 138.951529 
L 154.657711 141.086118 
L 155.109248 141.797647 
L 155.560784 143.220706 
L 156.01232 142.509176 
L 156.463856 141.086118 
L 156.915393 141.797647 
L 157.366929 145.355294 
L 157.818465 146.066824 
L 158.270001 139.663059 
L 158.721537 138.951529 
L 159.173074 144.643765 
L 160.076146 162.432 
L 160.527682 165.989647 
L 161.430755 168.835765 
L 161.882291 172.393412 
L 162.333827 161.720471 
L 162.785364 146.778353 
L 163.2369 141.797647 
L 163.688436 145.355294 
L 164.139972 146.066824 
L 164.591508 139.663059 
L 165.043045 138.951529 
L 165.494581 144.643765 
L 166.397653 162.432 
L 166.84919 165.989647 
L 168.203798 165.989647 
L 169.558407 170.258824 
L 170.009943 168.124235 
L 170.461479 164.566588 
L 170.913016 158.874353 
L 171.364552 150.336 
L 171.816088 143.932235 
L 172.267624 140.374588 
L 172.71916 138.951529 
L 176.782986 138.951529 
L 177.234523 141.797647 
L 178.589131 159.585882 
L 179.040668 159.585882 
L 179.94374 146.778353 
L 180.395276 141.797647 
L 180.846812 139.663059 
L 181.298349 138.951529 
L 182.201421 138.951529 
L 182.652957 140.374588 
L 183.104494 156.028235 
L 183.55603 165.278118 
L 184.007566 161.720471 
L 184.910639 146.066824 
L 185.813711 146.066824 
L 186.265247 145.355294 
L 186.716783 146.778353 
L 187.619856 163.855059 
L 188.071392 168.124235 
L 188.522928 175.951059 
L 188.974465 175.951059 
L 189.426001 180.220235 
L 189.877537 183.066353 
L 190.329073 185.200941 
L 190.780609 185.200941 
L 191.232146 183.066353 
L 191.683682 182.354824 
L 192.135218 178.797176 
L 192.586754 169.547294 
L 193.038291 166.701176 
L 193.941363 156.739765 
L 194.392899 149.624471 
L 195.295972 160.297412 
L 195.747508 168.835765 
L 196.199044 158.162824 
L 196.65058 155.316706 
L 197.102117 156.028235 
L 197.553653 153.893647 
L 198.005189 140.374588 
L 198.456725 138.951529 
L 198.908261 139.663059 
L 199.359798 138.951529 
L 202.972087 138.951529 
L 203.423624 141.086118 
L 204.326696 142.509176 
L 204.778232 142.509176 
L 205.229769 143.932235 
L 205.681305 140.374588 
L 206.132841 143.932235 
L 207.035914 143.932235 
L 207.48745 148.912941 
L 207.938986 155.316706 
L 208.842058 170.970353 
L 209.293595 174.528 
L 209.745131 176.662588 
L 210.196667 180.220235 
L 210.648203 181.643294 
L 211.09974 182.354824 
L 211.551276 181.643294 
L 212.002812 181.643294 
L 212.454348 185.200941 
L 212.905884 185.912471 
L 213.357421 187.335529 
L 213.808957 187.335529 
L 214.260493 183.777882 
L 214.712029 178.797176 
L 215.163566 164.566588 
L 216.066638 148.201412 
L 216.518174 149.624471 
L 216.96971 148.912941 
L 217.872783 143.220706 
L 218.324319 141.797647 
L 218.775855 138.951529 
L 219.678928 138.951529 
L 220.130464 141.086118 
L 220.582 156.739765 
L 221.936609 178.085647 
L 222.388145 182.354824 
L 223.291218 182.354824 
L 223.742754 184.489412 
L 224.19429 185.200941 
L 226.000435 185.200941 
L 226.451971 183.066353 
L 226.903507 183.066353 
L 227.80658 177.374118 
L 228.258116 157.451294 
L 228.709652 142.509176 
L 229.161189 138.951529 
L 229.612725 210.104471 
L 230.064261 185.200941 
L 230.515797 184.489412 
L 230.967333 185.200941 
L 231.41887 178.085647 
L 231.870406 177.374118 
L 232.321942 175.951059 
L 232.773478 173.104941 
L 233.225015 169.547294 
L 233.676551 168.835765 
L 234.128087 165.989647 
L 235.031159 158.162824 
L 235.482696 153.893647 
L 235.934232 146.778353 
L 237.288841 159.585882 
L 238.191913 173.816471 
L 238.643449 174.528 
L 239.094985 175.951059 
L 239.546522 175.951059 
L 239.998058 180.220235 
L 240.90113 185.912471 
L 241.352667 188.047059 
L 241.804203 188.758588 
L 242.255739 190.181647 
L 242.707275 190.181647 
L 243.158811 189.470118 
L 243.610348 187.335529 
L 244.061884 183.066353 
L 245.416493 156.739765 
L 245.868029 153.893647 
L 246.771101 151.047529 
L 247.222638 145.355294 
L 247.674174 141.797647 
L 248.12571 139.663059 
L 249.028782 167.412706 
L 249.931855 180.220235 
L 250.383391 184.489412 
L 251.286464 184.489412 
L 251.738 188.047059 
L 252.189536 188.758588 
L 252.641072 188.047059 
L 253.092608 188.047059 
L 253.995681 185.200941 
L 254.447217 182.354824 
L 254.898753 180.220235 
L 255.35029 178.797176 
L 255.801826 175.951059 
L 256.704898 169.547294 
L 257.156434 166.701176 
L 258.059507 162.432 
L 258.511043 153.182118 
L 258.962579 155.316706 
L 259.865652 152.470588 
L 260.317188 143.932235 
L 261.22026 149.624471 
L 261.671797 153.182118 
L 262.123333 161.008941 
L 263.929478 175.951059 
L 264.381014 182.354824 
L 264.83255 186.624 
L 265.284086 186.624 
L 265.735623 185.200941 
L 266.187159 183.066353 
L 266.638695 179.508706 
L 267.090231 172.393412 
L 267.541768 157.451294 
L 268.44484 144.643765 
L 268.896376 145.355294 
L 269.347913 151.759059 
L 269.799449 160.297412 
L 270.250985 158.874353 
L 270.702521 164.566588 
L 271.154057 164.566588 
L 271.605594 147.489882 
L 272.05713 153.893647 
L 272.508666 165.989647 
L 272.960202 173.816471 
L 273.411739 175.239529 
L 274.314811 183.066353 
L 274.766347 180.220235 
L 275.217883 178.085647 
L 275.66942 173.104941 
L 276.120956 162.432 
L 276.572492 161.008941 
L 277.024028 158.874353 
L 277.475565 155.316706 
L 277.927101 155.316706 
L 278.830173 152.470588 
L 279.281709 155.316706 
L 279.733246 163.143529 
L 280.636318 170.970353 
L 281.087854 173.816471 
L 281.539391 173.104941 
L 281.990927 168.124235 
L 282.442463 151.759059 
L 283.345535 140.374588 
L 283.797072 146.778353 
L 284.248608 141.086118 
L 284.700144 141.086118 
L 285.15168 139.663059 
L 285.603217 140.374588 
L 286.054753 144.643765 
L 286.506289 144.643765 
L 286.957825 149.624471 
L 287.409361 147.489882 
L 287.860898 146.778353 
L 288.312434 143.220706 
L 288.76397 141.797647 
L 289.215506 138.951529 
L 292.827796 138.951529 
L 293.279332 141.797647 
L 293.730869 139.663059 
L 294.182405 138.951529 
L 294.633941 138.951529 
L 295.085477 139.663059 
L 295.537014 148.912941 
L 295.98855 170.970353 
L 296.440086 185.200941 
L 296.891622 186.624 
L 297.343158 186.624 
L 297.794695 187.335529 
L 298.246231 184.489412 
L 298.697767 175.951059 
L 299.149303 164.566588 
L 299.60084 158.162824 
L 300.052376 160.297412 
L 300.503912 164.566588 
L 300.955448 163.143529 
L 301.406984 160.297412 
L 301.858521 158.162824 
L 302.310057 157.451294 
L 302.761593 160.297412 
L 303.213129 156.739765 
L 303.664666 150.336 
L 304.116202 163.855059 
L 304.567738 167.412706 
L 305.019274 165.989647 
L 306.373883 163.855059 
L 306.825419 170.258824 
L 307.728492 178.085647 
L 308.180028 179.508706 
L 309.534636 179.508706 
L 309.986173 178.085647 
L 310.437709 180.220235 
L 310.889245 183.777882 
L 311.340781 185.200941 
L 312.243854 172.393412 
L 312.69539 168.835765 
L 313.146926 173.816471 
L 313.598463 181.643294 
L 314.049999 184.489412 
L 314.501535 185.200941 
L 314.953071 185.200941 
L 315.404607 186.624 
L 315.856144 187.335529 
L 316.30768 186.624 
L 316.759216 187.335529 
L 317.210752 152.470588 
L 317.662289 154.605176 
L 318.565361 160.297412 
L 319.468433 139.663059 
L 319.91997 138.951529 
L 320.371506 138.951529 
L 320.823042 139.663059 
L 321.274578 146.778353 
L 321.726115 142.509176 
L 322.177651 142.509176 
L 322.629187 146.778353 
L 323.080723 152.470588 
L 323.532259 159.585882 
L 323.983796 168.835765 
L 324.435332 165.989647 
L 324.886868 168.835765 
L 325.338404 170.970353 
L 326.241477 172.393412 
L 326.693013 172.393412 
L 327.144549 169.547294 
L 327.596085 168.124235 
L 328.047622 175.951059 
L 328.499158 175.951059 
L 329.40223 180.220235 
L 329.853767 181.643294 
L 330.756839 183.066353 
L 331.208375 184.489412 
L 331.659911 187.335529 
L 332.111448 188.758588 
L 332.562984 188.047059 
L 333.01452 188.047059 
L 333.466056 186.624 
L 333.917593 188.047059 
L 334.369129 188.758588 
L 334.820665 188.758588 
L 335.272201 185.200941 
L 335.723738 180.220235 
L 336.175274 181.643294 
L 336.62681 185.200941 
L 337.078346 184.489412 
L 337.981419 185.912471 
L 338.432955 187.335529 
L 338.884491 187.335529 
L 339.336027 183.777882 
L 339.787564 178.797176 
L 340.2391 175.951059 
L 341.142172 169.547294 
L 341.593708 166.701176 
L 342.045245 164.566588 
L 342.496781 156.739765 
L 342.948317 153.893647 
L 343.85139 151.047529 
L 344.754462 141.086118 
L 345.205998 138.951529 
L 345.657534 138.951529 
L 346.109071 210.104471 
L 346.560607 144.643765 
L 347.012143 163.143529 
L 347.463679 152.470588 
L 347.915216 153.182118 
L 348.366752 152.470588 
L 348.818288 148.201412 
L 349.269824 142.509176 
L 349.72136 147.489882 
L 350.172897 154.605176 
L 350.624433 149.624471 
L 351.075969 149.624471 
L 351.527505 141.086118 
L 351.979042 138.951529 
L 352.430578 139.663059 
L 352.882114 138.951529 
L 353.33365 138.951529 
L 354.236723 155.316706 
L 354.688259 162.432 
L 355.139795 172.393412 
L 355.591331 175.951059 
L 356.042868 177.374118 
L 356.494404 180.931765 
L 356.94594 180.931765 
L 357.849013 173.816471 
L 358.300549 178.797176 
L 358.752085 178.085647 
L 359.203621 174.528 
L 359.655157 165.989647 
L 361.461302 182.354824 
L 361.912839 184.489412 
L 362.364375 181.643294 
L 362.815911 180.220235 
L 364.17052 155.316706 
L 364.622056 143.932235 
L 365.073592 139.663059 
L 365.525128 138.951529 
L 365.976665 140.374588 
L 366.879737 138.951529 
L 367.331273 140.374588 
L 368.234346 138.951529 
L 374.555853 138.951529 
L 375.007389 141.086118 
L 375.458925 156.739765 
L 375.910461 163.855059 
L 376.361998 165.278118 
L 376.813534 161.720471 
L 377.716606 146.066824 
L 378.168143 148.201412 
L 378.619679 149.624471 
L 379.071215 152.470588 
L 379.522751 156.739765 
L 380.425824 170.970353 
L 380.87736 166.701176 
L 381.328896 155.316706 
L 381.780432 146.778353 
L 382.231969 143.932235 
L 382.683505 139.663059 
L 383.135041 138.951529 
L 384.941186 138.951529 
L 385.844258 151.047529 
L 386.295795 155.316706 
L 386.747331 156.739765 
L 387.198867 158.874353 
L 387.650403 162.432 
L 388.10194 156.028235 
L 388.553476 143.220706 
L 389.005012 140.374588 
L 389.456548 138.951529 
L 391.714229 138.951529 
L 392.165766 139.663059 
L 392.617302 138.951529 
L 393.520374 138.951529 
L 393.97191 140.374588 
L 394.423447 142.509176 
L 394.874983 146.778353 
L 395.326519 141.797647 
L 396.229592 151.047529 
L 397.132664 159.585882 
L 398.035737 173.816471 
L 398.487273 174.528 
L 398.487273 174.528 
" clip-path="url(#p751bf91bf3)" style="fill: none; stroke: #1f77b4; stroke-width: 1.5; stroke-linecap: square"/>
   </g>
   <g id="patch_8">
    <path d="M 57.6 213.662118 
L 57.6 135.393882 
" style="fill: none; stroke: #000000; stroke-width: 0.8; stroke-linejoin: miter; stroke-linecap: square"/>
   </g>
   <g id="patch_9">
    <path d="M 414.72 213.662118 
L 414.72 135.393882 
" style="fill: none; stroke: #000000; stroke-width: 0.8; stroke-linejoin: miter; stroke-linecap: square"/>
   </g>
   <g id="patch_10">
    <path d="M 57.6 213.662118 
L 414.72 213.662118 
" style="fill: none; stroke: #000000; stroke-width: 0.8; stroke-linejoin: miter; stroke-linecap: square"/>
   </g>
   <g id="patch_11">
    <path d="M 57.6 135.393882 
L 414.72 135.393882 
" style="fill: none; stroke: #000000; stroke-width: 0.8; stroke-linejoin: miter; stroke-linecap: square"/>
   </g>
  </g>
  <g id="axes_3">
   <g id="patch_12">
    <path d="M 57.6 307.584 
L 414.72 307.584 
L 414.72 229.315765 
L 57.6 229.315765 
z
" style="fill: #ffffff"/>
   </g>
   <g id="matplotlib.axis_5">
    <g id="xtick_15">
     <g id="line2d_22">
      <g>
       <use xlink:href="#m67fadb1387" x="73.832727" y="307.584" style="stroke: #000000; stroke-width: 0.8"/>
      </g>
     </g>
     <g id="text_20">
      <!-- 0 -->
      <g transform="translate(70.651477 322.182437) scale(0.1 -0.1)">
       <use xlink:href="#DejaVuSans-30"/>
      </g>
     </g>
    </g>
    <g id="xtick_16">
     <g id="line2d_23">
      <g>
       <use xlink:href="#m67fadb1387" x="128.017074" y="307.584" style="stroke: #000000; stroke-width: 0.8"/>
      </g>
     </g>
     <g id="text_21">
      <!-- 5 -->
      <g transform="translate(124.835824 322.182437) scale(0.1 -0.1)">
       <use xlink:href="#DejaVuSans-35"/>
      </g>
     </g>
    </g>
    <g id="xtick_17">
     <g id="line2d_24">
      <g>
       <use xlink:href="#m67fadb1387" x="182.201421" y="307.584" style="stroke: #000000; stroke-width: 0.8"/>
      </g>
     </g>
     <g id="text_22">
      <!-- 10 -->
      <g transform="translate(175.838921 322.182437) scale(0.1 -0.1)">
       <use xlink:href="#DejaVuSans-31"/>
       <use xlink:href="#DejaVuSans-30" x="63.623047"/>
      </g>
     </g>
    </g>
    <g id="xtick_18">
     <g id="line2d_25">
      <g>
       <use xlink:href="#m67fadb1387" x="236.385768" y="307.584" style="stroke: #000000; stroke-width: 0.8"/>
      </g>
     </g>
     <g id="text_23">
      <!-- 15 -->
      <g transform="translate(230.023268 322.182437) scale(0.1 -0.1)">
       <use xlink:href="#DejaVuSans-31"/>
       <use xlink:href="#DejaVuSans-35" x="63.623047"/>
      </g>
     </g>
    </g>
    <g id="xtick_19">
     <g id="line2d_26">
      <g>
       <use xlink:href="#m67fadb1387" x="290.570115" y="307.584" style="stroke: #000000; stroke-width: 0.8"/>
      </g>
     </g>
     <g id="text_24">
      <!-- 20 -->
      <g transform="translate(284.207615 322.182437) scale(0.1 -0.1)">
       <use xlink:href="#DejaVuSans-32"/>
       <use xlink:href="#DejaVuSans-30" x="63.623047"/>
      </g>
     </g>
    </g>
    <g id="xtick_20">
     <g id="line2d_27">
      <g>
       <use xlink:href="#m67fadb1387" x="344.754462" y="307.584" style="stroke: #000000; stroke-width: 0.8"/>
      </g>
     </g>
     <g id="text_25">
      <!-- 25 -->
      <g transform="translate(338.391962 322.182437) scale(0.1 -0.1)">
       <use xlink:href="#DejaVuSans-32"/>
       <use xlink:href="#DejaVuSans-35" x="63.623047"/>
      </g>
     </g>
    </g>
    <g id="xtick_21">
     <g id="line2d_28">
      <g>
       <use xlink:href="#m67fadb1387" x="398.938809" y="307.584" style="stroke: #000000; stroke-width: 0.8"/>
      </g>
     </g>
     <g id="text_26">
      <!-- 30 -->
      <g transform="translate(392.576309 322.182437) scale(0.1 -0.1)">
       <use xlink:href="#DejaVuSans-33"/>
       <use xlink:href="#DejaVuSans-30" x="63.623047"/>
      </g>
     </g>
    </g>
   </g>
   <g id="matplotlib.axis_6">
    <g id="ytick_6">
     <g id="line2d_29">
      <g>
       <use xlink:href="#m28b80ae67d" x="57.6" y="304.026353" style="stroke: #000000; stroke-width: 0.8"/>
      </g>
     </g>
     <g id="text_27">
      <!-- 0 -->
      <g transform="translate(44.2375 307.825572) scale(0.1 -0.1)">
       <use xlink:href="#DejaVuSans-30"/>
      </g>
     </g>
    </g>
    <g id="ytick_7">
     <g id="line2d_30">
      <g>
       <use xlink:href="#m28b80ae67d" x="57.6" y="268.449882" style="stroke: #000000; stroke-width: 0.8"/>
      </g>
     </g>
     <g id="text_28">
      <!-- 1 -->
      <g transform="translate(44.2375 272.249101) scale(0.1 -0.1)">
       <use xlink:href="#DejaVuSans-31"/>
      </g>
     </g>
    </g>
    <g id="ytick_8">
     <g id="line2d_31">
      <g>
       <use xlink:href="#m28b80ae67d" x="57.6" y="232.873412" style="stroke: #000000; stroke-width: 0.8"/>
      </g>
     </g>
     <g id="text_29">
      <!-- 2 -->
      <g transform="translate(44.2375 236.672631) scale(0.1 -0.1)">
       <use xlink:href="#DejaVuSans-32"/>
      </g>
     </g>
    </g>
   </g>
   <g id="line2d_32">
    <path d="M 73.832727 304.026353 
L 197.553653 304.026353 
L 198.005189 268.449882 
L 198.456725 304.026353 
L 316.759216 304.026353 
L 317.210752 232.873412 
L 317.662289 304.026353 
L 388.10194 304.026353 
L 388.553476 268.449882 
L 389.005012 304.026353 
L 398.487273 304.026353 
L 398.487273 304.026353 
" clip-path="url(#pab6a6da12d)" style="fill: none; stroke: #1f77b4; stroke-width: 1.5; stroke-linecap: square"/>
   </g>
   <g id="patch_13">
    <path d="M 57.6 307.584 
L 57.6 229.315765 
" style="fill: none; stroke: #000000; stroke-width: 0.8; stroke-linejoin: miter; stroke-linecap: square"/>
   </g>
   <g id="patch_14">
    <path d="M 414.72 307.584 
L 414.72 229.315765 
" style="fill: none; stroke: #000000; stroke-width: 0.8; stroke-linejoin: miter; stroke-linecap: square"/>
   </g>
   <g id="patch_15">
    <path d="M 57.6 307.584 
L 414.72 307.584 
" style="fill: none; stroke: #000000; stroke-width: 0.8; stroke-linejoin: miter; stroke-linecap: square"/>
   </g>
   <g id="patch_16">
    <path d="M 57.6 229.315765 
L 414.72 229.315765 
" style="fill: none; stroke: #000000; stroke-width: 0.8; stroke-linejoin: miter; stroke-linecap: square"/>
   </g>
  </g>
  <g id="text_30">
   <!-- cleaned_weather_summer -->
   <g transform="translate(151.397813 16.030125) scale(0.12 -0.12)">
    <defs>
     <path id="DejaVuSans-63" d="M 3122 3366 
L 3122 2828 
Q 2878 2963 2633 3030 
Q 2388 3097 2138 3097 
Q 1578 3097 1268 2742 
Q 959 2388 959 1747 
Q 959 1106 1268 751 
Q 1578 397 2138 397 
Q 2388 397 2633 464 
Q 2878 531 3122 666 
L 3122 134 
Q 2881 22 2623 -34 
Q 2366 -91 2075 -91 
Q 1284 -91 818 406 
Q 353 903 353 1747 
Q 353 2603 823 3093 
Q 1294 3584 2113 3584 
Q 2378 3584 2631 3529 
Q 2884 3475 3122 3366 
z
" transform="scale(0.015625)"/>
     <path id="DejaVuSans-6c" d="M 603 4863 
L 1178 4863 
L 1178 0 
L 603 0 
L 603 4863 
z
" transform="scale(0.015625)"/>
     <path id="DejaVuSans-65" d="M 3597 1894 
L 3597 1613 
L 953 1613 
Q 991 1019 1311 708 
Q 1631 397 2203 397 
Q 2534 397 2845 478 
Q 3156 559 3463 722 
L 3463 178 
Q 3153 47 2828 -22 
Q 2503 -91 2169 -91 
Q 1331 -91 842 396 
Q 353 884 353 1716 
Q 353 2575 817 3079 
Q 1281 3584 2069 3584 
Q 2775 3584 3186 3129 
Q 3597 2675 3597 1894 
z
M 3022 2063 
Q 3016 2534 2758 2815 
Q 2500 3097 2075 3097 
Q 1594 3097 1305 2825 
Q 1016 2553 972 2059 
L 3022 2063 
z
" transform="scale(0.015625)"/>
     <path id="DejaVuSans-61" d="M 2194 1759 
Q 1497 1759 1228 1600 
Q 959 1441 959 1056 
Q 959 750 1161 570 
Q 1363 391 1709 391 
Q 2188 391 2477 730 
Q 2766 1069 2766 1631 
L 2766 1759 
L 2194 1759 
z
M 3341 1997 
L 3341 0 
L 2766 0 
L 2766 531 
Q 2569 213 2275 61 
Q 1981 -91 1556 -91 
Q 1019 -91 701 211 
Q 384 513 384 1019 
Q 384 1609 779 1909 
Q 1175 2209 1959 2209 
L 2766 2209 
L 2766 2266 
Q 2766 2663 2505 2880 
Q 2244 3097 1772 3097 
Q 1472 3097 1187 3025 
Q 903 2953 641 2809 
L 641 3341 
Q 956 3463 1253 3523 
Q 1550 3584 1831 3584 
Q 2591 3584 2966 3190 
Q 3341 2797 3341 1997 
z
" transform="scale(0.015625)"/>
     <path id="DejaVuSans-6e" d="M 3513 2113 
L 3513 0 
L 2938 0 
L 2938 2094 
Q 2938 2591 2744 2837 
Q 2550 3084 2163 3084 
Q 1697 3084 1428 2787 
Q 1159 2491 1159 1978 
L 1159 0 
L 581 0 
L 581 3500 
L 1159 3500 
L 1159 2956 
Q 1366 3272 1645 3428 
Q 1925 3584 2291 3584 
Q 2894 3584 3203 3211 
Q 3513 2838 3513 2113 
z
" transform="scale(0.015625)"/>
     <path id="DejaVuSans-64" d="M 2906 2969 
L 2906 4863 
L 3481 4863 
L 3481 0 
L 2906 0 
L 2906 525 
Q 2725 213 2448 61 
Q 2172 -91 1784 -91 
Q 1150 -91 751 415 
Q 353 922 353 1747 
Q 353 2572 751 3078 
Q 1150 3584 1784 3584 
Q 2172 3584 2448 3432 
Q 2725 3281 2906 2969 
z
M 947 1747 
Q 947 1113 1208 752 
Q 1469 391 1925 391 
Q 2381 391 2643 752 
Q 2906 1113 2906 1747 
Q 2906 2381 2643 2742 
Q 2381 3103 1925 3103 
Q 1469 3103 1208 2742 
Q 947 2381 947 1747 
z
" transform="scale(0.015625)"/>
     <path id="DejaVuSans-5f" d="M 3263 -1063 
L 3263 -1509 
L -63 -1509 
L -63 -1063 
L 3263 -1063 
z
" transform="scale(0.015625)"/>
     <path id="DejaVuSans-77" d="M 269 3500 
L 844 3500 
L 1563 769 
L 2278 3500 
L 2956 3500 
L 3675 769 
L 4391 3500 
L 4966 3500 
L 4050 0 
L 3372 0 
L 2619 2869 
L 1863 0 
L 1184 0 
L 269 3500 
z
" transform="scale(0.015625)"/>
     <path id="DejaVuSans-74" d="M 1172 4494 
L 1172 3500 
L 2356 3500 
L 2356 3053 
L 1172 3053 
L 1172 1153 
Q 1172 725 1289 603 
Q 1406 481 1766 481 
L 2356 481 
L 2356 0 
L 1766 0 
Q 1100 0 847 248 
Q 594 497 594 1153 
L 594 3053 
L 172 3053 
L 172 3500 
L 594 3500 
L 594 4494 
L 1172 4494 
z
" transform="scale(0.015625)"/>
     <path id="DejaVuSans-68" d="M 3513 2113 
L 3513 0 
L 2938 0 
L 2938 2094 
Q 2938 2591 2744 2837 
Q 2550 3084 2163 3084 
Q 1697 3084 1428 2787 
Q 1159 2491 1159 1978 
L 1159 0 
L 581 0 
L 581 4863 
L 1159 4863 
L 1159 2956 
Q 1366 3272 1645 3428 
Q 1925 3584 2291 3584 
Q 2894 3584 3203 3211 
Q 3513 2838 3513 2113 
z
" transform="scale(0.015625)"/>
     <path id="DejaVuSans-72" d="M 2631 2963 
Q 2534 3019 2420 3045 
Q 2306 3072 2169 3072 
Q 1681 3072 1420 2755 
Q 1159 2438 1159 1844 
L 1159 0 
L 581 0 
L 581 3500 
L 1159 3500 
L 1159 2956 
Q 1341 3275 1631 3429 
Q 1922 3584 2338 3584 
Q 2397 3584 2469 3576 
Q 2541 3569 2628 3553 
L 2631 2963 
z
" transform="scale(0.015625)"/>
     <path id="DejaVuSans-73" d="M 2834 3397 
L 2834 2853 
Q 2591 2978 2328 3040 
Q 2066 3103 1784 3103 
Q 1356 3103 1142 2972 
Q 928 2841 928 2578 
Q 928 2378 1081 2264 
Q 1234 2150 1697 2047 
L 1894 2003 
Q 2506 1872 2764 1633 
Q 3022 1394 3022 966 
Q 3022 478 2636 193 
Q 2250 -91 1575 -91 
Q 1294 -91 989 -36 
Q 684 19 347 128 
L 347 722 
Q 666 556 975 473 
Q 1284 391 1588 391 
Q 1994 391 2212 530 
Q 2431 669 2431 922 
Q 2431 1156 2273 1281 
Q 2116 1406 1581 1522 
L 1381 1569 
Q 847 1681 609 1914 
Q 372 2147 372 2553 
Q 372 3047 722 3315 
Q 1072 3584 1716 3584 
Q 2034 3584 2315 3537 
Q 2597 3491 2834 3397 
z
" transform="scale(0.015625)"/>
     <path id="DejaVuSans-75" d="M 544 1381 
L 544 3500 
L 1119 3500 
L 1119 1403 
Q 1119 906 1312 657 
Q 1506 409 1894 409 
Q 2359 409 2629 706 
Q 2900 1003 2900 1516 
L 2900 3500 
L 3475 3500 
L 3475 0 
L 2900 0 
L 2900 538 
Q 2691 219 2414 64 
Q 2138 -91 1772 -91 
Q 1169 -91 856 284 
Q 544 659 544 1381 
z
M 1991 3584 
L 1991 3584 
z
" transform="scale(0.015625)"/>
     <path id="DejaVuSans-6d" d="M 3328 2828 
Q 3544 3216 3844 3400 
Q 4144 3584 4550 3584 
Q 5097 3584 5394 3201 
Q 5691 2819 5691 2113 
L 5691 0 
L 5113 0 
L 5113 2094 
Q 5113 2597 4934 2840 
Q 4756 3084 4391 3084 
Q 3944 3084 3684 2787 
Q 3425 2491 3425 1978 
L 3425 0 
L 2847 0 
L 2847 2094 
Q 2847 2600 2669 2842 
Q 2491 3084 2119 3084 
Q 1678 3084 1418 2786 
Q 1159 2488 1159 1978 
L 1159 0 
L 581 0 
L 581 3500 
L 1159 3500 
L 1159 2956 
Q 1356 3278 1631 3431 
Q 1906 3584 2284 3584 
Q 2666 3584 2933 3390 
Q 3200 3197 3328 2828 
z
" transform="scale(0.015625)"/>
    </defs>
    <use xlink:href="#DejaVuSans-63"/>
    <use xlink:href="#DejaVuSans-6c" x="54.980469"/>
    <use xlink:href="#DejaVuSans-65" x="82.763672"/>
    <use xlink:href="#DejaVuSans-61" x="144.287109"/>
    <use xlink:href="#DejaVuSans-6e" x="205.566406"/>
    <use xlink:href="#DejaVuSans-65" x="268.945312"/>
    <use xlink:href="#DejaVuSans-64" x="330.46875"/>
    <use xlink:href="#DejaVuSans-5f" x="393.945312"/>
    <use xlink:href="#DejaVuSans-77" x="443.945312"/>
    <use xlink:href="#DejaVuSans-65" x="525.732422"/>
    <use xlink:href="#DejaVuSans-61" x="587.255859"/>
    <use xlink:href="#DejaVuSans-74" x="648.535156"/>
    <use xlink:href="#DejaVuSans-68" x="687.744141"/>
    <use xlink:href="#DejaVuSans-65" x="751.123047"/>
    <use xlink:href="#DejaVuSans-72" x="812.646484"/>
    <use xlink:href="#DejaVuSans-5f" x="853.759766"/>
    <use xlink:href="#DejaVuSans-73" x="903.759766"/>
    <use xlink:href="#DejaVuSans-75" x="955.859375"/>
    <use xlink:href="#DejaVuSans-6d" x="1019.238281"/>
    <use xlink:href="#DejaVuSans-6d" x="1116.650391"/>
    <use xlink:href="#DejaVuSans-65" x="1214.0625"/>
    <use xlink:href="#DejaVuSans-72" x="1275.585938"/>
   </g>
  </g>
 </g>
 <defs>
  <clipPath id="p49e9cde0f9">
   <rect x="57.6" y="41.472" width="357.12" height="78.268235"/>
  </clipPath>
  <clipPath id="p751bf91bf3">
   <rect x="57.6" y="135.393882" width="357.12" height="78.268235"/>
  </clipPath>
  <clipPath id="pab6a6da12d">
   <rect x="57.6" y="229.315765" width="357.12" height="78.268235"/>
  </clipPath>
 </defs>
</svg>
