<?xml version="1.0" encoding="utf-8" standalone="no"?>
<!DOCTYPE svg PUBLIC "-//W3C//DTD SVG 1.1//EN"
  "http://www.w3.org/Graphics/SVG/1.1/DTD/svg11.dtd">
<svg xmlns:xlink="http://www.w3.org/1999/xlink" width="460.8pt" height="345.6pt" viewBox="0 0 460.8 345.6" xmlns="http://www.w3.org/2000/svg" version="1.1">
 <metadata>
  <rdf:RDF xmlns:dc="http://purl.org/dc/elements/1.1/" xmlns:cc="http://creativecommons.org/ns#" xmlns:rdf="http://www.w3.org/1999/02/22-rdf-syntax-ns#">
   <cc:Work>
    <dc:type rdf:resource="http://purl.org/dc/dcmitype/StillImage"/>
    <dc:date>2023-04-08T20:52:07.435010</dc:date>
    <dc:format>image/svg+xml</dc:format>
    <dc:creator>
     <cc:Agent>
      <dc:title>Matplotlib v3.7.1, https://matplotlib.org/</dc:title>
     </cc:Agent>
    </dc:creator>
   </cc:Work>
  </rdf:RDF>
 </metadata>
 <defs>
  <style type="text/css">*{stroke-linejoin: round; stroke-linecap: butt}</style>
 </defs>
 <g id="figure_1">
  <g id="patch_1">
   <path d="M 0 345.6 
L 460.8 345.6 
L 460.8 0 
L 0 0 
z
" style="fill: #ffffff"/>
  </g>
  <g id="axes_1">
   <g id="patch_2">
    <path d="M 57.6 119.740235 
L 414.72 119.740235 
L 414.72 41.472 
L 57.6 41.472 
z
" style="fill: #ffffff"/>
   </g>
   <g id="matplotlib.axis_1">
    <g id="xtick_1">
     <g id="line2d_1">
      <defs>
       <path id="m22f1d4c1fb" d="M 0 0 
L 0 3.5 
" style="stroke: #000000; stroke-width: 0.8"/>
      </defs>
      <g>
       <use xlink:href="#m22f1d4c1fb" x="73.832727" y="119.740235" style="stroke: #000000; stroke-width: 0.8"/>
      </g>
     </g>
     <g id="text_1">
      <!-- 0 -->
      <g transform="translate(70.651477 134.338673) scale(0.1 -0.1)">
       <defs>
        <path id="DejaVuSans-30" d="M 2034 4250 
Q 1547 4250 1301 3770 
Q 1056 3291 1056 2328 
Q 1056 1369 1301 889 
Q 1547 409 2034 409 
Q 2525 409 2770 889 
Q 3016 1369 3016 2328 
Q 3016 3291 2770 3770 
Q 2525 4250 2034 4250 
z
M 2034 4750 
Q 2819 4750 3233 4129 
Q 3647 3509 3647 2328 
Q 3647 1150 3233 529 
Q 2819 -91 2034 -91 
Q 1250 -91 836 529 
Q 422 1150 422 2328 
Q 422 3509 836 4129 
Q 1250 4750 2034 4750 
z
" transform="scale(0.015625)"/>
       </defs>
       <use xlink:href="#DejaVuSans-30"/>
      </g>
     </g>
    </g>
    <g id="xtick_2">
     <g id="line2d_2">
      <g>
       <use xlink:href="#m22f1d4c1fb" x="128.017074" y="119.740235" style="stroke: #000000; stroke-width: 0.8"/>
      </g>
     </g>
     <g id="text_2">
      <!-- 5 -->
      <g transform="translate(124.835824 134.338673) scale(0.1 -0.1)">
       <defs>
        <path id="DejaVuSans-35" d="M 691 4666 
L 3169 4666 
L 3169 4134 
L 1269 4134 
L 1269 2991 
Q 1406 3038 1543 3061 
Q 1681 3084 1819 3084 
Q 2600 3084 3056 2656 
Q 3513 2228 3513 1497 
Q 3513 744 3044 326 
Q 2575 -91 1722 -91 
Q 1428 -91 1123 -41 
Q 819 9 494 109 
L 494 744 
Q 775 591 1075 516 
Q 1375 441 1709 441 
Q 2250 441 2565 725 
Q 2881 1009 2881 1497 
Q 2881 1984 2565 2268 
Q 2250 2553 1709 2553 
Q 1456 2553 1204 2497 
Q 953 2441 691 2322 
L 691 4666 
z
" transform="scale(0.015625)"/>
       </defs>
       <use xlink:href="#DejaVuSans-35"/>
      </g>
     </g>
    </g>
    <g id="xtick_3">
     <g id="line2d_3">
      <g>
       <use xlink:href="#m22f1d4c1fb" x="182.201421" y="119.740235" style="stroke: #000000; stroke-width: 0.8"/>
      </g>
     </g>
     <g id="text_3">
      <!-- 10 -->
      <g transform="translate(175.838921 134.338673) scale(0.1 -0.1)">
       <defs>
        <path id="DejaVuSans-31" d="M 794 531 
L 1825 531 
L 1825 4091 
L 703 3866 
L 703 4441 
L 1819 4666 
L 2450 4666 
L 2450 531 
L 3481 531 
L 3481 0 
L 794 0 
L 794 531 
z
" transform="scale(0.015625)"/>
       </defs>
       <use xlink:href="#DejaVuSans-31"/>
       <use xlink:href="#DejaVuSans-30" x="63.623047"/>
      </g>
     </g>
    </g>
    <g id="xtick_4">
     <g id="line2d_4">
      <g>
       <use xlink:href="#m22f1d4c1fb" x="236.385768" y="119.740235" style="stroke: #000000; stroke-width: 0.8"/>
      </g>
     </g>
     <g id="text_4">
      <!-- 15 -->
      <g transform="translate(230.023268 134.338673) scale(0.1 -0.1)">
       <use xlink:href="#DejaVuSans-31"/>
       <use xlink:href="#DejaVuSans-35" x="63.623047"/>
      </g>
     </g>
    </g>
    <g id="xtick_5">
     <g id="line2d_5">
      <g>
       <use xlink:href="#m22f1d4c1fb" x="290.570115" y="119.740235" style="stroke: #000000; stroke-width: 0.8"/>
      </g>
     </g>
     <g id="text_5">
      <!-- 20 -->
      <g transform="translate(284.207615 134.338673) scale(0.1 -0.1)">
       <defs>
        <path id="DejaVuSans-32" d="M 1228 531 
L 3431 531 
L 3431 0 
L 469 0 
L 469 531 
Q 828 903 1448 1529 
Q 2069 2156 2228 2338 
Q 2531 2678 2651 2914 
Q 2772 3150 2772 3378 
Q 2772 3750 2511 3984 
Q 2250 4219 1831 4219 
Q 1534 4219 1204 4116 
Q 875 4013 500 3803 
L 500 4441 
Q 881 4594 1212 4672 
Q 1544 4750 1819 4750 
Q 2544 4750 2975 4387 
Q 3406 4025 3406 3419 
Q 3406 3131 3298 2873 
Q 3191 2616 2906 2266 
Q 2828 2175 2409 1742 
Q 1991 1309 1228 531 
z
" transform="scale(0.015625)"/>
       </defs>
       <use xlink:href="#DejaVuSans-32"/>
       <use xlink:href="#DejaVuSans-30" x="63.623047"/>
      </g>
     </g>
    </g>
    <g id="xtick_6">
     <g id="line2d_6">
      <g>
       <use xlink:href="#m22f1d4c1fb" x="344.754462" y="119.740235" style="stroke: #000000; stroke-width: 0.8"/>
      </g>
     </g>
     <g id="text_6">
      <!-- 25 -->
      <g transform="translate(338.391962 134.338673) scale(0.1 -0.1)">
       <use xlink:href="#DejaVuSans-32"/>
       <use xlink:href="#DejaVuSans-35" x="63.623047"/>
      </g>
     </g>
    </g>
    <g id="xtick_7">
     <g id="line2d_7">
      <g>
       <use xlink:href="#m22f1d4c1fb" x="398.938809" y="119.740235" style="stroke: #000000; stroke-width: 0.8"/>
      </g>
     </g>
     <g id="text_7">
      <!-- 30 -->
      <g transform="translate(392.576309 134.338673) scale(0.1 -0.1)">
       <defs>
        <path id="DejaVuSans-33" d="M 2597 2516 
Q 3050 2419 3304 2112 
Q 3559 1806 3559 1356 
Q 3559 666 3084 287 
Q 2609 -91 1734 -91 
Q 1441 -91 1130 -33 
Q 819 25 488 141 
L 488 750 
Q 750 597 1062 519 
Q 1375 441 1716 441 
Q 2309 441 2620 675 
Q 2931 909 2931 1356 
Q 2931 1769 2642 2001 
Q 2353 2234 1838 2234 
L 1294 2234 
L 1294 2753 
L 1863 2753 
Q 2328 2753 2575 2939 
Q 2822 3125 2822 3475 
Q 2822 3834 2567 4026 
Q 2313 4219 1838 4219 
Q 1578 4219 1281 4162 
Q 984 4106 628 3988 
L 628 4550 
Q 988 4650 1302 4700 
Q 1616 4750 1894 4750 
Q 2613 4750 3031 4423 
Q 3450 4097 3450 3541 
Q 3450 3153 3228 2886 
Q 3006 2619 2597 2516 
z
" transform="scale(0.015625)"/>
       </defs>
       <use xlink:href="#DejaVuSans-33"/>
       <use xlink:href="#DejaVuSans-30" x="63.623047"/>
      </g>
     </g>
    </g>
   </g>
   <g id="matplotlib.axis_2">
    <g id="ytick_1">
     <g id="line2d_8">
      <defs>
       <path id="m64ffca02f5" d="M 0 0 
L -3.5 0 
" style="stroke: #000000; stroke-width: 0.8"/>
      </defs>
      <g>
       <use xlink:href="#m64ffca02f5" x="57.6" y="102.49933" style="stroke: #000000; stroke-width: 0.8"/>
      </g>
     </g>
     <g id="text_8">
      <!-- 0 -->
      <g transform="translate(44.2375 106.298549) scale(0.1 -0.1)">
       <use xlink:href="#DejaVuSans-30"/>
      </g>
     </g>
    </g>
    <g id="ytick_2">
     <g id="line2d_9">
      <g>
       <use xlink:href="#m64ffca02f5" x="57.6" y="75.132814" style="stroke: #000000; stroke-width: 0.8"/>
      </g>
     </g>
     <g id="text_9">
      <!-- 10 -->
      <g transform="translate(37.875 78.932033) scale(0.1 -0.1)">
       <use xlink:href="#DejaVuSans-31"/>
       <use xlink:href="#DejaVuSans-30" x="63.623047"/>
      </g>
     </g>
    </g>
    <g id="ytick_3">
     <g id="line2d_10">
      <g>
       <use xlink:href="#m64ffca02f5" x="57.6" y="47.766299" style="stroke: #000000; stroke-width: 0.8"/>
      </g>
     </g>
     <g id="text_10">
      <!-- 20 -->
      <g transform="translate(37.875 51.565517) scale(0.1 -0.1)">
       <use xlink:href="#DejaVuSans-32"/>
       <use xlink:href="#DejaVuSans-30" x="63.623047"/>
      </g>
     </g>
    </g>
   </g>
   <g id="line2d_11">
    <path d="M 73.832727 99.762679 
L 74.284263 99.762679 
L 74.7358 102.49933 
L 75.638872 102.49933 
L 76.090408 97.026027 
L 76.541945 97.026027 
L 76.993481 91.552724 
L 77.445017 91.552724 
L 77.896553 88.816072 
L 78.34809 91.552724 
L 78.799626 91.552724 
L 79.251162 94.289376 
L 79.702698 88.816072 
L 81.960379 102.49933 
L 82.411916 102.49933 
L 82.863452 105.235982 
L 83.314988 105.235982 
L 83.766524 107.972633 
L 84.669597 102.49933 
L 85.572669 75.132814 
L 86.475742 69.659511 
L 86.927278 61.449557 
L 87.83035 55.976253 
L 88.281886 55.976253 
L 88.733423 58.712905 
L 89.184959 64.186208 
L 90.088031 94.289376 
L 90.539568 97.026027 
L 90.991104 102.49933 
L 91.44264 105.235982 
L 92.797249 97.026027 
L 93.248785 97.026027 
L 93.700321 94.289376 
L 94.151857 97.026027 
L 95.958002 97.026027 
L 96.861075 102.49933 
L 97.312611 102.49933 
L 97.764147 105.235982 
L 98.215683 105.235982 
L 98.66722 107.972633 
L 99.570292 102.49933 
L 100.021828 88.816072 
L 100.473365 88.816072 
L 100.924901 97.026027 
L 102.731046 107.972633 
L 103.182582 97.026027 
L 103.634118 91.552724 
L 105.440263 91.552724 
L 106.343335 86.079421 
L 106.794872 86.079421 
L 108.14948 94.289376 
L 108.601017 86.079421 
L 109.052553 88.816072 
L 109.504089 83.342769 
L 109.955625 83.342769 
L 110.407161 88.816072 
L 110.858698 91.552724 
L 111.310234 91.552724 
L 111.76177 94.289376 
L 112.213306 94.289376 
L 112.664843 88.816072 
L 113.116379 86.079421 
L 113.567915 80.606118 
L 114.019451 72.396163 
L 114.922524 61.449557 
L 115.37406 58.712905 
L 115.825596 58.712905 
L 116.277132 64.186208 
L 116.728669 64.186208 
L 117.180205 61.449557 
L 117.631741 66.92286 
L 118.534814 88.816072 
L 118.98635 94.289376 
L 119.437886 97.026027 
L 120.792495 97.026027 
L 121.695567 102.49933 
L 122.147103 102.49933 
L 122.59864 105.235982 
L 123.050176 105.235982 
L 123.953248 110.709285 
L 124.404784 102.49933 
L 124.856321 105.235982 
L 125.307857 94.289376 
L 125.759393 86.079421 
L 126.210929 80.606118 
L 127.114002 97.026027 
L 128.017074 102.49933 
L 128.920147 102.49933 
L 129.371683 97.026027 
L 130.274755 102.49933 
L 130.726292 102.49933 
L 131.177828 105.235982 
L 131.629364 105.235982 
L 132.0809 94.289376 
L 132.532436 86.079421 
L 132.983973 80.606118 
L 134.790118 69.659511 
L 135.241654 80.606118 
L 136.144726 91.552724 
L 136.596262 88.816072 
L 137.499335 77.869466 
L 138.402407 77.869466 
L 138.853944 80.606118 
L 139.757016 91.552724 
L 140.208552 83.342769 
L 141.111625 77.869466 
L 141.563161 88.816072 
L 142.014697 94.289376 
L 142.466233 97.026027 
L 143.369306 97.026027 
L 143.820842 102.49933 
L 145.626987 102.49933 
L 146.078523 105.235982 
L 146.981596 105.235982 
L 148.336204 113.445937 
L 148.787741 102.49933 
L 149.239277 88.816072 
L 149.690813 80.606118 
L 151.045422 64.186208 
L 151.496958 72.396163 
L 152.40003 77.869466 
L 152.851567 77.869466 
L 153.303103 80.606118 
L 153.754639 86.079421 
L 154.206175 86.079421 
L 155.109248 91.552724 
L 156.463856 91.552724 
L 156.915393 94.289376 
L 157.366929 91.552724 
L 157.818465 94.289376 
L 158.721537 94.289376 
L 159.173074 88.816072 
L 159.62461 86.079421 
L 161.430755 97.026027 
L 162.333827 97.026027 
L 163.2369 102.49933 
L 163.688436 102.49933 
L 164.139972 105.235982 
L 164.591508 94.289376 
L 165.043045 86.079421 
L 165.494581 80.606118 
L 167.300726 69.659511 
L 167.752262 61.449557 
L 168.655334 55.976253 
L 169.106871 55.976253 
L 169.558407 58.712905 
L 170.009943 64.186208 
L 170.913016 94.289376 
L 171.816088 99.762679 
L 172.71916 110.709285 
L 173.170697 110.709285 
L 173.622233 113.445937 
L 174.976842 113.445937 
L 175.428378 116.182588 
L 175.879914 116.182588 
L 176.782986 88.816072 
L 177.234523 94.289376 
L 177.686059 97.026027 
L 178.137595 102.49933 
L 178.589131 99.762679 
L 179.040668 99.762679 
L 179.492204 97.026027 
L 179.94374 97.026027 
L 180.395276 102.49933 
L 182.201421 102.49933 
L 183.104494 107.972633 
L 183.55603 97.026027 
L 184.007566 83.342769 
L 184.459102 77.869466 
L 184.910639 80.606118 
L 185.362175 80.606118 
L 185.813711 86.079421 
L 186.265247 97.026027 
L 187.16832 97.026027 
L 187.619856 99.762679 
L 188.071392 99.762679 
L 188.522928 97.026027 
L 188.974465 91.552724 
L 189.426001 91.552724 
L 190.329073 97.026027 
L 191.232146 86.079421 
L 191.683682 94.289376 
L 192.135218 97.026027 
L 192.586754 94.289376 
L 193.038291 97.026027 
L 193.941363 97.026027 
L 194.392899 91.552724 
L 197.102117 91.552724 
L 198.005189 86.079421 
L 199.811334 86.079421 
L 200.26287 88.816072 
L 200.714406 88.816072 
L 201.617479 77.869466 
L 202.069015 80.606118 
L 202.520551 80.606118 
L 202.972087 88.816072 
L 203.87516 72.396163 
L 204.778232 61.449557 
L 206.132841 94.289376 
L 206.584377 88.816072 
L 207.035914 91.552724 
L 208.842058 91.552724 
L 209.293595 88.816072 
L 209.745131 80.606118 
L 210.648203 75.132814 
L 211.09974 75.132814 
L 212.002812 69.659511 
L 212.905884 58.712905 
L 213.357421 55.976253 
L 213.808957 61.449557 
L 214.260493 69.659511 
L 214.712029 66.92286 
L 215.615102 55.976253 
L 216.066638 55.976253 
L 216.518174 53.239602 
L 216.96971 53.239602 
L 217.421247 58.712905 
L 217.872783 69.659511 
L 218.324319 75.132814 
L 218.775855 61.449557 
L 219.227392 66.92286 
L 219.678928 69.659511 
L 220.130464 75.132814 
L 220.582 61.449557 
L 221.033536 64.186208 
L 221.485073 58.712905 
L 221.936609 69.659511 
L 222.388145 75.132814 
L 222.839681 77.869466 
L 224.645826 77.869466 
L 225.097362 69.659511 
L 225.548899 75.132814 
L 226.000435 77.869466 
L 226.903507 88.816072 
L 228.258116 97.026027 
L 228.709652 97.026027 
L 229.161189 86.079421 
L 230.064261 61.449557 
L 230.967333 66.92286 
L 231.41887 61.449557 
L 232.321942 66.92286 
L 232.773478 66.92286 
L 233.676551 55.976253 
L 234.128087 58.712905 
L 234.579623 64.186208 
L 235.031159 64.186208 
L 235.482696 66.92286 
L 235.934232 66.92286 
L 236.837304 72.396163 
L 237.288841 66.92286 
L 237.740377 69.659511 
L 238.191913 75.132814 
L 238.643449 72.396163 
L 239.094985 75.132814 
L 239.546522 72.396163 
L 239.998058 66.92286 
L 240.449594 64.186208 
L 240.90113 69.659511 
L 241.352667 77.869466 
L 241.804203 80.606118 
L 242.255739 80.606118 
L 242.707275 86.079421 
L 243.158811 88.816072 
L 244.51342 88.816072 
L 246.319565 77.869466 
L 247.222638 77.869466 
L 248.577246 86.079421 
L 249.028782 86.079421 
L 249.931855 97.026027 
L 250.383391 86.079421 
L 250.834927 72.396163 
L 251.286464 69.659511 
L 252.189536 69.659511 
L 252.641072 66.92286 
L 253.544145 55.976253 
L 254.898753 55.976253 
L 255.35029 66.92286 
L 255.801826 66.92286 
L 256.253362 69.659511 
L 257.156434 69.659511 
L 257.607971 66.92286 
L 258.059507 69.659511 
L 258.511043 75.132814 
L 259.414116 80.606118 
L 259.865652 80.606118 
L 260.317188 83.342769 
L 260.768724 75.132814 
L 262.123333 58.712905 
L 263.026405 64.186208 
L 263.477942 61.449557 
L 263.929478 64.186208 
L 264.381014 58.712905 
L 264.83255 69.659511 
L 265.284086 75.132814 
L 267.090231 86.079421 
L 267.541768 86.079421 
L 267.993304 91.552724 
L 268.44484 91.552724 
L 268.896376 86.079421 
L 269.347913 77.869466 
L 269.799449 72.396163 
L 270.250985 64.186208 
L 270.702521 75.132814 
L 271.154057 75.132814 
L 271.605594 77.869466 
L 272.05713 72.396163 
L 272.508666 69.659511 
L 272.960202 72.396163 
L 273.411739 69.659511 
L 273.863275 72.396163 
L 274.314811 58.712905 
L 274.766347 55.976253 
L 275.66942 55.976253 
L 276.120956 53.239602 
L 277.024028 53.239602 
L 277.475565 50.50295 
L 278.378637 50.50295 
L 278.830173 47.766299 
L 279.281709 53.239602 
L 279.733246 55.976253 
L 280.184782 50.50295 
L 280.636318 53.239602 
L 281.539391 53.239602 
L 281.990927 47.766299 
L 282.442463 45.029647 
L 282.893999 55.976253 
L 283.345535 50.50295 
L 283.797072 50.50295 
L 284.248608 55.976253 
L 285.603217 55.976253 
L 286.054753 61.449557 
L 286.506289 58.712905 
L 286.957825 64.186208 
L 287.860898 58.712905 
L 288.312434 61.449557 
L 289.215506 55.976253 
L 289.667043 64.186208 
L 290.118579 64.186208 
L 290.570115 66.92286 
L 291.021651 64.186208 
L 291.473188 58.712905 
L 292.827796 50.50295 
L 293.279332 53.239602 
L 293.730869 50.50295 
L 294.182405 55.976253 
L 295.085477 77.869466 
L 295.537014 83.342769 
L 295.98855 80.606118 
L 296.440086 75.132814 
L 296.891622 77.869466 
L 297.343158 77.869466 
L 297.794695 72.396163 
L 298.246231 69.659511 
L 298.697767 69.659511 
L 299.149303 64.186208 
L 299.60084 75.132814 
L 300.052376 80.606118 
L 300.503912 80.606118 
L 300.955448 88.816072 
L 301.406984 94.289376 
L 301.858521 91.552724 
L 302.310057 97.026027 
L 302.761593 94.289376 
L 303.213129 83.342769 
L 303.664666 77.869466 
L 304.567738 77.869466 
L 305.019274 75.132814 
L 305.47081 80.606118 
L 305.922347 83.342769 
L 306.373883 88.816072 
L 306.825419 86.079421 
L 307.276955 86.079421 
L 307.728492 83.342769 
L 308.180028 86.079421 
L 308.631564 75.132814 
L 309.0831 66.92286 
L 309.986173 66.92286 
L 310.889245 61.449557 
L 312.243854 94.289376 
L 312.69539 88.816072 
L 313.146926 80.606118 
L 314.953071 91.552724 
L 315.856144 91.552724 
L 316.30768 88.816072 
L 316.759216 83.342769 
L 317.210752 80.606118 
L 317.662289 80.606118 
L 318.113825 77.869466 
L 319.016897 77.869466 
L 319.468433 80.606118 
L 319.91997 86.079421 
L 320.371506 86.079421 
L 320.823042 91.552724 
L 321.726115 91.552724 
L 322.177651 88.816072 
L 323.532259 88.816072 
L 324.435332 94.289376 
L 324.886868 94.289376 
L 325.338404 88.816072 
L 325.789941 88.816072 
L 326.241477 83.342769 
L 326.693013 88.816072 
L 327.144549 97.026027 
L 327.596085 102.49933 
L 329.40223 102.49933 
L 329.853767 99.762679 
L 330.305303 99.762679 
L 330.756839 97.026027 
L 333.01452 97.026027 
L 333.466056 94.289376 
L 333.917593 88.816072 
L 334.369129 80.606118 
L 335.272201 75.132814 
L 335.723738 69.659511 
L 336.175274 75.132814 
L 337.078346 97.026027 
L 337.529882 97.026027 
L 337.981419 99.762679 
L 338.432955 97.026027 
L 338.884491 88.816072 
L 339.336027 83.342769 
L 340.2391 66.92286 
L 340.690636 61.449557 
L 341.593708 55.976253 
L 342.045245 61.449557 
L 342.496781 58.712905 
L 344.754462 58.712905 
L 345.205998 55.976253 
L 345.657534 58.712905 
L 346.109071 58.712905 
L 346.560607 61.449557 
L 347.463679 86.079421 
L 347.915216 94.289376 
L 348.818288 99.762679 
L 349.72136 99.762679 
L 350.172897 97.026027 
L 351.075969 97.026027 
L 351.979042 102.49933 
L 352.430578 107.972633 
L 352.882114 110.709285 
L 353.33365 102.49933 
L 354.236723 91.552724 
L 354.688259 83.342769 
L 355.139795 80.606118 
L 355.591331 80.606118 
L 356.042868 83.342769 
L 356.494404 80.606118 
L 356.94594 80.606118 
L 357.397476 77.869466 
L 358.300549 77.869466 
L 358.752085 69.659511 
L 359.203621 66.92286 
L 359.655157 75.132814 
L 360.106694 69.659511 
L 361.009766 69.659511 
L 361.461302 64.186208 
L 362.815911 64.186208 
L 363.267447 69.659511 
L 363.718983 61.449557 
L 364.622056 55.976253 
L 365.073592 58.712905 
L 365.525128 64.186208 
L 366.428201 94.289376 
L 366.879737 97.026027 
L 367.331273 102.49933 
L 367.782809 105.235982 
L 369.137418 97.026027 
L 370.040491 97.026027 
L 370.943563 102.49933 
L 371.395099 102.49933 
L 371.846635 107.972633 
L 372.298172 107.972633 
L 372.749708 102.49933 
L 373.201244 102.49933 
L 373.65278 105.235982 
L 374.104317 102.49933 
L 374.555853 97.026027 
L 375.007389 88.816072 
L 375.458925 88.816072 
L 375.910461 80.606118 
L 377.716606 69.659511 
L 378.168143 72.396163 
L 379.071215 72.396163 
L 379.522751 77.869466 
L 380.425824 83.342769 
L 380.87736 88.816072 
L 381.328896 91.552724 
L 381.780432 91.552724 
L 382.231969 88.816072 
L 382.683505 91.552724 
L 383.135041 91.552724 
L 383.586577 94.289376 
L 384.038114 88.816072 
L 385.392722 88.816072 
L 385.844258 80.606118 
L 387.650403 69.659511 
L 388.10194 69.659511 
L 388.553476 72.396163 
L 389.005012 77.869466 
L 389.908084 83.342769 
L 390.359621 88.816072 
L 392.165766 99.762679 
L 392.617302 99.762679 
L 393.068838 102.49933 
L 394.423447 102.49933 
L 396.681128 116.182588 
L 397.5842 116.182588 
L 398.487273 88.816072 
L 398.487273 88.816072 
" clip-path="url(#pc40062a6d7)" style="fill: none; stroke: #1f77b4; stroke-width: 1.5; stroke-linecap: square"/>
   </g>
   <g id="patch_3">
    <path d="M 57.6 119.740235 
L 57.6 41.472 
" style="fill: none; stroke: #000000; stroke-width: 0.8; stroke-linejoin: miter; stroke-linecap: square"/>
   </g>
   <g id="patch_4">
    <path d="M 414.72 119.740235 
L 414.72 41.472 
" style="fill: none; stroke: #000000; stroke-width: 0.8; stroke-linejoin: miter; stroke-linecap: square"/>
   </g>
   <g id="patch_5">
    <path d="M 57.6 119.740235 
L 414.72 119.740235 
" style="fill: none; stroke: #000000; stroke-width: 0.8; stroke-linejoin: miter; stroke-linecap: square"/>
   </g>
   <g id="patch_6">
    <path d="M 57.6 41.472 
L 414.72 41.472 
" style="fill: none; stroke: #000000; stroke-width: 0.8; stroke-linejoin: miter; stroke-linecap: square"/>
   </g>
  </g>
  <g id="axes_2">
   <g id="patch_7">
    <path d="M 57.6 213.662118 
L 414.72 213.662118 
L 414.72 135.393882 
L 57.6 135.393882 
z
" style="fill: #ffffff"/>
   </g>
   <g id="matplotlib.axis_3">
    <g id="xtick_8">
     <g id="line2d_12">
      <g>
       <use xlink:href="#m22f1d4c1fb" x="73.832727" y="213.662118" style="stroke: #000000; stroke-width: 0.8"/>
      </g>
     </g>
     <g id="text_11">
      <!-- 0 -->
      <g transform="translate(70.651477 228.260555) scale(0.1 -0.1)">
       <use xlink:href="#DejaVuSans-30"/>
      </g>
     </g>
    </g>
    <g id="xtick_9">
     <g id="line2d_13">
      <g>
       <use xlink:href="#m22f1d4c1fb" x="128.017074" y="213.662118" style="stroke: #000000; stroke-width: 0.8"/>
      </g>
     </g>
     <g id="text_12">
      <!-- 5 -->
      <g transform="translate(124.835824 228.260555) scale(0.1 -0.1)">
       <use xlink:href="#DejaVuSans-35"/>
      </g>
     </g>
    </g>
    <g id="xtick_10">
     <g id="line2d_14">
      <g>
       <use xlink:href="#m22f1d4c1fb" x="182.201421" y="213.662118" style="stroke: #000000; stroke-width: 0.8"/>
      </g>
     </g>
     <g id="text_13">
      <!-- 10 -->
      <g transform="translate(175.838921 228.260555) scale(0.1 -0.1)">
       <use xlink:href="#DejaVuSans-31"/>
       <use xlink:href="#DejaVuSans-30" x="63.623047"/>
      </g>
     </g>
    </g>
    <g id="xtick_11">
     <g id="line2d_15">
      <g>
       <use xlink:href="#m22f1d4c1fb" x="236.385768" y="213.662118" style="stroke: #000000; stroke-width: 0.8"/>
      </g>
     </g>
     <g id="text_14">
      <!-- 15 -->
      <g transform="translate(230.023268 228.260555) scale(0.1 -0.1)">
       <use xlink:href="#DejaVuSans-31"/>
       <use xlink:href="#DejaVuSans-35" x="63.623047"/>
      </g>
     </g>
    </g>
    <g id="xtick_12">
     <g id="line2d_16">
      <g>
       <use xlink:href="#m22f1d4c1fb" x="290.570115" y="213.662118" style="stroke: #000000; stroke-width: 0.8"/>
      </g>
     </g>
     <g id="text_15">
      <!-- 20 -->
      <g transform="translate(284.207615 228.260555) scale(0.1 -0.1)">
       <use xlink:href="#DejaVuSans-32"/>
       <use xlink:href="#DejaVuSans-30" x="63.623047"/>
      </g>
     </g>
    </g>
    <g id="xtick_13">
     <g id="line2d_17">
      <g>
       <use xlink:href="#m22f1d4c1fb" x="344.754462" y="213.662118" style="stroke: #000000; stroke-width: 0.8"/>
      </g>
     </g>
     <g id="text_16">
      <!-- 25 -->
      <g transform="translate(338.391962 228.260555) scale(0.1 -0.1)">
       <use xlink:href="#DejaVuSans-32"/>
       <use xlink:href="#DejaVuSans-35" x="63.623047"/>
      </g>
     </g>
    </g>
    <g id="xtick_14">
     <g id="line2d_18">
      <g>
       <use xlink:href="#m22f1d4c1fb" x="398.938809" y="213.662118" style="stroke: #000000; stroke-width: 0.8"/>
      </g>
     </g>
     <g id="text_17">
      <!-- 30 -->
      <g transform="translate(392.576309 228.260555) scale(0.1 -0.1)">
       <use xlink:href="#DejaVuSans-33"/>
       <use xlink:href="#DejaVuSans-30" x="63.623047"/>
      </g>
     </g>
    </g>
   </g>
   <g id="matplotlib.axis_4">
    <g id="ytick_4">
     <g id="line2d_19">
      <g>
       <use xlink:href="#m64ffca02f5" x="57.6" y="185.762675" style="stroke: #000000; stroke-width: 0.8"/>
      </g>
     </g>
     <g id="text_18">
      <!-- 50 -->
      <g transform="translate(37.875 189.561894) scale(0.1 -0.1)">
       <use xlink:href="#DejaVuSans-35"/>
       <use xlink:href="#DejaVuSans-30" x="63.623047"/>
      </g>
     </g>
    </g>
    <g id="ytick_5">
     <g id="line2d_20">
      <g>
       <use xlink:href="#m64ffca02f5" x="57.6" y="138.951529" style="stroke: #000000; stroke-width: 0.8"/>
      </g>
     </g>
     <g id="text_19">
      <!-- 100 -->
      <g transform="translate(31.5125 142.750748) scale(0.1 -0.1)">
       <use xlink:href="#DejaVuSans-31"/>
       <use xlink:href="#DejaVuSans-30" x="63.623047"/>
       <use xlink:href="#DejaVuSans-30" x="127.246094"/>
      </g>
     </g>
    </g>
   </g>
   <g id="line2d_21">
    <path d="M 73.832727 176.400446 
L 74.284263 172.655554 
L 75.187336 168.910663 
L 75.638872 174.528 
L 76.090408 176.400446 
L 76.993481 191.380012 
L 77.896553 198.869796 
L 78.34809 198.869796 
L 78.799626 196.99735 
L 79.251162 191.380012 
L 79.702698 196.99735 
L 80.154234 191.380012 
L 80.605771 187.635121 
L 81.057307 182.017783 
L 81.508843 170.783108 
L 81.960379 155.803542 
L 82.863452 140.823975 
L 83.314988 138.951529 
L 83.766524 138.951529 
L 84.21806 142.696421 
L 84.669597 155.803542 
L 85.572669 193.252458 
L 86.024205 198.869796 
L 86.475742 198.869796 
L 86.927278 204.487133 
L 87.378814 208.232025 
L 87.83035 210.104471 
L 89.184959 210.104471 
L 89.636495 202.614687 
L 90.539568 170.783108 
L 90.991104 159.548433 
L 91.44264 153.931096 
L 91.894176 153.931096 
L 92.797249 165.165771 
L 93.248785 174.528 
L 93.700321 178.272892 
L 94.151857 176.400446 
L 94.603394 180.145337 
L 95.05493 174.528 
L 95.506466 176.400446 
L 95.958002 180.145337 
L 96.409539 170.783108 
L 96.861075 155.803542 
L 97.764147 140.823975 
L 98.215683 138.951529 
L 98.66722 138.951529 
L 99.118756 142.696421 
L 99.570292 155.803542 
L 100.021828 176.400446 
L 100.473365 178.272892 
L 101.376437 150.186204 
L 101.827973 142.696421 
L 102.279509 138.951529 
L 102.731046 138.951529 
L 103.182582 146.441313 
L 103.634118 155.803542 
L 104.085654 153.931096 
L 104.988727 146.441313 
L 105.440263 144.568867 
L 106.343335 148.313759 
L 106.794872 144.568867 
L 107.246408 142.696421 
L 107.697944 142.696421 
L 108.14948 138.951529 
L 109.052553 138.951529 
L 109.504089 144.568867 
L 109.955625 146.441313 
L 110.407161 142.696421 
L 111.310234 142.696421 
L 111.76177 138.951529 
L 112.213306 138.951529 
L 112.664843 146.441313 
L 113.116379 148.313759 
L 113.567915 155.803542 
L 114.019451 170.783108 
L 114.470987 182.017783 
L 114.922524 189.507567 
L 115.37406 195.124904 
L 115.825596 195.124904 
L 116.277132 193.252458 
L 117.180205 196.99735 
L 117.631741 195.124904 
L 118.083277 180.145337 
L 118.534814 157.675988 
L 118.98635 146.441313 
L 119.437886 142.696421 
L 120.792495 142.696421 
L 121.695567 138.951529 
L 124.856321 138.951529 
L 125.759393 174.528 
L 126.210929 182.017783 
L 126.662466 165.165771 
L 127.565538 144.568867 
L 128.017074 140.823975 
L 128.46861 138.951529 
L 128.920147 138.951529 
L 129.371683 153.931096 
L 129.823219 144.568867 
L 130.274755 140.823975 
L 130.726292 138.951529 
L 131.629364 138.951529 
L 132.532436 174.528 
L 132.983973 182.017783 
L 134.338581 198.869796 
L 134.790118 198.869796 
L 135.241654 183.890229 
L 135.69319 178.272892 
L 136.144726 165.165771 
L 136.596262 172.655554 
L 137.047799 178.272892 
L 137.499335 185.762675 
L 137.950871 185.762675 
L 138.402407 187.635121 
L 138.853944 183.890229 
L 139.30548 178.272892 
L 139.757016 165.165771 
L 140.208552 174.528 
L 140.660089 178.272892 
L 141.111625 180.145337 
L 141.563161 157.675988 
L 142.014697 146.441313 
L 142.91777 146.441313 
L 143.369306 150.186204 
L 144.723915 144.568867 
L 145.175451 144.568867 
L 145.626987 140.823975 
L 146.078523 138.951529 
L 148.336204 138.951529 
L 148.787741 146.441313 
L 149.239277 168.910663 
L 149.690813 176.400446 
L 150.142349 185.762675 
L 151.045422 193.252458 
L 151.496958 183.890229 
L 151.948494 183.890229 
L 152.40003 180.145337 
L 152.851567 174.528 
L 153.303103 167.038217 
L 153.754639 157.675988 
L 154.206175 155.803542 
L 154.657711 150.186204 
L 155.109248 146.441313 
L 156.01232 142.696421 
L 156.463856 138.951529 
L 158.721537 138.951529 
L 159.173074 146.441313 
L 159.62461 152.05865 
L 160.076146 144.568867 
L 160.527682 144.568867 
L 160.979219 148.313759 
L 161.430755 142.696421 
L 162.333827 142.696421 
L 163.2369 138.951529 
L 164.139972 138.951529 
L 165.043045 174.528 
L 165.494581 182.017783 
L 166.84919 198.869796 
L 167.300726 198.869796 
L 167.752262 204.487133 
L 168.203798 208.232025 
L 168.655334 210.104471 
L 170.009943 210.104471 
L 170.461479 202.614687 
L 171.364552 170.783108 
L 171.816088 168.910663 
L 172.71916 148.313759 
L 173.170697 142.696421 
L 173.622233 140.823975 
L 175.428378 140.823975 
L 175.879914 138.951529 
L 176.33145 152.05865 
L 176.782986 174.528 
L 177.686059 150.186204 
L 178.137595 144.568867 
L 178.589131 146.441313 
L 179.040668 146.441313 
L 179.94374 150.186204 
L 181.298349 144.568867 
L 181.749885 144.568867 
L 182.201421 140.823975 
L 182.652957 138.951529 
L 183.104494 138.951529 
L 184.007566 174.528 
L 184.459102 182.017783 
L 184.910639 170.783108 
L 185.362175 167.038217 
L 185.813711 159.548433 
L 186.265247 138.951529 
L 186.716783 140.823975 
L 187.16832 138.951529 
L 188.071392 138.951529 
L 188.522928 140.823975 
L 188.974465 146.441313 
L 189.426001 144.568867 
L 189.877537 148.313759 
L 190.329073 146.441313 
L 191.232146 163.293325 
L 191.683682 152.05865 
L 192.135218 146.441313 
L 193.038291 146.441313 
L 193.489827 138.951529 
L 193.941363 142.696421 
L 194.392899 152.05865 
L 194.844435 152.05865 
L 195.295972 150.186204 
L 195.747508 152.05865 
L 196.199044 150.186204 
L 196.65058 152.05865 
L 197.102117 150.186204 
L 198.005189 153.931096 
L 198.456725 157.675988 
L 198.908261 157.675988 
L 199.359798 159.548433 
L 199.811334 159.548433 
L 200.26287 155.803542 
L 200.714406 161.420879 
L 201.165943 174.528 
L 201.617479 182.017783 
L 202.069015 170.783108 
L 202.520551 167.038217 
L 202.972087 148.313759 
L 203.423624 155.803542 
L 203.87516 170.783108 
L 204.326696 182.017783 
L 204.778232 189.507567 
L 205.229769 182.017783 
L 205.681305 157.675988 
L 206.132841 142.696421 
L 206.584377 148.313759 
L 207.035914 142.696421 
L 207.48745 140.823975 
L 208.390522 140.823975 
L 208.842058 142.696421 
L 209.293595 148.313759 
L 209.745131 155.803542 
L 210.196667 168.910663 
L 210.648203 172.655554 
L 211.551276 176.400446 
L 212.002812 182.017783 
L 212.454348 185.762675 
L 212.905884 187.635121 
L 213.357421 191.380012 
L 213.808957 180.145337 
L 214.260493 159.548433 
L 214.712029 161.420879 
L 215.163566 168.910663 
L 215.615102 174.528 
L 216.518174 182.017783 
L 216.96971 182.017783 
L 217.872783 150.186204 
L 218.324319 150.186204 
L 218.775855 165.165771 
L 219.227392 153.931096 
L 219.678928 150.186204 
L 220.130464 150.186204 
L 220.582 165.165771 
L 221.033536 157.675988 
L 221.485073 168.910663 
L 221.936609 146.441313 
L 222.388145 138.951529 
L 223.742754 144.568867 
L 224.19429 144.568867 
L 224.645826 140.823975 
L 225.097362 157.675988 
L 226.451971 140.823975 
L 226.903507 138.951529 
L 228.709652 138.951529 
L 229.161189 142.696421 
L 229.612725 161.420879 
L 230.064261 174.528 
L 230.967333 157.675988 
L 231.41887 165.165771 
L 231.870406 157.675988 
L 232.321942 148.313759 
L 232.773478 146.441313 
L 233.676551 168.910663 
L 234.128087 152.05865 
L 234.579623 140.823975 
L 235.031159 138.951529 
L 235.482696 138.951529 
L 235.934232 140.823975 
L 236.385768 140.823975 
L 236.837304 144.568867 
L 237.288841 153.931096 
L 237.740377 150.186204 
L 238.191913 150.186204 
L 238.643449 152.05865 
L 239.094985 150.186204 
L 239.546522 152.05865 
L 239.998058 163.293325 
L 240.449594 165.165771 
L 241.804203 138.951529 
L 244.51342 138.951529 
L 244.964956 140.823975 
L 245.416493 144.568867 
L 245.868029 152.05865 
L 246.319565 157.675988 
L 246.771101 152.05865 
L 247.222638 153.931096 
L 247.674174 153.931096 
L 248.12571 150.186204 
L 248.577246 148.313759 
L 249.480319 140.823975 
L 249.931855 138.951529 
L 250.383391 142.696421 
L 250.834927 161.420879 
L 251.286464 170.783108 
L 251.738 167.038217 
L 252.641072 167.038217 
L 253.092608 178.272892 
L 253.995681 189.507567 
L 254.447217 189.507567 
L 254.898753 191.380012 
L 255.35029 174.528 
L 255.801826 170.783108 
L 256.253362 170.783108 
L 256.704898 167.038217 
L 257.156434 167.038217 
L 257.607971 168.910663 
L 258.059507 165.165771 
L 258.511043 152.05865 
L 258.962579 144.568867 
L 259.414116 138.951529 
L 260.317188 138.951529 
L 261.22026 142.696421 
L 262.123333 161.420879 
L 262.574869 163.293325 
L 263.026405 157.675988 
L 263.477942 163.293325 
L 263.929478 157.675988 
L 264.381014 168.910663 
L 264.83255 146.441313 
L 265.284086 138.951529 
L 267.090231 138.951529 
L 267.541768 140.823975 
L 267.993304 140.823975 
L 268.44484 142.696421 
L 269.347913 153.931096 
L 270.250985 178.272892 
L 270.702521 153.931096 
L 271.154057 157.675988 
L 271.605594 157.675988 
L 272.05713 165.165771 
L 272.508666 170.783108 
L 272.960202 167.038217 
L 273.411739 172.655554 
L 273.863275 168.910663 
L 274.314811 182.017783 
L 274.766347 183.890229 
L 275.217883 189.507567 
L 276.120956 193.252458 
L 277.024028 193.252458 
L 277.475565 195.124904 
L 277.927101 198.869796 
L 279.281709 193.252458 
L 279.733246 185.762675 
L 280.184782 189.507567 
L 280.636318 187.635121 
L 281.539391 187.635121 
L 281.990927 193.252458 
L 282.442463 195.124904 
L 282.893999 185.762675 
L 283.345535 189.507567 
L 283.797072 189.507567 
L 284.248608 182.017783 
L 284.700144 187.635121 
L 285.15168 196.99735 
L 285.603217 195.124904 
L 286.054753 189.507567 
L 286.506289 195.124904 
L 286.957825 191.380012 
L 287.409361 191.380012 
L 287.860898 193.252458 
L 288.312434 189.507567 
L 289.215506 193.252458 
L 289.667043 170.783108 
L 290.118579 163.293325 
L 290.570115 163.293325 
L 291.021651 170.783108 
L 291.473188 183.890229 
L 292.37626 191.380012 
L 292.827796 196.99735 
L 293.279332 198.869796 
L 293.730869 202.614687 
L 294.182405 198.869796 
L 294.633941 185.762675 
L 295.085477 161.420879 
L 295.537014 146.441313 
L 295.98855 148.313759 
L 296.440086 155.803542 
L 296.891622 155.803542 
L 297.343158 157.675988 
L 297.794695 163.293325 
L 298.246231 167.038217 
L 298.697767 168.910663 
L 299.149303 178.272892 
L 299.60084 153.931096 
L 300.052376 144.568867 
L 300.503912 148.313759 
L 300.955448 140.823975 
L 301.406984 138.951529 
L 301.858521 140.823975 
L 302.310057 138.951529 
L 302.761593 138.951529 
L 303.213129 144.568867 
L 303.664666 153.931096 
L 304.116202 152.05865 
L 304.567738 148.313759 
L 305.019274 153.931096 
L 305.47081 144.568867 
L 305.922347 140.823975 
L 306.373883 138.951529 
L 306.825419 138.951529 
L 307.276955 140.823975 
L 307.728492 144.568867 
L 308.180028 146.441313 
L 308.631564 163.293325 
L 309.0831 174.528 
L 309.534636 176.400446 
L 309.986173 174.528 
L 310.437709 183.890229 
L 310.889245 189.507567 
L 311.340781 182.017783 
L 311.792318 157.675988 
L 312.243854 142.696421 
L 312.69539 148.313759 
L 313.146926 155.803542 
L 314.049999 152.05865 
L 314.501535 144.568867 
L 314.953071 144.568867 
L 315.404607 142.696421 
L 315.856144 138.951529 
L 316.30768 138.951529 
L 316.759216 144.568867 
L 317.210752 152.05865 
L 317.662289 150.186204 
L 318.113825 152.05865 
L 318.565361 155.803542 
L 319.016897 155.803542 
L 319.468433 153.931096 
L 319.91997 148.313759 
L 320.823042 140.823975 
L 321.274578 142.696421 
L 321.726115 142.696421 
L 322.177651 148.313759 
L 322.629187 152.05865 
L 323.080723 150.186204 
L 323.532259 150.186204 
L 324.435332 142.696421 
L 324.886868 142.696421 
L 325.338404 148.313759 
L 325.789941 152.05865 
L 326.241477 172.655554 
L 326.693013 165.165771 
L 327.596085 144.568867 
L 328.047622 140.823975 
L 328.950694 140.823975 
L 329.40223 142.696421 
L 329.853767 153.931096 
L 330.756839 153.931096 
L 331.208375 159.548433 
L 331.659911 152.05865 
L 332.111448 170.783108 
L 332.562984 180.145337 
L 333.01452 174.528 
L 333.466056 174.528 
L 334.369129 189.507567 
L 335.272201 193.252458 
L 335.723738 196.99735 
L 336.175274 196.99735 
L 336.62681 185.762675 
L 337.078346 165.165771 
L 337.529882 155.803542 
L 337.981419 152.05865 
L 339.336027 168.910663 
L 340.2391 191.380012 
L 340.690636 198.869796 
L 341.142172 202.614687 
L 341.593708 204.487133 
L 342.045245 196.99735 
L 342.948317 200.742241 
L 343.399853 196.99735 
L 344.302926 200.742241 
L 344.754462 196.99735 
L 345.205998 196.99735 
L 345.657534 195.124904 
L 346.109071 196.99735 
L 346.560607 195.124904 
L 347.012143 185.762675 
L 347.463679 163.293325 
L 347.915216 152.05865 
L 348.366752 146.441313 
L 348.818288 142.696421 
L 349.269824 146.441313 
L 349.72136 146.441313 
L 350.172897 153.931096 
L 350.624433 157.675988 
L 351.075969 157.675988 
L 351.527505 150.186204 
L 351.979042 144.568867 
L 352.430578 140.823975 
L 352.882114 138.951529 
L 353.33365 138.951529 
L 353.785186 153.931096 
L 354.688259 174.528 
L 355.139795 178.272892 
L 355.591331 180.145337 
L 356.042868 172.655554 
L 356.494404 176.400446 
L 357.397476 180.145337 
L 357.849013 185.762675 
L 358.300549 187.635121 
L 358.752085 198.869796 
L 359.203621 200.742241 
L 359.655157 193.252458 
L 360.106694 196.99735 
L 360.55823 196.99735 
L 361.009766 200.742241 
L 361.461302 202.614687 
L 361.912839 200.742241 
L 362.815911 200.742241 
L 363.267447 198.869796 
L 363.718983 204.487133 
L 364.17052 208.232025 
L 364.622056 210.104471 
L 365.525128 210.104471 
L 365.976665 202.614687 
L 366.879737 170.783108 
L 367.331273 159.548433 
L 367.782809 153.931096 
L 368.234346 153.931096 
L 369.137418 165.165771 
L 369.588954 174.528 
L 370.040491 170.783108 
L 370.492027 168.910663 
L 370.943563 161.420879 
L 371.395099 163.293325 
L 371.846635 159.548433 
L 372.298172 159.548433 
L 372.749708 168.910663 
L 373.201244 167.038217 
L 373.65278 163.293325 
L 374.104317 167.038217 
L 375.007389 187.635121 
L 375.458925 187.635121 
L 375.910461 195.124904 
L 376.813534 202.614687 
L 377.26507 204.487133 
L 377.716606 208.232025 
L 378.168143 206.359579 
L 379.071215 206.359579 
L 379.974288 202.614687 
L 380.425824 198.869796 
L 380.87736 196.99735 
L 381.328896 191.380012 
L 382.231969 198.869796 
L 382.683505 198.869796 
L 383.135041 196.99735 
L 383.586577 191.380012 
L 384.038114 196.99735 
L 384.941186 193.252458 
L 385.392722 187.635121 
L 385.844258 195.124904 
L 386.747331 202.614687 
L 387.198867 204.487133 
L 387.650403 208.232025 
L 388.10194 208.232025 
L 389.456548 202.614687 
L 389.908084 198.869796 
L 390.359621 196.99735 
L 390.811157 191.380012 
L 391.262693 187.635121 
L 391.714229 182.017783 
L 392.165766 170.783108 
L 392.617302 167.038217 
L 393.520374 163.293325 
L 393.97191 159.548433 
L 394.423447 157.675988 
L 394.874983 153.931096 
L 395.326519 148.313759 
L 395.778055 146.441313 
L 396.229592 142.696421 
L 397.132664 138.951529 
L 397.5842 138.951529 
L 398.487273 176.400446 
L 398.487273 176.400446 
" clip-path="url(#p58a500795f)" style="fill: none; stroke: #1f77b4; stroke-width: 1.5; stroke-linecap: square"/>
   </g>
   <g id="patch_8">
    <path d="M 57.6 213.662118 
L 57.6 135.393882 
" style="fill: none; stroke: #000000; stroke-width: 0.8; stroke-linejoin: miter; stroke-linecap: square"/>
   </g>
   <g id="patch_9">
    <path d="M 414.72 213.662118 
L 414.72 135.393882 
" style="fill: none; stroke: #000000; stroke-width: 0.8; stroke-linejoin: miter; stroke-linecap: square"/>
   </g>
   <g id="patch_10">
    <path d="M 57.6 213.662118 
L 414.72 213.662118 
" style="fill: none; stroke: #000000; stroke-width: 0.8; stroke-linejoin: miter; stroke-linecap: square"/>
   </g>
   <g id="patch_11">
    <path d="M 57.6 135.393882 
L 414.72 135.393882 
" style="fill: none; stroke: #000000; stroke-width: 0.8; stroke-linejoin: miter; stroke-linecap: square"/>
   </g>
  </g>
  <g id="axes_3">
   <g id="patch_12">
    <path d="M 57.6 307.584 
L 414.72 307.584 
L 414.72 229.315765 
L 57.6 229.315765 
z
" style="fill: #ffffff"/>
   </g>
   <g id="matplotlib.axis_5">
    <g id="xtick_15">
     <g id="line2d_22">
      <g>
       <use xlink:href="#m22f1d4c1fb" x="73.832727" y="307.584" style="stroke: #000000; stroke-width: 0.8"/>
      </g>
     </g>
     <g id="text_20">
      <!-- 0 -->
      <g transform="translate(70.651477 322.182437) scale(0.1 -0.1)">
       <use xlink:href="#DejaVuSans-30"/>
      </g>
     </g>
    </g>
    <g id="xtick_16">
     <g id="line2d_23">
      <g>
       <use xlink:href="#m22f1d4c1fb" x="128.017074" y="307.584" style="stroke: #000000; stroke-width: 0.8"/>
      </g>
     </g>
     <g id="text_21">
      <!-- 5 -->
      <g transform="translate(124.835824 322.182437) scale(0.1 -0.1)">
       <use xlink:href="#DejaVuSans-35"/>
      </g>
     </g>
    </g>
    <g id="xtick_17">
     <g id="line2d_24">
      <g>
       <use xlink:href="#m22f1d4c1fb" x="182.201421" y="307.584" style="stroke: #000000; stroke-width: 0.8"/>
      </g>
     </g>
     <g id="text_22">
      <!-- 10 -->
      <g transform="translate(175.838921 322.182437) scale(0.1 -0.1)">
       <use xlink:href="#DejaVuSans-31"/>
       <use xlink:href="#DejaVuSans-30" x="63.623047"/>
      </g>
     </g>
    </g>
    <g id="xtick_18">
     <g id="line2d_25">
      <g>
       <use xlink:href="#m22f1d4c1fb" x="236.385768" y="307.584" style="stroke: #000000; stroke-width: 0.8"/>
      </g>
     </g>
     <g id="text_23">
      <!-- 15 -->
      <g transform="translate(230.023268 322.182437) scale(0.1 -0.1)">
       <use xlink:href="#DejaVuSans-31"/>
       <use xlink:href="#DejaVuSans-35" x="63.623047"/>
      </g>
     </g>
    </g>
    <g id="xtick_19">
     <g id="line2d_26">
      <g>
       <use xlink:href="#m22f1d4c1fb" x="290.570115" y="307.584" style="stroke: #000000; stroke-width: 0.8"/>
      </g>
     </g>
     <g id="text_24">
      <!-- 20 -->
      <g transform="translate(284.207615 322.182437) scale(0.1 -0.1)">
       <use xlink:href="#DejaVuSans-32"/>
       <use xlink:href="#DejaVuSans-30" x="63.623047"/>
      </g>
     </g>
    </g>
    <g id="xtick_20">
     <g id="line2d_27">
      <g>
       <use xlink:href="#m22f1d4c1fb" x="344.754462" y="307.584" style="stroke: #000000; stroke-width: 0.8"/>
      </g>
     </g>
     <g id="text_25">
      <!-- 25 -->
      <g transform="translate(338.391962 322.182437) scale(0.1 -0.1)">
       <use xlink:href="#DejaVuSans-32"/>
       <use xlink:href="#DejaVuSans-35" x="63.623047"/>
      </g>
     </g>
    </g>
    <g id="xtick_21">
     <g id="line2d_28">
      <g>
       <use xlink:href="#m22f1d4c1fb" x="398.938809" y="307.584" style="stroke: #000000; stroke-width: 0.8"/>
      </g>
     </g>
     <g id="text_26">
      <!-- 30 -->
      <g transform="translate(392.576309 322.182437) scale(0.1 -0.1)">
       <use xlink:href="#DejaVuSans-33"/>
       <use xlink:href="#DejaVuSans-30" x="63.623047"/>
      </g>
     </g>
    </g>
   </g>
   <g id="matplotlib.axis_6">
    <g id="ytick_6">
     <g id="line2d_29">
      <g>
       <use xlink:href="#m64ffca02f5" x="57.6" y="304.026353" style="stroke: #000000; stroke-width: 0.8"/>
      </g>
     </g>
     <g id="text_27">
      <!-- 0 -->
      <g transform="translate(44.2375 307.825572) scale(0.1 -0.1)">
       <use xlink:href="#DejaVuSans-30"/>
      </g>
     </g>
    </g>
    <g id="ytick_7">
     <g id="line2d_30">
      <g>
       <use xlink:href="#m64ffca02f5" x="57.6" y="271.684107" style="stroke: #000000; stroke-width: 0.8"/>
      </g>
     </g>
     <g id="text_28">
      <!-- 1 -->
      <g transform="translate(44.2375 275.483326) scale(0.1 -0.1)">
       <use xlink:href="#DejaVuSans-31"/>
      </g>
     </g>
    </g>
    <g id="ytick_8">
     <g id="line2d_31">
      <g>
       <use xlink:href="#m64ffca02f5" x="57.6" y="239.341861" style="stroke: #000000; stroke-width: 0.8"/>
      </g>
     </g>
     <g id="text_29">
      <!-- 2 -->
      <g transform="translate(44.2375 243.14108) scale(0.1 -0.1)">
       <use xlink:href="#DejaVuSans-32"/>
      </g>
     </g>
    </g>
   </g>
   <g id="line2d_32">
    <path d="M 73.832727 304.026353 
L 82.411916 304.026353 
L 82.863452 297.557904 
L 83.314988 284.621005 
L 83.766524 291.089455 
L 84.21806 300.792128 
L 84.669597 304.026353 
L 97.312611 304.026353 
L 97.764147 297.557904 
L 98.215683 284.621005 
L 98.66722 291.089455 
L 99.118756 300.792128 
L 99.570292 304.026353 
L 104.537191 304.026353 
L 104.988727 300.792128 
L 105.440263 304.026353 
L 108.601017 304.026353 
L 109.052553 297.557904 
L 109.504089 304.026353 
L 155.560784 304.026353 
L 156.01232 297.557904 
L 156.463856 287.85523 
L 156.915393 291.089455 
L 157.366929 304.026353 
L 185.813711 304.026353 
L 186.265247 278.152556 
L 186.716783 297.557904 
L 187.16832 304.026353 
L 192.586754 304.026353 
L 193.038291 300.792128 
L 193.489827 300.792128 
L 193.941363 304.026353 
L 221.485073 304.026353 
L 221.936609 291.089455 
L 222.388145 304.026353 
L 234.128087 304.026353 
L 234.579623 297.557904 
L 235.031159 271.684107 
L 235.482696 300.792128 
L 235.934232 300.792128 
L 236.385768 261.981433 
L 236.837304 304.026353 
L 242.707275 304.026353 
L 243.158811 297.557904 
L 243.610348 232.873412 
L 244.061884 300.792128 
L 244.51342 304.026353 
L 264.381014 304.026353 
L 264.83255 291.089455 
L 265.284086 304.026353 
L 289.215506 304.026353 
L 289.667043 300.792128 
L 290.118579 304.026353 
L 314.953071 304.026353 
L 315.404607 297.557904 
L 315.856144 287.85523 
L 316.30768 297.557904 
L 316.759216 304.026353 
L 398.487273 304.026353 
L 398.487273 304.026353 
" clip-path="url(#pdf2305cc91)" style="fill: none; stroke: #1f77b4; stroke-width: 1.5; stroke-linecap: square"/>
   </g>
   <g id="patch_13">
    <path d="M 57.6 307.584 
L 57.6 229.315765 
" style="fill: none; stroke: #000000; stroke-width: 0.8; stroke-linejoin: miter; stroke-linecap: square"/>
   </g>
   <g id="patch_14">
    <path d="M 414.72 307.584 
L 414.72 229.315765 
" style="fill: none; stroke: #000000; stroke-width: 0.8; stroke-linejoin: miter; stroke-linecap: square"/>
   </g>
   <g id="patch_15">
    <path d="M 57.6 307.584 
L 414.72 307.584 
" style="fill: none; stroke: #000000; stroke-width: 0.8; stroke-linejoin: miter; stroke-linecap: square"/>
   </g>
   <g id="patch_16">
    <path d="M 57.6 229.315765 
L 414.72 229.315765 
" style="fill: none; stroke: #000000; stroke-width: 0.8; stroke-linejoin: miter; stroke-linecap: square"/>
   </g>
  </g>
  <g id="text_30">
   <!-- spring -->
   <g transform="translate(211.720313 16.030125) scale(0.12 -0.12)">
    <defs>
     <path id="DejaVuSans-73" d="M 2834 3397 
L 2834 2853 
Q 2591 2978 2328 3040 
Q 2066 3103 1784 3103 
Q 1356 3103 1142 2972 
Q 928 2841 928 2578 
Q 928 2378 1081 2264 
Q 1234 2150 1697 2047 
L 1894 2003 
Q 2506 1872 2764 1633 
Q 3022 1394 3022 966 
Q 3022 478 2636 193 
Q 2250 -91 1575 -91 
Q 1294 -91 989 -36 
Q 684 19 347 128 
L 347 722 
Q 666 556 975 473 
Q 1284 391 1588 391 
Q 1994 391 2212 530 
Q 2431 669 2431 922 
Q 2431 1156 2273 1281 
Q 2116 1406 1581 1522 
L 1381 1569 
Q 847 1681 609 1914 
Q 372 2147 372 2553 
Q 372 3047 722 3315 
Q 1072 3584 1716 3584 
Q 2034 3584 2315 3537 
Q 2597 3491 2834 3397 
z
" transform="scale(0.015625)"/>
     <path id="DejaVuSans-70" d="M 1159 525 
L 1159 -1331 
L 581 -1331 
L 581 3500 
L 1159 3500 
L 1159 2969 
Q 1341 3281 1617 3432 
Q 1894 3584 2278 3584 
Q 2916 3584 3314 3078 
Q 3713 2572 3713 1747 
Q 3713 922 3314 415 
Q 2916 -91 2278 -91 
Q 1894 -91 1617 61 
Q 1341 213 1159 525 
z
M 3116 1747 
Q 3116 2381 2855 2742 
Q 2594 3103 2138 3103 
Q 1681 3103 1420 2742 
Q 1159 2381 1159 1747 
Q 1159 1113 1420 752 
Q 1681 391 2138 391 
Q 2594 391 2855 752 
Q 3116 1113 3116 1747 
z
" transform="scale(0.015625)"/>
     <path id="DejaVuSans-72" d="M 2631 2963 
Q 2534 3019 2420 3045 
Q 2306 3072 2169 3072 
Q 1681 3072 1420 2755 
Q 1159 2438 1159 1844 
L 1159 0 
L 581 0 
L 581 3500 
L 1159 3500 
L 1159 2956 
Q 1341 3275 1631 3429 
Q 1922 3584 2338 3584 
Q 2397 3584 2469 3576 
Q 2541 3569 2628 3553 
L 2631 2963 
z
" transform="scale(0.015625)"/>
     <path id="DejaVuSans-69" d="M 603 3500 
L 1178 3500 
L 1178 0 
L 603 0 
L 603 3500 
z
M 603 4863 
L 1178 4863 
L 1178 4134 
L 603 4134 
L 603 4863 
z
" transform="scale(0.015625)"/>
     <path id="DejaVuSans-6e" d="M 3513 2113 
L 3513 0 
L 2938 0 
L 2938 2094 
Q 2938 2591 2744 2837 
Q 2550 3084 2163 3084 
Q 1697 3084 1428 2787 
Q 1159 2491 1159 1978 
L 1159 0 
L 581 0 
L 581 3500 
L 1159 3500 
L 1159 2956 
Q 1366 3272 1645 3428 
Q 1925 3584 2291 3584 
Q 2894 3584 3203 3211 
Q 3513 2838 3513 2113 
z
" transform="scale(0.015625)"/>
     <path id="DejaVuSans-67" d="M 2906 1791 
Q 2906 2416 2648 2759 
Q 2391 3103 1925 3103 
Q 1463 3103 1205 2759 
Q 947 2416 947 1791 
Q 947 1169 1205 825 
Q 1463 481 1925 481 
Q 2391 481 2648 825 
Q 2906 1169 2906 1791 
z
M 3481 434 
Q 3481 -459 3084 -895 
Q 2688 -1331 1869 -1331 
Q 1566 -1331 1297 -1286 
Q 1028 -1241 775 -1147 
L 775 -588 
Q 1028 -725 1275 -790 
Q 1522 -856 1778 -856 
Q 2344 -856 2625 -561 
Q 2906 -266 2906 331 
L 2906 616 
Q 2728 306 2450 153 
Q 2172 0 1784 0 
Q 1141 0 747 490 
Q 353 981 353 1791 
Q 353 2603 747 3093 
Q 1141 3584 1784 3584 
Q 2172 3584 2450 3431 
Q 2728 3278 2906 2969 
L 2906 3500 
L 3481 3500 
L 3481 434 
z
" transform="scale(0.015625)"/>
    </defs>
    <use xlink:href="#DejaVuSans-73"/>
    <use xlink:href="#DejaVuSans-70" x="52.099609"/>
    <use xlink:href="#DejaVuSans-72" x="115.576172"/>
    <use xlink:href="#DejaVuSans-69" x="156.689453"/>
    <use xlink:href="#DejaVuSans-6e" x="184.472656"/>
    <use xlink:href="#DejaVuSans-67" x="247.851562"/>
   </g>
  </g>
 </g>
 <defs>
  <clipPath id="pc40062a6d7">
   <rect x="57.6" y="41.472" width="357.12" height="78.268235"/>
  </clipPath>
  <clipPath id="p58a500795f">
   <rect x="57.6" y="135.393882" width="357.12" height="78.268235"/>
  </clipPath>
  <clipPath id="pdf2305cc91">
   <rect x="57.6" y="229.315765" width="357.12" height="78.268235"/>
  </clipPath>
 </defs>
</svg>
