<?xml version="1.0" encoding="utf-8" standalone="no"?>
<!DOCTYPE svg PUBLIC "-//W3C//DTD SVG 1.1//EN"
  "http://www.w3.org/Graphics/SVG/1.1/DTD/svg11.dtd">
<svg xmlns:xlink="http://www.w3.org/1999/xlink" width="460.8pt" height="345.6pt" viewBox="0 0 460.8 345.6" xmlns="http://www.w3.org/2000/svg" version="1.1">
 <metadata>
  <rdf:RDF xmlns:dc="http://purl.org/dc/elements/1.1/" xmlns:cc="http://creativecommons.org/ns#" xmlns:rdf="http://www.w3.org/1999/02/22-rdf-syntax-ns#">
   <cc:Work>
    <dc:type rdf:resource="http://purl.org/dc/dcmitype/StillImage"/>
    <dc:date>2023-03-21T17:39:40.898374</dc:date>
    <dc:format>image/svg+xml</dc:format>
    <dc:creator>
     <cc:Agent>
      <dc:title>Matplotlib v3.7.0, https://matplotlib.org/</dc:title>
     </cc:Agent>
    </dc:creator>
   </cc:Work>
  </rdf:RDF>
 </metadata>
 <defs>
  <style type="text/css">*{stroke-linejoin: round; stroke-linecap: butt}</style>
 </defs>
 <g id="figure_1">
  <g id="patch_1">
   <path d="M 0 345.6 
L 460.8 345.6 
L 460.8 0 
L 0 0 
z
" style="fill: #ffffff"/>
  </g>
  <g id="axes_1">
   <g id="patch_2">
    <path d="M 57.6 119.740235 
L 414.72 119.740235 
L 414.72 41.472 
L 57.6 41.472 
z
" style="fill: #ffffff"/>
   </g>
   <g id="matplotlib.axis_1">
    <g id="xtick_1">
     <g id="line2d_1">
      <defs>
       <path id="m0a6de27581" d="M 0 0 
L 0 3.5 
" style="stroke: #000000; stroke-width: 0.8"/>
      </defs>
      <g>
       <use xlink:href="#m0a6de27581" x="73.832727" y="119.740235" style="stroke: #000000; stroke-width: 0.8"/>
      </g>
     </g>
     <g id="text_1">
      <!-- 0 -->
      <g transform="translate(70.651477 134.338673) scale(0.1 -0.1)">
       <defs>
        <path id="DejaVuSans-30" d="M 2034 4250 
Q 1547 4250 1301 3770 
Q 1056 3291 1056 2328 
Q 1056 1369 1301 889 
Q 1547 409 2034 409 
Q 2525 409 2770 889 
Q 3016 1369 3016 2328 
Q 3016 3291 2770 3770 
Q 2525 4250 2034 4250 
z
M 2034 4750 
Q 2819 4750 3233 4129 
Q 3647 3509 3647 2328 
Q 3647 1150 3233 529 
Q 2819 -91 2034 -91 
Q 1250 -91 836 529 
Q 422 1150 422 2328 
Q 422 3509 836 4129 
Q 1250 4750 2034 4750 
z
" transform="scale(0.015625)"/>
       </defs>
       <use xlink:href="#DejaVuSans-30"/>
      </g>
     </g>
    </g>
    <g id="xtick_2">
     <g id="line2d_2">
      <g>
       <use xlink:href="#m0a6de27581" x="128.017074" y="119.740235" style="stroke: #000000; stroke-width: 0.8"/>
      </g>
     </g>
     <g id="text_2">
      <!-- 5 -->
      <g transform="translate(124.835824 134.338673) scale(0.1 -0.1)">
       <defs>
        <path id="DejaVuSans-35" d="M 691 4666 
L 3169 4666 
L 3169 4134 
L 1269 4134 
L 1269 2991 
Q 1406 3038 1543 3061 
Q 1681 3084 1819 3084 
Q 2600 3084 3056 2656 
Q 3513 2228 3513 1497 
Q 3513 744 3044 326 
Q 2575 -91 1722 -91 
Q 1428 -91 1123 -41 
Q 819 9 494 109 
L 494 744 
Q 775 591 1075 516 
Q 1375 441 1709 441 
Q 2250 441 2565 725 
Q 2881 1009 2881 1497 
Q 2881 1984 2565 2268 
Q 2250 2553 1709 2553 
Q 1456 2553 1204 2497 
Q 953 2441 691 2322 
L 691 4666 
z
" transform="scale(0.015625)"/>
       </defs>
       <use xlink:href="#DejaVuSans-35"/>
      </g>
     </g>
    </g>
    <g id="xtick_3">
     <g id="line2d_3">
      <g>
       <use xlink:href="#m0a6de27581" x="182.201421" y="119.740235" style="stroke: #000000; stroke-width: 0.8"/>
      </g>
     </g>
     <g id="text_3">
      <!-- 10 -->
      <g transform="translate(175.838921 134.338673) scale(0.1 -0.1)">
       <defs>
        <path id="DejaVuSans-31" d="M 794 531 
L 1825 531 
L 1825 4091 
L 703 3866 
L 703 4441 
L 1819 4666 
L 2450 4666 
L 2450 531 
L 3481 531 
L 3481 0 
L 794 0 
L 794 531 
z
" transform="scale(0.015625)"/>
       </defs>
       <use xlink:href="#DejaVuSans-31"/>
       <use xlink:href="#DejaVuSans-30" x="63.623047"/>
      </g>
     </g>
    </g>
    <g id="xtick_4">
     <g id="line2d_4">
      <g>
       <use xlink:href="#m0a6de27581" x="236.385768" y="119.740235" style="stroke: #000000; stroke-width: 0.8"/>
      </g>
     </g>
     <g id="text_4">
      <!-- 15 -->
      <g transform="translate(230.023268 134.338673) scale(0.1 -0.1)">
       <use xlink:href="#DejaVuSans-31"/>
       <use xlink:href="#DejaVuSans-35" x="63.623047"/>
      </g>
     </g>
    </g>
    <g id="xtick_5">
     <g id="line2d_5">
      <g>
       <use xlink:href="#m0a6de27581" x="290.570115" y="119.740235" style="stroke: #000000; stroke-width: 0.8"/>
      </g>
     </g>
     <g id="text_5">
      <!-- 20 -->
      <g transform="translate(284.207615 134.338673) scale(0.1 -0.1)">
       <defs>
        <path id="DejaVuSans-32" d="M 1228 531 
L 3431 531 
L 3431 0 
L 469 0 
L 469 531 
Q 828 903 1448 1529 
Q 2069 2156 2228 2338 
Q 2531 2678 2651 2914 
Q 2772 3150 2772 3378 
Q 2772 3750 2511 3984 
Q 2250 4219 1831 4219 
Q 1534 4219 1204 4116 
Q 875 4013 500 3803 
L 500 4441 
Q 881 4594 1212 4672 
Q 1544 4750 1819 4750 
Q 2544 4750 2975 4387 
Q 3406 4025 3406 3419 
Q 3406 3131 3298 2873 
Q 3191 2616 2906 2266 
Q 2828 2175 2409 1742 
Q 1991 1309 1228 531 
z
" transform="scale(0.015625)"/>
       </defs>
       <use xlink:href="#DejaVuSans-32"/>
       <use xlink:href="#DejaVuSans-30" x="63.623047"/>
      </g>
     </g>
    </g>
    <g id="xtick_6">
     <g id="line2d_6">
      <g>
       <use xlink:href="#m0a6de27581" x="344.754462" y="119.740235" style="stroke: #000000; stroke-width: 0.8"/>
      </g>
     </g>
     <g id="text_6">
      <!-- 25 -->
      <g transform="translate(338.391962 134.338673) scale(0.1 -0.1)">
       <use xlink:href="#DejaVuSans-32"/>
       <use xlink:href="#DejaVuSans-35" x="63.623047"/>
      </g>
     </g>
    </g>
    <g id="xtick_7">
     <g id="line2d_7">
      <g>
       <use xlink:href="#m0a6de27581" x="398.938809" y="119.740235" style="stroke: #000000; stroke-width: 0.8"/>
      </g>
     </g>
     <g id="text_7">
      <!-- 30 -->
      <g transform="translate(392.576309 134.338673) scale(0.1 -0.1)">
       <defs>
        <path id="DejaVuSans-33" d="M 2597 2516 
Q 3050 2419 3304 2112 
Q 3559 1806 3559 1356 
Q 3559 666 3084 287 
Q 2609 -91 1734 -91 
Q 1441 -91 1130 -33 
Q 819 25 488 141 
L 488 750 
Q 750 597 1062 519 
Q 1375 441 1716 441 
Q 2309 441 2620 675 
Q 2931 909 2931 1356 
Q 2931 1769 2642 2001 
Q 2353 2234 1838 2234 
L 1294 2234 
L 1294 2753 
L 1863 2753 
Q 2328 2753 2575 2939 
Q 2822 3125 2822 3475 
Q 2822 3834 2567 4026 
Q 2313 4219 1838 4219 
Q 1578 4219 1281 4162 
Q 984 4106 628 3988 
L 628 4550 
Q 988 4650 1302 4700 
Q 1616 4750 1894 4750 
Q 2613 4750 3031 4423 
Q 3450 4097 3450 3541 
Q 3450 3153 3228 2886 
Q 3006 2619 2597 2516 
z
" transform="scale(0.015625)"/>
       </defs>
       <use xlink:href="#DejaVuSans-33"/>
       <use xlink:href="#DejaVuSans-30" x="63.623047"/>
      </g>
     </g>
    </g>
   </g>
   <g id="matplotlib.axis_2">
    <g id="ytick_1">
     <g id="line2d_8">
      <defs>
       <path id="me786757c65" d="M 0 0 
L -3.5 0 
" style="stroke: #000000; stroke-width: 0.8"/>
      </defs>
      <g>
       <use xlink:href="#me786757c65" x="57.6" y="111.439059" style="stroke: #000000; stroke-width: 0.8"/>
      </g>
     </g>
     <g id="text_8">
      <!-- 0 -->
      <g transform="translate(44.2375 115.238278) scale(0.1 -0.1)">
       <use xlink:href="#DejaVuSans-30"/>
      </g>
     </g>
    </g>
    <g id="ytick_2">
     <g id="line2d_9">
      <g>
       <use xlink:href="#me786757c65" x="57.6" y="64.003765" style="stroke: #000000; stroke-width: 0.8"/>
      </g>
     </g>
     <g id="text_9">
      <!-- 20 -->
      <g transform="translate(37.875 67.802983) scale(0.1 -0.1)">
       <use xlink:href="#DejaVuSans-32"/>
       <use xlink:href="#DejaVuSans-30" x="63.623047"/>
      </g>
     </g>
    </g>
   </g>
   <g id="line2d_10">
    <path d="M 73.832727 85.349647 
L 74.284263 85.349647 
L 74.7358 92.464941 
L 75.187336 97.208471 
L 76.090408 97.208471 
L 76.993481 101.952 
L 77.445017 101.952 
L 78.34809 106.695529 
L 78.799626 97.208471 
L 79.702698 75.862588 
L 80.154234 75.862588 
L 80.605771 73.490824 
L 81.057307 73.490824 
L 81.508843 75.862588 
L 81.960379 82.977882 
L 82.411916 92.464941 
L 83.314988 92.464941 
L 83.766524 87.721412 
L 84.21806 80.606118 
L 85.121133 85.349647 
L 85.572669 78.234353 
L 86.024205 73.490824 
L 86.927278 68.747294 
L 87.83035 73.490824 
L 88.281886 71.119059 
L 88.733423 71.119059 
L 89.636495 80.606118 
L 90.088031 87.721412 
L 90.539568 90.093176 
L 90.991104 90.093176 
L 91.44264 92.464941 
L 91.894176 97.208471 
L 92.345712 99.580235 
L 92.797249 99.580235 
L 93.248785 97.208471 
L 94.151857 97.208471 
L 94.603394 99.580235 
L 96.409539 99.580235 
L 96.861075 97.208471 
L 97.764147 97.208471 
L 98.66722 87.721412 
L 99.570292 82.977882 
L 100.021828 82.977882 
L 100.924901 87.721412 
L 101.376437 92.464941 
L 102.279509 106.695529 
L 103.634118 113.810824 
L 104.085654 113.810824 
L 104.537191 116.182588 
L 104.988727 111.439059 
L 105.440263 104.323765 
L 105.891799 99.580235 
L 106.794872 94.836706 
L 107.246408 90.093176 
L 108.14948 90.093176 
L 109.504089 97.208471 
L 109.955625 101.952 
L 110.858698 106.695529 
L 111.310234 106.695529 
L 112.213306 111.439059 
L 113.116379 111.439059 
L 114.019451 97.208471 
L 114.470987 87.721412 
L 114.922524 80.606118 
L 115.825596 71.119059 
L 116.277132 71.119059 
L 116.728669 78.234353 
L 117.180205 80.606118 
L 118.534814 80.606118 
L 119.437886 85.349647 
L 119.889422 90.093176 
L 120.340958 97.208471 
L 120.792495 101.952 
L 121.244031 94.836706 
L 122.147103 73.490824 
L 122.59864 68.747294 
L 123.050176 68.747294 
L 123.953248 73.490824 
L 124.404784 73.490824 
L 124.856321 75.862588 
L 125.307857 85.349647 
L 126.210929 90.093176 
L 126.662466 87.721412 
L 127.114002 92.464941 
L 127.565538 80.606118 
L 128.46861 85.349647 
L 128.920147 90.093176 
L 129.371683 90.093176 
L 129.823219 87.721412 
L 130.274755 82.977882 
L 130.726292 80.606118 
L 131.629364 71.119059 
L 132.0809 68.747294 
L 132.532436 68.747294 
L 133.435509 64.003765 
L 133.887045 71.119059 
L 134.338581 71.119059 
L 134.790118 80.606118 
L 136.596262 80.606118 
L 137.047799 82.977882 
L 137.499335 80.606118 
L 137.950871 75.862588 
L 139.30548 68.747294 
L 139.757016 75.862588 
L 141.563161 85.349647 
L 142.014697 85.349647 
L 142.91777 90.093176 
L 143.369306 90.093176 
L 144.272378 94.836706 
L 144.723915 94.836706 
L 145.175451 97.208471 
L 145.626987 97.208471 
L 146.530059 92.464941 
L 146.981596 87.721412 
L 147.884668 87.721412 
L 148.336204 90.093176 
L 148.787741 87.721412 
L 149.239277 90.093176 
L 150.142349 90.093176 
L 150.593885 92.464941 
L 151.045422 97.208471 
L 151.496958 99.580235 
L 151.948494 99.580235 
L 152.40003 101.952 
L 153.303103 80.606118 
L 153.754639 73.490824 
L 154.657711 82.977882 
L 155.109248 90.093176 
L 155.560784 94.836706 
L 156.01232 97.208471 
L 156.463856 92.464941 
L 156.915393 90.093176 
L 157.366929 94.836706 
L 157.818465 87.721412 
L 158.270001 90.093176 
L 160.076146 90.093176 
L 160.979219 85.349647 
L 161.430755 85.349647 
L 161.882291 82.977882 
L 163.688436 82.977882 
L 164.139972 85.349647 
L 164.591508 85.349647 
L 165.494581 90.093176 
L 166.397653 90.093176 
L 166.84919 92.464941 
L 167.300726 90.093176 
L 167.752262 94.836706 
L 168.203798 92.464941 
L 168.655334 92.464941 
L 169.106871 90.093176 
L 172.71916 90.093176 
L 173.170697 85.349647 
L 174.073769 80.606118 
L 174.525305 85.349647 
L 174.976842 94.836706 
L 175.428378 101.952 
L 175.879914 101.952 
L 176.33145 104.323765 
L 176.782986 104.323765 
L 177.234523 106.695529 
L 177.686059 104.323765 
L 178.137595 97.208471 
L 178.589131 97.208471 
L 179.040668 94.836706 
L 179.492204 94.836706 
L 179.94374 97.208471 
L 180.846812 92.464941 
L 181.298349 87.721412 
L 182.201421 87.721412 
L 182.652957 82.977882 
L 183.104494 80.606118 
L 183.55603 87.721412 
L 184.007566 82.977882 
L 184.459102 80.606118 
L 185.362175 71.119059 
L 185.813711 71.119059 
L 186.265247 73.490824 
L 186.716783 73.490824 
L 187.16832 71.119059 
L 188.071392 71.119059 
L 188.522928 68.747294 
L 188.974465 75.862588 
L 189.426001 80.606118 
L 189.877537 87.721412 
L 190.329073 80.606118 
L 190.780609 78.234353 
L 191.232146 73.490824 
L 191.683682 71.119059 
L 192.135218 66.375529 
L 192.586754 66.375529 
L 193.489827 71.119059 
L 194.392899 80.606118 
L 194.844435 78.234353 
L 195.295972 78.234353 
L 196.199044 87.721412 
L 197.102117 82.977882 
L 198.456725 90.093176 
L 199.359798 90.093176 
L 199.811334 92.464941 
L 200.26287 85.349647 
L 200.714406 75.862588 
L 201.165943 71.119059 
L 201.617479 68.747294 
L 202.069015 68.747294 
L 202.520551 73.490824 
L 202.972087 73.490824 
L 203.423624 80.606118 
L 204.326696 80.606118 
L 204.778232 90.093176 
L 205.229769 94.836706 
L 205.681305 90.093176 
L 206.132841 87.721412 
L 206.584377 82.977882 
L 207.035914 90.093176 
L 207.48745 94.836706 
L 208.842058 101.952 
L 209.293595 99.580235 
L 210.648203 99.580235 
L 211.09974 94.836706 
L 212.002812 90.093176 
L 213.357421 90.093176 
L 213.808957 85.349647 
L 214.260493 85.349647 
L 214.712029 80.606118 
L 215.163566 82.977882 
L 215.615102 80.606118 
L 216.066638 85.349647 
L 216.518174 94.836706 
L 216.96971 101.952 
L 217.421247 97.208471 
L 217.872783 82.977882 
L 218.324319 75.862588 
L 218.775855 66.375529 
L 219.227392 61.632 
L 219.678928 59.260235 
L 220.130464 54.516706 
L 221.033536 49.773176 
L 221.485073 45.029647 
L 227.355044 45.029647 
L 227.80658 47.401412 
L 228.258116 52.144941 
L 228.709652 54.516706 
L 229.161189 59.260235 
L 229.612725 71.119059 
L 230.967333 71.119059 
L 231.41887 73.490824 
L 231.870406 82.977882 
L 232.321942 87.721412 
L 232.773478 87.721412 
L 233.225015 90.093176 
L 233.676551 90.093176 
L 234.579623 71.119059 
L 235.031159 66.375529 
L 235.934232 61.632 
L 236.385768 54.516706 
L 236.837304 61.632 
L 237.288841 71.119059 
L 237.740377 68.747294 
L 238.191913 68.747294 
L 238.643449 64.003765 
L 239.094985 66.375529 
L 240.90113 66.375529 
L 241.352667 71.119059 
L 241.804203 80.606118 
L 242.255739 85.349647 
L 242.707275 87.721412 
L 243.158811 94.836706 
L 243.610348 94.836706 
L 244.51342 75.862588 
L 244.964956 71.119059 
L 246.319565 71.119059 
L 246.771101 78.234353 
L 247.222638 80.606118 
L 248.577246 80.606118 
L 249.028782 82.977882 
L 249.480319 82.977882 
L 249.931855 80.606118 
L 250.383391 80.606118 
L 251.286464 75.862588 
L 251.738 71.119059 
L 252.189536 68.747294 
L 252.641072 68.747294 
L 253.544145 64.003765 
L 253.995681 66.375529 
L 254.447217 64.003765 
L 254.898753 66.375529 
L 256.704898 66.375529 
L 257.156434 71.119059 
L 258.059507 61.632 
L 258.511043 66.375529 
L 259.414116 61.632 
L 259.865652 61.632 
L 260.317188 59.260235 
L 260.768724 59.260235 
L 261.22026 61.632 
L 261.671797 61.632 
L 262.574869 75.862588 
L 263.026405 73.490824 
L 263.929478 73.490824 
L 264.381014 78.234353 
L 266.187159 87.721412 
L 266.638695 87.721412 
L 267.090231 80.606118 
L 267.993304 71.119059 
L 268.44484 68.747294 
L 268.896376 68.747294 
L 269.347913 64.003765 
L 269.799449 66.375529 
L 270.702521 61.632 
L 271.605594 66.375529 
L 272.05713 66.375529 
L 272.508666 71.119059 
L 272.960202 78.234353 
L 273.411739 78.234353 
L 273.863275 80.606118 
L 274.314811 87.721412 
L 274.766347 90.093176 
L 275.217883 90.093176 
L 276.572492 97.208471 
L 277.024028 97.208471 
L 277.475565 99.580235 
L 278.378637 99.580235 
L 278.830173 101.952 
L 279.281709 97.208471 
L 279.733246 97.208471 
L 280.184782 92.464941 
L 280.636318 90.093176 
L 281.087854 92.464941 
L 281.539391 92.464941 
L 281.990927 97.208471 
L 282.442463 94.836706 
L 282.893999 90.093176 
L 283.797072 90.093176 
L 284.248608 92.464941 
L 285.15168 92.464941 
L 285.603217 97.208471 
L 286.054753 97.208471 
L 286.957825 92.464941 
L 287.409361 87.721412 
L 288.312434 87.721412 
L 288.76397 90.093176 
L 289.215506 87.721412 
L 289.667043 90.093176 
L 291.021651 90.093176 
L 291.473188 92.464941 
L 291.924724 85.349647 
L 292.37626 75.862588 
L 292.827796 71.119059 
L 294.633941 61.632 
L 295.085477 61.632 
L 295.537014 66.375529 
L 295.98855 66.375529 
L 296.440086 71.119059 
L 297.343158 90.093176 
L 297.794695 94.836706 
L 298.246231 97.208471 
L 298.697767 92.464941 
L 299.149303 92.464941 
L 300.052376 97.208471 
L 300.503912 94.836706 
L 300.955448 94.836706 
L 301.858521 90.093176 
L 302.310057 92.464941 
L 302.761593 92.464941 
L 303.213129 97.208471 
L 305.47081 85.349647 
L 305.922347 78.234353 
L 306.373883 80.606118 
L 307.276955 80.606118 
L 307.728492 82.977882 
L 308.180028 82.977882 
L 308.631564 80.606118 
L 309.0831 80.606118 
L 309.986173 75.862588 
L 310.437709 71.119059 
L 310.889245 68.747294 
L 311.340781 68.747294 
L 312.243854 64.003765 
L 312.69539 66.375529 
L 313.146926 61.632 
L 313.598463 61.632 
L 314.953071 54.516706 
L 315.404607 54.516706 
L 316.30768 59.260235 
L 317.210752 59.260235 
L 318.113825 64.003765 
L 318.565361 68.747294 
L 319.016897 71.119059 
L 319.468433 71.119059 
L 319.91997 73.490824 
L 320.371506 80.606118 
L 321.726115 80.606118 
L 322.177651 82.977882 
L 323.080723 82.977882 
L 323.983796 78.234353 
L 324.435332 73.490824 
L 324.886868 71.119059 
L 325.338404 71.119059 
L 325.789941 66.375529 
L 326.241477 68.747294 
L 326.693013 73.490824 
L 327.596085 78.234353 
L 328.047622 78.234353 
L 328.499158 73.490824 
L 328.950694 71.119059 
L 329.40223 71.119059 
L 329.853767 66.375529 
L 330.305303 64.003765 
L 330.756839 66.375529 
L 331.208375 64.003765 
L 331.659911 64.003765 
L 332.111448 73.490824 
L 332.562984 80.606118 
L 333.466056 85.349647 
L 334.369129 80.606118 
L 335.723738 80.606118 
L 336.175274 78.234353 
L 338.432955 54.516706 
L 338.884491 56.888471 
L 339.336027 54.516706 
L 339.787564 59.260235 
L 340.2391 61.632 
L 340.690636 59.260235 
L 341.593708 59.260235 
L 342.045245 61.632 
L 343.399853 61.632 
L 343.85139 71.119059 
L 344.302926 75.862588 
L 344.754462 75.862588 
L 345.205998 78.234353 
L 345.657534 78.234353 
L 346.109071 80.606118 
L 346.560607 80.606118 
L 347.012143 75.862588 
L 347.915216 61.632 
L 348.366752 56.888471 
L 349.269824 52.144941 
L 349.72136 54.516706 
L 350.624433 54.516706 
L 351.075969 56.888471 
L 351.979042 66.375529 
L 353.33365 66.375529 
L 354.236723 85.349647 
L 354.688259 85.349647 
L 355.139795 92.464941 
L 355.591331 97.208471 
L 356.042868 97.208471 
L 357.849013 106.695529 
L 359.203621 106.695529 
L 360.106694 87.721412 
L 360.55823 80.606118 
L 361.461302 80.606118 
L 361.912839 82.977882 
L 362.364375 82.977882 
L 362.815911 80.606118 
L 363.267447 80.606118 
L 364.17052 75.862588 
L 364.622056 71.119059 
L 365.073592 73.490824 
L 365.525128 73.490824 
L 365.976665 71.119059 
L 366.879737 71.119059 
L 367.331273 68.747294 
L 367.782809 75.862588 
L 368.234346 80.606118 
L 369.588954 87.721412 
L 370.040491 87.721412 
L 370.492027 80.606118 
L 371.395099 71.119059 
L 371.846635 68.747294 
L 372.298172 68.747294 
L 372.749708 64.003765 
L 373.201244 66.375529 
L 374.104317 66.375529 
L 374.555853 61.632 
L 375.007389 66.375529 
L 375.458925 66.375529 
L 376.361998 71.119059 
L 376.813534 75.862588 
L 377.716606 90.093176 
L 378.168143 94.836706 
L 379.071215 90.093176 
L 379.522751 90.093176 
L 379.974288 85.349647 
L 380.425824 85.349647 
L 380.87736 80.606118 
L 381.328896 82.977882 
L 381.780432 80.606118 
L 382.231969 80.606118 
L 382.683505 94.836706 
L 383.135041 87.721412 
L 383.586577 85.349647 
L 384.038114 90.093176 
L 384.941186 94.836706 
L 386.747331 85.349647 
L 387.198867 85.349647 
L 387.650403 82.977882 
L 388.10194 78.234353 
L 389.005012 82.977882 
L 389.456548 73.490824 
L 389.908084 68.747294 
L 390.359621 61.632 
L 390.811157 56.888471 
L 391.262693 61.632 
L 391.714229 64.003765 
L 392.165766 71.119059 
L 392.617302 73.490824 
L 393.068838 82.977882 
L 393.520374 87.721412 
L 394.423447 87.721412 
L 395.326519 92.464941 
L 395.778055 92.464941 
L 396.229592 94.836706 
L 398.035737 94.836706 
L 398.487273 97.208471 
L 398.487273 97.208471 
" clip-path="url(#p513086dd4d)" style="fill: none; stroke: #1f77b4; stroke-width: 1.5; stroke-linecap: square"/>
   </g>
   <g id="patch_3">
    <path d="M 57.6 119.740235 
L 57.6 41.472 
" style="fill: none; stroke: #000000; stroke-width: 0.8; stroke-linejoin: miter; stroke-linecap: square"/>
   </g>
   <g id="patch_4">
    <path d="M 414.72 119.740235 
L 414.72 41.472 
" style="fill: none; stroke: #000000; stroke-width: 0.8; stroke-linejoin: miter; stroke-linecap: square"/>
   </g>
   <g id="patch_5">
    <path d="M 57.6 119.740235 
L 414.72 119.740235 
" style="fill: none; stroke: #000000; stroke-width: 0.8; stroke-linejoin: miter; stroke-linecap: square"/>
   </g>
   <g id="patch_6">
    <path d="M 57.6 41.472 
L 414.72 41.472 
" style="fill: none; stroke: #000000; stroke-width: 0.8; stroke-linejoin: miter; stroke-linecap: square"/>
   </g>
  </g>
  <g id="axes_2">
   <g id="patch_7">
    <path d="M 57.6 213.662118 
L 414.72 213.662118 
L 414.72 135.393882 
L 57.6 135.393882 
z
" style="fill: #ffffff"/>
   </g>
   <g id="matplotlib.axis_3">
    <g id="xtick_8">
     <g id="line2d_11">
      <g>
       <use xlink:href="#m0a6de27581" x="73.832727" y="213.662118" style="stroke: #000000; stroke-width: 0.8"/>
      </g>
     </g>
     <g id="text_10">
      <!-- 0 -->
      <g transform="translate(70.651477 228.260555) scale(0.1 -0.1)">
       <use xlink:href="#DejaVuSans-30"/>
      </g>
     </g>
    </g>
    <g id="xtick_9">
     <g id="line2d_12">
      <g>
       <use xlink:href="#m0a6de27581" x="128.017074" y="213.662118" style="stroke: #000000; stroke-width: 0.8"/>
      </g>
     </g>
     <g id="text_11">
      <!-- 5 -->
      <g transform="translate(124.835824 228.260555) scale(0.1 -0.1)">
       <use xlink:href="#DejaVuSans-35"/>
      </g>
     </g>
    </g>
    <g id="xtick_10">
     <g id="line2d_13">
      <g>
       <use xlink:href="#m0a6de27581" x="182.201421" y="213.662118" style="stroke: #000000; stroke-width: 0.8"/>
      </g>
     </g>
     <g id="text_12">
      <!-- 10 -->
      <g transform="translate(175.838921 228.260555) scale(0.1 -0.1)">
       <use xlink:href="#DejaVuSans-31"/>
       <use xlink:href="#DejaVuSans-30" x="63.623047"/>
      </g>
     </g>
    </g>
    <g id="xtick_11">
     <g id="line2d_14">
      <g>
       <use xlink:href="#m0a6de27581" x="236.385768" y="213.662118" style="stroke: #000000; stroke-width: 0.8"/>
      </g>
     </g>
     <g id="text_13">
      <!-- 15 -->
      <g transform="translate(230.023268 228.260555) scale(0.1 -0.1)">
       <use xlink:href="#DejaVuSans-31"/>
       <use xlink:href="#DejaVuSans-35" x="63.623047"/>
      </g>
     </g>
    </g>
    <g id="xtick_12">
     <g id="line2d_15">
      <g>
       <use xlink:href="#m0a6de27581" x="290.570115" y="213.662118" style="stroke: #000000; stroke-width: 0.8"/>
      </g>
     </g>
     <g id="text_14">
      <!-- 20 -->
      <g transform="translate(284.207615 228.260555) scale(0.1 -0.1)">
       <use xlink:href="#DejaVuSans-32"/>
       <use xlink:href="#DejaVuSans-30" x="63.623047"/>
      </g>
     </g>
    </g>
    <g id="xtick_13">
     <g id="line2d_16">
      <g>
       <use xlink:href="#m0a6de27581" x="344.754462" y="213.662118" style="stroke: #000000; stroke-width: 0.8"/>
      </g>
     </g>
     <g id="text_15">
      <!-- 25 -->
      <g transform="translate(338.391962 228.260555) scale(0.1 -0.1)">
       <use xlink:href="#DejaVuSans-32"/>
       <use xlink:href="#DejaVuSans-35" x="63.623047"/>
      </g>
     </g>
    </g>
    <g id="xtick_14">
     <g id="line2d_17">
      <g>
       <use xlink:href="#m0a6de27581" x="398.938809" y="213.662118" style="stroke: #000000; stroke-width: 0.8"/>
      </g>
     </g>
     <g id="text_16">
      <!-- 30 -->
      <g transform="translate(392.576309 228.260555) scale(0.1 -0.1)">
       <use xlink:href="#DejaVuSans-33"/>
       <use xlink:href="#DejaVuSans-30" x="63.623047"/>
      </g>
     </g>
    </g>
   </g>
   <g id="matplotlib.axis_4">
    <g id="ytick_3">
     <g id="line2d_18">
      <g>
       <use xlink:href="#me786757c65" x="57.6" y="188.363294" style="stroke: #000000; stroke-width: 0.8"/>
      </g>
     </g>
     <g id="text_17">
      <!-- 50 -->
      <g transform="translate(37.875 192.162513) scale(0.1 -0.1)">
       <use xlink:href="#DejaVuSans-35"/>
       <use xlink:href="#DejaVuSans-30" x="63.623047"/>
      </g>
     </g>
    </g>
    <g id="ytick_4">
     <g id="line2d_19">
      <g>
       <use xlink:href="#me786757c65" x="57.6" y="138.951529" style="stroke: #000000; stroke-width: 0.8"/>
      </g>
     </g>
     <g id="text_18">
      <!-- 100 -->
      <g transform="translate(31.5125 142.750748) scale(0.1 -0.1)">
       <use xlink:href="#DejaVuSans-31"/>
       <use xlink:href="#DejaVuSans-30" x="63.623047"/>
       <use xlink:href="#DejaVuSans-30" x="127.246094"/>
      </g>
     </g>
    </g>
   </g>
   <g id="line2d_20">
    <path d="M 73.832727 155.751529 
L 74.284263 153.775059 
L 74.7358 143.892706 
L 75.187336 139.939765 
L 75.638872 138.951529 
L 78.34809 138.951529 
L 78.799626 142.904471 
L 79.251162 162.669176 
L 79.702698 175.516235 
L 80.605771 183.422118 
L 81.057307 184.410353 
L 81.508843 178.480941 
L 81.960379 166.622118 
L 82.411916 147.845647 
L 82.863452 146.857412 
L 83.314988 148.833882 
L 84.21806 165.633882 
L 84.669597 161.680941 
L 85.121133 156.739765 
L 86.024205 185.398588 
L 86.475742 190.339765 
L 86.927278 200.222118 
L 87.378814 198.245647 
L 87.83035 198.245647 
L 88.281886 199.233882 
L 88.733423 199.233882 
L 89.184959 193.304471 
L 90.539568 157.728 
L 90.991104 154.763294 
L 91.44264 154.763294 
L 92.345712 143.892706 
L 92.797249 141.916235 
L 93.248785 147.845647 
L 93.700321 143.892706 
L 94.151857 140.928 
L 94.603394 139.939765 
L 95.05493 139.939765 
L 95.506466 141.916235 
L 95.958002 141.916235 
L 96.409539 148.833882 
L 97.764147 157.728 
L 98.215683 164.645647 
L 98.66722 173.539765 
L 99.570292 182.433882 
L 100.021828 186.386824 
L 100.473365 186.386824 
L 100.924901 183.422118 
L 101.376437 176.504471 
L 102.279509 148.833882 
L 102.731046 142.904471 
L 103.182582 138.951529 
L 104.988727 138.951529 
L 105.891799 166.622118 
L 106.343335 174.528 
L 107.246408 187.375059 
L 108.14948 189.351529 
L 108.601017 185.398588 
L 109.052553 183.422118 
L 109.504089 171.563294 
L 109.955625 155.751529 
L 110.407161 147.845647 
L 110.858698 142.904471 
L 111.310234 141.916235 
L 111.76177 142.904471 
L 112.213306 139.939765 
L 112.664843 138.951529 
L 113.116379 138.951529 
L 113.567915 143.892706 
L 114.019451 155.751529 
L 114.470987 172.551529 
L 114.922524 182.433882 
L 115.37406 188.363294 
L 115.825596 196.269176 
L 116.277132 198.245647 
L 116.728669 184.410353 
L 117.180205 177.492706 
L 118.083277 173.539765 
L 118.534814 175.516235 
L 118.98635 173.539765 
L 119.437886 169.586824 
L 119.889422 157.728 
L 120.340958 139.939765 
L 120.792495 138.951529 
L 121.244031 144.880941 
L 121.695567 166.622118 
L 122.147103 180.457412 
L 122.59864 185.398588 
L 123.050176 184.410353 
L 123.953248 180.457412 
L 124.404784 182.433882 
L 124.856321 182.433882 
L 125.307857 160.692706 
L 126.210929 146.857412 
L 126.662466 148.833882 
L 127.114002 142.904471 
L 127.565538 160.692706 
L 128.017074 156.739765 
L 128.920147 142.904471 
L 129.371683 144.880941 
L 129.823219 149.822118 
L 130.274755 159.704471 
L 130.726292 162.669176 
L 131.177828 170.575059 
L 131.629364 176.504471 
L 132.532436 184.410353 
L 132.983973 184.410353 
L 133.435509 188.363294 
L 133.887045 173.539765 
L 134.338581 168.598588 
L 134.790118 139.939765 
L 135.241654 138.951529 
L 135.69319 138.951529 
L 136.144726 140.928 
L 136.596262 139.939765 
L 137.047799 143.892706 
L 137.499335 149.822118 
L 137.950871 161.680941 
L 138.402407 178.480941 
L 138.853944 183.422118 
L 139.30548 186.386824 
L 140.660089 159.704471 
L 141.111625 140.928 
L 141.563161 138.951529 
L 145.626987 138.951529 
L 146.078523 140.928 
L 146.530059 144.880941 
L 146.981596 155.751529 
L 147.433132 155.751529 
L 147.884668 153.775059 
L 148.336204 146.857412 
L 148.787741 148.833882 
L 149.239277 147.845647 
L 150.142349 143.892706 
L 150.593885 142.904471 
L 151.045422 138.951529 
L 152.40003 138.951529 
L 152.851567 149.822118 
L 153.754639 180.457412 
L 154.206175 176.504471 
L 155.109248 164.645647 
L 155.560784 154.763294 
L 156.01232 151.798588 
L 156.463856 161.680941 
L 156.915393 159.704471 
L 157.366929 152.786824 
L 157.818465 167.610353 
L 158.270001 157.728 
L 158.721537 154.763294 
L 159.173074 157.728 
L 159.62461 158.716235 
L 160.076146 165.633882 
L 160.527682 170.575059 
L 160.979219 173.539765 
L 161.430755 175.516235 
L 161.882291 178.480941 
L 162.333827 183.422118 
L 163.688436 183.422118 
L 164.139972 182.433882 
L 164.591508 179.469176 
L 165.043045 179.469176 
L 165.494581 172.551529 
L 165.946117 168.598588 
L 166.397653 165.633882 
L 166.84919 161.680941 
L 167.300726 159.704471 
L 167.752262 152.786824 
L 168.203798 152.786824 
L 168.655334 151.798588 
L 169.106871 155.751529 
L 169.558407 157.728 
L 170.009943 154.763294 
L 170.461479 157.728 
L 170.913016 154.763294 
L 171.364552 154.763294 
L 172.267624 152.786824 
L 173.622233 168.598588 
L 174.073769 168.598588 
L 174.525305 162.669176 
L 174.976842 142.904471 
L 175.428378 138.951529 
L 179.94374 138.951529 
L 180.395276 140.928 
L 180.846812 144.880941 
L 181.298349 155.751529 
L 181.749885 153.775059 
L 182.201421 154.763294 
L 182.652957 160.692706 
L 183.104494 164.645647 
L 183.55603 148.833882 
L 184.007566 155.751529 
L 184.910639 179.469176 
L 185.362175 185.398588 
L 185.813711 186.386824 
L 186.716783 182.433882 
L 187.16832 185.398588 
L 187.619856 191.328 
L 188.071392 192.316235 
L 188.522928 194.292706 
L 188.974465 182.433882 
L 189.426001 178.480941 
L 189.877537 168.598588 
L 190.329073 176.504471 
L 191.683682 193.304471 
L 192.135218 196.269176 
L 193.038291 194.292706 
L 193.489827 190.339765 
L 193.941363 182.433882 
L 194.392899 178.480941 
L 194.844435 178.480941 
L 195.295972 181.445647 
L 195.747508 152.786824 
L 196.199044 141.916235 
L 196.65058 148.833882 
L 197.102117 157.728 
L 197.553653 151.798588 
L 198.005189 147.845647 
L 199.359798 141.916235 
L 199.811334 140.928 
L 200.26287 153.775059 
L 200.714406 171.563294 
L 201.165943 183.422118 
L 201.617479 186.386824 
L 202.069015 187.375059 
L 202.520551 182.433882 
L 202.972087 182.433882 
L 203.423624 167.610353 
L 203.87516 158.716235 
L 204.326696 153.775059 
L 204.778232 139.939765 
L 205.229769 138.951529 
L 205.681305 143.892706 
L 206.584377 163.657412 
L 207.035914 145.869176 
L 207.48745 140.928 
L 207.938986 138.951529 
L 208.842058 138.951529 
L 209.293595 142.904471 
L 209.745131 141.916235 
L 210.196667 138.951529 
L 210.648203 138.951529 
L 212.002812 156.739765 
L 212.454348 157.728 
L 212.905884 152.786824 
L 214.712029 172.551529 
L 215.163566 168.598588 
L 215.615102 168.598588 
L 216.066638 162.669176 
L 216.518174 142.904471 
L 216.96971 138.951529 
L 217.421247 140.928 
L 217.872783 164.645647 
L 218.775855 186.386824 
L 219.227392 192.316235 
L 219.678928 196.269176 
L 220.582 205.163294 
L 221.033536 208.128 
L 221.485073 209.116235 
L 221.936609 209.116235 
L 222.388145 210.104471 
L 222.839681 209.116235 
L 223.291218 209.116235 
L 223.742754 208.128 
L 224.645826 210.104471 
L 225.097362 209.116235 
L 225.548899 209.116235 
L 226.000435 210.104471 
L 226.451971 209.116235 
L 226.903507 209.116235 
L 227.355044 208.128 
L 227.80658 205.163294 
L 228.258116 200.222118 
L 228.709652 199.233882 
L 229.161189 192.316235 
L 229.612725 178.480941 
L 230.515797 174.528 
L 230.967333 173.539765 
L 231.41887 170.575059 
L 231.870406 145.869176 
L 232.321942 138.951529 
L 233.676551 138.951529 
L 234.128087 153.775059 
L 235.031159 187.375059 
L 235.482696 194.292706 
L 235.934232 196.269176 
L 236.385768 200.222118 
L 236.837304 197.257412 
L 237.288841 185.398588 
L 237.740377 191.328 
L 238.191913 193.304471 
L 238.643449 197.257412 
L 239.094985 195.280941 
L 239.998058 201.210353 
L 240.90113 199.233882 
L 241.352667 195.280941 
L 242.255739 161.680941 
L 243.158811 143.892706 
L 243.610348 139.939765 
L 244.51342 174.528 
L 244.964956 184.410353 
L 246.319565 198.245647 
L 246.771101 184.410353 
L 247.222638 177.492706 
L 247.674174 175.516235 
L 248.12571 172.551529 
L 248.577246 171.563294 
L 249.028782 167.610353 
L 249.480319 167.610353 
L 249.931855 169.586824 
L 250.383391 169.586824 
L 250.834927 168.598588 
L 251.286464 170.575059 
L 251.738 176.504471 
L 252.641072 184.410353 
L 253.092608 184.410353 
L 253.544145 188.363294 
L 254.447217 192.316235 
L 254.898753 190.339765 
L 256.704898 190.339765 
L 257.156434 186.386824 
L 257.607971 194.292706 
L 258.059507 198.245647 
L 258.511043 198.245647 
L 258.962579 202.198588 
L 259.414116 203.186824 
L 259.865652 202.198588 
L 260.317188 203.186824 
L 261.22026 203.186824 
L 261.671797 201.210353 
L 262.123333 194.292706 
L 262.574869 182.433882 
L 263.026405 184.410353 
L 263.477942 182.433882 
L 263.929478 182.433882 
L 264.381014 169.586824 
L 264.83255 160.692706 
L 265.284086 156.739765 
L 265.735623 149.822118 
L 266.638695 147.845647 
L 267.090231 168.598588 
L 267.541768 179.469176 
L 268.44484 191.328 
L 268.896376 193.304471 
L 269.347913 197.257412 
L 269.799449 195.280941 
L 270.250985 196.269176 
L 270.702521 200.222118 
L 271.154057 201.210353 
L 272.05713 199.233882 
L 272.508666 195.280941 
L 272.960202 171.563294 
L 273.411739 163.657412 
L 273.863275 164.645647 
L 274.314811 144.880941 
L 274.766347 140.928 
L 275.217883 138.951529 
L 275.66942 139.939765 
L 276.120956 139.939765 
L 276.572492 138.951529 
L 278.830173 138.951529 
L 279.733246 142.904471 
L 280.636318 161.680941 
L 281.087854 152.786824 
L 281.539391 149.822118 
L 281.990927 140.928 
L 282.442463 143.892706 
L 282.893999 154.763294 
L 283.797072 152.786824 
L 284.248608 152.786824 
L 284.700144 149.822118 
L 285.603217 139.939765 
L 286.054753 138.951529 
L 286.506289 140.928 
L 286.957825 144.880941 
L 287.409361 155.751529 
L 287.860898 155.751529 
L 288.312434 153.775059 
L 288.76397 146.857412 
L 289.215506 148.833882 
L 289.667043 147.845647 
L 291.021651 141.916235 
L 291.473188 140.928 
L 291.924724 153.775059 
L 292.37626 171.563294 
L 292.827796 183.422118 
L 293.730869 189.351529 
L 294.182405 193.304471 
L 294.633941 196.269176 
L 295.085477 197.257412 
L 295.537014 192.316235 
L 295.98855 192.316235 
L 296.440086 183.422118 
L 297.343158 144.880941 
L 297.794695 139.939765 
L 298.246231 138.951529 
L 298.697767 142.904471 
L 299.149303 141.916235 
L 300.503912 147.845647 
L 300.955448 144.880941 
L 301.406984 151.798588 
L 301.858521 161.680941 
L 302.310057 152.786824 
L 302.761593 149.822118 
L 303.213129 140.928 
L 303.664666 143.892706 
L 304.116202 147.845647 
L 305.019274 158.716235 
L 305.47081 165.633882 
L 305.922347 180.457412 
L 306.373883 175.516235 
L 306.825419 172.551529 
L 307.276955 171.563294 
L 307.728492 167.610353 
L 308.180028 167.610353 
L 308.631564 169.586824 
L 309.0831 169.586824 
L 309.534636 168.598588 
L 309.986173 170.575059 
L 310.437709 176.504471 
L 311.340781 184.410353 
L 311.792318 184.410353 
L 312.243854 188.363294 
L 312.69539 190.339765 
L 313.146926 197.257412 
L 313.598463 198.245647 
L 314.049999 200.222118 
L 314.501535 201.210353 
L 314.953071 203.186824 
L 315.404607 202.198588 
L 315.856144 200.222118 
L 316.30768 196.269176 
L 317.210752 196.269176 
L 317.662289 192.316235 
L 318.113825 187.375059 
L 318.565361 176.504471 
L 319.016897 161.680941 
L 319.468433 156.739765 
L 319.91997 154.763294 
L 320.371506 143.892706 
L 320.823042 140.928 
L 321.274578 138.951529 
L 323.080723 138.951529 
L 323.532259 143.892706 
L 324.435332 169.586824 
L 324.886868 173.539765 
L 325.338404 171.563294 
L 325.789941 173.539765 
L 326.241477 170.575059 
L 327.144549 147.845647 
L 327.596085 150.810353 
L 328.047622 157.728 
L 328.499158 169.586824 
L 328.950694 166.622118 
L 329.40223 168.598588 
L 329.853767 180.457412 
L 330.305303 186.386824 
L 330.756839 185.398588 
L 331.208375 188.363294 
L 331.659911 189.351529 
L 332.562984 156.739765 
L 333.01452 150.810353 
L 333.466056 146.857412 
L 333.917593 146.857412 
L 334.369129 151.798588 
L 334.820665 150.810353 
L 335.272201 147.845647 
L 335.723738 147.845647 
L 336.175274 152.786824 
L 336.62681 161.680941 
L 337.078346 174.528 
L 337.529882 180.457412 
L 337.981419 189.351529 
L 338.432955 194.292706 
L 338.884491 194.292706 
L 339.336027 195.280941 
L 339.787564 189.351529 
L 340.2391 188.363294 
L 340.690636 193.304471 
L 341.142172 193.304471 
L 341.593708 189.351529 
L 342.045245 188.363294 
L 342.496781 185.398588 
L 342.948317 189.351529 
L 343.399853 182.433882 
L 343.85139 157.728 
L 344.302926 151.798588 
L 344.754462 147.845647 
L 345.205998 150.810353 
L 345.657534 157.728 
L 346.109071 148.833882 
L 346.560607 145.869176 
L 347.915216 179.469176 
L 348.366752 190.339765 
L 348.818288 197.257412 
L 349.269824 200.222118 
L 349.72136 196.269176 
L 350.624433 198.245647 
L 351.075969 197.257412 
L 351.527505 197.257412 
L 351.979042 192.316235 
L 353.33365 192.316235 
L 353.785186 177.492706 
L 354.236723 155.751529 
L 354.688259 153.775059 
L 355.139795 143.892706 
L 355.591331 139.939765 
L 356.042868 138.951529 
L 359.203621 138.951529 
L 359.655157 146.857412 
L 360.106694 164.645647 
L 360.55823 175.516235 
L 361.009766 172.551529 
L 361.461302 171.563294 
L 361.912839 167.610353 
L 362.364375 167.610353 
L 362.815911 169.586824 
L 363.267447 169.586824 
L 363.718983 168.598588 
L 364.17052 170.575059 
L 364.622056 182.433882 
L 365.073592 180.457412 
L 365.525128 182.433882 
L 365.976665 185.398588 
L 366.428201 191.328 
L 366.879737 192.316235 
L 367.331273 194.292706 
L 367.782809 182.433882 
L 368.234346 160.692706 
L 368.685882 156.739765 
L 369.137418 149.822118 
L 370.040491 147.845647 
L 370.492027 168.598588 
L 370.943563 179.469176 
L 371.846635 191.328 
L 372.298172 193.304471 
L 372.749708 197.257412 
L 373.201244 195.280941 
L 374.104317 201.210353 
L 374.555853 203.186824 
L 375.910461 200.222118 
L 376.361998 197.257412 
L 376.813534 192.316235 
L 377.26507 182.433882 
L 377.716606 161.680941 
L 378.168143 146.857412 
L 378.619679 148.833882 
L 379.522751 154.763294 
L 379.974288 163.657412 
L 380.425824 166.622118 
L 380.87736 172.551529 
L 381.328896 168.598588 
L 381.780432 167.610353 
L 382.231969 163.657412 
L 382.683505 142.904471 
L 383.135041 166.622118 
L 383.586577 176.504471 
L 384.038114 150.810353 
L 384.48965 140.928 
L 384.941186 138.951529 
L 385.392722 141.916235 
L 386.295795 160.692706 
L 386.747331 165.633882 
L 387.198867 168.598588 
L 388.10194 181.445647 
L 388.553476 166.622118 
L 389.005012 166.622118 
L 389.456548 180.457412 
L 390.359621 191.328 
L 390.811157 197.257412 
L 391.262693 194.292706 
L 391.714229 188.363294 
L 392.165766 173.539765 
L 392.617302 170.575059 
L 393.068838 145.869176 
L 393.520374 138.951529 
L 398.487273 138.951529 
L 398.487273 138.951529 
" clip-path="url(#p032514179c)" style="fill: none; stroke: #1f77b4; stroke-width: 1.5; stroke-linecap: square"/>
   </g>
   <g id="patch_8">
    <path d="M 57.6 213.662118 
L 57.6 135.393882 
" style="fill: none; stroke: #000000; stroke-width: 0.8; stroke-linejoin: miter; stroke-linecap: square"/>
   </g>
   <g id="patch_9">
    <path d="M 414.72 213.662118 
L 414.72 135.393882 
" style="fill: none; stroke: #000000; stroke-width: 0.8; stroke-linejoin: miter; stroke-linecap: square"/>
   </g>
   <g id="patch_10">
    <path d="M 57.6 213.662118 
L 414.72 213.662118 
" style="fill: none; stroke: #000000; stroke-width: 0.8; stroke-linejoin: miter; stroke-linecap: square"/>
   </g>
   <g id="patch_11">
    <path d="M 57.6 135.393882 
L 414.72 135.393882 
" style="fill: none; stroke: #000000; stroke-width: 0.8; stroke-linejoin: miter; stroke-linecap: square"/>
   </g>
  </g>
  <g id="axes_3">
   <g id="patch_12">
    <path d="M 57.6 307.584 
L 414.72 307.584 
L 414.72 229.315765 
L 57.6 229.315765 
z
" style="fill: #ffffff"/>
   </g>
   <g id="matplotlib.axis_5">
    <g id="xtick_15">
     <g id="line2d_21">
      <g>
       <use xlink:href="#m0a6de27581" x="73.832727" y="307.584" style="stroke: #000000; stroke-width: 0.8"/>
      </g>
     </g>
     <g id="text_19">
      <!-- 0 -->
      <g transform="translate(70.651477 322.182437) scale(0.1 -0.1)">
       <use xlink:href="#DejaVuSans-30"/>
      </g>
     </g>
    </g>
    <g id="xtick_16">
     <g id="line2d_22">
      <g>
       <use xlink:href="#m0a6de27581" x="128.017074" y="307.584" style="stroke: #000000; stroke-width: 0.8"/>
      </g>
     </g>
     <g id="text_20">
      <!-- 5 -->
      <g transform="translate(124.835824 322.182437) scale(0.1 -0.1)">
       <use xlink:href="#DejaVuSans-35"/>
      </g>
     </g>
    </g>
    <g id="xtick_17">
     <g id="line2d_23">
      <g>
       <use xlink:href="#m0a6de27581" x="182.201421" y="307.584" style="stroke: #000000; stroke-width: 0.8"/>
      </g>
     </g>
     <g id="text_21">
      <!-- 10 -->
      <g transform="translate(175.838921 322.182437) scale(0.1 -0.1)">
       <use xlink:href="#DejaVuSans-31"/>
       <use xlink:href="#DejaVuSans-30" x="63.623047"/>
      </g>
     </g>
    </g>
    <g id="xtick_18">
     <g id="line2d_24">
      <g>
       <use xlink:href="#m0a6de27581" x="236.385768" y="307.584" style="stroke: #000000; stroke-width: 0.8"/>
      </g>
     </g>
     <g id="text_22">
      <!-- 15 -->
      <g transform="translate(230.023268 322.182437) scale(0.1 -0.1)">
       <use xlink:href="#DejaVuSans-31"/>
       <use xlink:href="#DejaVuSans-35" x="63.623047"/>
      </g>
     </g>
    </g>
    <g id="xtick_19">
     <g id="line2d_25">
      <g>
       <use xlink:href="#m0a6de27581" x="290.570115" y="307.584" style="stroke: #000000; stroke-width: 0.8"/>
      </g>
     </g>
     <g id="text_23">
      <!-- 20 -->
      <g transform="translate(284.207615 322.182437) scale(0.1 -0.1)">
       <use xlink:href="#DejaVuSans-32"/>
       <use xlink:href="#DejaVuSans-30" x="63.623047"/>
      </g>
     </g>
    </g>
    <g id="xtick_20">
     <g id="line2d_26">
      <g>
       <use xlink:href="#m0a6de27581" x="344.754462" y="307.584" style="stroke: #000000; stroke-width: 0.8"/>
      </g>
     </g>
     <g id="text_24">
      <!-- 25 -->
      <g transform="translate(338.391962 322.182437) scale(0.1 -0.1)">
       <use xlink:href="#DejaVuSans-32"/>
       <use xlink:href="#DejaVuSans-35" x="63.623047"/>
      </g>
     </g>
    </g>
    <g id="xtick_21">
     <g id="line2d_27">
      <g>
       <use xlink:href="#m0a6de27581" x="398.938809" y="307.584" style="stroke: #000000; stroke-width: 0.8"/>
      </g>
     </g>
     <g id="text_25">
      <!-- 30 -->
      <g transform="translate(392.576309 322.182437) scale(0.1 -0.1)">
       <use xlink:href="#DejaVuSans-33"/>
       <use xlink:href="#DejaVuSans-30" x="63.623047"/>
      </g>
     </g>
    </g>
   </g>
   <g id="matplotlib.axis_6">
    <g id="ytick_5">
     <g id="line2d_28">
      <g>
       <use xlink:href="#me786757c65" x="57.6" y="304.026353" style="stroke: #000000; stroke-width: 0.8"/>
      </g>
     </g>
     <g id="text_26">
      <!-- 0 -->
      <g transform="translate(44.2375 307.825572) scale(0.1 -0.1)">
       <use xlink:href="#DejaVuSans-30"/>
      </g>
     </g>
    </g>
    <g id="ytick_6">
     <g id="line2d_29">
      <g>
       <use xlink:href="#me786757c65" x="57.6" y="256.591059" style="stroke: #000000; stroke-width: 0.8"/>
      </g>
     </g>
     <g id="text_27">
      <!-- 2 -->
      <g transform="translate(44.2375 260.390278) scale(0.1 -0.1)">
       <use xlink:href="#DejaVuSans-32"/>
      </g>
     </g>
    </g>
   </g>
   <g id="line2d_30">
    <path d="M 73.832727 304.026353 
L 136.144726 304.026353 
L 136.596262 280.308706 
L 137.047799 304.026353 
L 195.295972 304.026353 
L 195.747508 280.308706 
L 196.199044 232.873412 
L 196.65058 304.026353 
L 277.024028 304.026353 
L 277.475565 256.591059 
L 277.927101 304.026353 
L 322.629187 304.026353 
L 323.080723 280.308706 
L 323.532259 304.026353 
L 381.780432 304.026353 
L 382.231969 232.873412 
L 382.683505 232.873412 
L 383.135041 304.026353 
L 384.038114 304.026353 
L 384.941186 256.591059 
L 385.392722 304.026353 
L 398.487273 304.026353 
L 398.487273 304.026353 
" clip-path="url(#p53465e2b50)" style="fill: none; stroke: #1f77b4; stroke-width: 1.5; stroke-linecap: square"/>
   </g>
   <g id="patch_13">
    <path d="M 57.6 307.584 
L 57.6 229.315765 
" style="fill: none; stroke: #000000; stroke-width: 0.8; stroke-linejoin: miter; stroke-linecap: square"/>
   </g>
   <g id="patch_14">
    <path d="M 414.72 307.584 
L 414.72 229.315765 
" style="fill: none; stroke: #000000; stroke-width: 0.8; stroke-linejoin: miter; stroke-linecap: square"/>
   </g>
   <g id="patch_15">
    <path d="M 57.6 307.584 
L 414.72 307.584 
" style="fill: none; stroke: #000000; stroke-width: 0.8; stroke-linejoin: miter; stroke-linecap: square"/>
   </g>
   <g id="patch_16">
    <path d="M 57.6 229.315765 
L 414.72 229.315765 
" style="fill: none; stroke: #000000; stroke-width: 0.8; stroke-linejoin: miter; stroke-linecap: square"/>
   </g>
  </g>
  <g id="text_28">
   <!-- cleaned_weather_spring -->
   <g transform="translate(157.493438 16.030125) scale(0.12 -0.12)">
    <defs>
     <path id="DejaVuSans-63" d="M 3122 3366 
L 3122 2828 
Q 2878 2963 2633 3030 
Q 2388 3097 2138 3097 
Q 1578 3097 1268 2742 
Q 959 2388 959 1747 
Q 959 1106 1268 751 
Q 1578 397 2138 397 
Q 2388 397 2633 464 
Q 2878 531 3122 666 
L 3122 134 
Q 2881 22 2623 -34 
Q 2366 -91 2075 -91 
Q 1284 -91 818 406 
Q 353 903 353 1747 
Q 353 2603 823 3093 
Q 1294 3584 2113 3584 
Q 2378 3584 2631 3529 
Q 2884 3475 3122 3366 
z
" transform="scale(0.015625)"/>
     <path id="DejaVuSans-6c" d="M 603 4863 
L 1178 4863 
L 1178 0 
L 603 0 
L 603 4863 
z
" transform="scale(0.015625)"/>
     <path id="DejaVuSans-65" d="M 3597 1894 
L 3597 1613 
L 953 1613 
Q 991 1019 1311 708 
Q 1631 397 2203 397 
Q 2534 397 2845 478 
Q 3156 559 3463 722 
L 3463 178 
Q 3153 47 2828 -22 
Q 2503 -91 2169 -91 
Q 1331 -91 842 396 
Q 353 884 353 1716 
Q 353 2575 817 3079 
Q 1281 3584 2069 3584 
Q 2775 3584 3186 3129 
Q 3597 2675 3597 1894 
z
M 3022 2063 
Q 3016 2534 2758 2815 
Q 2500 3097 2075 3097 
Q 1594 3097 1305 2825 
Q 1016 2553 972 2059 
L 3022 2063 
z
" transform="scale(0.015625)"/>
     <path id="DejaVuSans-61" d="M 2194 1759 
Q 1497 1759 1228 1600 
Q 959 1441 959 1056 
Q 959 750 1161 570 
Q 1363 391 1709 391 
Q 2188 391 2477 730 
Q 2766 1069 2766 1631 
L 2766 1759 
L 2194 1759 
z
M 3341 1997 
L 3341 0 
L 2766 0 
L 2766 531 
Q 2569 213 2275 61 
Q 1981 -91 1556 -91 
Q 1019 -91 701 211 
Q 384 513 384 1019 
Q 384 1609 779 1909 
Q 1175 2209 1959 2209 
L 2766 2209 
L 2766 2266 
Q 2766 2663 2505 2880 
Q 2244 3097 1772 3097 
Q 1472 3097 1187 3025 
Q 903 2953 641 2809 
L 641 3341 
Q 956 3463 1253 3523 
Q 1550 3584 1831 3584 
Q 2591 3584 2966 3190 
Q 3341 2797 3341 1997 
z
" transform="scale(0.015625)"/>
     <path id="DejaVuSans-6e" d="M 3513 2113 
L 3513 0 
L 2938 0 
L 2938 2094 
Q 2938 2591 2744 2837 
Q 2550 3084 2163 3084 
Q 1697 3084 1428 2787 
Q 1159 2491 1159 1978 
L 1159 0 
L 581 0 
L 581 3500 
L 1159 3500 
L 1159 2956 
Q 1366 3272 1645 3428 
Q 1925 3584 2291 3584 
Q 2894 3584 3203 3211 
Q 3513 2838 3513 2113 
z
" transform="scale(0.015625)"/>
     <path id="DejaVuSans-64" d="M 2906 2969 
L 2906 4863 
L 3481 4863 
L 3481 0 
L 2906 0 
L 2906 525 
Q 2725 213 2448 61 
Q 2172 -91 1784 -91 
Q 1150 -91 751 415 
Q 353 922 353 1747 
Q 353 2572 751 3078 
Q 1150 3584 1784 3584 
Q 2172 3584 2448 3432 
Q 2725 3281 2906 2969 
z
M 947 1747 
Q 947 1113 1208 752 
Q 1469 391 1925 391 
Q 2381 391 2643 752 
Q 2906 1113 2906 1747 
Q 2906 2381 2643 2742 
Q 2381 3103 1925 3103 
Q 1469 3103 1208 2742 
Q 947 2381 947 1747 
z
" transform="scale(0.015625)"/>
     <path id="DejaVuSans-5f" d="M 3263 -1063 
L 3263 -1509 
L -63 -1509 
L -63 -1063 
L 3263 -1063 
z
" transform="scale(0.015625)"/>
     <path id="DejaVuSans-77" d="M 269 3500 
L 844 3500 
L 1563 769 
L 2278 3500 
L 2956 3500 
L 3675 769 
L 4391 3500 
L 4966 3500 
L 4050 0 
L 3372 0 
L 2619 2869 
L 1863 0 
L 1184 0 
L 269 3500 
z
" transform="scale(0.015625)"/>
     <path id="DejaVuSans-74" d="M 1172 4494 
L 1172 3500 
L 2356 3500 
L 2356 3053 
L 1172 3053 
L 1172 1153 
Q 1172 725 1289 603 
Q 1406 481 1766 481 
L 2356 481 
L 2356 0 
L 1766 0 
Q 1100 0 847 248 
Q 594 497 594 1153 
L 594 3053 
L 172 3053 
L 172 3500 
L 594 3500 
L 594 4494 
L 1172 4494 
z
" transform="scale(0.015625)"/>
     <path id="DejaVuSans-68" d="M 3513 2113 
L 3513 0 
L 2938 0 
L 2938 2094 
Q 2938 2591 2744 2837 
Q 2550 3084 2163 3084 
Q 1697 3084 1428 2787 
Q 1159 2491 1159 1978 
L 1159 0 
L 581 0 
L 581 4863 
L 1159 4863 
L 1159 2956 
Q 1366 3272 1645 3428 
Q 1925 3584 2291 3584 
Q 2894 3584 3203 3211 
Q 3513 2838 3513 2113 
z
" transform="scale(0.015625)"/>
     <path id="DejaVuSans-72" d="M 2631 2963 
Q 2534 3019 2420 3045 
Q 2306 3072 2169 3072 
Q 1681 3072 1420 2755 
Q 1159 2438 1159 1844 
L 1159 0 
L 581 0 
L 581 3500 
L 1159 3500 
L 1159 2956 
Q 1341 3275 1631 3429 
Q 1922 3584 2338 3584 
Q 2397 3584 2469 3576 
Q 2541 3569 2628 3553 
L 2631 2963 
z
" transform="scale(0.015625)"/>
     <path id="DejaVuSans-73" d="M 2834 3397 
L 2834 2853 
Q 2591 2978 2328 3040 
Q 2066 3103 1784 3103 
Q 1356 3103 1142 2972 
Q 928 2841 928 2578 
Q 928 2378 1081 2264 
Q 1234 2150 1697 2047 
L 1894 2003 
Q 2506 1872 2764 1633 
Q 3022 1394 3022 966 
Q 3022 478 2636 193 
Q 2250 -91 1575 -91 
Q 1294 -91 989 -36 
Q 684 19 347 128 
L 347 722 
Q 666 556 975 473 
Q 1284 391 1588 391 
Q 1994 391 2212 530 
Q 2431 669 2431 922 
Q 2431 1156 2273 1281 
Q 2116 1406 1581 1522 
L 1381 1569 
Q 847 1681 609 1914 
Q 372 2147 372 2553 
Q 372 3047 722 3315 
Q 1072 3584 1716 3584 
Q 2034 3584 2315 3537 
Q 2597 3491 2834 3397 
z
" transform="scale(0.015625)"/>
     <path id="DejaVuSans-70" d="M 1159 525 
L 1159 -1331 
L 581 -1331 
L 581 3500 
L 1159 3500 
L 1159 2969 
Q 1341 3281 1617 3432 
Q 1894 3584 2278 3584 
Q 2916 3584 3314 3078 
Q 3713 2572 3713 1747 
Q 3713 922 3314 415 
Q 2916 -91 2278 -91 
Q 1894 -91 1617 61 
Q 1341 213 1159 525 
z
M 3116 1747 
Q 3116 2381 2855 2742 
Q 2594 3103 2138 3103 
Q 1681 3103 1420 2742 
Q 1159 2381 1159 1747 
Q 1159 1113 1420 752 
Q 1681 391 2138 391 
Q 2594 391 2855 752 
Q 3116 1113 3116 1747 
z
" transform="scale(0.015625)"/>
     <path id="DejaVuSans-69" d="M 603 3500 
L 1178 3500 
L 1178 0 
L 603 0 
L 603 3500 
z
M 603 4863 
L 1178 4863 
L 1178 4134 
L 603 4134 
L 603 4863 
z
" transform="scale(0.015625)"/>
     <path id="DejaVuSans-67" d="M 2906 1791 
Q 2906 2416 2648 2759 
Q 2391 3103 1925 3103 
Q 1463 3103 1205 2759 
Q 947 2416 947 1791 
Q 947 1169 1205 825 
Q 1463 481 1925 481 
Q 2391 481 2648 825 
Q 2906 1169 2906 1791 
z
M 3481 434 
Q 3481 -459 3084 -895 
Q 2688 -1331 1869 -1331 
Q 1566 -1331 1297 -1286 
Q 1028 -1241 775 -1147 
L 775 -588 
Q 1028 -725 1275 -790 
Q 1522 -856 1778 -856 
Q 2344 -856 2625 -561 
Q 2906 -266 2906 331 
L 2906 616 
Q 2728 306 2450 153 
Q 2172 0 1784 0 
Q 1141 0 747 490 
Q 353 981 353 1791 
Q 353 2603 747 3093 
Q 1141 3584 1784 3584 
Q 2172 3584 2450 3431 
Q 2728 3278 2906 2969 
L 2906 3500 
L 3481 3500 
L 3481 434 
z
" transform="scale(0.015625)"/>
    </defs>
    <use xlink:href="#DejaVuSans-63"/>
    <use xlink:href="#DejaVuSans-6c" x="54.980469"/>
    <use xlink:href="#DejaVuSans-65" x="82.763672"/>
    <use xlink:href="#DejaVuSans-61" x="144.287109"/>
    <use xlink:href="#DejaVuSans-6e" x="205.566406"/>
    <use xlink:href="#DejaVuSans-65" x="268.945312"/>
    <use xlink:href="#DejaVuSans-64" x="330.46875"/>
    <use xlink:href="#DejaVuSans-5f" x="393.945312"/>
    <use xlink:href="#DejaVuSans-77" x="443.945312"/>
    <use xlink:href="#DejaVuSans-65" x="525.732422"/>
    <use xlink:href="#DejaVuSans-61" x="587.255859"/>
    <use xlink:href="#DejaVuSans-74" x="648.535156"/>
    <use xlink:href="#DejaVuSans-68" x="687.744141"/>
    <use xlink:href="#DejaVuSans-65" x="751.123047"/>
    <use xlink:href="#DejaVuSans-72" x="812.646484"/>
    <use xlink:href="#DejaVuSans-5f" x="853.759766"/>
    <use xlink:href="#DejaVuSans-73" x="903.759766"/>
    <use xlink:href="#DejaVuSans-70" x="955.859375"/>
    <use xlink:href="#DejaVuSans-72" x="1019.335938"/>
    <use xlink:href="#DejaVuSans-69" x="1060.449219"/>
    <use xlink:href="#DejaVuSans-6e" x="1088.232422"/>
    <use xlink:href="#DejaVuSans-67" x="1151.611328"/>
   </g>
  </g>
 </g>
 <defs>
  <clipPath id="p513086dd4d">
   <rect x="57.6" y="41.472" width="357.12" height="78.268235"/>
  </clipPath>
  <clipPath id="p032514179c">
   <rect x="57.6" y="135.393882" width="357.12" height="78.268235"/>
  </clipPath>
  <clipPath id="p53465e2b50">
   <rect x="57.6" y="229.315765" width="357.12" height="78.268235"/>
  </clipPath>
 </defs>
</svg>
