<?xml version="1.0" encoding="utf-8" standalone="no"?>
<!DOCTYPE svg PUBLIC "-//W3C//DTD SVG 1.1//EN"
  "http://www.w3.org/Graphics/SVG/1.1/DTD/svg11.dtd">
<svg xmlns:xlink="http://www.w3.org/1999/xlink" width="460.8pt" height="345.6pt" viewBox="0 0 460.8 345.6" xmlns="http://www.w3.org/2000/svg" version="1.1">
 <metadata>
  <rdf:RDF xmlns:dc="http://purl.org/dc/elements/1.1/" xmlns:cc="http://creativecommons.org/ns#" xmlns:rdf="http://www.w3.org/1999/02/22-rdf-syntax-ns#">
   <cc:Work>
    <dc:type rdf:resource="http://purl.org/dc/dcmitype/StillImage"/>
    <dc:date>2023-03-21T17:39:41.190603</dc:date>
    <dc:format>image/svg+xml</dc:format>
    <dc:creator>
     <cc:Agent>
      <dc:title>Matplotlib v3.7.0, https://matplotlib.org/</dc:title>
     </cc:Agent>
    </dc:creator>
   </cc:Work>
  </rdf:RDF>
 </metadata>
 <defs>
  <style type="text/css">*{stroke-linejoin: round; stroke-linecap: butt}</style>
 </defs>
 <g id="figure_1">
  <g id="patch_1">
   <path d="M 0 345.6 
L 460.8 345.6 
L 460.8 0 
L 0 0 
z
" style="fill: #ffffff"/>
  </g>
  <g id="axes_1">
   <g id="patch_2">
    <path d="M 57.6 119.740235 
L 414.72 119.740235 
L 414.72 41.472 
L 57.6 41.472 
z
" style="fill: #ffffff"/>
   </g>
   <g id="matplotlib.axis_1">
    <g id="xtick_1">
     <g id="line2d_1">
      <defs>
       <path id="mdc8b1c956d" d="M 0 0 
L 0 3.5 
" style="stroke: #000000; stroke-width: 0.8"/>
      </defs>
      <g>
       <use xlink:href="#mdc8b1c956d" x="73.832727" y="119.740235" style="stroke: #000000; stroke-width: 0.8"/>
      </g>
     </g>
     <g id="text_1">
      <!-- 0 -->
      <g transform="translate(70.651477 134.338673) scale(0.1 -0.1)">
       <defs>
        <path id="DejaVuSans-30" d="M 2034 4250 
Q 1547 4250 1301 3770 
Q 1056 3291 1056 2328 
Q 1056 1369 1301 889 
Q 1547 409 2034 409 
Q 2525 409 2770 889 
Q 3016 1369 3016 2328 
Q 3016 3291 2770 3770 
Q 2525 4250 2034 4250 
z
M 2034 4750 
Q 2819 4750 3233 4129 
Q 3647 3509 3647 2328 
Q 3647 1150 3233 529 
Q 2819 -91 2034 -91 
Q 1250 -91 836 529 
Q 422 1150 422 2328 
Q 422 3509 836 4129 
Q 1250 4750 2034 4750 
z
" transform="scale(0.015625)"/>
       </defs>
       <use xlink:href="#DejaVuSans-30"/>
      </g>
     </g>
    </g>
    <g id="xtick_2">
     <g id="line2d_2">
      <g>
       <use xlink:href="#mdc8b1c956d" x="128.017074" y="119.740235" style="stroke: #000000; stroke-width: 0.8"/>
      </g>
     </g>
     <g id="text_2">
      <!-- 5 -->
      <g transform="translate(124.835824 134.338673) scale(0.1 -0.1)">
       <defs>
        <path id="DejaVuSans-35" d="M 691 4666 
L 3169 4666 
L 3169 4134 
L 1269 4134 
L 1269 2991 
Q 1406 3038 1543 3061 
Q 1681 3084 1819 3084 
Q 2600 3084 3056 2656 
Q 3513 2228 3513 1497 
Q 3513 744 3044 326 
Q 2575 -91 1722 -91 
Q 1428 -91 1123 -41 
Q 819 9 494 109 
L 494 744 
Q 775 591 1075 516 
Q 1375 441 1709 441 
Q 2250 441 2565 725 
Q 2881 1009 2881 1497 
Q 2881 1984 2565 2268 
Q 2250 2553 1709 2553 
Q 1456 2553 1204 2497 
Q 953 2441 691 2322 
L 691 4666 
z
" transform="scale(0.015625)"/>
       </defs>
       <use xlink:href="#DejaVuSans-35"/>
      </g>
     </g>
    </g>
    <g id="xtick_3">
     <g id="line2d_3">
      <g>
       <use xlink:href="#mdc8b1c956d" x="182.201421" y="119.740235" style="stroke: #000000; stroke-width: 0.8"/>
      </g>
     </g>
     <g id="text_3">
      <!-- 10 -->
      <g transform="translate(175.838921 134.338673) scale(0.1 -0.1)">
       <defs>
        <path id="DejaVuSans-31" d="M 794 531 
L 1825 531 
L 1825 4091 
L 703 3866 
L 703 4441 
L 1819 4666 
L 2450 4666 
L 2450 531 
L 3481 531 
L 3481 0 
L 794 0 
L 794 531 
z
" transform="scale(0.015625)"/>
       </defs>
       <use xlink:href="#DejaVuSans-31"/>
       <use xlink:href="#DejaVuSans-30" x="63.623047"/>
      </g>
     </g>
    </g>
    <g id="xtick_4">
     <g id="line2d_4">
      <g>
       <use xlink:href="#mdc8b1c956d" x="236.385768" y="119.740235" style="stroke: #000000; stroke-width: 0.8"/>
      </g>
     </g>
     <g id="text_4">
      <!-- 15 -->
      <g transform="translate(230.023268 134.338673) scale(0.1 -0.1)">
       <use xlink:href="#DejaVuSans-31"/>
       <use xlink:href="#DejaVuSans-35" x="63.623047"/>
      </g>
     </g>
    </g>
    <g id="xtick_5">
     <g id="line2d_5">
      <g>
       <use xlink:href="#mdc8b1c956d" x="290.570115" y="119.740235" style="stroke: #000000; stroke-width: 0.8"/>
      </g>
     </g>
     <g id="text_5">
      <!-- 20 -->
      <g transform="translate(284.207615 134.338673) scale(0.1 -0.1)">
       <defs>
        <path id="DejaVuSans-32" d="M 1228 531 
L 3431 531 
L 3431 0 
L 469 0 
L 469 531 
Q 828 903 1448 1529 
Q 2069 2156 2228 2338 
Q 2531 2678 2651 2914 
Q 2772 3150 2772 3378 
Q 2772 3750 2511 3984 
Q 2250 4219 1831 4219 
Q 1534 4219 1204 4116 
Q 875 4013 500 3803 
L 500 4441 
Q 881 4594 1212 4672 
Q 1544 4750 1819 4750 
Q 2544 4750 2975 4387 
Q 3406 4025 3406 3419 
Q 3406 3131 3298 2873 
Q 3191 2616 2906 2266 
Q 2828 2175 2409 1742 
Q 1991 1309 1228 531 
z
" transform="scale(0.015625)"/>
       </defs>
       <use xlink:href="#DejaVuSans-32"/>
       <use xlink:href="#DejaVuSans-30" x="63.623047"/>
      </g>
     </g>
    </g>
    <g id="xtick_6">
     <g id="line2d_6">
      <g>
       <use xlink:href="#mdc8b1c956d" x="344.754462" y="119.740235" style="stroke: #000000; stroke-width: 0.8"/>
      </g>
     </g>
     <g id="text_6">
      <!-- 25 -->
      <g transform="translate(338.391962 134.338673) scale(0.1 -0.1)">
       <use xlink:href="#DejaVuSans-32"/>
       <use xlink:href="#DejaVuSans-35" x="63.623047"/>
      </g>
     </g>
    </g>
    <g id="xtick_7">
     <g id="line2d_7">
      <g>
       <use xlink:href="#mdc8b1c956d" x="398.938809" y="119.740235" style="stroke: #000000; stroke-width: 0.8"/>
      </g>
     </g>
     <g id="text_7">
      <!-- 30 -->
      <g transform="translate(392.576309 134.338673) scale(0.1 -0.1)">
       <defs>
        <path id="DejaVuSans-33" d="M 2597 2516 
Q 3050 2419 3304 2112 
Q 3559 1806 3559 1356 
Q 3559 666 3084 287 
Q 2609 -91 1734 -91 
Q 1441 -91 1130 -33 
Q 819 25 488 141 
L 488 750 
Q 750 597 1062 519 
Q 1375 441 1716 441 
Q 2309 441 2620 675 
Q 2931 909 2931 1356 
Q 2931 1769 2642 2001 
Q 2353 2234 1838 2234 
L 1294 2234 
L 1294 2753 
L 1863 2753 
Q 2328 2753 2575 2939 
Q 2822 3125 2822 3475 
Q 2822 3834 2567 4026 
Q 2313 4219 1838 4219 
Q 1578 4219 1281 4162 
Q 984 4106 628 3988 
L 628 4550 
Q 988 4650 1302 4700 
Q 1616 4750 1894 4750 
Q 2613 4750 3031 4423 
Q 3450 4097 3450 3541 
Q 3450 3153 3228 2886 
Q 3006 2619 2597 2516 
z
" transform="scale(0.015625)"/>
       </defs>
       <use xlink:href="#DejaVuSans-33"/>
       <use xlink:href="#DejaVuSans-30" x="63.623047"/>
      </g>
     </g>
    </g>
   </g>
   <g id="matplotlib.axis_2">
    <g id="ytick_1">
     <g id="line2d_8">
      <defs>
       <path id="md1c0cb0f05" d="M 0 0 
L -3.5 0 
" style="stroke: #000000; stroke-width: 0.8"/>
      </defs>
      <g>
       <use xlink:href="#md1c0cb0f05" x="57.6" y="116.182588" style="stroke: #000000; stroke-width: 0.8"/>
      </g>
     </g>
     <g id="text_8">
      <!-- 0 -->
      <g transform="translate(44.2375 119.981807) scale(0.1 -0.1)">
       <use xlink:href="#DejaVuSans-30"/>
      </g>
     </g>
    </g>
    <g id="ytick_2">
     <g id="line2d_9">
      <g>
       <use xlink:href="#md1c0cb0f05" x="57.6" y="78.733672" style="stroke: #000000; stroke-width: 0.8"/>
      </g>
     </g>
     <g id="text_9">
      <!-- 20 -->
      <g transform="translate(37.875 82.532891) scale(0.1 -0.1)">
       <use xlink:href="#DejaVuSans-32"/>
       <use xlink:href="#DejaVuSans-30" x="63.623047"/>
      </g>
     </g>
    </g>
   </g>
   <g id="line2d_10">
    <path d="M 73.832727 95.585684 
L 74.7358 95.585684 
L 75.187336 97.45813 
L 75.638872 101.203022 
L 76.541945 101.203022 
L 76.993481 103.075467 
L 77.445017 101.203022 
L 78.34809 84.351009 
L 78.799626 82.478563 
L 80.154234 88.095901 
L 80.605771 88.095901 
L 81.057307 91.840793 
L 81.508843 93.713238 
L 81.960379 93.713238 
L 82.411916 97.45813 
L 82.863452 99.330576 
L 83.314988 99.330576 
L 83.766524 97.45813 
L 84.21806 99.330576 
L 85.121133 99.330576 
L 85.572669 95.585684 
L 86.475742 91.840793 
L 86.927278 88.095901 
L 87.378814 91.840793 
L 87.83035 86.223455 
L 88.281886 88.095901 
L 88.733423 95.585684 
L 89.184959 97.45813 
L 89.636495 95.585684 
L 90.088031 95.585684 
L 90.539568 97.45813 
L 91.44264 97.45813 
L 91.894176 95.585684 
L 92.345712 95.585684 
L 92.797249 97.45813 
L 93.248785 101.203022 
L 93.700321 103.075467 
L 94.151857 101.203022 
L 95.05493 84.351009 
L 95.506466 82.478563 
L 96.409539 86.223455 
L 96.861075 82.478563 
L 97.312611 84.351009 
L 97.764147 80.606118 
L 98.215683 78.733672 
L 100.021828 78.733672 
L 100.924901 82.478563 
L 101.376437 88.095901 
L 102.279509 84.351009 
L 102.731046 84.351009 
L 103.182582 82.478563 
L 103.634118 86.223455 
L 104.988727 91.840793 
L 105.440263 95.585684 
L 108.14948 95.585684 
L 109.955625 103.075467 
L 110.407161 103.075467 
L 110.858698 97.45813 
L 111.310234 86.223455 
L 111.76177 78.733672 
L 112.664843 78.733672 
L 113.116379 74.98878 
L 113.567915 73.116334 
L 114.922524 73.116334 
L 115.37406 69.371443 
L 115.825596 69.371443 
L 116.277132 67.498997 
L 116.728669 74.98878 
L 117.180205 73.116334 
L 117.631741 73.116334 
L 118.083277 69.371443 
L 118.534814 69.371443 
L 118.98635 67.498997 
L 119.889422 71.243889 
L 120.792495 86.223455 
L 121.244031 91.840793 
L 121.695567 91.840793 
L 122.147103 95.585684 
L 122.59864 97.45813 
L 123.050176 101.203022 
L 123.501712 101.203022 
L 123.953248 103.075467 
L 124.404784 101.203022 
L 125.307857 84.351009 
L 125.759393 82.478563 
L 127.114002 88.095901 
L 127.565538 88.095901 
L 128.017074 91.840793 
L 128.46861 93.713238 
L 129.371683 93.713238 
L 129.823219 95.585684 
L 130.726292 84.351009 
L 131.177828 80.606118 
L 131.629364 78.733672 
L 132.0809 74.98878 
L 132.532436 73.116334 
L 132.983973 73.116334 
L 133.887045 76.861226 
L 134.338581 80.606118 
L 134.790118 82.478563 
L 135.241654 82.478563 
L 135.69319 80.606118 
L 136.144726 80.606118 
L 136.596262 116.182588 
L 137.047799 89.968347 
L 137.499335 76.861226 
L 138.402407 69.371443 
L 139.757016 63.754105 
L 140.660089 63.754105 
L 142.014697 69.371443 
L 142.91777 80.606118 
L 143.369306 82.478563 
L 143.820842 82.478563 
L 145.175451 88.095901 
L 147.884668 88.095901 
L 148.336204 89.968347 
L 148.787741 89.968347 
L 149.239277 86.223455 
L 149.690813 88.095901 
L 151.045422 88.095901 
L 151.496958 89.968347 
L 151.948494 89.968347 
L 152.40003 88.095901 
L 152.851567 88.095901 
L 153.303103 84.351009 
L 153.754639 76.861226 
L 154.657711 65.626551 
L 155.109248 61.881659 
L 156.01232 58.136768 
L 156.915393 58.136768 
L 157.366929 69.371443 
L 157.818465 69.371443 
L 158.270001 67.498997 
L 158.721537 71.243889 
L 159.173074 67.498997 
L 159.62461 65.626551 
L 160.076146 65.626551 
L 160.979219 61.881659 
L 161.882291 61.881659 
L 162.333827 60.009214 
L 162.785364 60.009214 
L 163.2369 58.136768 
L 163.688436 60.009214 
L 164.139972 60.009214 
L 164.591508 63.754105 
L 165.043045 69.371443 
L 165.494581 73.116334 
L 165.946117 74.98878 
L 166.397653 78.733672 
L 167.300726 82.478563 
L 167.752262 82.478563 
L 168.203798 84.351009 
L 168.655334 82.478563 
L 169.558407 82.478563 
L 171.364552 89.968347 
L 171.816088 89.968347 
L 172.267624 88.095901 
L 172.71916 89.968347 
L 173.170697 88.095901 
L 173.622233 84.351009 
L 174.073769 76.861226 
L 174.976842 65.626551 
L 175.428378 61.881659 
L 176.33145 58.136768 
L 177.234523 58.136768 
L 177.686059 60.009214 
L 178.137595 60.009214 
L 178.589131 63.754105 
L 179.040668 69.371443 
L 179.492204 73.116334 
L 179.94374 74.98878 
L 180.395276 78.733672 
L 181.298349 82.478563 
L 182.201421 82.478563 
L 182.652957 84.351009 
L 183.104494 84.351009 
L 183.55603 82.478563 
L 184.459102 82.478563 
L 184.910639 84.351009 
L 185.362175 82.478563 
L 185.813711 78.733672 
L 187.16832 73.116334 
L 187.619856 67.498997 
L 188.071392 63.754105 
L 188.522928 61.881659 
L 189.426001 69.371443 
L 189.877537 69.371443 
L 190.329073 67.498997 
L 190.780609 69.371443 
L 191.232146 69.371443 
L 191.683682 67.498997 
L 192.135218 69.371443 
L 192.586754 74.98878 
L 193.038291 78.733672 
L 193.489827 80.606118 
L 193.941363 80.606118 
L 194.844435 76.861226 
L 195.295972 78.733672 
L 195.747508 76.861226 
L 196.199044 78.733672 
L 198.908261 78.733672 
L 200.26287 84.351009 
L 200.714406 84.351009 
L 201.165943 86.223455 
L 201.617479 86.223455 
L 202.069015 84.351009 
L 202.520551 84.351009 
L 202.972087 86.223455 
L 203.423624 86.223455 
L 203.87516 88.095901 
L 204.326696 86.223455 
L 204.778232 88.095901 
L 206.584377 73.116334 
L 207.035914 71.243889 
L 207.48745 67.498997 
L 207.938986 67.498997 
L 208.390522 65.626551 
L 209.293595 80.606118 
L 209.745131 78.733672 
L 210.196667 74.98878 
L 211.09974 71.243889 
L 212.002812 78.733672 
L 212.905884 74.98878 
L 213.357421 78.733672 
L 213.808957 78.733672 
L 214.260493 76.861226 
L 215.615102 76.861226 
L 216.066638 78.733672 
L 216.518174 74.98878 
L 217.421247 74.98878 
L 217.872783 73.116334 
L 218.775855 80.606118 
L 220.582 88.095901 
L 221.485073 88.095901 
L 221.936609 82.478563 
L 222.388145 78.733672 
L 223.742754 73.116334 
L 224.19429 67.498997 
L 224.645826 63.754105 
L 225.097362 61.881659 
L 226.000435 69.371443 
L 226.903507 61.881659 
L 227.80658 58.136768 
L 228.709652 58.136768 
L 229.161189 69.371443 
L 229.612725 69.371443 
L 230.064261 67.498997 
L 230.515797 63.754105 
L 230.967333 61.881659 
L 231.870406 69.371443 
L 232.321942 69.371443 
L 232.773478 67.498997 
L 233.225015 69.371443 
L 234.128087 61.881659 
L 235.031159 58.136768 
L 235.934232 58.136768 
L 236.385768 69.371443 
L 236.837304 69.371443 
L 237.288841 67.498997 
L 237.740377 63.754105 
L 238.191913 61.881659 
L 239.094985 69.371443 
L 239.546522 69.371443 
L 239.998058 67.498997 
L 240.449594 69.371443 
L 240.90113 69.371443 
L 241.352667 67.498997 
L 241.804203 69.371443 
L 242.255739 69.371443 
L 242.707275 67.498997 
L 243.158811 69.371443 
L 244.061884 61.881659 
L 244.964956 58.136768 
L 245.868029 58.136768 
L 246.319565 60.009214 
L 246.771101 60.009214 
L 247.222638 63.754105 
L 247.674174 69.371443 
L 248.12571 73.116334 
L 248.577246 74.98878 
L 249.028782 78.733672 
L 249.931855 82.478563 
L 250.834927 82.478563 
L 251.286464 80.606118 
L 252.189536 80.606118 
L 253.092608 84.351009 
L 253.544145 84.351009 
L 253.995681 86.223455 
L 254.447217 84.351009 
L 254.898753 84.351009 
L 255.801826 88.095901 
L 256.704898 88.095901 
L 257.156434 84.351009 
L 257.607971 86.223455 
L 258.059507 86.223455 
L 258.511043 88.095901 
L 259.414116 88.095901 
L 259.865652 89.968347 
L 260.317188 89.968347 
L 260.768724 84.351009 
L 261.22026 76.861226 
L 263.026405 54.391876 
L 264.83255 46.902093 
L 269.799449 46.902093 
L 270.250985 45.029647 
L 272.960202 45.029647 
L 273.411739 46.902093 
L 274.314811 61.881659 
L 274.766347 73.116334 
L 275.66942 80.606118 
L 277.927101 89.968347 
L 278.830173 89.968347 
L 279.281709 91.840793 
L 279.733246 88.095901 
L 280.184782 80.606118 
L 280.636318 74.98878 
L 282.442463 67.498997 
L 282.893999 67.498997 
L 283.797072 63.754105 
L 284.248608 116.182588 
L 284.700144 116.182588 
L 285.15168 63.754105 
L 285.603217 116.182588 
L 286.054753 63.754105 
L 286.506289 116.182588 
L 287.409361 116.182588 
L 287.860898 61.881659 
L 288.76397 65.626551 
L 289.215506 116.182588 
L 289.667043 76.861226 
L 290.118579 78.733672 
L 290.570115 84.351009 
L 291.021651 86.223455 
L 291.924724 78.733672 
L 292.37626 73.116334 
L 292.827796 69.371443 
L 293.730869 76.861226 
L 294.182405 82.478563 
L 296.440086 82.478563 
L 296.891622 84.351009 
L 298.246231 84.351009 
L 298.697767 82.478563 
L 299.149303 82.478563 
L 300.503912 88.095901 
L 301.406984 88.095901 
L 301.858521 89.968347 
L 302.761593 89.968347 
L 303.213129 86.223455 
L 303.664666 84.351009 
L 304.567738 76.861226 
L 305.019274 71.243889 
L 305.47081 69.371443 
L 305.922347 73.116334 
L 306.373883 74.98878 
L 306.825419 78.733672 
L 307.276955 84.351009 
L 307.728492 86.223455 
L 308.180028 89.968347 
L 308.631564 91.840793 
L 309.534636 91.840793 
L 309.986173 86.223455 
L 310.437709 89.968347 
L 310.889245 91.840793 
L 311.340781 91.840793 
L 313.146926 84.351009 
L 317.662289 84.351009 
L 318.113825 82.478563 
L 319.016897 82.478563 
L 319.468433 84.351009 
L 319.91997 89.968347 
L 320.823042 89.968347 
L 321.274578 88.095901 
L 322.629187 93.713238 
L 323.080723 89.968347 
L 323.532259 88.095901 
L 323.983796 88.095901 
L 324.435332 89.968347 
L 326.241477 89.968347 
L 326.693013 88.095901 
L 327.144549 89.968347 
L 328.047622 86.223455 
L 328.499158 86.223455 
L 328.950694 88.095901 
L 329.40223 91.840793 
L 329.853767 88.095901 
L 330.756839 73.116334 
L 331.208375 73.116334 
L 331.659911 74.98878 
L 332.111448 78.733672 
L 332.562984 69.371443 
L 333.917593 69.371443 
L 334.369129 71.243889 
L 334.820665 67.498997 
L 335.723738 63.754105 
L 336.62681 71.243889 
L 337.078346 69.371443 
L 337.981419 76.861226 
L 338.432955 71.243889 
L 338.884491 71.243889 
L 341.142172 61.881659 
L 341.593708 65.626551 
L 342.045245 116.182588 
L 342.496781 76.861226 
L 342.948317 78.733672 
L 343.399853 84.351009 
L 343.85139 86.223455 
L 344.754462 78.733672 
L 345.205998 78.733672 
L 345.657534 74.98878 
L 347.012143 69.371443 
L 347.463679 78.733672 
L 347.915216 84.351009 
L 348.366752 88.095901 
L 349.269824 91.840793 
L 349.72136 89.968347 
L 350.172897 89.968347 
L 350.624433 91.840793 
L 351.075969 95.585684 
L 351.527505 97.45813 
L 351.979042 97.45813 
L 352.882114 101.203022 
L 353.33365 101.203022 
L 353.785186 103.075467 
L 354.236723 103.075467 
L 354.688259 106.820359 
L 355.139795 101.203022 
L 355.591331 97.45813 
L 356.042868 97.45813 
L 356.494404 91.840793 
L 357.397476 84.351009 
L 358.300549 91.840793 
L 360.106694 99.330576 
L 360.55823 97.45813 
L 361.461302 80.606118 
L 361.912839 74.98878 
L 362.364375 67.498997 
L 362.815911 63.754105 
L 363.267447 61.881659 
L 363.718983 61.881659 
L 364.17052 63.754105 
L 365.073592 78.733672 
L 365.525128 84.351009 
L 366.879737 89.968347 
L 367.782809 69.371443 
L 369.137418 69.371443 
L 369.588954 71.243889 
L 370.040491 67.498997 
L 370.943563 63.754105 
L 371.846635 71.243889 
L 372.298172 69.371443 
L 372.749708 65.626551 
L 373.65278 61.881659 
L 374.104317 58.136768 
L 374.555853 56.264322 
L 375.007389 67.498997 
L 375.458925 69.371443 
L 375.910461 65.626551 
L 376.361998 69.371443 
L 376.813534 74.98878 
L 377.716606 82.478563 
L 378.168143 82.478563 
L 378.619679 84.351009 
L 382.231969 84.351009 
L 382.683505 80.606118 
L 383.135041 78.733672 
L 384.038114 71.243889 
L 384.48965 69.371443 
L 384.941186 71.243889 
L 385.392722 69.371443 
L 385.844258 71.243889 
L 386.295795 71.243889 
L 386.747331 73.116334 
L 387.198867 71.243889 
L 387.650403 74.98878 
L 388.10194 74.98878 
L 389.908084 82.478563 
L 391.714229 82.478563 
L 392.617302 86.223455 
L 393.97191 86.223455 
L 394.423447 89.968347 
L 394.874983 86.223455 
L 395.326519 84.351009 
L 396.681128 73.116334 
L 397.132664 78.733672 
L 397.5842 82.478563 
L 398.035737 88.095901 
L 398.487273 89.968347 
L 398.487273 89.968347 
" clip-path="url(#pdb33d3de97)" style="fill: none; stroke: #1f77b4; stroke-width: 1.5; stroke-linecap: square"/>
   </g>
   <g id="patch_3">
    <path d="M 57.6 119.740235 
L 57.6 41.472 
" style="fill: none; stroke: #000000; stroke-width: 0.8; stroke-linejoin: miter; stroke-linecap: square"/>
   </g>
   <g id="patch_4">
    <path d="M 414.72 119.740235 
L 414.72 41.472 
" style="fill: none; stroke: #000000; stroke-width: 0.8; stroke-linejoin: miter; stroke-linecap: square"/>
   </g>
   <g id="patch_5">
    <path d="M 57.6 119.740235 
L 414.72 119.740235 
" style="fill: none; stroke: #000000; stroke-width: 0.8; stroke-linejoin: miter; stroke-linecap: square"/>
   </g>
   <g id="patch_6">
    <path d="M 57.6 41.472 
L 414.72 41.472 
" style="fill: none; stroke: #000000; stroke-width: 0.8; stroke-linejoin: miter; stroke-linecap: square"/>
   </g>
  </g>
  <g id="axes_2">
   <g id="patch_7">
    <path d="M 57.6 213.662118 
L 414.72 213.662118 
L 414.72 135.393882 
L 57.6 135.393882 
z
" style="fill: #ffffff"/>
   </g>
   <g id="matplotlib.axis_3">
    <g id="xtick_8">
     <g id="line2d_11">
      <g>
       <use xlink:href="#mdc8b1c956d" x="73.832727" y="213.662118" style="stroke: #000000; stroke-width: 0.8"/>
      </g>
     </g>
     <g id="text_10">
      <!-- 0 -->
      <g transform="translate(70.651477 228.260555) scale(0.1 -0.1)">
       <use xlink:href="#DejaVuSans-30"/>
      </g>
     </g>
    </g>
    <g id="xtick_9">
     <g id="line2d_12">
      <g>
       <use xlink:href="#mdc8b1c956d" x="128.017074" y="213.662118" style="stroke: #000000; stroke-width: 0.8"/>
      </g>
     </g>
     <g id="text_11">
      <!-- 5 -->
      <g transform="translate(124.835824 228.260555) scale(0.1 -0.1)">
       <use xlink:href="#DejaVuSans-35"/>
      </g>
     </g>
    </g>
    <g id="xtick_10">
     <g id="line2d_13">
      <g>
       <use xlink:href="#mdc8b1c956d" x="182.201421" y="213.662118" style="stroke: #000000; stroke-width: 0.8"/>
      </g>
     </g>
     <g id="text_12">
      <!-- 10 -->
      <g transform="translate(175.838921 228.260555) scale(0.1 -0.1)">
       <use xlink:href="#DejaVuSans-31"/>
       <use xlink:href="#DejaVuSans-30" x="63.623047"/>
      </g>
     </g>
    </g>
    <g id="xtick_11">
     <g id="line2d_14">
      <g>
       <use xlink:href="#mdc8b1c956d" x="236.385768" y="213.662118" style="stroke: #000000; stroke-width: 0.8"/>
      </g>
     </g>
     <g id="text_13">
      <!-- 15 -->
      <g transform="translate(230.023268 228.260555) scale(0.1 -0.1)">
       <use xlink:href="#DejaVuSans-31"/>
       <use xlink:href="#DejaVuSans-35" x="63.623047"/>
      </g>
     </g>
    </g>
    <g id="xtick_12">
     <g id="line2d_15">
      <g>
       <use xlink:href="#mdc8b1c956d" x="290.570115" y="213.662118" style="stroke: #000000; stroke-width: 0.8"/>
      </g>
     </g>
     <g id="text_14">
      <!-- 20 -->
      <g transform="translate(284.207615 228.260555) scale(0.1 -0.1)">
       <use xlink:href="#DejaVuSans-32"/>
       <use xlink:href="#DejaVuSans-30" x="63.623047"/>
      </g>
     </g>
    </g>
    <g id="xtick_13">
     <g id="line2d_16">
      <g>
       <use xlink:href="#mdc8b1c956d" x="344.754462" y="213.662118" style="stroke: #000000; stroke-width: 0.8"/>
      </g>
     </g>
     <g id="text_15">
      <!-- 25 -->
      <g transform="translate(338.391962 228.260555) scale(0.1 -0.1)">
       <use xlink:href="#DejaVuSans-32"/>
       <use xlink:href="#DejaVuSans-35" x="63.623047"/>
      </g>
     </g>
    </g>
    <g id="xtick_14">
     <g id="line2d_17">
      <g>
       <use xlink:href="#mdc8b1c956d" x="398.938809" y="213.662118" style="stroke: #000000; stroke-width: 0.8"/>
      </g>
     </g>
     <g id="text_16">
      <!-- 30 -->
      <g transform="translate(392.576309 228.260555) scale(0.1 -0.1)">
       <use xlink:href="#DejaVuSans-33"/>
       <use xlink:href="#DejaVuSans-30" x="63.623047"/>
      </g>
     </g>
    </g>
   </g>
   <g id="matplotlib.axis_4">
    <g id="ytick_3">
     <g id="line2d_18">
      <g>
       <use xlink:href="#md1c0cb0f05" x="57.6" y="210.104471" style="stroke: #000000; stroke-width: 0.8"/>
      </g>
     </g>
     <g id="text_17">
      <!-- 0 -->
      <g transform="translate(44.2375 213.903689) scale(0.1 -0.1)">
       <use xlink:href="#DejaVuSans-30"/>
      </g>
     </g>
    </g>
    <g id="ytick_4">
     <g id="line2d_19">
      <g>
       <use xlink:href="#md1c0cb0f05" x="57.6" y="174.528" style="stroke: #000000; stroke-width: 0.8"/>
      </g>
     </g>
     <g id="text_18">
      <!-- 50 -->
      <g transform="translate(37.875 178.327219) scale(0.1 -0.1)">
       <use xlink:href="#DejaVuSans-35"/>
       <use xlink:href="#DejaVuSans-30" x="63.623047"/>
      </g>
     </g>
    </g>
    <g id="ytick_5">
     <g id="line2d_20">
      <g>
       <use xlink:href="#md1c0cb0f05" x="57.6" y="138.951529" style="stroke: #000000; stroke-width: 0.8"/>
      </g>
     </g>
     <g id="text_19">
      <!-- 100 -->
      <g transform="translate(31.5125 142.750748) scale(0.1 -0.1)">
       <use xlink:href="#DejaVuSans-31"/>
       <use xlink:href="#DejaVuSans-30" x="63.623047"/>
       <use xlink:href="#DejaVuSans-30" x="127.246094"/>
      </g>
     </g>
    </g>
   </g>
   <g id="line2d_21">
    <path d="M 73.832727 151.047529 
L 74.7358 148.201412 
L 75.187336 141.086118 
L 75.638872 138.951529 
L 76.993481 138.951529 
L 77.445017 142.509176 
L 77.896553 158.162824 
L 78.34809 169.547294 
L 78.799626 172.393412 
L 79.251162 169.547294 
L 79.702698 165.989647 
L 80.154234 164.566588 
L 80.605771 159.585882 
L 81.057307 148.201412 
L 81.508843 144.643765 
L 81.960379 149.624471 
L 82.411916 141.086118 
L 82.863452 138.951529 
L 83.314988 138.951529 
L 83.766524 140.374588 
L 84.669597 138.951529 
L 85.121133 139.663059 
L 85.572669 142.509176 
L 86.475742 153.182118 
L 86.927278 159.585882 
L 87.378814 159.585882 
L 87.83035 163.855059 
L 88.281886 163.143529 
L 88.733423 146.066824 
L 89.184959 140.374588 
L 89.636495 141.797647 
L 90.539568 138.951529 
L 91.44264 143.220706 
L 91.894176 148.912941 
L 92.345712 151.047529 
L 93.248785 140.374588 
L 93.700321 138.951529 
L 94.151857 142.509176 
L 94.603394 158.162824 
L 95.05493 169.547294 
L 95.506466 172.393412 
L 95.958002 169.547294 
L 96.409539 165.278118 
L 96.861075 174.528 
L 97.312611 170.970353 
L 98.215683 180.220235 
L 98.66722 180.931765 
L 99.570292 179.508706 
L 100.021828 180.220235 
L 100.473365 178.085647 
L 100.924901 176.662588 
L 101.376437 168.835765 
L 102.279509 176.662588 
L 103.182582 180.931765 
L 104.085654 170.258824 
L 104.537191 171.681882 
L 104.988727 165.989647 
L 105.440263 156.028235 
L 105.891799 156.739765 
L 107.697944 156.739765 
L 108.14948 153.893647 
L 108.601017 147.489882 
L 109.504089 141.797647 
L 109.955625 140.374588 
L 110.407161 139.663059 
L 110.858698 148.201412 
L 111.310234 166.701176 
L 111.76177 175.951059 
L 112.213306 175.951059 
L 112.664843 180.220235 
L 113.116379 183.066353 
L 113.567915 185.200941 
L 114.019451 185.912471 
L 114.470987 187.335529 
L 115.37406 188.758588 
L 115.825596 188.758588 
L 116.277132 189.470118 
L 116.728669 185.200941 
L 117.180205 187.335529 
L 118.083277 188.758588 
L 118.534814 188.758588 
L 119.437886 190.181647 
L 119.889422 189.470118 
L 120.340958 183.777882 
L 121.244031 163.855059 
L 121.695567 159.585882 
L 122.147103 151.047529 
L 122.59864 145.355294 
L 123.050176 141.797647 
L 123.501712 139.663059 
L 123.953248 138.951529 
L 124.404784 142.509176 
L 124.856321 158.162824 
L 125.307857 169.547294 
L 125.759393 172.393412 
L 126.210929 169.547294 
L 126.662466 165.989647 
L 127.114002 164.566588 
L 127.565538 159.585882 
L 128.017074 148.201412 
L 128.46861 144.643765 
L 128.920147 149.624471 
L 129.371683 149.624471 
L 129.823219 147.489882 
L 130.274755 156.739765 
L 130.726292 162.432 
L 131.629364 162.432 
L 132.532436 173.104941 
L 132.983973 173.816471 
L 134.338581 163.143529 
L 134.790118 158.162824 
L 135.241654 155.316706 
L 135.69319 161.008941 
L 136.144726 160.297412 
L 136.596262 210.104471 
L 137.047799 144.643765 
L 137.499335 163.143529 
L 137.950871 166.701176 
L 138.853944 177.374118 
L 139.757016 183.066353 
L 140.660089 184.489412 
L 141.111625 181.643294 
L 141.563161 180.931765 
L 142.014697 179.508706 
L 142.91777 144.643765 
L 143.369306 142.509176 
L 143.820842 141.086118 
L 145.175451 138.951529 
L 148.787741 138.951529 
L 149.239277 140.374588 
L 149.690813 140.374588 
L 150.142349 141.086118 
L 150.593885 140.374588 
L 151.045422 140.374588 
L 151.496958 138.951529 
L 152.851567 138.951529 
L 153.303103 139.663059 
L 154.657711 165.278118 
L 155.560784 174.528 
L 156.01232 177.374118 
L 156.463856 180.931765 
L 156.915393 179.508706 
L 157.366929 165.278118 
L 157.818465 166.701176 
L 158.270001 164.566588 
L 158.721537 158.874353 
L 159.62461 166.701176 
L 160.076146 169.547294 
L 160.527682 173.104941 
L 160.979219 174.528 
L 161.430755 174.528 
L 161.882291 175.239529 
L 162.333827 177.374118 
L 162.785364 178.797176 
L 163.2369 179.508706 
L 163.688436 179.508706 
L 164.139972 178.085647 
L 165.043045 165.989647 
L 165.494581 153.893647 
L 166.397653 142.509176 
L 166.84919 140.374588 
L 167.300726 138.951529 
L 168.203798 138.951529 
L 168.655334 140.374588 
L 169.106871 141.086118 
L 169.558407 141.086118 
L 170.913016 138.951529 
L 171.816088 138.951529 
L 172.267624 140.374588 
L 172.71916 138.951529 
L 173.170697 138.951529 
L 173.622233 139.663059 
L 174.976842 165.278118 
L 175.879914 174.528 
L 176.33145 177.374118 
L 176.782986 180.931765 
L 177.234523 179.508706 
L 177.686059 179.508706 
L 178.137595 178.085647 
L 179.040668 165.989647 
L 179.492204 153.893647 
L 180.395276 142.509176 
L 180.846812 140.374588 
L 181.298349 138.951529 
L 183.104494 138.951529 
L 184.007566 141.797647 
L 184.459102 141.797647 
L 184.910639 139.663059 
L 185.362175 143.220706 
L 185.813711 149.624471 
L 186.265247 151.047529 
L 186.716783 149.624471 
L 187.16832 153.893647 
L 187.619856 164.566588 
L 188.071392 169.547294 
L 188.522928 169.547294 
L 188.974465 167.412706 
L 189.426001 160.297412 
L 189.877537 158.874353 
L 190.329073 163.855059 
L 190.780609 160.297412 
L 191.232146 158.874353 
L 191.683682 163.855059 
L 192.135218 160.297412 
L 192.586754 148.912941 
L 193.038291 143.220706 
L 193.489827 142.509176 
L 193.941363 143.932235 
L 194.392899 146.778353 
L 194.844435 151.047529 
L 195.295972 151.759059 
L 195.747508 153.182118 
L 196.199044 151.759059 
L 198.908261 151.759059 
L 199.359798 151.047529 
L 199.811334 151.047529 
L 200.26287 149.624471 
L 201.165943 149.624471 
L 201.617479 150.336 
L 202.069015 154.605176 
L 202.520551 151.759059 
L 202.972087 151.047529 
L 203.87516 146.778353 
L 204.326696 146.778353 
L 204.778232 145.355294 
L 206.584377 172.393412 
L 207.48745 184.489412 
L 208.390522 185.912471 
L 208.842058 178.085647 
L 209.293595 162.432 
L 209.745131 162.432 
L 210.648203 173.104941 
L 211.09974 176.662588 
L 212.002812 158.162824 
L 212.454348 160.297412 
L 212.905884 164.566588 
L 213.357421 163.143529 
L 213.808957 160.297412 
L 214.260493 158.162824 
L 214.712029 157.451294 
L 215.163566 160.297412 
L 215.615102 156.739765 
L 216.066638 150.336 
L 216.518174 163.855059 
L 216.96971 167.412706 
L 217.421247 165.989647 
L 217.872783 165.278118 
L 218.775855 146.066824 
L 219.227392 141.086118 
L 220.582 138.951529 
L 221.485073 138.951529 
L 221.936609 143.220706 
L 222.388145 149.624471 
L 222.839681 151.047529 
L 223.291218 149.624471 
L 223.742754 153.893647 
L 224.19429 164.566588 
L 224.645826 169.547294 
L 225.097362 169.547294 
L 225.548899 167.412706 
L 226.000435 160.297412 
L 227.355044 174.528 
L 227.80658 177.374118 
L 228.258116 180.931765 
L 228.709652 179.508706 
L 229.161189 165.278118 
L 229.612725 166.701176 
L 230.064261 164.566588 
L 230.515797 169.547294 
L 230.967333 169.547294 
L 231.41887 167.412706 
L 231.870406 160.297412 
L 232.321942 158.874353 
L 232.773478 163.855059 
L 233.225015 160.297412 
L 234.579623 174.528 
L 235.031159 177.374118 
L 235.482696 180.931765 
L 235.934232 179.508706 
L 236.385768 165.278118 
L 236.837304 166.701176 
L 237.288841 164.566588 
L 237.740377 169.547294 
L 238.191913 169.547294 
L 238.643449 167.412706 
L 239.094985 160.297412 
L 239.546522 158.874353 
L 239.998058 163.855059 
L 240.449594 160.297412 
L 240.90113 158.874353 
L 241.352667 163.855059 
L 241.804203 160.297412 
L 242.255739 158.874353 
L 242.707275 163.855059 
L 243.158811 160.297412 
L 244.51342 174.528 
L 244.964956 177.374118 
L 245.416493 180.931765 
L 245.868029 179.508706 
L 246.319565 179.508706 
L 246.771101 178.085647 
L 247.674174 165.989647 
L 248.12571 153.893647 
L 249.028782 142.509176 
L 249.480319 140.374588 
L 249.931855 138.951529 
L 250.383391 138.951529 
L 250.834927 141.086118 
L 251.286464 141.797647 
L 251.738 143.220706 
L 252.189536 142.509176 
L 252.641072 141.086118 
L 253.092608 140.374588 
L 253.544145 138.951529 
L 258.511043 138.951529 
L 258.962579 141.086118 
L 259.414116 140.374588 
L 259.865652 138.951529 
L 260.317188 138.951529 
L 260.768724 147.489882 
L 261.671797 170.258824 
L 262.574869 183.066353 
L 263.026405 188.047059 
L 263.929478 189.470118 
L 264.381014 191.604706 
L 269.347913 191.604706 
L 270.702521 193.739294 
L 271.154057 193.027765 
L 271.605594 193.027765 
L 272.05713 193.739294 
L 272.508666 193.027765 
L 272.960202 193.027765 
L 273.411739 192.316235 
L 273.863275 190.181647 
L 274.314811 183.777882 
L 275.217883 163.855059 
L 275.66942 156.739765 
L 276.572492 146.778353 
L 277.024028 143.220706 
L 277.475565 141.086118 
L 277.927101 139.663059 
L 278.378637 138.951529 
L 279.281709 138.951529 
L 279.733246 142.509176 
L 280.184782 161.720471 
L 280.636318 175.951059 
L 281.087854 178.085647 
L 281.539391 178.797176 
L 281.990927 180.931765 
L 282.442463 181.643294 
L 282.893999 181.643294 
L 283.345535 183.066353 
L 283.797072 185.200941 
L 284.248608 210.104471 
L 284.700144 210.104471 
L 285.15168 184.489412 
L 285.603217 210.104471 
L 286.054753 184.489412 
L 286.506289 210.104471 
L 287.409361 210.104471 
L 287.860898 185.200941 
L 288.312434 210.104471 
L 288.76397 184.489412 
L 289.215506 183.066353 
L 289.667043 173.816471 
L 290.118579 170.970353 
L 290.570115 154.605176 
L 291.021651 151.047529 
L 291.473188 156.028235 
L 292.37626 167.412706 
L 292.827796 173.104941 
L 293.730869 154.605176 
L 294.182405 141.086118 
L 294.633941 142.509176 
L 295.085477 141.797647 
L 295.537014 140.374588 
L 295.98855 141.086118 
L 296.440086 141.086118 
L 296.891622 140.374588 
L 297.343158 138.951529 
L 298.246231 143.220706 
L 298.697767 144.643765 
L 299.149303 146.778353 
L 299.60084 142.509176 
L 300.052376 142.509176 
L 300.503912 141.797647 
L 300.955448 141.797647 
L 301.406984 139.663059 
L 301.858521 138.951529 
L 302.761593 138.951529 
L 303.664666 146.778353 
L 304.116202 152.470588 
L 305.019274 168.124235 
L 305.47081 170.258824 
L 305.922347 168.124235 
L 306.373883 164.566588 
L 306.825419 158.874353 
L 307.276955 150.336 
L 307.728492 143.932235 
L 308.180028 140.374588 
L 308.631564 138.951529 
L 309.534636 138.951529 
L 309.986173 141.086118 
L 310.437709 138.951529 
L 317.662289 138.951529 
L 318.113825 142.509176 
L 318.565361 143.220706 
L 319.016897 147.489882 
L 319.468433 146.066824 
L 319.91997 139.663059 
L 320.371506 138.951529 
L 320.823042 138.951529 
L 321.726115 143.220706 
L 322.177651 139.663059 
L 322.629187 138.951529 
L 323.532259 151.047529 
L 323.983796 155.316706 
L 324.435332 151.047529 
L 324.886868 148.201412 
L 325.338404 146.066824 
L 325.789941 144.643765 
L 326.241477 146.066824 
L 326.693013 148.912941 
L 327.144549 149.624471 
L 327.596085 151.047529 
L 328.047622 153.893647 
L 328.499158 150.336 
L 328.950694 144.643765 
L 329.40223 142.509176 
L 329.853767 148.201412 
L 330.756839 170.258824 
L 331.208375 170.970353 
L 331.659911 168.124235 
L 332.111448 163.143529 
L 332.562984 175.951059 
L 333.01452 177.374118 
L 333.466056 178.085647 
L 333.917593 177.374118 
L 334.369129 175.951059 
L 334.820665 176.662588 
L 335.272201 176.662588 
L 335.723738 177.374118 
L 336.175274 173.816471 
L 336.62681 168.835765 
L 337.078346 172.393412 
L 337.529882 169.547294 
L 337.981419 168.124235 
L 338.432955 175.951059 
L 338.884491 175.951059 
L 339.336027 178.797176 
L 339.787564 182.354824 
L 340.690636 185.200941 
L 341.142172 187.335529 
L 341.593708 184.489412 
L 342.045245 183.066353 
L 342.496781 173.816471 
L 342.948317 170.970353 
L 343.399853 154.605176 
L 343.85139 151.047529 
L 344.302926 161.720471 
L 344.754462 167.412706 
L 345.205998 168.124235 
L 345.657534 175.239529 
L 346.109071 176.662588 
L 347.012143 184.489412 
L 347.915216 160.297412 
L 348.366752 153.182118 
L 348.818288 148.912941 
L 349.269824 146.778353 
L 349.72136 146.066824 
L 350.172897 144.643765 
L 350.624433 142.509176 
L 351.075969 139.663059 
L 351.527505 138.951529 
L 354.688259 138.951529 
L 355.139795 140.374588 
L 355.591331 144.643765 
L 356.042868 144.643765 
L 356.94594 163.855059 
L 357.397476 170.970353 
L 357.849013 168.124235 
L 358.752085 150.336 
L 359.655157 143.220706 
L 360.106694 141.086118 
L 360.55823 143.220706 
L 361.009766 158.874353 
L 361.461302 168.835765 
L 362.364375 180.220235 
L 362.815911 183.066353 
L 363.267447 186.624 
L 363.718983 188.047059 
L 364.17052 188.047059 
L 364.622056 185.200941 
L 365.976665 152.470588 
L 366.428201 147.489882 
L 366.879737 143.932235 
L 367.331273 163.143529 
L 367.782809 175.951059 
L 368.234346 177.374118 
L 368.685882 178.085647 
L 369.137418 177.374118 
L 369.588954 175.951059 
L 370.040491 176.662588 
L 370.492027 176.662588 
L 370.943563 177.374118 
L 371.395099 173.816471 
L 371.846635 168.835765 
L 372.298172 170.258824 
L 372.749708 175.951059 
L 373.201244 178.085647 
L 373.65278 178.797176 
L 374.104317 183.777882 
L 374.555853 183.777882 
L 375.007389 163.143529 
L 375.458925 150.336 
L 376.361998 170.258824 
L 376.813534 153.182118 
L 377.26507 143.220706 
L 377.716606 139.663059 
L 378.168143 139.663059 
L 378.619679 140.374588 
L 379.522751 138.951529 
L 379.974288 139.663059 
L 380.425824 141.086118 
L 380.87736 145.355294 
L 382.231969 145.355294 
L 382.683505 148.201412 
L 383.135041 150.336 
L 384.038114 162.432 
L 384.48965 165.989647 
L 385.392722 164.566588 
L 385.844258 163.143529 
L 386.295795 161.008941 
L 386.747331 156.028235 
L 387.198867 158.874353 
L 387.650403 151.759059 
L 388.10194 148.912941 
L 388.553476 146.778353 
L 389.005012 145.355294 
L 389.456548 138.951529 
L 389.908084 138.951529 
L 391.262693 141.086118 
L 391.714229 141.086118 
L 392.165766 141.797647 
L 392.617302 139.663059 
L 393.068838 138.951529 
L 393.520374 138.951529 
L 393.97191 140.374588 
L 394.423447 138.951529 
L 395.326519 146.778353 
L 395.778055 152.470588 
L 396.229592 159.585882 
L 396.681128 168.835765 
L 397.132664 161.008941 
L 397.5842 155.316706 
L 398.035737 142.509176 
L 398.487273 138.951529 
L 398.487273 138.951529 
" clip-path="url(#pd8ddd5dfea)" style="fill: none; stroke: #1f77b4; stroke-width: 1.5; stroke-linecap: square"/>
   </g>
   <g id="patch_8">
    <path d="M 57.6 213.662118 
L 57.6 135.393882 
" style="fill: none; stroke: #000000; stroke-width: 0.8; stroke-linejoin: miter; stroke-linecap: square"/>
   </g>
   <g id="patch_9">
    <path d="M 414.72 213.662118 
L 414.72 135.393882 
" style="fill: none; stroke: #000000; stroke-width: 0.8; stroke-linejoin: miter; stroke-linecap: square"/>
   </g>
   <g id="patch_10">
    <path d="M 57.6 213.662118 
L 414.72 213.662118 
" style="fill: none; stroke: #000000; stroke-width: 0.8; stroke-linejoin: miter; stroke-linecap: square"/>
   </g>
   <g id="patch_11">
    <path d="M 57.6 135.393882 
L 414.72 135.393882 
" style="fill: none; stroke: #000000; stroke-width: 0.8; stroke-linejoin: miter; stroke-linecap: square"/>
   </g>
  </g>
  <g id="axes_3">
   <g id="patch_12">
    <path d="M 57.6 307.584 
L 414.72 307.584 
L 414.72 229.315765 
L 57.6 229.315765 
z
" style="fill: #ffffff"/>
   </g>
   <g id="matplotlib.axis_5">
    <g id="xtick_15">
     <g id="line2d_22">
      <g>
       <use xlink:href="#mdc8b1c956d" x="73.832727" y="307.584" style="stroke: #000000; stroke-width: 0.8"/>
      </g>
     </g>
     <g id="text_20">
      <!-- 0 -->
      <g transform="translate(70.651477 322.182437) scale(0.1 -0.1)">
       <use xlink:href="#DejaVuSans-30"/>
      </g>
     </g>
    </g>
    <g id="xtick_16">
     <g id="line2d_23">
      <g>
       <use xlink:href="#mdc8b1c956d" x="128.017074" y="307.584" style="stroke: #000000; stroke-width: 0.8"/>
      </g>
     </g>
     <g id="text_21">
      <!-- 5 -->
      <g transform="translate(124.835824 322.182437) scale(0.1 -0.1)">
       <use xlink:href="#DejaVuSans-35"/>
      </g>
     </g>
    </g>
    <g id="xtick_17">
     <g id="line2d_24">
      <g>
       <use xlink:href="#mdc8b1c956d" x="182.201421" y="307.584" style="stroke: #000000; stroke-width: 0.8"/>
      </g>
     </g>
     <g id="text_22">
      <!-- 10 -->
      <g transform="translate(175.838921 322.182437) scale(0.1 -0.1)">
       <use xlink:href="#DejaVuSans-31"/>
       <use xlink:href="#DejaVuSans-30" x="63.623047"/>
      </g>
     </g>
    </g>
    <g id="xtick_18">
     <g id="line2d_25">
      <g>
       <use xlink:href="#mdc8b1c956d" x="236.385768" y="307.584" style="stroke: #000000; stroke-width: 0.8"/>
      </g>
     </g>
     <g id="text_23">
      <!-- 15 -->
      <g transform="translate(230.023268 322.182437) scale(0.1 -0.1)">
       <use xlink:href="#DejaVuSans-31"/>
       <use xlink:href="#DejaVuSans-35" x="63.623047"/>
      </g>
     </g>
    </g>
    <g id="xtick_19">
     <g id="line2d_26">
      <g>
       <use xlink:href="#mdc8b1c956d" x="290.570115" y="307.584" style="stroke: #000000; stroke-width: 0.8"/>
      </g>
     </g>
     <g id="text_24">
      <!-- 20 -->
      <g transform="translate(284.207615 322.182437) scale(0.1 -0.1)">
       <use xlink:href="#DejaVuSans-32"/>
       <use xlink:href="#DejaVuSans-30" x="63.623047"/>
      </g>
     </g>
    </g>
    <g id="xtick_20">
     <g id="line2d_27">
      <g>
       <use xlink:href="#mdc8b1c956d" x="344.754462" y="307.584" style="stroke: #000000; stroke-width: 0.8"/>
      </g>
     </g>
     <g id="text_25">
      <!-- 25 -->
      <g transform="translate(338.391962 322.182437) scale(0.1 -0.1)">
       <use xlink:href="#DejaVuSans-32"/>
       <use xlink:href="#DejaVuSans-35" x="63.623047"/>
      </g>
     </g>
    </g>
    <g id="xtick_21">
     <g id="line2d_28">
      <g>
       <use xlink:href="#mdc8b1c956d" x="398.938809" y="307.584" style="stroke: #000000; stroke-width: 0.8"/>
      </g>
     </g>
     <g id="text_26">
      <!-- 30 -->
      <g transform="translate(392.576309 322.182437) scale(0.1 -0.1)">
       <use xlink:href="#DejaVuSans-33"/>
       <use xlink:href="#DejaVuSans-30" x="63.623047"/>
      </g>
     </g>
    </g>
   </g>
   <g id="matplotlib.axis_6">
    <g id="ytick_6">
     <g id="line2d_29">
      <g>
       <use xlink:href="#md1c0cb0f05" x="57.6" y="304.026353" style="stroke: #000000; stroke-width: 0.8"/>
      </g>
     </g>
     <g id="text_27">
      <!-- 0 -->
      <g transform="translate(44.2375 307.825572) scale(0.1 -0.1)">
       <use xlink:href="#DejaVuSans-30"/>
      </g>
     </g>
    </g>
    <g id="ytick_7">
     <g id="line2d_30">
      <g>
       <use xlink:href="#md1c0cb0f05" x="57.6" y="264.496941" style="stroke: #000000; stroke-width: 0.8"/>
      </g>
     </g>
     <g id="text_28">
      <!-- 5 -->
      <g transform="translate(44.2375 268.29616) scale(0.1 -0.1)">
       <use xlink:href="#DejaVuSans-35"/>
      </g>
     </g>
    </g>
   </g>
   <g id="line2d_31">
    <path d="M 73.832727 304.026353 
L 150.593885 304.026353 
L 151.045422 272.402824 
L 151.496958 296.120471 
L 151.948494 288.214588 
L 152.40003 288.214588 
L 152.851567 304.026353 
L 311.340781 304.026353 
L 311.792318 280.308706 
L 312.243854 232.873412 
L 312.69539 304.026353 
L 313.146926 304.026353 
L 313.598463 288.214588 
L 314.049999 280.308706 
L 314.501535 280.308706 
L 314.953071 304.026353 
L 315.404607 304.026353 
L 315.856144 288.214588 
L 316.30768 280.308706 
L 316.759216 280.308706 
L 317.210752 304.026353 
L 374.555853 304.026353 
L 375.007389 288.214588 
L 375.458925 304.026353 
L 389.005012 304.026353 
L 389.456548 296.120471 
L 389.908084 304.026353 
L 398.487273 304.026353 
L 398.487273 304.026353 
" clip-path="url(#p1481c6ef14)" style="fill: none; stroke: #1f77b4; stroke-width: 1.5; stroke-linecap: square"/>
   </g>
   <g id="patch_13">
    <path d="M 57.6 307.584 
L 57.6 229.315765 
" style="fill: none; stroke: #000000; stroke-width: 0.8; stroke-linejoin: miter; stroke-linecap: square"/>
   </g>
   <g id="patch_14">
    <path d="M 414.72 307.584 
L 414.72 229.315765 
" style="fill: none; stroke: #000000; stroke-width: 0.8; stroke-linejoin: miter; stroke-linecap: square"/>
   </g>
   <g id="patch_15">
    <path d="M 57.6 307.584 
L 414.72 307.584 
" style="fill: none; stroke: #000000; stroke-width: 0.8; stroke-linejoin: miter; stroke-linecap: square"/>
   </g>
   <g id="patch_16">
    <path d="M 57.6 229.315765 
L 414.72 229.315765 
" style="fill: none; stroke: #000000; stroke-width: 0.8; stroke-linejoin: miter; stroke-linecap: square"/>
   </g>
  </g>
  <g id="text_29">
   <!-- cleaned_weather_summer -->
   <g transform="translate(151.397813 16.030125) scale(0.12 -0.12)">
    <defs>
     <path id="DejaVuSans-63" d="M 3122 3366 
L 3122 2828 
Q 2878 2963 2633 3030 
Q 2388 3097 2138 3097 
Q 1578 3097 1268 2742 
Q 959 2388 959 1747 
Q 959 1106 1268 751 
Q 1578 397 2138 397 
Q 2388 397 2633 464 
Q 2878 531 3122 666 
L 3122 134 
Q 2881 22 2623 -34 
Q 2366 -91 2075 -91 
Q 1284 -91 818 406 
Q 353 903 353 1747 
Q 353 2603 823 3093 
Q 1294 3584 2113 3584 
Q 2378 3584 2631 3529 
Q 2884 3475 3122 3366 
z
" transform="scale(0.015625)"/>
     <path id="DejaVuSans-6c" d="M 603 4863 
L 1178 4863 
L 1178 0 
L 603 0 
L 603 4863 
z
" transform="scale(0.015625)"/>
     <path id="DejaVuSans-65" d="M 3597 1894 
L 3597 1613 
L 953 1613 
Q 991 1019 1311 708 
Q 1631 397 2203 397 
Q 2534 397 2845 478 
Q 3156 559 3463 722 
L 3463 178 
Q 3153 47 2828 -22 
Q 2503 -91 2169 -91 
Q 1331 -91 842 396 
Q 353 884 353 1716 
Q 353 2575 817 3079 
Q 1281 3584 2069 3584 
Q 2775 3584 3186 3129 
Q 3597 2675 3597 1894 
z
M 3022 2063 
Q 3016 2534 2758 2815 
Q 2500 3097 2075 3097 
Q 1594 3097 1305 2825 
Q 1016 2553 972 2059 
L 3022 2063 
z
" transform="scale(0.015625)"/>
     <path id="DejaVuSans-61" d="M 2194 1759 
Q 1497 1759 1228 1600 
Q 959 1441 959 1056 
Q 959 750 1161 570 
Q 1363 391 1709 391 
Q 2188 391 2477 730 
Q 2766 1069 2766 1631 
L 2766 1759 
L 2194 1759 
z
M 3341 1997 
L 3341 0 
L 2766 0 
L 2766 531 
Q 2569 213 2275 61 
Q 1981 -91 1556 -91 
Q 1019 -91 701 211 
Q 384 513 384 1019 
Q 384 1609 779 1909 
Q 1175 2209 1959 2209 
L 2766 2209 
L 2766 2266 
Q 2766 2663 2505 2880 
Q 2244 3097 1772 3097 
Q 1472 3097 1187 3025 
Q 903 2953 641 2809 
L 641 3341 
Q 956 3463 1253 3523 
Q 1550 3584 1831 3584 
Q 2591 3584 2966 3190 
Q 3341 2797 3341 1997 
z
" transform="scale(0.015625)"/>
     <path id="DejaVuSans-6e" d="M 3513 2113 
L 3513 0 
L 2938 0 
L 2938 2094 
Q 2938 2591 2744 2837 
Q 2550 3084 2163 3084 
Q 1697 3084 1428 2787 
Q 1159 2491 1159 1978 
L 1159 0 
L 581 0 
L 581 3500 
L 1159 3500 
L 1159 2956 
Q 1366 3272 1645 3428 
Q 1925 3584 2291 3584 
Q 2894 3584 3203 3211 
Q 3513 2838 3513 2113 
z
" transform="scale(0.015625)"/>
     <path id="DejaVuSans-64" d="M 2906 2969 
L 2906 4863 
L 3481 4863 
L 3481 0 
L 2906 0 
L 2906 525 
Q 2725 213 2448 61 
Q 2172 -91 1784 -91 
Q 1150 -91 751 415 
Q 353 922 353 1747 
Q 353 2572 751 3078 
Q 1150 3584 1784 3584 
Q 2172 3584 2448 3432 
Q 2725 3281 2906 2969 
z
M 947 1747 
Q 947 1113 1208 752 
Q 1469 391 1925 391 
Q 2381 391 2643 752 
Q 2906 1113 2906 1747 
Q 2906 2381 2643 2742 
Q 2381 3103 1925 3103 
Q 1469 3103 1208 2742 
Q 947 2381 947 1747 
z
" transform="scale(0.015625)"/>
     <path id="DejaVuSans-5f" d="M 3263 -1063 
L 3263 -1509 
L -63 -1509 
L -63 -1063 
L 3263 -1063 
z
" transform="scale(0.015625)"/>
     <path id="DejaVuSans-77" d="M 269 3500 
L 844 3500 
L 1563 769 
L 2278 3500 
L 2956 3500 
L 3675 769 
L 4391 3500 
L 4966 3500 
L 4050 0 
L 3372 0 
L 2619 2869 
L 1863 0 
L 1184 0 
L 269 3500 
z
" transform="scale(0.015625)"/>
     <path id="DejaVuSans-74" d="M 1172 4494 
L 1172 3500 
L 2356 3500 
L 2356 3053 
L 1172 3053 
L 1172 1153 
Q 1172 725 1289 603 
Q 1406 481 1766 481 
L 2356 481 
L 2356 0 
L 1766 0 
Q 1100 0 847 248 
Q 594 497 594 1153 
L 594 3053 
L 172 3053 
L 172 3500 
L 594 3500 
L 594 4494 
L 1172 4494 
z
" transform="scale(0.015625)"/>
     <path id="DejaVuSans-68" d="M 3513 2113 
L 3513 0 
L 2938 0 
L 2938 2094 
Q 2938 2591 2744 2837 
Q 2550 3084 2163 3084 
Q 1697 3084 1428 2787 
Q 1159 2491 1159 1978 
L 1159 0 
L 581 0 
L 581 4863 
L 1159 4863 
L 1159 2956 
Q 1366 3272 1645 3428 
Q 1925 3584 2291 3584 
Q 2894 3584 3203 3211 
Q 3513 2838 3513 2113 
z
" transform="scale(0.015625)"/>
     <path id="DejaVuSans-72" d="M 2631 2963 
Q 2534 3019 2420 3045 
Q 2306 3072 2169 3072 
Q 1681 3072 1420 2755 
Q 1159 2438 1159 1844 
L 1159 0 
L 581 0 
L 581 3500 
L 1159 3500 
L 1159 2956 
Q 1341 3275 1631 3429 
Q 1922 3584 2338 3584 
Q 2397 3584 2469 3576 
Q 2541 3569 2628 3553 
L 2631 2963 
z
" transform="scale(0.015625)"/>
     <path id="DejaVuSans-73" d="M 2834 3397 
L 2834 2853 
Q 2591 2978 2328 3040 
Q 2066 3103 1784 3103 
Q 1356 3103 1142 2972 
Q 928 2841 928 2578 
Q 928 2378 1081 2264 
Q 1234 2150 1697 2047 
L 1894 2003 
Q 2506 1872 2764 1633 
Q 3022 1394 3022 966 
Q 3022 478 2636 193 
Q 2250 -91 1575 -91 
Q 1294 -91 989 -36 
Q 684 19 347 128 
L 347 722 
Q 666 556 975 473 
Q 1284 391 1588 391 
Q 1994 391 2212 530 
Q 2431 669 2431 922 
Q 2431 1156 2273 1281 
Q 2116 1406 1581 1522 
L 1381 1569 
Q 847 1681 609 1914 
Q 372 2147 372 2553 
Q 372 3047 722 3315 
Q 1072 3584 1716 3584 
Q 2034 3584 2315 3537 
Q 2597 3491 2834 3397 
z
" transform="scale(0.015625)"/>
     <path id="DejaVuSans-75" d="M 544 1381 
L 544 3500 
L 1119 3500 
L 1119 1403 
Q 1119 906 1312 657 
Q 1506 409 1894 409 
Q 2359 409 2629 706 
Q 2900 1003 2900 1516 
L 2900 3500 
L 3475 3500 
L 3475 0 
L 2900 0 
L 2900 538 
Q 2691 219 2414 64 
Q 2138 -91 1772 -91 
Q 1169 -91 856 284 
Q 544 659 544 1381 
z
M 1991 3584 
L 1991 3584 
z
" transform="scale(0.015625)"/>
     <path id="DejaVuSans-6d" d="M 3328 2828 
Q 3544 3216 3844 3400 
Q 4144 3584 4550 3584 
Q 5097 3584 5394 3201 
Q 5691 2819 5691 2113 
L 5691 0 
L 5113 0 
L 5113 2094 
Q 5113 2597 4934 2840 
Q 4756 3084 4391 3084 
Q 3944 3084 3684 2787 
Q 3425 2491 3425 1978 
L 3425 0 
L 2847 0 
L 2847 2094 
Q 2847 2600 2669 2842 
Q 2491 3084 2119 3084 
Q 1678 3084 1418 2786 
Q 1159 2488 1159 1978 
L 1159 0 
L 581 0 
L 581 3500 
L 1159 3500 
L 1159 2956 
Q 1356 3278 1631 3431 
Q 1906 3584 2284 3584 
Q 2666 3584 2933 3390 
Q 3200 3197 3328 2828 
z
" transform="scale(0.015625)"/>
    </defs>
    <use xlink:href="#DejaVuSans-63"/>
    <use xlink:href="#DejaVuSans-6c" x="54.980469"/>
    <use xlink:href="#DejaVuSans-65" x="82.763672"/>
    <use xlink:href="#DejaVuSans-61" x="144.287109"/>
    <use xlink:href="#DejaVuSans-6e" x="205.566406"/>
    <use xlink:href="#DejaVuSans-65" x="268.945312"/>
    <use xlink:href="#DejaVuSans-64" x="330.46875"/>
    <use xlink:href="#DejaVuSans-5f" x="393.945312"/>
    <use xlink:href="#DejaVuSans-77" x="443.945312"/>
    <use xlink:href="#DejaVuSans-65" x="525.732422"/>
    <use xlink:href="#DejaVuSans-61" x="587.255859"/>
    <use xlink:href="#DejaVuSans-74" x="648.535156"/>
    <use xlink:href="#DejaVuSans-68" x="687.744141"/>
    <use xlink:href="#DejaVuSans-65" x="751.123047"/>
    <use xlink:href="#DejaVuSans-72" x="812.646484"/>
    <use xlink:href="#DejaVuSans-5f" x="853.759766"/>
    <use xlink:href="#DejaVuSans-73" x="903.759766"/>
    <use xlink:href="#DejaVuSans-75" x="955.859375"/>
    <use xlink:href="#DejaVuSans-6d" x="1019.238281"/>
    <use xlink:href="#DejaVuSans-6d" x="1116.650391"/>
    <use xlink:href="#DejaVuSans-65" x="1214.0625"/>
    <use xlink:href="#DejaVuSans-72" x="1275.585938"/>
   </g>
  </g>
 </g>
 <defs>
  <clipPath id="pdb33d3de97">
   <rect x="57.6" y="41.472" width="357.12" height="78.268235"/>
  </clipPath>
  <clipPath id="pd8ddd5dfea">
   <rect x="57.6" y="135.393882" width="357.12" height="78.268235"/>
  </clipPath>
  <clipPath id="p1481c6ef14">
   <rect x="57.6" y="229.315765" width="357.12" height="78.268235"/>
  </clipPath>
 </defs>
</svg>
