<?xml version="1.0" encoding="utf-8" standalone="no"?>
<!DOCTYPE svg PUBLIC "-//W3C//DTD SVG 1.1//EN"
  "http://www.w3.org/Graphics/SVG/1.1/DTD/svg11.dtd">
<svg xmlns:xlink="http://www.w3.org/1999/xlink" width="460.8pt" height="345.6pt" viewBox="0 0 460.8 345.6" xmlns="http://www.w3.org/2000/svg" version="1.1">
 <metadata>
  <rdf:RDF xmlns:dc="http://purl.org/dc/elements/1.1/" xmlns:cc="http://creativecommons.org/ns#" xmlns:rdf="http://www.w3.org/1999/02/22-rdf-syntax-ns#">
   <cc:Work>
    <dc:type rdf:resource="http://purl.org/dc/dcmitype/StillImage"/>
    <dc:date>2023-03-21T17:39:41.455354</dc:date>
    <dc:format>image/svg+xml</dc:format>
    <dc:creator>
     <cc:Agent>
      <dc:title>Matplotlib v3.7.0, https://matplotlib.org/</dc:title>
     </cc:Agent>
    </dc:creator>
   </cc:Work>
  </rdf:RDF>
 </metadata>
 <defs>
  <style type="text/css">*{stroke-linejoin: round; stroke-linecap: butt}</style>
 </defs>
 <g id="figure_1">
  <g id="patch_1">
   <path d="M 0 345.6 
L 460.8 345.6 
L 460.8 0 
L 0 0 
z
" style="fill: #ffffff"/>
  </g>
  <g id="axes_1">
   <g id="patch_2">
    <path d="M 57.6 119.740235 
L 414.72 119.740235 
L 414.72 41.472 
L 57.6 41.472 
z
" style="fill: #ffffff"/>
   </g>
   <g id="matplotlib.axis_1">
    <g id="xtick_1">
     <g id="line2d_1">
      <defs>
       <path id="m0f39bfee9a" d="M 0 0 
L 0 3.5 
" style="stroke: #000000; stroke-width: 0.8"/>
      </defs>
      <g>
       <use xlink:href="#m0f39bfee9a" x="73.832727" y="119.740235" style="stroke: #000000; stroke-width: 0.8"/>
      </g>
     </g>
     <g id="text_1">
      <!-- 0 -->
      <g transform="translate(70.651477 134.338673) scale(0.1 -0.1)">
       <defs>
        <path id="DejaVuSans-30" d="M 2034 4250 
Q 1547 4250 1301 3770 
Q 1056 3291 1056 2328 
Q 1056 1369 1301 889 
Q 1547 409 2034 409 
Q 2525 409 2770 889 
Q 3016 1369 3016 2328 
Q 3016 3291 2770 3770 
Q 2525 4250 2034 4250 
z
M 2034 4750 
Q 2819 4750 3233 4129 
Q 3647 3509 3647 2328 
Q 3647 1150 3233 529 
Q 2819 -91 2034 -91 
Q 1250 -91 836 529 
Q 422 1150 422 2328 
Q 422 3509 836 4129 
Q 1250 4750 2034 4750 
z
" transform="scale(0.015625)"/>
       </defs>
       <use xlink:href="#DejaVuSans-30"/>
      </g>
     </g>
    </g>
    <g id="xtick_2">
     <g id="line2d_2">
      <g>
       <use xlink:href="#m0f39bfee9a" x="128.017074" y="119.740235" style="stroke: #000000; stroke-width: 0.8"/>
      </g>
     </g>
     <g id="text_2">
      <!-- 5 -->
      <g transform="translate(124.835824 134.338673) scale(0.1 -0.1)">
       <defs>
        <path id="DejaVuSans-35" d="M 691 4666 
L 3169 4666 
L 3169 4134 
L 1269 4134 
L 1269 2991 
Q 1406 3038 1543 3061 
Q 1681 3084 1819 3084 
Q 2600 3084 3056 2656 
Q 3513 2228 3513 1497 
Q 3513 744 3044 326 
Q 2575 -91 1722 -91 
Q 1428 -91 1123 -41 
Q 819 9 494 109 
L 494 744 
Q 775 591 1075 516 
Q 1375 441 1709 441 
Q 2250 441 2565 725 
Q 2881 1009 2881 1497 
Q 2881 1984 2565 2268 
Q 2250 2553 1709 2553 
Q 1456 2553 1204 2497 
Q 953 2441 691 2322 
L 691 4666 
z
" transform="scale(0.015625)"/>
       </defs>
       <use xlink:href="#DejaVuSans-35"/>
      </g>
     </g>
    </g>
    <g id="xtick_3">
     <g id="line2d_3">
      <g>
       <use xlink:href="#m0f39bfee9a" x="182.201421" y="119.740235" style="stroke: #000000; stroke-width: 0.8"/>
      </g>
     </g>
     <g id="text_3">
      <!-- 10 -->
      <g transform="translate(175.838921 134.338673) scale(0.1 -0.1)">
       <defs>
        <path id="DejaVuSans-31" d="M 794 531 
L 1825 531 
L 1825 4091 
L 703 3866 
L 703 4441 
L 1819 4666 
L 2450 4666 
L 2450 531 
L 3481 531 
L 3481 0 
L 794 0 
L 794 531 
z
" transform="scale(0.015625)"/>
       </defs>
       <use xlink:href="#DejaVuSans-31"/>
       <use xlink:href="#DejaVuSans-30" x="63.623047"/>
      </g>
     </g>
    </g>
    <g id="xtick_4">
     <g id="line2d_4">
      <g>
       <use xlink:href="#m0f39bfee9a" x="236.385768" y="119.740235" style="stroke: #000000; stroke-width: 0.8"/>
      </g>
     </g>
     <g id="text_4">
      <!-- 15 -->
      <g transform="translate(230.023268 134.338673) scale(0.1 -0.1)">
       <use xlink:href="#DejaVuSans-31"/>
       <use xlink:href="#DejaVuSans-35" x="63.623047"/>
      </g>
     </g>
    </g>
    <g id="xtick_5">
     <g id="line2d_5">
      <g>
       <use xlink:href="#m0f39bfee9a" x="290.570115" y="119.740235" style="stroke: #000000; stroke-width: 0.8"/>
      </g>
     </g>
     <g id="text_5">
      <!-- 20 -->
      <g transform="translate(284.207615 134.338673) scale(0.1 -0.1)">
       <defs>
        <path id="DejaVuSans-32" d="M 1228 531 
L 3431 531 
L 3431 0 
L 469 0 
L 469 531 
Q 828 903 1448 1529 
Q 2069 2156 2228 2338 
Q 2531 2678 2651 2914 
Q 2772 3150 2772 3378 
Q 2772 3750 2511 3984 
Q 2250 4219 1831 4219 
Q 1534 4219 1204 4116 
Q 875 4013 500 3803 
L 500 4441 
Q 881 4594 1212 4672 
Q 1544 4750 1819 4750 
Q 2544 4750 2975 4387 
Q 3406 4025 3406 3419 
Q 3406 3131 3298 2873 
Q 3191 2616 2906 2266 
Q 2828 2175 2409 1742 
Q 1991 1309 1228 531 
z
" transform="scale(0.015625)"/>
       </defs>
       <use xlink:href="#DejaVuSans-32"/>
       <use xlink:href="#DejaVuSans-30" x="63.623047"/>
      </g>
     </g>
    </g>
    <g id="xtick_6">
     <g id="line2d_6">
      <g>
       <use xlink:href="#m0f39bfee9a" x="344.754462" y="119.740235" style="stroke: #000000; stroke-width: 0.8"/>
      </g>
     </g>
     <g id="text_6">
      <!-- 25 -->
      <g transform="translate(338.391962 134.338673) scale(0.1 -0.1)">
       <use xlink:href="#DejaVuSans-32"/>
       <use xlink:href="#DejaVuSans-35" x="63.623047"/>
      </g>
     </g>
    </g>
    <g id="xtick_7">
     <g id="line2d_7">
      <g>
       <use xlink:href="#m0f39bfee9a" x="398.938809" y="119.740235" style="stroke: #000000; stroke-width: 0.8"/>
      </g>
     </g>
     <g id="text_7">
      <!-- 30 -->
      <g transform="translate(392.576309 134.338673) scale(0.1 -0.1)">
       <defs>
        <path id="DejaVuSans-33" d="M 2597 2516 
Q 3050 2419 3304 2112 
Q 3559 1806 3559 1356 
Q 3559 666 3084 287 
Q 2609 -91 1734 -91 
Q 1441 -91 1130 -33 
Q 819 25 488 141 
L 488 750 
Q 750 597 1062 519 
Q 1375 441 1716 441 
Q 2309 441 2620 675 
Q 2931 909 2931 1356 
Q 2931 1769 2642 2001 
Q 2353 2234 1838 2234 
L 1294 2234 
L 1294 2753 
L 1863 2753 
Q 2328 2753 2575 2939 
Q 2822 3125 2822 3475 
Q 2822 3834 2567 4026 
Q 2313 4219 1838 4219 
Q 1578 4219 1281 4162 
Q 984 4106 628 3988 
L 628 4550 
Q 988 4650 1302 4700 
Q 1616 4750 1894 4750 
Q 2613 4750 3031 4423 
Q 3450 4097 3450 3541 
Q 3450 3153 3228 2886 
Q 3006 2619 2597 2516 
z
" transform="scale(0.015625)"/>
       </defs>
       <use xlink:href="#DejaVuSans-33"/>
       <use xlink:href="#DejaVuSans-30" x="63.623047"/>
      </g>
     </g>
    </g>
   </g>
   <g id="matplotlib.axis_2">
    <g id="ytick_1">
     <g id="line2d_8">
      <defs>
       <path id="m8c76412e36" d="M 0 0 
L -3.5 0 
" style="stroke: #000000; stroke-width: 0.8"/>
      </defs>
      <g>
       <use xlink:href="#m8c76412e36" x="57.6" y="91.182906" style="stroke: #000000; stroke-width: 0.8"/>
      </g>
     </g>
     <g id="text_8">
      <!-- 0 -->
      <g transform="translate(44.2375 94.982125) scale(0.1 -0.1)">
       <use xlink:href="#DejaVuSans-30"/>
      </g>
     </g>
    </g>
    <g id="ytick_2">
     <g id="line2d_9">
      <g>
       <use xlink:href="#m8c76412e36" x="57.6" y="52.721857" style="stroke: #000000; stroke-width: 0.8"/>
      </g>
     </g>
     <g id="text_9">
      <!-- 20 -->
      <g transform="translate(37.875 56.521076) scale(0.1 -0.1)">
       <use xlink:href="#DejaVuSans-32"/>
       <use xlink:href="#DejaVuSans-30" x="63.623047"/>
      </g>
     </g>
    </g>
   </g>
   <g id="line2d_10">
    <path d="M 73.832727 70.029329 
L 74.284263 66.183224 
L 74.7358 64.260172 
L 75.638872 64.260172 
L 76.090408 66.183224 
L 76.541945 62.337119 
L 77.445017 62.337119 
L 77.896553 64.260172 
L 78.34809 64.260172 
L 78.799626 68.106277 
L 79.251162 75.798486 
L 79.702698 73.875434 
L 80.154234 75.798486 
L 82.411916 75.798486 
L 82.863452 73.875434 
L 83.314988 75.798486 
L 86.024205 75.798486 
L 86.475742 77.721539 
L 86.927278 73.875434 
L 88.281886 73.875434 
L 88.733423 77.721539 
L 89.184959 85.413749 
L 89.636495 85.413749 
L 90.991104 91.182906 
L 93.700321 91.182906 
L 94.151857 93.105959 
L 95.506466 93.105959 
L 95.958002 91.182906 
L 100.473365 91.182906 
L 100.924901 93.105959 
L 110.858698 93.105959 
L 111.76177 89.259854 
L 112.664843 89.259854 
L 113.116379 91.182906 
L 113.567915 91.182906 
L 114.019451 93.105959 
L 117.180205 93.105959 
L 117.631741 95.029011 
L 118.98635 95.029011 
L 119.437886 96.952064 
L 122.147103 96.952064 
L 122.59864 95.029011 
L 123.050176 95.029011 
L 123.501712 93.105959 
L 126.210929 93.105959 
L 127.114002 100.798169 
L 127.565538 100.798169 
L 128.017074 95.029011 
L 128.46861 91.182906 
L 129.371683 95.029011 
L 129.823219 91.182906 
L 131.177828 96.952064 
L 131.629364 100.798169 
L 132.0809 100.798169 
L 132.532436 102.721221 
L 132.983973 102.721221 
L 133.435509 106.567326 
L 134.790118 106.567326 
L 135.241654 102.721221 
L 135.69319 102.721221 
L 136.144726 100.798169 
L 137.499335 100.798169 
L 138.402407 104.644273 
L 138.853944 108.490378 
L 139.757016 112.336483 
L 140.208552 112.336483 
L 140.660089 114.259536 
L 141.111625 114.259536 
L 141.563161 116.182588 
L 142.014697 114.259536 
L 142.466233 116.182588 
L 144.272378 116.182588 
L 144.723915 114.259536 
L 145.175451 110.413431 
L 145.626987 100.798169 
L 146.078523 95.029011 
L 146.530059 91.182906 
L 147.433132 91.182906 
L 147.884668 93.105959 
L 148.336204 98.875116 
L 148.787741 100.798169 
L 149.239277 96.952064 
L 149.690813 100.798169 
L 150.142349 96.952064 
L 150.593885 100.798169 
L 151.045422 96.952064 
L 151.496958 100.798169 
L 152.40003 93.105959 
L 153.303103 93.105959 
L 154.206175 100.798169 
L 154.657711 100.798169 
L 155.109248 95.029011 
L 155.560784 91.182906 
L 156.463856 95.029011 
L 156.915393 93.105959 
L 158.721537 93.105959 
L 159.173074 91.182906 
L 159.62461 93.105959 
L 160.076146 91.182906 
L 160.527682 91.182906 
L 160.979219 93.105959 
L 163.2369 93.105959 
L 163.688436 91.182906 
L 165.494581 91.182906 
L 165.946117 93.105959 
L 168.203798 93.105959 
L 168.655334 95.029011 
L 170.009943 95.029011 
L 170.461479 93.105959 
L 171.816088 93.105959 
L 172.267624 95.029011 
L 172.71916 95.029011 
L 173.170697 93.105959 
L 173.622233 93.105959 
L 174.073769 91.182906 
L 175.428378 91.182906 
L 175.879914 96.952064 
L 176.782986 96.952064 
L 177.234523 98.875116 
L 177.686059 96.952064 
L 179.492204 96.952064 
L 179.94374 98.875116 
L 180.395276 96.952064 
L 180.846812 98.875116 
L 181.298349 96.952064 
L 181.749885 98.875116 
L 182.201421 96.952064 
L 183.104494 96.952064 
L 183.55603 98.875116 
L 184.459102 95.029011 
L 185.813711 95.029011 
L 186.265247 96.952064 
L 188.071392 96.952064 
L 188.522928 98.875116 
L 188.974465 91.182906 
L 190.329073 91.182906 
L 190.780609 56.567962 
L 191.683682 68.106277 
L 192.135218 66.183224 
L 193.038291 45.029647 
L 193.489827 45.029647 
L 193.941363 46.9527 
L 194.392899 46.9527 
L 194.844435 48.875752 
L 195.295972 48.875752 
L 195.747508 56.567962 
L 196.199044 58.491014 
L 197.102117 58.491014 
L 198.005189 62.337119 
L 199.359798 62.337119 
L 199.811334 64.260172 
L 201.165943 58.491014 
L 202.069015 58.491014 
L 202.520551 60.414067 
L 202.972087 64.260172 
L 204.326696 70.029329 
L 205.229769 62.337119 
L 205.681305 56.567962 
L 206.132841 52.721857 
L 206.584377 52.721857 
L 207.035914 56.567962 
L 207.48745 58.491014 
L 207.938986 64.260172 
L 208.390522 68.106277 
L 209.293595 71.952382 
L 209.745131 75.798486 
L 210.196667 77.721539 
L 210.648203 73.875434 
L 212.905884 73.875434 
L 213.357421 75.798486 
L 213.808957 71.952382 
L 216.96971 71.952382 
L 217.421247 70.029329 
L 218.775855 58.491014 
L 219.227392 60.414067 
L 220.130464 52.721857 
L 221.033536 48.875752 
L 221.485073 45.029647 
L 222.839681 45.029647 
L 223.291218 46.9527 
L 223.742754 50.798804 
L 224.19429 52.721857 
L 224.645826 58.491014 
L 225.097362 58.491014 
L 226.000435 62.337119 
L 226.451971 60.414067 
L 226.903507 60.414067 
L 227.355044 62.337119 
L 227.80658 62.337119 
L 228.258116 66.183224 
L 228.709652 68.106277 
L 229.161189 68.106277 
L 230.515797 62.337119 
L 230.967333 58.491014 
L 231.41887 58.491014 
L 231.870406 56.567962 
L 232.773478 56.567962 
L 233.676551 52.721857 
L 234.128087 52.721857 
L 234.579623 54.644909 
L 235.031159 64.260172 
L 235.482696 68.106277 
L 235.934232 70.029329 
L 236.385768 68.106277 
L 237.288841 68.106277 
L 237.740377 66.183224 
L 238.191913 66.183224 
L 238.643449 68.106277 
L 239.094985 68.106277 
L 239.998058 60.414067 
L 240.90113 60.414067 
L 241.352667 58.491014 
L 241.804203 58.491014 
L 242.255739 60.414067 
L 242.707275 66.183224 
L 243.158811 66.183224 
L 243.610348 70.029329 
L 244.061884 71.952382 
L 244.51342 70.029329 
L 245.868029 70.029329 
L 246.319565 71.952382 
L 246.771101 70.029329 
L 247.222638 71.952382 
L 247.674174 66.183224 
L 248.577246 58.491014 
L 249.028782 56.567962 
L 249.480319 58.491014 
L 250.834927 58.491014 
L 251.286464 64.260172 
L 251.738 68.106277 
L 252.189536 68.106277 
L 253.092608 71.952382 
L 253.544145 71.952382 
L 253.995681 70.029329 
L 254.447217 66.183224 
L 255.801826 60.414067 
L 256.704898 60.414067 
L 257.156434 62.337119 
L 257.607971 60.414067 
L 258.962579 66.183224 
L 259.414116 66.183224 
L 259.865652 70.029329 
L 260.317188 71.952382 
L 260.768724 71.952382 
L 261.22026 73.875434 
L 261.671797 71.952382 
L 262.123333 71.952382 
L 262.574869 73.875434 
L 263.026405 68.106277 
L 263.477942 64.260172 
L 263.929478 62.337119 
L 264.381014 62.337119 
L 264.83255 60.414067 
L 265.284086 64.260172 
L 265.735623 70.029329 
L 266.187159 70.029329 
L 266.638695 71.952382 
L 267.090231 70.029329 
L 267.541768 71.952382 
L 268.896376 71.952382 
L 269.347913 70.029329 
L 269.799449 66.183224 
L 271.154057 66.183224 
L 271.605594 68.106277 
L 272.05713 71.952382 
L 272.508666 73.875434 
L 272.960202 77.721539 
L 273.411739 75.798486 
L 273.863275 79.644591 
L 274.314811 77.721539 
L 274.766347 79.644591 
L 276.120956 79.644591 
L 276.572492 81.567644 
L 277.927101 81.567644 
L 278.378637 75.798486 
L 278.830173 68.106277 
L 279.281709 62.337119 
L 279.733246 58.491014 
L 280.184782 56.567962 
L 281.087854 71.952382 
L 281.539391 73.875434 
L 281.990927 71.952382 
L 282.442463 73.875434 
L 283.797072 73.875434 
L 285.15168 68.106277 
L 285.603217 68.106277 
L 286.054753 66.183224 
L 286.506289 62.337119 
L 288.312434 62.337119 
L 288.76397 66.183224 
L 289.215506 71.952382 
L 289.667043 79.644591 
L 290.118579 81.567644 
L 290.570115 75.798486 
L 291.021651 68.106277 
L 291.473188 62.337119 
L 291.924724 58.491014 
L 292.827796 54.644909 
L 293.279332 54.644909 
L 293.730869 56.567962 
L 294.182405 56.567962 
L 294.633941 58.491014 
L 295.085477 62.337119 
L 295.537014 70.029329 
L 295.98855 66.183224 
L 297.343158 60.414067 
L 297.794695 62.337119 
L 298.246231 60.414067 
L 299.60084 60.414067 
L 300.052376 62.337119 
L 300.503912 68.106277 
L 301.406984 71.952382 
L 303.213129 71.952382 
L 303.664666 70.029329 
L 304.116202 66.183224 
L 305.019274 66.183224 
L 305.47081 70.029329 
L 305.922347 66.183224 
L 306.373883 64.260172 
L 306.825419 64.260172 
L 307.276955 66.183224 
L 307.728492 62.337119 
L 308.180028 62.337119 
L 308.631564 60.414067 
L 309.0831 60.414067 
L 309.534636 64.260172 
L 309.986173 66.183224 
L 310.437709 66.183224 
L 310.889245 70.029329 
L 311.340781 71.952382 
L 312.243854 79.644591 
L 313.598463 79.644591 
L 314.049999 81.567644 
L 314.501535 79.644591 
L 314.953071 79.644591 
L 315.404607 81.567644 
L 315.856144 81.567644 
L 316.30768 83.490696 
L 317.662289 83.490696 
L 318.113825 85.413749 
L 318.565361 79.644591 
L 319.016897 83.490696 
L 319.468433 81.567644 
L 319.91997 81.567644 
L 320.371506 83.490696 
L 321.274578 83.490696 
L 321.726115 79.644591 
L 322.177651 79.644591 
L 322.629187 77.721539 
L 323.080723 85.413749 
L 323.983796 85.413749 
L 324.435332 87.336801 
L 324.886868 87.336801 
L 325.338404 85.413749 
L 326.693013 91.182906 
L 327.596085 91.182906 
L 328.047622 93.105959 
L 332.562984 93.105959 
L 333.466056 89.259854 
L 334.369129 89.259854 
L 334.820665 91.182906 
L 335.272201 91.182906 
L 335.723738 93.105959 
L 336.62681 93.105959 
L 337.078346 91.182906 
L 337.981419 91.182906 
L 338.432955 93.105959 
L 339.787564 93.105959 
L 340.2391 91.182906 
L 340.690636 91.182906 
L 341.142172 93.105959 
L 342.496781 93.105959 
L 342.948317 91.182906 
L 343.399853 91.182906 
L 343.85139 93.105959 
L 347.463679 93.105959 
L 347.915216 91.182906 
L 348.366752 93.105959 
L 349.269824 93.105959 
L 349.72136 91.182906 
L 351.075969 91.182906 
L 351.527505 93.105959 
L 355.139795 93.105959 
L 355.591331 95.029011 
L 356.94594 95.029011 
L 357.397476 93.105959 
L 358.752085 93.105959 
L 359.203621 95.029011 
L 361.009766 95.029011 
L 361.461302 96.952064 
L 363.267447 96.952064 
L 363.718983 98.875116 
L 364.17052 96.952064 
L 364.622056 98.875116 
L 365.073592 96.952064 
L 365.525128 96.952064 
L 365.976665 95.029011 
L 368.685882 95.029011 
L 369.137418 96.952064 
L 370.943563 96.952064 
L 371.395099 98.875116 
L 371.846635 96.952064 
L 372.298172 96.952064 
L 372.749708 95.029011 
L 375.458925 95.029011 
L 375.910461 96.952064 
L 377.26507 96.952064 
L 377.716606 98.875116 
L 378.168143 91.182906 
L 380.425824 91.182906 
L 381.328896 75.798486 
L 381.780432 75.798486 
L 382.683505 79.644591 
L 384.038114 79.644591 
L 384.48965 77.721539 
L 384.941186 77.721539 
L 386.295795 71.952382 
L 386.747331 71.952382 
L 387.198867 70.029329 
L 388.10194 70.029329 
L 388.553476 68.106277 
L 389.005012 70.029329 
L 389.456548 68.106277 
L 389.908084 71.952382 
L 390.811157 68.106277 
L 391.262693 70.029329 
L 391.714229 77.721539 
L 392.165766 81.567644 
L 392.617302 81.567644 
L 393.068838 77.721539 
L 393.520374 71.952382 
L 394.423447 68.106277 
L 394.874983 68.106277 
L 395.326519 66.183224 
L 395.778055 68.106277 
L 396.229592 68.106277 
L 396.681128 70.029329 
L 397.132664 73.875434 
L 397.5842 71.952382 
L 398.035737 71.952382 
L 398.487273 73.875434 
L 398.487273 73.875434 
" clip-path="url(#pcfd3c4515b)" style="fill: none; stroke: #1f77b4; stroke-width: 1.5; stroke-linecap: square"/>
   </g>
   <g id="patch_3">
    <path d="M 57.6 119.740235 
L 57.6 41.472 
" style="fill: none; stroke: #000000; stroke-width: 0.8; stroke-linejoin: miter; stroke-linecap: square"/>
   </g>
   <g id="patch_4">
    <path d="M 414.72 119.740235 
L 414.72 41.472 
" style="fill: none; stroke: #000000; stroke-width: 0.8; stroke-linejoin: miter; stroke-linecap: square"/>
   </g>
   <g id="patch_5">
    <path d="M 57.6 119.740235 
L 414.72 119.740235 
" style="fill: none; stroke: #000000; stroke-width: 0.8; stroke-linejoin: miter; stroke-linecap: square"/>
   </g>
   <g id="patch_6">
    <path d="M 57.6 41.472 
L 414.72 41.472 
" style="fill: none; stroke: #000000; stroke-width: 0.8; stroke-linejoin: miter; stroke-linecap: square"/>
   </g>
  </g>
  <g id="axes_2">
   <g id="patch_7">
    <path d="M 57.6 213.662118 
L 414.72 213.662118 
L 414.72 135.393882 
L 57.6 135.393882 
z
" style="fill: #ffffff"/>
   </g>
   <g id="matplotlib.axis_3">
    <g id="xtick_8">
     <g id="line2d_11">
      <g>
       <use xlink:href="#m0f39bfee9a" x="73.832727" y="213.662118" style="stroke: #000000; stroke-width: 0.8"/>
      </g>
     </g>
     <g id="text_10">
      <!-- 0 -->
      <g transform="translate(70.651477 228.260555) scale(0.1 -0.1)">
       <use xlink:href="#DejaVuSans-30"/>
      </g>
     </g>
    </g>
    <g id="xtick_9">
     <g id="line2d_12">
      <g>
       <use xlink:href="#m0f39bfee9a" x="128.017074" y="213.662118" style="stroke: #000000; stroke-width: 0.8"/>
      </g>
     </g>
     <g id="text_11">
      <!-- 5 -->
      <g transform="translate(124.835824 228.260555) scale(0.1 -0.1)">
       <use xlink:href="#DejaVuSans-35"/>
      </g>
     </g>
    </g>
    <g id="xtick_10">
     <g id="line2d_13">
      <g>
       <use xlink:href="#m0f39bfee9a" x="182.201421" y="213.662118" style="stroke: #000000; stroke-width: 0.8"/>
      </g>
     </g>
     <g id="text_12">
      <!-- 10 -->
      <g transform="translate(175.838921 228.260555) scale(0.1 -0.1)">
       <use xlink:href="#DejaVuSans-31"/>
       <use xlink:href="#DejaVuSans-30" x="63.623047"/>
      </g>
     </g>
    </g>
    <g id="xtick_11">
     <g id="line2d_14">
      <g>
       <use xlink:href="#m0f39bfee9a" x="236.385768" y="213.662118" style="stroke: #000000; stroke-width: 0.8"/>
      </g>
     </g>
     <g id="text_13">
      <!-- 15 -->
      <g transform="translate(230.023268 228.260555) scale(0.1 -0.1)">
       <use xlink:href="#DejaVuSans-31"/>
       <use xlink:href="#DejaVuSans-35" x="63.623047"/>
      </g>
     </g>
    </g>
    <g id="xtick_12">
     <g id="line2d_15">
      <g>
       <use xlink:href="#m0f39bfee9a" x="290.570115" y="213.662118" style="stroke: #000000; stroke-width: 0.8"/>
      </g>
     </g>
     <g id="text_14">
      <!-- 20 -->
      <g transform="translate(284.207615 228.260555) scale(0.1 -0.1)">
       <use xlink:href="#DejaVuSans-32"/>
       <use xlink:href="#DejaVuSans-30" x="63.623047"/>
      </g>
     </g>
    </g>
    <g id="xtick_13">
     <g id="line2d_16">
      <g>
       <use xlink:href="#m0f39bfee9a" x="344.754462" y="213.662118" style="stroke: #000000; stroke-width: 0.8"/>
      </g>
     </g>
     <g id="text_15">
      <!-- 25 -->
      <g transform="translate(338.391962 228.260555) scale(0.1 -0.1)">
       <use xlink:href="#DejaVuSans-32"/>
       <use xlink:href="#DejaVuSans-35" x="63.623047"/>
      </g>
     </g>
    </g>
    <g id="xtick_14">
     <g id="line2d_17">
      <g>
       <use xlink:href="#m0f39bfee9a" x="398.938809" y="213.662118" style="stroke: #000000; stroke-width: 0.8"/>
      </g>
     </g>
     <g id="text_16">
      <!-- 30 -->
      <g transform="translate(392.576309 228.260555) scale(0.1 -0.1)">
       <use xlink:href="#DejaVuSans-33"/>
       <use xlink:href="#DejaVuSans-30" x="63.623047"/>
      </g>
     </g>
    </g>
   </g>
   <g id="matplotlib.axis_4">
    <g id="ytick_3">
     <g id="line2d_18">
      <g>
       <use xlink:href="#m8c76412e36" x="57.6" y="210.104471" style="stroke: #000000; stroke-width: 0.8"/>
      </g>
     </g>
     <g id="text_17">
      <!-- 0 -->
      <g transform="translate(44.2375 213.903689) scale(0.1 -0.1)">
       <use xlink:href="#DejaVuSans-30"/>
      </g>
     </g>
    </g>
    <g id="ytick_4">
     <g id="line2d_19">
      <g>
       <use xlink:href="#m8c76412e36" x="57.6" y="174.528" style="stroke: #000000; stroke-width: 0.8"/>
      </g>
     </g>
     <g id="text_18">
      <!-- 50 -->
      <g transform="translate(37.875 178.327219) scale(0.1 -0.1)">
       <use xlink:href="#DejaVuSans-35"/>
       <use xlink:href="#DejaVuSans-30" x="63.623047"/>
      </g>
     </g>
    </g>
    <g id="ytick_5">
     <g id="line2d_20">
      <g>
       <use xlink:href="#m8c76412e36" x="57.6" y="138.951529" style="stroke: #000000; stroke-width: 0.8"/>
      </g>
     </g>
     <g id="text_19">
      <!-- 100 -->
      <g transform="translate(31.5125 142.750748) scale(0.1 -0.1)">
       <use xlink:href="#DejaVuSans-31"/>
       <use xlink:href="#DejaVuSans-30" x="63.623047"/>
       <use xlink:href="#DejaVuSans-30" x="127.246094"/>
      </g>
     </g>
    </g>
   </g>
   <g id="line2d_21">
    <path d="M 73.832727 151.047529 
L 74.7358 163.855059 
L 75.187336 165.278118 
L 75.638872 164.566588 
L 76.090408 162.432 
L 76.541945 168.124235 
L 76.993481 171.681882 
L 77.896553 174.528 
L 78.34809 175.239529 
L 78.799626 172.393412 
L 79.251162 153.893647 
L 79.702698 159.585882 
L 80.154234 156.739765 
L 80.605771 155.316706 
L 81.057307 152.470588 
L 81.508843 153.182118 
L 81.960379 151.047529 
L 82.411916 153.893647 
L 82.863452 159.585882 
L 83.314988 156.739765 
L 83.766524 155.316706 
L 84.21806 152.470588 
L 84.669597 153.182118 
L 85.121133 150.336 
L 85.572669 150.336 
L 86.024205 148.912941 
L 86.475742 146.778353 
L 86.927278 152.470588 
L 87.83035 153.893647 
L 88.281886 151.047529 
L 89.184959 138.951529 
L 101.376437 138.951529 
L 101.827973 140.374588 
L 103.634118 140.374588 
L 104.085654 139.663059 
L 104.537191 139.663059 
L 104.988727 138.951529 
L 110.407161 138.951529 
L 110.858698 139.663059 
L 111.76177 153.182118 
L 112.213306 154.605176 
L 112.664843 153.182118 
L 113.116379 151.047529 
L 113.567915 147.489882 
L 114.019451 142.509176 
L 114.470987 140.374588 
L 114.922524 139.663059 
L 115.37406 139.663059 
L 115.825596 138.951529 
L 122.147103 138.951529 
L 123.501712 143.220706 
L 124.404784 144.643765 
L 124.856321 147.489882 
L 125.307857 148.912941 
L 125.759393 151.047529 
L 126.210929 151.047529 
L 126.662466 146.778353 
L 127.114002 139.663059 
L 127.565538 138.951529 
L 128.017074 141.797647 
L 128.46861 148.201412 
L 129.371683 141.797647 
L 129.823219 148.201412 
L 130.726292 141.797647 
L 131.177828 139.663059 
L 131.629364 138.951529 
L 132.0809 139.663059 
L 132.532436 138.951529 
L 133.887045 138.951529 
L 134.338581 139.663059 
L 134.790118 139.663059 
L 135.241654 142.509176 
L 135.69319 143.220706 
L 136.144726 143.220706 
L 137.499335 145.355294 
L 137.950871 143.932235 
L 138.402407 139.663059 
L 138.853944 138.951529 
L 142.014697 138.951529 
L 142.466233 139.663059 
L 142.91777 139.663059 
L 143.369306 140.374588 
L 145.175451 140.374588 
L 145.626987 139.663059 
L 146.530059 155.316706 
L 146.981596 155.316706 
L 147.884668 142.509176 
L 148.336204 138.951529 
L 148.787741 138.951529 
L 149.239277 139.663059 
L 149.690813 138.951529 
L 150.142349 139.663059 
L 150.593885 138.951529 
L 151.045422 139.663059 
L 151.496958 138.951529 
L 151.948494 139.663059 
L 152.40003 147.489882 
L 152.851567 148.912941 
L 153.303103 151.047529 
L 153.754639 146.778353 
L 154.206175 139.663059 
L 154.657711 138.951529 
L 155.109248 141.797647 
L 155.560784 148.201412 
L 156.463856 141.797647 
L 156.915393 143.220706 
L 157.366929 139.663059 
L 157.818465 138.951529 
L 169.558407 138.951529 
L 170.009943 139.663059 
L 170.461479 141.086118 
L 170.913016 141.797647 
L 171.364552 143.932235 
L 171.816088 144.643765 
L 172.71916 144.643765 
L 173.622233 147.489882 
L 174.073769 156.028235 
L 174.525305 159.585882 
L 174.976842 159.585882 
L 175.428378 155.316706 
L 175.879914 143.220706 
L 176.33145 144.643765 
L 176.782986 145.355294 
L 177.234523 145.355294 
L 177.686059 146.778353 
L 178.137595 147.489882 
L 178.589131 147.489882 
L 179.040668 141.797647 
L 179.492204 143.932235 
L 184.007566 143.932235 
L 184.459102 144.643765 
L 184.910639 144.643765 
L 185.813711 146.066824 
L 186.265247 147.489882 
L 187.16832 147.489882 
L 187.619856 146.778353 
L 188.071392 146.778353 
L 188.522928 146.066824 
L 188.974465 210.104471 
L 190.329073 210.104471 
L 190.780609 152.470588 
L 191.232146 141.086118 
L 191.683682 139.663059 
L 192.135218 142.509176 
L 192.586754 153.182118 
L 193.038291 173.104941 
L 193.489827 175.951059 
L 193.941363 176.662588 
L 194.392899 174.528 
L 194.844435 174.528 
L 195.295972 170.258824 
L 195.747508 156.739765 
L 196.199044 151.759059 
L 196.65058 151.047529 
L 197.102117 148.912941 
L 197.553653 143.932235 
L 198.005189 141.086118 
L 198.456725 139.663059 
L 198.908261 141.086118 
L 199.359798 139.663059 
L 199.811334 138.951529 
L 200.26287 138.951529 
L 200.714406 139.663059 
L 202.069015 149.624471 
L 202.520551 145.355294 
L 203.423624 139.663059 
L 203.87516 138.951529 
L 204.326696 138.951529 
L 204.778232 140.374588 
L 205.681305 157.451294 
L 206.132841 168.124235 
L 206.584377 169.547294 
L 207.035914 161.008941 
L 207.48745 150.336 
L 207.938986 142.509176 
L 208.390522 140.374588 
L 208.842058 138.951529 
L 210.196667 138.951529 
L 210.648203 140.374588 
L 211.09974 140.374588 
L 212.002812 138.951529 
L 217.421247 138.951529 
L 217.872783 140.374588 
L 218.324319 148.912941 
L 218.775855 153.182118 
L 219.227392 149.624471 
L 220.130464 161.008941 
L 221.485073 173.816471 
L 221.936609 175.951059 
L 222.388145 176.662588 
L 222.839681 176.662588 
L 223.291218 175.951059 
L 223.742754 168.835765 
L 224.19429 165.989647 
L 224.645826 155.316706 
L 225.097362 151.759059 
L 225.548899 151.047529 
L 226.000435 147.489882 
L 226.451971 152.470588 
L 226.903507 153.893647 
L 227.355044 151.047529 
L 227.80658 149.624471 
L 228.258116 141.086118 
L 228.709652 138.951529 
L 229.161189 139.663059 
L 229.612725 142.509176 
L 230.064261 143.220706 
L 230.515797 148.201412 
L 230.967333 156.739765 
L 231.41887 159.585882 
L 231.870406 161.720471 
L 232.321942 163.143529 
L 232.773478 165.989647 
L 233.676551 175.239529 
L 234.128087 177.374118 
L 234.579623 172.393412 
L 235.031159 155.316706 
L 235.482696 144.643765 
L 235.934232 142.509176 
L 236.385768 144.643765 
L 236.837304 144.643765 
L 237.288841 145.355294 
L 237.740377 143.932235 
L 238.191913 146.066824 
L 238.643449 146.778353 
L 239.094985 146.066824 
L 239.998058 158.162824 
L 240.449594 161.008941 
L 240.90113 162.432 
L 241.352667 167.412706 
L 241.804203 168.835765 
L 242.255739 166.701176 
L 242.707275 146.778353 
L 243.158811 149.624471 
L 243.610348 140.374588 
L 244.061884 138.951529 
L 244.964956 138.951529 
L 245.416493 139.663059 
L 245.868029 143.932235 
L 246.319565 142.509176 
L 246.771101 142.509176 
L 247.222638 141.797647 
L 247.674174 150.336 
L 248.12571 151.759059 
L 248.577246 158.162824 
L 249.028782 161.720471 
L 249.480319 163.143529 
L 249.931855 161.720471 
L 250.383391 168.124235 
L 250.834927 166.701176 
L 251.738 150.336 
L 252.189536 151.047529 
L 252.641072 148.912941 
L 253.092608 143.932235 
L 253.544145 141.797647 
L 254.447217 163.855059 
L 254.898753 165.278118 
L 255.35029 171.681882 
L 255.801826 175.951059 
L 256.704898 175.951059 
L 257.156434 175.239529 
L 257.607971 175.951059 
L 258.059507 173.104941 
L 258.962579 165.989647 
L 259.414116 158.874353 
L 259.865652 153.893647 
L 260.317188 147.489882 
L 261.22026 138.951529 
L 261.671797 140.374588 
L 262.574869 138.951529 
L 263.026405 147.489882 
L 263.477942 151.759059 
L 263.929478 153.893647 
L 264.381014 157.451294 
L 264.83255 159.585882 
L 265.284086 153.893647 
L 265.735623 146.066824 
L 266.187159 147.489882 
L 266.638695 144.643765 
L 267.090231 146.778353 
L 267.993304 141.086118 
L 268.44484 139.663059 
L 268.896376 141.086118 
L 269.799449 161.008941 
L 270.250985 165.989647 
L 270.702521 168.124235 
L 271.154057 166.701176 
L 272.05713 158.874353 
L 272.508666 150.336 
L 272.960202 143.932235 
L 273.411739 144.643765 
L 273.863275 140.374588 
L 274.314811 141.086118 
L 274.766347 139.663059 
L 275.217883 138.951529 
L 277.475565 138.951529 
L 277.927101 139.663059 
L 278.830173 165.278118 
L 279.281709 172.393412 
L 279.733246 177.374118 
L 280.184782 180.931765 
L 280.636318 170.970353 
L 281.087854 148.912941 
L 281.539391 143.220706 
L 281.990927 146.066824 
L 282.442463 146.066824 
L 282.893999 143.220706 
L 283.797072 141.797647 
L 284.248608 144.643765 
L 284.700144 150.336 
L 285.15168 158.874353 
L 285.603217 161.008941 
L 286.054753 165.989647 
L 286.957825 173.104941 
L 287.409361 173.816471 
L 287.860898 175.951059 
L 288.312434 174.528 
L 288.76397 172.393412 
L 289.667043 145.355294 
L 290.118579 139.663059 
L 291.021651 165.278118 
L 291.473188 172.393412 
L 291.924724 177.374118 
L 292.37626 180.931765 
L 292.827796 183.066353 
L 293.279332 184.489412 
L 293.730869 183.066353 
L 294.182405 182.354824 
L 294.633941 180.931765 
L 295.085477 170.258824 
L 295.537014 153.893647 
L 295.98855 163.855059 
L 296.440086 165.278118 
L 296.891622 171.681882 
L 297.343158 175.951059 
L 297.794695 175.239529 
L 298.246231 175.951059 
L 298.697767 178.797176 
L 299.149303 180.220235 
L 299.60084 180.931765 
L 300.052376 178.085647 
L 300.955448 147.489882 
L 301.406984 141.797647 
L 301.858521 143.932235 
L 302.310057 141.086118 
L 302.761593 139.663059 
L 303.213129 141.086118 
L 304.116202 161.008941 
L 304.567738 165.989647 
L 305.019274 158.874353 
L 305.47081 153.893647 
L 305.922347 163.855059 
L 306.373883 165.278118 
L 306.825419 164.566588 
L 307.276955 162.432 
L 307.728492 168.124235 
L 308.180028 170.970353 
L 308.631564 173.104941 
L 309.0831 173.104941 
L 309.986173 165.989647 
L 310.437709 158.874353 
L 310.889245 153.893647 
L 311.792318 141.086118 
L 312.243854 138.951529 
L 318.113825 138.951529 
L 318.565361 142.509176 
L 319.016897 138.951529 
L 321.274578 138.951529 
L 322.629187 145.355294 
L 323.080723 138.951529 
L 332.111448 138.951529 
L 332.562984 139.663059 
L 333.466056 153.182118 
L 333.917593 154.605176 
L 334.369129 153.182118 
L 334.820665 151.047529 
L 335.272201 147.489882 
L 335.723738 142.509176 
L 336.175274 140.374588 
L 336.62681 138.951529 
L 356.494404 138.951529 
L 356.94594 139.663059 
L 357.397476 141.086118 
L 357.849013 141.797647 
L 358.300549 143.932235 
L 358.752085 144.643765 
L 360.106694 144.643765 
L 361.009766 146.066824 
L 361.912839 141.797647 
L 362.815911 144.643765 
L 363.267447 145.355294 
L 363.718983 145.355294 
L 364.17052 146.778353 
L 364.622056 146.066824 
L 365.073592 146.778353 
L 365.525128 149.624471 
L 365.976665 151.047529 
L 366.428201 150.336 
L 366.879737 150.336 
L 367.782809 148.912941 
L 368.685882 146.066824 
L 369.588954 141.797647 
L 370.492027 144.643765 
L 370.943563 145.355294 
L 371.395099 145.355294 
L 371.846635 146.778353 
L 372.298172 149.624471 
L 372.749708 151.047529 
L 373.201244 150.336 
L 373.65278 150.336 
L 374.555853 148.912941 
L 375.458925 146.066824 
L 375.910461 147.489882 
L 376.361998 147.489882 
L 376.813534 146.778353 
L 377.26507 146.778353 
L 377.716606 146.066824 
L 378.168143 210.104471 
L 380.425824 210.104471 
L 381.328896 148.201412 
L 381.780432 144.643765 
L 382.231969 139.663059 
L 382.683505 138.951529 
L 384.941186 138.951529 
L 385.392722 139.663059 
L 385.844258 145.355294 
L 386.295795 148.201412 
L 387.198867 157.451294 
L 387.650403 156.739765 
L 388.10194 157.451294 
L 388.553476 160.297412 
L 389.005012 156.028235 
L 389.456548 164.566588 
L 389.908084 160.297412 
L 390.359621 161.008941 
L 390.811157 165.278118 
L 391.262693 164.566588 
L 391.714229 149.624471 
L 392.165766 142.509176 
L 392.617302 142.509176 
L 393.520374 157.451294 
L 393.97191 165.989647 
L 394.423447 163.143529 
L 394.874983 165.989647 
L 395.326519 165.989647 
L 395.778055 163.855059 
L 396.681128 147.489882 
L 397.132664 143.220706 
L 397.5842 145.355294 
L 398.035737 146.778353 
L 398.487273 145.355294 
L 398.487273 145.355294 
" clip-path="url(#ped92ba5ee2)" style="fill: none; stroke: #1f77b4; stroke-width: 1.5; stroke-linecap: square"/>
   </g>
   <g id="patch_8">
    <path d="M 57.6 213.662118 
L 57.6 135.393882 
" style="fill: none; stroke: #000000; stroke-width: 0.8; stroke-linejoin: miter; stroke-linecap: square"/>
   </g>
   <g id="patch_9">
    <path d="M 414.72 213.662118 
L 414.72 135.393882 
" style="fill: none; stroke: #000000; stroke-width: 0.8; stroke-linejoin: miter; stroke-linecap: square"/>
   </g>
   <g id="patch_10">
    <path d="M 57.6 213.662118 
L 414.72 213.662118 
" style="fill: none; stroke: #000000; stroke-width: 0.8; stroke-linejoin: miter; stroke-linecap: square"/>
   </g>
   <g id="patch_11">
    <path d="M 57.6 135.393882 
L 414.72 135.393882 
" style="fill: none; stroke: #000000; stroke-width: 0.8; stroke-linejoin: miter; stroke-linecap: square"/>
   </g>
  </g>
  <g id="axes_3">
   <g id="patch_12">
    <path d="M 57.6 307.584 
L 414.72 307.584 
L 414.72 229.315765 
L 57.6 229.315765 
z
" style="fill: #ffffff"/>
   </g>
   <g id="matplotlib.axis_5">
    <g id="xtick_15">
     <g id="line2d_22">
      <g>
       <use xlink:href="#m0f39bfee9a" x="73.832727" y="307.584" style="stroke: #000000; stroke-width: 0.8"/>
      </g>
     </g>
     <g id="text_20">
      <!-- 0 -->
      <g transform="translate(70.651477 322.182437) scale(0.1 -0.1)">
       <use xlink:href="#DejaVuSans-30"/>
      </g>
     </g>
    </g>
    <g id="xtick_16">
     <g id="line2d_23">
      <g>
       <use xlink:href="#m0f39bfee9a" x="128.017074" y="307.584" style="stroke: #000000; stroke-width: 0.8"/>
      </g>
     </g>
     <g id="text_21">
      <!-- 5 -->
      <g transform="translate(124.835824 322.182437) scale(0.1 -0.1)">
       <use xlink:href="#DejaVuSans-35"/>
      </g>
     </g>
    </g>
    <g id="xtick_17">
     <g id="line2d_24">
      <g>
       <use xlink:href="#m0f39bfee9a" x="182.201421" y="307.584" style="stroke: #000000; stroke-width: 0.8"/>
      </g>
     </g>
     <g id="text_22">
      <!-- 10 -->
      <g transform="translate(175.838921 322.182437) scale(0.1 -0.1)">
       <use xlink:href="#DejaVuSans-31"/>
       <use xlink:href="#DejaVuSans-30" x="63.623047"/>
      </g>
     </g>
    </g>
    <g id="xtick_18">
     <g id="line2d_25">
      <g>
       <use xlink:href="#m0f39bfee9a" x="236.385768" y="307.584" style="stroke: #000000; stroke-width: 0.8"/>
      </g>
     </g>
     <g id="text_23">
      <!-- 15 -->
      <g transform="translate(230.023268 322.182437) scale(0.1 -0.1)">
       <use xlink:href="#DejaVuSans-31"/>
       <use xlink:href="#DejaVuSans-35" x="63.623047"/>
      </g>
     </g>
    </g>
    <g id="xtick_19">
     <g id="line2d_26">
      <g>
       <use xlink:href="#m0f39bfee9a" x="290.570115" y="307.584" style="stroke: #000000; stroke-width: 0.8"/>
      </g>
     </g>
     <g id="text_24">
      <!-- 20 -->
      <g transform="translate(284.207615 322.182437) scale(0.1 -0.1)">
       <use xlink:href="#DejaVuSans-32"/>
       <use xlink:href="#DejaVuSans-30" x="63.623047"/>
      </g>
     </g>
    </g>
    <g id="xtick_20">
     <g id="line2d_27">
      <g>
       <use xlink:href="#m0f39bfee9a" x="344.754462" y="307.584" style="stroke: #000000; stroke-width: 0.8"/>
      </g>
     </g>
     <g id="text_25">
      <!-- 25 -->
      <g transform="translate(338.391962 322.182437) scale(0.1 -0.1)">
       <use xlink:href="#DejaVuSans-32"/>
       <use xlink:href="#DejaVuSans-35" x="63.623047"/>
      </g>
     </g>
    </g>
    <g id="xtick_21">
     <g id="line2d_28">
      <g>
       <use xlink:href="#m0f39bfee9a" x="398.938809" y="307.584" style="stroke: #000000; stroke-width: 0.8"/>
      </g>
     </g>
     <g id="text_26">
      <!-- 30 -->
      <g transform="translate(392.576309 322.182437) scale(0.1 -0.1)">
       <use xlink:href="#DejaVuSans-33"/>
       <use xlink:href="#DejaVuSans-30" x="63.623047"/>
      </g>
     </g>
    </g>
   </g>
   <g id="matplotlib.axis_6">
    <g id="ytick_6">
     <g id="line2d_29">
      <g>
       <use xlink:href="#m8c76412e36" x="57.6" y="304.026353" style="stroke: #000000; stroke-width: 0.8"/>
      </g>
     </g>
     <g id="text_27">
      <!-- 0.0 -->
      <g transform="translate(34.696875 307.825572) scale(0.1 -0.1)">
       <defs>
        <path id="DejaVuSans-2e" d="M 684 794 
L 1344 794 
L 1344 0 
L 684 0 
L 684 794 
z
" transform="scale(0.015625)"/>
       </defs>
       <use xlink:href="#DejaVuSans-30"/>
       <use xlink:href="#DejaVuSans-2e" x="63.623047"/>
       <use xlink:href="#DejaVuSans-30" x="95.410156"/>
      </g>
     </g>
    </g>
    <g id="ytick_7">
     <g id="line2d_30">
      <g>
       <use xlink:href="#m8c76412e36" x="57.6" y="268.449882" style="stroke: #000000; stroke-width: 0.8"/>
      </g>
     </g>
     <g id="text_28">
      <!-- 0.5 -->
      <g transform="translate(34.696875 272.249101) scale(0.1 -0.1)">
       <use xlink:href="#DejaVuSans-30"/>
       <use xlink:href="#DejaVuSans-2e" x="63.623047"/>
       <use xlink:href="#DejaVuSans-35" x="95.410156"/>
      </g>
     </g>
    </g>
    <g id="ytick_8">
     <g id="line2d_31">
      <g>
       <use xlink:href="#m8c76412e36" x="57.6" y="232.873412" style="stroke: #000000; stroke-width: 0.8"/>
      </g>
     </g>
     <g id="text_29">
      <!-- 1.0 -->
      <g transform="translate(34.696875 236.672631) scale(0.1 -0.1)">
       <use xlink:href="#DejaVuSans-31"/>
       <use xlink:href="#DejaVuSans-2e" x="63.623047"/>
       <use xlink:href="#DejaVuSans-30" x="95.410156"/>
      </g>
     </g>
    </g>
   </g>
   <g id="line2d_32">
    <path d="M 73.832727 304.026353 
L 260.317188 304.026353 
L 260.768724 232.873412 
L 261.22026 232.873412 
L 261.671797 304.026353 
L 267.541768 304.026353 
L 267.993304 232.873412 
L 268.44484 304.026353 
L 301.858521 304.026353 
L 302.310057 232.873412 
L 302.761593 304.026353 
L 381.780432 304.026353 
L 382.231969 232.873412 
L 382.683505 232.873412 
L 383.135041 304.026353 
L 398.487273 304.026353 
L 398.487273 304.026353 
" clip-path="url(#peab0708c5f)" style="fill: none; stroke: #1f77b4; stroke-width: 1.5; stroke-linecap: square"/>
   </g>
   <g id="patch_13">
    <path d="M 57.6 307.584 
L 57.6 229.315765 
" style="fill: none; stroke: #000000; stroke-width: 0.8; stroke-linejoin: miter; stroke-linecap: square"/>
   </g>
   <g id="patch_14">
    <path d="M 414.72 307.584 
L 414.72 229.315765 
" style="fill: none; stroke: #000000; stroke-width: 0.8; stroke-linejoin: miter; stroke-linecap: square"/>
   </g>
   <g id="patch_15">
    <path d="M 57.6 307.584 
L 414.72 307.584 
" style="fill: none; stroke: #000000; stroke-width: 0.8; stroke-linejoin: miter; stroke-linecap: square"/>
   </g>
   <g id="patch_16">
    <path d="M 57.6 229.315765 
L 414.72 229.315765 
" style="fill: none; stroke: #000000; stroke-width: 0.8; stroke-linejoin: miter; stroke-linecap: square"/>
   </g>
  </g>
  <g id="text_30">
   <!-- cleaned_weather_fall -->
   <g transform="translate(167.050313 16.030125) scale(0.12 -0.12)">
    <defs>
     <path id="DejaVuSans-63" d="M 3122 3366 
L 3122 2828 
Q 2878 2963 2633 3030 
Q 2388 3097 2138 3097 
Q 1578 3097 1268 2742 
Q 959 2388 959 1747 
Q 959 1106 1268 751 
Q 1578 397 2138 397 
Q 2388 397 2633 464 
Q 2878 531 3122 666 
L 3122 134 
Q 2881 22 2623 -34 
Q 2366 -91 2075 -91 
Q 1284 -91 818 406 
Q 353 903 353 1747 
Q 353 2603 823 3093 
Q 1294 3584 2113 3584 
Q 2378 3584 2631 3529 
Q 2884 3475 3122 3366 
z
" transform="scale(0.015625)"/>
     <path id="DejaVuSans-6c" d="M 603 4863 
L 1178 4863 
L 1178 0 
L 603 0 
L 603 4863 
z
" transform="scale(0.015625)"/>
     <path id="DejaVuSans-65" d="M 3597 1894 
L 3597 1613 
L 953 1613 
Q 991 1019 1311 708 
Q 1631 397 2203 397 
Q 2534 397 2845 478 
Q 3156 559 3463 722 
L 3463 178 
Q 3153 47 2828 -22 
Q 2503 -91 2169 -91 
Q 1331 -91 842 396 
Q 353 884 353 1716 
Q 353 2575 817 3079 
Q 1281 3584 2069 3584 
Q 2775 3584 3186 3129 
Q 3597 2675 3597 1894 
z
M 3022 2063 
Q 3016 2534 2758 2815 
Q 2500 3097 2075 3097 
Q 1594 3097 1305 2825 
Q 1016 2553 972 2059 
L 3022 2063 
z
" transform="scale(0.015625)"/>
     <path id="DejaVuSans-61" d="M 2194 1759 
Q 1497 1759 1228 1600 
Q 959 1441 959 1056 
Q 959 750 1161 570 
Q 1363 391 1709 391 
Q 2188 391 2477 730 
Q 2766 1069 2766 1631 
L 2766 1759 
L 2194 1759 
z
M 3341 1997 
L 3341 0 
L 2766 0 
L 2766 531 
Q 2569 213 2275 61 
Q 1981 -91 1556 -91 
Q 1019 -91 701 211 
Q 384 513 384 1019 
Q 384 1609 779 1909 
Q 1175 2209 1959 2209 
L 2766 2209 
L 2766 2266 
Q 2766 2663 2505 2880 
Q 2244 3097 1772 3097 
Q 1472 3097 1187 3025 
Q 903 2953 641 2809 
L 641 3341 
Q 956 3463 1253 3523 
Q 1550 3584 1831 3584 
Q 2591 3584 2966 3190 
Q 3341 2797 3341 1997 
z
" transform="scale(0.015625)"/>
     <path id="DejaVuSans-6e" d="M 3513 2113 
L 3513 0 
L 2938 0 
L 2938 2094 
Q 2938 2591 2744 2837 
Q 2550 3084 2163 3084 
Q 1697 3084 1428 2787 
Q 1159 2491 1159 1978 
L 1159 0 
L 581 0 
L 581 3500 
L 1159 3500 
L 1159 2956 
Q 1366 3272 1645 3428 
Q 1925 3584 2291 3584 
Q 2894 3584 3203 3211 
Q 3513 2838 3513 2113 
z
" transform="scale(0.015625)"/>
     <path id="DejaVuSans-64" d="M 2906 2969 
L 2906 4863 
L 3481 4863 
L 3481 0 
L 2906 0 
L 2906 525 
Q 2725 213 2448 61 
Q 2172 -91 1784 -91 
Q 1150 -91 751 415 
Q 353 922 353 1747 
Q 353 2572 751 3078 
Q 1150 3584 1784 3584 
Q 2172 3584 2448 3432 
Q 2725 3281 2906 2969 
z
M 947 1747 
Q 947 1113 1208 752 
Q 1469 391 1925 391 
Q 2381 391 2643 752 
Q 2906 1113 2906 1747 
Q 2906 2381 2643 2742 
Q 2381 3103 1925 3103 
Q 1469 3103 1208 2742 
Q 947 2381 947 1747 
z
" transform="scale(0.015625)"/>
     <path id="DejaVuSans-5f" d="M 3263 -1063 
L 3263 -1509 
L -63 -1509 
L -63 -1063 
L 3263 -1063 
z
" transform="scale(0.015625)"/>
     <path id="DejaVuSans-77" d="M 269 3500 
L 844 3500 
L 1563 769 
L 2278 3500 
L 2956 3500 
L 3675 769 
L 4391 3500 
L 4966 3500 
L 4050 0 
L 3372 0 
L 2619 2869 
L 1863 0 
L 1184 0 
L 269 3500 
z
" transform="scale(0.015625)"/>
     <path id="DejaVuSans-74" d="M 1172 4494 
L 1172 3500 
L 2356 3500 
L 2356 3053 
L 1172 3053 
L 1172 1153 
Q 1172 725 1289 603 
Q 1406 481 1766 481 
L 2356 481 
L 2356 0 
L 1766 0 
Q 1100 0 847 248 
Q 594 497 594 1153 
L 594 3053 
L 172 3053 
L 172 3500 
L 594 3500 
L 594 4494 
L 1172 4494 
z
" transform="scale(0.015625)"/>
     <path id="DejaVuSans-68" d="M 3513 2113 
L 3513 0 
L 2938 0 
L 2938 2094 
Q 2938 2591 2744 2837 
Q 2550 3084 2163 3084 
Q 1697 3084 1428 2787 
Q 1159 2491 1159 1978 
L 1159 0 
L 581 0 
L 581 4863 
L 1159 4863 
L 1159 2956 
Q 1366 3272 1645 3428 
Q 1925 3584 2291 3584 
Q 2894 3584 3203 3211 
Q 3513 2838 3513 2113 
z
" transform="scale(0.015625)"/>
     <path id="DejaVuSans-72" d="M 2631 2963 
Q 2534 3019 2420 3045 
Q 2306 3072 2169 3072 
Q 1681 3072 1420 2755 
Q 1159 2438 1159 1844 
L 1159 0 
L 581 0 
L 581 3500 
L 1159 3500 
L 1159 2956 
Q 1341 3275 1631 3429 
Q 1922 3584 2338 3584 
Q 2397 3584 2469 3576 
Q 2541 3569 2628 3553 
L 2631 2963 
z
" transform="scale(0.015625)"/>
     <path id="DejaVuSans-66" d="M 2375 4863 
L 2375 4384 
L 1825 4384 
Q 1516 4384 1395 4259 
Q 1275 4134 1275 3809 
L 1275 3500 
L 2222 3500 
L 2222 3053 
L 1275 3053 
L 1275 0 
L 697 0 
L 697 3053 
L 147 3053 
L 147 3500 
L 697 3500 
L 697 3744 
Q 697 4328 969 4595 
Q 1241 4863 1831 4863 
L 2375 4863 
z
" transform="scale(0.015625)"/>
    </defs>
    <use xlink:href="#DejaVuSans-63"/>
    <use xlink:href="#DejaVuSans-6c" x="54.980469"/>
    <use xlink:href="#DejaVuSans-65" x="82.763672"/>
    <use xlink:href="#DejaVuSans-61" x="144.287109"/>
    <use xlink:href="#DejaVuSans-6e" x="205.566406"/>
    <use xlink:href="#DejaVuSans-65" x="268.945312"/>
    <use xlink:href="#DejaVuSans-64" x="330.46875"/>
    <use xlink:href="#DejaVuSans-5f" x="393.945312"/>
    <use xlink:href="#DejaVuSans-77" x="443.945312"/>
    <use xlink:href="#DejaVuSans-65" x="525.732422"/>
    <use xlink:href="#DejaVuSans-61" x="587.255859"/>
    <use xlink:href="#DejaVuSans-74" x="648.535156"/>
    <use xlink:href="#DejaVuSans-68" x="687.744141"/>
    <use xlink:href="#DejaVuSans-65" x="751.123047"/>
    <use xlink:href="#DejaVuSans-72" x="812.646484"/>
    <use xlink:href="#DejaVuSans-5f" x="853.759766"/>
    <use xlink:href="#DejaVuSans-66" x="903.759766"/>
    <use xlink:href="#DejaVuSans-61" x="938.964844"/>
    <use xlink:href="#DejaVuSans-6c" x="1000.244141"/>
    <use xlink:href="#DejaVuSans-6c" x="1028.027344"/>
   </g>
  </g>
 </g>
 <defs>
  <clipPath id="pcfd3c4515b">
   <rect x="57.6" y="41.472" width="357.12" height="78.268235"/>
  </clipPath>
  <clipPath id="ped92ba5ee2">
   <rect x="57.6" y="135.393882" width="357.12" height="78.268235"/>
  </clipPath>
  <clipPath id="peab0708c5f">
   <rect x="57.6" y="229.315765" width="357.12" height="78.268235"/>
  </clipPath>
 </defs>
</svg>
